<svg xmlns="http://www.w3.org/2000/svg" width="1920" height="1080"><path d="M-197,-202L-19,-185L448,-194Z" fill="#ffe9d4" stroke="#ffe9d4" stroke-width="1.51"/><path d="M-197,-202L448,-194L837,-244Z" fill="#ffe0c1" stroke="#ffe0c1" stroke-width="1.51"/><path d="M897,1322L123,1345L1016,1332Z" fill="#c16a35" stroke="#c16a35" stroke-width="1.51"/><path d="M837,-244L1155,-230L1369,-265Z" fill="#ffb688" stroke="#ffb688" stroke-width="1.51"/><path d="M1016,1332L123,1345L1668,1345Z" fill="#bf5c21" stroke="#bf5c21" stroke-width="1.51"/><path d="M1451,1329L1016,1332L1668,1345Z" fill="#b54208" stroke="#b54208" stroke-width="1.51"/><path d="M1654,-192L1821,-173L1911,-185Z" fill="#e19570" stroke="#e19570" stroke-width="1.51"/><path d="M1654,-192L1911,-185L2060,-232Z" fill="#da926f" stroke="#da926f" stroke-width="1.51"/><path d="M1516,-223L1654,-192L2060,-232Z" fill="#e69872" stroke="#e69872" stroke-width="1.51"/><path d="M1369,-265L1516,-223L2060,-232Z" fill="#ef9c75" stroke="#ef9c75" stroke-width="1.51"/><path d="M1966,836L2063,873L2076,642Z" fill="#bd4709" stroke="#bd4709" stroke-width="1.51"/><path d="M1952,652L1966,836L2076,642Z" fill="#c34f0f" stroke="#c34f0f" stroke-width="1.51"/><path d="M2070,987L1968,1181L2098,1144Z" fill="#a03404" stroke="#a03404" stroke-width="1.51"/><path d="M2076,642L2063,873L2098,1144Z" fill="#b43f05" stroke="#b43f05" stroke-width="1.51"/><path d="M2063,873L2070,987L2098,1144Z" fill="#ab3703" stroke="#ab3703" stroke-width="1.51"/><path d="M2047,56L1886,188L2100,282Z" fill="#ca7b4b" stroke="#ca7b4b" stroke-width="1.51"/><path d="M2079,-104L2047,56L2100,282Z" fill="#c77f55" stroke="#c77f55" stroke-width="1.51"/><path d="M2100,282L1956,361L2118,381Z" fill="#c56c36" stroke="#c56c36" stroke-width="1.51"/><path d="M1956,361L2053,487L2118,381Z" fill="#c6672f" stroke="#c6672f" stroke-width="1.51"/><path d="M2053,487L2076,642L2118,381Z" fill="#c25e24" stroke="#c25e24" stroke-width="1.51"/><path d="M2076,642L2098,1144L2118,381Z" fill="#bc4b0d" stroke="#bc4b0d" stroke-width="1.51"/><path d="M2079,-104L2100,282L2118,381Z" fill="#c47749" stroke="#c47749" stroke-width="1.51"/><path d="M2098,1144L1968,1181L2118,1295Z" fill="#942f04" stroke="#942f04" stroke-width="1.51"/><path d="M1968,1181L1940,1323L2118,1295Z" fill="#912e04" stroke="#912e04" stroke-width="1.51"/><path d="M2118,381L2098,1144L2118,1295Z" fill="#af3904" stroke="#af3904" stroke-width="1.51"/><path d="M1907,1007L1968,1181L2070,987Z" fill="#aa3703" stroke="#aa3703" stroke-width="1.51"/><path d="M2053,487L1915,557L2076,642Z" fill="#c65b1e" stroke="#c65b1e" stroke-width="1.51"/><path d="M1915,557L1952,652L2076,642Z" fill="#c75819" stroke="#c75819" stroke-width="1.51"/><path d="M1909,-80L2047,56L2079,-104Z" fill="#ce8762" stroke="#ce8762" stroke-width="1.51"/><path d="M1886,188L1956,361L2100,282Z" fill="#cb733f" stroke="#cb733f" stroke-width="1.51"/><path d="M1909,-80L1935,50L2047,56Z" fill="#d0875e" stroke="#d0875e" stroke-width="1.51"/><path d="M1935,50L1886,188L2047,56Z" fill="#cf8255" stroke="#cf8255" stroke-width="1.51"/><path d="M2063,873L1966,836L2070,987Z" fill="#b63f05" stroke="#b63f05" stroke-width="1.51"/><path d="M1966,836L1907,1007L2070,987Z" fill="#b73d03" stroke="#b73d03" stroke-width="1.51"/><path d="M2060,-232L1911,-185L2079,-104Z" fill="#cf8c6c" stroke="#cf8c6c" stroke-width="1.51"/><path d="M1911,-185L1909,-80L2079,-104Z" fill="#d28c69" stroke="#d28c69" stroke-width="1.51"/><path d="M1956,361L1915,557L2053,487Z" fill="#ca6428" stroke="#ca6428" stroke-width="1.51"/><path d="M695,1288L123,1345L897,1322Z" fill="#c4703e" stroke="#c4703e" stroke-width="1.51"/><path d="M1830,1272L1668,1345L1940,1323Z" fill="#9b3204" stroke="#9b3204" stroke-width="1.51"/><path d="M1752,659L1839,888L1952,652Z" fill="#cc510c" stroke="#cc510c" stroke-width="1.51"/><path d="M1886,188L1729,274L1956,361Z" fill="#d47840" stroke="#d47840" stroke-width="1.51"/><path d="M1794,422L1915,557L1956,361Z" fill="#d0692b" stroke="#d0692b" stroke-width="1.51"/><path d="M1952,652L1839,888L1966,836Z" fill="#c44a08" stroke="#c44a08" stroke-width="1.51"/><path d="M1839,888L1907,1007L1966,836Z" fill="#bf4104" stroke="#bf4104" stroke-width="1.51"/><path d="M1907,1007L1835,1137L1968,1181Z" fill="#a93703" stroke="#a93703" stroke-width="1.51"/><path d="M1830,1272L1940,1323L1968,1181Z" fill="#993104" stroke="#993104" stroke-width="1.51"/><path d="M1835,1137L1830,1272L1968,1181Z" fill="#a13403" stroke="#a13403" stroke-width="1.51"/><path d="M1729,274L1794,422L1956,361Z" fill="#d67237" stroke="#d67237" stroke-width="1.51"/><path d="M1915,557L1752,659L1952,652Z" fill="#cd5a18" stroke="#cd5a18" stroke-width="1.51"/><path d="M1794,422L1776,529L1915,557Z" fill="#d46625" stroke="#d46625" stroke-width="1.51"/><path d="M1746,43L1886,188L1935,50Z" fill="#d78656" stroke="#d78656" stroke-width="1.51"/><path d="M1909,-80L1772,-42L1935,50Z" fill="#d78b62" stroke="#d78b62" stroke-width="1.51"/><path d="M1821,-173L1909,-80L1911,-185Z" fill="#d8906b" stroke="#d8906b" stroke-width="1.51"/><path d="M1772,-42L1746,43L1935,50Z" fill="#db8b5e" stroke="#db8b5e" stroke-width="1.51"/><path d="M1839,888L1762,989L1907,1007Z" fill="#c03f02" stroke="#c03f02" stroke-width="1.51"/><path d="M1762,989L1835,1137L1907,1007Z" fill="#b63b03" stroke="#b63b03" stroke-width="1.51"/><path d="M1776,529L1752,659L1915,557Z" fill="#d4601d" stroke="#d4601d" stroke-width="1.51"/><path d="M1821,-173L1772,-42L1909,-80Z" fill="#dc9069" stroke="#dc9069" stroke-width="1.51"/><path d="M407,1286L123,1345L695,1288Z" fill="#c67a4d" stroke="#c67a4d" stroke-width="1.51"/><path d="M1746,43L1729,274L1886,188Z" fill="#dc834f" stroke="#dc834f" stroke-width="1.51"/><path d="M1664,231L1729,274L1746,43Z" fill="#e2854d" stroke="#e2854d" stroke-width="1.51"/><path d="M1582,1190L1668,1345L1830,1272Z" fill="#a93703" stroke="#a93703" stroke-width="1.51"/><path d="M1582,1190L1830,1272L1835,1137Z" fill="#ab3803" stroke="#ab3803" stroke-width="1.51"/><path d="M1591,892L1762,989L1839,888Z" fill="#cc4502" stroke="#cc4502" stroke-width="1.51"/><path d="M1752,659L1591,892L1839,888Z" fill="#d24e07" stroke="#d24e07" stroke-width="1.51"/><path d="M1762,989L1582,1190L1835,1137Z" fill="#b73c03" stroke="#b73c03" stroke-width="1.51"/><path d="M1654,-192L1772,-42L1821,-173Z" fill="#e4956d" stroke="#e4956d" stroke-width="1.51"/><path d="M1729,274L1687,411L1794,422Z" fill="#dd7435" stroke="#dd7435" stroke-width="1.51"/><path d="M1601,655L1591,892L1752,659Z" fill="#de570c" stroke="#de570c" stroke-width="1.51"/><path d="M1591,892L1601,952L1762,989Z" fill="#d14502" stroke="#d14502" stroke-width="1.51"/><path d="M1654,-192L1633,-69L1772,-42Z" fill="#e9966b" stroke="#e9966b" stroke-width="1.51"/><path d="M1687,411L1776,529L1794,422Z" fill="#dc6c2b" stroke="#dc6c2b" stroke-width="1.51"/><path d="M1593,44L1664,231L1746,43Z" fill="#e78c58" stroke="#e78c58" stroke-width="1.51"/><path d="M1601,952L1582,1190L1762,989Z" fill="#c64102" stroke="#c64102" stroke-width="1.51"/><path d="M1613,535L1752,659L1776,529Z" fill="#dd641e" stroke="#dd641e" stroke-width="1.51"/><path d="M1687,411L1613,535L1776,529Z" fill="#e06c27" stroke="#e06c27" stroke-width="1.51"/><path d="M1633,-69L1746,43L1772,-42Z" fill="#e59164" stroke="#e59164" stroke-width="1.51"/><path d="M1613,535L1601,655L1752,659Z" fill="#e1621a" stroke="#e1621a" stroke-width="1.51"/><path d="M1633,-69L1593,44L1746,43Z" fill="#ea9262" stroke="#ea9262" stroke-width="1.51"/><path d="M1506,788L1591,892L1601,655Z" fill="#e35608" stroke="#e35608" stroke-width="1.51"/><path d="M1664,231L1687,411L1729,274Z" fill="#e27b3e" stroke="#e27b3e" stroke-width="1.51"/><path d="M1226,1277L1016,1332L1451,1329Z" fill="#bc4b0d" stroke="#bc4b0d" stroke-width="1.51"/><path d="M1482,1158L1582,1190L1601,952Z" fill="#c64202" stroke="#c64202" stroke-width="1.51"/><path d="M1593,44L1494,184L1664,231Z" fill="#ee8c53" stroke="#ee8c53" stroke-width="1.51"/><path d="M1664,231L1528,399L1687,411Z" fill="#e77a39" stroke="#e77a39" stroke-width="1.51"/><path d="M1528,399L1613,535L1687,411Z" fill="#e8722d" stroke="#e8722d" stroke-width="1.51"/><path d="M1494,184L1528,399L1664,231Z" fill="#ef8344" stroke="#ef8344" stroke-width="1.51"/><path d="M1582,1190L1451,1329L1668,1345Z" fill="#b23a03" stroke="#b23a03" stroke-width="1.51"/><path d="M1516,-223L1633,-69L1654,-192Z" fill="#f39b71" stroke="#f39b71" stroke-width="1.51"/><path d="M1468,951L1482,1158L1601,952Z" fill="#d24702" stroke="#d24702" stroke-width="1.51"/><path d="M1500,636L1601,655L1613,535Z" fill="#e8651b" stroke="#e8651b" stroke-width="1.51"/><path d="M1458,-12L1593,44L1633,-69Z" fill="#f39665" stroke="#f39665" stroke-width="1.51"/><path d="M1516,-223L1458,-12L1633,-69Z" fill="#f69c6e" stroke="#f69c6e" stroke-width="1.51"/><path d="M1458,-12L1482,42L1593,44Z" fill="#f59763" stroke="#f59763" stroke-width="1.51"/><path d="M1482,42L1494,184L1593,44Z" fill="#f3935b" stroke="#f3935b" stroke-width="1.51"/><path d="M1500,636L1506,788L1601,655Z" fill="#e86012" stroke="#e86012" stroke-width="1.51"/><path d="M1528,399L1464,551L1613,535Z" fill="#ed7129" stroke="#ed7129" stroke-width="1.51"/><path d="M1464,551L1500,636L1613,535Z" fill="#ec6b1f" stroke="#ec6b1f" stroke-width="1.51"/><path d="M1482,1158L1451,1329L1582,1190Z" fill="#ba3f04" stroke="#ba3f04" stroke-width="1.51"/><path d="M1591,892L1468,951L1601,952Z" fill="#db4a01" stroke="#db4a01" stroke-width="1.51"/><path d="M1494,184L1381,271L1528,399Z" fill="#f28644" stroke="#f28644" stroke-width="1.51"/><path d="M1506,788L1468,951L1591,892Z" fill="#df5005" stroke="#df5005" stroke-width="1.51"/><path d="M-19,-185L99,-172L448,-194Z" fill="#ffe5cd" stroke="#ffe5cd" stroke-width="1.51"/><path d="M1468,951L1318,994L1482,1158Z" fill="#d44c05" stroke="#d44c05" stroke-width="1.51"/><path d="M1500,636L1348,716L1506,788Z" fill="#eb6212" stroke="#eb6212" stroke-width="1.51"/><path d="M1350,786L1468,951L1506,788Z" fill="#e55808" stroke="#e55808" stroke-width="1.51"/><path d="M1352,-26L1458,-12L1516,-223Z" fill="#f9a06f" stroke="#f9a06f" stroke-width="1.51"/><path d="M1369,-265L1352,-26L1516,-223Z" fill="#fca576" stroke="#fca576" stroke-width="1.51"/><path d="M1349,444L1464,551L1528,399Z" fill="#f1782f" stroke="#f1782f" stroke-width="1.51"/><path d="M1381,271L1349,444L1528,399Z" fill="#f2813a" stroke="#f2813a" stroke-width="1.51"/><path d="M1345,1166L1451,1329L1482,1158Z" fill="#bf4406" stroke="#bf4406" stroke-width="1.51"/><path d="M1318,994L1345,1166L1482,1158Z" fill="#cd4b06" stroke="#cd4b06" stroke-width="1.51"/><path d="M1482,42L1353,63L1494,184Z" fill="#f5965d" stroke="#f5965d" stroke-width="1.51"/><path d="M1348,716L1350,786L1506,788Z" fill="#eb600e" stroke="#eb600e" stroke-width="1.51"/><path d="M1280,1263L1226,1277L1451,1329Z" fill="#bb4709" stroke="#bb4709" stroke-width="1.51"/><path d="M1464,551L1318,591L1500,636Z" fill="#ef6e20" stroke="#ef6e20" stroke-width="1.51"/><path d="M1318,591L1348,716L1500,636Z" fill="#ef6b1b" stroke="#ef6b1b" stroke-width="1.51"/><path d="M1353,63L1381,271L1494,184Z" fill="#f69355" stroke="#f69355" stroke-width="1.51"/><path d="M1350,786L1318,994L1468,951Z" fill="#e35608" stroke="#e35608" stroke-width="1.51"/><path d="M1458,-12L1353,63L1482,42Z" fill="#f79a64" stroke="#f79a64" stroke-width="1.51"/><path d="M1345,1166L1280,1263L1451,1329Z" fill="#be4608" stroke="#be4608" stroke-width="1.51"/><path d="M1352,-26L1353,63L1458,-12Z" fill="#f99e67" stroke="#f99e67" stroke-width="1.51"/><path d="M1349,444L1318,591L1464,551Z" fill="#f37628" stroke="#f37628" stroke-width="1.51"/><path d="M1225,484L1318,591L1349,444Z" fill="#f67d2d" stroke="#f67d2d" stroke-width="1.51"/><path d="M1195,855L1318,994L1350,786Z" fill="#e95d0c" stroke="#e95d0c" stroke-width="1.51"/><path d="M1232,55L1181,203L1353,63Z" fill="#fc9f61" stroke="#fc9f61" stroke-width="1.51"/><path d="M1218,-68L1352,-26L1369,-265Z" fill="#fea775" stroke="#fea775" stroke-width="1.51"/><path d="M1155,-230L1218,-68L1369,-265Z" fill="#ffae7c" stroke="#ffae7c" stroke-width="1.51"/><path d="M1198,387L1349,444L1381,271Z" fill="#f6883e" stroke="#f6883e" stroke-width="1.51"/><path d="M1181,203L1198,387L1381,271Z" fill="#fa9149" stroke="#fa9149" stroke-width="1.51"/><path d="M1353,63L1181,203L1381,271Z" fill="#f99856" stroke="#f99856" stroke-width="1.51"/><path d="M448,-194L636,-194L837,-244Z" fill="#ffd0a7" stroke="#ffd0a7" stroke-width="1.51"/><path d="M1318,994L1164,1195L1345,1166Z" fill="#d05009" stroke="#d05009" stroke-width="1.51"/><path d="M1318,591L1131,648L1348,716Z" fill="#f4711e" stroke="#f4711e" stroke-width="1.51"/><path d="M1198,387L1225,484L1349,444Z" fill="#f88436" stroke="#f88436" stroke-width="1.51"/><path d="M1348,716L1195,855L1350,786Z" fill="#ed6411" stroke="#ed6411" stroke-width="1.51"/><path d="M1218,-68L1232,55L1352,-26Z" fill="#fea56d" stroke="#fea56d" stroke-width="1.51"/><path d="M1352,-26L1232,55L1353,63Z" fill="#fca067" stroke="#fca067" stroke-width="1.51"/><path d="M1131,648L1195,855L1348,716Z" fill="#f26c17" stroke="#f26c17" stroke-width="1.51"/><path d="M1164,1195L1280,1263L1345,1166Z" fill="#c64d0a" stroke="#c64d0a" stroke-width="1.51"/><path d="M1091,1026L1164,1195L1318,994Z" fill="#d75810" stroke="#d75810" stroke-width="1.51"/><path d="M1129,971L1091,1026L1318,994Z" fill="#e15c12" stroke="#e15c12" stroke-width="1.51"/><path d="M1195,855L1129,971L1318,994Z" fill="#e75d0f" stroke="#e75d0f" stroke-width="1.51"/><path d="M1225,484L1131,648L1318,591Z" fill="#f77a28" stroke="#f77a28" stroke-width="1.51"/><path d="M1164,1195L1226,1277L1280,1263Z" fill="#c34f0e" stroke="#c34f0e" stroke-width="1.51"/><path d="M1131,648L1037,723L1195,855Z" fill="#f4721f" stroke="#f4721f" stroke-width="1.51"/><path d="M1181,203L1051,256L1198,387Z" fill="#fc9851" stroke="#fc9851" stroke-width="1.51"/><path d="M1155,-230L1035,-58L1218,-68Z" fill="#ffb17e" stroke="#ffb17e" stroke-width="1.51"/><path d="M1026,484L1131,648L1225,484Z" fill="#fa8332" stroke="#fa8332" stroke-width="1.51"/><path d="M1001,54L1181,203L1232,55Z" fill="#fea668" stroke="#fea668" stroke-width="1.51"/><path d="M1218,-68L1035,-58L1232,55Z" fill="#ffab74" stroke="#ffab74" stroke-width="1.51"/><path d="M1035,-58L1001,54L1232,55Z" fill="#ffae74" stroke="#ffae74" stroke-width="1.51"/><path d="M1017,-159L1035,-58L1155,-230Z" fill="#ffb684" stroke="#ffb684" stroke-width="1.51"/><path d="M1198,387L1053,411L1225,484Z" fill="#fa8a3e" stroke="#fa8a3e" stroke-width="1.51"/><path d="M1164,1195L1016,1332L1226,1277Z" fill="#c25314" stroke="#c25314" stroke-width="1.51"/><path d="M1053,411L1026,484L1225,484Z" fill="#fb8b3d" stroke="#fb8b3d" stroke-width="1.51"/><path d="M837,-244L1017,-159L1155,-230Z" fill="#ffbc8c" stroke="#ffbc8c" stroke-width="1.51"/><path d="M1091,1026L1048,1187L1164,1195Z" fill="#d15a17" stroke="#d15a17" stroke-width="1.51"/><path d="M1048,1187L1016,1332L1164,1195Z" fill="#c75719" stroke="#c75719" stroke-width="1.51"/><path d="M1001,54L1051,256L1181,203Z" fill="#fea563" stroke="#fea563" stroke-width="1.51"/><path d="M1037,723L1013,808L1195,855Z" fill="#f2701f" stroke="#f2701f" stroke-width="1.51"/><path d="M1051,256L1053,411L1198,387Z" fill="#fb944a" stroke="#fb944a" stroke-width="1.51"/><path d="M1013,808L1129,971L1195,855Z" fill="#ed681a" stroke="#ed681a" stroke-width="1.51"/><path d="M1026,484L897,570L1037,723Z" fill="#fb8736" stroke="#fb8736" stroke-width="1.51"/><path d="M1013,808L1091,1026L1129,971Z" fill="#ea661a" stroke="#ea661a" stroke-width="1.51"/><path d="M1026,484L1037,723L1131,648Z" fill="#f9812f" stroke="#f9812f" stroke-width="1.51"/><path d="M894,1013L871,1116L1048,1187Z" fill="#d86623" stroke="#d86623" stroke-width="1.51"/><path d="M1051,256L930,278L1053,411Z" fill="#fd9c54" stroke="#fd9c54" stroke-width="1.51"/><path d="M894,1013L1048,1187L1091,1026Z" fill="#db631d" stroke="#db631d" stroke-width="1.51"/><path d="M1013,808L894,1013L1091,1026Z" fill="#eb6a1f" stroke="#eb6a1f" stroke-width="1.51"/><path d="M840,92L930,278L1001,54Z" fill="#ffb070" stroke="#ffb070" stroke-width="1.51"/><path d="M897,570L842,656L1037,723Z" fill="#fa8635" stroke="#fa8635" stroke-width="1.51"/><path d="M897,1322L1016,1332L1048,1187Z" fill="#c55b1e" stroke="#c55b1e" stroke-width="1.51"/><path d="M1001,54L930,278L1051,256Z" fill="#ffa765" stroke="#ffa765" stroke-width="1.51"/><path d="M868,423L1026,484L1053,411Z" fill="#fd9446" stroke="#fd9446" stroke-width="1.51"/><path d="M930,278L868,423L1053,411Z" fill="#fd9b51" stroke="#fd9b51" stroke-width="1.51"/><path d="M830,821L894,1013L1013,808Z" fill="#f07429" stroke="#f07429" stroke-width="1.51"/><path d="M871,1116L897,1322L1048,1187Z" fill="#cc6022" stroke="#cc6022" stroke-width="1.51"/><path d="M1017,-159L864,-7L1035,-58Z" fill="#ffb984" stroke="#ffb984" stroke-width="1.51"/><path d="M864,-7L1001,54L1035,-58Z" fill="#ffb57d" stroke="#ffb57d" stroke-width="1.51"/><path d="M842,656L1013,808L1037,723Z" fill="#f87d2b" stroke="#f87d2b" stroke-width="1.51"/><path d="M842,656L830,821L1013,808Z" fill="#f67e2f" stroke="#f67e2f" stroke-width="1.51"/><path d="M868,423L897,570L1026,484Z" fill="#fd9344" stroke="#fd9344" stroke-width="1.51"/><path d="M785,-194L864,-7L1017,-159Z" fill="#ffbf8e" stroke="#ffbf8e" stroke-width="1.51"/><path d="M837,-244L785,-194L1017,-159Z" fill="#ffc294" stroke="#ffc294" stroke-width="1.51"/><path d="M864,-7L840,92L1001,54Z" fill="#ffb77c" stroke="#ffb77c" stroke-width="1.51"/><path d="M561,1261L407,1286L695,1288Z" fill="#c87340" stroke="#c87340" stroke-width="1.51"/><path d="M830,821L749,990L894,1013Z" fill="#ed752e" stroke="#ed752e" stroke-width="1.51"/><path d="M871,1116L768,1152L897,1322Z" fill="#ce6729" stroke="#ce6729" stroke-width="1.51"/><path d="M840,92L735,235L930,278Z" fill="#ffb06f" stroke="#ffb06f" stroke-width="1.51"/><path d="M735,235L785,349L930,278Z" fill="#feaa65" stroke="#feaa65" stroke-width="1.51"/><path d="M785,349L868,423L930,278Z" fill="#fda25a" stroke="#fda25a" stroke-width="1.51"/><path d="M749,990L871,1116L894,1013Z" fill="#e16f2c" stroke="#e16f2c" stroke-width="1.51"/><path d="M768,1152L695,1288L897,1322Z" fill="#c9672e" stroke="#c9672e" stroke-width="1.51"/><path d="M868,423L717,544L897,570Z" fill="#fe974a" stroke="#fe974a" stroke-width="1.51"/><path d="M717,544L842,656L897,570Z" fill="#fc9143" stroke="#fc9143" stroke-width="1.51"/><path d="M785,-194L679,-55L864,-7Z" fill="#ffc394" stroke="#ffc394" stroke-width="1.51"/><path d="M714,714L830,821L842,656Z" fill="#f98639" stroke="#f98639" stroke-width="1.51"/><path d="M743,59L840,92L864,-7Z" fill="#ffbb83" stroke="#ffbb83" stroke-width="1.51"/><path d="M785,349L717,544L868,423Z" fill="#fe9f56" stroke="#fe9f56" stroke-width="1.51"/><path d="M749,990L768,1152L871,1116Z" fill="#dc6f2f" stroke="#dc6f2f" stroke-width="1.51"/><path d="M679,-55L743,59L864,-7Z" fill="#ffc18c" stroke="#ffc18c" stroke-width="1.51"/><path d="M99,-172L312,-161L448,-194Z" fill="#ffe1c4" stroke="#ffe1c4" stroke-width="1.51"/><path d="M699,821L749,990L830,821Z" fill="#f17d36" stroke="#f17d36" stroke-width="1.51"/><path d="M714,714L699,821L830,821Z" fill="#f6853a" stroke="#f6853a" stroke-width="1.51"/><path d="M636,-194L785,-194L837,-244Z" fill="#ffca9e" stroke="#ffca9e" stroke-width="1.51"/><path d="M743,59L735,235L840,92Z" fill="#ffb97e" stroke="#ffb97e" stroke-width="1.51"/><path d="M717,544L714,714L842,656Z" fill="#fc9044" stroke="#fc9044" stroke-width="1.51"/><path d="M636,-194L630,-93L679,-55Z" fill="#ffcca0" stroke="#ffcca0" stroke-width="1.51"/><path d="M634,240L735,235L743,59Z" fill="#feb97c" stroke="#feb97c" stroke-width="1.51"/><path d="M749,990L627,1137L768,1152Z" fill="#db7335" stroke="#db7335" stroke-width="1.51"/><path d="M584,392L717,544L785,349Z" fill="#fea55e" stroke="#fea55e" stroke-width="1.51"/><path d="M735,235L634,240L785,349Z" fill="#feb06f" stroke="#feb06f" stroke-width="1.51"/><path d="M634,240L584,392L785,349Z" fill="#fdae6c" stroke="#fdae6c" stroke-width="1.51"/><path d="M636,-194L679,-55L785,-194Z" fill="#ffca9e" stroke="#ffca9e" stroke-width="1.51"/><path d="M562,129L634,240L743,59Z" fill="#febf86" stroke="#febf86" stroke-width="1.51"/><path d="M627,1137L695,1288L768,1152Z" fill="#cf6f35" stroke="#cf6f35" stroke-width="1.51"/><path d="M576,560L714,714L717,544Z" fill="#fc984e" stroke="#fc984e" stroke-width="1.51"/><path d="M699,821L551,994L749,990Z" fill="#ee7e3b" stroke="#ee7e3b" stroke-width="1.51"/><path d="M551,994L627,1137L749,990Z" fill="#e27a3b" stroke="#e27a3b" stroke-width="1.51"/><path d="M679,-55L562,129L743,59Z" fill="#ffc38f" stroke="#ffc38f" stroke-width="1.51"/><path d="M576,560L575,730L714,714Z" fill="#fb954d" stroke="#fb954d" stroke-width="1.51"/><path d="M584,392L576,560L717,544Z" fill="#fda35c" stroke="#fda35c" stroke-width="1.51"/><path d="M627,1137L561,1261L695,1288Z" fill="#cc723b" stroke="#cc723b" stroke-width="1.51"/><path d="M585,791L551,994L699,821Z" fill="#f28643" stroke="#f28643" stroke-width="1.51"/><path d="M585,791L699,821L714,714Z" fill="#f78a41" stroke="#f78a41" stroke-width="1.51"/><path d="M575,730L585,791L714,714Z" fill="#f98f46" stroke="#f98f46" stroke-width="1.51"/><path d="M630,-93L477,-20L679,-55Z" fill="#ffcca0" stroke="#ffcca0" stroke-width="1.51"/><path d="M477,-20L562,129L679,-55Z" fill="#ffca9a" stroke="#ffca9a" stroke-width="1.51"/><path d="M441,248L584,392L634,240Z" fill="#feb87b" stroke="#feb87b" stroke-width="1.51"/><path d="M448,-194L630,-93L636,-194Z" fill="#ffd2aa" stroke="#ffd2aa" stroke-width="1.51"/><path d="M551,994L481,1006L627,1137Z" fill="#e37f44" stroke="#e37f44" stroke-width="1.51"/><path d="M562,129L441,248L634,240Z" fill="#febf86" stroke="#febf86" stroke-width="1.51"/><path d="M448,-194L477,-20L630,-93Z" fill="#ffd3ab" stroke="#ffd3ab" stroke-width="1.51"/><path d="M388,1174L561,1261L627,1137Z" fill="#d17944" stroke="#d17944" stroke-width="1.51"/><path d="M481,1006L388,1174L627,1137Z" fill="#db7f48" stroke="#db7f48" stroke-width="1.51"/><path d="M414,578L380,741L575,730Z" fill="#fc9d5b" stroke="#fc9d5b" stroke-width="1.51"/><path d="M380,741L383,820L575,730Z" fill="#fa9756" stroke="#fa9756" stroke-width="1.51"/><path d="M414,578L575,730L576,560Z" fill="#fd9f5a" stroke="#fd9f5a" stroke-width="1.51"/><path d="M441,248L382,362L584,392Z" fill="#feb97c" stroke="#feb97c" stroke-width="1.51"/><path d="M414,578L576,560L584,392Z" fill="#ffa864" stroke="#ffa864" stroke-width="1.51"/><path d="M382,362L414,578L584,392Z" fill="#ffb171" stroke="#ffb171" stroke-width="1.51"/><path d="M481,1006L551,994L585,791Z" fill="#f08647" stroke="#f08647" stroke-width="1.51"/><path d="M383,820L481,1006L585,791Z" fill="#f48e4e" stroke="#f48e4e" stroke-width="1.51"/><path d="M575,730L383,820L585,791Z" fill="#f9934f" stroke="#f9934f" stroke-width="1.51"/><path d="M477,-20L398,119L562,129Z" fill="#fecc9c" stroke="#fecc9c" stroke-width="1.51"/><path d="M388,1174L407,1286L561,1261Z" fill="#cc7b4a" stroke="#cc7b4a" stroke-width="1.51"/><path d="M398,119L441,248L562,129Z" fill="#fec793" stroke="#fec793" stroke-width="1.51"/><path d="M302,1256L123,1345L407,1286Z" fill="#c98057" stroke="#c98057" stroke-width="1.51"/><path d="M298,-33L398,119L477,-20Z" fill="#fed3aa" stroke="#fed3aa" stroke-width="1.51"/><path d="M448,-194L312,-161L477,-20Z" fill="#fed9b6" stroke="#fed9b6" stroke-width="1.51"/><path d="M312,-161L298,-33L477,-20Z" fill="#fedab7" stroke="#fedab7" stroke-width="1.51"/><path d="M383,820L293,829L481,1006Z" fill="#f49257" stroke="#f49257" stroke-width="1.51"/><path d="M293,829L239,1039L481,1006Z" fill="#f09058" stroke="#f09058" stroke-width="1.51"/><path d="M239,1039L388,1174L481,1006Z" fill="#e18853" stroke="#e18853" stroke-width="1.51"/><path d="M250,391L228,518L382,362Z" fill="#ffbb82" stroke="#ffbb82" stroke-width="1.51"/><path d="M298,-33L303,99L398,119Z" fill="#fed4ab" stroke="#fed4ab" stroke-width="1.51"/><path d="M382,362L228,518L414,578Z" fill="#ffb477" stroke="#ffb477" stroke-width="1.51"/><path d="M398,119L329,232L441,248Z" fill="#fec996" stroke="#fec996" stroke-width="1.51"/><path d="M329,232L382,362L441,248Z" fill="#fec28b" stroke="#fec28b" stroke-width="1.51"/><path d="M239,1039L238,1120L388,1174Z" fill="#dd8959" stroke="#dd8959" stroke-width="1.51"/><path d="M313,739L380,741L414,578Z" fill="#fda363" stroke="#fda363" stroke-width="1.51"/><path d="M388,1174L302,1256L407,1286Z" fill="#cd7f51" stroke="#cd7f51" stroke-width="1.51"/><path d="M228,518L313,739L414,578Z" fill="#ffab6d" stroke="#ffab6d" stroke-width="1.51"/><path d="M303,99L329,232L398,119Z" fill="#fdcea0" stroke="#fdcea0" stroke-width="1.51"/><path d="M380,741L313,739L383,820Z" fill="#fb9d5e" stroke="#fb9d5e" stroke-width="1.51"/><path d="M329,232L250,391L382,362Z" fill="#fec18a" stroke="#fec18a" stroke-width="1.51"/><path d="M313,739L293,829L383,820Z" fill="#f99b5f" stroke="#f99b5f" stroke-width="1.51"/><path d="M238,1120L302,1256L388,1174Z" fill="#d38456" stroke="#d38456" stroke-width="1.51"/><path d="M25,1324L-129,1342L123,1345Z" fill="#c78767" stroke="#c78767" stroke-width="1.51"/><path d="M97,564L79,717L228,518Z" fill="#ffb27b" stroke="#ffb27b" stroke-width="1.51"/><path d="M137,982L239,1039L293,829Z" fill="#f39460" stroke="#f39460" stroke-width="1.51"/><path d="M139,865L137,982L293,829Z" fill="#f69965" stroke="#f69965" stroke-width="1.51"/><path d="M298,-33L171,49L303,99Z" fill="#fed8b3" stroke="#fed8b3" stroke-width="1.51"/><path d="M138,-83L298,-33L312,-161Z" fill="#fedfc1" stroke="#fedfc1" stroke-width="1.51"/><path d="M228,518L79,717L313,739Z" fill="#ffab70" stroke="#ffab70" stroke-width="1.51"/><path d="M303,99L187,212L329,232Z" fill="#fecea1" stroke="#fecea1" stroke-width="1.51"/><path d="M187,212L250,391L329,232Z" fill="#ffc795" stroke="#ffc795" stroke-width="1.51"/><path d="M139,865L293,829L313,739Z" fill="#fa9d64" stroke="#fa9d64" stroke-width="1.51"/><path d="M79,717L139,865L313,739Z" fill="#fda26b" stroke="#fda26b" stroke-width="1.51"/><path d="M99,-172L138,-83L312,-161Z" fill="#fee3c9" stroke="#fee3c9" stroke-width="1.51"/><path d="M238,1120L98,1140L302,1256Z" fill="#d6885d" stroke="#d6885d" stroke-width="1.51"/><path d="M98,1140L123,1345L302,1256Z" fill="#cf865e" stroke="#cf865e" stroke-width="1.51"/><path d="M171,49L187,212L303,99Z" fill="#fed5ad" stroke="#fed5ad" stroke-width="1.51"/><path d="M187,212L115,337L250,391Z" fill="#ffc796" stroke="#ffc796" stroke-width="1.51"/><path d="M138,-83L171,49L298,-33Z" fill="#fedebd" stroke="#fedebd" stroke-width="1.51"/><path d="M115,337L228,518L250,391Z" fill="#ffbf89" stroke="#ffbf89" stroke-width="1.51"/><path d="M115,337L97,564L228,518Z" fill="#ffbc86" stroke="#ffbc86" stroke-width="1.51"/><path d="M98,1140L238,1120L239,1039Z" fill="#df8d60" stroke="#df8d60" stroke-width="1.51"/><path d="M137,982L98,1140L239,1039Z" fill="#e69163" stroke="#e69163" stroke-width="1.51"/><path d="M-19,430L97,564L115,337Z" fill="#ffc28f" stroke="#ffc28f" stroke-width="1.51"/><path d="M98,1140L25,1324L123,1345Z" fill="#cd8864" stroke="#cd8864" stroke-width="1.51"/><path d="M-71,89L30,251L171,49Z" fill="#fedbb8" stroke="#fedbb8" stroke-width="1.51"/><path d="M171,49L30,251L187,212Z" fill="#ffd5ad" stroke="#ffd5ad" stroke-width="1.51"/><path d="M30,251L115,337L187,212Z" fill="#ffcda2" stroke="#ffcda2" stroke-width="1.51"/><path d="M138,-83L-18,-108L171,49Z" fill="#fee3c8" stroke="#fee3c8" stroke-width="1.51"/><path d="M-18,-108L-71,89L171,49Z" fill="#fee2c6" stroke="#fee2c6" stroke-width="1.51"/><path d="M-18,1165L25,1324L98,1140Z" fill="#d48c68" stroke="#d48c68" stroke-width="1.51"/><path d="M-42,1010L98,1140L137,982Z" fill="#e89569" stroke="#e89569" stroke-width="1.51"/><path d="M99,-172L-18,-108L138,-83Z" fill="#fee7d0" stroke="#fee7d0" stroke-width="1.51"/><path d="M79,717L-46,800L139,865Z" fill="#fda572" stroke="#fda572" stroke-width="1.51"/><path d="M-42,1010L137,982L139,865Z" fill="#f4996a" stroke="#f4996a" stroke-width="1.51"/><path d="M-46,800L-42,1010L139,865Z" fill="#f89f70" stroke="#f89f70" stroke-width="1.51"/><path d="M-13,581L79,717L97,564Z" fill="#ffb37f" stroke="#ffb37f" stroke-width="1.51"/><path d="M-19,430L-13,581L97,564Z" fill="#ffbc89" stroke="#ffbc89" stroke-width="1.51"/><path d="M-42,1010L-18,1165L98,1140Z" fill="#e1926b" stroke="#e1926b" stroke-width="1.51"/><path d="M30,251L-19,430L115,337Z" fill="#ffca9d" stroke="#ffca9d" stroke-width="1.51"/><path d="M-13,581L-67,653L79,717Z" fill="#ffb27f" stroke="#ffb27f" stroke-width="1.51"/><path d="M-19,-185L-18,-108L99,-172Z" fill="#ffead5" stroke="#ffead5" stroke-width="1.51"/><path d="M-67,653L-46,800L79,717Z" fill="#ffad79" stroke="#ffad79" stroke-width="1.51"/><path d="M-46,800L-184,874L-42,1010Z" fill="#faa275" stroke="#faa275" stroke-width="1.51"/><path d="M-18,1165L-139,1193L25,1324Z" fill="#d38d6b" stroke="#d38d6b" stroke-width="1.51"/><path d="M-139,1193L-129,1342L25,1324Z" fill="#cd8c6c" stroke="#cd8c6c" stroke-width="1.51"/><path d="M-71,89L-178,192L30,251Z" fill="#ffdab8" stroke="#ffdab8" stroke-width="1.51"/><path d="M-178,192L-116,360L30,251Z" fill="#ffd3ac" stroke="#ffd3ac" stroke-width="1.51"/><path d="M-116,360L-19,430L30,251Z" fill="#ffcb9f" stroke="#ffcb9f" stroke-width="1.51"/><path d="M-184,874L-165,1007L-42,1010Z" fill="#f59e74" stroke="#f59e74" stroke-width="1.51"/><path d="M-165,1007L-139,1193L-42,1010Z" fill="#e79871" stroke="#e79871" stroke-width="1.51"/><path d="M-116,360L-212,531L-19,430Z" fill="#ffc698" stroke="#ffc698" stroke-width="1.51"/><path d="M-198,-58L-71,89L-18,-108Z" fill="#ffe7d0" stroke="#ffe7d0" stroke-width="1.51"/><path d="M-19,-185L-197,-202L-18,-108Z" fill="#ffedda" stroke="#ffedda" stroke-width="1.51"/><path d="M-42,1010L-139,1193L-18,1165Z" fill="#e0936e" stroke="#e0936e" stroke-width="1.51"/><path d="M-170,646L-67,653L-13,581Z" fill="#ffb685" stroke="#ffb685" stroke-width="1.51"/><path d="M-212,531L-170,646L-13,581Z" fill="#ffbb8a" stroke="#ffbb8a" stroke-width="1.51"/><path d="M-19,430L-212,531L-13,581Z" fill="#ffbf8f" stroke="#ffbf8f" stroke-width="1.51"/><path d="M-197,-202L-198,-58L-18,-108Z" fill="#ffecda" stroke="#ffecda" stroke-width="1.51"/><path d="M-67,653L-170,646L-46,800Z" fill="#ffb07f" stroke="#ffb07f" stroke-width="1.51"/><path d="M-170,646L-184,874L-46,800Z" fill="#ffac7c" stroke="#ffac7c" stroke-width="1.51"/><path d="M-204,137L-178,192L-71,89Z" fill="#ffdfc0" stroke="#ffdfc0" stroke-width="1.51"/><path d="M-198,-58L-204,137L-71,89Z" fill="#ffe4ca" stroke="#ffe4ca" stroke-width="1.51"/><path d="M-165,1007L-184,874L-129,1342Z" fill="#e79873" stroke="#e79873" stroke-width="1.51"/><path d="M-178,192L-212,531L-116,360Z" fill="#ffcda4" stroke="#ffcda4" stroke-width="1.51"/><path d="M-139,1193L-165,1007L-129,1342Z" fill="#d99270" stroke="#d99270" stroke-width="1.51"/><path d="M-204,137L-212,531L-178,192Z" fill="#ffd4af" stroke="#ffd4af" stroke-width="1.51"/><path d="M-212,531L-184,874L-170,646Z" fill="#ffb485" stroke="#ffb485" stroke-width="1.51"/><path d="M-204,137L-198,-58L-197,-202Z" fill="#ffead6" stroke="#ffead6" stroke-width="1.51"/></svg>