<svg xmlns="http://www.w3.org/2000/svg" width="1920" height="1080"><path d="M-197,-202L-19,-185L448,-194Z" fill="#a7232e" stroke="#a7232e" stroke-width="1.51"/><path d="M-197,-202L448,-194L837,-244Z" fill="#b64d44" stroke="#b64d44" stroke-width="1.51"/><path d="M897,1322L123,1345L1016,1332Z" fill="#87746a" stroke="#87746a" stroke-width="1.51"/><path d="M837,-244L1155,-230L1369,-265Z" fill="#b87d7e" stroke="#b87d7e" stroke-width="1.51"/><path d="M1016,1332L123,1345L1668,1345Z" fill="#878584" stroke="#878584" stroke-width="1.51"/><path d="M1451,1329L1016,1332L1668,1345Z" fill="#6e6e6e" stroke="#6e6e6e" stroke-width="1.51"/><path d="M1654,-192L1821,-173L1911,-185Z" fill="#864847" stroke="#864847" stroke-width="1.51"/><path d="M1654,-192L1911,-185L2060,-232Z" fill="#763d3d" stroke="#763d3d" stroke-width="1.51"/><path d="M1516,-223L1654,-192L2060,-232Z" fill="#854b4b" stroke="#854b4b" stroke-width="1.51"/><path d="M1369,-265L1516,-223L2060,-232Z" fill="#8c5455" stroke="#8c5455" stroke-width="1.51"/><path d="M1966,836L2063,873L2076,642Z" fill="#7d7d7d" stroke="#7d7d7d" stroke-width="1.51"/><path d="M1952,652L1966,836L2076,642Z" fill="#898989" stroke="#898989" stroke-width="1.51"/><path d="M2070,987L1968,1181L2098,1144Z" fill="#4e4e4e" stroke="#4e4e4e" stroke-width="1.51"/><path d="M2076,642L2063,873L2098,1144Z" fill="#6b6b6b" stroke="#6b6b6b" stroke-width="1.51"/><path d="M2063,873L2070,987L2098,1144Z" fill="#5b5b5b" stroke="#5b5b5b" stroke-width="1.51"/><path d="M2047,56L1886,188L2100,282Z" fill="#906757" stroke="#906757" stroke-width="1.51"/><path d="M2079,-104L2047,56L2100,282Z" fill="#804d41" stroke="#804d41" stroke-width="1.51"/><path d="M2100,282L1956,361L2118,381Z" fill="#8f7b70" stroke="#8f7b70" stroke-width="1.51"/><path d="M1956,361L2053,487L2118,381Z" fill="#91857e" stroke="#91857e" stroke-width="1.51"/><path d="M2053,487L2076,642L2118,381Z" fill="#8d8987" stroke="#8d8987" stroke-width="1.51"/><path d="M2076,642L2098,1144L2118,381Z" fill="#7b7b7b" stroke="#7b7b7b" stroke-width="1.51"/><path d="M2079,-104L2100,282L2118,381Z" fill="#855e4e" stroke="#855e4e" stroke-width="1.51"/><path d="M2098,1144L1968,1181L2118,1295Z" fill="#3c3c3c" stroke="#3c3c3c" stroke-width="1.51"/><path d="M1968,1181L1940,1323L2118,1295Z" fill="#383838" stroke="#383838" stroke-width="1.51"/><path d="M2118,381L2098,1144L2118,1295Z" fill="#606060" stroke="#606060" stroke-width="1.51"/><path d="M1907,1007L1968,1181L2070,987Z" fill="#5e5e5e" stroke="#5e5e5e" stroke-width="1.51"/><path d="M2053,487L1915,557L2076,642Z" fill="#939393" stroke="#939393" stroke-width="1.51"/><path d="M1915,557L1952,652L2076,642Z" fill="#929292" stroke="#929292" stroke-width="1.51"/><path d="M1909,-80L2047,56L2079,-104Z" fill="#7f413a" stroke="#7f413a" stroke-width="1.51"/><path d="M1886,188L1956,361L2100,282Z" fill="#987a6d" stroke="#987a6d" stroke-width="1.51"/><path d="M1909,-80L1935,50L2047,56Z" fill="#8a4e44" stroke="#8a4e44" stroke-width="1.51"/><path d="M1935,50L1886,188L2047,56Z" fill="#925f51" stroke="#925f51" stroke-width="1.51"/><path d="M2063,873L1966,836L2070,987Z" fill="#6f6f6f" stroke="#6f6f6f" stroke-width="1.51"/><path d="M1966,836L1907,1007L2070,987Z" fill="#6f6f6f" stroke="#6f6f6f" stroke-width="1.51"/><path d="M2060,-232L1911,-185L2079,-104Z" fill="#6b2f2f" stroke="#6b2f2f" stroke-width="1.51"/><path d="M1911,-185L1909,-80L2079,-104Z" fill="#7e3a37" stroke="#7e3a37" stroke-width="1.51"/><path d="M1956,361L1915,557L2053,487Z" fill="#9b938f" stroke="#9b938f" stroke-width="1.51"/><path d="M695,1288L123,1345L897,1322Z" fill="#8a6d5f" stroke="#8a6d5f" stroke-width="1.51"/><path d="M1830,1272L1668,1345L1940,1323Z" fill="#464646" stroke="#464646" stroke-width="1.51"/><path d="M1752,659L1839,888L1952,652Z" fill="#999999" stroke="#999999" stroke-width="1.51"/><path d="M1886,188L1729,274L1956,361Z" fill="#a98a7b" stroke="#a98a7b" stroke-width="1.51"/><path d="M1794,422L1915,557L1956,361Z" fill="#a59c97" stroke="#a59c97" stroke-width="1.51"/><path d="M1952,652L1839,888L1966,836Z" fill="#8a8a8a" stroke="#8a8a8a" stroke-width="1.51"/><path d="M1839,888L1907,1007L1966,836Z" fill="#7d7d7d" stroke="#7d7d7d" stroke-width="1.51"/><path d="M1907,1007L1835,1137L1968,1181Z" fill="#5f5f5f" stroke="#5f5f5f" stroke-width="1.51"/><path d="M1830,1272L1940,1323L1968,1181Z" fill="#444444" stroke="#444444" stroke-width="1.51"/><path d="M1835,1137L1830,1272L1968,1181Z" fill="#525252" stroke="#525252" stroke-width="1.51"/><path d="M1729,274L1794,422L1956,361Z" fill="#ad9a8f" stroke="#ad9a8f" stroke-width="1.51"/><path d="M1915,557L1752,659L1952,652Z" fill="#a0a0a0" stroke="#a0a0a0" stroke-width="1.51"/><path d="M1794,422L1776,529L1915,557Z" fill="#ada9a7" stroke="#ada9a7" stroke-width="1.51"/><path d="M1746,43L1886,188L1935,50Z" fill="#9f6a5c" stroke="#9f6a5c" stroke-width="1.51"/><path d="M1909,-80L1772,-42L1935,50Z" fill="#93544b" stroke="#93544b" stroke-width="1.51"/><path d="M1821,-173L1909,-80L1911,-185Z" fill="#83413f" stroke="#83413f" stroke-width="1.51"/><path d="M1772,-42L1746,43L1935,50Z" fill="#9e6156" stroke="#9e6156" stroke-width="1.51"/><path d="M1839,888L1762,989L1907,1007Z" fill="#7e7e7e" stroke="#7e7e7e" stroke-width="1.51"/><path d="M1762,989L1835,1137L1907,1007Z" fill="#727272" stroke="#727272" stroke-width="1.51"/><path d="M1776,529L1752,659L1915,557Z" fill="#acacac" stroke="#acacac" stroke-width="1.51"/><path d="M1821,-173L1772,-42L1909,-80Z" fill="#924c48" stroke="#924c48" stroke-width="1.51"/><path d="M407,1286L123,1345L695,1288Z" fill="#875c4d" stroke="#875c4d" stroke-width="1.51"/><path d="M1746,43L1729,274L1886,188Z" fill="#ad8070" stroke="#ad8070" stroke-width="1.51"/><path d="M1664,231L1729,274L1746,43Z" fill="#b98d7c" stroke="#b98d7c" stroke-width="1.51"/><path d="M1582,1190L1668,1345L1830,1272Z" fill="#5c5c5c" stroke="#5c5c5c" stroke-width="1.51"/><path d="M1582,1190L1830,1272L1835,1137Z" fill="#616161" stroke="#616161" stroke-width="1.51"/><path d="M1591,892L1762,989L1839,888Z" fill="#919191" stroke="#919191" stroke-width="1.51"/><path d="M1752,659L1591,892L1839,888Z" fill="#a0a0a0" stroke="#a0a0a0" stroke-width="1.51"/><path d="M1762,989L1582,1190L1835,1137Z" fill="#747474" stroke="#747474" stroke-width="1.51"/><path d="M1654,-192L1772,-42L1821,-173Z" fill="#98524f" stroke="#98524f" stroke-width="1.51"/><path d="M1729,274L1687,411L1794,422Z" fill="#b9a89e" stroke="#b9a89e" stroke-width="1.51"/><path d="M1601,655L1591,892L1752,659Z" fill="#b3b3b3" stroke="#b3b3b3" stroke-width="1.51"/><path d="M1591,892L1601,952L1762,989Z" fill="#989898" stroke="#989898" stroke-width="1.51"/><path d="M1654,-192L1633,-69L1772,-42Z" fill="#a55e59" stroke="#a55e59" stroke-width="1.51"/><path d="M1687,411L1776,529L1794,422Z" fill="#b8afaa" stroke="#b8afaa" stroke-width="1.51"/><path d="M1593,44L1664,231L1746,43Z" fill="#ba8475" stroke="#ba8475" stroke-width="1.51"/><path d="M1601,952L1582,1190L1762,989Z" fill="#898989" stroke="#898989" stroke-width="1.51"/><path d="M1613,535L1752,659L1776,529Z" fill="#bababa" stroke="#bababa" stroke-width="1.51"/><path d="M1687,411L1613,535L1776,529Z" fill="#c0bab8" stroke="#c0bab8" stroke-width="1.51"/><path d="M1633,-69L1746,43L1772,-42Z" fill="#a9675e" stroke="#a9675e" stroke-width="1.51"/><path d="M1613,535L1601,655L1752,659Z" fill="#bdbdbd" stroke="#bdbdbd" stroke-width="1.51"/><path d="M1633,-69L1593,44L1746,43Z" fill="#b37368" stroke="#b37368" stroke-width="1.51"/><path d="M1506,788L1591,892L1601,655Z" fill="#b7b7b7" stroke="#b7b7b7" stroke-width="1.51"/><path d="M1664,231L1687,411L1729,274Z" fill="#bfa496" stroke="#bfa496" stroke-width="1.51"/><path d="M1226,1277L1016,1332L1451,1329Z" fill="#7c7c7c" stroke="#7c7c7c" stroke-width="1.51"/><path d="M1482,1158L1582,1190L1601,952Z" fill="#888888" stroke="#888888" stroke-width="1.51"/><path d="M1593,44L1494,184L1664,231Z" fill="#c69585" stroke="#c69585" stroke-width="1.51"/><path d="M1664,231L1528,399L1687,411Z" fill="#c7b2a6" stroke="#c7b2a6" stroke-width="1.51"/><path d="M1528,399L1613,535L1687,411Z" fill="#c9c0ba" stroke="#c9c0ba" stroke-width="1.51"/><path d="M1494,184L1528,399L1664,231Z" fill="#cead9e" stroke="#cead9e" stroke-width="1.51"/><path d="M1582,1190L1451,1329L1668,1345Z" fill="#656565" stroke="#656565" stroke-width="1.51"/><path d="M1516,-223L1633,-69L1654,-192Z" fill="#a45f5d" stroke="#a45f5d" stroke-width="1.51"/><path d="M1468,951L1482,1158L1601,952Z" fill="#9a9a9a" stroke="#9a9a9a" stroke-width="1.51"/><path d="M1500,636L1601,655L1613,535Z" fill="#c7c7c7" stroke="#c7c7c7" stroke-width="1.51"/><path d="M1458,-12L1593,44L1633,-69Z" fill="#bc796f" stroke="#bc796f" stroke-width="1.51"/><path d="M1516,-223L1458,-12L1633,-69Z" fill="#b76d67" stroke="#b76d67" stroke-width="1.51"/><path d="M1458,-12L1482,42L1593,44Z" fill="#c58579" stroke="#c58579" stroke-width="1.51"/><path d="M1482,42L1494,184L1593,44Z" fill="#c98f81" stroke="#c98f81" stroke-width="1.51"/><path d="M1500,636L1506,788L1601,655Z" fill="#c3c3c3" stroke="#c3c3c3" stroke-width="1.51"/><path d="M1528,399L1464,551L1613,535Z" fill="#d1ccca" stroke="#d1ccca" stroke-width="1.51"/><path d="M1464,551L1500,636L1613,535Z" fill="#cfcfcf" stroke="#cfcfcf" stroke-width="1.51"/><path d="M1482,1158L1451,1329L1582,1190Z" fill="#767676" stroke="#767676" stroke-width="1.51"/><path d="M1591,892L1468,951L1601,952Z" fill="#a4a4a4" stroke="#a4a4a4" stroke-width="1.51"/><path d="M1494,184L1381,271L1528,399Z" fill="#d8b9ab" stroke="#d8b9ab" stroke-width="1.51"/><path d="M1506,788L1468,951L1591,892Z" fill="#b0b0b0" stroke="#b0b0b0" stroke-width="1.51"/><path d="M-19,-185L99,-172L448,-194Z" fill="#b03335" stroke="#b03335" stroke-width="1.51"/><path d="M1468,951L1318,994L1482,1158Z" fill="#a2a2a2" stroke="#a2a2a2" stroke-width="1.51"/><path d="M1500,636L1348,716L1506,788Z" fill="#cbcbcb" stroke="#cbcbcb" stroke-width="1.51"/><path d="M1350,786L1468,951L1506,788Z" fill="#bdbdbd" stroke="#bdbdbd" stroke-width="1.51"/><path d="M1352,-26L1458,-12L1516,-223Z" fill="#c37972" stroke="#c37972" stroke-width="1.51"/><path d="M1369,-265L1352,-26L1516,-223Z" fill="#b5716e" stroke="#b5716e" stroke-width="1.51"/><path d="M1349,444L1464,551L1528,399Z" fill="#dbd3ce" stroke="#dbd3ce" stroke-width="1.51"/><path d="M1381,271L1349,444L1528,399Z" fill="#ddcbc1" stroke="#ddcbc1" stroke-width="1.51"/><path d="M1345,1166L1451,1329L1482,1158Z" fill="#7f7f7f" stroke="#7f7f7f" stroke-width="1.51"/><path d="M1318,994L1345,1166L1482,1158Z" fill="#979797" stroke="#979797" stroke-width="1.51"/><path d="M1482,42L1353,63L1494,184Z" fill="#d2998a" stroke="#d2998a" stroke-width="1.51"/><path d="M1348,716L1350,786L1506,788Z" fill="#c9c9c9" stroke="#c9c9c9" stroke-width="1.51"/><path d="M1280,1263L1226,1277L1451,1329Z" fill="#7a7a7a" stroke="#7a7a7a" stroke-width="1.51"/><path d="M1464,551L1318,591L1500,636Z" fill="#d8d8d8" stroke="#d8d8d8" stroke-width="1.51"/><path d="M1318,591L1348,716L1500,636Z" fill="#d6d6d6" stroke="#d6d6d6" stroke-width="1.51"/><path d="M1353,63L1381,271L1494,184Z" fill="#daab9a" stroke="#daab9a" stroke-width="1.51"/><path d="M1350,786L1318,994L1468,951Z" fill="#b8b8b8" stroke="#b8b8b8" stroke-width="1.51"/><path d="M1458,-12L1353,63L1482,42Z" fill="#ce8d81" stroke="#ce8d81" stroke-width="1.51"/><path d="M1345,1166L1280,1263L1451,1329Z" fill="#7e7e7e" stroke="#7e7e7e" stroke-width="1.51"/><path d="M1352,-26L1353,63L1458,-12Z" fill="#d08d81" stroke="#d08d81" stroke-width="1.51"/><path d="M1349,444L1318,591L1464,551Z" fill="#e1e0df" stroke="#e1e0df" stroke-width="1.51"/><path d="M1225,484L1318,591L1349,444Z" fill="#e7e4e1" stroke="#e7e4e1" stroke-width="1.51"/><path d="M1195,855L1318,994L1350,786Z" fill="#c4c4c4" stroke="#c4c4c4" stroke-width="1.51"/><path d="M1232,55L1181,203L1353,63Z" fill="#e2aa9a" stroke="#e2aa9a" stroke-width="1.51"/><path d="M1218,-68L1352,-26L1369,-265Z" fill="#cb7d78" stroke="#cb7d78" stroke-width="1.51"/><path d="M1155,-230L1218,-68L1369,-265Z" fill="#be7b79" stroke="#be7b79" stroke-width="1.51"/><path d="M1198,387L1349,444L1381,271Z" fill="#e7d4ca" stroke="#e7d4ca" stroke-width="1.51"/><path d="M1181,203L1198,387L1381,271Z" fill="#eacbbc" stroke="#eacbbc" stroke-width="1.51"/><path d="M1353,63L1181,203L1381,271Z" fill="#e3b4a3" stroke="#e3b4a3" stroke-width="1.51"/><path d="M448,-194L636,-194L837,-244Z" fill="#c47066" stroke="#c47066" stroke-width="1.51"/><path d="M1318,994L1164,1195L1345,1166Z" fill="#9d9d9d" stroke="#9d9d9d" stroke-width="1.51"/><path d="M1318,591L1131,648L1348,716Z" fill="#dfdfdf" stroke="#dfdfdf" stroke-width="1.51"/><path d="M1198,387L1225,484L1349,444Z" fill="#ebe0da" stroke="#ebe0da" stroke-width="1.51"/><path d="M1348,716L1195,855L1350,786Z" fill="#cecece" stroke="#cecece" stroke-width="1.51"/><path d="M1218,-68L1232,55L1352,-26Z" fill="#d89388" stroke="#d89388" stroke-width="1.51"/><path d="M1352,-26L1232,55L1353,63Z" fill="#d8968a" stroke="#d8968a" stroke-width="1.51"/><path d="M1131,648L1195,855L1348,716Z" fill="#dadada" stroke="#dadada" stroke-width="1.51"/><path d="M1164,1195L1280,1263L1345,1166Z" fill="#8d8d8d" stroke="#8d8d8d" stroke-width="1.51"/><path d="M1091,1026L1164,1195L1318,994Z" fill="#acacac" stroke="#acacac" stroke-width="1.51"/><path d="M1129,971L1091,1026L1318,994Z" fill="#bababa" stroke="#bababa" stroke-width="1.51"/><path d="M1195,855L1129,971L1318,994Z" fill="#c1c1c1" stroke="#c1c1c1" stroke-width="1.51"/><path d="M1225,484L1131,648L1318,591Z" fill="#eaeaea" stroke="#eaeaea" stroke-width="1.51"/><path d="M1164,1195L1226,1277L1280,1263Z" fill="#898989" stroke="#898989" stroke-width="1.51"/><path d="M1131,648L1037,723L1195,855Z" fill="#e0e0e0" stroke="#e0e0e0" stroke-width="1.51"/><path d="M1181,203L1051,256L1198,387Z" fill="#f2d2c3" stroke="#f2d2c3" stroke-width="1.51"/><path d="M1155,-230L1035,-58L1218,-68Z" fill="#d88a83" stroke="#d88a83" stroke-width="1.51"/><path d="M1026,484L1131,648L1225,484Z" fill="#f4f4f4" stroke="#f4f4f4" stroke-width="1.51"/><path d="M1001,54L1181,203L1232,55Z" fill="#ebb1a1" stroke="#ebb1a1" stroke-width="1.51"/><path d="M1218,-68L1035,-58L1232,55Z" fill="#df988e" stroke="#df988e" stroke-width="1.51"/><path d="M1035,-58L1001,54L1232,55Z" fill="#e7a397" stroke="#e7a397" stroke-width="1.51"/><path d="M1017,-159L1035,-58L1155,-230Z" fill="#d58a86" stroke="#d58a86" stroke-width="1.51"/><path d="M1198,387L1053,411L1225,484Z" fill="#f2e6df" stroke="#f2e6df" stroke-width="1.51"/><path d="M1164,1195L1016,1332L1226,1277Z" fill="#8a8a8a" stroke="#8a8a8a" stroke-width="1.51"/><path d="M1053,411L1026,484L1225,484Z" fill="#f6ede8" stroke="#f6ede8" stroke-width="1.51"/><path d="M837,-244L1017,-159L1155,-230Z" fill="#c98887" stroke="#c98887" stroke-width="1.51"/><path d="M1091,1026L1048,1187L1164,1195Z" fill="#a5a5a5" stroke="#a5a5a5" stroke-width="1.51"/><path d="M1048,1187L1016,1332L1164,1195Z" fill="#949494" stroke="#949494" stroke-width="1.51"/><path d="M1001,54L1051,256L1181,203Z" fill="#f3c2b1" stroke="#f3c2b1" stroke-width="1.51"/><path d="M1037,723L1013,808L1195,855Z" fill="#dddddd" stroke="#dddddd" stroke-width="1.51"/><path d="M1051,256L1053,411L1198,387Z" fill="#f6e0d5" stroke="#f6e0d5" stroke-width="1.51"/><path d="M1013,808L1129,971L1195,855Z" fill="#d1d1d1" stroke="#d1d1d1" stroke-width="1.51"/><path d="M1026,484L897,570L1037,723Z" fill="#f8f8f8" stroke="#f8f8f8" stroke-width="1.51"/><path d="M1013,808L1091,1026L1129,971Z" fill="#cacaca" stroke="#cacaca" stroke-width="1.51"/><path d="M1026,484L1037,723L1131,648Z" fill="#f0f0f0" stroke="#f0f0f0" stroke-width="1.51"/><path d="M894,1013L871,1116L1048,1187Z" fill="#b4b2b1" stroke="#b4b2b1" stroke-width="1.51"/><path d="M1051,256L930,278L1053,411Z" fill="#fbdfd2" stroke="#fbdfd2" stroke-width="1.51"/><path d="M894,1013L1048,1187L1091,1026Z" fill="#b6b6b6" stroke="#b6b6b6" stroke-width="1.51"/><path d="M1013,808L894,1013L1091,1026Z" fill="#cdcdcd" stroke="#cdcdcd" stroke-width="1.51"/><path d="M840,92L930,278L1001,54Z" fill="#f8c1ae" stroke="#f8c1ae" stroke-width="1.51"/><path d="M897,570L842,656L1037,723Z" fill="#f4f2f0" stroke="#f4f2f0" stroke-width="1.51"/><path d="M897,1322L1016,1332L1048,1187Z" fill="#909090" stroke="#909090" stroke-width="1.51"/><path d="M1001,54L930,278L1051,256Z" fill="#fbcdbb" stroke="#fbcdbb" stroke-width="1.51"/><path d="M868,423L1026,484L1053,411Z" fill="#fef2ec" stroke="#fef2ec" stroke-width="1.51"/><path d="M930,278L868,423L1053,411Z" fill="#ffece1" stroke="#ffece1" stroke-width="1.51"/><path d="M830,821L894,1013L1013,808Z" fill="#dad7d5" stroke="#dad7d5" stroke-width="1.51"/><path d="M871,1116L897,1322L1048,1187Z" fill="#a09e9d" stroke="#a09e9d" stroke-width="1.51"/><path d="M1017,-159L864,-7L1035,-58Z" fill="#e79b92" stroke="#e79b92" stroke-width="1.51"/><path d="M864,-7L1001,54L1035,-58Z" fill="#eea79c" stroke="#eea79c" stroke-width="1.51"/><path d="M842,656L1013,808L1037,723Z" fill="#ececec" stroke="#ececec" stroke-width="1.51"/><path d="M842,656L830,821L1013,808Z" fill="#e9e4e1" stroke="#e9e4e1" stroke-width="1.51"/><path d="M868,423L897,570L1026,484Z" fill="#fff8f3" stroke="#fff8f3" stroke-width="1.51"/><path d="M785,-194L864,-7L1017,-159Z" fill="#e28f86" stroke="#e28f86" stroke-width="1.51"/><path d="M837,-244L785,-194L1017,-159Z" fill="#cd8681" stroke="#cd8681" stroke-width="1.51"/><path d="M864,-7L840,92L1001,54Z" fill="#f1ac9c" stroke="#f1ac9c" stroke-width="1.51"/><path d="M561,1261L407,1286L695,1288Z" fill="#917263" stroke="#917263" stroke-width="1.51"/><path d="M830,821L749,990L894,1013Z" fill="#d1c7c1" stroke="#d1c7c1" stroke-width="1.51"/><path d="M871,1116L768,1152L897,1322Z" fill="#a29a95" stroke="#a29a95" stroke-width="1.51"/><path d="M840,92L735,235L930,278Z" fill="#fcc7b0" stroke="#fcc7b0" stroke-width="1.51"/><path d="M735,235L785,349L930,278Z" fill="#fdd3bf" stroke="#fdd3bf" stroke-width="1.51"/><path d="M785,349L868,423L930,278Z" fill="#fee1d2" stroke="#fee1d2" stroke-width="1.51"/><path d="M749,990L871,1116L894,1013Z" fill="#c0b8b2" stroke="#c0b8b2" stroke-width="1.51"/><path d="M768,1152L695,1288L897,1322Z" fill="#978b84" stroke="#978b84" stroke-width="1.51"/><path d="M868,423L717,544L897,570Z" fill="#fff2ea" stroke="#fff2ea" stroke-width="1.51"/><path d="M717,544L842,656L897,570Z" fill="#fbf0ea" stroke="#fbf0ea" stroke-width="1.51"/><path d="M785,-194L679,-55L864,-7Z" fill="#e38c7e" stroke="#e38c7e" stroke-width="1.51"/><path d="M714,714L830,821L842,656Z" fill="#ece0d9" stroke="#ece0d9" stroke-width="1.51"/><path d="M743,59L840,92L864,-7Z" fill="#f0a693" stroke="#f0a693" stroke-width="1.51"/><path d="M785,349L717,544L868,423Z" fill="#ffe7d9" stroke="#ffe7d9" stroke-width="1.51"/><path d="M749,990L768,1152L871,1116Z" fill="#b7aba5" stroke="#b7aba5" stroke-width="1.51"/><path d="M679,-55L743,59L864,-7Z" fill="#ea9987" stroke="#ea9987" stroke-width="1.51"/><path d="M99,-172L312,-161L448,-194Z" fill="#ba443e" stroke="#ba443e" stroke-width="1.51"/><path d="M699,821L749,990L830,821Z" fill="#dbccc4" stroke="#dbccc4" stroke-width="1.51"/><path d="M714,714L699,821L830,821Z" fill="#e6d6cd" stroke="#e6d6cd" stroke-width="1.51"/><path d="M636,-194L785,-194L837,-244Z" fill="#c87c74" stroke="#c87c74" stroke-width="1.51"/><path d="M743,59L735,235L840,92Z" fill="#f5b49c" stroke="#f5b49c" stroke-width="1.51"/><path d="M717,544L714,714L842,656Z" fill="#f6e7de" stroke="#f6e7de" stroke-width="1.51"/><path d="M636,-194L630,-93L679,-55Z" fill="#dc7b6b" stroke="#dc7b6b" stroke-width="1.51"/><path d="M634,240L735,235L743,59Z" fill="#f7b79c" stroke="#f7b79c" stroke-width="1.51"/><path d="M749,990L627,1137L768,1152Z" fill="#b6a59b" stroke="#b6a59b" stroke-width="1.51"/><path d="M584,392L717,544L785,349Z" fill="#fedecc" stroke="#fedecc" stroke-width="1.51"/><path d="M735,235L634,240L785,349Z" fill="#fbcab1" stroke="#fbcab1" stroke-width="1.51"/><path d="M634,240L584,392L785,349Z" fill="#fccdb5" stroke="#fccdb5" stroke-width="1.51"/><path d="M636,-194L679,-55L785,-194Z" fill="#d67d70" stroke="#d67d70" stroke-width="1.51"/><path d="M562,129L634,240L743,59Z" fill="#f3aa8e" stroke="#f3aa8e" stroke-width="1.51"/><path d="M627,1137L695,1288L768,1152Z" fill="#a39086" stroke="#a39086" stroke-width="1.51"/><path d="M576,560L714,714L717,544Z" fill="#f9e1d5" stroke="#f9e1d5" stroke-width="1.51"/><path d="M699,821L551,994L749,990Z" fill="#d1baaf" stroke="#d1baaf" stroke-width="1.51"/><path d="M551,994L627,1137L749,990Z" fill="#bfa69a" stroke="#bfa69a" stroke-width="1.51"/><path d="M679,-55L562,129L743,59Z" fill="#ec9880" stroke="#ec9880" stroke-width="1.51"/><path d="M576,560L575,730L714,714Z" fill="#f3d6c8" stroke="#f3d6c8" stroke-width="1.51"/><path d="M584,392L576,560L717,544Z" fill="#fedece" stroke="#fedece" stroke-width="1.51"/><path d="M627,1137L561,1261L695,1288Z" fill="#9b8276" stroke="#9b8276" stroke-width="1.51"/><path d="M585,791L551,994L699,821Z" fill="#dbbfb1" stroke="#dbbfb1" stroke-width="1.51"/><path d="M585,791L699,821L714,714Z" fill="#e7d0c4" stroke="#e7d0c4" stroke-width="1.51"/><path d="M575,730L585,791L714,714Z" fill="#ebcfc1" stroke="#ebcfc1" stroke-width="1.51"/><path d="M630,-93L477,-20L679,-55Z" fill="#e07f6b" stroke="#e07f6b" stroke-width="1.51"/><path d="M477,-20L562,129L679,-55Z" fill="#e68970" stroke="#e68970" stroke-width="1.51"/><path d="M441,248L584,392L634,240Z" fill="#f9bb9d" stroke="#f9bb9d" stroke-width="1.51"/><path d="M448,-194L630,-93L636,-194Z" fill="#cf6e5f" stroke="#cf6e5f" stroke-width="1.51"/><path d="M551,994L481,1006L627,1137Z" fill="#be9c8d" stroke="#be9c8d" stroke-width="1.51"/><path d="M562,129L441,248L634,240Z" fill="#f5ac8b" stroke="#f5ac8b" stroke-width="1.51"/><path d="M448,-194L477,-20L630,-93Z" fill="#d86e5b" stroke="#d86e5b" stroke-width="1.51"/><path d="M388,1174L561,1261L627,1137Z" fill="#a17e6f" stroke="#a17e6f" stroke-width="1.51"/><path d="M481,1006L388,1174L627,1137Z" fill="#b18b7a" stroke="#b18b7a" stroke-width="1.51"/><path d="M414,578L380,741L575,730Z" fill="#efc1b0" stroke="#efc1b0" stroke-width="1.51"/><path d="M380,741L383,820L575,730Z" fill="#e5b7a5" stroke="#e5b7a5" stroke-width="1.51"/><path d="M414,578L575,730L576,560Z" fill="#f6cebe" stroke="#f6cebe" stroke-width="1.51"/><path d="M441,248L382,362L584,392Z" fill="#f8b89a" stroke="#f8b89a" stroke-width="1.51"/><path d="M414,578L576,560L584,392Z" fill="#fdd3c1" stroke="#fdd3c1" stroke-width="1.51"/><path d="M382,362L414,578L584,392Z" fill="#fbc4ad" stroke="#fbc4ad" stroke-width="1.51"/><path d="M481,1006L551,994L585,791Z" fill="#d1ad9d" stroke="#d1ad9d" stroke-width="1.51"/><path d="M383,820L481,1006L585,791Z" fill="#d9b09e" stroke="#d9b09e" stroke-width="1.51"/><path d="M575,730L383,820L585,791Z" fill="#e5bead" stroke="#e5bead" stroke-width="1.51"/><path d="M477,-20L398,119L562,129Z" fill="#e9896c" stroke="#e9896c" stroke-width="1.51"/><path d="M388,1174L407,1286L561,1261Z" fill="#966d5d" stroke="#966d5d" stroke-width="1.51"/><path d="M398,119L441,248L562,129Z" fill="#f09a79" stroke="#f09a79" stroke-width="1.51"/><path d="M302,1256L123,1345L407,1286Z" fill="#824d41" stroke="#824d41" stroke-width="1.51"/><path d="M298,-33L398,119L477,-20Z" fill="#de725b" stroke="#de725b" stroke-width="1.51"/><path d="M448,-194L312,-161L477,-20Z" fill="#cf5c4d" stroke="#cf5c4d" stroke-width="1.51"/><path d="M312,-161L298,-33L477,-20Z" fill="#d25e4d" stroke="#d25e4d" stroke-width="1.51"/><path d="M383,820L293,829L481,1006Z" fill="#d3a091" stroke="#d3a091" stroke-width="1.51"/><path d="M293,829L239,1039L481,1006Z" fill="#c58f80" stroke="#c58f80" stroke-width="1.51"/><path d="M239,1039L388,1174L481,1006Z" fill="#b28171" stroke="#b28171" stroke-width="1.51"/><path d="M250,391L228,518L382,362Z" fill="#f1aa95" stroke="#f1aa95" stroke-width="1.51"/><path d="M298,-33L303,99L398,119Z" fill="#de7159" stroke="#de7159" stroke-width="1.51"/><path d="M382,362L228,518L414,578Z" fill="#f6b8a5" stroke="#f6b8a5" stroke-width="1.51"/><path d="M398,119L329,232L441,248Z" fill="#ee9676" stroke="#ee9676" stroke-width="1.51"/><path d="M329,232L382,362L441,248Z" fill="#f2a385" stroke="#f2a385" stroke-width="1.51"/><path d="M239,1039L238,1120L388,1174Z" fill="#a76f62" stroke="#a76f62" stroke-width="1.51"/><path d="M313,739L380,741L414,578Z" fill="#ebb5a5" stroke="#ebb5a5" stroke-width="1.51"/><path d="M388,1174L302,1256L407,1286Z" fill="#916254" stroke="#916254" stroke-width="1.51"/><path d="M228,518L313,739L414,578Z" fill="#efb4a5" stroke="#efb4a5" stroke-width="1.51"/><path d="M303,99L329,232L398,119Z" fill="#e78568" stroke="#e78568" stroke-width="1.51"/><path d="M380,741L313,739L383,820Z" fill="#e1ab9b" stroke="#e1ab9b" stroke-width="1.51"/><path d="M329,232L250,391L382,362Z" fill="#f0a287" stroke="#f0a287" stroke-width="1.51"/><path d="M313,739L293,829L383,820Z" fill="#dca394" stroke="#dca394" stroke-width="1.51"/><path d="M238,1120L302,1256L388,1174Z" fill="#9a6558" stroke="#9a6558" stroke-width="1.51"/><path d="M25,1324L-129,1342L123,1345Z" fill="#6a2827" stroke="#6a2827" stroke-width="1.51"/><path d="M97,564L79,717L228,518Z" fill="#e79f94" stroke="#e79f94" stroke-width="1.51"/><path d="M137,982L239,1039L293,829Z" fill="#c18175" stroke="#c18175" stroke-width="1.51"/><path d="M139,865L137,982L293,829Z" fill="#c8867b" stroke="#c8867b" stroke-width="1.51"/><path d="M298,-33L171,49L303,99Z" fill="#d7624e" stroke="#d7624e" stroke-width="1.51"/><path d="M138,-83L298,-33L312,-161Z" fill="#c8483f" stroke="#c8483f" stroke-width="1.51"/><path d="M228,518L79,717L313,739Z" fill="#e5a295" stroke="#e5a295" stroke-width="1.51"/><path d="M303,99L187,212L329,232Z" fill="#e58266" stroke="#e58266" stroke-width="1.51"/><path d="M187,212L250,391L329,232Z" fill="#ea9176" stroke="#ea9176" stroke-width="1.51"/><path d="M139,865L293,829L313,739Z" fill="#d69789" stroke="#d69789" stroke-width="1.51"/><path d="M79,717L139,865L313,739Z" fill="#d79287" stroke="#d79287" stroke-width="1.51"/><path d="M99,-172L138,-83L312,-161Z" fill="#bc3837" stroke="#bc3837" stroke-width="1.51"/><path d="M238,1120L98,1140L302,1256Z" fill="#965b50" stroke="#965b50" stroke-width="1.51"/><path d="M98,1140L123,1345L302,1256Z" fill="#864a41" stroke="#864a41" stroke-width="1.51"/><path d="M171,49L187,212L303,99Z" fill="#dc6e57" stroke="#dc6e57" stroke-width="1.51"/><path d="M187,212L115,337L250,391Z" fill="#e78e77" stroke="#e78e77" stroke-width="1.51"/><path d="M138,-83L171,49L298,-33Z" fill="#cd4f43" stroke="#cd4f43" stroke-width="1.51"/><path d="M115,337L228,518L250,391Z" fill="#ec9e8b" stroke="#ec9e8b" stroke-width="1.51"/><path d="M115,337L97,564L228,518Z" fill="#eb9e8f" stroke="#eb9e8f" stroke-width="1.51"/><path d="M98,1140L238,1120L239,1039Z" fill="#a4665b" stroke="#a4665b" stroke-width="1.51"/><path d="M137,982L98,1140L239,1039Z" fill="#ab6a60" stroke="#ab6a60" stroke-width="1.51"/><path d="M-19,430L97,564L115,337Z" fill="#e59184" stroke="#e59184" stroke-width="1.51"/><path d="M98,1140L25,1324L123,1345Z" fill="#7c3c36" stroke="#7c3c36" stroke-width="1.51"/><path d="M-71,89L30,251L171,49Z" fill="#d05b4c" stroke="#d05b4c" stroke-width="1.51"/><path d="M171,49L30,251L187,212Z" fill="#da6e58" stroke="#da6e58" stroke-width="1.51"/><path d="M30,251L115,337L187,212Z" fill="#e07d68" stroke="#e07d68" stroke-width="1.51"/><path d="M138,-83L-18,-108L171,49Z" fill="#c23c38" stroke="#c23c38" stroke-width="1.51"/><path d="M-18,-108L-71,89L171,49Z" fill="#c33e3a" stroke="#c33e3a" stroke-width="1.51"/><path d="M-18,1165L25,1324L98,1140Z" fill="#84413d" stroke="#84413d" stroke-width="1.51"/><path d="M-42,1010L98,1140L137,982Z" fill="#a7625b" stroke="#a7625b" stroke-width="1.51"/><path d="M99,-172L-18,-108L138,-83Z" fill="#b82730" stroke="#b82730" stroke-width="1.51"/><path d="M79,717L-46,800L139,865Z" fill="#cd827b" stroke="#cd827b" stroke-width="1.51"/><path d="M-42,1010L137,982L139,865Z" fill="#b77069" stroke="#b77069" stroke-width="1.51"/><path d="M-46,800L-42,1010L139,865Z" fill="#be736d" stroke="#be736d" stroke-width="1.51"/><path d="M-13,581L79,717L97,564Z" fill="#df938b" stroke="#df938b" stroke-width="1.51"/><path d="M-19,430L-13,581L97,564Z" fill="#e4958d" stroke="#e4958d" stroke-width="1.51"/><path d="M-42,1010L-18,1165L98,1140Z" fill="#98514d" stroke="#98514d" stroke-width="1.51"/><path d="M30,251L-19,430L115,337Z" fill="#df8171" stroke="#df8171" stroke-width="1.51"/><path d="M-13,581L-67,653L79,717Z" fill="#d98a84" stroke="#d98a84" stroke-width="1.51"/><path d="M-19,-185L-18,-108L99,-172Z" fill="#ab1a2b" stroke="#ab1a2b" stroke-width="1.51"/><path d="M-67,653L-46,800L79,717Z" fill="#d0837d" stroke="#d0837d" stroke-width="1.51"/><path d="M-46,800L-184,874L-42,1010Z" fill="#ac6a68" stroke="#ac6a68" stroke-width="1.51"/><path d="M-18,1165L-139,1193L25,1324Z" fill="#783836" stroke="#783836" stroke-width="1.51"/><path d="M-139,1193L-129,1342L25,1324Z" fill="#672c2c" stroke="#672c2c" stroke-width="1.51"/><path d="M-71,89L-178,192L30,251Z" fill="#c55b4d" stroke="#c55b4d" stroke-width="1.51"/><path d="M-178,192L-116,360L30,251Z" fill="#c96b5d" stroke="#c96b5d" stroke-width="1.51"/><path d="M-116,360L-19,430L30,251Z" fill="#d77b6d" stroke="#d77b6d" stroke-width="1.51"/><path d="M-184,874L-165,1007L-42,1010Z" fill="#9a5e5d" stroke="#9a5e5d" stroke-width="1.51"/><path d="M-165,1007L-139,1193L-42,1010Z" fill="#8b4e4d" stroke="#8b4e4d" stroke-width="1.51"/><path d="M-116,360L-212,531L-19,430Z" fill="#cc817a" stroke="#cc817a" stroke-width="1.51"/><path d="M-198,-58L-71,89L-18,-108Z" fill="#ad2d32" stroke="#ad2d32" stroke-width="1.51"/><path d="M-19,-185L-197,-202L-18,-108Z" fill="#9b1027" stroke="#9b1027" stroke-width="1.51"/><path d="M-42,1010L-139,1193L-18,1165Z" fill="#884846" stroke="#884846" stroke-width="1.51"/><path d="M-170,646L-67,653L-13,581Z" fill="#cd8784" stroke="#cd8784" stroke-width="1.51"/><path d="M-212,531L-170,646L-13,581Z" fill="#c78686" stroke="#c78686" stroke-width="1.51"/><path d="M-19,430L-212,531L-13,581Z" fill="#d48b87" stroke="#d48b87" stroke-width="1.51"/><path d="M-197,-202L-198,-58L-18,-108Z" fill="#9b1028" stroke="#9b1028" stroke-width="1.51"/><path d="M-67,653L-170,646L-46,800Z" fill="#c4807d" stroke="#c4807d" stroke-width="1.51"/><path d="M-170,646L-184,874L-46,800Z" fill="#b47574" stroke="#b47574" stroke-width="1.51"/><path d="M-204,137L-178,192L-71,89Z" fill="#b54e46" stroke="#b54e46" stroke-width="1.51"/><path d="M-198,-58L-204,137L-71,89Z" fill="#ab3b39" stroke="#ab3b39" stroke-width="1.51"/><path d="M-165,1007L-184,874L-129,1342Z" fill="#834b4c" stroke="#834b4c" stroke-width="1.51"/><path d="M-178,192L-212,531L-116,360Z" fill="#c0746c" stroke="#c0746c" stroke-width="1.51"/><path d="M-139,1193L-165,1007L-129,1342Z" fill="#713a3b" stroke="#713a3b" stroke-width="1.51"/><path d="M-204,137L-212,531L-178,192Z" fill="#b7675d" stroke="#b7675d" stroke-width="1.51"/><path d="M-212,531L-184,874L-170,646Z" fill="#b47a7c" stroke="#b47a7c" stroke-width="1.51"/><path d="M-204,137L-198,-58L-197,-202Z" fill="#9b242e" stroke="#9b242e" stroke-width="1.51"/></svg>