<svg xmlns="http://www.w3.org/2000/svg" width="1920" height="1080"><path d="M-197,-202L-19,-185L448,-194Z" fill="#f0ebf4" stroke="#f0ebf4" stroke-width="1.51"/><path d="M-197,-202L448,-194L837,-244Z" fill="#e4e1ef" stroke="#e4e1ef" stroke-width="1.51"/><path d="M897,1322L123,1345L1016,1332Z" fill="#59799b" stroke="#59799b" stroke-width="1.51"/><path d="M837,-244L1155,-230L1369,-265Z" fill="#aec7e0" stroke="#aec7e0" stroke-width="1.51"/><path d="M1016,1332L123,1345L1668,1345Z" fill="#427195" stroke="#427195" stroke-width="1.51"/><path d="M1451,1329L1016,1332L1668,1345Z" fill="#155f8b" stroke="#155f8b" stroke-width="1.51"/><path d="M1654,-192L1821,-173L1911,-185Z" fill="#90a4c5" stroke="#90a4c5" stroke-width="1.51"/><path d="M1654,-192L1911,-185L2060,-232Z" fill="#8ea1c0" stroke="#8ea1c0" stroke-width="1.51"/><path d="M1516,-223L1654,-192L2060,-232Z" fill="#92a7c9" stroke="#92a7c9" stroke-width="1.51"/><path d="M1369,-265L1516,-223L2060,-232Z" fill="#96abcf" stroke="#96abcf" stroke-width="1.51"/><path d="M1966,836L2063,873L2076,642Z" fill="#1b6795" stroke="#1b6795" stroke-width="1.51"/><path d="M1952,652L1966,836L2076,642Z" fill="#276e9b" stroke="#276e9b" stroke-width="1.51"/><path d="M2070,987L1968,1181L2098,1144Z" fill="#045281" stroke="#045281" stroke-width="1.51"/><path d="M2076,642L2063,873L2098,1144Z" fill="#0e5d8c" stroke="#0e5d8c" stroke-width="1.51"/><path d="M2063,873L2070,987L2098,1144Z" fill="#035686" stroke="#035686" stroke-width="1.51"/><path d="M2047,56L1886,188L2100,282Z" fill="#7087a9" stroke="#7087a9" stroke-width="1.51"/><path d="M2079,-104L2047,56L2100,282Z" fill="#7688a6" stroke="#7688a6" stroke-width="1.51"/><path d="M2100,282L1956,361L2118,381Z" fill="#5c7da1" stroke="#5c7da1" stroke-width="1.51"/><path d="M1956,361L2053,487L2118,381Z" fill="#547ba0" stroke="#547ba0" stroke-width="1.51"/><path d="M2053,487L2076,642L2118,381Z" fill="#467599" stroke="#467599" stroke-width="1.51"/><path d="M2076,642L2098,1144L2118,381Z" fill="#236791" stroke="#236791" stroke-width="1.51"/><path d="M2079,-104L2100,282L2118,381Z" fill="#6b81a0" stroke="#6b81a0" stroke-width="1.51"/><path d="M2098,1144L1968,1181L2118,1295Z" fill="#034a74" stroke="#034a74" stroke-width="1.51"/><path d="M1968,1181L1940,1323L2118,1295Z" fill="#034871" stroke="#034871" stroke-width="1.51"/><path d="M2118,381L2098,1144L2118,1295Z" fill="#055787" stroke="#055787" stroke-width="1.51"/><path d="M1907,1007L1968,1181L2070,987Z" fill="#04588a" stroke="#04588a" stroke-width="1.51"/><path d="M2053,487L1915,557L2076,642Z" fill="#40759e" stroke="#40759e" stroke-width="1.51"/><path d="M1915,557L1952,652L2076,642Z" fill="#38759f" stroke="#38759f" stroke-width="1.51"/><path d="M1909,-80L2047,56L2079,-104Z" fill="#8091af" stroke="#8091af" stroke-width="1.51"/><path d="M1886,188L1956,361L2100,282Z" fill="#6684a9" stroke="#6684a9" stroke-width="1.51"/><path d="M1909,-80L1935,50L2047,56Z" fill="#7f93b2" stroke="#7f93b2" stroke-width="1.51"/><path d="M1935,50L1886,188L2047,56Z" fill="#798eb1" stroke="#798eb1" stroke-width="1.51"/><path d="M2063,873L1966,836L2070,987Z" fill="#0d5e90" stroke="#0d5e90" stroke-width="1.51"/><path d="M1966,836L1907,1007L2070,987Z" fill="#065e93" stroke="#065e93" stroke-width="1.51"/><path d="M2060,-232L1911,-185L2079,-104Z" fill="#8797b2" stroke="#8797b2" stroke-width="1.51"/><path d="M1911,-185L1909,-80L2079,-104Z" fill="#8798b6" stroke="#8798b6" stroke-width="1.51"/><path d="M1956,361L1915,557L2053,487Z" fill="#4e7da4" stroke="#4e7da4" stroke-width="1.51"/><path d="M695,1288L123,1345L897,1322Z" fill="#637e9f" stroke="#637e9f" stroke-width="1.51"/><path d="M1830,1272L1668,1345L1940,1323Z" fill="#034e7b" stroke="#034e7b" stroke-width="1.51"/><path d="M1752,659L1839,888L1952,652Z" fill="#2576a7" stroke="#2576a7" stroke-width="1.51"/><path d="M1886,188L1729,274L1956,361Z" fill="#6a8db5" stroke="#6a8db5" stroke-width="1.51"/><path d="M1794,422L1915,557L1956,361Z" fill="#5483ad" stroke="#5483ad" stroke-width="1.51"/><path d="M1952,652L1839,888L1966,836Z" fill="#1c6d9f" stroke="#1c6d9f" stroke-width="1.51"/><path d="M1839,888L1907,1007L1966,836Z" fill="#0d659c" stroke="#0d659c" stroke-width="1.51"/><path d="M1907,1007L1835,1137L1968,1181Z" fill="#045a8d" stroke="#045a8d" stroke-width="1.51"/><path d="M1830,1272L1940,1323L1968,1181Z" fill="#034e7b" stroke="#034e7b" stroke-width="1.51"/><path d="M1835,1137L1830,1272L1968,1181Z" fill="#045686" stroke="#045686" stroke-width="1.51"/><path d="M1729,274L1794,422L1956,361Z" fill="#628ab5" stroke="#628ab5" stroke-width="1.51"/><path d="M1915,557L1752,659L1952,652Z" fill="#3a7baa" stroke="#3a7baa" stroke-width="1.51"/><path d="M1794,422L1776,529L1915,557Z" fill="#4e83b1" stroke="#4e83b1" stroke-width="1.51"/><path d="M1746,43L1886,188L1935,50Z" fill="#7d95ba" stroke="#7d95ba" stroke-width="1.51"/><path d="M1909,-80L1772,-42L1935,50Z" fill="#859abc" stroke="#859abc" stroke-width="1.51"/><path d="M1821,-173L1909,-80L1911,-185Z" fill="#8b9fbe" stroke="#8b9fbe" stroke-width="1.51"/><path d="M1772,-42L1746,43L1935,50Z" fill="#839abe" stroke="#839abe" stroke-width="1.51"/><path d="M1839,888L1762,989L1907,1007Z" fill="#05659f" stroke="#05659f" stroke-width="1.51"/><path d="M1762,989L1835,1137L1907,1007Z" fill="#046198" stroke="#046198" stroke-width="1.51"/><path d="M1776,529L1752,659L1915,557Z" fill="#4180af" stroke="#4180af" stroke-width="1.51"/><path d="M1821,-173L1772,-42L1909,-80Z" fill="#8b9fc1" stroke="#8b9fc1" stroke-width="1.51"/><path d="M407,1286L123,1345L695,1288Z" fill="#6f84a4" stroke="#6f84a4" stroke-width="1.51"/><path d="M1746,43L1729,274L1886,188Z" fill="#7894bc" stroke="#7894bc" stroke-width="1.51"/><path d="M1664,231L1729,274L1746,43Z" fill="#7897c0" stroke="#7897c0" stroke-width="1.51"/><path d="M1582,1190L1668,1345L1830,1272Z" fill="#045688" stroke="#045688" stroke-width="1.51"/><path d="M1582,1190L1830,1272L1835,1137Z" fill="#045a8e" stroke="#045a8e" stroke-width="1.51"/><path d="M1591,892L1762,989L1839,888Z" fill="#0b6ba7" stroke="#0b6ba7" stroke-width="1.51"/><path d="M1752,659L1591,892L1839,888Z" fill="#1b74ab" stroke="#1b74ab" stroke-width="1.51"/><path d="M1762,989L1582,1190L1835,1137Z" fill="#046299" stroke="#046299" stroke-width="1.51"/><path d="M1654,-192L1772,-42L1821,-173Z" fill="#8ea4c7" stroke="#8ea4c7" stroke-width="1.51"/><path d="M1729,274L1687,411L1794,422Z" fill="#628dba" stroke="#628dba" stroke-width="1.51"/><path d="M1601,655L1591,892L1752,659Z" fill="#267db3" stroke="#267db3" stroke-width="1.51"/><path d="M1591,892L1601,952L1762,989Z" fill="#076dab" stroke="#076dab" stroke-width="1.51"/><path d="M1654,-192L1633,-69L1772,-42Z" fill="#8ea5ca" stroke="#8ea5ca" stroke-width="1.51"/><path d="M1687,411L1776,529L1794,422Z" fill="#5688b6" stroke="#5688b6" stroke-width="1.51"/><path d="M1593,44L1664,231L1746,43Z" fill="#819cc5" stroke="#819cc5" stroke-width="1.51"/><path d="M1601,952L1582,1190L1762,989Z" fill="#0567a3" stroke="#0567a3" stroke-width="1.51"/><path d="M1613,535L1752,659L1776,529Z" fill="#4484b5" stroke="#4484b5" stroke-width="1.51"/><path d="M1687,411L1613,535L1776,529Z" fill="#5189b9" stroke="#5189b9" stroke-width="1.51"/><path d="M1633,-69L1746,43L1772,-42Z" fill="#89a0c6" stroke="#89a0c6" stroke-width="1.51"/><path d="M1613,535L1601,655L1752,659Z" fill="#3e84b7" stroke="#3e84b7" stroke-width="1.51"/><path d="M1633,-69L1593,44L1746,43Z" fill="#88a1c8" stroke="#88a1c8" stroke-width="1.51"/><path d="M1506,788L1591,892L1601,655Z" fill="#217db7" stroke="#217db7" stroke-width="1.51"/><path d="M1664,231L1687,411L1729,274Z" fill="#6b92be" stroke="#6b92be" stroke-width="1.51"/><path d="M1226,1277L1016,1332L1451,1329Z" fill="#226892" stroke="#226892" stroke-width="1.51"/><path d="M1482,1158L1582,1190L1601,952Z" fill="#0568a3" stroke="#0568a3" stroke-width="1.51"/><path d="M1593,44L1494,184L1664,231Z" fill="#7e9dc9" stroke="#7e9dc9" stroke-width="1.51"/><path d="M1664,231L1528,399L1687,411Z" fill="#6792c1" stroke="#6792c1" stroke-width="1.51"/><path d="M1528,399L1613,535L1687,411Z" fill="#598ebf" stroke="#598ebf" stroke-width="1.51"/><path d="M1494,184L1528,399L1664,231Z" fill="#7298c7" stroke="#7298c7" stroke-width="1.51"/><path d="M1582,1190L1451,1329L1668,1345Z" fill="#04598c" stroke="#04598c" stroke-width="1.51"/><path d="M1516,-223L1633,-69L1654,-192Z" fill="#94aad0" stroke="#94aad0" stroke-width="1.51"/><path d="M1468,951L1482,1158L1601,952Z" fill="#0c6eab" stroke="#0c6eab" stroke-width="1.51"/><path d="M1500,636L1601,655L1613,535Z" fill="#4188bd" stroke="#4188bd" stroke-width="1.51"/><path d="M1458,-12L1593,44L1633,-69Z" fill="#8ca6cf" stroke="#8ca6cf" stroke-width="1.51"/><path d="M1516,-223L1458,-12L1633,-69Z" fill="#93acd2" stroke="#93acd2" stroke-width="1.51"/><path d="M1458,-12L1482,42L1593,44Z" fill="#8ba7d0" stroke="#8ba7d0" stroke-width="1.51"/><path d="M1482,42L1494,184L1593,44Z" fill="#86a3cd" stroke="#86a3cd" stroke-width="1.51"/><path d="M1500,636L1506,788L1601,655Z" fill="#3284bb" stroke="#3284bb" stroke-width="1.51"/><path d="M1528,399L1464,551L1613,535Z" fill="#558fc2" stroke="#558fc2" stroke-width="1.51"/><path d="M1464,551L1500,636L1613,535Z" fill="#488cc0" stroke="#488cc0" stroke-width="1.51"/><path d="M1482,1158L1451,1329L1582,1190Z" fill="#0b6297" stroke="#0b6297" stroke-width="1.51"/><path d="M1591,892L1468,951L1601,952Z" fill="#0b72b1" stroke="#0b72b1" stroke-width="1.51"/><path d="M1494,184L1381,271L1528,399Z" fill="#739dca" stroke="#739dca" stroke-width="1.51"/><path d="M1506,788L1468,951L1591,892Z" fill="#1978b4" stroke="#1978b4" stroke-width="1.51"/><path d="M-19,-185L99,-172L448,-194Z" fill="#ebe6f2" stroke="#ebe6f2" stroke-width="1.51"/><path d="M1468,951L1318,994L1482,1158Z" fill="#1772ac" stroke="#1772ac" stroke-width="1.51"/><path d="M1500,636L1348,716L1506,788Z" fill="#3287bc" stroke="#3287bc" stroke-width="1.51"/><path d="M1350,786L1468,951L1506,788Z" fill="#237eb7" stroke="#237eb7" stroke-width="1.51"/><path d="M1352,-26L1458,-12L1516,-223Z" fill="#96b0d4" stroke="#96b0d4" stroke-width="1.51"/><path d="M1369,-265L1352,-26L1516,-223Z" fill="#9bb5d7" stroke="#9bb5d7" stroke-width="1.51"/><path d="M1349,444L1464,551L1528,399Z" fill="#5c96c5" stroke="#5c96c5" stroke-width="1.51"/><path d="M1381,271L1349,444L1528,399Z" fill="#6a9bc9" stroke="#6a9bc9" stroke-width="1.51"/><path d="M1345,1166L1451,1329L1482,1158Z" fill="#13679a" stroke="#13679a" stroke-width="1.51"/><path d="M1318,994L1345,1166L1482,1158Z" fill="#1971a8" stroke="#1971a8" stroke-width="1.51"/><path d="M1482,42L1353,63L1494,184Z" fill="#88a7cf" stroke="#88a7cf" stroke-width="1.51"/><path d="M1348,716L1350,786L1506,788Z" fill="#2d87bb" stroke="#2d87bb" stroke-width="1.51"/><path d="M1280,1263L1226,1277L1451,1329Z" fill="#1b6693" stroke="#1b6693" stroke-width="1.51"/><path d="M1464,551L1318,591L1500,636Z" fill="#4990c1" stroke="#4990c1" stroke-width="1.51"/><path d="M1318,591L1348,716L1500,636Z" fill="#428fc0" stroke="#428fc0" stroke-width="1.51"/><path d="M1353,63L1381,271L1494,184Z" fill="#83a6ce" stroke="#83a6ce" stroke-width="1.51"/><path d="M1350,786L1318,994L1468,951Z" fill="#217cb7" stroke="#217cb7" stroke-width="1.51"/><path d="M1458,-12L1353,63L1482,42Z" fill="#8eabd2" stroke="#8eabd2" stroke-width="1.51"/><path d="M1345,1166L1280,1263L1451,1329Z" fill="#186797" stroke="#186797" stroke-width="1.51"/><path d="M1352,-26L1353,63L1458,-12Z" fill="#91afd3" stroke="#91afd3" stroke-width="1.51"/><path d="M1349,444L1318,591L1464,551Z" fill="#5696c5" stroke="#5696c5" stroke-width="1.51"/><path d="M1225,484L1318,591L1349,444Z" fill="#5c9cc8" stroke="#5c9cc8" stroke-width="1.51"/><path d="M1195,855L1318,994L1350,786Z" fill="#2a84bb" stroke="#2a84bb" stroke-width="1.51"/><path d="M1232,55L1181,203L1353,63Z" fill="#8fb1d4" stroke="#8fb1d4" stroke-width="1.51"/><path d="M1218,-68L1352,-26L1369,-265Z" fill="#9cb9d9" stroke="#9cb9d9" stroke-width="1.51"/><path d="M1155,-230L1218,-68L1369,-265Z" fill="#a2bfdc" stroke="#a2bfdc" stroke-width="1.51"/><path d="M1198,387L1349,444L1381,271Z" fill="#6fa2cb" stroke="#6fa2cb" stroke-width="1.51"/><path d="M1181,203L1198,387L1381,271Z" fill="#7ca9cf" stroke="#7ca9cf" stroke-width="1.51"/><path d="M1353,63L1181,203L1381,271Z" fill="#86abd1" stroke="#86abd1" stroke-width="1.51"/><path d="M448,-194L636,-194L837,-244Z" fill="#d1d7ea" stroke="#d1d7ea" stroke-width="1.51"/><path d="M1318,994L1164,1195L1345,1166Z" fill="#2176a9" stroke="#2176a9" stroke-width="1.51"/><path d="M1318,591L1131,648L1348,716Z" fill="#4795c4" stroke="#4795c4" stroke-width="1.51"/><path d="M1198,387L1225,484L1349,444Z" fill="#68a1cb" stroke="#68a1cb" stroke-width="1.51"/><path d="M1348,716L1195,855L1350,786Z" fill="#318bbe" stroke="#318bbe" stroke-width="1.51"/><path d="M1218,-68L1232,55L1352,-26Z" fill="#97b7d7" stroke="#97b7d7" stroke-width="1.51"/><path d="M1352,-26L1232,55L1353,63Z" fill="#92b2d5" stroke="#92b2d5" stroke-width="1.51"/><path d="M1131,648L1195,855L1348,716Z" fill="#3c92c1" stroke="#3c92c1" stroke-width="1.51"/><path d="M1164,1195L1280,1263L1345,1166Z" fill="#20709f" stroke="#20709f" stroke-width="1.51"/><path d="M1091,1026L1164,1195L1318,994Z" fill="#2e7caf" stroke="#2e7caf" stroke-width="1.51"/><path d="M1129,971L1091,1026L1318,994Z" fill="#3181b6" stroke="#3181b6" stroke-width="1.51"/><path d="M1195,855L1129,971L1318,994Z" fill="#2d83ba" stroke="#2d83ba" stroke-width="1.51"/><path d="M1225,484L1131,648L1318,591Z" fill="#579cc7" stroke="#579cc7" stroke-width="1.51"/><path d="M1164,1195L1226,1277L1280,1263Z" fill="#256e9b" stroke="#256e9b" stroke-width="1.51"/><path d="M1131,648L1037,723L1195,855Z" fill="#4896c3" stroke="#4896c3" stroke-width="1.51"/><path d="M1181,203L1051,256L1198,387Z" fill="#85aed2" stroke="#85aed2" stroke-width="1.51"/><path d="M1155,-230L1035,-58L1218,-68Z" fill="#a7c1dd" stroke="#a7c1dd" stroke-width="1.51"/><path d="M1026,484L1131,648L1225,484Z" fill="#65a2cb" stroke="#65a2cb" stroke-width="1.51"/><path d="M1001,54L1181,203L1232,55Z" fill="#98b6d7" stroke="#98b6d7" stroke-width="1.51"/><path d="M1218,-68L1035,-58L1232,55Z" fill="#a0bcda" stroke="#a0bcda" stroke-width="1.51"/><path d="M1035,-58L1001,54L1232,55Z" fill="#a2bddb" stroke="#a2bddb" stroke-width="1.51"/><path d="M1017,-159L1035,-58L1155,-230Z" fill="#adc5e0" stroke="#adc5e0" stroke-width="1.51"/><path d="M1198,387L1053,411L1225,484Z" fill="#72a6cd" stroke="#72a6cd" stroke-width="1.51"/><path d="M1164,1195L1016,1332L1226,1277Z" fill="#30709a" stroke="#30709a" stroke-width="1.51"/><path d="M1053,411L1026,484L1225,484Z" fill="#72a7ce" stroke="#72a7ce" stroke-width="1.51"/><path d="M837,-244L1017,-159L1155,-230Z" fill="#b5cae3" stroke="#b5cae3" stroke-width="1.51"/><path d="M1091,1026L1048,1187L1164,1195Z" fill="#387cac" stroke="#387cac" stroke-width="1.51"/><path d="M1048,1187L1016,1332L1164,1195Z" fill="#3875a0" stroke="#3875a0" stroke-width="1.51"/><path d="M1001,54L1051,256L1181,203Z" fill="#96b6d7" stroke="#96b6d7" stroke-width="1.51"/><path d="M1037,723L1013,808L1195,855Z" fill="#4993c3" stroke="#4993c3" stroke-width="1.51"/><path d="M1051,256L1053,411L1198,387Z" fill="#80acd1" stroke="#80acd1" stroke-width="1.51"/><path d="M1013,808L1129,971L1195,855Z" fill="#408bbf" stroke="#408bbf" stroke-width="1.51"/><path d="M1026,484L897,570L1037,723Z" fill="#6ba5cc" stroke="#6ba5cc" stroke-width="1.51"/><path d="M1013,808L1091,1026L1129,971Z" fill="#4089bd" stroke="#4089bd" stroke-width="1.51"/><path d="M1026,484L1037,723L1131,648Z" fill="#619fc9" stroke="#619fc9" stroke-width="1.51"/><path d="M894,1013L871,1116L1048,1187Z" fill="#4b84b3" stroke="#4b84b3" stroke-width="1.51"/><path d="M1051,256L930,278L1053,411Z" fill="#8cb2d4" stroke="#8cb2d4" stroke-width="1.51"/><path d="M894,1013L1048,1187L1091,1026Z" fill="#4483b3" stroke="#4483b3" stroke-width="1.51"/><path d="M1013,808L894,1013L1091,1026Z" fill="#488bbf" stroke="#488bbf" stroke-width="1.51"/><path d="M840,92L930,278L1001,54Z" fill="#a6bddb" stroke="#a6bddb" stroke-width="1.51"/><path d="M897,570L842,656L1037,723Z" fill="#69a3cb" stroke="#69a3cb" stroke-width="1.51"/><path d="M897,1322L1016,1332L1048,1187Z" fill="#3f759c" stroke="#3f759c" stroke-width="1.51"/><path d="M1001,54L930,278L1051,256Z" fill="#9ab8d8" stroke="#9ab8d8" stroke-width="1.51"/><path d="M868,423L1026,484L1053,411Z" fill="#7fadd2" stroke="#7fadd2" stroke-width="1.51"/><path d="M930,278L868,423L1053,411Z" fill="#8bb1d4" stroke="#8bb1d4" stroke-width="1.51"/><path d="M830,821L894,1013L1013,808Z" fill="#5693c4" stroke="#5693c4" stroke-width="1.51"/><path d="M871,1116L897,1322L1048,1187Z" fill="#477da7" stroke="#477da7" stroke-width="1.51"/><path d="M1017,-159L864,-7L1035,-58Z" fill="#b1c7e0" stroke="#b1c7e0" stroke-width="1.51"/><path d="M864,-7L1001,54L1035,-58Z" fill="#adc3df" stroke="#adc3df" stroke-width="1.51"/><path d="M842,656L1013,808L1037,723Z" fill="#5b9dc8" stroke="#5b9dc8" stroke-width="1.51"/><path d="M842,656L830,821L1013,808Z" fill="#5f9dc8" stroke="#5f9dc8" stroke-width="1.51"/><path d="M868,423L897,570L1026,484Z" fill="#7dacd1" stroke="#7dacd1" stroke-width="1.51"/><path d="M785,-194L864,-7L1017,-159Z" fill="#bacce3" stroke="#bacce3" stroke-width="1.51"/><path d="M837,-244L785,-194L1017,-159Z" fill="#becfe5" stroke="#becfe5" stroke-width="1.51"/><path d="M864,-7L840,92L1001,54Z" fill="#aec3de" stroke="#aec3de" stroke-width="1.51"/><path d="M561,1261L407,1286L695,1288Z" fill="#6682a5" stroke="#6682a5" stroke-width="1.51"/><path d="M830,821L749,990L894,1013Z" fill="#5c91c3" stroke="#5c91c3" stroke-width="1.51"/><path d="M871,1116L768,1152L897,1322Z" fill="#5181ab" stroke="#5181ab" stroke-width="1.51"/><path d="M840,92L735,235L930,278Z" fill="#a6bddb" stroke="#a6bddb" stroke-width="1.51"/><path d="M735,235L785,349L930,278Z" fill="#9fbad9" stroke="#9fbad9" stroke-width="1.51"/><path d="M785,349L868,423L930,278Z" fill="#94b5d6" stroke="#94b5d6" stroke-width="1.51"/><path d="M749,990L871,1116L894,1013Z" fill="#578bba" stroke="#578bba" stroke-width="1.51"/><path d="M768,1152L695,1288L897,1322Z" fill="#547da4" stroke="#547da4" stroke-width="1.51"/><path d="M868,423L717,544L897,570Z" fill="#83afd3" stroke="#83afd3" stroke-width="1.51"/><path d="M717,544L842,656L897,570Z" fill="#7aaad0" stroke="#7aaad0" stroke-width="1.51"/><path d="M785,-194L679,-55L864,-7Z" fill="#c1cee4" stroke="#c1cee4" stroke-width="1.51"/><path d="M714,714L830,821L842,656Z" fill="#6ba3cb" stroke="#6ba3cb" stroke-width="1.51"/><path d="M743,59L840,92L864,-7Z" fill="#b5c6e0" stroke="#b5c6e0" stroke-width="1.51"/><path d="M785,349L717,544L868,423Z" fill="#8fb4d5" stroke="#8fb4d5" stroke-width="1.51"/><path d="M749,990L768,1152L871,1116Z" fill="#598ab7" stroke="#598ab7" stroke-width="1.51"/><path d="M679,-55L743,59L864,-7Z" fill="#bccae2" stroke="#bccae2" stroke-width="1.51"/><path d="M99,-172L312,-161L448,-194Z" fill="#e6e2ef" stroke="#e6e2ef" stroke-width="1.51"/><path d="M699,821L749,990L830,821Z" fill="#6598c7" stroke="#6598c7" stroke-width="1.51"/><path d="M714,714L699,821L830,821Z" fill="#6ba0ca" stroke="#6ba0ca" stroke-width="1.51"/><path d="M636,-194L785,-194L837,-244Z" fill="#c8d4e7" stroke="#c8d4e7" stroke-width="1.51"/><path d="M743,59L735,235L840,92Z" fill="#b3c3de" stroke="#b3c3de" stroke-width="1.51"/><path d="M717,544L714,714L842,656Z" fill="#7aa9d0" stroke="#7aa9d0" stroke-width="1.51"/><path d="M636,-194L630,-93L679,-55Z" fill="#ccd4e7" stroke="#ccd4e7" stroke-width="1.51"/><path d="M634,240L735,235L743,59Z" fill="#b3c3de" stroke="#b3c3de" stroke-width="1.51"/><path d="M749,990L627,1137L768,1152Z" fill="#618cb8" stroke="#618cb8" stroke-width="1.51"/><path d="M584,392L717,544L785,349Z" fill="#98b7d7" stroke="#98b7d7" stroke-width="1.51"/><path d="M735,235L634,240L785,349Z" fill="#a8bedc" stroke="#a8bedc" stroke-width="1.51"/><path d="M634,240L584,392L785,349Z" fill="#a6bddb" stroke="#a6bddb" stroke-width="1.51"/><path d="M636,-194L679,-55L785,-194Z" fill="#c9d3e7" stroke="#c9d3e7" stroke-width="1.51"/><path d="M562,129L634,240L743,59Z" fill="#bbc7e1" stroke="#bbc7e1" stroke-width="1.51"/><path d="M627,1137L695,1288L768,1152Z" fill="#5f86ae" stroke="#5f86ae" stroke-width="1.51"/><path d="M576,560L714,714L717,544Z" fill="#86aed2" stroke="#86aed2" stroke-width="1.51"/><path d="M699,821L551,994L749,990Z" fill="#6a97c6" stroke="#6a97c6" stroke-width="1.51"/><path d="M551,994L627,1137L749,990Z" fill="#6991be" stroke="#6991be" stroke-width="1.51"/><path d="M679,-55L562,129L743,59Z" fill="#c1cbe3" stroke="#c1cbe3" stroke-width="1.51"/><path d="M576,560L575,730L714,714Z" fill="#82acd1" stroke="#82acd1" stroke-width="1.51"/><path d="M584,392L576,560L717,544Z" fill="#96b6d6" stroke="#96b6d6" stroke-width="1.51"/><path d="M627,1137L561,1261L695,1288Z" fill="#6384aa" stroke="#6384aa" stroke-width="1.51"/><path d="M585,791L551,994L699,821Z" fill="#739eca" stroke="#739eca" stroke-width="1.51"/><path d="M585,791L699,821L714,714Z" fill="#73a4cd" stroke="#73a4cd" stroke-width="1.51"/><path d="M575,730L585,791L714,714Z" fill="#79a7ce" stroke="#79a7ce" stroke-width="1.51"/><path d="M630,-93L477,-20L679,-55Z" fill="#ccd3e7" stroke="#ccd3e7" stroke-width="1.51"/><path d="M477,-20L562,129L679,-55Z" fill="#c9d0e5" stroke="#c9d0e5" stroke-width="1.51"/><path d="M441,248L584,392L634,240Z" fill="#b2c2de" stroke="#b2c2de" stroke-width="1.51"/><path d="M448,-194L630,-93L636,-194Z" fill="#d4d8ea" stroke="#d4d8ea" stroke-width="1.51"/><path d="M551,994L481,1006L627,1137Z" fill="#7093bf" stroke="#7093bf" stroke-width="1.51"/><path d="M562,129L441,248L634,240Z" fill="#bbc7e0" stroke="#bbc7e0" stroke-width="1.51"/><path d="M448,-194L477,-20L630,-93Z" fill="#d4d7ea" stroke="#d4d7ea" stroke-width="1.51"/><path d="M388,1174L561,1261L627,1137Z" fill="#6d8bb2" stroke="#6d8bb2" stroke-width="1.51"/><path d="M481,1006L388,1174L627,1137Z" fill="#7292bb" stroke="#7292bb" stroke-width="1.51"/><path d="M414,578L380,741L575,730Z" fill="#8db1d4" stroke="#8db1d4" stroke-width="1.51"/><path d="M380,741L383,820L575,730Z" fill="#85acd1" stroke="#85acd1" stroke-width="1.51"/><path d="M414,578L575,730L576,560Z" fill="#8fb2d5" stroke="#8fb2d5" stroke-width="1.51"/><path d="M441,248L382,362L584,392Z" fill="#b4c3df" stroke="#b4c3df" stroke-width="1.51"/><path d="M414,578L576,560L584,392Z" fill="#9cb9d9" stroke="#9cb9d9" stroke-width="1.51"/><path d="M382,362L414,578L584,392Z" fill="#a8bedc" stroke="#a8bedc" stroke-width="1.51"/><path d="M481,1006L551,994L585,791Z" fill="#759bc9" stroke="#759bc9" stroke-width="1.51"/><path d="M383,820L481,1006L585,791Z" fill="#7da2cc" stroke="#7da2cc" stroke-width="1.51"/><path d="M575,730L383,820L585,791Z" fill="#80a9cf" stroke="#80a9cf" stroke-width="1.51"/><path d="M477,-20L398,119L562,129Z" fill="#cccfe6" stroke="#cccfe6" stroke-width="1.51"/><path d="M388,1174L407,1286L561,1261Z" fill="#6f89ac" stroke="#6f89ac" stroke-width="1.51"/><path d="M398,119L441,248L562,129Z" fill="#c5cbe3" stroke="#c5cbe3" stroke-width="1.51"/><path d="M302,1256L123,1345L407,1286Z" fill="#7789a7" stroke="#7789a7" stroke-width="1.51"/><path d="M298,-33L398,119L477,-20Z" fill="#d5d5e9" stroke="#d5d5e9" stroke-width="1.51"/><path d="M448,-194L312,-161L477,-20Z" fill="#dcdcec" stroke="#dcdcec" stroke-width="1.51"/><path d="M312,-161L298,-33L477,-20Z" fill="#dddbec" stroke="#dddbec" stroke-width="1.51"/><path d="M383,820L293,829L481,1006Z" fill="#83a3cd" stroke="#83a3cd" stroke-width="1.51"/><path d="M293,829L239,1039L481,1006Z" fill="#839fcb" stroke="#839fcb" stroke-width="1.51"/><path d="M239,1039L388,1174L481,1006Z" fill="#7d98c0" stroke="#7d98c0" stroke-width="1.51"/><path d="M250,391L228,518L382,362Z" fill="#b5c5e0" stroke="#b5c5e0" stroke-width="1.51"/><path d="M298,-33L303,99L398,119Z" fill="#d6d5e8" stroke="#d6d5e8" stroke-width="1.51"/><path d="M382,362L228,518L414,578Z" fill="#abc0dd" stroke="#abc0dd" stroke-width="1.51"/><path d="M398,119L329,232L441,248Z" fill="#c7cce3" stroke="#c7cce3" stroke-width="1.51"/><path d="M329,232L382,362L441,248Z" fill="#bfc8e2" stroke="#bfc8e2" stroke-width="1.51"/><path d="M239,1039L238,1120L388,1174Z" fill="#8098bf" stroke="#8098bf" stroke-width="1.51"/><path d="M313,739L380,741L414,578Z" fill="#93b3d5" stroke="#93b3d5" stroke-width="1.51"/><path d="M388,1174L302,1256L407,1286Z" fill="#768cae" stroke="#768cae" stroke-width="1.51"/><path d="M228,518L313,739L414,578Z" fill="#9ebad9" stroke="#9ebad9" stroke-width="1.51"/><path d="M303,99L329,232L398,119Z" fill="#cfd0e6" stroke="#cfd0e6" stroke-width="1.51"/><path d="M380,741L313,739L383,820Z" fill="#8caed2" stroke="#8caed2" stroke-width="1.51"/><path d="M329,232L250,391L382,362Z" fill="#bec9e1" stroke="#bec9e1" stroke-width="1.51"/><path d="M313,739L293,829L383,820Z" fill="#8cadd2" stroke="#8cadd2" stroke-width="1.51"/><path d="M238,1120L302,1256L388,1174Z" fill="#7c93b6" stroke="#7c93b6" stroke-width="1.51"/><path d="M25,1324L-129,1342L123,1345Z" fill="#7f8ea7" stroke="#7f8ea7" stroke-width="1.51"/><path d="M97,564L79,717L228,518Z" fill="#a8c1dd" stroke="#a8c1dd" stroke-width="1.51"/><path d="M137,982L239,1039L293,829Z" fill="#89a4ce" stroke="#89a4ce" stroke-width="1.51"/><path d="M139,865L137,982L293,829Z" fill="#8ea9d1" stroke="#8ea9d1" stroke-width="1.51"/><path d="M298,-33L171,49L303,99Z" fill="#dbd9eb" stroke="#dbd9eb" stroke-width="1.51"/><path d="M138,-83L298,-33L312,-161Z" fill="#e3e0ee" stroke="#e3e0ee" stroke-width="1.51"/><path d="M228,518L79,717L313,739Z" fill="#9ebbd9" stroke="#9ebbd9" stroke-width="1.51"/><path d="M303,99L187,212L329,232Z" fill="#cfd1e6" stroke="#cfd1e6" stroke-width="1.51"/><path d="M187,212L250,391L329,232Z" fill="#c6cde4" stroke="#c6cde4" stroke-width="1.51"/><path d="M139,865L293,829L313,739Z" fill="#8fafd3" stroke="#8fafd3" stroke-width="1.51"/><path d="M79,717L139,865L313,739Z" fill="#95b4d6" stroke="#95b4d6" stroke-width="1.51"/><path d="M99,-172L138,-83L312,-161Z" fill="#e9e5f1" stroke="#e9e5f1" stroke-width="1.51"/><path d="M238,1120L98,1140L302,1256Z" fill="#8197ba" stroke="#8197ba" stroke-width="1.51"/><path d="M98,1140L123,1345L302,1256Z" fill="#7e91b0" stroke="#7e91b0" stroke-width="1.51"/><path d="M171,49L187,212L303,99Z" fill="#d7d6e9" stroke="#d7d6e9" stroke-width="1.51"/><path d="M187,212L115,337L250,391Z" fill="#c5cee5" stroke="#c5cee5" stroke-width="1.51"/><path d="M138,-83L171,49L298,-33Z" fill="#e1dfed" stroke="#e1dfed" stroke-width="1.51"/><path d="M115,337L228,518L250,391Z" fill="#bac9e1" stroke="#bac9e1" stroke-width="1.51"/><path d="M115,337L97,564L228,518Z" fill="#b6c8e1" stroke="#b6c8e1" stroke-width="1.51"/><path d="M98,1140L238,1120L239,1039Z" fill="#859cc2" stroke="#859cc2" stroke-width="1.51"/><path d="M137,982L98,1140L239,1039Z" fill="#88a0c6" stroke="#88a0c6" stroke-width="1.51"/><path d="M-19,430L97,564L115,337Z" fill="#bdcce4" stroke="#bdcce4" stroke-width="1.51"/><path d="M98,1140L25,1324L123,1345Z" fill="#8192af" stroke="#8192af" stroke-width="1.51"/><path d="M-71,89L30,251L171,49Z" fill="#dedcec" stroke="#dedcec" stroke-width="1.51"/><path d="M171,49L30,251L187,212Z" fill="#d7d7ea" stroke="#d7d7ea" stroke-width="1.51"/><path d="M30,251L115,337L187,212Z" fill="#ced3e8" stroke="#ced3e8" stroke-width="1.51"/><path d="M138,-83L-18,-108L171,49Z" fill="#e9e4f0" stroke="#e9e4f0" stroke-width="1.51"/><path d="M-18,-108L-71,89L171,49Z" fill="#e7e3f0" stroke="#e7e3f0" stroke-width="1.51"/><path d="M-18,1165L25,1324L98,1140Z" fill="#8799b8" stroke="#8799b8" stroke-width="1.51"/><path d="M-42,1010L98,1140L137,982Z" fill="#8da4c9" stroke="#8da4c9" stroke-width="1.51"/><path d="M99,-172L-18,-108L138,-83Z" fill="#ede8f2" stroke="#ede8f2" stroke-width="1.51"/><path d="M79,717L-46,800L139,865Z" fill="#99b6d7" stroke="#99b6d7" stroke-width="1.51"/><path d="M-42,1010L137,982L139,865Z" fill="#90a9d1" stroke="#90a9d1" stroke-width="1.51"/><path d="M-46,800L-42,1010L139,865Z" fill="#96afd4" stroke="#96afd4" stroke-width="1.51"/><path d="M-13,581L79,717L97,564Z" fill="#aac2de" stroke="#aac2de" stroke-width="1.51"/><path d="M-19,430L-13,581L97,564Z" fill="#b5c9e2" stroke="#b5c9e2" stroke-width="1.51"/><path d="M-42,1010L-18,1165L98,1140Z" fill="#8da2c4" stroke="#8da2c4" stroke-width="1.51"/><path d="M30,251L-19,430L115,337Z" fill="#c9d2e7" stroke="#c9d2e7" stroke-width="1.51"/><path d="M-13,581L-67,653L79,717Z" fill="#a8c2de" stroke="#a8c2de" stroke-width="1.51"/><path d="M-19,-185L-18,-108L99,-172Z" fill="#f0ebf4" stroke="#f0ebf4" stroke-width="1.51"/><path d="M-67,653L-46,800L79,717Z" fill="#a1bedb" stroke="#a1bedb" stroke-width="1.51"/><path d="M-46,800L-184,874L-42,1010Z" fill="#99b2d6" stroke="#99b2d6" stroke-width="1.51"/><path d="M-18,1165L-139,1193L25,1324Z" fill="#8899b7" stroke="#8899b7" stroke-width="1.51"/><path d="M-139,1193L-129,1342L25,1324Z" fill="#8695af" stroke="#8695af" stroke-width="1.51"/><path d="M-71,89L-178,192L30,251Z" fill="#ddddec" stroke="#ddddec" stroke-width="1.51"/><path d="M-178,192L-116,360L30,251Z" fill="#d5d9eb" stroke="#d5d9eb" stroke-width="1.51"/><path d="M-116,360L-19,430L30,251Z" fill="#cbd4e7" stroke="#cbd4e7" stroke-width="1.51"/><path d="M-184,874L-165,1007L-42,1010Z" fill="#96add3" stroke="#96add3" stroke-width="1.51"/><path d="M-165,1007L-139,1193L-42,1010Z" fill="#92a6c9" stroke="#92a6c9" stroke-width="1.51"/><path d="M-116,360L-212,531L-19,430Z" fill="#c3d1e6" stroke="#c3d1e6" stroke-width="1.51"/><path d="M-198,-58L-71,89L-18,-108Z" fill="#ede8f3" stroke="#ede8f3" stroke-width="1.51"/><path d="M-19,-185L-197,-202L-18,-108Z" fill="#f5eef6" stroke="#f5eef6" stroke-width="1.51"/><path d="M-42,1010L-139,1193L-18,1165Z" fill="#8ea3c4" stroke="#8ea3c4" stroke-width="1.51"/><path d="M-170,646L-67,653L-13,581Z" fill="#adc6e0" stroke="#adc6e0" stroke-width="1.51"/><path d="M-212,531L-170,646L-13,581Z" fill="#b3c9e2" stroke="#b3c9e2" stroke-width="1.51"/><path d="M-19,430L-212,531L-13,581Z" fill="#bacde4" stroke="#bacde4" stroke-width="1.51"/><path d="M-197,-202L-198,-58L-18,-108Z" fill="#f4eef6" stroke="#f4eef6" stroke-width="1.51"/><path d="M-67,653L-170,646L-46,800Z" fill="#a6c2dd" stroke="#a6c2dd" stroke-width="1.51"/><path d="M-170,646L-184,874L-46,800Z" fill="#a0bddb" stroke="#a0bddb" stroke-width="1.51"/><path d="M-204,137L-178,192L-71,89Z" fill="#e3e1ee" stroke="#e3e1ee" stroke-width="1.51"/><path d="M-198,-58L-204,137L-71,89Z" fill="#eae6f1" stroke="#eae6f1" stroke-width="1.51"/><path d="M-165,1007L-184,874L-129,1342Z" fill="#93a8ca" stroke="#93a8ca" stroke-width="1.51"/><path d="M-178,192L-212,531L-116,360Z" fill="#cdd6e9" stroke="#cdd6e9" stroke-width="1.51"/><path d="M-139,1193L-165,1007L-129,1342Z" fill="#8ea0be" stroke="#8ea0be" stroke-width="1.51"/><path d="M-204,137L-212,531L-178,192Z" fill="#d6dbec" stroke="#d6dbec" stroke-width="1.51"/><path d="M-212,531L-184,874L-170,646Z" fill="#abc5df" stroke="#abc5df" stroke-width="1.51"/><path d="M-204,137L-198,-58L-197,-202Z" fill="#f1ecf5" stroke="#f1ecf5" stroke-width="1.51"/></svg>