<svg xmlns="http://www.w3.org/2000/svg" width="1920" height="1080"><path d="M-197,-202L-19,-185L448,-194Z" fill="#bd2c7a" stroke="#bd2c7a" stroke-width="1.51"/><path d="M-197,-202L448,-194L837,-244Z" fill="#c85d93" stroke="#c85d93" stroke-width="1.51"/><path d="M897,1322L123,1345L1016,1332Z" fill="#97a380" stroke="#97a380" stroke-width="1.51"/><path d="M837,-244L1155,-230L1369,-265Z" fill="#ca8c9a" stroke="#ca8c9a" stroke-width="1.51"/><path d="M1016,1332L123,1345L1668,1345Z" fill="#93af84" stroke="#93af84" stroke-width="1.51"/><path d="M1451,1329L1016,1332L1668,1345Z" fill="#79a759" stroke="#79a759" stroke-width="1.51"/><path d="M1654,-192L1821,-173L1911,-185Z" fill="#987155" stroke="#987155" stroke-width="1.51"/><path d="M1654,-192L1911,-185L2060,-232Z" fill="#8d694d" stroke="#8d694d" stroke-width="1.51"/><path d="M1516,-223L1654,-192L2060,-232Z" fill="#987254" stroke="#987254" stroke-width="1.51"/><path d="M1369,-265L1516,-223L2060,-232Z" fill="#9d7759" stroke="#9d7759" stroke-width="1.51"/><path d="M1966,836L2063,873L2076,642Z" fill="#86b364" stroke="#86b364" stroke-width="1.51"/><path d="M1952,652L1966,836L2076,642Z" fill="#94bb76" stroke="#94bb76" stroke-width="1.51"/><path d="M2070,987L1968,1181L2098,1144Z" fill="#519228" stroke="#519228" stroke-width="1.51"/><path d="M2076,642L2063,873L2098,1144Z" fill="#73a74d" stroke="#73a74d" stroke-width="1.51"/><path d="M2063,873L2070,987L2098,1144Z" fill="#5f9b36" stroke="#5f9b36" stroke-width="1.51"/><path d="M2047,56L1886,188L2100,282Z" fill="#9b9779" stroke="#9b9779" stroke-width="1.51"/><path d="M2079,-104L2047,56L2100,282Z" fill="#92816b" stroke="#92816b" stroke-width="1.51"/><path d="M2100,282L1956,361L2118,381Z" fill="#9ca882" stroke="#9ca882" stroke-width="1.51"/><path d="M1956,361L2053,487L2118,381Z" fill="#9daf85" stroke="#9daf85" stroke-width="1.51"/><path d="M2053,487L2076,642L2118,381Z" fill="#97b286" stroke="#97b286" stroke-width="1.51"/><path d="M2076,642L2098,1144L2118,381Z" fill="#89b070" stroke="#89b070" stroke-width="1.51"/><path d="M2079,-104L2100,282L2118,381Z" fill="#949077" stroke="#949077" stroke-width="1.51"/><path d="M2098,1144L1968,1181L2118,1295Z" fill="#41831f" stroke="#41831f" stroke-width="1.51"/><path d="M1968,1181L1940,1323L2118,1295Z" fill="#3e801e" stroke="#3e801e" stroke-width="1.51"/><path d="M2118,381L2098,1144L2118,1295Z" fill="#679e41" stroke="#679e41" stroke-width="1.51"/><path d="M1907,1007L1968,1181L2070,987Z" fill="#5e9e2e" stroke="#5e9e2e" stroke-width="1.51"/><path d="M2053,487L1915,557L2076,642Z" fill="#9bba86" stroke="#9bba86" stroke-width="1.51"/><path d="M1915,557L1952,652L2076,642Z" fill="#9bbd81" stroke="#9bbd81" stroke-width="1.51"/><path d="M1909,-80L2047,56L2079,-104Z" fill="#92715d" stroke="#92715d" stroke-width="1.51"/><path d="M1886,188L1956,361L2100,282Z" fill="#a1a882" stroke="#a1a882" stroke-width="1.51"/><path d="M1909,-80L1935,50L2047,56Z" fill="#997f65" stroke="#997f65" stroke-width="1.51"/><path d="M1935,50L1886,188L2047,56Z" fill="#9d9071" stroke="#9d9071" stroke-width="1.51"/><path d="M2063,873L1966,836L2070,987Z" fill="#74ab4b" stroke="#74ab4b" stroke-width="1.51"/><path d="M1966,836L1907,1007L2070,987Z" fill="#71aa44" stroke="#71aa44" stroke-width="1.51"/><path d="M2060,-232L1911,-185L2079,-104Z" fill="#855f4b" stroke="#855f4b" stroke-width="1.51"/><path d="M1911,-185L1909,-80L2079,-104Z" fill="#916753" stroke="#916753" stroke-width="1.51"/><path d="M1956,361L1915,557L2053,487Z" fill="#a2ba89" stroke="#a2ba89" stroke-width="1.51"/><path d="M695,1288L123,1345L897,1322Z" fill="#979d7d" stroke="#979d7d" stroke-width="1.51"/><path d="M1830,1272L1668,1345L1940,1323Z" fill="#4b8b25" stroke="#4b8b25" stroke-width="1.51"/><path d="M1752,659L1839,888L1952,652Z" fill="#9ec878" stroke="#9ec878" stroke-width="1.51"/><path d="M1886,188L1729,274L1956,361Z" fill="#adb388" stroke="#adb388" stroke-width="1.51"/><path d="M1794,422L1915,557L1956,361Z" fill="#abc18c" stroke="#abc18c" stroke-width="1.51"/><path d="M1952,652L1839,888L1966,836Z" fill="#8ebe66" stroke="#8ebe66" stroke-width="1.51"/><path d="M1839,888L1907,1007L1966,836Z" fill="#7db64d" stroke="#7db64d" stroke-width="1.51"/><path d="M1907,1007L1835,1137L1968,1181Z" fill="#5d9f2b" stroke="#5d9f2b" stroke-width="1.51"/><path d="M1830,1272L1940,1323L1968,1181Z" fill="#478a20" stroke="#478a20" stroke-width="1.51"/><path d="M1835,1137L1830,1272L1968,1181Z" fill="#529625" stroke="#529625" stroke-width="1.51"/><path d="M1729,274L1794,422L1956,361Z" fill="#b2bf8e" stroke="#b2bf8e" stroke-width="1.51"/><path d="M1915,557L1752,659L1952,652Z" fill="#a5c886" stroke="#a5c886" stroke-width="1.51"/><path d="M1794,422L1776,529L1915,557Z" fill="#afca92" stroke="#afca92" stroke-width="1.51"/><path d="M1746,43L1886,188L1935,50Z" fill="#a79876" stroke="#a79876" stroke-width="1.51"/><path d="M1909,-80L1772,-42L1935,50Z" fill="#a08166" stroke="#a08166" stroke-width="1.51"/><path d="M1821,-173L1909,-80L1911,-185Z" fill="#956d54" stroke="#956d54" stroke-width="1.51"/><path d="M1772,-42L1746,43L1935,50Z" fill="#a78e6f" stroke="#a78e6f" stroke-width="1.51"/><path d="M1839,888L1762,989L1907,1007Z" fill="#7cb647" stroke="#7cb647" stroke-width="1.51"/><path d="M1762,989L1835,1137L1907,1007Z" fill="#6dad36" stroke="#6dad36" stroke-width="1.51"/><path d="M1776,529L1752,659L1915,557Z" fill="#adcd8f" stroke="#adcd8f" stroke-width="1.51"/><path d="M1821,-173L1772,-42L1909,-80Z" fill="#a0775e" stroke="#a0775e" stroke-width="1.51"/><path d="M407,1286L123,1345L695,1288Z" fill="#958f75" stroke="#958f75" stroke-width="1.51"/><path d="M1746,43L1729,274L1886,188Z" fill="#b1ab84" stroke="#b1ab84" stroke-width="1.51"/><path d="M1664,231L1729,274L1746,43Z" fill="#b9b48b" stroke="#b9b48b" stroke-width="1.51"/><path d="M1582,1190L1668,1345L1830,1272Z" fill="#5c9c2e" stroke="#5c9c2e" stroke-width="1.51"/><path d="M1582,1190L1830,1272L1835,1137Z" fill="#5fa12d" stroke="#5fa12d" stroke-width="1.51"/><path d="M1591,892L1762,989L1839,888Z" fill="#8dc456" stroke="#8dc456" stroke-width="1.51"/><path d="M1752,659L1591,892L1839,888Z" fill="#9fce6e" stroke="#9fce6e" stroke-width="1.51"/><path d="M1762,989L1582,1190L1835,1137Z" fill="#6faf37" stroke="#6faf37" stroke-width="1.51"/><path d="M1654,-192L1772,-42L1821,-173Z" fill="#a5795e" stroke="#a5795e" stroke-width="1.51"/><path d="M1729,274L1687,411L1794,422Z" fill="#bcc995" stroke="#bcc995" stroke-width="1.51"/><path d="M1601,655L1591,892L1752,659Z" fill="#b4d987" stroke="#b4d987" stroke-width="1.51"/><path d="M1591,892L1601,952L1762,989Z" fill="#93c859" stroke="#93c859" stroke-width="1.51"/><path d="M1654,-192L1633,-69L1772,-42Z" fill="#ae8266" stroke="#ae8266" stroke-width="1.51"/><path d="M1687,411L1776,529L1794,422Z" fill="#b8ce96" stroke="#b8ce96" stroke-width="1.51"/><path d="M1593,44L1664,231L1746,43Z" fill="#bbaa85" stroke="#bbaa85" stroke-width="1.51"/><path d="M1601,952L1582,1190L1762,989Z" fill="#82bd45" stroke="#82bd45" stroke-width="1.51"/><path d="M1613,535L1752,659L1776,529Z" fill="#b9d797" stroke="#b9d797" stroke-width="1.51"/><path d="M1687,411L1613,535L1776,529Z" fill="#bed69b" stroke="#bed69b" stroke-width="1.51"/><path d="M1633,-69L1746,43L1772,-42Z" fill="#b08f70" stroke="#b08f70" stroke-width="1.51"/><path d="M1613,535L1601,655L1752,659Z" fill="#bcdb97" stroke="#bcdb97" stroke-width="1.51"/><path d="M1633,-69L1593,44L1746,43Z" fill="#b79979" stroke="#b79979" stroke-width="1.51"/><path d="M1506,788L1591,892L1601,655Z" fill="#b7dd89" stroke="#b7dd89" stroke-width="1.51"/><path d="M1664,231L1687,411L1729,274Z" fill="#bec695" stroke="#bec695" stroke-width="1.51"/><path d="M1226,1277L1016,1332L1451,1329Z" fill="#8ab06f" stroke="#8ab06f" stroke-width="1.51"/><path d="M1482,1158L1582,1190L1601,952Z" fill="#84bd4e" stroke="#84bd4e" stroke-width="1.51"/><path d="M1593,44L1494,184L1664,231Z" fill="#c6b996" stroke="#c6b996" stroke-width="1.51"/><path d="M1664,231L1528,399L1687,411Z" fill="#c7d09f" stroke="#c7d09f" stroke-width="1.51"/><path d="M1528,399L1613,535L1687,411Z" fill="#c8d9a5" stroke="#c8d9a5" stroke-width="1.51"/><path d="M1494,184L1528,399L1664,231Z" fill="#cccca4" stroke="#cccca4" stroke-width="1.51"/><path d="M1582,1190L1451,1329L1668,1345Z" fill="#69a23f" stroke="#69a23f" stroke-width="1.51"/><path d="M1516,-223L1633,-69L1654,-192Z" fill="#af8169" stroke="#af8169" stroke-width="1.51"/><path d="M1468,951L1482,1158L1601,952Z" fill="#95ca5c" stroke="#95ca5c" stroke-width="1.51"/><path d="M1500,636L1601,655L1613,535Z" fill="#c6e2a4" stroke="#c6e2a4" stroke-width="1.51"/><path d="M1458,-12L1593,44L1633,-69Z" fill="#c19c84" stroke="#c19c84" stroke-width="1.51"/><path d="M1516,-223L1458,-12L1633,-69Z" fill="#bf8c7a" stroke="#bf8c7a" stroke-width="1.51"/><path d="M1458,-12L1482,42L1593,44Z" fill="#c8a68f" stroke="#c8a68f" stroke-width="1.51"/><path d="M1482,42L1494,184L1593,44Z" fill="#cab297" stroke="#cab297" stroke-width="1.51"/><path d="M1500,636L1506,788L1601,655Z" fill="#c5e49f" stroke="#c5e49f" stroke-width="1.51"/><path d="M1528,399L1464,551L1613,535Z" fill="#cfe2b0" stroke="#cfe2b0" stroke-width="1.51"/><path d="M1464,551L1500,636L1613,535Z" fill="#cee6ae" stroke="#cee6ae" stroke-width="1.51"/><path d="M1482,1158L1451,1329L1582,1190Z" fill="#78b04b" stroke="#78b04b" stroke-width="1.51"/><path d="M1591,892L1468,951L1601,952Z" fill="#a0d16a" stroke="#a0d16a" stroke-width="1.51"/><path d="M1494,184L1381,271L1528,399Z" fill="#d7d4b1" stroke="#d7d4b1" stroke-width="1.51"/><path d="M1506,788L1468,951L1591,892Z" fill="#aed979" stroke="#aed979" stroke-width="1.51"/><path d="M-19,-185L99,-172L448,-194Z" fill="#c44186" stroke="#c44186" stroke-width="1.51"/><path d="M1468,951L1318,994L1482,1158Z" fill="#9dcf67" stroke="#9dcf67" stroke-width="1.51"/><path d="M1500,636L1348,716L1506,788Z" fill="#cdeaa8" stroke="#cdeaa8" stroke-width="1.51"/><path d="M1350,786L1468,951L1506,788Z" fill="#bce38d" stroke="#bce38d" stroke-width="1.51"/><path d="M1352,-26L1458,-12L1516,-223Z" fill="#ca9688" stroke="#ca9688" stroke-width="1.51"/><path d="M1369,-265L1352,-26L1516,-223Z" fill="#c28b80" stroke="#c28b80" stroke-width="1.51"/><path d="M1349,444L1464,551L1528,399Z" fill="#dae7bc" stroke="#dae7bc" stroke-width="1.51"/><path d="M1381,271L1349,444L1528,399Z" fill="#dee2be" stroke="#dee2be" stroke-width="1.51"/><path d="M1345,1166L1451,1329L1482,1158Z" fill="#82b756" stroke="#82b756" stroke-width="1.51"/><path d="M1318,994L1345,1166L1482,1158Z" fill="#98c866" stroke="#98c866" stroke-width="1.51"/><path d="M1482,42L1353,63L1494,184Z" fill="#d2b9a2" stroke="#d2b9a2" stroke-width="1.51"/><path d="M1348,716L1350,786L1506,788Z" fill="#cbe9a4" stroke="#cbe9a4" stroke-width="1.51"/><path d="M1280,1263L1226,1277L1451,1329Z" fill="#84b163" stroke="#84b163" stroke-width="1.51"/><path d="M1464,551L1318,591L1500,636Z" fill="#d8ecba" stroke="#d8ecba" stroke-width="1.51"/><path d="M1318,591L1348,716L1500,636Z" fill="#d8eeba" stroke="#d8eeba" stroke-width="1.51"/><path d="M1353,63L1381,271L1494,184Z" fill="#d9c8b1" stroke="#d9c8b1" stroke-width="1.51"/><path d="M1350,786L1318,994L1468,951Z" fill="#b7df88" stroke="#b7df88" stroke-width="1.51"/><path d="M1458,-12L1353,63L1482,42Z" fill="#d1ad9b" stroke="#d1ad9b" stroke-width="1.51"/><path d="M1345,1166L1280,1263L1451,1329Z" fill="#85b55f" stroke="#85b55f" stroke-width="1.51"/><path d="M1352,-26L1353,63L1458,-12Z" fill="#d3aa9e" stroke="#d3aa9e" stroke-width="1.51"/><path d="M1349,444L1318,591L1464,551Z" fill="#dfeec7" stroke="#dfeec7" stroke-width="1.51"/><path d="M1225,484L1318,591L1349,444Z" fill="#e7f0d3" stroke="#e7f0d3" stroke-width="1.51"/><path d="M1195,855L1318,994L1350,786Z" fill="#c6e79c" stroke="#c6e79c" stroke-width="1.51"/><path d="M1232,55L1181,203L1353,63Z" fill="#e4c1bf" stroke="#e4c1bf" stroke-width="1.51"/><path d="M1218,-68L1352,-26L1369,-265Z" fill="#d39396" stroke="#d39396" stroke-width="1.51"/><path d="M1155,-230L1218,-68L1369,-265Z" fill="#cd8f95" stroke="#cd8f95" stroke-width="1.51"/><path d="M1198,387L1349,444L1381,271Z" fill="#e8e5ce" stroke="#e8e5ce" stroke-width="1.51"/><path d="M1181,203L1198,387L1381,271Z" fill="#ebded2" stroke="#ebded2" stroke-width="1.51"/><path d="M1353,63L1181,203L1381,271Z" fill="#e2ccc2" stroke="#e2ccc2" stroke-width="1.51"/><path d="M448,-194L636,-194L837,-244Z" fill="#d37ba4" stroke="#d37ba4" stroke-width="1.51"/><path d="M1318,994L1164,1195L1345,1166Z" fill="#a0cb76" stroke="#a0cb76" stroke-width="1.51"/><path d="M1318,591L1131,648L1348,716Z" fill="#e3f3cc" stroke="#e3f3cc" stroke-width="1.51"/><path d="M1198,387L1225,484L1349,444Z" fill="#ecedd8" stroke="#ecedd8" stroke-width="1.51"/><path d="M1348,716L1195,855L1350,786Z" fill="#d2ecaf" stroke="#d2ecaf" stroke-width="1.51"/><path d="M1218,-68L1232,55L1352,-26Z" fill="#ddaaac" stroke="#ddaaac" stroke-width="1.51"/><path d="M1352,-26L1232,55L1353,63Z" fill="#dbb1ac" stroke="#dbb1ac" stroke-width="1.51"/><path d="M1131,648L1195,855L1348,716Z" fill="#dff2c4" stroke="#dff2c4" stroke-width="1.51"/><path d="M1164,1195L1280,1263L1345,1166Z" fill="#94bf70" stroke="#94bf70" stroke-width="1.51"/><path d="M1091,1026L1164,1195L1318,994Z" fill="#afd486" stroke="#afd486" stroke-width="1.51"/><path d="M1129,971L1091,1026L1318,994Z" fill="#bbdd93" stroke="#bbdd93" stroke-width="1.51"/><path d="M1195,855L1129,971L1318,994Z" fill="#c2e39b" stroke="#c2e39b" stroke-width="1.51"/><path d="M1225,484L1131,648L1318,591Z" fill="#ebf5db" stroke="#ebf5db" stroke-width="1.51"/><path d="M1164,1195L1226,1277L1280,1263Z" fill="#93bb74" stroke="#93bb74" stroke-width="1.51"/><path d="M1131,648L1037,723L1195,855Z" fill="#e4f4ce" stroke="#e4f4ce" stroke-width="1.51"/><path d="M1181,203L1051,256L1198,387Z" fill="#f1dfde" stroke="#f1dfde" stroke-width="1.51"/><path d="M1155,-230L1035,-58L1218,-68Z" fill="#df97ab" stroke="#df97ab" stroke-width="1.51"/><path d="M1026,484L1131,648L1225,484Z" fill="#f1f7e9" stroke="#f1f7e9" stroke-width="1.51"/><path d="M1001,54L1181,203L1232,55Z" fill="#ebc3cc" stroke="#ebc3cc" stroke-width="1.51"/><path d="M1218,-68L1035,-58L1232,55Z" fill="#e3aab7" stroke="#e3aab7" stroke-width="1.51"/><path d="M1035,-58L1001,54L1232,55Z" fill="#e8b2c3" stroke="#e8b2c3" stroke-width="1.51"/><path d="M1017,-159L1035,-58L1155,-230Z" fill="#dc94ab" stroke="#dc94ab" stroke-width="1.51"/><path d="M1198,387L1053,411L1225,484Z" fill="#f2eee5" stroke="#f2eee5" stroke-width="1.51"/><path d="M1164,1195L1016,1332L1226,1277Z" fill="#95ba7b" stroke="#95ba7b" stroke-width="1.51"/><path d="M1053,411L1026,484L1225,484Z" fill="#f4f1ea" stroke="#f4f1ea" stroke-width="1.51"/><path d="M837,-244L1017,-159L1155,-230Z" fill="#d38fa8" stroke="#d38fa8" stroke-width="1.51"/><path d="M1091,1026L1048,1187L1164,1195Z" fill="#a9cc88" stroke="#a9cc88" stroke-width="1.51"/><path d="M1048,1187L1016,1332L1164,1195Z" fill="#9bbe81" stroke="#9bbe81" stroke-width="1.51"/><path d="M1001,54L1051,256L1181,203Z" fill="#f0cfda" stroke="#f0cfda" stroke-width="1.51"/><path d="M1037,723L1013,808L1195,855Z" fill="#def0c5" stroke="#def0c5" stroke-width="1.51"/><path d="M1051,256L1053,411L1198,387Z" fill="#f4e8e6" stroke="#f4e8e6" stroke-width="1.51"/><path d="M1013,808L1129,971L1195,855Z" fill="#d1ebb1" stroke="#d1ebb1" stroke-width="1.51"/><path d="M1026,484L897,570L1037,723Z" fill="#f4f7ef" stroke="#f4f7ef" stroke-width="1.51"/><path d="M1013,808L1091,1026L1129,971Z" fill="#cae4a8" stroke="#cae4a8" stroke-width="1.51"/><path d="M1026,484L1037,723L1131,648Z" fill="#f0f6e5" stroke="#f0f6e5" stroke-width="1.51"/><path d="M894,1013L871,1116L1048,1187Z" fill="#b4d095" stroke="#b4d095" stroke-width="1.51"/><path d="M1051,256L930,278L1053,411Z" fill="#f7e4eb" stroke="#f7e4eb" stroke-width="1.51"/><path d="M894,1013L1048,1187L1091,1026Z" fill="#b6d595" stroke="#b6d595" stroke-width="1.51"/><path d="M1013,808L894,1013L1091,1026Z" fill="#cae3ab" stroke="#cae3ab" stroke-width="1.51"/><path d="M840,92L930,278L1001,54Z" fill="#f3c8de" stroke="#f3c8de" stroke-width="1.51"/><path d="M897,570L842,656L1037,723Z" fill="#f2f5ea" stroke="#f2f5ea" stroke-width="1.51"/><path d="M897,1322L1016,1332L1048,1187Z" fill="#99b886" stroke="#99b886" stroke-width="1.51"/><path d="M1001,54L930,278L1051,256Z" fill="#f4d4e4" stroke="#f4d4e4" stroke-width="1.51"/><path d="M868,423L1026,484L1053,411Z" fill="#f8f0f3" stroke="#f8f0f3" stroke-width="1.51"/><path d="M930,278L868,423L1053,411Z" fill="#faebf2" stroke="#faebf2" stroke-width="1.51"/><path d="M830,821L894,1013L1013,808Z" fill="#d8e9bc" stroke="#d8e9bc" stroke-width="1.51"/><path d="M871,1116L897,1322L1048,1187Z" fill="#a4c28c" stroke="#a4c28c" stroke-width="1.51"/><path d="M1017,-159L864,-7L1035,-58Z" fill="#e7a0be" stroke="#e7a0be" stroke-width="1.51"/><path d="M864,-7L1001,54L1035,-58Z" fill="#ebaeca" stroke="#ebaeca" stroke-width="1.51"/><path d="M842,656L1013,808L1037,723Z" fill="#ecf5dd" stroke="#ecf5dd" stroke-width="1.51"/><path d="M842,656L830,821L1013,808Z" fill="#e9f0d6" stroke="#e9f0d6" stroke-width="1.51"/><path d="M868,423L897,570L1026,484Z" fill="#f9f2f6" stroke="#f9f2f6" stroke-width="1.51"/><path d="M785,-194L864,-7L1017,-159Z" fill="#e592b7" stroke="#e592b7" stroke-width="1.51"/><path d="M837,-244L785,-194L1017,-159Z" fill="#d78bab" stroke="#d78bab" stroke-width="1.51"/><path d="M864,-7L840,92L1001,54Z" fill="#eeb5d1" stroke="#eeb5d1" stroke-width="1.51"/><path d="M561,1261L407,1286L695,1288Z" fill="#9ca17e" stroke="#9ca17e" stroke-width="1.51"/><path d="M830,821L749,990L894,1013Z" fill="#d0deae" stroke="#d0deae" stroke-width="1.51"/><path d="M871,1116L768,1152L897,1322Z" fill="#a7c08b" stroke="#a7c08b" stroke-width="1.51"/><path d="M840,92L735,235L930,278Z" fill="#f6cfe5" stroke="#f6cfe5" stroke-width="1.51"/><path d="M735,235L785,349L930,278Z" fill="#f9daeb" stroke="#f9daeb" stroke-width="1.51"/><path d="M785,349L868,423L930,278Z" fill="#fbe4f0" stroke="#fbe4f0" stroke-width="1.51"/><path d="M749,990L871,1116L894,1013Z" fill="#bfd49b" stroke="#bfd49b" stroke-width="1.51"/><path d="M768,1152L695,1288L897,1322Z" fill="#a1b587" stroke="#a1b587" stroke-width="1.51"/><path d="M868,423L717,544L897,570Z" fill="#faeff5" stroke="#faeff5" stroke-width="1.51"/><path d="M717,544L842,656L897,570Z" fill="#f7f0ef" stroke="#f7f0ef" stroke-width="1.51"/><path d="M785,-194L679,-55L864,-7Z" fill="#e894bb" stroke="#e894bb" stroke-width="1.51"/><path d="M714,714L830,821L842,656Z" fill="#eeeddc" stroke="#eeeddc" stroke-width="1.51"/><path d="M743,59L840,92L864,-7Z" fill="#efb1d0" stroke="#efb1d0" stroke-width="1.51"/><path d="M785,349L717,544L868,423Z" fill="#fbe8f1" stroke="#fbe8f1" stroke-width="1.51"/><path d="M749,990L768,1152L871,1116Z" fill="#b9cc96" stroke="#b9cc96" stroke-width="1.51"/><path d="M679,-55L743,59L864,-7Z" fill="#eda5c7" stroke="#eda5c7" stroke-width="1.51"/><path d="M99,-172L312,-161L448,-194Z" fill="#cb5491" stroke="#cb5491" stroke-width="1.51"/><path d="M699,821L749,990L830,821Z" fill="#dbe2ba" stroke="#dbe2ba" stroke-width="1.51"/><path d="M714,714L699,821L830,821Z" fill="#e7e7ce" stroke="#e7e7ce" stroke-width="1.51"/><path d="M636,-194L785,-194L837,-244Z" fill="#d584a8" stroke="#d584a8" stroke-width="1.51"/><path d="M743,59L735,235L840,92Z" fill="#f3beda" stroke="#f3beda" stroke-width="1.51"/><path d="M717,544L714,714L842,656Z" fill="#f5ede8" stroke="#f5ede8" stroke-width="1.51"/><path d="M636,-194L630,-93L679,-55Z" fill="#e484b3" stroke="#e484b3" stroke-width="1.51"/><path d="M634,240L735,235L743,59Z" fill="#f5c4df" stroke="#f5c4df" stroke-width="1.51"/><path d="M749,990L627,1137L768,1152Z" fill="#b9c794" stroke="#b9c794" stroke-width="1.51"/><path d="M584,392L717,544L785,349Z" fill="#fce2ef" stroke="#fce2ef" stroke-width="1.51"/><path d="M735,235L634,240L785,349Z" fill="#fad3e8" stroke="#fad3e8" stroke-width="1.51"/><path d="M634,240L584,392L785,349Z" fill="#fbd5ea" stroke="#fbd5ea" stroke-width="1.51"/><path d="M636,-194L679,-55L785,-194Z" fill="#e086b0" stroke="#e086b0" stroke-width="1.51"/><path d="M562,129L634,240L743,59Z" fill="#f2b8d8" stroke="#f2b8d8" stroke-width="1.51"/><path d="M627,1137L695,1288L768,1152Z" fill="#a9b989" stroke="#a9b989" stroke-width="1.51"/><path d="M576,560L714,714L717,544Z" fill="#f6e7e9" stroke="#f6e7e9" stroke-width="1.51"/><path d="M699,821L551,994L749,990Z" fill="#d1d6ab" stroke="#d1d6ab" stroke-width="1.51"/><path d="M551,994L627,1137L749,990Z" fill="#bfc896" stroke="#bfc896" stroke-width="1.51"/><path d="M679,-55L562,129L743,59Z" fill="#eda7cc" stroke="#eda7cc" stroke-width="1.51"/><path d="M576,560L575,730L714,714Z" fill="#f2e2e0" stroke="#f2e2e0" stroke-width="1.51"/><path d="M584,392L576,560L717,544Z" fill="#f9e1ee" stroke="#f9e1ee" stroke-width="1.51"/><path d="M627,1137L561,1261L695,1288Z" fill="#a4ae84" stroke="#a4ae84" stroke-width="1.51"/><path d="M585,791L551,994L699,821Z" fill="#dad8b7" stroke="#dad8b7" stroke-width="1.51"/><path d="M585,791L699,821L714,714Z" fill="#e8e3cd" stroke="#e8e3cd" stroke-width="1.51"/><path d="M575,730L585,791L714,714Z" fill="#ebe0d3" stroke="#ebe0d3" stroke-width="1.51"/><path d="M630,-93L477,-20L679,-55Z" fill="#e58cb9" stroke="#e58cb9" stroke-width="1.51"/><path d="M477,-20L562,129L679,-55Z" fill="#e999c4" stroke="#e999c4" stroke-width="1.51"/><path d="M441,248L584,392L634,240Z" fill="#f6c7e2" stroke="#f6c7e2" stroke-width="1.51"/><path d="M448,-194L630,-93L636,-194Z" fill="#da79a8" stroke="#da79a8" stroke-width="1.51"/><path d="M551,994L481,1006L627,1137Z" fill="#bdc092" stroke="#bdc092" stroke-width="1.51"/><path d="M562,129L441,248L634,240Z" fill="#f3bbdc" stroke="#f3bbdc" stroke-width="1.51"/><path d="M448,-194L477,-20L630,-93Z" fill="#e07bae" stroke="#e07bae" stroke-width="1.51"/><path d="M388,1174L561,1261L627,1137Z" fill="#a7ab83" stroke="#a7ab83" stroke-width="1.51"/><path d="M481,1006L388,1174L627,1137Z" fill="#b3b48a" stroke="#b3b48a" stroke-width="1.51"/><path d="M414,578L380,741L575,730Z" fill="#edd3d6" stroke="#edd3d6" stroke-width="1.51"/><path d="M380,741L383,820L575,730Z" fill="#e5cfc6" stroke="#e5cfc6" stroke-width="1.51"/><path d="M414,578L575,730L576,560Z" fill="#f2dae1" stroke="#f2dae1" stroke-width="1.51"/><path d="M441,248L382,362L584,392Z" fill="#f5c5e1" stroke="#f5c5e1" stroke-width="1.51"/><path d="M414,578L576,560L584,392Z" fill="#f6d9ea" stroke="#f6d9ea" stroke-width="1.51"/><path d="M382,362L414,578L584,392Z" fill="#f6cee4" stroke="#f6cee4" stroke-width="1.51"/><path d="M481,1006L551,994L585,791Z" fill="#cfcba7" stroke="#cfcba7" stroke-width="1.51"/><path d="M383,820L481,1006L585,791Z" fill="#d7cdb1" stroke="#d7cdb1" stroke-width="1.51"/><path d="M575,730L383,820L585,791Z" fill="#e4d5c6" stroke="#e4d5c6" stroke-width="1.51"/><path d="M477,-20L398,119L562,129Z" fill="#ea9dc8" stroke="#ea9dc8" stroke-width="1.51"/><path d="M388,1174L407,1286L561,1261Z" fill="#9f9d7b" stroke="#9f9d7b" stroke-width="1.51"/><path d="M398,119L441,248L562,129Z" fill="#eeacd3" stroke="#eeacd3" stroke-width="1.51"/><path d="M302,1256L123,1345L407,1286Z" fill="#93816a" stroke="#93816a" stroke-width="1.51"/><path d="M298,-33L398,119L477,-20Z" fill="#e386b8" stroke="#e386b8" stroke-width="1.51"/><path d="M448,-194L312,-161L477,-20Z" fill="#da6aa4" stroke="#da6aa4" stroke-width="1.51"/><path d="M312,-161L298,-33L477,-20Z" fill="#dc6fa7" stroke="#dc6fa7" stroke-width="1.51"/><path d="M383,820L293,829L481,1006Z" fill="#d3c0a6" stroke="#d3c0a6" stroke-width="1.51"/><path d="M293,829L239,1039L481,1006Z" fill="#c6b293" stroke="#c6b293" stroke-width="1.51"/><path d="M239,1039L388,1174L481,1006Z" fill="#b5a983" stroke="#b5a983" stroke-width="1.51"/><path d="M250,391L228,518L382,362Z" fill="#f0b6d3" stroke="#f0b6d3" stroke-width="1.51"/><path d="M298,-33L303,99L398,119Z" fill="#e387b8" stroke="#e387b8" stroke-width="1.51"/><path d="M382,362L228,518L414,578Z" fill="#f2c1da" stroke="#f2c1da" stroke-width="1.51"/><path d="M398,119L329,232L441,248Z" fill="#eda9d0" stroke="#eda9d0" stroke-width="1.51"/><path d="M329,232L382,362L441,248Z" fill="#f0b3d5" stroke="#f0b3d5" stroke-width="1.51"/><path d="M239,1039L238,1120L388,1174Z" fill="#ad9b78" stroke="#ad9b78" stroke-width="1.51"/><path d="M313,739L380,741L414,578Z" fill="#ebc8cd" stroke="#ebc8cd" stroke-width="1.51"/><path d="M388,1174L302,1256L407,1286Z" fill="#9d9374" stroke="#9d9374" stroke-width="1.51"/><path d="M228,518L313,739L414,578Z" fill="#edc2d1" stroke="#edc2d1" stroke-width="1.51"/><path d="M303,99L329,232L398,119Z" fill="#e999c5" stroke="#e999c5" stroke-width="1.51"/><path d="M380,741L313,739L383,820Z" fill="#e1c4bd" stroke="#e1c4bd" stroke-width="1.51"/><path d="M329,232L250,391L382,362Z" fill="#f0b1d3" stroke="#f0b1d3" stroke-width="1.51"/><path d="M313,739L293,829L383,820Z" fill="#ddbeb3" stroke="#ddbeb3" stroke-width="1.51"/><path d="M238,1120L302,1256L388,1174Z" fill="#a39573" stroke="#a39573" stroke-width="1.51"/><path d="M25,1324L-129,1342L123,1345Z" fill="#855a4f" stroke="#855a4f" stroke-width="1.51"/><path d="M97,564L79,717L228,518Z" fill="#e7a9c0" stroke="#e7a9c0" stroke-width="1.51"/><path d="M137,982L239,1039L293,829Z" fill="#c3a58a" stroke="#c3a58a" stroke-width="1.51"/><path d="M139,865L137,982L293,829Z" fill="#cca792" stroke="#cca792" stroke-width="1.51"/><path d="M298,-33L171,49L303,99Z" fill="#df78ae" stroke="#df78ae" stroke-width="1.51"/><path d="M138,-83L298,-33L312,-161Z" fill="#d5599a" stroke="#d5599a" stroke-width="1.51"/><path d="M228,518L79,717L313,739Z" fill="#e7b3c1" stroke="#e7b3c1" stroke-width="1.51"/><path d="M303,99L187,212L329,232Z" fill="#e896c3" stroke="#e896c3" stroke-width="1.51"/><path d="M187,212L250,391L329,232Z" fill="#eba1ca" stroke="#eba1ca" stroke-width="1.51"/><path d="M139,865L293,829L313,739Z" fill="#d9b3a9" stroke="#d9b3a9" stroke-width="1.51"/><path d="M79,717L139,865L313,739Z" fill="#dbacaa" stroke="#dbacaa" stroke-width="1.51"/><path d="M99,-172L138,-83L312,-161Z" fill="#cc458d" stroke="#cc458d" stroke-width="1.51"/><path d="M238,1120L98,1140L302,1256Z" fill="#a18b6c" stroke="#a18b6c" stroke-width="1.51"/><path d="M98,1140L123,1345L302,1256Z" fill="#967c63" stroke="#967c63" stroke-width="1.51"/><path d="M171,49L187,212L303,99Z" fill="#e283b6" stroke="#e283b6" stroke-width="1.51"/><path d="M187,212L115,337L250,391Z" fill="#eb9cc4" stroke="#eb9cc4" stroke-width="1.51"/><path d="M138,-83L171,49L298,-33Z" fill="#d862a0" stroke="#d862a0" stroke-width="1.51"/><path d="M115,337L228,518L250,391Z" fill="#eda9ca" stroke="#eda9ca" stroke-width="1.51"/><path d="M115,337L97,564L228,518Z" fill="#eba6c7" stroke="#eba6c7" stroke-width="1.51"/><path d="M98,1140L238,1120L239,1039Z" fill="#ab9071" stroke="#ab9071" stroke-width="1.51"/><path d="M137,982L98,1140L239,1039Z" fill="#b19272" stroke="#b19272" stroke-width="1.51"/><path d="M-19,430L97,564L115,337Z" fill="#e898bd" stroke="#e898bd" stroke-width="1.51"/><path d="M98,1140L25,1324L123,1345Z" fill="#906d59" stroke="#906d59" stroke-width="1.51"/><path d="M-71,89L30,251L171,49Z" fill="#da6aa4" stroke="#da6aa4" stroke-width="1.51"/><path d="M171,49L30,251L187,212Z" fill="#e17fb3" stroke="#e17fb3" stroke-width="1.51"/><path d="M30,251L115,337L187,212Z" fill="#e58bb9" stroke="#e58bb9" stroke-width="1.51"/><path d="M138,-83L-18,-108L171,49Z" fill="#d14b91" stroke="#d14b91" stroke-width="1.51"/><path d="M-18,-108L-71,89L171,49Z" fill="#d14c92" stroke="#d14c92" stroke-width="1.51"/><path d="M-18,1165L25,1324L98,1140Z" fill="#966f58" stroke="#966f58" stroke-width="1.51"/><path d="M-42,1010L98,1140L137,982Z" fill="#af876a" stroke="#af876a" stroke-width="1.51"/><path d="M99,-172L-18,-108L138,-83Z" fill="#c93084" stroke="#c93084" stroke-width="1.51"/><path d="M79,717L-46,800L139,865Z" fill="#d49a99" stroke="#d49a99" stroke-width="1.51"/><path d="M-42,1010L137,982L139,865Z" fill="#be917c" stroke="#be917c" stroke-width="1.51"/><path d="M-46,800L-42,1010L139,865Z" fill="#c58f81" stroke="#c58f81" stroke-width="1.51"/><path d="M-13,581L79,717L97,564Z" fill="#e39eb5" stroke="#e39eb5" stroke-width="1.51"/><path d="M-19,430L-13,581L97,564Z" fill="#e698ba" stroke="#e698ba" stroke-width="1.51"/><path d="M-42,1010L-18,1165L98,1140Z" fill="#a47960" stroke="#a47960" stroke-width="1.51"/><path d="M30,251L-19,430L115,337Z" fill="#e68bb6" stroke="#e68bb6" stroke-width="1.51"/><path d="M-13,581L-67,653L79,717Z" fill="#e096ac" stroke="#e096ac" stroke-width="1.51"/><path d="M-19,-185L-18,-108L99,-172Z" fill="#c0207a" stroke="#c0207a" stroke-width="1.51"/><path d="M-67,653L-46,800L79,717Z" fill="#d995a1" stroke="#d995a1" stroke-width="1.51"/><path d="M-46,800L-184,874L-42,1010Z" fill="#ba8776" stroke="#ba8776" stroke-width="1.51"/><path d="M-18,1165L-139,1193L25,1324Z" fill="#8e6650" stroke="#8e6650" stroke-width="1.51"/><path d="M-139,1193L-129,1342L25,1324Z" fill="#825c4a" stroke="#825c4a" stroke-width="1.51"/><path d="M-71,89L-178,192L30,251Z" fill="#d3699f" stroke="#d3699f" stroke-width="1.51"/><path d="M-178,192L-116,360L30,251Z" fill="#d677a5" stroke="#d677a5" stroke-width="1.51"/><path d="M-116,360L-19,430L30,251Z" fill="#e084af" stroke="#e084af" stroke-width="1.51"/><path d="M-184,874L-165,1007L-42,1010Z" fill="#aa7f66" stroke="#aa7f66" stroke-width="1.51"/><path d="M-165,1007L-139,1193L-42,1010Z" fill="#9b7557" stroke="#9b7557" stroke-width="1.51"/><path d="M-116,360L-212,531L-19,430Z" fill="#d888aa" stroke="#d888aa" stroke-width="1.51"/><path d="M-198,-58L-71,89L-18,-108Z" fill="#c23a82" stroke="#c23a82" stroke-width="1.51"/><path d="M-19,-185L-197,-202L-18,-108Z" fill="#b41470" stroke="#b41470" stroke-width="1.51"/><path d="M-42,1010L-139,1193L-18,1165Z" fill="#997156" stroke="#997156" stroke-width="1.51"/><path d="M-170,646L-67,653L-13,581Z" fill="#d791a7" stroke="#d791a7" stroke-width="1.51"/><path d="M-212,531L-170,646L-13,581Z" fill="#d28ea6" stroke="#d28ea6" stroke-width="1.51"/><path d="M-19,430L-212,531L-13,581Z" fill="#db8fb0" stroke="#db8fb0" stroke-width="1.51"/><path d="M-197,-202L-198,-58L-18,-108Z" fill="#b41470" stroke="#b41470" stroke-width="1.51"/><path d="M-67,653L-170,646L-46,800Z" fill="#d2919d" stroke="#d2919d" stroke-width="1.51"/><path d="M-170,646L-184,874L-46,800Z" fill="#c48c8b" stroke="#c48c8b" stroke-width="1.51"/><path d="M-204,137L-178,192L-71,89Z" fill="#c75e93" stroke="#c75e93" stroke-width="1.51"/><path d="M-198,-58L-204,137L-71,89Z" fill="#c14c87" stroke="#c14c87" stroke-width="1.51"/><path d="M-165,1007L-184,874L-129,1342Z" fill="#967252" stroke="#967252" stroke-width="1.51"/><path d="M-178,192L-212,531L-116,360Z" fill="#d17ea3" stroke="#d17ea3" stroke-width="1.51"/><path d="M-139,1193L-165,1007L-129,1342Z" fill="#89664a" stroke="#89664a" stroke-width="1.51"/><path d="M-204,137L-212,531L-178,192Z" fill="#ca749c" stroke="#ca749c" stroke-width="1.51"/><path d="M-212,531L-184,874L-170,646Z" fill="#c78b96" stroke="#c78b96" stroke-width="1.51"/><path d="M-204,137L-198,-58L-197,-202Z" fill="#b43176" stroke="#b43176" stroke-width="1.51"/></svg>