<svg xmlns="http://www.w3.org/2000/svg" width="1920" height="1080"><path d="M-197,-202L-19,-185L448,-194Z" fill="#fff8c7" stroke="#fff8c7" stroke-width="1.51"/><path d="M-197,-202L448,-194L837,-244Z" fill="#ffefb4" stroke="#ffefb4" stroke-width="1.51"/><path d="M897,1322L123,1345L1016,1332Z" fill="#b57228" stroke="#b57228" stroke-width="1.51"/><path d="M837,-244L1155,-230L1369,-265Z" fill="#ffc080" stroke="#ffc080" stroke-width="1.51"/><path d="M1016,1332L123,1345L1668,1345Z" fill="#b36018" stroke="#b36018" stroke-width="1.51"/><path d="M1451,1329L1016,1332L1668,1345Z" fill="#a4430a" stroke="#a4430a" stroke-width="1.51"/><path d="M1654,-192L1821,-173L1911,-185Z" fill="#da9a69" stroke="#da9a69" stroke-width="1.51"/><path d="M1654,-192L1911,-185L2060,-232Z" fill="#d29669" stroke="#d29669" stroke-width="1.51"/><path d="M1516,-223L1654,-192L2060,-232Z" fill="#df9d6d" stroke="#df9d6d" stroke-width="1.51"/><path d="M1369,-265L1516,-223L2060,-232Z" fill="#e8a270" stroke="#e8a270" stroke-width="1.51"/><path d="M1966,836L2063,873L2076,642Z" fill="#af4a0b" stroke="#af4a0b" stroke-width="1.51"/><path d="M1952,652L1966,836L2076,642Z" fill="#b7510e" stroke="#b7510e" stroke-width="1.51"/><path d="M2070,987L1968,1181L2098,1144Z" fill="#8f3205" stroke="#8f3205" stroke-width="1.51"/><path d="M2076,642L2063,873L2098,1144Z" fill="#a34008" stroke="#a34008" stroke-width="1.51"/><path d="M2063,873L2070,987L2098,1144Z" fill="#993706" stroke="#993706" stroke-width="1.51"/><path d="M2047,56L1886,188L2100,282Z" fill="#c08241" stroke="#c08241" stroke-width="1.51"/><path d="M2079,-104L2047,56L2100,282Z" fill="#bb864d" stroke="#bb864d" stroke-width="1.51"/><path d="M2100,282L1956,361L2118,381Z" fill="#ba7428" stroke="#ba7428" stroke-width="1.51"/><path d="M1956,361L2053,487L2118,381Z" fill="#bb6e22" stroke="#bb6e22" stroke-width="1.51"/><path d="M2053,487L2076,642L2118,381Z" fill="#b6631a" stroke="#b6631a" stroke-width="1.51"/><path d="M2076,642L2098,1144L2118,381Z" fill="#ad4d0e" stroke="#ad4d0e" stroke-width="1.51"/><path d="M2079,-104L2100,282L2118,381Z" fill="#b87e3f" stroke="#b87e3f" stroke-width="1.51"/><path d="M2098,1144L1968,1181L2118,1295Z" fill="#812d06" stroke="#812d06" stroke-width="1.51"/><path d="M1968,1181L1940,1323L2118,1295Z" fill="#7e2d06" stroke="#7e2d06" stroke-width="1.51"/><path d="M2118,381L2098,1144L2118,1295Z" fill="#9d3a06" stroke="#9d3a06" stroke-width="1.51"/><path d="M1907,1007L1968,1181L2070,987Z" fill="#9a3705" stroke="#9a3705" stroke-width="1.51"/><path d="M2053,487L1915,557L2076,642Z" fill="#bb5f15" stroke="#bb5f15" stroke-width="1.51"/><path d="M1915,557L1952,652L2076,642Z" fill="#bc5b13" stroke="#bc5b13" stroke-width="1.51"/><path d="M1909,-80L2047,56L2079,-104Z" fill="#c38d59" stroke="#c38d59" stroke-width="1.51"/><path d="M1886,188L1956,361L2100,282Z" fill="#c27c32" stroke="#c27c32" stroke-width="1.51"/><path d="M1909,-80L1935,50L2047,56Z" fill="#c78d55" stroke="#c78d55" stroke-width="1.51"/><path d="M1935,50L1886,188L2047,56Z" fill="#c6894b" stroke="#c6894b" stroke-width="1.51"/><path d="M2063,873L1966,836L2070,987Z" fill="#a64007" stroke="#a64007" stroke-width="1.51"/><path d="M1966,836L1907,1007L2070,987Z" fill="#a83e05" stroke="#a83e05" stroke-width="1.51"/><path d="M2060,-232L1911,-185L2079,-104Z" fill="#c49165" stroke="#c49165" stroke-width="1.51"/><path d="M1911,-185L1909,-80L2079,-104Z" fill="#c89261" stroke="#c89261" stroke-width="1.51"/><path d="M1956,361L1915,557L2053,487Z" fill="#c16a1d" stroke="#c16a1d" stroke-width="1.51"/><path d="M695,1288L123,1345L897,1322Z" fill="#b77832" stroke="#b77832" stroke-width="1.51"/><path d="M1830,1272L1668,1345L1940,1323Z" fill="#893006" stroke="#893006" stroke-width="1.51"/><path d="M1752,659L1839,888L1952,652Z" fill="#c3540b" stroke="#c3540b" stroke-width="1.51"/><path d="M1886,188L1729,274L1956,361Z" fill="#cd8133" stroke="#cd8133" stroke-width="1.51"/><path d="M1794,422L1915,557L1956,361Z" fill="#c9701e" stroke="#c9701e" stroke-width="1.51"/><path d="M1952,652L1839,888L1966,836Z" fill="#b94c0a" stroke="#b94c0a" stroke-width="1.51"/><path d="M1839,888L1907,1007L1966,836Z" fill="#b14305" stroke="#b14305" stroke-width="1.51"/><path d="M1907,1007L1835,1137L1968,1181Z" fill="#9b3605" stroke="#9b3605" stroke-width="1.51"/><path d="M1830,1272L1940,1323L1968,1181Z" fill="#882f06" stroke="#882f06" stroke-width="1.51"/><path d="M1835,1137L1830,1272L1968,1181Z" fill="#923205" stroke="#923205" stroke-width="1.51"/><path d="M1729,274L1794,422L1956,361Z" fill="#cf7c27" stroke="#cf7c27" stroke-width="1.51"/><path d="M1915,557L1752,659L1952,652Z" fill="#c65e11" stroke="#c65e11" stroke-width="1.51"/><path d="M1794,422L1776,529L1915,557Z" fill="#ce6c19" stroke="#ce6c19" stroke-width="1.51"/><path d="M1746,43L1886,188L1935,50Z" fill="#d08d4d" stroke="#d08d4d" stroke-width="1.51"/><path d="M1909,-80L1772,-42L1935,50Z" fill="#d09258" stroke="#d09258" stroke-width="1.51"/><path d="M1821,-173L1909,-80L1911,-185Z" fill="#d19564" stroke="#d19564" stroke-width="1.51"/><path d="M1772,-42L1746,43L1935,50Z" fill="#d59255" stroke="#d59255" stroke-width="1.51"/><path d="M1839,888L1762,989L1907,1007Z" fill="#b34003" stroke="#b34003" stroke-width="1.51"/><path d="M1762,989L1835,1137L1907,1007Z" fill="#a93b04" stroke="#a93b04" stroke-width="1.51"/><path d="M1776,529L1752,659L1915,557Z" fill="#cd6414" stroke="#cd6414" stroke-width="1.51"/><path d="M1821,-173L1772,-42L1909,-80Z" fill="#d59660" stroke="#d59660" stroke-width="1.51"/><path d="M407,1286L123,1345L695,1288Z" fill="#ba8143" stroke="#ba8143" stroke-width="1.51"/><path d="M1746,43L1729,274L1886,188Z" fill="#d58c44" stroke="#d58c44" stroke-width="1.51"/><path d="M1664,231L1729,274L1746,43Z" fill="#dc8e43" stroke="#dc8e43" stroke-width="1.51"/><path d="M1582,1190L1668,1345L1830,1272Z" fill="#993605" stroke="#993605" stroke-width="1.51"/><path d="M1582,1190L1830,1272L1835,1137Z" fill="#9d3705" stroke="#9d3705" stroke-width="1.51"/><path d="M1591,892L1762,989L1839,888Z" fill="#c04703" stroke="#c04703" stroke-width="1.51"/><path d="M1752,659L1591,892L1839,888Z" fill="#c85108" stroke="#c85108" stroke-width="1.51"/><path d="M1762,989L1582,1190L1835,1137Z" fill="#aa3c04" stroke="#aa3c04" stroke-width="1.51"/><path d="M1654,-192L1772,-42L1821,-173Z" fill="#dd9b65" stroke="#dd9b65" stroke-width="1.51"/><path d="M1729,274L1687,411L1794,422Z" fill="#d77e26" stroke="#d77e26" stroke-width="1.51"/><path d="M1601,655L1591,892L1752,659Z" fill="#d55c0b" stroke="#d55c0b" stroke-width="1.51"/><path d="M1591,892L1601,952L1762,989Z" fill="#c44903" stroke="#c44903" stroke-width="1.51"/><path d="M1654,-192L1633,-69L1772,-42Z" fill="#e29e62" stroke="#e29e62" stroke-width="1.51"/><path d="M1687,411L1776,529L1794,422Z" fill="#d5741e" stroke="#d5741e" stroke-width="1.51"/><path d="M1593,44L1664,231L1746,43Z" fill="#e0954e" stroke="#e0954e" stroke-width="1.51"/><path d="M1601,952L1582,1190L1762,989Z" fill="#b94303" stroke="#b94303" stroke-width="1.51"/><path d="M1613,535L1752,659L1776,529Z" fill="#d66914" stroke="#d66914" stroke-width="1.51"/><path d="M1687,411L1613,535L1776,529Z" fill="#da731b" stroke="#da731b" stroke-width="1.51"/><path d="M1633,-69L1746,43L1772,-42Z" fill="#de995a" stroke="#de995a" stroke-width="1.51"/><path d="M1613,535L1601,655L1752,659Z" fill="#da6712" stroke="#da6712" stroke-width="1.51"/><path d="M1633,-69L1593,44L1746,43Z" fill="#e39b58" stroke="#e39b58" stroke-width="1.51"/><path d="M1506,788L1591,892L1601,655Z" fill="#d95b09" stroke="#d95b09" stroke-width="1.51"/><path d="M1664,231L1687,411L1729,274Z" fill="#db862f" stroke="#db862f" stroke-width="1.51"/><path d="M1226,1277L1016,1332L1451,1329Z" fill="#af4d0e" stroke="#af4d0e" stroke-width="1.51"/><path d="M1482,1158L1582,1190L1601,952Z" fill="#ba4403" stroke="#ba4403" stroke-width="1.51"/><path d="M1593,44L1494,184L1664,231Z" fill="#e89649" stroke="#e89649" stroke-width="1.51"/><path d="M1664,231L1528,399L1687,411Z" fill="#e18529" stroke="#e18529" stroke-width="1.51"/><path d="M1528,399L1613,535L1687,411Z" fill="#e27b1f" stroke="#e27b1f" stroke-width="1.51"/><path d="M1494,184L1528,399L1664,231Z" fill="#e88e36" stroke="#e88e36" stroke-width="1.51"/><path d="M1582,1190L1451,1329L1668,1345Z" fill="#a13b05" stroke="#a13b05" stroke-width="1.51"/><path d="M1516,-223L1633,-69L1654,-192Z" fill="#eba369" stroke="#eba369" stroke-width="1.51"/><path d="M1468,951L1482,1158L1601,952Z" fill="#c64a03" stroke="#c64a03" stroke-width="1.51"/><path d="M1500,636L1601,655L1613,535Z" fill="#e16c12" stroke="#e16c12" stroke-width="1.51"/><path d="M1458,-12L1593,44L1633,-69Z" fill="#eda05b" stroke="#eda05b" stroke-width="1.51"/><path d="M1516,-223L1458,-12L1633,-69Z" fill="#efa565" stroke="#efa565" stroke-width="1.51"/><path d="M1458,-12L1482,42L1593,44Z" fill="#eea159" stroke="#eea159" stroke-width="1.51"/><path d="M1482,42L1494,184L1593,44Z" fill="#ed9e52" stroke="#ed9e52" stroke-width="1.51"/><path d="M1500,636L1506,788L1601,655Z" fill="#e0650f" stroke="#e0650f" stroke-width="1.51"/><path d="M1528,399L1464,551L1613,535Z" fill="#e77a1c" stroke="#e77a1c" stroke-width="1.51"/><path d="M1464,551L1500,636L1613,535Z" fill="#e67216" stroke="#e67216" stroke-width="1.51"/><path d="M1482,1158L1451,1329L1582,1190Z" fill="#ac4105" stroke="#ac4105" stroke-width="1.51"/><path d="M1591,892L1468,951L1601,952Z" fill="#ce4f02" stroke="#ce4f02" stroke-width="1.51"/><path d="M1494,184L1381,271L1528,399Z" fill="#ed9336" stroke="#ed9336" stroke-width="1.51"/><path d="M1506,788L1468,951L1591,892Z" fill="#d45506" stroke="#d45506" stroke-width="1.51"/><path d="M-19,-185L99,-172L448,-194Z" fill="#fff5be" stroke="#fff5be" stroke-width="1.51"/><path d="M1468,951L1318,994L1482,1158Z" fill="#c94f06" stroke="#c94f06" stroke-width="1.51"/><path d="M1500,636L1348,716L1506,788Z" fill="#e46810" stroke="#e46810" stroke-width="1.51"/><path d="M1350,786L1468,951L1506,788Z" fill="#db5d09" stroke="#db5d09" stroke-width="1.51"/><path d="M1352,-26L1458,-12L1516,-223Z" fill="#f4aa67" stroke="#f4aa67" stroke-width="1.51"/><path d="M1369,-265L1352,-26L1516,-223Z" fill="#f6ae6f" stroke="#f6ae6f" stroke-width="1.51"/><path d="M1349,444L1464,551L1528,399Z" fill="#ec8221" stroke="#ec8221" stroke-width="1.51"/><path d="M1381,271L1349,444L1528,399Z" fill="#ee8e2b" stroke="#ee8e2b" stroke-width="1.51"/><path d="M1345,1166L1451,1329L1482,1158Z" fill="#b14607" stroke="#b14607" stroke-width="1.51"/><path d="M1318,994L1345,1166L1482,1158Z" fill="#c24e07" stroke="#c24e07" stroke-width="1.51"/><path d="M1482,42L1353,63L1494,184Z" fill="#f0a154" stroke="#f0a154" stroke-width="1.51"/><path d="M1348,716L1350,786L1506,788Z" fill="#e3660f" stroke="#e3660f" stroke-width="1.51"/><path d="M1280,1263L1226,1277L1451,1329Z" fill="#ad490b" stroke="#ad490b" stroke-width="1.51"/><path d="M1464,551L1318,591L1500,636Z" fill="#ea7617" stroke="#ea7617" stroke-width="1.51"/><path d="M1318,591L1348,716L1500,636Z" fill="#ea7315" stroke="#ea7315" stroke-width="1.51"/><path d="M1353,63L1381,271L1494,184Z" fill="#f19e4a" stroke="#f19e4a" stroke-width="1.51"/><path d="M1350,786L1318,994L1468,951Z" fill="#d95b09" stroke="#d95b09" stroke-width="1.51"/><path d="M1458,-12L1353,63L1482,42Z" fill="#f2a55b" stroke="#f2a55b" stroke-width="1.51"/><path d="M1345,1166L1280,1263L1451,1329Z" fill="#b0480a" stroke="#b0480a" stroke-width="1.51"/><path d="M1352,-26L1353,63L1458,-12Z" fill="#f5a95e" stroke="#f5a95e" stroke-width="1.51"/><path d="M1349,444L1318,591L1464,551Z" fill="#ef7f1d" stroke="#ef7f1d" stroke-width="1.51"/><path d="M1225,484L1318,591L1349,444Z" fill="#f38621" stroke="#f38621" stroke-width="1.51"/><path d="M1195,855L1318,994L1350,786Z" fill="#e0630d" stroke="#e0630d" stroke-width="1.51"/><path d="M1232,55L1181,203L1353,63Z" fill="#faac58" stroke="#faac58" stroke-width="1.51"/><path d="M1218,-68L1352,-26L1369,-265Z" fill="#fab26e" stroke="#fab26e" stroke-width="1.51"/><path d="M1155,-230L1218,-68L1369,-265Z" fill="#ffb776" stroke="#ffb776" stroke-width="1.51"/><path d="M1198,387L1349,444L1381,271Z" fill="#f4952e" stroke="#f4952e" stroke-width="1.51"/><path d="M1181,203L1198,387L1381,271Z" fill="#f79f3b" stroke="#f79f3b" stroke-width="1.51"/><path d="M1353,63L1181,203L1381,271Z" fill="#f6a44c" stroke="#f6a44c" stroke-width="1.51"/><path d="M448,-194L636,-194L837,-244Z" fill="#ffe196" stroke="#ffe196" stroke-width="1.51"/><path d="M1318,994L1164,1195L1345,1166Z" fill="#c6530b" stroke="#c6530b" stroke-width="1.51"/><path d="M1318,591L1131,648L1348,716Z" fill="#f07919" stroke="#f07919" stroke-width="1.51"/><path d="M1198,387L1225,484L1349,444Z" fill="#f69029" stroke="#f69029" stroke-width="1.51"/><path d="M1348,716L1195,855L1350,786Z" fill="#e76b11" stroke="#e76b11" stroke-width="1.51"/><path d="M1218,-68L1232,55L1352,-26Z" fill="#fbb164" stroke="#fbb164" stroke-width="1.51"/><path d="M1352,-26L1232,55L1353,63Z" fill="#f8ac5e" stroke="#f8ac5e" stroke-width="1.51"/><path d="M1131,648L1195,855L1348,716Z" fill="#ee7316" stroke="#ee7316" stroke-width="1.51"/><path d="M1164,1195L1280,1263L1345,1166Z" fill="#bb4f0c" stroke="#bb4f0c" stroke-width="1.51"/><path d="M1091,1026L1164,1195L1318,994Z" fill="#cf5c0d" stroke="#cf5c0d" stroke-width="1.51"/><path d="M1129,971L1091,1026L1318,994Z" fill="#d9610e" stroke="#d9610e" stroke-width="1.51"/><path d="M1195,855L1129,971L1318,994Z" fill="#df620d" stroke="#df620d" stroke-width="1.51"/><path d="M1225,484L1131,648L1318,591Z" fill="#f5841f" stroke="#f5841f" stroke-width="1.51"/><path d="M1164,1195L1226,1277L1280,1263Z" fill="#b7510e" stroke="#b7510e" stroke-width="1.51"/><path d="M1131,648L1037,723L1195,855Z" fill="#f17a19" stroke="#f17a19" stroke-width="1.51"/><path d="M1181,203L1051,256L1198,387Z" fill="#fba740" stroke="#fba740" stroke-width="1.51"/><path d="M1155,-230L1035,-58L1218,-68Z" fill="#ffbd73" stroke="#ffbd73" stroke-width="1.51"/><path d="M1026,484L1131,648L1225,484Z" fill="#f98e23" stroke="#f98e23" stroke-width="1.51"/><path d="M1001,54L1181,203L1232,55Z" fill="#fdb45c" stroke="#fdb45c" stroke-width="1.51"/><path d="M1218,-68L1035,-58L1232,55Z" fill="#feb969" stroke="#feb969" stroke-width="1.51"/><path d="M1035,-58L1001,54L1232,55Z" fill="#ffbb67" stroke="#ffbb67" stroke-width="1.51"/><path d="M1017,-159L1035,-58L1155,-230Z" fill="#ffc279" stroke="#ffc279" stroke-width="1.51"/><path d="M1198,387L1053,411L1225,484Z" fill="#f9982d" stroke="#f9982d" stroke-width="1.51"/><path d="M1164,1195L1016,1332L1226,1277Z" fill="#b75511" stroke="#b75511" stroke-width="1.51"/><path d="M1053,411L1026,484L1225,484Z" fill="#fb982c" stroke="#fb982c" stroke-width="1.51"/><path d="M837,-244L1017,-159L1155,-230Z" fill="#ffc881" stroke="#ffc881" stroke-width="1.51"/><path d="M1091,1026L1048,1187L1164,1195Z" fill="#c95e11" stroke="#c95e11" stroke-width="1.51"/><path d="M1048,1187L1016,1332L1164,1195Z" fill="#bd5b13" stroke="#bd5b13" stroke-width="1.51"/><path d="M1001,54L1051,256L1181,203Z" fill="#feb355" stroke="#feb355" stroke-width="1.51"/><path d="M1037,723L1013,808L1195,855Z" fill="#ee7919" stroke="#ee7919" stroke-width="1.51"/><path d="M1051,256L1053,411L1198,387Z" fill="#fba336" stroke="#fba336" stroke-width="1.51"/><path d="M1013,808L1129,971L1195,855Z" fill="#e76f14" stroke="#e76f14" stroke-width="1.51"/><path d="M1026,484L897,570L1037,723Z" fill="#fb9226" stroke="#fb9226" stroke-width="1.51"/><path d="M1013,808L1091,1026L1129,971Z" fill="#e36d12" stroke="#e36d12" stroke-width="1.51"/><path d="M1026,484L1037,723L1131,648Z" fill="#f78a22" stroke="#f78a22" stroke-width="1.51"/><path d="M894,1013L871,1116L1048,1187Z" fill="#d26b17" stroke="#d26b17" stroke-width="1.51"/><path d="M1051,256L930,278L1053,411Z" fill="#fdad3e" stroke="#fdad3e" stroke-width="1.51"/><path d="M894,1013L1048,1187L1091,1026Z" fill="#d46814" stroke="#d46814" stroke-width="1.51"/><path d="M1013,808L894,1013L1091,1026Z" fill="#e57115" stroke="#e57115" stroke-width="1.51"/><path d="M840,92L930,278L1001,54Z" fill="#ffc05f" stroke="#ffc05f" stroke-width="1.51"/><path d="M897,570L842,656L1037,723Z" fill="#fa9126" stroke="#fa9126" stroke-width="1.51"/><path d="M897,1322L1016,1332L1048,1187Z" fill="#b95f15" stroke="#b95f15" stroke-width="1.51"/><path d="M1001,54L930,278L1051,256Z" fill="#ffb753" stroke="#ffb753" stroke-width="1.51"/><path d="M868,423L1026,484L1053,411Z" fill="#fea232" stroke="#fea232" stroke-width="1.51"/><path d="M930,278L868,423L1053,411Z" fill="#feab39" stroke="#feab39" stroke-width="1.51"/><path d="M830,821L894,1013L1013,808Z" fill="#eb7d1d" stroke="#eb7d1d" stroke-width="1.51"/><path d="M871,1116L897,1322L1048,1187Z" fill="#c46517" stroke="#c46517" stroke-width="1.51"/><path d="M1017,-159L864,-7L1035,-58Z" fill="#ffc774" stroke="#ffc774" stroke-width="1.51"/><path d="M864,-7L1001,54L1035,-58Z" fill="#ffc46d" stroke="#ffc46d" stroke-width="1.51"/><path d="M842,656L1013,808L1037,723Z" fill="#f68620" stroke="#f68620" stroke-width="1.51"/><path d="M842,656L830,821L1013,808Z" fill="#f48923" stroke="#f48923" stroke-width="1.51"/><path d="M868,423L897,570L1026,484Z" fill="#fea030" stroke="#fea030" stroke-width="1.51"/><path d="M785,-194L864,-7L1017,-159Z" fill="#ffce7e" stroke="#ffce7e" stroke-width="1.51"/><path d="M837,-244L785,-194L1017,-159Z" fill="#ffd086" stroke="#ffd086" stroke-width="1.51"/><path d="M864,-7L840,92L1001,54Z" fill="#ffc76c" stroke="#ffc76c" stroke-width="1.51"/><path d="M561,1261L407,1286L695,1288Z" fill="#bd7b34" stroke="#bd7b34" stroke-width="1.51"/><path d="M830,821L749,990L894,1013Z" fill="#e77f21" stroke="#e77f21" stroke-width="1.51"/><path d="M871,1116L768,1152L897,1322Z" fill="#c66d1d" stroke="#c66d1d" stroke-width="1.51"/><path d="M840,92L735,235L930,278Z" fill="#ffc25b" stroke="#ffc25b" stroke-width="1.51"/><path d="M735,235L785,349L930,278Z" fill="#ffbd4e" stroke="#ffbd4e" stroke-width="1.51"/><path d="M785,349L868,423L930,278Z" fill="#ffb441" stroke="#ffb441" stroke-width="1.51"/><path d="M749,990L871,1116L894,1013Z" fill="#db771e" stroke="#db771e" stroke-width="1.51"/><path d="M768,1152L695,1288L897,1322Z" fill="#bf6e21" stroke="#bf6e21" stroke-width="1.51"/><path d="M868,423L717,544L897,570Z" fill="#ffa634" stroke="#ffa634" stroke-width="1.51"/><path d="M717,544L842,656L897,570Z" fill="#fd9f30" stroke="#fd9f30" stroke-width="1.51"/><path d="M785,-194L679,-55L864,-7Z" fill="#ffd581" stroke="#ffd581" stroke-width="1.51"/><path d="M714,714L830,821L842,656Z" fill="#f7932b" stroke="#f7932b" stroke-width="1.51"/><path d="M743,59L840,92L864,-7Z" fill="#ffcd71" stroke="#ffcd71" stroke-width="1.51"/><path d="M785,349L717,544L868,423Z" fill="#ffb03e" stroke="#ffb03e" stroke-width="1.51"/><path d="M749,990L768,1152L871,1116Z" fill="#d57721" stroke="#d57721" stroke-width="1.51"/><path d="M679,-55L743,59L864,-7Z" fill="#ffd279" stroke="#ffd279" stroke-width="1.51"/><path d="M99,-172L312,-161L448,-194Z" fill="#fff1b6" stroke="#fff1b6" stroke-width="1.51"/><path d="M699,821L749,990L830,821Z" fill="#ed8927" stroke="#ed8927" stroke-width="1.51"/><path d="M714,714L699,821L830,821Z" fill="#f4912c" stroke="#f4912c" stroke-width="1.51"/><path d="M636,-194L785,-194L837,-244Z" fill="#ffd98f" stroke="#ffd98f" stroke-width="1.51"/><path d="M743,59L735,235L840,92Z" fill="#ffcc6a" stroke="#ffcc6a" stroke-width="1.51"/><path d="M717,544L714,714L842,656Z" fill="#fb9e32" stroke="#fb9e32" stroke-width="1.51"/><path d="M636,-194L630,-93L679,-55Z" fill="#ffde8c" stroke="#ffde8c" stroke-width="1.51"/><path d="M634,240L735,235L743,59Z" fill="#ffcc66" stroke="#ffcc66" stroke-width="1.51"/><path d="M749,990L627,1137L768,1152Z" fill="#d47d26" stroke="#d47d26" stroke-width="1.51"/><path d="M584,392L717,544L785,349Z" fill="#ffb845" stroke="#ffb845" stroke-width="1.51"/><path d="M735,235L634,240L785,349Z" fill="#ffc556" stroke="#ffc556" stroke-width="1.51"/><path d="M634,240L584,392L785,349Z" fill="#fec450" stroke="#fec450" stroke-width="1.51"/><path d="M636,-194L679,-55L785,-194Z" fill="#ffdc8b" stroke="#ffdc8b" stroke-width="1.51"/><path d="M562,129L634,240L743,59Z" fill="#ffd370" stroke="#ffd370" stroke-width="1.51"/><path d="M627,1137L695,1288L768,1152Z" fill="#c77827" stroke="#c77827" stroke-width="1.51"/><path d="M576,560L714,714L717,544Z" fill="#fca839" stroke="#fca839" stroke-width="1.51"/><path d="M699,821L551,994L749,990Z" fill="#e88b2b" stroke="#e88b2b" stroke-width="1.51"/><path d="M551,994L627,1137L749,990Z" fill="#dc852c" stroke="#dc852c" stroke-width="1.51"/><path d="M679,-55L562,129L743,59Z" fill="#ffd77a" stroke="#ffd77a" stroke-width="1.51"/><path d="M576,560L575,730L714,714Z" fill="#faa53b" stroke="#faa53b" stroke-width="1.51"/><path d="M584,392L576,560L717,544Z" fill="#ffb544" stroke="#ffb544" stroke-width="1.51"/><path d="M627,1137L561,1261L695,1288Z" fill="#c37a2d" stroke="#c37a2d" stroke-width="1.51"/><path d="M585,791L551,994L699,821Z" fill="#ee9334" stroke="#ee9334" stroke-width="1.51"/><path d="M585,791L699,821L714,714Z" fill="#f49831" stroke="#f49831" stroke-width="1.51"/><path d="M575,730L585,791L714,714Z" fill="#f79d37" stroke="#f79d37" stroke-width="1.51"/><path d="M630,-93L477,-20L679,-55Z" fill="#ffe08b" stroke="#ffe08b" stroke-width="1.51"/><path d="M477,-20L562,129L679,-55Z" fill="#ffdd86" stroke="#ffdd86" stroke-width="1.51"/><path d="M441,248L584,392L634,240Z" fill="#ffcc62" stroke="#ffcc62" stroke-width="1.51"/><path d="M448,-194L630,-93L636,-194Z" fill="#ffe398" stroke="#ffe398" stroke-width="1.51"/><path d="M551,994L481,1006L627,1137Z" fill="#dc8936" stroke="#dc8936" stroke-width="1.51"/><path d="M562,129L441,248L634,240Z" fill="#ffd371" stroke="#ffd371" stroke-width="1.51"/><path d="M448,-194L477,-20L630,-93Z" fill="#ffe598" stroke="#ffe598" stroke-width="1.51"/><path d="M388,1174L561,1261L627,1137Z" fill="#c98238" stroke="#c98238" stroke-width="1.51"/><path d="M481,1006L388,1174L627,1137Z" fill="#d5883c" stroke="#d5883c" stroke-width="1.51"/><path d="M414,578L380,741L575,730Z" fill="#fbac4e" stroke="#fbac4e" stroke-width="1.51"/><path d="M380,741L383,820L575,730Z" fill="#f7a54b" stroke="#f7a54b" stroke-width="1.51"/><path d="M414,578L575,730L576,560Z" fill="#fdae49" stroke="#fdae49" stroke-width="1.51"/><path d="M441,248L382,362L584,392Z" fill="#ffce65" stroke="#ffce65" stroke-width="1.51"/><path d="M414,578L576,560L584,392Z" fill="#ffb950" stroke="#ffb950" stroke-width="1.51"/><path d="M382,362L414,578L584,392Z" fill="#ffc35d" stroke="#ffc35d" stroke-width="1.51"/><path d="M481,1006L551,994L585,791Z" fill="#ea923a" stroke="#ea923a" stroke-width="1.51"/><path d="M383,820L481,1006L585,791Z" fill="#ef9943" stroke="#ef9943" stroke-width="1.51"/><path d="M575,730L383,820L585,791Z" fill="#f6a043" stroke="#f6a043" stroke-width="1.51"/><path d="M477,-20L398,119L562,129Z" fill="#ffdf8a" stroke="#ffdf8a" stroke-width="1.51"/><path d="M388,1174L407,1286L561,1261Z" fill="#c3823f" stroke="#c3823f" stroke-width="1.51"/><path d="M398,119L441,248L562,129Z" fill="#ffda80" stroke="#ffda80" stroke-width="1.51"/><path d="M302,1256L123,1345L407,1286Z" fill="#bd864e" stroke="#bd864e" stroke-width="1.51"/><path d="M298,-33L398,119L477,-20Z" fill="#ffe699" stroke="#ffe699" stroke-width="1.51"/><path d="M448,-194L312,-161L477,-20Z" fill="#ffeba6" stroke="#ffeba6" stroke-width="1.51"/><path d="M312,-161L298,-33L477,-20Z" fill="#ffeca6" stroke="#ffeca6" stroke-width="1.51"/><path d="M383,820L293,829L481,1006Z" fill="#ef9e4d" stroke="#ef9e4d" stroke-width="1.51"/><path d="M293,829L239,1039L481,1006Z" fill="#ea994e" stroke="#ea994e" stroke-width="1.51"/><path d="M239,1039L388,1174L481,1006Z" fill="#da914a" stroke="#da914a" stroke-width="1.51"/><path d="M250,391L228,518L382,362Z" fill="#ffcd6f" stroke="#ffcd6f" stroke-width="1.51"/><path d="M298,-33L303,99L398,119Z" fill="#ffe79a" stroke="#ffe79a" stroke-width="1.51"/><path d="M382,362L228,518L414,578Z" fill="#ffc565" stroke="#ffc565" stroke-width="1.51"/><path d="M398,119L329,232L441,248Z" fill="#ffdc83" stroke="#ffdc83" stroke-width="1.51"/><path d="M329,232L382,362L441,248Z" fill="#ffd677" stroke="#ffd677" stroke-width="1.51"/><path d="M239,1039L238,1120L388,1174Z" fill="#d7914f" stroke="#d7914f" stroke-width="1.51"/><path d="M313,739L380,741L414,578Z" fill="#fbb057" stroke="#fbb057" stroke-width="1.51"/><path d="M388,1174L302,1256L407,1286Z" fill="#c48748" stroke="#c48748" stroke-width="1.51"/><path d="M228,518L313,739L414,578Z" fill="#ffb95f" stroke="#ffb95f" stroke-width="1.51"/><path d="M303,99L329,232L398,119Z" fill="#fee28f" stroke="#fee28f" stroke-width="1.51"/><path d="M380,741L313,739L383,820Z" fill="#f8a955" stroke="#f8a955" stroke-width="1.51"/><path d="M329,232L250,391L382,362Z" fill="#ffd575" stroke="#ffd575" stroke-width="1.51"/><path d="M313,739L293,829L383,820Z" fill="#f6a756" stroke="#f6a756" stroke-width="1.51"/><path d="M238,1120L302,1256L388,1174Z" fill="#cc8b4d" stroke="#cc8b4d" stroke-width="1.51"/><path d="M25,1324L-129,1342L123,1345Z" fill="#b98b5f" stroke="#b98b5f" stroke-width="1.51"/><path d="M97,564L79,717L228,518Z" fill="#ffc06d" stroke="#ffc06d" stroke-width="1.51"/><path d="M137,982L239,1039L293,829Z" fill="#ec9e57" stroke="#ec9e57" stroke-width="1.51"/><path d="M139,865L137,982L293,829Z" fill="#f0a45c" stroke="#f0a45c" stroke-width="1.51"/><path d="M298,-33L171,49L303,99Z" fill="#ffeba2" stroke="#ffeba2" stroke-width="1.51"/><path d="M138,-83L298,-33L312,-161Z" fill="#fff1b0" stroke="#fff1b0" stroke-width="1.51"/><path d="M228,518L79,717L313,739Z" fill="#feb865" stroke="#feb865" stroke-width="1.51"/><path d="M303,99L187,212L329,232Z" fill="#ffe28f" stroke="#ffe28f" stroke-width="1.51"/><path d="M187,212L250,391L329,232Z" fill="#ffdb81" stroke="#ffdb81" stroke-width="1.51"/><path d="M139,865L293,829L313,739Z" fill="#f6a95b" stroke="#f6a95b" stroke-width="1.51"/><path d="M79,717L139,865L313,739Z" fill="#faae62" stroke="#faae62" stroke-width="1.51"/><path d="M99,-172L138,-83L312,-161Z" fill="#fff4b9" stroke="#fff4b9" stroke-width="1.51"/><path d="M238,1120L98,1140L302,1256Z" fill="#cf8f53" stroke="#cf8f53" stroke-width="1.51"/><path d="M98,1140L123,1345L302,1256Z" fill="#c58c55" stroke="#c58c55" stroke-width="1.51"/><path d="M171,49L187,212L303,99Z" fill="#ffe89c" stroke="#ffe89c" stroke-width="1.51"/><path d="M187,212L115,337L250,391Z" fill="#ffdb81" stroke="#ffdb81" stroke-width="1.51"/><path d="M138,-83L171,49L298,-33Z" fill="#ffefac" stroke="#ffefac" stroke-width="1.51"/><path d="M115,337L228,518L250,391Z" fill="#ffd075" stroke="#ffd075" stroke-width="1.51"/><path d="M115,337L97,564L228,518Z" fill="#ffcc75" stroke="#ffcc75" stroke-width="1.51"/><path d="M98,1140L238,1120L239,1039Z" fill="#d89556" stroke="#d89556" stroke-width="1.51"/><path d="M137,982L98,1140L239,1039Z" fill="#df9959" stroke="#df9959" stroke-width="1.51"/><path d="M-19,430L97,564L115,337Z" fill="#ffd27d" stroke="#ffd27d" stroke-width="1.51"/><path d="M98,1140L25,1324L123,1345Z" fill="#c28e5b" stroke="#c28e5b" stroke-width="1.51"/><path d="M-71,89L30,251L171,49Z" fill="#ffeda7" stroke="#ffeda7" stroke-width="1.51"/><path d="M171,49L30,251L187,212Z" fill="#ffe79b" stroke="#ffe79b" stroke-width="1.51"/><path d="M30,251L115,337L187,212Z" fill="#ffe18d" stroke="#ffe18d" stroke-width="1.51"/><path d="M138,-83L-18,-108L171,49Z" fill="#fff4b6" stroke="#fff4b6" stroke-width="1.51"/><path d="M-18,-108L-71,89L171,49Z" fill="#fff3b4" stroke="#fff3b4" stroke-width="1.51"/><path d="M-18,1165L25,1324L98,1140Z" fill="#cb925f" stroke="#cb925f" stroke-width="1.51"/><path d="M-42,1010L98,1140L137,982Z" fill="#e19d60" stroke="#e19d60" stroke-width="1.51"/><path d="M99,-172L-18,-108L138,-83Z" fill="#fff7bf" stroke="#fff7bf" stroke-width="1.51"/><path d="M79,717L-46,800L139,865Z" fill="#f9b169" stroke="#f9b169" stroke-width="1.51"/><path d="M-42,1010L137,982L139,865Z" fill="#eda361" stroke="#eda361" stroke-width="1.51"/><path d="M-46,800L-42,1010L139,865Z" fill="#f2a968" stroke="#f2a968" stroke-width="1.51"/><path d="M-13,581L79,717L97,564Z" fill="#ffc072" stroke="#ffc072" stroke-width="1.51"/><path d="M-19,430L-13,581L97,564Z" fill="#ffca79" stroke="#ffca79" stroke-width="1.51"/><path d="M-42,1010L-18,1165L98,1140Z" fill="#da9962" stroke="#da9962" stroke-width="1.51"/><path d="M30,251L-19,430L115,337Z" fill="#ffdd87" stroke="#ffdd87" stroke-width="1.51"/><path d="M-13,581L-67,653L79,717Z" fill="#ffbe74" stroke="#ffbe74" stroke-width="1.51"/><path d="M-19,-185L-18,-108L99,-172Z" fill="#fff9c6" stroke="#fff9c6" stroke-width="1.51"/><path d="M-67,653L-46,800L79,717Z" fill="#feb871" stroke="#feb871" stroke-width="1.51"/><path d="M-46,800L-184,874L-42,1010Z" fill="#f3aa6f" stroke="#f3aa6f" stroke-width="1.51"/><path d="M-18,1165L-139,1193L25,1324Z" fill="#c99264" stroke="#c99264" stroke-width="1.51"/><path d="M-139,1193L-129,1342L25,1324Z" fill="#c19065" stroke="#c19065" stroke-width="1.51"/><path d="M-71,89L-178,192L30,251Z" fill="#ffeba8" stroke="#ffeba8" stroke-width="1.51"/><path d="M-178,192L-116,360L30,251Z" fill="#ffe49b" stroke="#ffe49b" stroke-width="1.51"/><path d="M-116,360L-19,430L30,251Z" fill="#ffdd8c" stroke="#ffdd8c" stroke-width="1.51"/><path d="M-184,874L-165,1007L-42,1010Z" fill="#eea56f" stroke="#eea56f" stroke-width="1.51"/><path d="M-165,1007L-139,1193L-42,1010Z" fill="#e09d6b" stroke="#e09d6b" stroke-width="1.51"/><path d="M-116,360L-212,531L-19,430Z" fill="#ffd58a" stroke="#ffd58a" stroke-width="1.51"/><path d="M-198,-58L-71,89L-18,-108Z" fill="#fff6c1" stroke="#fff6c1" stroke-width="1.51"/><path d="M-19,-185L-197,-202L-18,-108Z" fill="#ffface" stroke="#ffface" stroke-width="1.51"/><path d="M-42,1010L-139,1193L-18,1165Z" fill="#d89967" stroke="#d89967" stroke-width="1.51"/><path d="M-170,646L-67,653L-13,581Z" fill="#ffc27b" stroke="#ffc27b" stroke-width="1.51"/><path d="M-212,531L-170,646L-13,581Z" fill="#ffc680" stroke="#ffc680" stroke-width="1.51"/><path d="M-19,430L-212,531L-13,581Z" fill="#ffcd81" stroke="#ffcd81" stroke-width="1.51"/><path d="M-197,-202L-198,-58L-18,-108Z" fill="#ffface" stroke="#ffface" stroke-width="1.51"/><path d="M-67,653L-170,646L-46,800Z" fill="#ffbb78" stroke="#ffbb78" stroke-width="1.51"/><path d="M-170,646L-184,874L-46,800Z" fill="#fdb477" stroke="#fdb477" stroke-width="1.51"/><path d="M-204,137L-178,192L-71,89Z" fill="#ffefb3" stroke="#ffefb3" stroke-width="1.51"/><path d="M-198,-58L-204,137L-71,89Z" fill="#fff3bd" stroke="#fff3bd" stroke-width="1.51"/><path d="M-165,1007L-184,874L-129,1342Z" fill="#e09d6e" stroke="#e09d6e" stroke-width="1.51"/><path d="M-178,192L-212,531L-116,360Z" fill="#ffdd94" stroke="#ffdd94" stroke-width="1.51"/><path d="M-139,1193L-165,1007L-129,1342Z" fill="#d0966b" stroke="#d0966b" stroke-width="1.51"/><path d="M-204,137L-212,531L-178,192Z" fill="#ffe4a0" stroke="#ffe4a0" stroke-width="1.51"/><path d="M-212,531L-184,874L-170,646Z" fill="#ffbe7f" stroke="#ffbe7f" stroke-width="1.51"/><path d="M-204,137L-198,-58L-197,-202Z" fill="#fff8ca" stroke="#fff8ca" stroke-width="1.51"/></svg>