<svg xmlns="http://www.w3.org/2000/svg" width="720" height="720"><path d="M-192,-168L41,-183L189,-201Z" fill="#efefef" stroke="#efefef" stroke-width="1.51"/><path d="M189,-201L332,-185L513,-187Z" fill="#cacaca" stroke="#cacaca" stroke-width="1.51"/><path d="M392,886L78,912L621,916Z" fill="#4c4c4c" stroke="#4c4c4c" stroke-width="1.51"/><path d="M850,187L838,299L851,425Z" fill="#5b5b5b" stroke="#5b5b5b" stroke-width="1.51"/><path d="M797,632L847,649L872,522Z" fill="#3a3a3a" stroke="#3a3a3a" stroke-width="1.51"/><path d="M721,888L621,916L874,856Z" fill="#232323" stroke="#232323" stroke-width="1.51"/><path d="M189,-201L513,-187L876,-194Z" fill="#b3b3b3" stroke="#b3b3b3" stroke-width="1.51"/><path d="M513,-187L638,-175L876,-194Z" fill="#9e9e9e" stroke="#9e9e9e" stroke-width="1.51"/><path d="M638,-175L764,-134L876,-194Z" fill="#8d8d8d" stroke="#8d8d8d" stroke-width="1.51"/><path d="M764,-134L836,-50L876,-194Z" fill="#818181" stroke="#818181" stroke-width="1.51"/><path d="M805,736L874,856L877,726Z" fill="#212121" stroke="#212121" stroke-width="1.51"/><path d="M872,522L847,649L877,726Z" fill="#343434" stroke="#343434" stroke-width="1.51"/><path d="M836,-50L748,-19L897,30Z" fill="#7b7b7b" stroke="#7b7b7b" stroke-width="1.51"/><path d="M748,-19L733,88L897,30Z" fill="#7b7b7b" stroke="#7b7b7b" stroke-width="1.51"/><path d="M733,88L850,187L897,30Z" fill="#727272" stroke="#727272" stroke-width="1.51"/><path d="M851,425L872,522L897,30Z" fill="#545454" stroke="#545454" stroke-width="1.51"/><path d="M850,187L851,425L897,30Z" fill="#636363" stroke="#636363" stroke-width="1.51"/><path d="M876,-194L836,-50L897,30Z" fill="#797979" stroke="#797979" stroke-width="1.51"/><path d="M872,522L877,726L897,30Z" fill="#484848" stroke="#484848" stroke-width="1.51"/><path d="M747,323L802,439L838,299Z" fill="#5b5b5b" stroke="#5b5b5b" stroke-width="1.51"/><path d="M838,299L802,439L851,425Z" fill="#525252" stroke="#525252" stroke-width="1.51"/><path d="M754,515L797,632L872,522Z" fill="#434343" stroke="#434343" stroke-width="1.51"/><path d="M851,425L802,439L872,522Z" fill="#494949" stroke="#494949" stroke-width="1.51"/><path d="M805,736L721,888L874,856Z" fill="#202020" stroke="#202020" stroke-width="1.51"/><path d="M847,649L805,736L877,726Z" fill="#2c2c2c" stroke="#2c2c2c" stroke-width="1.51"/><path d="M802,439L754,515L872,522Z" fill="#494949" stroke="#494949" stroke-width="1.51"/><path d="M752,203L838,299L850,187Z" fill="#676767" stroke="#676767" stroke-width="1.51"/><path d="M797,632L805,736L847,649Z" fill="#343434" stroke="#343434" stroke-width="1.51"/><path d="M733,88L752,203L850,187Z" fill="#737373" stroke="#737373" stroke-width="1.51"/><path d="M752,203L747,323L838,299Z" fill="#676767" stroke="#676767" stroke-width="1.51"/><path d="M764,-134L748,-19L836,-50Z" fill="#848484" stroke="#848484" stroke-width="1.51"/><path d="M754,515L649,623L797,632Z" fill="#4a4a4a" stroke="#4a4a4a" stroke-width="1.51"/><path d="M747,323L679,429L802,439Z" fill="#5f5f5f" stroke="#5f5f5f" stroke-width="1.51"/><path d="M618,725L721,888L805,736Z" fill="#313131" stroke="#313131" stroke-width="1.51"/><path d="M797,632L649,623L805,736Z" fill="#3f3f3f" stroke="#3f3f3f" stroke-width="1.51"/><path d="M649,623L618,725L805,736Z" fill="#434343" stroke="#434343" stroke-width="1.51"/><path d="M679,429L754,515L802,439Z" fill="#575757" stroke="#575757" stroke-width="1.51"/><path d="M645,209L648,326L747,323Z" fill="#777777" stroke="#777777" stroke-width="1.51"/><path d="M733,88L650,105L752,203Z" fill="#818181" stroke="#818181" stroke-width="1.51"/><path d="M650,105L645,209L752,203Z" fill="#838383" stroke="#838383" stroke-width="1.51"/><path d="M645,209L747,323L752,203Z" fill="#767676" stroke="#767676" stroke-width="1.51"/><path d="M629,566L649,623L754,515Z" fill="#565656" stroke="#565656" stroke-width="1.51"/><path d="M664,-66L748,-19L764,-134Z" fill="#8f8f8f" stroke="#8f8f8f" stroke-width="1.51"/><path d="M638,-175L664,-66L764,-134Z" fill="#999999" stroke="#999999" stroke-width="1.51"/><path d="M648,326L679,429L747,323Z" fill="#6c6c6c" stroke="#6c6c6c" stroke-width="1.51"/><path d="M650,105L733,88L748,-19Z" fill="#888888" stroke="#888888" stroke-width="1.51"/><path d="M664,-66L650,105L748,-19Z" fill="#909090" stroke="#909090" stroke-width="1.51"/><path d="M679,429L629,566L754,515Z" fill="#5b5b5b" stroke="#5b5b5b" stroke-width="1.51"/><path d="M618,725L621,916L721,888Z" fill="#343434" stroke="#343434" stroke-width="1.51"/><path d="M521,874L392,886L621,916Z" fill="#3d3d3d" stroke="#3d3d3d" stroke-width="1.51"/><path d="M560,47L650,105L664,-66Z" fill="#999999" stroke="#999999" stroke-width="1.51"/><path d="M618,725L521,874L621,916Z" fill="#3c3c3c" stroke="#3c3c3c" stroke-width="1.51"/><path d="M507,410L523,556L629,566Z" fill="#6c6c6c" stroke="#6c6c6c" stroke-width="1.51"/><path d="M648,326L507,410L679,429Z" fill="#747474" stroke="#747474" stroke-width="1.51"/><path d="M507,410L629,566L679,429Z" fill="#6b6b6b" stroke="#6b6b6b" stroke-width="1.51"/><path d="M489,788L521,874L618,725Z" fill="#464646" stroke="#464646" stroke-width="1.51"/><path d="M531,318L507,410L648,326Z" fill="#7e7e7e" stroke="#7e7e7e" stroke-width="1.51"/><path d="M645,209L531,318L648,326Z" fill="#818181" stroke="#818181" stroke-width="1.51"/><path d="M558,162L645,209L650,105Z" fill="#8f8f8f" stroke="#8f8f8f" stroke-width="1.51"/><path d="M638,-175L495,-75L664,-66Z" fill="#a5a5a5" stroke="#a5a5a5" stroke-width="1.51"/><path d="M495,-75L560,47L664,-66Z" fill="#a4a4a4" stroke="#a4a4a4" stroke-width="1.51"/><path d="M513,-187L495,-75L638,-175Z" fill="#adadad" stroke="#adadad" stroke-width="1.51"/><path d="M558,162L531,318L645,209Z" fill="#8c8c8c" stroke="#8c8c8c" stroke-width="1.51"/><path d="M520,672L618,725L649,623Z" fill="#545454" stroke="#545454" stroke-width="1.51"/><path d="M560,47L558,162L650,105Z" fill="#979797" stroke="#979797" stroke-width="1.51"/><path d="M629,566L520,672L649,623Z" fill="#5a5a5a" stroke="#5a5a5a" stroke-width="1.51"/><path d="M523,556L520,672L629,566Z" fill="#616161" stroke="#616161" stroke-width="1.51"/><path d="M183,870L78,912L392,886Z" fill="#606060" stroke="#606060" stroke-width="1.51"/><path d="M520,672L489,788L618,725Z" fill="#505050" stroke="#505050" stroke-width="1.51"/><path d="M332,-185L395,-158L513,-187Z" fill="#c0c0c0" stroke="#c0c0c0" stroke-width="1.51"/><path d="M396,164L439,333L531,318Z" fill="#969696" stroke="#969696" stroke-width="1.51"/><path d="M396,164L531,318L558,162Z" fill="#989898" stroke="#989898" stroke-width="1.51"/><path d="M456,39L396,164L558,162Z" fill="#a4a4a4" stroke="#a4a4a4" stroke-width="1.51"/><path d="M456,39L558,162L560,47Z" fill="#a1a1a1" stroke="#a1a1a1" stroke-width="1.51"/><path d="M495,-75L456,39L560,47Z" fill="#aaaaaa" stroke="#aaaaaa" stroke-width="1.51"/><path d="M395,-158L495,-75L513,-187Z" fill="#b8b8b8" stroke="#b8b8b8" stroke-width="1.51"/><path d="M444,671L489,788L520,672Z" fill="#5a5a5a" stroke="#5a5a5a" stroke-width="1.51"/><path d="M507,410L382,445L523,556Z" fill="#7b7b7b" stroke="#7b7b7b" stroke-width="1.51"/><path d="M382,445L419,575L523,556Z" fill="#787878" stroke="#787878" stroke-width="1.51"/><path d="M444,671L520,672L523,556Z" fill="#656565" stroke="#656565" stroke-width="1.51"/><path d="M419,575L444,671L523,556Z" fill="#6d6d6d" stroke="#6d6d6d" stroke-width="1.51"/><path d="M439,333L507,410L531,318Z" fill="#878787" stroke="#878787" stroke-width="1.51"/><path d="M489,788L392,886L521,874Z" fill="#484848" stroke="#484848" stroke-width="1.51"/><path d="M389,-33L456,39L495,-75Z" fill="#b3b3b3" stroke="#b3b3b3" stroke-width="1.51"/><path d="M444,671L377,722L489,788Z" fill="#5c5c5c" stroke="#5c5c5c" stroke-width="1.51"/><path d="M439,333L382,445L507,410Z" fill="#878787" stroke="#878787" stroke-width="1.51"/><path d="M395,-158L389,-33L495,-75Z" fill="#bbbbbb" stroke="#bbbbbb" stroke-width="1.51"/><path d="M377,722L392,886L489,788Z" fill="#525252" stroke="#525252" stroke-width="1.51"/><path d="M296,849L183,870L392,886Z" fill="#595959" stroke="#595959" stroke-width="1.51"/><path d="M377,722L307,766L392,886Z" fill="#5a5a5a" stroke="#5a5a5a" stroke-width="1.51"/><path d="M396,164L282,263L439,333Z" fill="#a3a3a3" stroke="#a3a3a3" stroke-width="1.51"/><path d="M312,78L396,164L456,39Z" fill="#b1b1b1" stroke="#b1b1b1" stroke-width="1.51"/><path d="M389,-33L312,78L456,39Z" fill="#b7b7b7" stroke="#b7b7b7" stroke-width="1.51"/><path d="M289,690L377,722L419,575Z" fill="#707070" stroke="#707070" stroke-width="1.51"/><path d="M326,424L382,445L439,333Z" fill="#8e8e8e" stroke="#8e8e8e" stroke-width="1.51"/><path d="M419,575L377,722L444,671Z" fill="#6b6b6b" stroke="#6b6b6b" stroke-width="1.51"/><path d="M307,766L296,849L392,886Z" fill="#595959" stroke="#595959" stroke-width="1.51"/><path d="M282,263L326,424L439,333Z" fill="#9a9a9a" stroke="#9a9a9a" stroke-width="1.51"/><path d="M267,-72L389,-33L395,-158Z" fill="#c5c5c5" stroke="#c5c5c5" stroke-width="1.51"/><path d="M276,225L282,263L396,164Z" fill="#afafaf" stroke="#afafaf" stroke-width="1.51"/><path d="M269,566L289,690L419,575Z" fill="#7c7c7c" stroke="#7c7c7c" stroke-width="1.51"/><path d="M382,445L269,566L419,575Z" fill="#828282" stroke="#828282" stroke-width="1.51"/><path d="M326,424L269,566L382,445Z" fill="#8c8c8c" stroke="#8c8c8c" stroke-width="1.51"/><path d="M332,-185L267,-72L395,-158Z" fill="#cacaca" stroke="#cacaca" stroke-width="1.51"/><path d="M312,78L276,225L396,164Z" fill="#b4b4b4" stroke="#b4b4b4" stroke-width="1.51"/><path d="M267,-72L312,78L389,-33Z" fill="#c2c2c2" stroke="#c2c2c2" stroke-width="1.51"/><path d="M289,690L307,766L377,722Z" fill="#6a6a6a" stroke="#6a6a6a" stroke-width="1.51"/><path d="M267,-72L191,-8L312,78Z" fill="#cbcbcb" stroke="#cbcbcb" stroke-width="1.51"/><path d="M225,145L276,225L312,78Z" fill="#bcbcbc" stroke="#bcbcbc" stroke-width="1.51"/><path d="M207,535L269,566L326,424Z" fill="#909090" stroke="#909090" stroke-width="1.51"/><path d="M161,438L207,535L326,424Z" fill="#9a9a9a" stroke="#9a9a9a" stroke-width="1.51"/><path d="M282,263L161,438L326,424Z" fill="#a2a2a2" stroke="#a2a2a2" stroke-width="1.51"/><path d="M189,-201L267,-72L332,-185Z" fill="#d3d3d3" stroke="#d3d3d3" stroke-width="1.51"/><path d="M158,259L161,438L282,263Z" fill="#b0b0b0" stroke="#b0b0b0" stroke-width="1.51"/><path d="M163,799L296,849L307,766Z" fill="#656565" stroke="#656565" stroke-width="1.51"/><path d="M157,97L225,145L312,78Z" fill="#c5c5c5" stroke="#c5c5c5" stroke-width="1.51"/><path d="M191,-8L157,97L312,78Z" fill="#cccccc" stroke="#cccccc" stroke-width="1.51"/><path d="M269,566L171,681L289,690Z" fill="#828282" stroke="#828282" stroke-width="1.51"/><path d="M171,681L163,799L289,690Z" fill="#797979" stroke="#797979" stroke-width="1.51"/><path d="M289,690L163,799L307,766Z" fill="#6e6e6e" stroke="#6e6e6e" stroke-width="1.51"/><path d="M158,259L109,383L161,438Z" fill="#b0b0b0" stroke="#b0b0b0" stroke-width="1.51"/><path d="M163,799L183,870L296,849Z" fill="#666666" stroke="#666666" stroke-width="1.51"/><path d="M207,535L171,681L269,566Z" fill="#8c8c8c" stroke="#8c8c8c" stroke-width="1.51"/><path d="M276,225L158,259L282,263Z" fill="#b5b5b5" stroke="#b5b5b5" stroke-width="1.51"/><path d="M225,145L158,259L276,225Z" fill="#bdbdbd" stroke="#bdbdbd" stroke-width="1.51"/><path d="M99,-63L191,-8L267,-72Z" fill="#d7d7d7" stroke="#d7d7d7" stroke-width="1.51"/><path d="M189,-201L99,-63L267,-72Z" fill="#dbdbdb" stroke="#dbdbdb" stroke-width="1.51"/><path d="M113,759L163,799L171,681Z" fill="#7a7a7a" stroke="#7a7a7a" stroke-width="1.51"/><path d="M100,632L171,681L207,535Z" fill="#8f8f8f" stroke="#8f8f8f" stroke-width="1.51"/><path d="M157,97L158,259L225,145Z" fill="#c5c5c5" stroke="#c5c5c5" stroke-width="1.51"/><path d="M157,97L52,148L158,259Z" fill="#cacaca" stroke="#cacaca" stroke-width="1.51"/><path d="M41,-183L99,-63L189,-201Z" fill="#e5e5e5" stroke="#e5e5e5" stroke-width="1.51"/><path d="M161,438L112,515L207,535Z" fill="#9d9d9d" stroke="#9d9d9d" stroke-width="1.51"/><path d="M112,515L100,632L207,535Z" fill="#979797" stroke="#979797" stroke-width="1.51"/><path d="M52,148L94,265L158,259Z" fill="#c7c7c7" stroke="#c7c7c7" stroke-width="1.51"/><path d="M94,265L109,383L158,259Z" fill="#bababa" stroke="#bababa" stroke-width="1.51"/><path d="M43,57L157,97L191,-8Z" fill="#d5d5d5" stroke="#d5d5d5" stroke-width="1.51"/><path d="M99,-63L43,57L191,-8Z" fill="#dbdbdb" stroke="#dbdbdb" stroke-width="1.51"/><path d="M163,799L78,912L183,870Z" fill="#6a6a6a" stroke="#6a6a6a" stroke-width="1.51"/><path d="M-192,-168L-22,-157L41,-183Z" fill="#f4f4f4" stroke="#f4f4f4" stroke-width="1.51"/><path d="M113,759L78,912L163,799Z" fill="#707070" stroke="#707070" stroke-width="1.51"/><path d="M100,632L113,759L171,681Z" fill="#868686" stroke="#868686" stroke-width="1.51"/><path d="M109,383L112,515L161,438Z" fill="#a7a7a7" stroke="#a7a7a7" stroke-width="1.51"/><path d="M43,57L52,148L157,97Z" fill="#d5d5d5" stroke="#d5d5d5" stroke-width="1.51"/><path d="M-20,847L-198,849L78,912Z" fill="#777777" stroke="#777777" stroke-width="1.51"/><path d="M-9,-65L43,57L99,-63Z" fill="#e2e2e2" stroke="#e2e2e2" stroke-width="1.51"/><path d="M41,-183L-9,-65L99,-63Z" fill="#e8e8e8" stroke="#e8e8e8" stroke-width="1.51"/><path d="M-63,669L-46,757L100,632Z" fill="#919191" stroke="#919191" stroke-width="1.51"/><path d="M94,265L-19,260L109,383Z" fill="#c0c0c0" stroke="#c0c0c0" stroke-width="1.51"/><path d="M109,383L-28,491L112,515Z" fill="#aaaaaa" stroke="#aaaaaa" stroke-width="1.51"/><path d="M-28,491L100,632L112,515Z" fill="#a0a0a0" stroke="#a0a0a0" stroke-width="1.51"/><path d="M-20,847L78,912L113,759Z" fill="#737373" stroke="#737373" stroke-width="1.51"/><path d="M100,632L-46,757L113,759Z" fill="#888888" stroke="#888888" stroke-width="1.51"/><path d="M-46,757L-20,847L113,759Z" fill="#7d7d7d" stroke="#7d7d7d" stroke-width="1.51"/><path d="M52,148L-19,260L94,265Z" fill="#cccccc" stroke="#cccccc" stroke-width="1.51"/><path d="M-19,260L-85,410L109,383Z" fill="#bdbdbd" stroke="#bdbdbd" stroke-width="1.51"/><path d="M-85,410L-28,491L109,383Z" fill="#b4b4b4" stroke="#b4b4b4" stroke-width="1.51"/><path d="M-28,491L-63,669L100,632Z" fill="#9e9e9e" stroke="#9e9e9e" stroke-width="1.51"/><path d="M-22,-157L-9,-65L41,-183Z" fill="#ededed" stroke="#ededed" stroke-width="1.51"/><path d="M-9,-65L-43,47L43,57Z" fill="#e3e3e3" stroke="#e3e3e3" stroke-width="1.51"/><path d="M-81,163L-19,260L52,148Z" fill="#d4d4d4" stroke="#d4d4d4" stroke-width="1.51"/><path d="M43,57L-43,47L52,148Z" fill="#dcdcdc" stroke="#dcdcdc" stroke-width="1.51"/><path d="M-43,47L-81,163L52,148Z" fill="#dcdcdc" stroke="#dcdcdc" stroke-width="1.51"/><path d="M-140,517L-63,669L-28,491Z" fill="#a9a9a9" stroke="#a9a9a9" stroke-width="1.51"/><path d="M-166,277L-85,410L-19,260Z" fill="#c9c9c9" stroke="#c9c9c9" stroke-width="1.51"/><path d="M-22,-157L-144,-39L-9,-65Z" fill="#f0f0f0" stroke="#f0f0f0" stroke-width="1.51"/><path d="M-144,-39L-43,47L-9,-65Z" fill="#ebebeb" stroke="#ebebeb" stroke-width="1.51"/><path d="M-174,225L-166,277L-81,163Z" fill="#d9d9d9" stroke="#d9d9d9" stroke-width="1.51"/><path d="M-140,517L-134,666L-63,669Z" fill="#a3a3a3" stroke="#a3a3a3" stroke-width="1.51"/><path d="M-144,83L-81,163L-43,47Z" fill="#e3e3e3" stroke="#e3e3e3" stroke-width="1.51"/><path d="M-192,-168L-144,-39L-22,-157Z" fill="#f5f5f5" stroke="#f5f5f5" stroke-width="1.51"/><path d="M-46,757L-191,800L-20,847Z" fill="#828282" stroke="#828282" stroke-width="1.51"/><path d="M-81,163L-166,277L-19,260Z" fill="#d5d5d5" stroke="#d5d5d5" stroke-width="1.51"/><path d="M-191,800L-198,849L-20,847Z" fill="#818181" stroke="#818181" stroke-width="1.51"/><path d="M-85,410L-140,517L-28,491Z" fill="#b4b4b4" stroke="#b4b4b4" stroke-width="1.51"/><path d="M-63,669L-134,666L-46,757Z" fill="#959595" stroke="#959595" stroke-width="1.51"/><path d="M-144,-39L-144,83L-43,47Z" fill="#eaeaea" stroke="#eaeaea" stroke-width="1.51"/><path d="M-134,666L-191,800L-46,757Z" fill="#8e8e8e" stroke="#8e8e8e" stroke-width="1.51"/><path d="M-166,277L-195,392L-85,410Z" fill="#c6c6c6" stroke="#c6c6c6" stroke-width="1.51"/><path d="M-195,392L-140,517L-85,410Z" fill="#bbbbbb" stroke="#bbbbbb" stroke-width="1.51"/><path d="M-144,83L-174,225L-81,163Z" fill="#dfdfdf" stroke="#dfdfdf" stroke-width="1.51"/><path d="M-195,392L-191,800L-140,517Z" fill="#acacac" stroke="#acacac" stroke-width="1.51"/><path d="M-140,517L-191,800L-134,666Z" fill="#9f9f9f" stroke="#9f9f9f" stroke-width="1.51"/><path d="M-192,-168L-144,83L-144,-39Z" fill="#f2f2f2" stroke="#f2f2f2" stroke-width="1.51"/><path d="M-192,-168L-174,225L-144,83Z" fill="#ebebeb" stroke="#ebebeb" stroke-width="1.51"/><path d="M-174,225L-195,392L-166,277Z" fill="#d0d0d0" stroke="#d0d0d0" stroke-width="1.51"/><path d="M-192,-168L-195,392L-174,225Z" fill="#e3e3e3" stroke="#e3e3e3" stroke-width="1.51"/><path d="M-195,392L-198,849L-191,800Z" fill="#9d9d9d" stroke="#9d9d9d" stroke-width="1.51"/></svg>