<svg xmlns="http://www.w3.org/2000/svg" width="1920" height="1080"><path d="M-197,-202L-19,-185L448,-194Z" fill="#ffebd1" stroke="#ffebd1" stroke-width="1.51"/><path d="M-197,-202L448,-194L837,-244Z" fill="#ffe3be" stroke="#ffe3be" stroke-width="1.51"/><path d="M897,1322L123,1345L1016,1332Z" fill="#c4663f" stroke="#c4663f" stroke-width="1.51"/><path d="M837,-244L1155,-230L1369,-265Z" fill="#ffb798" stroke="#ffb798" stroke-width="1.51"/><path d="M1016,1332L123,1345L1668,1345Z" fill="#c0512d" stroke="#c0512d" stroke-width="1.51"/><path d="M1451,1329L1016,1332L1668,1345Z" fill="#b52e1c" stroke="#b52e1c" stroke-width="1.51"/><path d="M1654,-192L1821,-173L1911,-185Z" fill="#e88d6d" stroke="#e88d6d" stroke-width="1.51"/><path d="M1654,-192L1911,-185L2060,-232Z" fill="#e3896b" stroke="#e3896b" stroke-width="1.51"/><path d="M1516,-223L1654,-192L2060,-232Z" fill="#ec9072" stroke="#ec9072" stroke-width="1.51"/><path d="M1369,-265L1516,-223L2060,-232Z" fill="#f19579" stroke="#f19579" stroke-width="1.51"/><path d="M1966,836L2063,873L2076,642Z" fill="#bf3621" stroke="#bf3621" stroke-width="1.51"/><path d="M1952,652L1966,836L2076,642Z" fill="#c64026" stroke="#c64026" stroke-width="1.51"/><path d="M2070,987L1968,1181L2098,1144Z" fill="#a70805" stroke="#a70805" stroke-width="1.51"/><path d="M2076,642L2063,873L2098,1144Z" fill="#b52617" stroke="#b52617" stroke-width="1.51"/><path d="M2063,873L2070,987L2098,1144Z" fill="#ad160d" stroke="#ad160d" stroke-width="1.51"/><path d="M2047,56L1886,188L2100,282Z" fill="#cf744a" stroke="#cf744a" stroke-width="1.51"/><path d="M2079,-104L2047,56L2100,282Z" fill="#cb7851" stroke="#cb7851" stroke-width="1.51"/><path d="M2100,282L1956,361L2118,381Z" fill="#c9683f" stroke="#c9683f" stroke-width="1.51"/><path d="M1956,361L2053,487L2118,381Z" fill="#ca6139" stroke="#ca6139" stroke-width="1.51"/><path d="M2053,487L2076,642L2118,381Z" fill="#c55430" stroke="#c55430" stroke-width="1.51"/><path d="M2076,642L2098,1144L2118,381Z" fill="#bd3c25" stroke="#bd3c25" stroke-width="1.51"/><path d="M2079,-104L2100,282L2118,381Z" fill="#c77149" stroke="#c77149" stroke-width="1.51"/><path d="M2098,1144L1968,1181L2118,1295Z" fill="#9b0001" stroke="#9b0001" stroke-width="1.51"/><path d="M1968,1181L1940,1323L2118,1295Z" fill="#980001" stroke="#980001" stroke-width="1.51"/><path d="M2118,381L2098,1144L2118,1295Z" fill="#af1d12" stroke="#af1d12" stroke-width="1.51"/><path d="M1907,1007L1968,1181L2070,987Z" fill="#b01007" stroke="#b01007" stroke-width="1.51"/><path d="M2053,487L1915,557L2076,642Z" fill="#ca4f2b" stroke="#ca4f2b" stroke-width="1.51"/><path d="M1915,557L1952,652L2076,642Z" fill="#cb4b2a" stroke="#cb4b2a" stroke-width="1.51"/><path d="M1909,-80L2047,56L2079,-104Z" fill="#d37f5d" stroke="#d37f5d" stroke-width="1.51"/><path d="M1886,188L1956,361L2100,282Z" fill="#d26f44" stroke="#d26f44" stroke-width="1.51"/><path d="M1909,-80L1935,50L2047,56Z" fill="#d77e58" stroke="#d77e58" stroke-width="1.51"/><path d="M1935,50L1886,188L2047,56Z" fill="#d67b50" stroke="#d67b50" stroke-width="1.51"/><path d="M2063,873L1966,836L2070,987Z" fill="#b92516" stroke="#b92516" stroke-width="1.51"/><path d="M1966,836L1907,1007L2070,987Z" fill="#bb1e11" stroke="#bb1e11" stroke-width="1.51"/><path d="M2060,-232L1911,-185L2079,-104Z" fill="#d58468" stroke="#d58468" stroke-width="1.51"/><path d="M1911,-185L1909,-80L2079,-104Z" fill="#d98464" stroke="#d98464" stroke-width="1.51"/><path d="M1956,361L1915,557L2053,487Z" fill="#cf5b34" stroke="#cf5b34" stroke-width="1.51"/><path d="M695,1288L123,1345L897,1322Z" fill="#c76c44" stroke="#c76c44" stroke-width="1.51"/><path d="M1830,1272L1668,1345L1940,1323Z" fill="#a20503" stroke="#a20503" stroke-width="1.51"/><path d="M1752,659L1839,888L1952,652Z" fill="#d24126" stroke="#d24126" stroke-width="1.51"/><path d="M1886,188L1729,274L1956,361Z" fill="#dd7345" stroke="#dd7345" stroke-width="1.51"/><path d="M1794,422L1915,557L1956,361Z" fill="#d86036" stroke="#d86036" stroke-width="1.51"/><path d="M1952,652L1839,888L1966,836Z" fill="#ca3721" stroke="#ca3721" stroke-width="1.51"/><path d="M1839,888L1907,1007L1966,836Z" fill="#c32514" stroke="#c32514" stroke-width="1.51"/><path d="M1907,1007L1835,1137L1968,1181Z" fill="#b30904" stroke="#b30904" stroke-width="1.51"/><path d="M1830,1272L1940,1323L1968,1181Z" fill="#a10001" stroke="#a10001" stroke-width="1.51"/><path d="M1835,1137L1830,1272L1968,1181Z" fill="#ac0001" stroke="#ac0001" stroke-width="1.51"/><path d="M1729,274L1794,422L1956,361Z" fill="#de6e41" stroke="#de6e41" stroke-width="1.51"/><path d="M1915,557L1752,659L1952,652Z" fill="#d54c2a" stroke="#d54c2a" stroke-width="1.51"/><path d="M1794,422L1776,529L1915,557Z" fill="#dc5c32" stroke="#dc5c32" stroke-width="1.51"/><path d="M1746,43L1886,188L1935,50Z" fill="#e07e51" stroke="#e07e51" stroke-width="1.51"/><path d="M1909,-80L1772,-42L1935,50Z" fill="#e0835c" stroke="#e0835c" stroke-width="1.51"/><path d="M1821,-173L1909,-80L1911,-185Z" fill="#e28766" stroke="#e28766" stroke-width="1.51"/><path d="M1772,-42L1746,43L1935,50Z" fill="#e3835a" stroke="#e3835a" stroke-width="1.51"/><path d="M1839,888L1762,989L1907,1007Z" fill="#c51f11" stroke="#c51f11" stroke-width="1.51"/><path d="M1762,989L1835,1137L1907,1007Z" fill="#be150a" stroke="#be150a" stroke-width="1.51"/><path d="M1776,529L1752,659L1915,557Z" fill="#da532d" stroke="#da532d" stroke-width="1.51"/><path d="M1821,-173L1772,-42L1909,-80Z" fill="#e48764" stroke="#e48764" stroke-width="1.51"/><path d="M407,1286L123,1345L695,1288Z" fill="#c9734a" stroke="#c9734a" stroke-width="1.51"/><path d="M1746,43L1729,274L1886,188Z" fill="#e27d4f" stroke="#e27d4f" stroke-width="1.51"/><path d="M1664,231L1729,274L1746,43Z" fill="#e77f51" stroke="#e77f51" stroke-width="1.51"/><path d="M1582,1190L1668,1345L1830,1272Z" fill="#af1209" stroke="#af1209" stroke-width="1.51"/><path d="M1582,1190L1830,1272L1835,1137Z" fill="#b40d06" stroke="#b40d06" stroke-width="1.51"/><path d="M1591,892L1762,989L1839,888Z" fill="#ce2b1a" stroke="#ce2b1a" stroke-width="1.51"/><path d="M1752,659L1591,892L1839,888Z" fill="#d63c25" stroke="#d63c25" stroke-width="1.51"/><path d="M1762,989L1582,1190L1835,1137Z" fill="#bf170b" stroke="#bf170b" stroke-width="1.51"/><path d="M1654,-192L1772,-42L1821,-173Z" fill="#e98d6b" stroke="#e98d6b" stroke-width="1.51"/><path d="M1729,274L1687,411L1794,422Z" fill="#e37044" stroke="#e37044" stroke-width="1.51"/><path d="M1601,655L1591,892L1752,659Z" fill="#de4a30" stroke="#de4a30" stroke-width="1.51"/><path d="M1591,892L1601,952L1762,989Z" fill="#d22c1c" stroke="#d22c1c" stroke-width="1.51"/><path d="M1654,-192L1633,-69L1772,-42Z" fill="#ed8f6b" stroke="#ed8f6b" stroke-width="1.51"/><path d="M1687,411L1776,529L1794,422Z" fill="#e1653b" stroke="#e1653b" stroke-width="1.51"/><path d="M1593,44L1664,231L1746,43Z" fill="#ea8659" stroke="#ea8659" stroke-width="1.51"/><path d="M1601,952L1582,1190L1762,989Z" fill="#c92314" stroke="#c92314" stroke-width="1.51"/><path d="M1613,535L1752,659L1776,529Z" fill="#e15932" stroke="#e15932" stroke-width="1.51"/><path d="M1687,411L1613,535L1776,529Z" fill="#e4633a" stroke="#e4633a" stroke-width="1.51"/><path d="M1633,-69L1746,43L1772,-42Z" fill="#ea8a63" stroke="#ea8a63" stroke-width="1.51"/><path d="M1613,535L1601,655L1752,659Z" fill="#e25734" stroke="#e25734" stroke-width="1.51"/><path d="M1633,-69L1593,44L1746,43Z" fill="#ec8b63" stroke="#ec8b63" stroke-width="1.51"/><path d="M1506,788L1591,892L1601,655Z" fill="#e14830" stroke="#e14830" stroke-width="1.51"/><path d="M1664,231L1687,411L1729,274Z" fill="#e6784b" stroke="#e6784b" stroke-width="1.51"/><path d="M1226,1277L1016,1332L1451,1329Z" fill="#be3c26" stroke="#be3c26" stroke-width="1.51"/><path d="M1482,1158L1582,1190L1601,952Z" fill="#ca2415" stroke="#ca2415" stroke-width="1.51"/><path d="M1593,44L1494,184L1664,231Z" fill="#ee875a" stroke="#ee875a" stroke-width="1.51"/><path d="M1664,231L1528,399L1687,411Z" fill="#ea784b" stroke="#ea784b" stroke-width="1.51"/><path d="M1528,399L1613,535L1687,411Z" fill="#e96c42" stroke="#e96c42" stroke-width="1.51"/><path d="M1494,184L1528,399L1664,231Z" fill="#ee8154" stroke="#ee8154" stroke-width="1.51"/><path d="M1582,1190L1451,1329L1668,1345Z" fill="#b31a10" stroke="#b31a10" stroke-width="1.51"/><path d="M1516,-223L1633,-69L1654,-192Z" fill="#f39475" stroke="#f39475" stroke-width="1.51"/><path d="M1468,951L1482,1158L1601,952Z" fill="#d32f1d" stroke="#d32f1d" stroke-width="1.51"/><path d="M1500,636L1601,655L1613,535Z" fill="#e85b38" stroke="#e85b38" stroke-width="1.51"/><path d="M1458,-12L1593,44L1633,-69Z" fill="#f29169" stroke="#f29169" stroke-width="1.51"/><path d="M1516,-223L1458,-12L1633,-69Z" fill="#f59673" stroke="#f59673" stroke-width="1.51"/><path d="M1458,-12L1482,42L1593,44Z" fill="#f3926a" stroke="#f3926a" stroke-width="1.51"/><path d="M1482,42L1494,184L1593,44Z" fill="#f28e63" stroke="#f28e63" stroke-width="1.51"/><path d="M1500,636L1506,788L1601,655Z" fill="#e65537" stroke="#e65537" stroke-width="1.51"/><path d="M1528,399L1464,551L1613,535Z" fill="#ec6a41" stroke="#ec6a41" stroke-width="1.51"/><path d="M1464,551L1500,636L1613,535Z" fill="#eb623c" stroke="#eb623c" stroke-width="1.51"/><path d="M1482,1158L1451,1329L1582,1190Z" fill="#bf2314" stroke="#bf2314" stroke-width="1.51"/><path d="M1591,892L1468,951L1601,952Z" fill="#d93422" stroke="#d93422" stroke-width="1.51"/><path d="M1494,184L1381,271L1528,399Z" fill="#f18659" stroke="#f18659" stroke-width="1.51"/><path d="M1506,788L1468,951L1591,892Z" fill="#dd3f29" stroke="#dd3f29" stroke-width="1.51"/><path d="M-19,-185L99,-172L448,-194Z" fill="#ffe8c9" stroke="#ffe8c9" stroke-width="1.51"/><path d="M1468,951L1318,994L1482,1158Z" fill="#d63823" stroke="#d63823" stroke-width="1.51"/><path d="M1500,636L1348,716L1506,788Z" fill="#e9593c" stroke="#e9593c" stroke-width="1.51"/><path d="M1350,786L1468,951L1506,788Z" fill="#e34b32" stroke="#e34b32" stroke-width="1.51"/><path d="M1352,-26L1458,-12L1516,-223Z" fill="#f79c79" stroke="#f79c79" stroke-width="1.51"/><path d="M1369,-265L1352,-26L1516,-223Z" fill="#faa182" stroke="#faa182" stroke-width="1.51"/><path d="M1349,444L1464,551L1528,399Z" fill="#f0754b" stroke="#f0754b" stroke-width="1.51"/><path d="M1381,271L1349,444L1528,399Z" fill="#f28256" stroke="#f28256" stroke-width="1.51"/><path d="M1345,1166L1451,1329L1482,1158Z" fill="#c32d1a" stroke="#c32d1a" stroke-width="1.51"/><path d="M1318,994L1345,1166L1482,1158Z" fill="#d13620" stroke="#d13620" stroke-width="1.51"/><path d="M1482,42L1353,63L1494,184Z" fill="#f49367" stroke="#f49367" stroke-width="1.51"/><path d="M1348,716L1350,786L1506,788Z" fill="#e9583d" stroke="#e9583d" stroke-width="1.51"/><path d="M1280,1263L1226,1277L1451,1329Z" fill="#be3521" stroke="#be3521" stroke-width="1.51"/><path d="M1464,551L1318,591L1500,636Z" fill="#ee6843" stroke="#ee6843" stroke-width="1.51"/><path d="M1318,591L1348,716L1500,636Z" fill="#ed6543" stroke="#ed6543" stroke-width="1.51"/><path d="M1353,63L1381,271L1494,184Z" fill="#f49264" stroke="#f49264" stroke-width="1.51"/><path d="M1350,786L1318,994L1468,951Z" fill="#e14830" stroke="#e14830" stroke-width="1.51"/><path d="M1458,-12L1353,63L1482,42Z" fill="#f6976f" stroke="#f6976f" stroke-width="1.51"/><path d="M1345,1166L1280,1263L1451,1329Z" fill="#c1321e" stroke="#c1321e" stroke-width="1.51"/><path d="M1352,-26L1353,63L1458,-12Z" fill="#f79c74" stroke="#f79c74" stroke-width="1.51"/><path d="M1349,444L1318,591L1464,551Z" fill="#f27249" stroke="#f27249" stroke-width="1.51"/><path d="M1225,484L1318,591L1349,444Z" fill="#f57b51" stroke="#f57b51" stroke-width="1.51"/><path d="M1195,855L1318,994L1350,786Z" fill="#e75339" stroke="#e75339" stroke-width="1.51"/><path d="M1232,55L1181,203L1353,63Z" fill="#faa074" stroke="#faa074" stroke-width="1.51"/><path d="M1218,-68L1352,-26L1369,-265Z" fill="#fba685" stroke="#fba685" stroke-width="1.51"/><path d="M1155,-230L1218,-68L1369,-265Z" fill="#fead90" stroke="#fead90" stroke-width="1.51"/><path d="M1198,387L1349,444L1381,271Z" fill="#f68a5e" stroke="#f68a5e" stroke-width="1.51"/><path d="M1181,203L1198,387L1381,271Z" fill="#f89568" stroke="#f89568" stroke-width="1.51"/><path d="M1353,63L1181,203L1381,271Z" fill="#f8986b" stroke="#f8986b" stroke-width="1.51"/><path d="M448,-194L636,-194L837,-244Z" fill="#ffd7b2" stroke="#ffd7b2" stroke-width="1.51"/><path d="M1318,994L1164,1195L1345,1166Z" fill="#d44027" stroke="#d44027" stroke-width="1.51"/><path d="M1318,591L1131,648L1348,716Z" fill="#f26e4b" stroke="#f26e4b" stroke-width="1.51"/><path d="M1198,387L1225,484L1349,444Z" fill="#f7865b" stroke="#f7865b" stroke-width="1.51"/><path d="M1348,716L1195,855L1350,786Z" fill="#ec5e41" stroke="#ec5e41" stroke-width="1.51"/><path d="M1218,-68L1232,55L1352,-26Z" fill="#fba57f" stroke="#fba57f" stroke-width="1.51"/><path d="M1352,-26L1232,55L1353,63Z" fill="#f9a078" stroke="#f9a078" stroke-width="1.51"/><path d="M1131,648L1195,855L1348,716Z" fill="#f06849" stroke="#f06849" stroke-width="1.51"/><path d="M1164,1195L1280,1263L1345,1166Z" fill="#cb3d25" stroke="#cb3d25" stroke-width="1.51"/><path d="M1091,1026L1164,1195L1318,994Z" fill="#db4a2d" stroke="#db4a2d" stroke-width="1.51"/><path d="M1129,971L1091,1026L1318,994Z" fill="#e25032" stroke="#e25032" stroke-width="1.51"/><path d="M1195,855L1129,971L1318,994Z" fill="#e55236" stroke="#e55236" stroke-width="1.51"/><path d="M1225,484L1131,648L1318,591Z" fill="#f67950" stroke="#f67950" stroke-width="1.51"/><path d="M1164,1195L1226,1277L1280,1263Z" fill="#c73f26" stroke="#c73f26" stroke-width="1.51"/><path d="M1131,648L1037,723L1195,855Z" fill="#f26f4c" stroke="#f26f4c" stroke-width="1.51"/><path d="M1181,203L1051,256L1198,387Z" fill="#fa9c6c" stroke="#fa9c6c" stroke-width="1.51"/><path d="M1155,-230L1035,-58L1218,-68Z" fill="#ffb28d" stroke="#ffb28d" stroke-width="1.51"/><path d="M1026,484L1131,648L1225,484Z" fill="#f98254" stroke="#f98254" stroke-width="1.51"/><path d="M1001,54L1181,203L1232,55Z" fill="#fba778" stroke="#fba778" stroke-width="1.51"/><path d="M1218,-68L1035,-58L1232,55Z" fill="#fdac83" stroke="#fdac83" stroke-width="1.51"/><path d="M1035,-58L1001,54L1232,55Z" fill="#feaf82" stroke="#feaf82" stroke-width="1.51"/><path d="M1017,-159L1035,-58L1155,-230Z" fill="#ffb792" stroke="#ffb792" stroke-width="1.51"/><path d="M1198,387L1053,411L1225,484Z" fill="#f98d5f" stroke="#f98d5f" stroke-width="1.51"/><path d="M1164,1195L1016,1332L1226,1277Z" fill="#c64528" stroke="#c64528" stroke-width="1.51"/><path d="M1053,411L1026,484L1225,484Z" fill="#fa8d5d" stroke="#fa8d5d" stroke-width="1.51"/><path d="M837,-244L1017,-159L1155,-230Z" fill="#ffbd99" stroke="#ffbd99" stroke-width="1.51"/><path d="M1091,1026L1048,1187L1164,1195Z" fill="#d74d2b" stroke="#d74d2b" stroke-width="1.51"/><path d="M1048,1187L1016,1332L1164,1195Z" fill="#cb4a29" stroke="#cb4a29" stroke-width="1.51"/><path d="M1001,54L1051,256L1181,203Z" fill="#fca774" stroke="#fca774" stroke-width="1.51"/><path d="M1037,723L1013,808L1195,855Z" fill="#f16c48" stroke="#f16c48" stroke-width="1.51"/><path d="M1051,256L1053,411L1198,387Z" fill="#fb9a68" stroke="#fb9a68" stroke-width="1.51"/><path d="M1013,808L1129,971L1195,855Z" fill="#eb603f" stroke="#eb603f" stroke-width="1.51"/><path d="M1026,484L897,570L1037,723Z" fill="#fa8756" stroke="#fa8756" stroke-width="1.51"/><path d="M1013,808L1091,1026L1129,971Z" fill="#e95d3a" stroke="#e95d3a" stroke-width="1.51"/><path d="M1026,484L1037,723L1131,648Z" fill="#f77e52" stroke="#f77e52" stroke-width="1.51"/><path d="M894,1013L871,1116L1048,1187Z" fill="#dd5b32" stroke="#dd5b32" stroke-width="1.51"/><path d="M1051,256L930,278L1053,411Z" fill="#fda26e" stroke="#fda26e" stroke-width="1.51"/><path d="M894,1013L1048,1187L1091,1026Z" fill="#df5732" stroke="#df5732" stroke-width="1.51"/><path d="M1013,808L894,1013L1091,1026Z" fill="#e9613b" stroke="#e9613b" stroke-width="1.51"/><path d="M840,92L930,278L1001,54Z" fill="#feb37d" stroke="#feb37d" stroke-width="1.51"/><path d="M897,570L842,656L1037,723Z" fill="#f98557" stroke="#f98557" stroke-width="1.51"/><path d="M897,1322L1016,1332L1048,1187Z" fill="#c84f2b" stroke="#c84f2b" stroke-width="1.51"/><path d="M1001,54L930,278L1051,256Z" fill="#feab76" stroke="#feab76" stroke-width="1.51"/><path d="M868,423L1026,484L1053,411Z" fill="#fc9763" stroke="#fc9763" stroke-width="1.51"/><path d="M930,278L868,423L1053,411Z" fill="#fda16b" stroke="#fda16b" stroke-width="1.51"/><path d="M830,821L894,1013L1013,808Z" fill="#ef6f46" stroke="#ef6f46" stroke-width="1.51"/><path d="M871,1116L897,1322L1048,1187Z" fill="#d2552e" stroke="#d2552e" stroke-width="1.51"/><path d="M1017,-159L864,-7L1035,-58Z" fill="#ffba8e" stroke="#ffba8e" stroke-width="1.51"/><path d="M864,-7L1001,54L1035,-58Z" fill="#ffb788" stroke="#ffb788" stroke-width="1.51"/><path d="M842,656L1013,808L1037,723Z" fill="#f67b51" stroke="#f67b51" stroke-width="1.51"/><path d="M842,656L830,821L1013,808Z" fill="#f57d53" stroke="#f57d53" stroke-width="1.51"/><path d="M868,423L897,570L1026,484Z" fill="#fd9560" stroke="#fd9560" stroke-width="1.51"/><path d="M785,-194L864,-7L1017,-159Z" fill="#ffc298" stroke="#ffc298" stroke-width="1.51"/><path d="M837,-244L785,-194L1017,-159Z" fill="#ffc69f" stroke="#ffc69f" stroke-width="1.51"/><path d="M864,-7L840,92L1001,54Z" fill="#ffb987" stroke="#ffb987" stroke-width="1.51"/><path d="M561,1261L407,1286L695,1288Z" fill="#cc6e44" stroke="#cc6e44" stroke-width="1.51"/><path d="M830,821L749,990L894,1013Z" fill="#ec7046" stroke="#ec7046" stroke-width="1.51"/><path d="M871,1116L768,1152L897,1322Z" fill="#d55e34" stroke="#d55e34" stroke-width="1.51"/><path d="M840,92L735,235L930,278Z" fill="#feb680" stroke="#feb680" stroke-width="1.51"/><path d="M735,235L785,349L930,278Z" fill="#fdb27b" stroke="#fdb27b" stroke-width="1.51"/><path d="M785,349L868,423L930,278Z" fill="#fdaa74" stroke="#fdaa74" stroke-width="1.51"/><path d="M749,990L871,1116L894,1013Z" fill="#e5683d" stroke="#e5683d" stroke-width="1.51"/><path d="M768,1152L695,1288L897,1322Z" fill="#ce6138" stroke="#ce6138" stroke-width="1.51"/><path d="M868,423L717,544L897,570Z" fill="#fd9b65" stroke="#fd9b65" stroke-width="1.51"/><path d="M717,544L842,656L897,570Z" fill="#fb9461" stroke="#fb9461" stroke-width="1.51"/><path d="M785,-194L679,-55L864,-7Z" fill="#ffc99d" stroke="#ffc99d" stroke-width="1.51"/><path d="M714,714L830,821L842,656Z" fill="#f7895c" stroke="#f7895c" stroke-width="1.51"/><path d="M743,59L840,92L864,-7Z" fill="#ffc08d" stroke="#ffc08d" stroke-width="1.51"/><path d="M785,349L717,544L868,423Z" fill="#fda66f" stroke="#fda66f" stroke-width="1.51"/><path d="M749,990L768,1152L871,1116Z" fill="#e1683d" stroke="#e1683d" stroke-width="1.51"/><path d="M679,-55L743,59L864,-7Z" fill="#ffc696" stroke="#ffc696" stroke-width="1.51"/><path d="M99,-172L312,-161L448,-194Z" fill="#ffe4c0" stroke="#ffe4c0" stroke-width="1.51"/><path d="M699,821L749,990L830,821Z" fill="#f07c51" stroke="#f07c51" stroke-width="1.51"/><path d="M714,714L699,821L830,821Z" fill="#f5875b" stroke="#f5875b" stroke-width="1.51"/><path d="M636,-194L785,-194L837,-244Z" fill="#ffcfaa" stroke="#ffcfaa" stroke-width="1.51"/><path d="M743,59L735,235L840,92Z" fill="#febf89" stroke="#febf89" stroke-width="1.51"/><path d="M717,544L714,714L842,656Z" fill="#fa9463" stroke="#fa9463" stroke-width="1.51"/><path d="M636,-194L630,-93L679,-55Z" fill="#ffd3a9" stroke="#ffd3a9" stroke-width="1.51"/><path d="M634,240L735,235L743,59Z" fill="#fdc18b" stroke="#fdc18b" stroke-width="1.51"/><path d="M749,990L627,1137L768,1152Z" fill="#e16f42" stroke="#e16f42" stroke-width="1.51"/><path d="M584,392L717,544L785,349Z" fill="#fdae77" stroke="#fdae77" stroke-width="1.51"/><path d="M735,235L634,240L785,349Z" fill="#fdba83" stroke="#fdba83" stroke-width="1.51"/><path d="M634,240L584,392L785,349Z" fill="#fdbb84" stroke="#fdbb84" stroke-width="1.51"/><path d="M636,-194L679,-55L785,-194Z" fill="#ffd1a9" stroke="#ffd1a9" stroke-width="1.51"/><path d="M562,129L634,240L743,59Z" fill="#fdc790" stroke="#fdc790" stroke-width="1.51"/><path d="M627,1137L695,1288L768,1152Z" fill="#d76b3f" stroke="#d76b3f" stroke-width="1.51"/><path d="M576,560L714,714L717,544Z" fill="#fc9e6b" stroke="#fc9e6b" stroke-width="1.51"/><path d="M699,821L551,994L749,990Z" fill="#ee7d51" stroke="#ee7d51" stroke-width="1.51"/><path d="M551,994L627,1137L749,990Z" fill="#e7774b" stroke="#e7774b" stroke-width="1.51"/><path d="M679,-55L562,129L743,59Z" fill="#fecc99" stroke="#fecc99" stroke-width="1.51"/><path d="M576,560L575,730L714,714Z" fill="#fa9a6a" stroke="#fa9a6a" stroke-width="1.51"/><path d="M584,392L576,560L717,544Z" fill="#feaa74" stroke="#feaa74" stroke-width="1.51"/><path d="M627,1137L561,1261L695,1288Z" fill="#d36d42" stroke="#d36d42" stroke-width="1.51"/><path d="M585,791L551,994L699,821Z" fill="#f2875b" stroke="#f2875b" stroke-width="1.51"/><path d="M585,791L699,821L714,714Z" fill="#f68e62" stroke="#f68e62" stroke-width="1.51"/><path d="M575,730L585,791L714,714Z" fill="#f89367" stroke="#f89367" stroke-width="1.51"/><path d="M630,-93L477,-20L679,-55Z" fill="#fed3a6" stroke="#fed3a6" stroke-width="1.51"/><path d="M477,-20L562,129L679,-55Z" fill="#fed0a0" stroke="#fed0a0" stroke-width="1.51"/><path d="M441,248L584,392L634,240Z" fill="#fdc28b" stroke="#fdc28b" stroke-width="1.51"/><path d="M448,-194L630,-93L636,-194Z" fill="#ffd8b1" stroke="#ffd8b1" stroke-width="1.51"/><path d="M551,994L481,1006L627,1137Z" fill="#e77b4d" stroke="#e77b4d" stroke-width="1.51"/><path d="M562,129L441,248L634,240Z" fill="#fdc891" stroke="#fdc891" stroke-width="1.51"/><path d="M448,-194L477,-20L630,-93Z" fill="#fed8ae" stroke="#fed8ae" stroke-width="1.51"/><path d="M388,1174L561,1261L627,1137Z" fill="#d97347" stroke="#d97347" stroke-width="1.51"/><path d="M481,1006L388,1174L627,1137Z" fill="#e2794b" stroke="#e2794b" stroke-width="1.51"/><path d="M414,578L380,741L575,730Z" fill="#faa071" stroke="#faa071" stroke-width="1.51"/><path d="M380,741L383,820L575,730Z" fill="#f8996c" stroke="#f8996c" stroke-width="1.51"/><path d="M414,578L575,730L576,560Z" fill="#fca370" stroke="#fca370" stroke-width="1.51"/><path d="M441,248L382,362L584,392Z" fill="#fdc38c" stroke="#fdc38c" stroke-width="1.51"/><path d="M414,578L576,560L584,392Z" fill="#fead77" stroke="#fead77" stroke-width="1.51"/><path d="M382,362L414,578L584,392Z" fill="#feb881" stroke="#feb881" stroke-width="1.51"/><path d="M481,1006L551,994L585,791Z" fill="#f08457" stroke="#f08457" stroke-width="1.51"/><path d="M383,820L481,1006L585,791Z" fill="#f38d5f" stroke="#f38d5f" stroke-width="1.51"/><path d="M575,730L383,820L585,791Z" fill="#f79468" stroke="#f79468" stroke-width="1.51"/><path d="M477,-20L398,119L562,129Z" fill="#fed19e" stroke="#fed19e" stroke-width="1.51"/><path d="M388,1174L407,1286L561,1261Z" fill="#d27449" stroke="#d27449" stroke-width="1.51"/><path d="M398,119L441,248L562,129Z" fill="#fdcd97" stroke="#fdcd97" stroke-width="1.51"/><path d="M302,1256L123,1345L407,1286Z" fill="#cd7852" stroke="#cd7852" stroke-width="1.51"/><path d="M298,-33L398,119L477,-20Z" fill="#fed7a7" stroke="#fed7a7" stroke-width="1.51"/><path d="M448,-194L312,-161L477,-20Z" fill="#feddb4" stroke="#feddb4" stroke-width="1.51"/><path d="M312,-161L298,-33L477,-20Z" fill="#feddb2" stroke="#feddb2" stroke-width="1.51"/><path d="M383,820L293,829L481,1006Z" fill="#f39062" stroke="#f39062" stroke-width="1.51"/><path d="M293,829L239,1039L481,1006Z" fill="#f08a5d" stroke="#f08a5d" stroke-width="1.51"/><path d="M239,1039L388,1174L481,1006Z" fill="#e68153" stroke="#e68153" stroke-width="1.51"/><path d="M250,391L228,518L382,362Z" fill="#ffc08c" stroke="#ffc08c" stroke-width="1.51"/><path d="M298,-33L303,99L398,119Z" fill="#fed8a6" stroke="#fed8a6" stroke-width="1.51"/><path d="M382,362L228,518L414,578Z" fill="#ffb782" stroke="#ffb782" stroke-width="1.51"/><path d="M398,119L329,232L441,248Z" fill="#fdcf98" stroke="#fdcf98" stroke-width="1.51"/><path d="M329,232L382,362L441,248Z" fill="#fdca93" stroke="#fdca93" stroke-width="1.51"/><path d="M239,1039L238,1120L388,1174Z" fill="#e48156" stroke="#e48156" stroke-width="1.51"/><path d="M313,739L380,741L414,578Z" fill="#fba374" stroke="#fba374" stroke-width="1.51"/><path d="M388,1174L302,1256L407,1286Z" fill="#d3784d" stroke="#d3784d" stroke-width="1.51"/><path d="M228,518L313,739L414,578Z" fill="#fdac7b" stroke="#fdac7b" stroke-width="1.51"/><path d="M303,99L329,232L398,119Z" fill="#fdd39d" stroke="#fdd39d" stroke-width="1.51"/><path d="M380,741L313,739L383,820Z" fill="#f99c70" stroke="#f99c70" stroke-width="1.51"/><path d="M329,232L250,391L382,362Z" fill="#fdca94" stroke="#fdca94" stroke-width="1.51"/><path d="M313,739L293,829L383,820Z" fill="#f79b6e" stroke="#f79b6e" stroke-width="1.51"/><path d="M238,1120L302,1256L388,1174Z" fill="#dc7c50" stroke="#dc7c50" stroke-width="1.51"/><path d="M25,1324L-129,1342L123,1345Z" fill="#ca7f61" stroke="#ca7f61" stroke-width="1.51"/><path d="M97,564L79,717L228,518Z" fill="#ffb387" stroke="#ffb387" stroke-width="1.51"/><path d="M137,982L239,1039L293,829Z" fill="#f28e66" stroke="#f28e66" stroke-width="1.51"/><path d="M139,865L137,982L293,829Z" fill="#f5956e" stroke="#f5956e" stroke-width="1.51"/><path d="M298,-33L171,49L303,99Z" fill="#fedcae" stroke="#fedcae" stroke-width="1.51"/><path d="M138,-83L298,-33L312,-161Z" fill="#fee2bb" stroke="#fee2bb" stroke-width="1.51"/><path d="M228,518L79,717L313,739Z" fill="#fdac80" stroke="#fdac80" stroke-width="1.51"/><path d="M303,99L187,212L329,232Z" fill="#fed4a0" stroke="#fed4a0" stroke-width="1.51"/><path d="M187,212L250,391L329,232Z" fill="#fece9c" stroke="#fece9c" stroke-width="1.51"/><path d="M139,865L293,829L313,739Z" fill="#f89c73" stroke="#f89c73" stroke-width="1.51"/><path d="M79,717L139,865L313,739Z" fill="#faa27c" stroke="#faa27c" stroke-width="1.51"/><path d="M99,-172L138,-83L312,-161Z" fill="#ffe6c4" stroke="#ffe6c4" stroke-width="1.51"/><path d="M238,1120L98,1140L302,1256Z" fill="#df8057" stroke="#df8057" stroke-width="1.51"/><path d="M98,1140L123,1345L302,1256Z" fill="#d47e59" stroke="#d47e59" stroke-width="1.51"/><path d="M171,49L187,212L303,99Z" fill="#fed9a8" stroke="#fed9a8" stroke-width="1.51"/><path d="M187,212L115,337L250,391Z" fill="#fece9f" stroke="#fece9f" stroke-width="1.51"/><path d="M138,-83L171,49L298,-33Z" fill="#fee0b8" stroke="#fee0b8" stroke-width="1.51"/><path d="M115,337L228,518L250,391Z" fill="#ffc494" stroke="#ffc494" stroke-width="1.51"/><path d="M115,337L97,564L228,518Z" fill="#ffbf91" stroke="#ffbf91" stroke-width="1.51"/><path d="M98,1140L238,1120L239,1039Z" fill="#e6855d" stroke="#e6855d" stroke-width="1.51"/><path d="M137,982L98,1140L239,1039Z" fill="#ea8962" stroke="#ea8962" stroke-width="1.51"/><path d="M-19,430L97,564L115,337Z" fill="#ffc699" stroke="#ffc699" stroke-width="1.51"/><path d="M98,1140L25,1324L123,1345Z" fill="#d3805e" stroke="#d3805e" stroke-width="1.51"/><path d="M-71,89L30,251L171,49Z" fill="#fedeb4" stroke="#fedeb4" stroke-width="1.51"/><path d="M171,49L30,251L187,212Z" fill="#fed9ab" stroke="#fed9ab" stroke-width="1.51"/><path d="M30,251L115,337L187,212Z" fill="#fed4a6" stroke="#fed4a6" stroke-width="1.51"/><path d="M138,-83L-18,-108L171,49Z" fill="#fee6c2" stroke="#fee6c2" stroke-width="1.51"/><path d="M-18,-108L-71,89L171,49Z" fill="#fee4c1" stroke="#fee4c1" stroke-width="1.51"/><path d="M-18,1165L25,1324L98,1140Z" fill="#db8462" stroke="#db8462" stroke-width="1.51"/><path d="M-42,1010L98,1140L137,982Z" fill="#ec8d69" stroke="#ec8d69" stroke-width="1.51"/><path d="M99,-172L-18,-108L138,-83Z" fill="#fee9ca" stroke="#fee9ca" stroke-width="1.51"/><path d="M79,717L-46,800L139,865Z" fill="#fba481" stroke="#fba481" stroke-width="1.51"/><path d="M-42,1010L137,982L139,865Z" fill="#f3936f" stroke="#f3936f" stroke-width="1.51"/><path d="M-46,800L-42,1010L139,865Z" fill="#f69b79" stroke="#f69b79" stroke-width="1.51"/><path d="M-13,581L79,717L97,564Z" fill="#ffb48c" stroke="#ffb48c" stroke-width="1.51"/><path d="M-19,430L-13,581L97,564Z" fill="#ffbd93" stroke="#ffbd93" stroke-width="1.51"/><path d="M-42,1010L-18,1165L98,1140Z" fill="#e78a68" stroke="#e78a68" stroke-width="1.51"/><path d="M30,251L-19,430L115,337Z" fill="#ffd1a6" stroke="#ffd1a6" stroke-width="1.51"/><path d="M-13,581L-67,653L79,717Z" fill="#ffb38e" stroke="#ffb38e" stroke-width="1.51"/><path d="M-19,-185L-18,-108L99,-172Z" fill="#ffecd1" stroke="#ffecd1" stroke-width="1.51"/><path d="M-67,653L-46,800L79,717Z" fill="#fead8b" stroke="#fead8b" stroke-width="1.51"/><path d="M-46,800L-184,874L-42,1010Z" fill="#f89d7f" stroke="#f89d7f" stroke-width="1.51"/><path d="M-18,1165L-139,1193L25,1324Z" fill="#da8566" stroke="#da8566" stroke-width="1.51"/><path d="M-139,1193L-129,1342L25,1324Z" fill="#d28367" stroke="#d28367" stroke-width="1.51"/><path d="M-71,89L-178,192L30,251Z" fill="#ffdeb8" stroke="#ffdeb8" stroke-width="1.51"/><path d="M-178,192L-116,360L30,251Z" fill="#ffd9b3" stroke="#ffd9b3" stroke-width="1.51"/><path d="M-116,360L-19,430L30,251Z" fill="#ffd2aa" stroke="#ffd2aa" stroke-width="1.51"/><path d="M-184,874L-165,1007L-42,1010Z" fill="#f5977a" stroke="#f5977a" stroke-width="1.51"/><path d="M-165,1007L-139,1193L-42,1010Z" fill="#ec9071" stroke="#ec9071" stroke-width="1.51"/><path d="M-116,360L-212,531L-19,430Z" fill="#ffcaa5" stroke="#ffcaa5" stroke-width="1.51"/><path d="M-198,-58L-71,89L-18,-108Z" fill="#ffe9cc" stroke="#ffe9cc" stroke-width="1.51"/><path d="M-19,-185L-197,-202L-18,-108Z" fill="#ffefd7" stroke="#ffefd7" stroke-width="1.51"/><path d="M-42,1010L-139,1193L-18,1165Z" fill="#e78b6b" stroke="#e78b6b" stroke-width="1.51"/><path d="M-170,646L-67,653L-13,581Z" fill="#ffb794" stroke="#ffb794" stroke-width="1.51"/><path d="M-212,531L-170,646L-13,581Z" fill="#ffbc98" stroke="#ffbc98" stroke-width="1.51"/><path d="M-19,430L-212,531L-13,581Z" fill="#ffc19a" stroke="#ffc19a" stroke-width="1.51"/><path d="M-197,-202L-198,-58L-18,-108Z" fill="#ffeed8" stroke="#ffeed8" stroke-width="1.51"/><path d="M-67,653L-170,646L-46,800Z" fill="#ffb091" stroke="#ffb091" stroke-width="1.51"/><path d="M-170,646L-184,874L-46,800Z" fill="#fdab8e" stroke="#fdab8e" stroke-width="1.51"/><path d="M-204,137L-178,192L-71,89Z" fill="#ffe3be" stroke="#ffe3be" stroke-width="1.51"/><path d="M-198,-58L-204,137L-71,89Z" fill="#ffe7c7" stroke="#ffe7c7" stroke-width="1.51"/><path d="M-165,1007L-184,874L-129,1342Z" fill="#ec9173" stroke="#ec9173" stroke-width="1.51"/><path d="M-178,192L-212,531L-116,360Z" fill="#ffd4b0" stroke="#ffd4b0" stroke-width="1.51"/><path d="M-139,1193L-165,1007L-129,1342Z" fill="#e2896c" stroke="#e2896c" stroke-width="1.51"/><path d="M-204,137L-212,531L-178,192Z" fill="#ffdbb8" stroke="#ffdbb8" stroke-width="1.51"/><path d="M-212,531L-184,874L-170,646Z" fill="#ffb497" stroke="#ffb497" stroke-width="1.51"/><path d="M-204,137L-198,-58L-197,-202Z" fill="#ffecd3" stroke="#ffecd3" stroke-width="1.51"/></svg>