<svg xmlns="http://www.w3.org/2000/svg" width="1920" height="1080"><path d="M-197,-202L-19,-185L448,-194Z" fill="#d0342b" stroke="#d0342b" stroke-width="1.51"/><path d="M-197,-202L448,-194L837,-244Z" fill="#da5c3c" stroke="#da5c3c" stroke-width="1.51"/><path d="M897,1322L123,1345L1016,1332Z" fill="#a78896" stroke="#a78896" stroke-width="1.51"/><path d="M837,-244L1155,-230L1369,-265Z" fill="#da9080" stroke="#da9080" stroke-width="1.51"/><path d="M1016,1332L123,1345L1668,1345Z" fill="#a498ad" stroke="#a498ad" stroke-width="1.51"/><path d="M1451,1329L1016,1332L1668,1345Z" fill="#7c8dc4" stroke="#7c8dc4" stroke-width="1.51"/><path d="M1654,-192L1821,-173L1911,-185Z" fill="#aa6572" stroke="#aa6572" stroke-width="1.51"/><path d="M1654,-192L1911,-185L2060,-232Z" fill="#9f5a6e" stroke="#9f5a6e" stroke-width="1.51"/><path d="M1516,-223L1654,-192L2060,-232Z" fill="#a96974" stroke="#a96974" stroke-width="1.51"/><path d="M1369,-265L1516,-223L2060,-232Z" fill="#ae7179" stroke="#ae7179" stroke-width="1.51"/><path d="M1966,836L2063,873L2076,642Z" fill="#869ccb" stroke="#869ccb" stroke-width="1.51"/><path d="M1952,652L1966,836L2076,642Z" fill="#93a6d1" stroke="#93a6d1" stroke-width="1.51"/><path d="M2070,987L1968,1181L2098,1144Z" fill="#5074b5" stroke="#5074b5" stroke-width="1.51"/><path d="M2076,642L2063,873L2098,1144Z" fill="#748dc3" stroke="#748dc3" stroke-width="1.51"/><path d="M2063,873L2070,987L2098,1144Z" fill="#607fbb" stroke="#607fbb" stroke-width="1.51"/><path d="M2047,56L1886,188L2100,282Z" fill="#ae7d85" stroke="#ae7d85" stroke-width="1.51"/><path d="M2079,-104L2047,56L2100,282Z" fill="#aa6278" stroke="#aa6278" stroke-width="1.51"/><path d="M2100,282L1956,361L2118,381Z" fill="#a99098" stroke="#a99098" stroke-width="1.51"/><path d="M1956,361L2053,487L2118,381Z" fill="#a999a3" stroke="#a999a3" stroke-width="1.51"/><path d="M2053,487L2076,642L2118,381Z" fill="#a69cad" stroke="#a69cad" stroke-width="1.51"/><path d="M2076,642L2098,1144L2118,381Z" fill="#8e97ca" stroke="#8e97ca" stroke-width="1.51"/><path d="M2079,-104L2100,282L2118,381Z" fill="#aa7282" stroke="#aa7282" stroke-width="1.51"/><path d="M2098,1144L1968,1181L2118,1295Z" fill="#4161ab" stroke="#4161ab" stroke-width="1.51"/><path d="M1968,1181L1940,1323L2118,1295Z" fill="#405da9" stroke="#405da9" stroke-width="1.51"/><path d="M2118,381L2098,1144L2118,1295Z" fill="#6982bd" stroke="#6982bd" stroke-width="1.51"/><path d="M1907,1007L1968,1181L2070,987Z" fill="#5984bd" stroke="#5984bd" stroke-width="1.51"/><path d="M2053,487L1915,557L2076,642Z" fill="#a6a8ba" stroke="#a6a8ba" stroke-width="1.51"/><path d="M1915,557L1952,652L2076,642Z" fill="#a0acc4" stroke="#a0acc4" stroke-width="1.51"/><path d="M1909,-80L2047,56L2079,-104Z" fill="#a85970" stroke="#a85970" stroke-width="1.51"/><path d="M1886,188L1956,361L2100,282Z" fill="#ae9194" stroke="#ae9194" stroke-width="1.51"/><path d="M1909,-80L1935,50L2047,56Z" fill="#ae6777" stroke="#ae6777" stroke-width="1.51"/><path d="M1935,50L1886,188L2047,56Z" fill="#b17780" stroke="#b17780" stroke-width="1.51"/><path d="M2063,873L1966,836L2070,987Z" fill="#7392c5" stroke="#7392c5" stroke-width="1.51"/><path d="M1966,836L1907,1007L2070,987Z" fill="#6d94c5" stroke="#6d94c5" stroke-width="1.51"/><path d="M2060,-232L1911,-185L2079,-104Z" fill="#9a4867" stroke="#9a4867" stroke-width="1.51"/><path d="M1911,-185L1909,-80L2079,-104Z" fill="#a5546b" stroke="#a5546b" stroke-width="1.51"/><path d="M1956,361L1915,557L2053,487Z" fill="#aba9ae" stroke="#aba9ae" stroke-width="1.51"/><path d="M695,1288L123,1345L897,1322Z" fill="#a9808d" stroke="#a9808d" stroke-width="1.51"/><path d="M1830,1272L1668,1345L1940,1323Z" fill="#4c6bb0" stroke="#4c6bb0" stroke-width="1.51"/><path d="M1752,659L1839,888L1952,652Z" fill="#98b8d9" stroke="#98b8d9" stroke-width="1.51"/><path d="M1886,188L1729,274L1956,361Z" fill="#b7a19a" stroke="#b7a19a" stroke-width="1.51"/><path d="M1794,422L1915,557L1956,361Z" fill="#b0b2b1" stroke="#b0b2b1" stroke-width="1.51"/><path d="M1952,652L1839,888L1966,836Z" fill="#88abd2" stroke="#88abd2" stroke-width="1.51"/><path d="M1839,888L1907,1007L1966,836Z" fill="#75a2cd" stroke="#75a2cd" stroke-width="1.51"/><path d="M1907,1007L1835,1137L1968,1181Z" fill="#5586bd" stroke="#5586bd" stroke-width="1.51"/><path d="M1830,1272L1940,1323L1968,1181Z" fill="#446baf" stroke="#446baf" stroke-width="1.51"/><path d="M1835,1137L1830,1272L1968,1181Z" fill="#4a7ab7" stroke="#4a7ab7" stroke-width="1.51"/><path d="M1729,274L1794,422L1956,361Z" fill="#b7b0a7" stroke="#b7b0a7" stroke-width="1.51"/><path d="M1915,557L1752,659L1952,652Z" fill="#a6bacc" stroke="#a6bacc" stroke-width="1.51"/><path d="M1794,422L1776,529L1915,557Z" fill="#b4bfbb" stroke="#b4bfbb" stroke-width="1.51"/><path d="M1746,43L1886,188L1935,50Z" fill="#b98486" stroke="#b98486" stroke-width="1.51"/><path d="M1909,-80L1772,-42L1935,50Z" fill="#b26f79" stroke="#b26f79" stroke-width="1.51"/><path d="M1821,-173L1909,-80L1911,-185Z" fill="#a85e6f" stroke="#a85e6f" stroke-width="1.51"/><path d="M1772,-42L1746,43L1935,50Z" fill="#ba7b80" stroke="#ba7b80" stroke-width="1.51"/><path d="M1839,888L1762,989L1907,1007Z" fill="#73a4cd" stroke="#73a4cd" stroke-width="1.51"/><path d="M1762,989L1835,1137L1907,1007Z" fill="#6599c7" stroke="#6599c7" stroke-width="1.51"/><path d="M1776,529L1752,659L1915,557Z" fill="#afc3c9" stroke="#afc3c9" stroke-width="1.51"/><path d="M1821,-173L1772,-42L1909,-80Z" fill="#b16a74" stroke="#b16a74" stroke-width="1.51"/><path d="M407,1286L123,1345L695,1288Z" fill="#ab7180" stroke="#ab7180" stroke-width="1.51"/><path d="M1746,43L1729,274L1886,188Z" fill="#be9991" stroke="#be9991" stroke-width="1.51"/><path d="M1664,231L1729,274L1746,43Z" fill="#c5a596" stroke="#c5a596" stroke-width="1.51"/><path d="M1582,1190L1668,1345L1830,1272Z" fill="#5a82bb" stroke="#5a82bb" stroke-width="1.51"/><path d="M1582,1190L1830,1272L1835,1137Z" fill="#5788bf" stroke="#5788bf" stroke-width="1.51"/><path d="M1591,892L1762,989L1839,888Z" fill="#83b6d6" stroke="#83b6d6" stroke-width="1.51"/><path d="M1752,659L1591,892L1839,888Z" fill="#96c1dc" stroke="#96c1dc" stroke-width="1.51"/><path d="M1762,989L1582,1190L1835,1137Z" fill="#679bc8" stroke="#679bc8" stroke-width="1.51"/><path d="M1654,-192L1772,-42L1821,-173Z" fill="#b56f76" stroke="#b56f76" stroke-width="1.51"/><path d="M1729,274L1687,411L1794,422Z" fill="#bebeae" stroke="#bebeae" stroke-width="1.51"/><path d="M1601,655L1591,892L1752,659Z" fill="#aad0e4" stroke="#aad0e4" stroke-width="1.51"/><path d="M1591,892L1601,952L1762,989Z" fill="#87bbd9" stroke="#87bbd9" stroke-width="1.51"/><path d="M1654,-192L1633,-69L1772,-42Z" fill="#be7b7b" stroke="#be7b7b" stroke-width="1.51"/><path d="M1687,411L1776,529L1794,422Z" fill="#bbc4b9" stroke="#bbc4b9" stroke-width="1.51"/><path d="M1593,44L1664,231L1746,43Z" fill="#c99c91" stroke="#c99c91" stroke-width="1.51"/><path d="M1601,952L1582,1190L1762,989Z" fill="#77aed1" stroke="#77aed1" stroke-width="1.51"/><path d="M1613,535L1752,659L1776,529Z" fill="#b9cfcd" stroke="#b9cfcd" stroke-width="1.51"/><path d="M1687,411L1613,535L1776,529Z" fill="#c0cfc2" stroke="#c0cfc2" stroke-width="1.51"/><path d="M1633,-69L1746,43L1772,-42Z" fill="#c08281" stroke="#c08281" stroke-width="1.51"/><path d="M1613,535L1601,655L1752,659Z" fill="#b9d4d7" stroke="#b9d4d7" stroke-width="1.51"/><path d="M1633,-69L1593,44L1746,43Z" fill="#c88d87" stroke="#c88d87" stroke-width="1.51"/><path d="M1506,788L1591,892L1601,655Z" fill="#acd4e6" stroke="#acd4e6" stroke-width="1.51"/><path d="M1664,231L1687,411L1729,274Z" fill="#c4baa7" stroke="#c4baa7" stroke-width="1.51"/><path d="M1226,1277L1016,1332L1451,1329Z" fill="#8d99cb" stroke="#8d99cb" stroke-width="1.51"/><path d="M1482,1158L1582,1190L1601,952Z" fill="#7aadd2" stroke="#7aadd2" stroke-width="1.51"/><path d="M1593,44L1494,184L1664,231Z" fill="#d2ac99" stroke="#d2ac99" stroke-width="1.51"/><path d="M1664,231L1528,399L1687,411Z" fill="#c9c7b1" stroke="#c9c7b1" stroke-width="1.51"/><path d="M1528,399L1613,535L1687,411Z" fill="#c9d3c0" stroke="#c9d3c0" stroke-width="1.51"/><path d="M1494,184L1528,399L1664,231Z" fill="#d2c2a9" stroke="#d2c2a9" stroke-width="1.51"/><path d="M1582,1190L1451,1329L1668,1345Z" fill="#6888c0" stroke="#6888c0" stroke-width="1.51"/><path d="M1516,-223L1633,-69L1654,-192Z" fill="#bf7c7c" stroke="#bf7c7c" stroke-width="1.51"/><path d="M1468,951L1482,1158L1601,952Z" fill="#8abeda" stroke="#8abeda" stroke-width="1.51"/><path d="M1500,636L1601,655L1613,535Z" fill="#c3ddda" stroke="#c3ddda" stroke-width="1.51"/><path d="M1458,-12L1593,44L1633,-69Z" fill="#d09389" stroke="#d09389" stroke-width="1.51"/><path d="M1516,-223L1458,-12L1633,-69Z" fill="#cd8881" stroke="#cd8881" stroke-width="1.51"/><path d="M1458,-12L1482,42L1593,44Z" fill="#d89d8f" stroke="#d89d8f" stroke-width="1.51"/><path d="M1482,42L1494,184L1593,44Z" fill="#d8a795" stroke="#d8a795" stroke-width="1.51"/><path d="M1500,636L1506,788L1601,655Z" fill="#bdddea" stroke="#bdddea" stroke-width="1.51"/><path d="M1528,399L1464,551L1613,535Z" fill="#cfdfca" stroke="#cfdfca" stroke-width="1.51"/><path d="M1464,551L1500,636L1613,535Z" fill="#cce2d6" stroke="#cce2d6" stroke-width="1.51"/><path d="M1482,1158L1451,1329L1582,1190Z" fill="#729bc9" stroke="#729bc9" stroke-width="1.51"/><path d="M1591,892L1468,951L1601,952Z" fill="#95c6df" stroke="#95c6df" stroke-width="1.51"/><path d="M1494,184L1381,271L1528,399Z" fill="#dbcdaf" stroke="#dbcdaf" stroke-width="1.51"/><path d="M1506,788L1468,951L1591,892Z" fill="#a1d0e4" stroke="#a1d0e4" stroke-width="1.51"/><path d="M-19,-185L99,-172L448,-194Z" fill="#d84331" stroke="#d84331" stroke-width="1.51"/><path d="M1468,951L1318,994L1482,1158Z" fill="#92c4dd" stroke="#92c4dd" stroke-width="1.51"/><path d="M1500,636L1348,716L1506,788Z" fill="#c3e4f0" stroke="#c3e4f0" stroke-width="1.51"/><path d="M1350,786L1468,951L1506,788Z" fill="#b0dbea" stroke="#b0dbea" stroke-width="1.51"/><path d="M1352,-26L1458,-12L1516,-223Z" fill="#d89387" stroke="#d89387" stroke-width="1.51"/><path d="M1369,-265L1352,-26L1516,-223Z" fill="#cf8b84" stroke="#cf8b84" stroke-width="1.51"/><path d="M1349,444L1464,551L1528,399Z" fill="#d9e4c9" stroke="#d9e4c9" stroke-width="1.51"/><path d="M1381,271L1349,444L1528,399Z" fill="#ddddbd" stroke="#ddddbd" stroke-width="1.51"/><path d="M1345,1166L1451,1329L1482,1158Z" fill="#7ca3ce" stroke="#7ca3ce" stroke-width="1.51"/><path d="M1318,994L1345,1166L1482,1158Z" fill="#8eb9d9" stroke="#8eb9d9" stroke-width="1.51"/><path d="M1482,42L1353,63L1494,184Z" fill="#e0af9a" stroke="#e0af9a" stroke-width="1.51"/><path d="M1348,716L1350,786L1506,788Z" fill="#c1e3ef" stroke="#c1e3ef" stroke-width="1.51"/><path d="M1280,1263L1226,1277L1451,1329Z" fill="#8599ca" stroke="#8599ca" stroke-width="1.51"/><path d="M1464,551L1318,591L1500,636Z" fill="#d4eade" stroke="#d4eade" stroke-width="1.51"/><path d="M1318,591L1348,716L1500,636Z" fill="#d2ebe8" stroke="#d2ebe8" stroke-width="1.51"/><path d="M1353,63L1381,271L1494,184Z" fill="#e3bfa2" stroke="#e3bfa2" stroke-width="1.51"/><path d="M1350,786L1318,994L1468,951Z" fill="#acd7e8" stroke="#acd7e8" stroke-width="1.51"/><path d="M1458,-12L1353,63L1482,42Z" fill="#e0a494" stroke="#e0a494" stroke-width="1.51"/><path d="M1345,1166L1280,1263L1451,1329Z" fill="#829fcc" stroke="#829fcc" stroke-width="1.51"/><path d="M1352,-26L1353,63L1458,-12Z" fill="#e3a492" stroke="#e3a492" stroke-width="1.51"/><path d="M1349,444L1318,591L1464,551Z" fill="#dfeed5" stroke="#dfeed5" stroke-width="1.51"/><path d="M1225,484L1318,591L1349,444Z" fill="#e8f0d4" stroke="#e8f0d4" stroke-width="1.51"/><path d="M1195,855L1318,994L1350,786Z" fill="#bbe0ed" stroke="#bbe0ed" stroke-width="1.51"/><path d="M1232,55L1181,203L1353,63Z" fill="#f1bba0" stroke="#f1bba0" stroke-width="1.51"/><path d="M1218,-68L1352,-26L1369,-265Z" fill="#e19487" stroke="#e19487" stroke-width="1.51"/><path d="M1155,-230L1218,-68L1369,-265Z" fill="#dc9188" stroke="#dc9188" stroke-width="1.51"/><path d="M1198,387L1349,444L1381,271Z" fill="#e8e2c0" stroke="#e8e2c0" stroke-width="1.51"/><path d="M1181,203L1198,387L1381,271Z" fill="#efd9b6" stroke="#efd9b6" stroke-width="1.51"/><path d="M1353,63L1181,203L1381,271Z" fill="#ecc5a6" stroke="#ecc5a6" stroke-width="1.51"/><path d="M448,-194L636,-194L837,-244Z" fill="#e17f51" stroke="#e17f51" stroke-width="1.51"/><path d="M1318,994L1164,1195L1345,1166Z" fill="#99bcdb" stroke="#99bcdb" stroke-width="1.51"/><path d="M1318,591L1131,648L1348,716Z" fill="#dff1ed" stroke="#dff1ed" stroke-width="1.51"/><path d="M1198,387L1225,484L1349,444Z" fill="#edeccb" stroke="#edeccb" stroke-width="1.51"/><path d="M1348,716L1195,855L1350,786Z" fill="#c9e7f2" stroke="#c9e7f2" stroke-width="1.51"/><path d="M1218,-68L1232,55L1352,-26Z" fill="#eca693" stroke="#eca693" stroke-width="1.51"/><path d="M1352,-26L1232,55L1353,63Z" fill="#ebaa96" stroke="#ebaa96" stroke-width="1.51"/><path d="M1131,648L1195,855L1348,716Z" fill="#d8eff6" stroke="#d8eff6" stroke-width="1.51"/><path d="M1164,1195L1280,1263L1345,1166Z" fill="#8fadd4" stroke="#8fadd4" stroke-width="1.51"/><path d="M1091,1026L1164,1195L1318,994Z" fill="#a8c9e1" stroke="#a8c9e1" stroke-width="1.51"/><path d="M1129,971L1091,1026L1318,994Z" fill="#b3d5e5" stroke="#b3d5e5" stroke-width="1.51"/><path d="M1195,855L1129,971L1318,994Z" fill="#b9dbeb" stroke="#b9dbeb" stroke-width="1.51"/><path d="M1225,484L1131,648L1318,591Z" fill="#ecf6e1" stroke="#ecf6e1" stroke-width="1.51"/><path d="M1164,1195L1226,1277L1280,1263Z" fill="#92a7d2" stroke="#92a7d2" stroke-width="1.51"/><path d="M1131,648L1037,723L1195,855Z" fill="#e0f2ed" stroke="#e0f2ed" stroke-width="1.51"/><path d="M1181,203L1051,256L1198,387Z" fill="#f8ddb0" stroke="#f8ddb0" stroke-width="1.51"/><path d="M1155,-230L1035,-58L1218,-68Z" fill="#ee9b83" stroke="#ee9b83" stroke-width="1.51"/><path d="M1026,484L1131,648L1225,484Z" fill="#f6fbd3" stroke="#f6fbd3" stroke-width="1.51"/><path d="M1001,54L1181,203L1232,55Z" fill="#f9be99" stroke="#f9be99" stroke-width="1.51"/><path d="M1218,-68L1035,-58L1232,55Z" fill="#f4a990" stroke="#f4a990" stroke-width="1.51"/><path d="M1035,-58L1001,54L1232,55Z" fill="#f9b18b" stroke="#f9b18b" stroke-width="1.51"/><path d="M1017,-159L1035,-58L1155,-230Z" fill="#ec9a7b" stroke="#ec9a7b" stroke-width="1.51"/><path d="M1198,387L1053,411L1225,484Z" fill="#f5efc7" stroke="#f5efc7" stroke-width="1.51"/><path d="M1164,1195L1016,1332L1226,1277Z" fill="#9aa5c9" stroke="#9aa5c9" stroke-width="1.51"/><path d="M1053,411L1026,484L1225,484Z" fill="#f8f4c5" stroke="#f8f4c5" stroke-width="1.51"/><path d="M837,-244L1017,-159L1155,-230Z" fill="#e49673" stroke="#e49673" stroke-width="1.51"/><path d="M1091,1026L1048,1187L1164,1195Z" fill="#a7bfd1" stroke="#a7bfd1" stroke-width="1.51"/><path d="M1048,1187L1016,1332L1164,1195Z" fill="#a0acc5" stroke="#a0acc5" stroke-width="1.51"/><path d="M1001,54L1051,256L1181,203Z" fill="#fccc9a" stroke="#fccc9a" stroke-width="1.51"/><path d="M1037,723L1013,808L1195,855Z" fill="#dbefe6" stroke="#dbefe6" stroke-width="1.51"/><path d="M1051,256L1053,411L1198,387Z" fill="#f8e8b5" stroke="#f8e8b5" stroke-width="1.51"/><path d="M1013,808L1129,971L1195,855Z" fill="#cce7e6" stroke="#cce7e6" stroke-width="1.51"/><path d="M1026,484L897,570L1037,723Z" fill="#f9fccb" stroke="#f9fccb" stroke-width="1.51"/><path d="M1013,808L1091,1026L1129,971Z" fill="#c6e0de" stroke="#c6e0de" stroke-width="1.51"/><path d="M1026,484L1037,723L1131,648Z" fill="#f3f9d9" stroke="#f3f9d9" stroke-width="1.51"/><path d="M894,1013L871,1116L1048,1187Z" fill="#b7c7c2" stroke="#b7c7c2" stroke-width="1.51"/><path d="M1051,256L930,278L1053,411Z" fill="#fee5a5" stroke="#fee5a5" stroke-width="1.51"/><path d="M894,1013L1048,1187L1091,1026Z" fill="#b6cccc" stroke="#b6cccc" stroke-width="1.51"/><path d="M1013,808L894,1013L1091,1026Z" fill="#cae0d4" stroke="#cae0d4" stroke-width="1.51"/><path d="M840,92L930,278L1001,54Z" fill="#ffc785" stroke="#ffc785" stroke-width="1.51"/><path d="M897,570L842,656L1037,723Z" fill="#f6f8cf" stroke="#f6f8cf" stroke-width="1.51"/><path d="M897,1322L1016,1332L1048,1187Z" fill="#a5a5b8" stroke="#a5a5b8" stroke-width="1.51"/><path d="M1001,54L930,278L1051,256Z" fill="#ffd392" stroke="#ffd392" stroke-width="1.51"/><path d="M868,423L1026,484L1053,411Z" fill="#fef5b3" stroke="#fef5b3" stroke-width="1.51"/><path d="M930,278L868,423L1053,411Z" fill="#ffeea6" stroke="#ffeea6" stroke-width="1.51"/><path d="M830,821L894,1013L1013,808Z" fill="#d7e7cf" stroke="#d7e7cf" stroke-width="1.51"/><path d="M871,1116L897,1322L1048,1187Z" fill="#abb4b9" stroke="#abb4b9" stroke-width="1.51"/><path d="M1017,-159L864,-7L1035,-58Z" fill="#f7a674" stroke="#f7a674" stroke-width="1.51"/><path d="M864,-7L1001,54L1035,-58Z" fill="#fdb17b" stroke="#fdb17b" stroke-width="1.51"/><path d="M842,656L1013,808L1037,723Z" fill="#edf7db" stroke="#edf7db" stroke-width="1.51"/><path d="M842,656L830,821L1013,808Z" fill="#e9f0d3" stroke="#e9f0d3" stroke-width="1.51"/><path d="M868,423L897,570L1026,484Z" fill="#fff8b5" stroke="#fff8b5" stroke-width="1.51"/><path d="M785,-194L864,-7L1017,-159Z" fill="#f39b68" stroke="#f39b68" stroke-width="1.51"/><path d="M837,-244L785,-194L1017,-159Z" fill="#e79367" stroke="#e79367" stroke-width="1.51"/><path d="M864,-7L840,92L1001,54Z" fill="#ffb57a" stroke="#ffb57a" stroke-width="1.51"/><path d="M561,1261L407,1286L695,1288Z" fill="#ac878e" stroke="#ac878e" stroke-width="1.51"/><path d="M830,821L749,990L894,1013Z" fill="#d0d9c3" stroke="#d0d9c3" stroke-width="1.51"/><path d="M871,1116L768,1152L897,1322Z" fill="#adb0b1" stroke="#adb0b1" stroke-width="1.51"/><path d="M840,92L735,235L930,278Z" fill="#ffcd82" stroke="#ffcd82" stroke-width="1.51"/><path d="M735,235L785,349L930,278Z" fill="#ffd98d" stroke="#ffd98d" stroke-width="1.51"/><path d="M785,349L868,423L930,278Z" fill="#ffe59a" stroke="#ffe59a" stroke-width="1.51"/><path d="M749,990L871,1116L894,1013Z" fill="#c1ccbd" stroke="#c1ccbd" stroke-width="1.51"/><path d="M768,1152L695,1288L897,1322Z" fill="#aba1a7" stroke="#aba1a7" stroke-width="1.51"/><path d="M868,423L717,544L897,570Z" fill="#fff4ae" stroke="#fff4ae" stroke-width="1.51"/><path d="M717,544L842,656L897,570Z" fill="#fcf4ba" stroke="#fcf4ba" stroke-width="1.51"/><path d="M785,-194L679,-55L864,-7Z" fill="#f49961" stroke="#f49961" stroke-width="1.51"/><path d="M714,714L830,821L842,656Z" fill="#efeccb" stroke="#efeccb" stroke-width="1.51"/><path d="M743,59L840,92L864,-7Z" fill="#feaf72" stroke="#feaf72" stroke-width="1.51"/><path d="M785,349L717,544L868,423Z" fill="#ffeaa0" stroke="#ffeaa0" stroke-width="1.51"/><path d="M749,990L768,1152L871,1116Z" fill="#bbc1b6" stroke="#bbc1b6" stroke-width="1.51"/><path d="M679,-55L743,59L864,-7Z" fill="#faa468" stroke="#faa468" stroke-width="1.51"/><path d="M99,-172L312,-161L448,-194Z" fill="#de5337" stroke="#de5337" stroke-width="1.51"/><path d="M699,821L749,990L830,821Z" fill="#d9dec1" stroke="#d9dec1" stroke-width="1.51"/><path d="M714,714L699,821L830,821Z" fill="#e7e5c4" stroke="#e7e5c4" stroke-width="1.51"/><path d="M636,-194L785,-194L837,-244Z" fill="#e2895b" stroke="#e2895b" stroke-width="1.51"/><path d="M743,59L735,235L840,92Z" fill="#febc75" stroke="#febc75" stroke-width="1.51"/><path d="M717,544L714,714L842,656Z" fill="#f8eebc" stroke="#f8eebc" stroke-width="1.51"/><path d="M636,-194L630,-93L679,-55Z" fill="#f08953" stroke="#f08953" stroke-width="1.51"/><path d="M634,240L735,235L743,59Z" fill="#fec074" stroke="#fec074" stroke-width="1.51"/><path d="M749,990L627,1137L768,1152Z" fill="#bbbbad" stroke="#bbbbad" stroke-width="1.51"/><path d="M584,392L717,544L785,349Z" fill="#ffe295" stroke="#ffe295" stroke-width="1.51"/><path d="M735,235L634,240L785,349Z" fill="#fed181" stroke="#fed181" stroke-width="1.51"/><path d="M634,240L584,392L785,349Z" fill="#ffd484" stroke="#ffd484" stroke-width="1.51"/><path d="M636,-194L679,-55L785,-194Z" fill="#eb8b57" stroke="#eb8b57" stroke-width="1.51"/><path d="M562,129L634,240L743,59Z" fill="#feb36a" stroke="#feb36a" stroke-width="1.51"/><path d="M627,1137L695,1288L768,1152Z" fill="#b0a7a3" stroke="#b0a7a3" stroke-width="1.51"/><path d="M576,560L714,714L717,544Z" fill="#fbe7ae" stroke="#fbe7ae" stroke-width="1.51"/><path d="M699,821L551,994L749,990Z" fill="#d2ceb4" stroke="#d2ceb4" stroke-width="1.51"/><path d="M551,994L627,1137L749,990Z" fill="#c4bdaa" stroke="#c4bdaa" stroke-width="1.51"/><path d="M679,-55L562,129L743,59Z" fill="#fca263" stroke="#fca263" stroke-width="1.51"/><path d="M576,560L575,730L714,714Z" fill="#f7e1b4" stroke="#f7e1b4" stroke-width="1.51"/><path d="M584,392L576,560L717,544Z" fill="#ffe198" stroke="#ffe198" stroke-width="1.51"/><path d="M627,1137L561,1261L695,1288Z" fill="#af999a" stroke="#af999a" stroke-width="1.51"/><path d="M585,791L551,994L699,821Z" fill="#ddd2b3" stroke="#ddd2b3" stroke-width="1.51"/><path d="M585,791L699,821L714,714Z" fill="#eadebc" stroke="#eadebc" stroke-width="1.51"/><path d="M575,730L585,791L714,714Z" fill="#efdcb9" stroke="#efdcb9" stroke-width="1.51"/><path d="M630,-93L477,-20L679,-55Z" fill="#f38c53" stroke="#f38c53" stroke-width="1.51"/><path d="M477,-20L562,129L679,-55Z" fill="#f89458" stroke="#f89458" stroke-width="1.51"/><path d="M441,248L584,392L634,240Z" fill="#fec274" stroke="#fec274" stroke-width="1.51"/><path d="M448,-194L630,-93L636,-194Z" fill="#e87c4b" stroke="#e87c4b" stroke-width="1.51"/><path d="M551,994L481,1006L627,1137Z" fill="#c5b3a1" stroke="#c5b3a1" stroke-width="1.51"/><path d="M562,129L441,248L634,240Z" fill="#feb467" stroke="#feb467" stroke-width="1.51"/><path d="M448,-194L477,-20L630,-93Z" fill="#ee7d48" stroke="#ee7d48" stroke-width="1.51"/><path d="M388,1174L561,1261L627,1137Z" fill="#b39793" stroke="#b39793" stroke-width="1.51"/><path d="M481,1006L388,1174L627,1137Z" fill="#bea397" stroke="#bea397" stroke-width="1.51"/><path d="M414,578L380,741L575,730Z" fill="#f8cea7" stroke="#f8cea7" stroke-width="1.51"/><path d="M380,741L383,820L575,730Z" fill="#eec8a8" stroke="#eec8a8" stroke-width="1.51"/><path d="M414,578L575,730L576,560Z" fill="#fcd8a2" stroke="#fcd8a2" stroke-width="1.51"/><path d="M441,248L382,362L584,392Z" fill="#fec072" stroke="#fec072" stroke-width="1.51"/><path d="M414,578L576,560L584,392Z" fill="#ffd890" stroke="#ffd890" stroke-width="1.51"/><path d="M382,362L414,578L584,392Z" fill="#ffcb81" stroke="#ffcb81" stroke-width="1.51"/><path d="M481,1006L551,994L585,791Z" fill="#d6c2a7" stroke="#d6c2a7" stroke-width="1.51"/><path d="M383,820L481,1006L585,791Z" fill="#dfc4a6" stroke="#dfc4a6" stroke-width="1.51"/><path d="M575,730L383,820L585,791Z" fill="#ebcead" stroke="#ebcead" stroke-width="1.51"/><path d="M477,-20L398,119L562,129Z" fill="#fa9554" stroke="#fa9554" stroke-width="1.51"/><path d="M388,1174L407,1286L561,1261Z" fill="#b08588" stroke="#b08588" stroke-width="1.51"/><path d="M398,119L441,248L562,129Z" fill="#fca45c" stroke="#fca45c" stroke-width="1.51"/><path d="M302,1256L123,1345L407,1286Z" fill="#ab6378" stroke="#ab6378" stroke-width="1.51"/><path d="M298,-33L398,119L477,-20Z" fill="#f57f4a" stroke="#f57f4a" stroke-width="1.51"/><path d="M448,-194L312,-161L477,-20Z" fill="#e96c3e" stroke="#e96c3e" stroke-width="1.51"/><path d="M312,-161L298,-33L477,-20Z" fill="#ed6c40" stroke="#ed6c40" stroke-width="1.51"/><path d="M383,820L293,829L481,1006Z" fill="#ddb69e" stroke="#ddb69e" stroke-width="1.51"/><path d="M293,829L239,1039L481,1006Z" fill="#d3a796" stroke="#d3a796" stroke-width="1.51"/><path d="M239,1039L388,1174L481,1006Z" fill="#c39a90" stroke="#c39a90" stroke-width="1.51"/><path d="M250,391L228,518L382,362Z" fill="#feb372" stroke="#feb372" stroke-width="1.51"/><path d="M298,-33L303,99L398,119Z" fill="#f77e4a" stroke="#f77e4a" stroke-width="1.51"/><path d="M382,362L228,518L414,578Z" fill="#ffc07e" stroke="#ffc07e" stroke-width="1.51"/><path d="M398,119L329,232L441,248Z" fill="#fca05a" stroke="#fca05a" stroke-width="1.51"/><path d="M329,232L382,362L441,248Z" fill="#fdad65" stroke="#fdad65" stroke-width="1.51"/><path d="M239,1039L238,1120L388,1174Z" fill="#be8988" stroke="#be8988" stroke-width="1.51"/><path d="M313,739L380,741L414,578Z" fill="#f8c3a1" stroke="#f8c3a1" stroke-width="1.51"/><path d="M388,1174L302,1256L407,1286Z" fill="#b07a83" stroke="#b07a83" stroke-width="1.51"/><path d="M228,518L313,739L414,578Z" fill="#fdbf90" stroke="#fdbf90" stroke-width="1.51"/><path d="M303,99L329,232L398,119Z" fill="#fa9153" stroke="#fa9153" stroke-width="1.51"/><path d="M380,741L313,739L383,820Z" fill="#eebca0" stroke="#eebca0" stroke-width="1.51"/><path d="M329,232L250,391L382,362Z" fill="#fdac67" stroke="#fdac67" stroke-width="1.51"/><path d="M313,739L293,829L383,820Z" fill="#eab79e" stroke="#eab79e" stroke-width="1.51"/><path d="M238,1120L302,1256L388,1174Z" fill="#b57e83" stroke="#b57e83" stroke-width="1.51"/><path d="M25,1324L-129,1342L123,1345Z" fill="#9c3c63" stroke="#9c3c63" stroke-width="1.51"/><path d="M97,564L79,717L228,518Z" fill="#f8ac82" stroke="#f8ac82" stroke-width="1.51"/><path d="M137,982L239,1039L293,829Z" fill="#d49a8e" stroke="#d49a8e" stroke-width="1.51"/><path d="M139,865L137,982L293,829Z" fill="#db9e90" stroke="#db9e90" stroke-width="1.51"/><path d="M298,-33L171,49L303,99Z" fill="#f46f43" stroke="#f46f43" stroke-width="1.51"/><path d="M138,-83L298,-33L312,-161Z" fill="#e85837" stroke="#e85837" stroke-width="1.51"/><path d="M228,518L79,717L313,739Z" fill="#f8b091" stroke="#f8b091" stroke-width="1.51"/><path d="M303,99L187,212L329,232Z" fill="#f98e51" stroke="#f98e51" stroke-width="1.51"/><path d="M187,212L250,391L329,232Z" fill="#fb9c5c" stroke="#fb9c5c" stroke-width="1.51"/><path d="M139,865L293,829L313,739Z" fill="#e8ab97" stroke="#e8ab97" stroke-width="1.51"/><path d="M79,717L139,865L313,739Z" fill="#eaa794" stroke="#eaa794" stroke-width="1.51"/><path d="M99,-172L138,-83L312,-161Z" fill="#df4831" stroke="#df4831" stroke-width="1.51"/><path d="M238,1120L98,1140L302,1256Z" fill="#b5757e" stroke="#b5757e" stroke-width="1.51"/><path d="M98,1140L123,1345L302,1256Z" fill="#ac6275" stroke="#ac6275" stroke-width="1.51"/><path d="M171,49L187,212L303,99Z" fill="#f67b48" stroke="#f67b48" stroke-width="1.51"/><path d="M187,212L115,337L250,391Z" fill="#f9995c" stroke="#f9995c" stroke-width="1.51"/><path d="M138,-83L171,49L298,-33Z" fill="#ec5e3a" stroke="#ec5e3a" stroke-width="1.51"/><path d="M115,337L228,518L250,391Z" fill="#fca86b" stroke="#fca86b" stroke-width="1.51"/><path d="M115,337L97,564L228,518Z" fill="#faa870" stroke="#faa870" stroke-width="1.51"/><path d="M98,1140L238,1120L239,1039Z" fill="#be8082" stroke="#be8082" stroke-width="1.51"/><path d="M137,982L98,1140L239,1039Z" fill="#c28583" stroke="#c28583" stroke-width="1.51"/><path d="M-19,430L97,564L115,337Z" fill="#f59d66" stroke="#f59d66" stroke-width="1.51"/><path d="M98,1140L25,1324L123,1345Z" fill="#a6546d" stroke="#a6546d" stroke-width="1.51"/><path d="M-71,89L30,251L171,49Z" fill="#eb6a3e" stroke="#eb6a3e" stroke-width="1.51"/><path d="M171,49L30,251L187,212Z" fill="#f27b48" stroke="#f27b48" stroke-width="1.51"/><path d="M30,251L115,337L187,212Z" fill="#f48a51" stroke="#f48a51" stroke-width="1.51"/><path d="M138,-83L-18,-108L171,49Z" fill="#e44d32" stroke="#e44d32" stroke-width="1.51"/><path d="M-18,-108L-71,89L171,49Z" fill="#e44f33" stroke="#e44f33" stroke-width="1.51"/><path d="M-18,1165L25,1324L98,1140Z" fill="#a85d6f" stroke="#a85d6f" stroke-width="1.51"/><path d="M-42,1010L98,1140L137,982Z" fill="#c07e7d" stroke="#c07e7d" stroke-width="1.51"/><path d="M99,-172L-18,-108L138,-83Z" fill="#dc3b2b" stroke="#dc3b2b" stroke-width="1.51"/><path d="M79,717L-46,800L139,865Z" fill="#e2998b" stroke="#e2998b" stroke-width="1.51"/><path d="M-42,1010L137,982L139,865Z" fill="#cd8c84" stroke="#cd8c84" stroke-width="1.51"/><path d="M-46,800L-42,1010L139,865Z" fill="#d38d84" stroke="#d38d84" stroke-width="1.51"/><path d="M-13,581L79,717L97,564Z" fill="#f3a280" stroke="#f3a280" stroke-width="1.51"/><path d="M-19,430L-13,581L97,564Z" fill="#f5a16e" stroke="#f5a16e" stroke-width="1.51"/><path d="M-42,1010L-18,1165L98,1140Z" fill="#b56e75" stroke="#b56e75" stroke-width="1.51"/><path d="M30,251L-19,430L115,337Z" fill="#f18f57" stroke="#f18f57" stroke-width="1.51"/><path d="M-13,581L-67,653L79,717Z" fill="#ef9c81" stroke="#ef9c81" stroke-width="1.51"/><path d="M-19,-185L-18,-108L99,-172Z" fill="#d33028" stroke="#d33028" stroke-width="1.51"/><path d="M-67,653L-46,800L79,717Z" fill="#e89889" stroke="#e89889" stroke-width="1.51"/><path d="M-46,800L-184,874L-42,1010Z" fill="#c88581" stroke="#c88581" stroke-width="1.51"/><path d="M-18,1165L-139,1193L25,1324Z" fill="#a1526b" stroke="#a1526b" stroke-width="1.51"/><path d="M-139,1193L-129,1342L25,1324Z" fill="#984365" stroke="#984365" stroke-width="1.51"/><path d="M-71,89L-178,192L30,251Z" fill="#e36a40" stroke="#e36a40" stroke-width="1.51"/><path d="M-178,192L-116,360L30,251Z" fill="#e4794a" stroke="#e4794a" stroke-width="1.51"/><path d="M-116,360L-19,430L30,251Z" fill="#ec8a55" stroke="#ec8a55" stroke-width="1.51"/><path d="M-184,874L-165,1007L-42,1010Z" fill="#ba7a7c" stroke="#ba7a7c" stroke-width="1.51"/><path d="M-165,1007L-139,1193L-42,1010Z" fill="#ad6c76" stroke="#ad6c76" stroke-width="1.51"/><path d="M-116,360L-212,531L-19,430Z" fill="#e68f61" stroke="#e68f61" stroke-width="1.51"/><path d="M-198,-58L-71,89L-18,-108Z" fill="#d53d2f" stroke="#d53d2f" stroke-width="1.51"/><path d="M-19,-185L-197,-202L-18,-108Z" fill="#c82527" stroke="#c82527" stroke-width="1.51"/><path d="M-42,1010L-139,1193L-18,1165Z" fill="#ab6572" stroke="#ab6572" stroke-width="1.51"/><path d="M-170,646L-67,653L-13,581Z" fill="#e6977d" stroke="#e6977d" stroke-width="1.51"/><path d="M-212,531L-170,646L-13,581Z" fill="#e49576" stroke="#e49576" stroke-width="1.51"/><path d="M-19,430L-212,531L-13,581Z" fill="#eb986b" stroke="#eb986b" stroke-width="1.51"/><path d="M-197,-202L-198,-58L-18,-108Z" fill="#c82527" stroke="#c82527" stroke-width="1.51"/><path d="M-67,653L-170,646L-46,800Z" fill="#e19388" stroke="#e19388" stroke-width="1.51"/><path d="M-170,646L-184,874L-46,800Z" fill="#d38c86" stroke="#d38c86" stroke-width="1.51"/><path d="M-204,137L-178,192L-71,89Z" fill="#d95d3d" stroke="#d95d3d" stroke-width="1.51"/><path d="M-198,-58L-204,137L-71,89Z" fill="#d64a36" stroke="#d64a36" stroke-width="1.51"/><path d="M-165,1007L-184,874L-129,1342Z" fill="#a76875" stroke="#a76875" stroke-width="1.51"/><path d="M-178,192L-212,531L-116,360Z" fill="#de8356" stroke="#de8356" stroke-width="1.51"/><path d="M-139,1193L-165,1007L-129,1342Z" fill="#9b566d" stroke="#9b566d" stroke-width="1.51"/><path d="M-204,137L-212,531L-178,192Z" fill="#d9754c" stroke="#d9754c" stroke-width="1.51"/><path d="M-212,531L-184,874L-170,646Z" fill="#d88e85" stroke="#d88e85" stroke-width="1.51"/><path d="M-204,137L-198,-58L-197,-202Z" fill="#c9332d" stroke="#c9332d" stroke-width="1.51"/></svg>