<svg xmlns="http://www.w3.org/2000/svg" width="1920" height="1080"><path d="M-197,-202L-19,-185L448,-194Z" fill="#eaf6f9" stroke="#eaf6f9" stroke-width="1.51"/><path d="M-197,-202L448,-194L837,-244Z" fill="#dff3f1" stroke="#dff3f1" stroke-width="1.51"/><path d="M897,1322L123,1345L1016,1332Z" fill="#4f8e6e" stroke="#4f8e6e" stroke-width="1.51"/><path d="M837,-244L1155,-230L1369,-265Z" fill="#a7d9c2" stroke="#a7d9c2" stroke-width="1.51"/><path d="M1016,1332L123,1345L1668,1345Z" fill="#38845e" stroke="#38845e" stroke-width="1.51"/><path d="M1451,1329L1016,1332L1668,1345Z" fill="#1c743e" stroke="#1c743e" stroke-width="1.51"/><path d="M1654,-192L1821,-173L1911,-185Z" fill="#86b591" stroke="#86b591" stroke-width="1.51"/><path d="M1654,-192L1911,-185L2060,-232Z" fill="#84b18e" stroke="#84b18e" stroke-width="1.51"/><path d="M1516,-223L1654,-192L2060,-232Z" fill="#8ab995" stroke="#8ab995" stroke-width="1.51"/><path d="M1369,-265L1516,-223L2060,-232Z" fill="#8ebe99" stroke="#8ebe99" stroke-width="1.51"/><path d="M1966,836L2063,873L2076,642Z" fill="#207d46" stroke="#207d46" stroke-width="1.51"/><path d="M1952,652L1966,836L2076,642Z" fill="#288550" stroke="#288550" stroke-width="1.51"/><path d="M2070,987L1968,1181L2098,1144Z" fill="#04642a" stroke="#04642a" stroke-width="1.51"/><path d="M2076,642L2063,873L2098,1144Z" fill="#187239" stroke="#187239" stroke-width="1.51"/><path d="M2063,873L2070,987L2098,1144Z" fill="#0d692f" stroke="#0d692f" stroke-width="1.51"/><path d="M2047,56L1886,188L2100,282Z" fill="#689d7c" stroke="#689d7c" stroke-width="1.51"/><path d="M2079,-104L2047,56L2100,282Z" fill="#6e9c7f" stroke="#6e9c7f" stroke-width="1.51"/><path d="M2100,282L1956,361L2118,381Z" fill="#519270" stroke="#519270" stroke-width="1.51"/><path d="M1956,361L2053,487L2118,381Z" fill="#4a906b" stroke="#4a906b" stroke-width="1.51"/><path d="M2053,487L2076,642L2118,381Z" fill="#3c8861" stroke="#3c8861" stroke-width="1.51"/><path d="M2076,642L2098,1144L2118,381Z" fill="#257c4b" stroke="#257c4b" stroke-width="1.51"/><path d="M2079,-104L2100,282L2118,381Z" fill="#649678" stroke="#649678" stroke-width="1.51"/><path d="M2098,1144L1968,1181L2118,1295Z" fill="#005a24" stroke="#005a24" stroke-width="1.51"/><path d="M1968,1181L1940,1323L2118,1295Z" fill="#005723" stroke="#005723" stroke-width="1.51"/><path d="M2118,381L2098,1144L2118,1295Z" fill="#126b32" stroke="#126b32" stroke-width="1.51"/><path d="M1907,1007L1968,1181L2070,987Z" fill="#096b2e" stroke="#096b2e" stroke-width="1.51"/><path d="M2053,487L1915,557L2076,642Z" fill="#378a5e" stroke="#378a5e" stroke-width="1.51"/><path d="M1915,557L1952,652L2076,642Z" fill="#328a5a" stroke="#328a5a" stroke-width="1.51"/><path d="M1909,-80L2047,56L2079,-104Z" fill="#78a386" stroke="#78a386" stroke-width="1.51"/><path d="M1886,188L1956,361L2100,282Z" fill="#5c9b77" stroke="#5c9b77" stroke-width="1.51"/><path d="M1909,-80L1935,50L2047,56Z" fill="#76a686" stroke="#76a686" stroke-width="1.51"/><path d="M1935,50L1886,188L2047,56Z" fill="#71a583" stroke="#71a583" stroke-width="1.51"/><path d="M2063,873L1966,836L2070,987Z" fill="#177439" stroke="#177439" stroke-width="1.51"/><path d="M1966,836L1907,1007L2070,987Z" fill="#147436" stroke="#147436" stroke-width="1.51"/><path d="M2060,-232L1911,-185L2079,-104Z" fill="#7da589" stroke="#7da589" stroke-width="1.51"/><path d="M1911,-185L1909,-80L2079,-104Z" fill="#7da98a" stroke="#7da98a" stroke-width="1.51"/><path d="M1956,361L1915,557L2053,487Z" fill="#449268" stroke="#449268" stroke-width="1.51"/><path d="M695,1288L123,1345L897,1322Z" fill="#599373" stroke="#599373" stroke-width="1.51"/><path d="M1830,1272L1668,1345L1940,1323Z" fill="#026027" stroke="#026027" stroke-width="1.51"/><path d="M1752,659L1839,888L1952,652Z" fill="#298e52" stroke="#298e52" stroke-width="1.51"/><path d="M1886,188L1729,274L1956,361Z" fill="#60a47b" stroke="#60a47b" stroke-width="1.51"/><path d="M1794,422L1915,557L1956,361Z" fill="#49996d" stroke="#49996d" stroke-width="1.51"/><path d="M1952,652L1839,888L1966,836Z" fill="#228549" stroke="#228549" stroke-width="1.51"/><path d="M1839,888L1907,1007L1966,836Z" fill="#187c3c" stroke="#187c3c" stroke-width="1.51"/><path d="M1907,1007L1835,1137L1968,1181Z" fill="#056d2d" stroke="#056d2d" stroke-width="1.51"/><path d="M1830,1272L1940,1323L1968,1181Z" fill="#005f26" stroke="#005f26" stroke-width="1.51"/><path d="M1835,1137L1830,1272L1968,1181Z" fill="#00672a" stroke="#00672a" stroke-width="1.51"/><path d="M1729,274L1794,422L1956,361Z" fill="#57a278" stroke="#57a278" stroke-width="1.51"/><path d="M1915,557L1752,659L1952,652Z" fill="#34925d" stroke="#34925d" stroke-width="1.51"/><path d="M1794,422L1776,529L1915,557Z" fill="#439a6b" stroke="#439a6b" stroke-width="1.51"/><path d="M1746,43L1886,188L1935,50Z" fill="#75ac86" stroke="#75ac86" stroke-width="1.51"/><path d="M1909,-80L1772,-42L1935,50Z" fill="#7bae8b" stroke="#7bae8b" stroke-width="1.51"/><path d="M1821,-173L1909,-80L1911,-185Z" fill="#81af8d" stroke="#81af8d" stroke-width="1.51"/><path d="M1772,-42L1746,43L1935,50Z" fill="#7bb08b" stroke="#7bb08b" stroke-width="1.51"/><path d="M1839,888L1762,989L1907,1007Z" fill="#157c39" stroke="#157c39" stroke-width="1.51"/><path d="M1762,989L1835,1137L1907,1007Z" fill="#0d7634" stroke="#0d7634" stroke-width="1.51"/><path d="M1776,529L1752,659L1915,557Z" fill="#3a9764" stroke="#3a9764" stroke-width="1.51"/><path d="M1821,-173L1772,-42L1909,-80Z" fill="#81b28f" stroke="#81b28f" stroke-width="1.51"/><path d="M407,1286L123,1345L695,1288Z" fill="#67997b" stroke="#67997b" stroke-width="1.51"/><path d="M1746,43L1729,274L1886,188Z" fill="#70ad86" stroke="#70ad86" stroke-width="1.51"/><path d="M1664,231L1729,274L1746,43Z" fill="#72b188" stroke="#72b188" stroke-width="1.51"/><path d="M1582,1190L1668,1345L1830,1272Z" fill="#0a6a2e" stroke="#0a6a2e" stroke-width="1.51"/><path d="M1582,1190L1830,1272L1835,1137Z" fill="#076e2f" stroke="#076e2f" stroke-width="1.51"/><path d="M1591,892L1762,989L1839,888Z" fill="#1e8541" stroke="#1e8541" stroke-width="1.51"/><path d="M1752,659L1591,892L1839,888Z" fill="#278e4e" stroke="#278e4e" stroke-width="1.51"/><path d="M1762,989L1582,1190L1835,1137Z" fill="#0f7734" stroke="#0f7734" stroke-width="1.51"/><path d="M1654,-192L1772,-42L1821,-173Z" fill="#86b793" stroke="#86b793" stroke-width="1.51"/><path d="M1729,274L1687,411L1794,422Z" fill="#59a67a" stroke="#59a67a" stroke-width="1.51"/><path d="M1601,655L1591,892L1752,659Z" fill="#31985b" stroke="#31985b" stroke-width="1.51"/><path d="M1591,892L1601,952L1762,989Z" fill="#1f8742" stroke="#1f8742" stroke-width="1.51"/><path d="M1654,-192L1633,-69L1772,-42Z" fill="#87ba96" stroke="#87ba96" stroke-width="1.51"/><path d="M1687,411L1776,529L1794,422Z" fill="#4da172" stroke="#4da172" stroke-width="1.51"/><path d="M1593,44L1664,231L1746,43Z" fill="#7bb68f" stroke="#7bb68f" stroke-width="1.51"/><path d="M1601,952L1582,1190L1762,989Z" fill="#19803c" stroke="#19803c" stroke-width="1.51"/><path d="M1613,535L1752,659L1776,529Z" fill="#3f9c69" stroke="#3f9c69" stroke-width="1.51"/><path d="M1687,411L1613,535L1776,529Z" fill="#4aa272" stroke="#4aa272" stroke-width="1.51"/><path d="M1633,-69L1746,43L1772,-42Z" fill="#81b692" stroke="#81b692" stroke-width="1.51"/><path d="M1613,535L1601,655L1752,659Z" fill="#3d9e67" stroke="#3d9e67" stroke-width="1.51"/><path d="M1633,-69L1593,44L1746,43Z" fill="#82b994" stroke="#82b994" stroke-width="1.51"/><path d="M1506,788L1591,892L1601,655Z" fill="#309959" stroke="#309959" stroke-width="1.51"/><path d="M1664,231L1687,411L1729,274Z" fill="#62ac81" stroke="#62ac81" stroke-width="1.51"/><path d="M1226,1277L1016,1332L1451,1329Z" fill="#257d4b" stroke="#257d4b" stroke-width="1.51"/><path d="M1482,1158L1582,1190L1601,952Z" fill="#19803c" stroke="#19803c" stroke-width="1.51"/><path d="M1593,44L1494,184L1664,231Z" fill="#7ab990" stroke="#7ab990" stroke-width="1.51"/><path d="M1664,231L1528,399L1687,411Z" fill="#5fad81" stroke="#5fad81" stroke-width="1.51"/><path d="M1528,399L1613,535L1687,411Z" fill="#52a979" stroke="#52a979" stroke-width="1.51"/><path d="M1494,184L1528,399L1664,231Z" fill="#6cb48a" stroke="#6cb48a" stroke-width="1.51"/><path d="M1582,1190L1451,1329L1668,1345Z" fill="#116e32" stroke="#116e32" stroke-width="1.51"/><path d="M1516,-223L1633,-69L1654,-192Z" fill="#8dbf9b" stroke="#8dbf9b" stroke-width="1.51"/><path d="M1468,951L1482,1158L1601,952Z" fill="#218844" stroke="#218844" stroke-width="1.51"/><path d="M1500,636L1601,655L1613,535Z" fill="#41a26c" stroke="#41a26c" stroke-width="1.51"/><path d="M1458,-12L1593,44L1633,-69Z" fill="#87be99" stroke="#87be99" stroke-width="1.51"/><path d="M1516,-223L1458,-12L1633,-69Z" fill="#8dc29e" stroke="#8dc29e" stroke-width="1.51"/><path d="M1458,-12L1482,42L1593,44Z" fill="#87c19b" stroke="#87c19b" stroke-width="1.51"/><path d="M1482,42L1494,184L1593,44Z" fill="#82be97" stroke="#82be97" stroke-width="1.51"/><path d="M1500,636L1506,788L1601,655Z" fill="#3aa065" stroke="#3aa065" stroke-width="1.51"/><path d="M1528,399L1464,551L1613,535Z" fill="#50aa7a" stroke="#50aa7a" stroke-width="1.51"/><path d="M1464,551L1500,636L1613,535Z" fill="#46a773" stroke="#46a773" stroke-width="1.51"/><path d="M1482,1158L1451,1329L1582,1190Z" fill="#17783a" stroke="#17783a" stroke-width="1.51"/><path d="M1591,892L1468,951L1601,952Z" fill="#258d48" stroke="#258d48" stroke-width="1.51"/><path d="M1494,184L1381,271L1528,399Z" fill="#6eb991" stroke="#6eb991" stroke-width="1.51"/><path d="M1506,788L1468,951L1591,892Z" fill="#2b9351" stroke="#2b9351" stroke-width="1.51"/><path d="M-19,-185L99,-172L448,-194Z" fill="#e5f6f6" stroke="#e5f6f6" stroke-width="1.51"/><path d="M1468,951L1318,994L1482,1158Z" fill="#258d4b" stroke="#258d4b" stroke-width="1.51"/><path d="M1500,636L1348,716L1506,788Z" fill="#3ca46a" stroke="#3ca46a" stroke-width="1.51"/><path d="M1350,786L1468,951L1506,788Z" fill="#329b5b" stroke="#329b5b" stroke-width="1.51"/><path d="M1352,-26L1458,-12L1516,-223Z" fill="#91c7a6" stroke="#91c7a6" stroke-width="1.51"/><path d="M1369,-265L1352,-26L1516,-223Z" fill="#96caa9" stroke="#96caa9" stroke-width="1.51"/><path d="M1349,444L1464,551L1528,399Z" fill="#57b183" stroke="#57b183" stroke-width="1.51"/><path d="M1381,271L1349,444L1528,399Z" fill="#65b78e" stroke="#65b78e" stroke-width="1.51"/><path d="M1345,1166L1451,1329L1482,1158Z" fill="#1c7d40" stroke="#1c7d40" stroke-width="1.51"/><path d="M1318,994L1345,1166L1482,1158Z" fill="#238a4a" stroke="#238a4a" stroke-width="1.51"/><path d="M1482,42L1353,63L1494,184Z" fill="#85c39e" stroke="#85c39e" stroke-width="1.51"/><path d="M1348,716L1350,786L1506,788Z" fill="#3aa468" stroke="#3aa468" stroke-width="1.51"/><path d="M1280,1263L1226,1277L1451,1329Z" fill="#207c45" stroke="#207c45" stroke-width="1.51"/><path d="M1464,551L1318,591L1500,636Z" fill="#48ab79" stroke="#48ab79" stroke-width="1.51"/><path d="M1318,591L1348,716L1500,636Z" fill="#45ab76" stroke="#45ab76" stroke-width="1.51"/><path d="M1353,63L1381,271L1494,184Z" fill="#7fc29d" stroke="#7fc29d" stroke-width="1.51"/><path d="M1350,786L1318,994L1468,951Z" fill="#309958" stroke="#309958" stroke-width="1.51"/><path d="M1458,-12L1353,63L1482,42Z" fill="#8ac5a2" stroke="#8ac5a2" stroke-width="1.51"/><path d="M1345,1166L1280,1263L1451,1329Z" fill="#1f7d44" stroke="#1f7d44" stroke-width="1.51"/><path d="M1352,-26L1353,63L1458,-12Z" fill="#8dc8a7" stroke="#8dc8a7" stroke-width="1.51"/><path d="M1349,444L1318,591L1464,551Z" fill="#51b184" stroke="#51b184" stroke-width="1.51"/><path d="M1225,484L1318,591L1349,444Z" fill="#58b88d" stroke="#58b88d" stroke-width="1.51"/><path d="M1195,855L1318,994L1350,786Z" fill="#37a163" stroke="#37a163" stroke-width="1.51"/><path d="M1232,55L1181,203L1353,63Z" fill="#8dceae" stroke="#8dceae" stroke-width="1.51"/><path d="M1218,-68L1352,-26L1369,-265Z" fill="#98cfb2" stroke="#98cfb2" stroke-width="1.51"/><path d="M1155,-230L1218,-68L1369,-265Z" fill="#9ed5b8" stroke="#9ed5b8" stroke-width="1.51"/><path d="M1198,387L1349,444L1381,271Z" fill="#6abe98" stroke="#6abe98" stroke-width="1.51"/><path d="M1181,203L1198,387L1381,271Z" fill="#77c6a3" stroke="#77c6a3" stroke-width="1.51"/><path d="M1353,63L1181,203L1381,271Z" fill="#82c8a6" stroke="#82c8a6" stroke-width="1.51"/><path d="M448,-194L636,-194L837,-244Z" fill="#c7e9e3" stroke="#c7e9e3" stroke-width="1.51"/><path d="M1318,994L1164,1195L1345,1166Z" fill="#288f51" stroke="#288f51" stroke-width="1.51"/><path d="M1318,591L1131,648L1348,716Z" fill="#4ab280" stroke="#4ab280" stroke-width="1.51"/><path d="M1198,387L1225,484L1349,444Z" fill="#63be96" stroke="#63be96" stroke-width="1.51"/><path d="M1348,716L1195,855L1350,786Z" fill="#3da86e" stroke="#3da86e" stroke-width="1.51"/><path d="M1218,-68L1232,55L1352,-26Z" fill="#94d0b2" stroke="#94d0b2" stroke-width="1.51"/><path d="M1352,-26L1232,55L1353,63Z" fill="#8fccac" stroke="#8fccac" stroke-width="1.51"/><path d="M1131,648L1195,855L1348,716Z" fill="#44b079" stroke="#44b079" stroke-width="1.51"/><path d="M1164,1195L1280,1263L1345,1166Z" fill="#25884e" stroke="#25884e" stroke-width="1.51"/><path d="M1091,1026L1164,1195L1318,994Z" fill="#31965a" stroke="#31965a" stroke-width="1.51"/><path d="M1129,971L1091,1026L1318,994Z" fill="#369b61" stroke="#369b61" stroke-width="1.51"/><path d="M1195,855L1129,971L1318,994Z" fill="#379f62" stroke="#379f62" stroke-width="1.51"/><path d="M1225,484L1131,648L1318,591Z" fill="#54b78b" stroke="#54b78b" stroke-width="1.51"/><path d="M1164,1195L1226,1277L1280,1263Z" fill="#27844f" stroke="#27844f" stroke-width="1.51"/><path d="M1131,648L1037,723L1195,855Z" fill="#4bb381" stroke="#4bb381" stroke-width="1.51"/><path d="M1181,203L1051,256L1198,387Z" fill="#7dcaab" stroke="#7dcaab" stroke-width="1.51"/><path d="M1155,-230L1035,-58L1218,-68Z" fill="#a1d6c0" stroke="#a1d6c0" stroke-width="1.51"/><path d="M1026,484L1131,648L1225,484Z" fill="#5cbd97" stroke="#5cbd97" stroke-width="1.51"/><path d="M1001,54L1181,203L1232,55Z" fill="#93d2b8" stroke="#93d2b8" stroke-width="1.51"/><path d="M1218,-68L1035,-58L1232,55Z" fill="#9ad4bb" stroke="#9ad4bb" stroke-width="1.51"/><path d="M1035,-58L1001,54L1232,55Z" fill="#9bd5bf" stroke="#9bd5bf" stroke-width="1.51"/><path d="M1017,-159L1035,-58L1155,-230Z" fill="#a5d9c5" stroke="#a5d9c5" stroke-width="1.51"/><path d="M1198,387L1053,411L1225,484Z" fill="#6ac29e" stroke="#6ac29e" stroke-width="1.51"/><path d="M1164,1195L1016,1332L1226,1277Z" fill="#2d8554" stroke="#2d8554" stroke-width="1.51"/><path d="M1053,411L1026,484L1225,484Z" fill="#69c2a0" stroke="#69c2a0" stroke-width="1.51"/><path d="M837,-244L1017,-159L1155,-230Z" fill="#acdccc" stroke="#acdccc" stroke-width="1.51"/><path d="M1091,1026L1048,1187L1164,1195Z" fill="#34945d" stroke="#34945d" stroke-width="1.51"/><path d="M1048,1187L1016,1332L1164,1195Z" fill="#328a5a" stroke="#328a5a" stroke-width="1.51"/><path d="M1001,54L1051,256L1181,203Z" fill="#8fd1b8" stroke="#8fd1b8" stroke-width="1.51"/><path d="M1037,723L1013,808L1195,855Z" fill="#4ab07d" stroke="#4ab07d" stroke-width="1.51"/><path d="M1051,256L1053,411L1198,387Z" fill="#77c8aa" stroke="#77c8aa" stroke-width="1.51"/><path d="M1013,808L1129,971L1195,855Z" fill="#43a772" stroke="#43a772" stroke-width="1.51"/><path d="M1026,484L897,570L1037,723Z" fill="#60bf9c" stroke="#60bf9c" stroke-width="1.51"/><path d="M1013,808L1091,1026L1129,971Z" fill="#41a46d" stroke="#41a46d" stroke-width="1.51"/><path d="M1026,484L1037,723L1131,648Z" fill="#5aba93" stroke="#5aba93" stroke-width="1.51"/><path d="M894,1013L871,1116L1048,1187Z" fill="#429c6b" stroke="#429c6b" stroke-width="1.51"/><path d="M1051,256L930,278L1053,411Z" fill="#80cdb4" stroke="#80cdb4" stroke-width="1.51"/><path d="M894,1013L1048,1187L1091,1026Z" fill="#3e9b68" stroke="#3e9b68" stroke-width="1.51"/><path d="M1013,808L894,1013L1091,1026Z" fill="#46a571" stroke="#46a571" stroke-width="1.51"/><path d="M840,92L930,278L1001,54Z" fill="#9dd8c6" stroke="#9dd8c6" stroke-width="1.51"/><path d="M897,570L842,656L1037,723Z" fill="#60be99" stroke="#60be99" stroke-width="1.51"/><path d="M897,1322L1016,1332L1048,1187Z" fill="#37885e" stroke="#37885e" stroke-width="1.51"/><path d="M1001,54L930,278L1051,256Z" fill="#90d3bd" stroke="#90d3bd" stroke-width="1.51"/><path d="M868,423L1026,484L1053,411Z" fill="#72c7ab" stroke="#72c7ab" stroke-width="1.51"/><path d="M930,278L868,423L1053,411Z" fill="#7cccb3" stroke="#7cccb3" stroke-width="1.51"/><path d="M830,821L894,1013L1013,808Z" fill="#51ae7f" stroke="#51ae7f" stroke-width="1.51"/><path d="M871,1116L897,1322L1048,1187Z" fill="#3d9265" stroke="#3d9265" stroke-width="1.51"/><path d="M1017,-159L864,-7L1035,-58Z" fill="#a7dbcd" stroke="#a7dbcd" stroke-width="1.51"/><path d="M864,-7L1001,54L1035,-58Z" fill="#a3daca" stroke="#a3daca" stroke-width="1.51"/><path d="M842,656L1013,808L1037,723Z" fill="#56b98e" stroke="#56b98e" stroke-width="1.51"/><path d="M842,656L830,821L1013,808Z" fill="#5ab98f" stroke="#5ab98f" stroke-width="1.51"/><path d="M868,423L897,570L1026,484Z" fill="#6fc6aa" stroke="#6fc6aa" stroke-width="1.51"/><path d="M785,-194L864,-7L1017,-159Z" fill="#b0dfd3" stroke="#b0dfd3" stroke-width="1.51"/><path d="M837,-244L785,-194L1017,-159Z" fill="#b4e1d4" stroke="#b4e1d4" stroke-width="1.51"/><path d="M864,-7L840,92L1001,54Z" fill="#a5dbcc" stroke="#a5dbcc" stroke-width="1.51"/><path d="M561,1261L407,1286L695,1288Z" fill="#5c9876" stroke="#5c9876" stroke-width="1.51"/><path d="M830,821L749,990L894,1013Z" fill="#56ac7d" stroke="#56ac7d" stroke-width="1.51"/><path d="M871,1116L768,1152L897,1322Z" fill="#46966b" stroke="#46966b" stroke-width="1.51"/><path d="M840,92L735,235L930,278Z" fill="#9cd8c7" stroke="#9cd8c7" stroke-width="1.51"/><path d="M735,235L785,349L930,278Z" fill="#92d5c2" stroke="#92d5c2" stroke-width="1.51"/><path d="M785,349L868,423L930,278Z" fill="#87d0bb" stroke="#87d0bb" stroke-width="1.51"/><path d="M749,990L871,1116L894,1013Z" fill="#4fa475" stroke="#4fa475" stroke-width="1.51"/><path d="M768,1152L695,1288L897,1322Z" fill="#49936b" stroke="#49936b" stroke-width="1.51"/><path d="M868,423L717,544L897,570Z" fill="#75c9ae" stroke="#75c9ae" stroke-width="1.51"/><path d="M717,544L842,656L897,570Z" fill="#6fc5a7" stroke="#6fc5a7" stroke-width="1.51"/><path d="M785,-194L679,-55L864,-7Z" fill="#b7e3da" stroke="#b7e3da" stroke-width="1.51"/><path d="M714,714L830,821L842,656Z" fill="#65bf99" stroke="#65bf99" stroke-width="1.51"/><path d="M743,59L840,92L864,-7Z" fill="#acded1" stroke="#acded1" stroke-width="1.51"/><path d="M785,349L717,544L868,423Z" fill="#82ceb7" stroke="#82ceb7" stroke-width="1.51"/><path d="M749,990L768,1152L871,1116Z" fill="#50a275" stroke="#50a275" stroke-width="1.51"/><path d="M679,-55L743,59L864,-7Z" fill="#b3e2d7" stroke="#b3e2d7" stroke-width="1.51"/><path d="M99,-172L312,-161L448,-194Z" fill="#e0f3f3" stroke="#e0f3f3" stroke-width="1.51"/><path d="M699,821L749,990L830,821Z" fill="#60b489" stroke="#60b489" stroke-width="1.51"/><path d="M714,714L699,821L830,821Z" fill="#66bd95" stroke="#66bd95" stroke-width="1.51"/><path d="M636,-194L785,-194L837,-244Z" fill="#bfe5dc" stroke="#bfe5dc" stroke-width="1.51"/><path d="M743,59L735,235L840,92Z" fill="#aaded0" stroke="#aaded0" stroke-width="1.51"/><path d="M717,544L714,714L842,656Z" fill="#70c5a5" stroke="#70c5a5" stroke-width="1.51"/><path d="M636,-194L630,-93L679,-55Z" fill="#c2e8e2" stroke="#c2e8e2" stroke-width="1.51"/><path d="M634,240L735,235L743,59Z" fill="#a9ded1" stroke="#a9ded1" stroke-width="1.51"/><path d="M749,990L627,1137L768,1152Z" fill="#57a479" stroke="#57a479" stroke-width="1.51"/><path d="M584,392L717,544L785,349Z" fill="#8bd2be" stroke="#8bd2be" stroke-width="1.51"/><path d="M735,235L634,240L785,349Z" fill="#9cd9c9" stroke="#9cd9c9" stroke-width="1.51"/><path d="M634,240L584,392L785,349Z" fill="#9ad8c9" stroke="#9ad8c9" stroke-width="1.51"/><path d="M636,-194L679,-55L785,-194Z" fill="#bfe6df" stroke="#bfe6df" stroke-width="1.51"/><path d="M562,129L634,240L743,59Z" fill="#b2e2d7" stroke="#b2e2d7" stroke-width="1.51"/><path d="M627,1137L695,1288L768,1152Z" fill="#549c73" stroke="#549c73" stroke-width="1.51"/><path d="M576,560L714,714L717,544Z" fill="#7bcaae" stroke="#7bcaae" stroke-width="1.51"/><path d="M699,821L551,994L749,990Z" fill="#64b387" stroke="#64b387" stroke-width="1.51"/><path d="M551,994L627,1137L749,990Z" fill="#60ab80" stroke="#60ab80" stroke-width="1.51"/><path d="M679,-55L562,129L743,59Z" fill="#b8e4db" stroke="#b8e4db" stroke-width="1.51"/><path d="M576,560L575,730L714,714Z" fill="#7ac9aa" stroke="#7ac9aa" stroke-width="1.51"/><path d="M584,392L576,560L717,544Z" fill="#88d0bb" stroke="#88d0bb" stroke-width="1.51"/><path d="M627,1137L561,1261L695,1288Z" fill="#589b75" stroke="#589b75" stroke-width="1.51"/><path d="M585,791L551,994L699,821Z" fill="#6dba92" stroke="#6dba92" stroke-width="1.51"/><path d="M585,791L699,821L714,714Z" fill="#6ec19b" stroke="#6ec19b" stroke-width="1.51"/><path d="M575,730L585,791L714,714Z" fill="#73c4a0" stroke="#73c4a0" stroke-width="1.51"/><path d="M630,-93L477,-20L679,-55Z" fill="#c3e8e3" stroke="#c3e8e3" stroke-width="1.51"/><path d="M477,-20L562,129L679,-55Z" fill="#c1e8e0" stroke="#c1e8e0" stroke-width="1.51"/><path d="M441,248L584,392L634,240Z" fill="#a8ded1" stroke="#a8ded1" stroke-width="1.51"/><path d="M448,-194L630,-93L636,-194Z" fill="#caebe6" stroke="#caebe6" stroke-width="1.51"/><path d="M551,994L481,1006L627,1137Z" fill="#68ad84" stroke="#68ad84" stroke-width="1.51"/><path d="M562,129L441,248L634,240Z" fill="#b3e2d7" stroke="#b3e2d7" stroke-width="1.51"/><path d="M448,-194L477,-20L630,-93Z" fill="#ccece8" stroke="#ccece8" stroke-width="1.51"/><path d="M388,1174L561,1261L627,1137Z" fill="#63a27c" stroke="#63a27c" stroke-width="1.51"/><path d="M481,1006L388,1174L627,1137Z" fill="#6aab82" stroke="#6aab82" stroke-width="1.51"/><path d="M414,578L380,741L575,730Z" fill="#88cdb0" stroke="#88cdb0" stroke-width="1.51"/><path d="M380,741L383,820L575,730Z" fill="#83c9a7" stroke="#83c9a7" stroke-width="1.51"/><path d="M414,578L575,730L576,560Z" fill="#86ceb3" stroke="#86ceb3" stroke-width="1.51"/><path d="M441,248L382,362L584,392Z" fill="#aadfd2" stroke="#aadfd2" stroke-width="1.51"/><path d="M414,578L576,560L584,392Z" fill="#90d3bf" stroke="#90d3bf" stroke-width="1.51"/><path d="M382,362L414,578L584,392Z" fill="#9dd9c8" stroke="#9dd9c8" stroke-width="1.51"/><path d="M481,1006L551,994L585,791Z" fill="#70b78e" stroke="#70b78e" stroke-width="1.51"/><path d="M383,820L481,1006L585,791Z" fill="#78be97" stroke="#78be97" stroke-width="1.51"/><path d="M575,730L383,820L585,791Z" fill="#7bc5a1" stroke="#7bc5a1" stroke-width="1.51"/><path d="M477,-20L398,119L562,129Z" fill="#c5e9e2" stroke="#c5e9e2" stroke-width="1.51"/><path d="M388,1174L407,1286L561,1261Z" fill="#679f7c" stroke="#679f7c" stroke-width="1.51"/><path d="M398,119L441,248L562,129Z" fill="#bfe7de" stroke="#bfe7de" stroke-width="1.51"/><path d="M302,1256L123,1345L407,1286Z" fill="#6f9d80" stroke="#6f9d80" stroke-width="1.51"/><path d="M298,-33L398,119L477,-20Z" fill="#d0eee9" stroke="#d0eee9" stroke-width="1.51"/><path d="M448,-194L312,-161L477,-20Z" fill="#d6f0ed" stroke="#d6f0ed" stroke-width="1.51"/><path d="M312,-161L298,-33L477,-20Z" fill="#d8f1ef" stroke="#d8f1ef" stroke-width="1.51"/><path d="M383,820L293,829L481,1006Z" fill="#80c09a" stroke="#80c09a" stroke-width="1.51"/><path d="M293,829L239,1039L481,1006Z" fill="#7fbb93" stroke="#7fbb93" stroke-width="1.51"/><path d="M239,1039L388,1174L481,1006Z" fill="#76b18a" stroke="#76b18a" stroke-width="1.51"/><path d="M250,391L228,518L382,362Z" fill="#abded2" stroke="#abded2" stroke-width="1.51"/><path d="M298,-33L303,99L398,119Z" fill="#d1eeea" stroke="#d1eeea" stroke-width="1.51"/><path d="M382,362L228,518L414,578Z" fill="#a2dbca" stroke="#a2dbca" stroke-width="1.51"/><path d="M398,119L329,232L441,248Z" fill="#c1e8df" stroke="#c1e8df" stroke-width="1.51"/><path d="M329,232L382,362L441,248Z" fill="#b7e4da" stroke="#b7e4da" stroke-width="1.51"/><path d="M239,1039L238,1120L388,1174Z" fill="#78b08b" stroke="#78b08b" stroke-width="1.51"/><path d="M313,739L380,741L414,578Z" fill="#8fd0b3" stroke="#8fd0b3" stroke-width="1.51"/><path d="M388,1174L302,1256L407,1286Z" fill="#6ea280" stroke="#6ea280" stroke-width="1.51"/><path d="M228,518L313,739L414,578Z" fill="#97d4be" stroke="#97d4be" stroke-width="1.51"/><path d="M303,99L329,232L398,119Z" fill="#caece5" stroke="#caece5" stroke-width="1.51"/><path d="M380,741L313,739L383,820Z" fill="#8acbaa" stroke="#8acbaa" stroke-width="1.51"/><path d="M329,232L250,391L382,362Z" fill="#b5e3d9" stroke="#b5e3d9" stroke-width="1.51"/><path d="M313,739L293,829L383,820Z" fill="#89c9a7" stroke="#89c9a7" stroke-width="1.51"/><path d="M238,1120L302,1256L388,1174Z" fill="#73aa85" stroke="#73aa85" stroke-width="1.51"/><path d="M25,1324L-129,1342L123,1345Z" fill="#779c84" stroke="#779c84" stroke-width="1.51"/><path d="M97,564L79,717L228,518Z" fill="#a0d8c5" stroke="#a0d8c5" stroke-width="1.51"/><path d="M137,982L239,1039L293,829Z" fill="#84bd98" stroke="#84bd98" stroke-width="1.51"/><path d="M139,865L137,982L293,829Z" fill="#89c3a0" stroke="#89c3a0" stroke-width="1.51"/><path d="M298,-33L171,49L303,99Z" fill="#d6f0ed" stroke="#d6f0ed" stroke-width="1.51"/><path d="M138,-83L298,-33L312,-161Z" fill="#def2f3" stroke="#def2f3" stroke-width="1.51"/><path d="M228,518L79,717L313,739Z" fill="#99d4bc" stroke="#99d4bc" stroke-width="1.51"/><path d="M303,99L187,212L329,232Z" fill="#c9ebe4" stroke="#c9ebe4" stroke-width="1.51"/><path d="M187,212L250,391L329,232Z" fill="#bee6df" stroke="#bee6df" stroke-width="1.51"/><path d="M139,865L293,829L313,739Z" fill="#8cc9a8" stroke="#8cc9a8" stroke-width="1.51"/><path d="M79,717L139,865L313,739Z" fill="#91ceaf" stroke="#91ceaf" stroke-width="1.51"/><path d="M99,-172L138,-83L312,-161Z" fill="#e3f4f5" stroke="#e3f4f5" stroke-width="1.51"/><path d="M238,1120L98,1140L302,1256Z" fill="#78ac88" stroke="#78ac88" stroke-width="1.51"/><path d="M98,1140L123,1345L302,1256Z" fill="#76a486" stroke="#76a486" stroke-width="1.51"/><path d="M171,49L187,212L303,99Z" fill="#d3eeeb" stroke="#d3eeeb" stroke-width="1.51"/><path d="M187,212L115,337L250,391Z" fill="#bde6de" stroke="#bde6de" stroke-width="1.51"/><path d="M138,-83L171,49L298,-33Z" fill="#dcf2f2" stroke="#dcf2f2" stroke-width="1.51"/><path d="M115,337L228,518L250,391Z" fill="#b0e0d5" stroke="#b0e0d5" stroke-width="1.51"/><path d="M115,337L97,564L228,518Z" fill="#acded1" stroke="#acded1" stroke-width="1.51"/><path d="M98,1140L238,1120L239,1039Z" fill="#7db28e" stroke="#7db28e" stroke-width="1.51"/><path d="M137,982L98,1140L239,1039Z" fill="#81b692" stroke="#81b692" stroke-width="1.51"/><path d="M-19,430L97,564L115,337Z" fill="#b3e1d7" stroke="#b3e1d7" stroke-width="1.51"/><path d="M98,1140L25,1324L123,1345Z" fill="#79a387" stroke="#79a387" stroke-width="1.51"/><path d="M-71,89L30,251L171,49Z" fill="#d9f1ef" stroke="#d9f1ef" stroke-width="1.51"/><path d="M171,49L30,251L187,212Z" fill="#d1eeea" stroke="#d1eeea" stroke-width="1.51"/><path d="M30,251L115,337L187,212Z" fill="#c6e9e4" stroke="#c6e9e4" stroke-width="1.51"/><path d="M138,-83L-18,-108L171,49Z" fill="#e2f4f6" stroke="#e2f4f6" stroke-width="1.51"/><path d="M-18,-108L-71,89L171,49Z" fill="#e1f4f5" stroke="#e1f4f5" stroke-width="1.51"/><path d="M-18,1165L25,1324L98,1140Z" fill="#7eab8b" stroke="#7eab8b" stroke-width="1.51"/><path d="M-42,1010L98,1140L137,982Z" fill="#86b996" stroke="#86b996" stroke-width="1.51"/><path d="M99,-172L-18,-108L138,-83Z" fill="#e7f6f9" stroke="#e7f6f9" stroke-width="1.51"/><path d="M79,717L-46,800L139,865Z" fill="#95ceb0" stroke="#95ceb0" stroke-width="1.51"/><path d="M-42,1010L137,982L139,865Z" fill="#8abf9b" stroke="#8abf9b" stroke-width="1.51"/><path d="M-46,800L-42,1010L139,865Z" fill="#90c6a4" stroke="#90c6a4" stroke-width="1.51"/><path d="M-13,581L79,717L97,564Z" fill="#a2d8c4" stroke="#a2d8c4" stroke-width="1.51"/><path d="M-19,430L-13,581L97,564Z" fill="#abddd0" stroke="#abddd0" stroke-width="1.51"/><path d="M-42,1010L-18,1165L98,1140Z" fill="#84b592" stroke="#84b592" stroke-width="1.51"/><path d="M30,251L-19,430L115,337Z" fill="#c0e6e0" stroke="#c0e6e0" stroke-width="1.51"/><path d="M-13,581L-67,653L79,717Z" fill="#a2d7c1" stroke="#a2d7c1" stroke-width="1.51"/><path d="M-19,-185L-18,-108L99,-172Z" fill="#eaf7fa" stroke="#eaf7fa" stroke-width="1.51"/><path d="M-67,653L-46,800L79,717Z" fill="#9cd4b9" stroke="#9cd4b9" stroke-width="1.51"/><path d="M-46,800L-184,874L-42,1010Z" fill="#93c7a4" stroke="#93c7a4" stroke-width="1.51"/><path d="M-18,1165L-139,1193L25,1324Z" fill="#7fa98a" stroke="#7fa98a" stroke-width="1.51"/><path d="M-139,1193L-129,1342L25,1324Z" fill="#7ca387" stroke="#7ca387" stroke-width="1.51"/><path d="M-71,89L-178,192L30,251Z" fill="#d7f0ed" stroke="#d7f0ed" stroke-width="1.51"/><path d="M-178,192L-116,360L30,251Z" fill="#ccebe6" stroke="#ccebe6" stroke-width="1.51"/><path d="M-116,360L-19,430L30,251Z" fill="#c1e7e0" stroke="#c1e7e0" stroke-width="1.51"/><path d="M-184,874L-165,1007L-42,1010Z" fill="#90c19d" stroke="#90c19d" stroke-width="1.51"/><path d="M-165,1007L-139,1193L-42,1010Z" fill="#8ab995" stroke="#8ab995" stroke-width="1.51"/><path d="M-116,360L-212,531L-19,430Z" fill="#b9e3d8" stroke="#b9e3d8" stroke-width="1.51"/><path d="M-198,-58L-71,89L-18,-108Z" fill="#e7f6f7" stroke="#e7f6f7" stroke-width="1.51"/><path d="M-19,-185L-197,-202L-18,-108Z" fill="#edf8fb" stroke="#edf8fb" stroke-width="1.51"/><path d="M-42,1010L-139,1193L-18,1165Z" fill="#85b491" stroke="#85b491" stroke-width="1.51"/><path d="M-170,646L-67,653L-13,581Z" fill="#a6d9c5" stroke="#a6d9c5" stroke-width="1.51"/><path d="M-212,531L-170,646L-13,581Z" fill="#abdcca" stroke="#abdcca" stroke-width="1.51"/><path d="M-19,430L-212,531L-13,581Z" fill="#b0dfd1" stroke="#b0dfd1" stroke-width="1.51"/><path d="M-197,-202L-198,-58L-18,-108Z" fill="#edf8fb" stroke="#edf8fb" stroke-width="1.51"/><path d="M-67,653L-170,646L-46,800Z" fill="#a1d6bc" stroke="#a1d6bc" stroke-width="1.51"/><path d="M-170,646L-184,874L-46,800Z" fill="#9dd2b3" stroke="#9dd2b3" stroke-width="1.51"/><path d="M-204,137L-178,192L-71,89Z" fill="#def3f0" stroke="#def3f0" stroke-width="1.51"/><path d="M-198,-58L-204,137L-71,89Z" fill="#e4f5f4" stroke="#e4f5f4" stroke-width="1.51"/><path d="M-165,1007L-184,874L-129,1342Z" fill="#8ab995" stroke="#8ab995" stroke-width="1.51"/><path d="M-178,192L-212,531L-116,360Z" fill="#c4e8e0" stroke="#c4e8e0" stroke-width="1.51"/><path d="M-139,1193L-165,1007L-129,1342Z" fill="#84b08e" stroke="#84b08e" stroke-width="1.51"/><path d="M-204,137L-212,531L-178,192Z" fill="#cdece6" stroke="#cdece6" stroke-width="1.51"/><path d="M-212,531L-184,874L-170,646Z" fill="#a5d8bf" stroke="#a5d8bf" stroke-width="1.51"/><path d="M-204,137L-198,-58L-197,-202Z" fill="#ebf7f9" stroke="#ebf7f9" stroke-width="1.51"/></svg>