<svg xmlns="http://www.w3.org/2000/svg" width="1920" height="1080"><path d="M-197,-202L-19,-185L448,-194Z" fill="#e6f6e0" stroke="#e6f6e0" stroke-width="1.51"/><path d="M-197,-202L448,-194L837,-244Z" fill="#def2d7" stroke="#def2d7" stroke-width="1.51"/><path d="M897,1322L123,1345L1016,1332Z" fill="#678da0" stroke="#678da0" stroke-width="1.51"/><path d="M837,-244L1155,-230L1369,-265Z" fill="#b1dcdc" stroke="#b1dcdc" stroke-width="1.51"/><path d="M1016,1332L123,1345L1668,1345Z" fill="#5186a5" stroke="#5186a5" stroke-width="1.51"/><path d="M1451,1329L1016,1332L1668,1345Z" fill="#2b73a9" stroke="#2b73a9" stroke-width="1.51"/><path d="M1654,-192L1821,-173L1911,-185Z" fill="#93b1cc" stroke="#93b1cc" stroke-width="1.51"/><path d="M1654,-192L1911,-185L2060,-232Z" fill="#91acca" stroke="#91acca" stroke-width="1.51"/><path d="M1516,-223L1654,-192L2060,-232Z" fill="#96b5cf" stroke="#96b5cf" stroke-width="1.51"/><path d="M1369,-265L1516,-223L2060,-232Z" fill="#9abbd2" stroke="#9abbd2" stroke-width="1.51"/><path d="M1966,836L2063,873L2076,642Z" fill="#307db1" stroke="#307db1" stroke-width="1.51"/><path d="M1952,652L1966,836L2076,642Z" fill="#3a84b4" stroke="#3a84b4" stroke-width="1.51"/><path d="M2070,987L1968,1181L2098,1144Z" fill="#1060a1" stroke="#1060a1" stroke-width="1.51"/><path d="M2076,642L2063,873L2098,1144Z" fill="#2670a8" stroke="#2670a8" stroke-width="1.51"/><path d="M2063,873L2070,987L2098,1144Z" fill="#1a66a3" stroke="#1a66a3" stroke-width="1.51"/><path d="M2047,56L1886,188L2100,282Z" fill="#7a9aad" stroke="#7a9aad" stroke-width="1.51"/><path d="M2079,-104L2047,56L2100,282Z" fill="#7e97ad" stroke="#7e97ad" stroke-width="1.51"/><path d="M2100,282L1956,361L2118,381Z" fill="#6991a4" stroke="#6991a4" stroke-width="1.51"/><path d="M1956,361L2053,487L2118,381Z" fill="#6290a8" stroke="#6290a8" stroke-width="1.51"/><path d="M2053,487L2076,642L2118,381Z" fill="#5489a7" stroke="#5489a7" stroke-width="1.51"/><path d="M2076,642L2098,1144L2118,381Z" fill="#377dad" stroke="#377dad" stroke-width="1.51"/><path d="M2079,-104L2100,282L2118,381Z" fill="#7693a6" stroke="#7693a6" stroke-width="1.51"/><path d="M2098,1144L1968,1181L2118,1295Z" fill="#095598" stroke="#095598" stroke-width="1.51"/><path d="M1968,1181L1940,1323L2118,1295Z" fill="#0a5395" stroke="#0a5395" stroke-width="1.51"/><path d="M2118,381L2098,1144L2118,1295Z" fill="#2069a3" stroke="#2069a3" stroke-width="1.51"/><path d="M1907,1007L1968,1181L2070,987Z" fill="#1668a7" stroke="#1668a7" stroke-width="1.51"/><path d="M2053,487L1915,557L2076,642Z" fill="#4e8cae" stroke="#4e8cae" stroke-width="1.51"/><path d="M1915,557L1952,652L2076,642Z" fill="#488cb2" stroke="#488cb2" stroke-width="1.51"/><path d="M1909,-80L2047,56L2079,-104Z" fill="#859eb7" stroke="#859eb7" stroke-width="1.51"/><path d="M1886,188L1956,361L2100,282Z" fill="#7199ab" stroke="#7199ab" stroke-width="1.51"/><path d="M1909,-80L1935,50L2047,56Z" fill="#84a1b9" stroke="#84a1b9" stroke-width="1.51"/><path d="M1935,50L1886,188L2047,56Z" fill="#81a0b4" stroke="#81a0b4" stroke-width="1.51"/><path d="M2063,873L1966,836L2070,987Z" fill="#2473ab" stroke="#2473ab" stroke-width="1.51"/><path d="M1966,836L1907,1007L2070,987Z" fill="#1f72ac" stroke="#1f72ac" stroke-width="1.51"/><path d="M2060,-232L1911,-185L2079,-104Z" fill="#8ca0bd" stroke="#8ca0bd" stroke-width="1.51"/><path d="M1911,-185L1909,-80L2079,-104Z" fill="#8aa3bf" stroke="#8aa3bf" stroke-width="1.51"/><path d="M1956,361L1915,557L2053,487Z" fill="#5b92ae" stroke="#5b92ae" stroke-width="1.51"/><path d="M695,1288L123,1345L897,1322Z" fill="#6f91a4" stroke="#6f91a4" stroke-width="1.51"/><path d="M1830,1272L1668,1345L1940,1323Z" fill="#0e5c9d" stroke="#0e5c9d" stroke-width="1.51"/><path d="M1752,659L1839,888L1952,652Z" fill="#388ec0" stroke="#388ec0" stroke-width="1.51"/><path d="M1886,188L1729,274L1956,361Z" fill="#75a2b4" stroke="#75a2b4" stroke-width="1.51"/><path d="M1794,422L1915,557L1956,361Z" fill="#609ab3" stroke="#609ab3" stroke-width="1.51"/><path d="M1952,652L1839,888L1966,836Z" fill="#3084b8" stroke="#3084b8" stroke-width="1.51"/><path d="M1839,888L1907,1007L1966,836Z" fill="#237bb4" stroke="#237bb4" stroke-width="1.51"/><path d="M1907,1007L1835,1137L1968,1181Z" fill="#1069ab" stroke="#1069ab" stroke-width="1.51"/><path d="M1830,1272L1940,1323L1968,1181Z" fill="#0a5a9d" stroke="#0a5a9d" stroke-width="1.51"/><path d="M1835,1137L1830,1272L1968,1181Z" fill="#0963a6" stroke="#0963a6" stroke-width="1.51"/><path d="M1729,274L1794,422L1956,361Z" fill="#6da1b3" stroke="#6da1b3" stroke-width="1.51"/><path d="M1915,557L1752,659L1952,652Z" fill="#4893ba" stroke="#4893ba" stroke-width="1.51"/><path d="M1794,422L1776,529L1915,557Z" fill="#599cb8" stroke="#599cb8" stroke-width="1.51"/><path d="M1746,43L1886,188L1935,50Z" fill="#83a8bc" stroke="#83a8bc" stroke-width="1.51"/><path d="M1909,-80L1772,-42L1935,50Z" fill="#88a8c1" stroke="#88a8c1" stroke-width="1.51"/><path d="M1821,-173L1909,-80L1911,-185Z" fill="#8eaac6" stroke="#8eaac6" stroke-width="1.51"/><path d="M1772,-42L1746,43L1935,50Z" fill="#88abc1" stroke="#88abc1" stroke-width="1.51"/><path d="M1839,888L1762,989L1907,1007Z" fill="#1f7ab5" stroke="#1f7ab5" stroke-width="1.51"/><path d="M1762,989L1835,1137L1907,1007Z" fill="#1873b2" stroke="#1873b2" stroke-width="1.51"/><path d="M1776,529L1752,659L1915,557Z" fill="#4f99bb" stroke="#4f99bb" stroke-width="1.51"/><path d="M1821,-173L1772,-42L1909,-80Z" fill="#8dacc6" stroke="#8dacc6" stroke-width="1.51"/><path d="M407,1286L123,1345L695,1288Z" fill="#7996a9" stroke="#7996a9" stroke-width="1.51"/><path d="M1746,43L1729,274L1886,188Z" fill="#80aaba" stroke="#80aaba" stroke-width="1.51"/><path d="M1664,231L1729,274L1746,43Z" fill="#81aebc" stroke="#81aebc" stroke-width="1.51"/><path d="M1582,1190L1668,1345L1830,1272Z" fill="#1767a5" stroke="#1767a5" stroke-width="1.51"/><path d="M1582,1190L1830,1272L1835,1137Z" fill="#136aab" stroke="#136aab" stroke-width="1.51"/><path d="M1591,892L1762,989L1839,888Z" fill="#2884bb" stroke="#2884bb" stroke-width="1.51"/><path d="M1752,659L1591,892L1839,888Z" fill="#338fc0" stroke="#338fc0" stroke-width="1.51"/><path d="M1762,989L1582,1190L1835,1137Z" fill="#1974b3" stroke="#1974b3" stroke-width="1.51"/><path d="M1654,-192L1772,-42L1821,-173Z" fill="#91b2cb" stroke="#91b2cb" stroke-width="1.51"/><path d="M1729,274L1687,411L1794,422Z" fill="#6ea7b7" stroke="#6ea7b7" stroke-width="1.51"/><path d="M1601,655L1591,892L1752,659Z" fill="#3d9ac6" stroke="#3d9ac6" stroke-width="1.51"/><path d="M1591,892L1601,952L1762,989Z" fill="#2987bc" stroke="#2987bc" stroke-width="1.51"/><path d="M1654,-192L1633,-69L1772,-42Z" fill="#91b6ca" stroke="#91b6ca" stroke-width="1.51"/><path d="M1687,411L1776,529L1794,422Z" fill="#62a3b9" stroke="#62a3b9" stroke-width="1.51"/><path d="M1593,44L1664,231L1746,43Z" fill="#88b4c1" stroke="#88b4c1" stroke-width="1.51"/><path d="M1601,952L1582,1190L1762,989Z" fill="#227eb7" stroke="#227eb7" stroke-width="1.51"/><path d="M1613,535L1752,659L1776,529Z" fill="#539fbe" stroke="#539fbe" stroke-width="1.51"/><path d="M1687,411L1613,535L1776,529Z" fill="#5fa5bc" stroke="#5fa5bc" stroke-width="1.51"/><path d="M1633,-69L1746,43L1772,-42Z" fill="#8db3c6" stroke="#8db3c6" stroke-width="1.51"/><path d="M1613,535L1601,655L1752,659Z" fill="#4fa1c1" stroke="#4fa1c1" stroke-width="1.51"/><path d="M1633,-69L1593,44L1746,43Z" fill="#8db6c6" stroke="#8db6c6" stroke-width="1.51"/><path d="M1506,788L1591,892L1601,655Z" fill="#3b9cc7" stroke="#3b9cc7" stroke-width="1.51"/><path d="M1664,231L1687,411L1729,274Z" fill="#76acb8" stroke="#76acb8" stroke-width="1.51"/><path d="M1226,1277L1016,1332L1451,1329Z" fill="#377eaf" stroke="#377eaf" stroke-width="1.51"/><path d="M1482,1158L1582,1190L1601,952Z" fill="#237fb8" stroke="#237fb8" stroke-width="1.51"/><path d="M1593,44L1494,184L1664,231Z" fill="#87b7c1" stroke="#87b7c1" stroke-width="1.51"/><path d="M1664,231L1528,399L1687,411Z" fill="#73afb9" stroke="#73afb9" stroke-width="1.51"/><path d="M1528,399L1613,535L1687,411Z" fill="#66acbd" stroke="#66acbd" stroke-width="1.51"/><path d="M1494,184L1528,399L1664,231Z" fill="#7cb5bd" stroke="#7cb5bd" stroke-width="1.51"/><path d="M1582,1190L1451,1329L1668,1345Z" fill="#1d6ca7" stroke="#1d6ca7" stroke-width="1.51"/><path d="M1516,-223L1633,-69L1654,-192Z" fill="#97bdd0" stroke="#97bdd0" stroke-width="1.51"/><path d="M1468,951L1482,1158L1601,952Z" fill="#2a88bd" stroke="#2a88bd" stroke-width="1.51"/><path d="M1500,636L1601,655L1613,535Z" fill="#51a7c3" stroke="#51a7c3" stroke-width="1.51"/><path d="M1458,-12L1593,44L1633,-69Z" fill="#91bcca" stroke="#91bcca" stroke-width="1.51"/><path d="M1516,-223L1458,-12L1633,-69Z" fill="#96c0cf" stroke="#96c0cf" stroke-width="1.51"/><path d="M1458,-12L1482,42L1593,44Z" fill="#91bfc9" stroke="#91bfc9" stroke-width="1.51"/><path d="M1482,42L1494,184L1593,44Z" fill="#8dbdc6" stroke="#8dbdc6" stroke-width="1.51"/><path d="M1500,636L1506,788L1601,655Z" fill="#48a4c8" stroke="#48a4c8" stroke-width="1.51"/><path d="M1528,399L1464,551L1613,535Z" fill="#62afc1" stroke="#62afc1" stroke-width="1.51"/><path d="M1464,551L1500,636L1613,535Z" fill="#58abc4" stroke="#58abc4" stroke-width="1.51"/><path d="M1482,1158L1451,1329L1582,1190Z" fill="#2376b0" stroke="#2376b0" stroke-width="1.51"/><path d="M1591,892L1468,951L1601,952Z" fill="#2e8ebf" stroke="#2e8ebf" stroke-width="1.51"/><path d="M1494,184L1381,271L1528,399Z" fill="#7fbbbf" stroke="#7fbbbf" stroke-width="1.51"/><path d="M1506,788L1468,951L1591,892Z" fill="#3595c3" stroke="#3595c3" stroke-width="1.51"/><path d="M-19,-185L99,-172L448,-194Z" fill="#e2f4dc" stroke="#e2f4dc" stroke-width="1.51"/><path d="M1468,951L1318,994L1482,1158Z" fill="#308ec0" stroke="#308ec0" stroke-width="1.51"/><path d="M1500,636L1348,716L1506,788Z" fill="#49a8cc" stroke="#49a8cc" stroke-width="1.51"/><path d="M1350,786L1468,951L1506,788Z" fill="#3d9ec8" stroke="#3d9ec8" stroke-width="1.51"/><path d="M1352,-26L1458,-12L1516,-223Z" fill="#99c6d2" stroke="#99c6d2" stroke-width="1.51"/><path d="M1369,-265L1352,-26L1516,-223Z" fill="#9fcad6" stroke="#9fcad6" stroke-width="1.51"/><path d="M1349,444L1464,551L1528,399Z" fill="#6ab5c3" stroke="#6ab5c3" stroke-width="1.51"/><path d="M1381,271L1349,444L1528,399Z" fill="#78bbc1" stroke="#78bbc1" stroke-width="1.51"/><path d="M1345,1166L1451,1329L1482,1158Z" fill="#297cb3" stroke="#297cb3" stroke-width="1.51"/><path d="M1318,994L1345,1166L1482,1158Z" fill="#2f8abe" stroke="#2f8abe" stroke-width="1.51"/><path d="M1482,42L1353,63L1494,184Z" fill="#90c2c8" stroke="#90c2c8" stroke-width="1.51"/><path d="M1348,716L1350,786L1506,788Z" fill="#45a8cd" stroke="#45a8cd" stroke-width="1.51"/><path d="M1280,1263L1226,1277L1451,1329Z" fill="#307baf" stroke="#307baf" stroke-width="1.51"/><path d="M1464,551L1318,591L1500,636Z" fill="#5ab1c8" stroke="#5ab1c8" stroke-width="1.51"/><path d="M1318,591L1348,716L1500,636Z" fill="#55b0cb" stroke="#55b0cb" stroke-width="1.51"/><path d="M1353,63L1381,271L1494,184Z" fill="#8cc3c6" stroke="#8cc3c6" stroke-width="1.51"/><path d="M1350,786L1318,994L1468,951Z" fill="#3b9bc6" stroke="#3b9bc6" stroke-width="1.51"/><path d="M1458,-12L1353,63L1482,42Z" fill="#94c5cc" stroke="#94c5cc" stroke-width="1.51"/><path d="M1345,1166L1280,1263L1451,1329Z" fill="#2e7cb2" stroke="#2e7cb2" stroke-width="1.51"/><path d="M1352,-26L1353,63L1458,-12Z" fill="#97c8cf" stroke="#97c8cf" stroke-width="1.51"/><path d="M1349,444L1318,591L1464,551Z" fill="#64b8c7" stroke="#64b8c7" stroke-width="1.51"/><path d="M1225,484L1318,591L1349,444Z" fill="#6abec9" stroke="#6abec9" stroke-width="1.51"/><path d="M1195,855L1318,994L1350,786Z" fill="#42a4cc" stroke="#42a4cc" stroke-width="1.51"/><path d="M1232,55L1181,203L1353,63Z" fill="#98cfce" stroke="#98cfce" stroke-width="1.51"/><path d="M1218,-68L1352,-26L1369,-265Z" fill="#a1d0d7" stroke="#a1d0d7" stroke-width="1.51"/><path d="M1155,-230L1218,-68L1369,-265Z" fill="#a7d6dc" stroke="#a7d6dc" stroke-width="1.51"/><path d="M1198,387L1349,444L1381,271Z" fill="#7cc3c5" stroke="#7cc3c5" stroke-width="1.51"/><path d="M1181,203L1198,387L1381,271Z" fill="#87cac7" stroke="#87cac7" stroke-width="1.51"/><path d="M1353,63L1181,203L1381,271Z" fill="#90cac9" stroke="#90cac9" stroke-width="1.51"/><path d="M448,-194L636,-194L837,-244Z" fill="#cdeccf" stroke="#cdeccf" stroke-width="1.51"/><path d="M1318,994L1164,1195L1345,1166Z" fill="#358fc1" stroke="#358fc1" stroke-width="1.51"/><path d="M1318,591L1131,648L1348,716Z" fill="#5ab8d0" stroke="#5ab8d0" stroke-width="1.51"/><path d="M1198,387L1225,484L1349,444Z" fill="#76c3c8" stroke="#76c3c8" stroke-width="1.51"/><path d="M1348,716L1195,855L1350,786Z" fill="#49acd0" stroke="#49acd0" stroke-width="1.51"/><path d="M1218,-68L1232,55L1352,-26Z" fill="#9dd1d3" stroke="#9dd1d3" stroke-width="1.51"/><path d="M1352,-26L1232,55L1353,63Z" fill="#99cdd0" stroke="#99cdd0" stroke-width="1.51"/><path d="M1131,648L1195,855L1348,716Z" fill="#53b5d2" stroke="#53b5d2" stroke-width="1.51"/><path d="M1164,1195L1280,1263L1345,1166Z" fill="#3487ba" stroke="#3487ba" stroke-width="1.51"/><path d="M1091,1026L1164,1195L1318,994Z" fill="#4197c2" stroke="#4197c2" stroke-width="1.51"/><path d="M1129,971L1091,1026L1318,994Z" fill="#459fc5" stroke="#459fc5" stroke-width="1.51"/><path d="M1195,855L1129,971L1318,994Z" fill="#45a2c8" stroke="#45a2c8" stroke-width="1.51"/><path d="M1225,484L1131,648L1318,591Z" fill="#66bfcc" stroke="#66bfcc" stroke-width="1.51"/><path d="M1164,1195L1226,1277L1280,1263Z" fill="#3885b5" stroke="#3885b5" stroke-width="1.51"/><path d="M1131,648L1037,723L1195,855Z" fill="#5bb9d0" stroke="#5bb9d0" stroke-width="1.51"/><path d="M1181,203L1051,256L1198,387Z" fill="#8ecfc3" stroke="#8ecfc3" stroke-width="1.51"/><path d="M1155,-230L1035,-58L1218,-68Z" fill="#a9d9d6" stroke="#a9d9d6" stroke-width="1.51"/><path d="M1026,484L1131,648L1225,484Z" fill="#71c5c9" stroke="#71c5c9" stroke-width="1.51"/><path d="M1001,54L1181,203L1232,55Z" fill="#9ed4ca" stroke="#9ed4ca" stroke-width="1.51"/><path d="M1218,-68L1035,-58L1232,55Z" fill="#a3d6d2" stroke="#a3d6d2" stroke-width="1.51"/><path d="M1035,-58L1001,54L1232,55Z" fill="#a5d8ce" stroke="#a5d8ce" stroke-width="1.51"/><path d="M1017,-159L1035,-58L1155,-230Z" fill="#aedcd6" stroke="#aedcd6" stroke-width="1.51"/><path d="M1198,387L1053,411L1225,484Z" fill="#7dc8c5" stroke="#7dc8c5" stroke-width="1.51"/><path d="M1164,1195L1016,1332L1226,1277Z" fill="#4186b1" stroke="#4186b1" stroke-width="1.51"/><path d="M1053,411L1026,484L1225,484Z" fill="#7dc9c5" stroke="#7dc9c5" stroke-width="1.51"/><path d="M837,-244L1017,-159L1155,-230Z" fill="#b5e1d7" stroke="#b5e1d7" stroke-width="1.51"/><path d="M1091,1026L1048,1187L1164,1195Z" fill="#4895bd" stroke="#4895bd" stroke-width="1.51"/><path d="M1048,1187L1016,1332L1164,1195Z" fill="#478bb3" stroke="#478bb3" stroke-width="1.51"/><path d="M1001,54L1051,256L1181,203Z" fill="#9cd5c6" stroke="#9cd5c6" stroke-width="1.51"/><path d="M1037,723L1013,808L1195,855Z" fill="#5bb6cc" stroke="#5bb6cc" stroke-width="1.51"/><path d="M1051,256L1053,411L1198,387Z" fill="#8acec1" stroke="#8acec1" stroke-width="1.51"/><path d="M1013,808L1129,971L1195,855Z" fill="#53acc9" stroke="#53acc9" stroke-width="1.51"/><path d="M1026,484L897,570L1037,723Z" fill="#75c8c7" stroke="#75c8c7" stroke-width="1.51"/><path d="M1013,808L1091,1026L1129,971Z" fill="#52a8c5" stroke="#52a8c5" stroke-width="1.51"/><path d="M1026,484L1037,723L1131,648Z" fill="#6dc2ca" stroke="#6dc2ca" stroke-width="1.51"/><path d="M894,1013L871,1116L1048,1187Z" fill="#579ebb" stroke="#579ebb" stroke-width="1.51"/><path d="M1051,256L930,278L1053,411Z" fill="#92d3bf" stroke="#92d3bf" stroke-width="1.51"/><path d="M894,1013L1048,1187L1091,1026Z" fill="#529ebd" stroke="#529ebd" stroke-width="1.51"/><path d="M1013,808L894,1013L1091,1026Z" fill="#57aac2" stroke="#57aac2" stroke-width="1.51"/><path d="M840,92L930,278L1001,54Z" fill="#a7dcc3" stroke="#a7dcc3" stroke-width="1.51"/><path d="M897,570L842,656L1037,723Z" fill="#74c6c7" stroke="#74c6c7" stroke-width="1.51"/><path d="M897,1322L1016,1332L1048,1187Z" fill="#4e8aac" stroke="#4e8aac" stroke-width="1.51"/><path d="M1001,54L930,278L1051,256Z" fill="#9ed7c3" stroke="#9ed7c3" stroke-width="1.51"/><path d="M868,423L1026,484L1053,411Z" fill="#86cfc1" stroke="#86cfc1" stroke-width="1.51"/><path d="M930,278L868,423L1053,411Z" fill="#90d3be" stroke="#90d3be" stroke-width="1.51"/><path d="M830,821L894,1013L1013,808Z" fill="#64b4c4" stroke="#64b4c4" stroke-width="1.51"/><path d="M871,1116L897,1322L1048,1187Z" fill="#5493b3" stroke="#5493b3" stroke-width="1.51"/><path d="M1017,-159L864,-7L1035,-58Z" fill="#b0dfd0" stroke="#b0dfd0" stroke-width="1.51"/><path d="M864,-7L1001,54L1035,-58Z" fill="#acddcc" stroke="#acddcc" stroke-width="1.51"/><path d="M842,656L1013,808L1037,723Z" fill="#69c0cb" stroke="#69c0cb" stroke-width="1.51"/><path d="M842,656L830,821L1013,808Z" fill="#6dc0c9" stroke="#6dc0c9" stroke-width="1.51"/><path d="M868,423L897,570L1026,484Z" fill="#84cfc2" stroke="#84cfc2" stroke-width="1.51"/><path d="M785,-194L864,-7L1017,-159Z" fill="#b8e3d0" stroke="#b8e3d0" stroke-width="1.51"/><path d="M837,-244L785,-194L1017,-159Z" fill="#bce5d3" stroke="#bce5d3" stroke-width="1.51"/><path d="M864,-7L840,92L1001,54Z" fill="#aedfc8" stroke="#aedfc8" stroke-width="1.51"/><path d="M561,1261L407,1286L695,1288Z" fill="#7195a8" stroke="#7195a8" stroke-width="1.51"/><path d="M830,821L749,990L894,1013Z" fill="#69b0bf" stroke="#69b0bf" stroke-width="1.51"/><path d="M871,1116L768,1152L897,1322Z" fill="#5e97b2" stroke="#5e97b2" stroke-width="1.51"/><path d="M840,92L735,235L930,278Z" fill="#a8dcbf" stroke="#a8dcbf" stroke-width="1.51"/><path d="M735,235L785,349L930,278Z" fill="#a1dabb" stroke="#a1dabb" stroke-width="1.51"/><path d="M785,349L868,423L930,278Z" fill="#98d7bb" stroke="#98d7bb" stroke-width="1.51"/><path d="M749,990L871,1116L894,1013Z" fill="#64a7bb" stroke="#64a7bb" stroke-width="1.51"/><path d="M768,1152L695,1288L897,1322Z" fill="#6193ab" stroke="#6193ab" stroke-width="1.51"/><path d="M868,423L717,544L897,570Z" fill="#89d0c0" stroke="#89d0c0" stroke-width="1.51"/><path d="M717,544L842,656L897,570Z" fill="#83cdc3" stroke="#83cdc3" stroke-width="1.51"/><path d="M785,-194L679,-55L864,-7Z" fill="#bde5cb" stroke="#bde5cb" stroke-width="1.51"/><path d="M714,714L830,821L842,656Z" fill="#78c5c7" stroke="#78c5c7" stroke-width="1.51"/><path d="M743,59L840,92L864,-7Z" fill="#b4e1c5" stroke="#b4e1c5" stroke-width="1.51"/><path d="M785,349L717,544L868,423Z" fill="#95d5bd" stroke="#95d5bd" stroke-width="1.51"/><path d="M749,990L768,1152L871,1116Z" fill="#66a3b8" stroke="#66a3b8" stroke-width="1.51"/><path d="M679,-55L743,59L864,-7Z" fill="#b9e4c6" stroke="#b9e4c6" stroke-width="1.51"/><path d="M99,-172L312,-161L448,-194Z" fill="#def2d7" stroke="#def2d7" stroke-width="1.51"/><path d="M699,821L749,990L830,821Z" fill="#72b8c1" stroke="#72b8c1" stroke-width="1.51"/><path d="M714,714L699,821L830,821Z" fill="#79c1c4" stroke="#79c1c4" stroke-width="1.51"/><path d="M636,-194L785,-194L837,-244Z" fill="#c6e9d1" stroke="#c6e9d1" stroke-width="1.51"/><path d="M743,59L735,235L840,92Z" fill="#b3e1c0" stroke="#b3e1c0" stroke-width="1.51"/><path d="M717,544L714,714L842,656Z" fill="#84cbc3" stroke="#84cbc3" stroke-width="1.51"/><path d="M636,-194L630,-93L679,-55Z" fill="#c7eaca" stroke="#c7eaca" stroke-width="1.51"/><path d="M634,240L735,235L743,59Z" fill="#b3e1bc" stroke="#b3e1bc" stroke-width="1.51"/><path d="M749,990L627,1137L768,1152Z" fill="#6da5b6" stroke="#6da5b6" stroke-width="1.51"/><path d="M584,392L717,544L785,349Z" fill="#9cd8ba" stroke="#9cd8ba" stroke-width="1.51"/><path d="M735,235L634,240L785,349Z" fill="#a9deb9" stroke="#a9deb9" stroke-width="1.51"/><path d="M634,240L584,392L785,349Z" fill="#a8ddb5" stroke="#a8ddb5" stroke-width="1.51"/><path d="M636,-194L679,-55L785,-194Z" fill="#c6e9cc" stroke="#c6e9cc" stroke-width="1.51"/><path d="M562,129L634,240L743,59Z" fill="#bae4bd" stroke="#bae4bd" stroke-width="1.51"/><path d="M627,1137L695,1288L768,1152Z" fill="#6b9baf" stroke="#6b9baf" stroke-width="1.51"/><path d="M576,560L714,714L717,544Z" fill="#8dd0bf" stroke="#8dd0bf" stroke-width="1.51"/><path d="M699,821L551,994L749,990Z" fill="#77b5bb" stroke="#77b5bb" stroke-width="1.51"/><path d="M551,994L627,1137L749,990Z" fill="#74abb7" stroke="#74abb7" stroke-width="1.51"/><path d="M679,-55L562,129L743,59Z" fill="#bee6c1" stroke="#bee6c1" stroke-width="1.51"/><path d="M576,560L575,730L714,714Z" fill="#8ccdc2" stroke="#8ccdc2" stroke-width="1.51"/><path d="M584,392L576,560L717,544Z" fill="#99d7bc" stroke="#99d7bc" stroke-width="1.51"/><path d="M627,1137L561,1261L695,1288Z" fill="#6f99ab" stroke="#6f99ab" stroke-width="1.51"/><path d="M585,791L551,994L699,821Z" fill="#7fbdc0" stroke="#7fbdc0" stroke-width="1.51"/><path d="M585,791L699,821L714,714Z" fill="#80c5c3" stroke="#80c5c3" stroke-width="1.51"/><path d="M575,730L585,791L714,714Z" fill="#85c9c6" stroke="#85c9c6" stroke-width="1.51"/><path d="M630,-93L477,-20L679,-55Z" fill="#c7e9c8" stroke="#c7e9c8" stroke-width="1.51"/><path d="M477,-20L562,129L679,-55Z" fill="#c5e8c5" stroke="#c5e8c5" stroke-width="1.51"/><path d="M441,248L584,392L634,240Z" fill="#b2e1b9" stroke="#b2e1b9" stroke-width="1.51"/><path d="M448,-194L630,-93L636,-194Z" fill="#ceecce" stroke="#ceecce" stroke-width="1.51"/><path d="M551,994L481,1006L627,1137Z" fill="#7aadba" stroke="#7aadba" stroke-width="1.51"/><path d="M562,129L441,248L634,240Z" fill="#bae4bd" stroke="#bae4bd" stroke-width="1.51"/><path d="M448,-194L477,-20L630,-93Z" fill="#ceeccd" stroke="#ceeccd" stroke-width="1.51"/><path d="M388,1174L561,1261L627,1137Z" fill="#76a0b2" stroke="#76a0b2" stroke-width="1.51"/><path d="M481,1006L388,1174L627,1137Z" fill="#7ca9b9" stroke="#7ca9b9" stroke-width="1.51"/><path d="M414,578L380,741L575,730Z" fill="#95d1c8" stroke="#95d1c8" stroke-width="1.51"/><path d="M380,741L383,820L575,730Z" fill="#90cbc9" stroke="#90cbc9" stroke-width="1.51"/><path d="M414,578L575,730L576,560Z" fill="#96d2c3" stroke="#96d2c3" stroke-width="1.51"/><path d="M441,248L382,362L584,392Z" fill="#b4e2ba" stroke="#b4e2ba" stroke-width="1.51"/><path d="M414,578L576,560L584,392Z" fill="#9ed8bf" stroke="#9ed8bf" stroke-width="1.51"/><path d="M382,362L414,578L584,392Z" fill="#a9ddbf" stroke="#a9ddbf" stroke-width="1.51"/><path d="M481,1006L551,994L585,791Z" fill="#80b8be" stroke="#80b8be" stroke-width="1.51"/><path d="M383,820L481,1006L585,791Z" fill="#87bfc3" stroke="#87bfc3" stroke-width="1.51"/><path d="M575,730L383,820L585,791Z" fill="#8bc7c7" stroke="#8bc7c7" stroke-width="1.51"/><path d="M477,-20L398,119L562,129Z" fill="#c8e9c4" stroke="#c8e9c4" stroke-width="1.51"/><path d="M388,1174L407,1286L561,1261Z" fill="#799caf" stroke="#799caf" stroke-width="1.51"/><path d="M398,119L441,248L562,129Z" fill="#c2e7c0" stroke="#c2e7c0" stroke-width="1.51"/><path d="M302,1256L123,1345L407,1286Z" fill="#7f99ae" stroke="#7f99ae" stroke-width="1.51"/><path d="M298,-33L398,119L477,-20Z" fill="#cfedc9" stroke="#cfedc9" stroke-width="1.51"/><path d="M448,-194L312,-161L477,-20Z" fill="#d6efd1" stroke="#d6efd1" stroke-width="1.51"/><path d="M312,-161L298,-33L477,-20Z" fill="#d6efcf" stroke="#d6efcf" stroke-width="1.51"/><path d="M383,820L293,829L481,1006Z" fill="#8cc0c5" stroke="#8cc0c5" stroke-width="1.51"/><path d="M293,829L239,1039L481,1006Z" fill="#8abac3" stroke="#8abac3" stroke-width="1.51"/><path d="M239,1039L388,1174L481,1006Z" fill="#85afbd" stroke="#85afbd" stroke-width="1.51"/><path d="M250,391L228,518L382,362Z" fill="#b4e2c3" stroke="#b4e2c3" stroke-width="1.51"/><path d="M298,-33L303,99L398,119Z" fill="#d0edc9" stroke="#d0edc9" stroke-width="1.51"/><path d="M382,362L228,518L414,578Z" fill="#acdec3" stroke="#acdec3" stroke-width="1.51"/><path d="M398,119L329,232L441,248Z" fill="#c5e8c1" stroke="#c5e8c1" stroke-width="1.51"/><path d="M329,232L382,362L441,248Z" fill="#bde6be" stroke="#bde6be" stroke-width="1.51"/><path d="M239,1039L238,1120L388,1174Z" fill="#86acbe" stroke="#86acbe" stroke-width="1.51"/><path d="M313,739L380,741L414,578Z" fill="#9bd2ca" stroke="#9bd2ca" stroke-width="1.51"/><path d="M388,1174L302,1256L407,1286Z" fill="#7e9eb1" stroke="#7e9eb1" stroke-width="1.51"/><path d="M228,518L313,739L414,578Z" fill="#a2d7c9" stroke="#a2d7c9" stroke-width="1.51"/><path d="M303,99L329,232L398,119Z" fill="#cbeac4" stroke="#cbeac4" stroke-width="1.51"/><path d="M380,741L313,739L383,820Z" fill="#95cccc" stroke="#95cccc" stroke-width="1.51"/><path d="M329,232L250,391L382,362Z" fill="#bce5be" stroke="#bce5be" stroke-width="1.51"/><path d="M313,739L293,829L383,820Z" fill="#94cacb" stroke="#94cacb" stroke-width="1.51"/><path d="M238,1120L302,1256L388,1174Z" fill="#82a4b9" stroke="#82a4b9" stroke-width="1.51"/><path d="M25,1324L-129,1342L123,1345Z" fill="#8598b3" stroke="#8598b3" stroke-width="1.51"/><path d="M97,564L79,717L228,518Z" fill="#a9dbcf" stroke="#a9dbcf" stroke-width="1.51"/><path d="M137,982L239,1039L293,829Z" fill="#8ebcc7" stroke="#8ebcc7" stroke-width="1.51"/><path d="M139,865L137,982L293,829Z" fill="#93c2cb" stroke="#93c2cb" stroke-width="1.51"/><path d="M298,-33L171,49L303,99Z" fill="#d4eecd" stroke="#d4eecd" stroke-width="1.51"/><path d="M138,-83L298,-33L312,-161Z" fill="#dbf1d4" stroke="#dbf1d4" stroke-width="1.51"/><path d="M228,518L79,717L313,739Z" fill="#a2d6cf" stroke="#a2d6cf" stroke-width="1.51"/><path d="M303,99L187,212L329,232Z" fill="#cbeac6" stroke="#cbeac6" stroke-width="1.51"/><path d="M187,212L250,391L329,232Z" fill="#c3e8c3" stroke="#c3e8c3" stroke-width="1.51"/><path d="M139,865L293,829L313,739Z" fill="#96cacd" stroke="#96cacd" stroke-width="1.51"/><path d="M79,717L139,865L313,739Z" fill="#9bced2" stroke="#9bced2" stroke-width="1.51"/><path d="M99,-172L138,-83L312,-161Z" fill="#e0f3d9" stroke="#e0f3d9" stroke-width="1.51"/><path d="M238,1120L98,1140L302,1256Z" fill="#86a7be" stroke="#86a7be" stroke-width="1.51"/><path d="M98,1140L123,1345L302,1256Z" fill="#84a0b7" stroke="#84a0b7" stroke-width="1.51"/><path d="M171,49L187,212L303,99Z" fill="#d1edca" stroke="#d1edca" stroke-width="1.51"/><path d="M187,212L115,337L250,391Z" fill="#c2e7c4" stroke="#c2e7c4" stroke-width="1.51"/><path d="M138,-83L171,49L298,-33Z" fill="#d9f0d3" stroke="#d9f0d3" stroke-width="1.51"/><path d="M115,337L228,518L250,391Z" fill="#b8e3c6" stroke="#b8e3c6" stroke-width="1.51"/><path d="M115,337L97,564L228,518Z" fill="#b4e1ca" stroke="#b4e1ca" stroke-width="1.51"/><path d="M98,1140L238,1120L239,1039Z" fill="#89aec2" stroke="#89aec2" stroke-width="1.51"/><path d="M137,982L98,1140L239,1039Z" fill="#8cb3c5" stroke="#8cb3c5" stroke-width="1.51"/><path d="M-19,430L97,564L115,337Z" fill="#b9e4cc" stroke="#b9e4cc" stroke-width="1.51"/><path d="M98,1140L25,1324L123,1345Z" fill="#869eb8" stroke="#869eb8" stroke-width="1.51"/><path d="M-71,89L30,251L171,49Z" fill="#d7f0d0" stroke="#d7f0d0" stroke-width="1.51"/><path d="M171,49L30,251L187,212Z" fill="#d0edcc" stroke="#d0edcc" stroke-width="1.51"/><path d="M30,251L115,337L187,212Z" fill="#c9eac8" stroke="#c9eac8" stroke-width="1.51"/><path d="M138,-83L-18,-108L171,49Z" fill="#def2d8" stroke="#def2d8" stroke-width="1.51"/><path d="M-18,-108L-71,89L171,49Z" fill="#ddf2d7" stroke="#ddf2d7" stroke-width="1.51"/><path d="M-18,1165L25,1324L98,1140Z" fill="#8aa5c0" stroke="#8aa5c0" stroke-width="1.51"/><path d="M-42,1010L98,1140L137,982Z" fill="#90b5c9" stroke="#90b5c9" stroke-width="1.51"/><path d="M99,-172L-18,-108L138,-83Z" fill="#e2f4dc" stroke="#e2f4dc" stroke-width="1.51"/><path d="M79,717L-46,800L139,865Z" fill="#9dced5" stroke="#9dced5" stroke-width="1.51"/><path d="M-42,1010L137,982L139,865Z" fill="#93becd" stroke="#93becd" stroke-width="1.51"/><path d="M-46,800L-42,1010L139,865Z" fill="#99c4d2" stroke="#99c4d2" stroke-width="1.51"/><path d="M-13,581L79,717L97,564Z" fill="#aadad3" stroke="#aadad3" stroke-width="1.51"/><path d="M-19,430L-13,581L97,564Z" fill="#b3e1d0" stroke="#b3e1d0" stroke-width="1.51"/><path d="M-42,1010L-18,1165L98,1140Z" fill="#8fb0c8" stroke="#8fb0c8" stroke-width="1.51"/><path d="M30,251L-19,430L115,337Z" fill="#c4e9c8" stroke="#c4e9c8" stroke-width="1.51"/><path d="M-13,581L-67,653L79,717Z" fill="#aad9d6" stroke="#aad9d6" stroke-width="1.51"/><path d="M-19,-185L-18,-108L99,-172Z" fill="#e6f5e0" stroke="#e6f5e0" stroke-width="1.51"/><path d="M-67,653L-46,800L79,717Z" fill="#a4d5d9" stroke="#a4d5d9" stroke-width="1.51"/><path d="M-46,800L-184,874L-42,1010Z" fill="#9dc6d5" stroke="#9dc6d5" stroke-width="1.51"/><path d="M-18,1165L-139,1193L25,1324Z" fill="#8ca4c0" stroke="#8ca4c0" stroke-width="1.51"/><path d="M-139,1193L-129,1342L25,1324Z" fill="#8b9ebb" stroke="#8b9ebb" stroke-width="1.51"/><path d="M-71,89L-178,192L30,251Z" fill="#d7f0d2" stroke="#d7f0d2" stroke-width="1.51"/><path d="M-178,192L-116,360L30,251Z" fill="#d0edcf" stroke="#d0edcf" stroke-width="1.51"/><path d="M-116,360L-19,430L30,251Z" fill="#c6e9cc" stroke="#c6e9cc" stroke-width="1.51"/><path d="M-184,874L-165,1007L-42,1010Z" fill="#9ac0d3" stroke="#9ac0d3" stroke-width="1.51"/><path d="M-165,1007L-139,1193L-42,1010Z" fill="#95b5ce" stroke="#95b5ce" stroke-width="1.51"/><path d="M-116,360L-212,531L-19,430Z" fill="#c0e6d2" stroke="#c0e6d2" stroke-width="1.51"/><path d="M-198,-58L-71,89L-18,-108Z" fill="#e4f5dd" stroke="#e4f5dd" stroke-width="1.51"/><path d="M-19,-185L-197,-202L-18,-108Z" fill="#ebf7e4" stroke="#ebf7e4" stroke-width="1.51"/><path d="M-42,1010L-139,1193L-18,1165Z" fill="#91b0ca" stroke="#91b0ca" stroke-width="1.51"/><path d="M-170,646L-67,653L-13,581Z" fill="#afdcd8" stroke="#afdcd8" stroke-width="1.51"/><path d="M-212,531L-170,646L-13,581Z" fill="#b4dfd7" stroke="#b4dfd7" stroke-width="1.51"/><path d="M-19,430L-212,531L-13,581Z" fill="#b8e3d3" stroke="#b8e3d3" stroke-width="1.51"/><path d="M-197,-202L-198,-58L-18,-108Z" fill="#eaf7e4" stroke="#eaf7e4" stroke-width="1.51"/><path d="M-67,653L-170,646L-46,800Z" fill="#aad8db" stroke="#aad8db" stroke-width="1.51"/><path d="M-170,646L-184,874L-46,800Z" fill="#a6d3dd" stroke="#a6d3dd" stroke-width="1.51"/><path d="M-204,137L-178,192L-71,89Z" fill="#ddf2d7" stroke="#ddf2d7" stroke-width="1.51"/><path d="M-198,-58L-204,137L-71,89Z" fill="#e2f4db" stroke="#e2f4db" stroke-width="1.51"/><path d="M-165,1007L-184,874L-129,1342Z" fill="#97b6cf" stroke="#97b6cf" stroke-width="1.51"/><path d="M-178,192L-212,531L-116,360Z" fill="#cbebd1" stroke="#cbebd1" stroke-width="1.51"/><path d="M-139,1193L-165,1007L-129,1342Z" fill="#92abc9" stroke="#92abc9" stroke-width="1.51"/><path d="M-204,137L-212,531L-178,192Z" fill="#d2eed3" stroke="#d2eed3" stroke-width="1.51"/><path d="M-212,531L-184,874L-170,646Z" fill="#afdade" stroke="#afdade" stroke-width="1.51"/><path d="M-204,137L-198,-58L-197,-202Z" fill="#e8f7e2" stroke="#e8f7e2" stroke-width="1.51"/></svg>