<svg xmlns="http://www.w3.org/2000/svg" width="1920" height="1080"><path d="M-197,-202L-19,-185L448,-194Z" fill="#cd3c4b" stroke="#cd3c4b" stroke-width="1.51"/><path d="M-197,-202L448,-194L837,-244Z" fill="#d85e4e" stroke="#d85e4e" stroke-width="1.51"/><path d="M897,1322L123,1345L1016,1332Z" fill="#b49699" stroke="#b49699" stroke-width="1.51"/><path d="M837,-244L1155,-230L1369,-265Z" fill="#d39273" stroke="#d39273" stroke-width="1.51"/><path d="M1016,1332L123,1345L1668,1345Z" fill="#b2a6b3" stroke="#b2a6b3" stroke-width="1.51"/><path d="M1451,1329L1016,1332L1668,1345Z" fill="#919ca6" stroke="#919ca6" stroke-width="1.51"/><path d="M1654,-192L1821,-173L1911,-185Z" fill="#a1747b" stroke="#a1747b" stroke-width="1.51"/><path d="M1654,-192L1911,-185L2060,-232Z" fill="#98687f" stroke="#98687f" stroke-width="1.51"/><path d="M1516,-223L1654,-192L2060,-232Z" fill="#9f7778" stroke="#9f7778" stroke-width="1.51"/><path d="M1369,-265L1516,-223L2060,-232Z" fill="#a27e73" stroke="#a27e73" stroke-width="1.51"/><path d="M1966,836L2063,873L2076,642Z" fill="#95a9aa" stroke="#95a9aa" stroke-width="1.51"/><path d="M1952,652L1966,836L2076,642Z" fill="#a1b2a9" stroke="#a1b2a9" stroke-width="1.51"/><path d="M2070,987L1968,1181L2098,1144Z" fill="#578ab0" stroke="#578ab0" stroke-width="1.51"/><path d="M2076,642L2063,873L2098,1144Z" fill="#839da9" stroke="#839da9" stroke-width="1.51"/><path d="M2063,873L2070,987L2098,1144Z" fill="#6b94a9" stroke="#6b94a9" stroke-width="1.51"/><path d="M2047,56L1886,188L2100,282Z" fill="#b4898a" stroke="#b4898a" stroke-width="1.51"/><path d="M2079,-104L2047,56L2100,282Z" fill="#b46f7d" stroke="#b46f7d" stroke-width="1.51"/><path d="M2100,282L1956,361L2118,381Z" fill="#b29c9b" stroke="#b29c9b" stroke-width="1.51"/><path d="M1956,361L2053,487L2118,381Z" fill="#b1a6a6" stroke="#b1a6a6" stroke-width="1.51"/><path d="M2053,487L2076,642L2118,381Z" fill="#b1a9b2" stroke="#b1a9b2" stroke-width="1.51"/><path d="M2076,642L2098,1144L2118,381Z" fill="#a3a5a5" stroke="#a3a5a5" stroke-width="1.51"/><path d="M2079,-104L2100,282L2118,381Z" fill="#b57f87" stroke="#b57f87" stroke-width="1.51"/><path d="M2098,1144L1968,1181L2118,1295Z" fill="#4877b4" stroke="#4877b4" stroke-width="1.51"/><path d="M1968,1181L1940,1323L2118,1295Z" fill="#4b73b2" stroke="#4b73b2" stroke-width="1.51"/><path d="M2118,381L2098,1144L2118,1295Z" fill="#7a95a8" stroke="#7a95a8" stroke-width="1.51"/><path d="M1907,1007L1968,1181L2070,987Z" fill="#579ab0" stroke="#579ab0" stroke-width="1.51"/><path d="M2053,487L1915,557L2076,642Z" fill="#acb5b8" stroke="#acb5b8" stroke-width="1.51"/><path d="M1915,557L1952,652L2076,642Z" fill="#a6b7b4" stroke="#a6b7b4" stroke-width="1.51"/><path d="M1909,-80L2047,56L2079,-104Z" fill="#ab687f" stroke="#ab687f" stroke-width="1.51"/><path d="M1886,188L1956,361L2100,282Z" fill="#b19d97" stroke="#b19d97" stroke-width="1.51"/><path d="M1909,-80L1935,50L2047,56Z" fill="#af7480" stroke="#af7480" stroke-width="1.51"/><path d="M1935,50L1886,188L2047,56Z" fill="#b38385" stroke="#b38385" stroke-width="1.51"/><path d="M2063,873L1966,836L2070,987Z" fill="#7ea1ac" stroke="#7ea1ac" stroke-width="1.51"/><path d="M1966,836L1907,1007L2070,987Z" fill="#70a4af" stroke="#70a4af" stroke-width="1.51"/><path d="M2060,-232L1911,-185L2079,-104Z" fill="#9b587d" stroke="#9b587d" stroke-width="1.51"/><path d="M1911,-185L1909,-80L2079,-104Z" fill="#a36482" stroke="#a36482" stroke-width="1.51"/><path d="M1956,361L1915,557L2053,487Z" fill="#adb4b2" stroke="#adb4b2" stroke-width="1.51"/><path d="M695,1288L123,1345L897,1322Z" fill="#b58e91" stroke="#b58e91" stroke-width="1.51"/><path d="M1830,1272L1668,1345L1940,1323Z" fill="#5682af" stroke="#5682af" stroke-width="1.51"/><path d="M1752,659L1839,888L1952,652Z" fill="#9cc4aa" stroke="#9cc4aa" stroke-width="1.51"/><path d="M1886,188L1729,274L1956,361Z" fill="#b4ac96" stroke="#b4ac96" stroke-width="1.51"/><path d="M1794,422L1915,557L1956,361Z" fill="#adbdb0" stroke="#adbdb0" stroke-width="1.51"/><path d="M1952,652L1839,888L1966,836Z" fill="#8cb6b0" stroke="#8cb6b0" stroke-width="1.51"/><path d="M1839,888L1907,1007L1966,836Z" fill="#74b0b1" stroke="#74b0b1" stroke-width="1.51"/><path d="M1907,1007L1835,1137L1968,1181Z" fill="#499ab6" stroke="#499ab6" stroke-width="1.51"/><path d="M1830,1272L1940,1323L1968,1181Z" fill="#417fb8" stroke="#417fb8" stroke-width="1.51"/><path d="M1835,1137L1830,1272L1968,1181Z" fill="#3a8dbb" stroke="#3a8dbb" stroke-width="1.51"/><path d="M1729,274L1794,422L1956,361Z" fill="#b3bb9f" stroke="#b3bb9f" stroke-width="1.51"/><path d="M1915,557L1752,659L1952,652Z" fill="#a6c5b4" stroke="#a6c5b4" stroke-width="1.51"/><path d="M1794,422L1776,529L1915,557Z" fill="#afcab5" stroke="#afcab5" stroke-width="1.51"/><path d="M1746,43L1886,188L1935,50Z" fill="#b68f83" stroke="#b68f83" stroke-width="1.51"/><path d="M1909,-80L1772,-42L1935,50Z" fill="#af7c81" stroke="#af7c81" stroke-width="1.51"/><path d="M1821,-173L1909,-80L1911,-185Z" fill="#a16d81" stroke="#a16d81" stroke-width="1.51"/><path d="M1772,-42L1746,43L1935,50Z" fill="#b6887c" stroke="#b6887c" stroke-width="1.51"/><path d="M1839,888L1762,989L1907,1007Z" fill="#6db5ae" stroke="#6db5ae" stroke-width="1.51"/><path d="M1762,989L1835,1137L1907,1007Z" fill="#5aadae" stroke="#5aadae" stroke-width="1.51"/><path d="M1776,529L1752,659L1915,557Z" fill="#adcdb5" stroke="#adcdb5" stroke-width="1.51"/><path d="M1821,-173L1772,-42L1909,-80Z" fill="#ab7980" stroke="#ab7980" stroke-width="1.51"/><path d="M407,1286L123,1345L695,1288Z" fill="#b57e86" stroke="#b57e86" stroke-width="1.51"/><path d="M1746,43L1729,274L1886,188Z" fill="#baa586" stroke="#baa586" stroke-width="1.51"/><path d="M1664,231L1729,274L1746,43Z" fill="#beb183" stroke="#beb183" stroke-width="1.51"/><path d="M1582,1190L1668,1345L1830,1272Z" fill="#5d97ad" stroke="#5d97ad" stroke-width="1.51"/><path d="M1582,1190L1830,1272L1835,1137Z" fill="#4c9cb5" stroke="#4c9cb5" stroke-width="1.51"/><path d="M1591,892L1762,989L1839,888Z" fill="#7dc4a8" stroke="#7dc4a8" stroke-width="1.51"/><path d="M1752,659L1591,892L1839,888Z" fill="#94cda6" stroke="#94cda6" stroke-width="1.51"/><path d="M1762,989L1582,1190L1835,1137Z" fill="#5bafad" stroke="#5bafad" stroke-width="1.51"/><path d="M1654,-192L1772,-42L1821,-173Z" fill="#ac807b" stroke="#ac807b" stroke-width="1.51"/><path d="M1729,274L1687,411L1794,422Z" fill="#b8c99b" stroke="#b8c99b" stroke-width="1.51"/><path d="M1601,655L1591,892L1752,659Z" fill="#aadba0" stroke="#aadba0" stroke-width="1.51"/><path d="M1591,892L1601,952L1762,989Z" fill="#7fcba5" stroke="#7fcba5" stroke-width="1.51"/><path d="M1654,-192L1633,-69L1772,-42Z" fill="#b48c78" stroke="#b48c78" stroke-width="1.51"/><path d="M1687,411L1776,529L1794,422Z" fill="#b5cfa9" stroke="#b5cfa9" stroke-width="1.51"/><path d="M1593,44L1664,231L1746,43Z" fill="#c2a979" stroke="#c2a979" stroke-width="1.51"/><path d="M1601,952L1582,1190L1762,989Z" fill="#6ac2a6" stroke="#6ac2a6" stroke-width="1.51"/><path d="M1613,535L1752,659L1776,529Z" fill="#b3dbb0" stroke="#b3dbb0" stroke-width="1.51"/><path d="M1687,411L1613,535L1776,529Z" fill="#b8dbab" stroke="#b8dbab" stroke-width="1.51"/><path d="M1633,-69L1746,43L1772,-42Z" fill="#b99178" stroke="#b99178" stroke-width="1.51"/><path d="M1613,535L1601,655L1752,659Z" fill="#b5e0a9" stroke="#b5e0a9" stroke-width="1.51"/><path d="M1633,-69L1593,44L1746,43Z" fill="#c19b74" stroke="#c19b74" stroke-width="1.51"/><path d="M1506,788L1591,892L1601,655Z" fill="#acdca2" stroke="#acdca2" stroke-width="1.51"/><path d="M1664,231L1687,411L1729,274Z" fill="#bcc690" stroke="#bcc690" stroke-width="1.51"/><path d="M1226,1277L1016,1332L1451,1329Z" fill="#a2a7a6" stroke="#a2a7a6" stroke-width="1.51"/><path d="M1482,1158L1582,1190L1601,952Z" fill="#74bdaa" stroke="#74bdaa" stroke-width="1.51"/><path d="M1593,44L1494,184L1664,231Z" fill="#cbb67e" stroke="#cbb67e" stroke-width="1.51"/><path d="M1664,231L1528,399L1687,411Z" fill="#c2d195" stroke="#c2d195" stroke-width="1.51"/><path d="M1528,399L1613,535L1687,411Z" fill="#c2dca4" stroke="#c2dca4" stroke-width="1.51"/><path d="M1494,184L1528,399L1664,231Z" fill="#cbc98b" stroke="#cbc98b" stroke-width="1.51"/><path d="M1582,1190L1451,1329L1668,1345Z" fill="#739bab" stroke="#739bab" stroke-width="1.51"/><path d="M1516,-223L1633,-69L1654,-192Z" fill="#b48977" stroke="#b48977" stroke-width="1.51"/><path d="M1468,951L1482,1158L1601,952Z" fill="#83cca5" stroke="#83cca5" stroke-width="1.51"/><path d="M1500,636L1601,655L1613,535Z" fill="#c1e5aa" stroke="#c1e5aa" stroke-width="1.51"/><path d="M1458,-12L1593,44L1633,-69Z" fill="#c89d75" stroke="#c89d75" stroke-width="1.51"/><path d="M1516,-223L1458,-12L1633,-69Z" fill="#c49478" stroke="#c49478" stroke-width="1.51"/><path d="M1458,-12L1482,42L1593,44Z" fill="#d1a473" stroke="#d1a473" stroke-width="1.51"/><path d="M1482,42L1494,184L1593,44Z" fill="#d2ae77" stroke="#d2ae77" stroke-width="1.51"/><path d="M1500,636L1506,788L1601,655Z" fill="#bfe4a0" stroke="#bfe4a0" stroke-width="1.51"/><path d="M1528,399L1464,551L1613,535Z" fill="#cae4ab" stroke="#cae4ab" stroke-width="1.51"/><path d="M1464,551L1500,636L1613,535Z" fill="#c8e8ae" stroke="#c8e8ae" stroke-width="1.51"/><path d="M1482,1158L1451,1329L1582,1190Z" fill="#75a9b0" stroke="#75a9b0" stroke-width="1.51"/><path d="M1591,892L1468,951L1601,952Z" fill="#90d1a5" stroke="#90d1a5" stroke-width="1.51"/><path d="M1494,184L1381,271L1528,399Z" fill="#d6d08c" stroke="#d6d08c" stroke-width="1.51"/><path d="M1506,788L1468,951L1591,892Z" fill="#9fd8a4" stroke="#9fd8a4" stroke-width="1.51"/><path d="M-19,-185L99,-172L448,-194Z" fill="#d64849" stroke="#d64849" stroke-width="1.51"/><path d="M1468,951L1318,994L1482,1158Z" fill="#8ed0a4" stroke="#8ed0a4" stroke-width="1.51"/><path d="M1500,636L1348,716L1506,788Z" fill="#c6e89f" stroke="#c6e89f" stroke-width="1.51"/><path d="M1350,786L1468,951L1506,788Z" fill="#b1dfa3" stroke="#b1dfa3" stroke-width="1.51"/><path d="M1352,-26L1458,-12L1516,-223Z" fill="#ce9a77" stroke="#ce9a77" stroke-width="1.51"/><path d="M1369,-265L1352,-26L1516,-223Z" fill="#c69175" stroke="#c69175" stroke-width="1.51"/><path d="M1349,444L1464,551L1528,399Z" fill="#d5e7a6" stroke="#d5e7a6" stroke-width="1.51"/><path d="M1381,271L1349,444L1528,399Z" fill="#d9df97" stroke="#d9df97" stroke-width="1.51"/><path d="M1345,1166L1451,1329L1482,1158Z" fill="#80aeb0" stroke="#80aeb0" stroke-width="1.51"/><path d="M1318,994L1345,1166L1482,1158Z" fill="#8dc5a9" stroke="#8dc5a9" stroke-width="1.51"/><path d="M1482,42L1353,63L1494,184Z" fill="#dbb377" stroke="#dbb377" stroke-width="1.51"/><path d="M1348,716L1350,786L1506,788Z" fill="#c4e69f" stroke="#c4e69f" stroke-width="1.51"/><path d="M1280,1263L1226,1277L1451,1329Z" fill="#95a7a9" stroke="#95a7a9" stroke-width="1.51"/><path d="M1464,551L1318,591L1500,636Z" fill="#d3edab" stroke="#d3edab" stroke-width="1.51"/><path d="M1318,591L1348,716L1500,636Z" fill="#d4eda4" stroke="#d4eda4" stroke-width="1.51"/><path d="M1353,63L1381,271L1494,184Z" fill="#dec27e" stroke="#dec27e" stroke-width="1.51"/><path d="M1350,786L1318,994L1468,951Z" fill="#acdca3" stroke="#acdca3" stroke-width="1.51"/><path d="M1458,-12L1353,63L1482,42Z" fill="#daa873" stroke="#daa873" stroke-width="1.51"/><path d="M1345,1166L1280,1263L1451,1329Z" fill="#8dabac" stroke="#8dabac" stroke-width="1.51"/><path d="M1352,-26L1353,63L1458,-12Z" fill="#dda772" stroke="#dda772" stroke-width="1.51"/><path d="M1349,444L1318,591L1464,551Z" fill="#ddf0ae" stroke="#ddf0ae" stroke-width="1.51"/><path d="M1225,484L1318,591L1349,444Z" fill="#e7f2a8" stroke="#e7f2a8" stroke-width="1.51"/><path d="M1195,855L1318,994L1350,786Z" fill="#bde4a1" stroke="#bde4a1" stroke-width="1.51"/><path d="M1232,55L1181,203L1353,63Z" fill="#eebd74" stroke="#eebd74" stroke-width="1.51"/><path d="M1218,-68L1352,-26L1369,-265Z" fill="#d99c75" stroke="#d99c75" stroke-width="1.51"/><path d="M1155,-230L1218,-68L1369,-265Z" fill="#d59671" stroke="#d59671" stroke-width="1.51"/><path d="M1198,387L1349,444L1381,271Z" fill="#e6e494" stroke="#e6e494" stroke-width="1.51"/><path d="M1181,203L1198,387L1381,271Z" fill="#eedb87" stroke="#eedb87" stroke-width="1.51"/><path d="M1353,63L1181,203L1381,271Z" fill="#e9c77c" stroke="#e9c77c" stroke-width="1.51"/><path d="M448,-194L636,-194L837,-244Z" fill="#dd8162" stroke="#dd8162" stroke-width="1.51"/><path d="M1318,994L1164,1195L1345,1166Z" fill="#9bc8a8" stroke="#9bc8a8" stroke-width="1.51"/><path d="M1318,591L1131,648L1348,716Z" fill="#e2f3a0" stroke="#e2f3a0" stroke-width="1.51"/><path d="M1198,387L1225,484L1349,444Z" fill="#ecee9d" stroke="#ecee9d" stroke-width="1.51"/><path d="M1348,716L1195,855L1350,786Z" fill="#cdea9e" stroke="#cdea9e" stroke-width="1.51"/><path d="M1218,-68L1232,55L1352,-26Z" fill="#e7aa70" stroke="#e7aa70" stroke-width="1.51"/><path d="M1352,-26L1232,55L1353,63Z" fill="#e7ae6f" stroke="#e7ae6f" stroke-width="1.51"/><path d="M1131,648L1195,855L1348,716Z" fill="#ddf19a" stroke="#ddf19a" stroke-width="1.51"/><path d="M1164,1195L1280,1263L1345,1166Z" fill="#96b8ae" stroke="#96b8ae" stroke-width="1.51"/><path d="M1091,1026L1164,1195L1318,994Z" fill="#a9d5a3" stroke="#a9d5a3" stroke-width="1.51"/><path d="M1129,971L1091,1026L1318,994Z" fill="#b4dfa1" stroke="#b4dfa1" stroke-width="1.51"/><path d="M1195,855L1129,971L1318,994Z" fill="#bbe39f" stroke="#bbe39f" stroke-width="1.51"/><path d="M1225,484L1131,648L1318,591Z" fill="#edf8a8" stroke="#edf8a8" stroke-width="1.51"/><path d="M1164,1195L1226,1277L1280,1263Z" fill="#9fb3ab" stroke="#9fb3ab" stroke-width="1.51"/><path d="M1131,648L1037,723L1195,855Z" fill="#e4f4a0" stroke="#e4f4a0" stroke-width="1.51"/><path d="M1181,203L1051,256L1198,387Z" fill="#f7de8a" stroke="#f7de8a" stroke-width="1.51"/><path d="M1155,-230L1035,-58L1218,-68Z" fill="#e8a277" stroke="#e8a277" stroke-width="1.51"/><path d="M1026,484L1131,648L1225,484Z" fill="#f7fcb2" stroke="#f7fcb2" stroke-width="1.51"/><path d="M1001,54L1181,203L1232,55Z" fill="#f8c076" stroke="#f8c076" stroke-width="1.51"/><path d="M1218,-68L1035,-58L1232,55Z" fill="#efad72" stroke="#efad72" stroke-width="1.51"/><path d="M1035,-58L1001,54L1232,55Z" fill="#f7b376" stroke="#f7b376" stroke-width="1.51"/><path d="M1017,-159L1035,-58L1155,-230Z" fill="#e69f7b" stroke="#e69f7b" stroke-width="1.51"/><path d="M1198,387L1053,411L1225,484Z" fill="#f5f19d" stroke="#f5f19d" stroke-width="1.51"/><path d="M1164,1195L1016,1332L1226,1277Z" fill="#a6b2ae" stroke="#a6b2ae" stroke-width="1.51"/><path d="M1053,411L1026,484L1225,484Z" fill="#f8f5a7" stroke="#f8f5a7" stroke-width="1.51"/><path d="M837,-244L1017,-159L1155,-230Z" fill="#df987d" stroke="#df987d" stroke-width="1.51"/><path d="M1091,1026L1048,1187L1164,1195Z" fill="#a8cab0" stroke="#a8cab0" stroke-width="1.51"/><path d="M1048,1187L1016,1332L1164,1195Z" fill="#a6b8b4" stroke="#a6b8b4" stroke-width="1.51"/><path d="M1001,54L1051,256L1181,203Z" fill="#fbcd82" stroke="#fbcd82" stroke-width="1.51"/><path d="M1037,723L1013,808L1195,855Z" fill="#ddf1a5" stroke="#ddf1a5" stroke-width="1.51"/><path d="M1051,256L1053,411L1198,387Z" fill="#f8e996" stroke="#f8e996" stroke-width="1.51"/><path d="M1013,808L1129,971L1195,855Z" fill="#cceba5" stroke="#cceba5" stroke-width="1.51"/><path d="M1026,484L897,570L1037,723Z" fill="#fafdb7" stroke="#fafdb7" stroke-width="1.51"/><path d="M1013,808L1091,1026L1129,971Z" fill="#c4e6a9" stroke="#c4e6a9" stroke-width="1.51"/><path d="M1026,484L1037,723L1131,648Z" fill="#f3faad" stroke="#f3faad" stroke-width="1.51"/><path d="M894,1013L871,1116L1048,1187Z" fill="#b2d2b6" stroke="#b2d2b6" stroke-width="1.51"/><path d="M1051,256L930,278L1053,411Z" fill="#fde599" stroke="#fde599" stroke-width="1.51"/><path d="M894,1013L1048,1187L1091,1026Z" fill="#b2d8b2" stroke="#b2d8b2" stroke-width="1.51"/><path d="M1013,808L894,1013L1091,1026Z" fill="#c5e7af" stroke="#c5e7af" stroke-width="1.51"/><path d="M840,92L930,278L1001,54Z" fill="#ffc785" stroke="#ffc785" stroke-width="1.51"/><path d="M897,570L842,656L1037,723Z" fill="#f7f9ae" stroke="#f7f9ae" stroke-width="1.51"/><path d="M897,1322L1016,1332L1048,1187Z" fill="#adb2b8" stroke="#adb2b8" stroke-width="1.51"/><path d="M1001,54L930,278L1051,256Z" fill="#ffd48b" stroke="#ffd48b" stroke-width="1.51"/><path d="M868,423L1026,484L1053,411Z" fill="#fef5ad" stroke="#fef5ad" stroke-width="1.51"/><path d="M930,278L868,423L1053,411Z" fill="#ffeea3" stroke="#ffeea3" stroke-width="1.51"/><path d="M830,821L894,1013L1013,808Z" fill="#d4eaac" stroke="#d4eaac" stroke-width="1.51"/><path d="M871,1116L897,1322L1048,1187Z" fill="#a9bebd" stroke="#a9bebd" stroke-width="1.51"/><path d="M1017,-159L864,-7L1035,-58Z" fill="#f5aa82" stroke="#f5aa82" stroke-width="1.51"/><path d="M864,-7L1001,54L1035,-58Z" fill="#fbb280" stroke="#fbb280" stroke-width="1.51"/><path d="M842,656L1013,808L1037,723Z" fill="#eff8ac" stroke="#eff8ac" stroke-width="1.51"/><path d="M842,656L830,821L1013,808Z" fill="#e9f2a6" stroke="#e9f2a6" stroke-width="1.51"/><path d="M868,423L897,570L1026,484Z" fill="#fff8b4" stroke="#fff8b4" stroke-width="1.51"/><path d="M785,-194L864,-7L1017,-159Z" fill="#f0a07d" stroke="#f0a07d" stroke-width="1.51"/><path d="M837,-244L785,-194L1017,-159Z" fill="#e29579" stroke="#e29579" stroke-width="1.51"/><path d="M864,-7L840,92L1001,54Z" fill="#ffb579" stroke="#ffb579" stroke-width="1.51"/><path d="M561,1261L407,1286L695,1288Z" fill="#b39493" stroke="#b39493" stroke-width="1.51"/><path d="M830,821L749,990L894,1013Z" fill="#cadfa4" stroke="#cadfa4" stroke-width="1.51"/><path d="M871,1116L768,1152L897,1322Z" fill="#abbbb4" stroke="#abbbb4" stroke-width="1.51"/><path d="M840,92L735,235L930,278Z" fill="#ffcd81" stroke="#ffcd81" stroke-width="1.51"/><path d="M735,235L785,349L930,278Z" fill="#ffd98a" stroke="#ffd98a" stroke-width="1.51"/><path d="M785,349L868,423L930,278Z" fill="#ffe597" stroke="#ffe597" stroke-width="1.51"/><path d="M749,990L871,1116L894,1013Z" fill="#b9d8a6" stroke="#b9d8a6" stroke-width="1.51"/><path d="M768,1152L695,1288L897,1322Z" fill="#afadaa" stroke="#afadaa" stroke-width="1.51"/><path d="M868,423L717,544L897,570Z" fill="#fff4ac" stroke="#fff4ac" stroke-width="1.51"/><path d="M717,544L842,656L897,570Z" fill="#fcf5a9" stroke="#fcf5a9" stroke-width="1.51"/><path d="M785,-194L679,-55L864,-7Z" fill="#f29c71" stroke="#f29c71" stroke-width="1.51"/><path d="M714,714L830,821L842,656Z" fill="#eeee9a" stroke="#eeee9a" stroke-width="1.51"/><path d="M743,59L840,92L864,-7Z" fill="#feaf71" stroke="#feaf71" stroke-width="1.51"/><path d="M785,349L717,544L868,423Z" fill="#ffea9c" stroke="#ffea9c" stroke-width="1.51"/><path d="M749,990L768,1152L871,1116Z" fill="#b6cda5" stroke="#b6cda5" stroke-width="1.51"/><path d="M679,-55L743,59L864,-7Z" fill="#f9a66c" stroke="#f9a66c" stroke-width="1.51"/><path d="M99,-172L312,-161L448,-194Z" fill="#dc574b" stroke="#dc574b" stroke-width="1.51"/><path d="M699,821L749,990L830,821Z" fill="#d6e19c" stroke="#d6e19c" stroke-width="1.51"/><path d="M714,714L699,821L830,821Z" fill="#e5e798" stroke="#e5e798" stroke-width="1.51"/><path d="M636,-194L785,-194L837,-244Z" fill="#df8b6c" stroke="#df8b6c" stroke-width="1.51"/><path d="M743,59L735,235L840,92Z" fill="#febc73" stroke="#febc73" stroke-width="1.51"/><path d="M717,544L714,714L842,656Z" fill="#f8ef9d" stroke="#f8ef9d" stroke-width="1.51"/><path d="M636,-194L630,-93L679,-55Z" fill="#ed8d66" stroke="#ed8d66" stroke-width="1.51"/><path d="M634,240L735,235L743,59Z" fill="#fec071" stroke="#fec071" stroke-width="1.51"/><path d="M749,990L627,1137L768,1152Z" fill="#b6c69d" stroke="#b6c69d" stroke-width="1.51"/><path d="M584,392L717,544L785,349Z" fill="#ffe291" stroke="#ffe291" stroke-width="1.51"/><path d="M735,235L634,240L785,349Z" fill="#fed17e" stroke="#fed17e" stroke-width="1.51"/><path d="M634,240L584,392L785,349Z" fill="#fed480" stroke="#fed480" stroke-width="1.51"/><path d="M636,-194L679,-55L785,-194Z" fill="#e98f69" stroke="#e98f69" stroke-width="1.51"/><path d="M562,129L634,240L743,59Z" fill="#fdb369" stroke="#fdb369" stroke-width="1.51"/><path d="M627,1137L695,1288L768,1152Z" fill="#aeb2a4" stroke="#aeb2a4" stroke-width="1.51"/><path d="M576,560L714,714L717,544Z" fill="#fae898" stroke="#fae898" stroke-width="1.51"/><path d="M699,821L551,994L749,990Z" fill="#cdd493" stroke="#cdd493" stroke-width="1.51"/><path d="M551,994L627,1137L749,990Z" fill="#bcc992" stroke="#bcc992" stroke-width="1.51"/><path d="M679,-55L562,129L743,59Z" fill="#fca261" stroke="#fca261" stroke-width="1.51"/><path d="M576,560L575,730L714,714Z" fill="#f6e28d" stroke="#f6e28d" stroke-width="1.51"/><path d="M584,392L576,560L717,544Z" fill="#ffe196" stroke="#ffe196" stroke-width="1.51"/><path d="M627,1137L561,1261L695,1288Z" fill="#b0a49d" stroke="#b0a49d" stroke-width="1.51"/><path d="M585,791L551,994L699,821Z" fill="#d9d48e" stroke="#d9d48e" stroke-width="1.51"/><path d="M585,791L699,821L714,714Z" fill="#e8e08f" stroke="#e8e08f" stroke-width="1.51"/><path d="M575,730L585,791L714,714Z" fill="#edde8a" stroke="#edde8a" stroke-width="1.51"/><path d="M630,-93L477,-20L679,-55Z" fill="#f28f5f" stroke="#f28f5f" stroke-width="1.51"/><path d="M477,-20L562,129L679,-55Z" fill="#f8955a" stroke="#f8955a" stroke-width="1.51"/><path d="M441,248L584,392L634,240Z" fill="#fec272" stroke="#fec272" stroke-width="1.51"/><path d="M448,-194L630,-93L636,-194Z" fill="#e47f5f" stroke="#e47f5f" stroke-width="1.51"/><path d="M551,994L481,1006L627,1137Z" fill="#bebf8b" stroke="#bebf8b" stroke-width="1.51"/><path d="M562,129L441,248L634,240Z" fill="#feb466" stroke="#feb466" stroke-width="1.51"/><path d="M448,-194L477,-20L630,-93Z" fill="#ec815b" stroke="#ec815b" stroke-width="1.51"/><path d="M388,1174L561,1261L627,1137Z" fill="#b2a195" stroke="#b2a195" stroke-width="1.51"/><path d="M481,1006L388,1174L627,1137Z" fill="#b9af8c" stroke="#b9af8c" stroke-width="1.51"/><path d="M414,578L380,741L575,730Z" fill="#f6d07d" stroke="#f6d07d" stroke-width="1.51"/><path d="M380,741L383,820L575,730Z" fill="#ebca7d" stroke="#ebca7d" stroke-width="1.51"/><path d="M414,578L575,730L576,560Z" fill="#fbd98a" stroke="#fbd98a" stroke-width="1.51"/><path d="M441,248L382,362L584,392Z" fill="#fec070" stroke="#fec070" stroke-width="1.51"/><path d="M414,578L576,560L584,392Z" fill="#ffd88f" stroke="#ffd88f" stroke-width="1.51"/><path d="M382,362L414,578L584,392Z" fill="#ffcb7f" stroke="#ffcb7f" stroke-width="1.51"/><path d="M481,1006L551,994L585,791Z" fill="#d0c888" stroke="#d0c888" stroke-width="1.51"/><path d="M383,820L481,1006L585,791Z" fill="#dac783" stroke="#dac783" stroke-width="1.51"/><path d="M575,730L383,820L585,791Z" fill="#e9d082" stroke="#e9d082" stroke-width="1.51"/><path d="M477,-20L398,119L562,129Z" fill="#fa9554" stroke="#fa9554" stroke-width="1.51"/><path d="M388,1174L407,1286L561,1261Z" fill="#b3908d" stroke="#b3908d" stroke-width="1.51"/><path d="M398,119L441,248L562,129Z" fill="#fca45c" stroke="#fca45c" stroke-width="1.51"/><path d="M302,1256L123,1345L407,1286Z" fill="#b4707d" stroke="#b4707d" stroke-width="1.51"/><path d="M298,-33L398,119L477,-20Z" fill="#f5804d" stroke="#f5804d" stroke-width="1.51"/><path d="M448,-194L312,-161L477,-20Z" fill="#e87054" stroke="#e87054" stroke-width="1.51"/><path d="M312,-161L298,-33L477,-20Z" fill="#ec704f" stroke="#ec704f" stroke-width="1.51"/><path d="M383,820L293,829L481,1006Z" fill="#d8bb7c" stroke="#d8bb7c" stroke-width="1.51"/><path d="M293,829L239,1039L481,1006Z" fill="#cdaf7a" stroke="#cdaf7a" stroke-width="1.51"/><path d="M239,1039L388,1174L481,1006Z" fill="#bea680" stroke="#bea680" stroke-width="1.51"/><path d="M250,391L228,518L382,362Z" fill="#feb370" stroke="#feb370" stroke-width="1.51"/><path d="M298,-33L303,99L398,119Z" fill="#f77e4a" stroke="#f77e4a" stroke-width="1.51"/><path d="M382,362L228,518L414,578Z" fill="#ffc07d" stroke="#ffc07d" stroke-width="1.51"/><path d="M398,119L329,232L441,248Z" fill="#fca05a" stroke="#fca05a" stroke-width="1.51"/><path d="M329,232L382,362L441,248Z" fill="#fdad64" stroke="#fdad64" stroke-width="1.51"/><path d="M239,1039L238,1120L388,1174Z" fill="#bb957e" stroke="#bb957e" stroke-width="1.51"/><path d="M313,739L380,741L414,578Z" fill="#f6c577" stroke="#f6c577" stroke-width="1.51"/><path d="M388,1174L302,1256L407,1286Z" fill="#b48687" stroke="#b48687" stroke-width="1.51"/><path d="M228,518L313,739L414,578Z" fill="#fbc07c" stroke="#fbc07c" stroke-width="1.51"/><path d="M303,99L329,232L398,119Z" fill="#fa9153" stroke="#fa9153" stroke-width="1.51"/><path d="M380,741L313,739L383,820Z" fill="#ebbf76" stroke="#ebbf76" stroke-width="1.51"/><path d="M329,232L250,391L382,362Z" fill="#fdac65" stroke="#fdac65" stroke-width="1.51"/><path d="M313,739L293,829L383,820Z" fill="#e6b976" stroke="#e6b976" stroke-width="1.51"/><path d="M238,1120L302,1256L388,1174Z" fill="#b48a85" stroke="#b48a85" stroke-width="1.51"/><path d="M25,1324L-129,1342L123,1345Z" fill="#a54f7b" stroke="#a54f7b" stroke-width="1.51"/><path d="M97,564L79,717L228,518Z" fill="#f5ae7b" stroke="#f5ae7b" stroke-width="1.51"/><path d="M137,982L239,1039L293,829Z" fill="#cea373" stroke="#cea373" stroke-width="1.51"/><path d="M139,865L137,982L293,829Z" fill="#d5a474" stroke="#d5a474" stroke-width="1.51"/><path d="M298,-33L171,49L303,99Z" fill="#f46f45" stroke="#f46f45" stroke-width="1.51"/><path d="M138,-83L298,-33L312,-161Z" fill="#e75c49" stroke="#e75c49" stroke-width="1.51"/><path d="M228,518L79,717L313,739Z" fill="#f5b372" stroke="#f5b372" stroke-width="1.51"/><path d="M303,99L187,212L329,232Z" fill="#f98e51" stroke="#f98e51" stroke-width="1.51"/><path d="M187,212L250,391L329,232Z" fill="#fb9c5b" stroke="#fb9c5b" stroke-width="1.51"/><path d="M139,865L293,829L313,739Z" fill="#e4ae71" stroke="#e4ae71" stroke-width="1.51"/><path d="M79,717L139,865L313,739Z" fill="#e5ab70" stroke="#e5ab70" stroke-width="1.51"/><path d="M99,-172L138,-83L312,-161Z" fill="#de4e4a" stroke="#de4e4a" stroke-width="1.51"/><path d="M238,1120L98,1140L302,1256Z" fill="#b4827f" stroke="#b4827f" stroke-width="1.51"/><path d="M98,1140L123,1345L302,1256Z" fill="#af707f" stroke="#af707f" stroke-width="1.51"/><path d="M171,49L187,212L303,99Z" fill="#f57b4a" stroke="#f57b4a" stroke-width="1.51"/><path d="M187,212L115,337L250,391Z" fill="#f89a60" stroke="#f89a60" stroke-width="1.51"/><path d="M138,-83L171,49L298,-33Z" fill="#eb6147" stroke="#eb6147" stroke-width="1.51"/><path d="M115,337L228,518L250,391Z" fill="#fba96e" stroke="#fba96e" stroke-width="1.51"/><path d="M115,337L97,564L228,518Z" fill="#f9aa77" stroke="#f9aa77" stroke-width="1.51"/><path d="M98,1140L238,1120L239,1039Z" fill="#b98d7a" stroke="#b98d7a" stroke-width="1.51"/><path d="M137,982L98,1140L239,1039Z" fill="#bb9477" stroke="#bb9477" stroke-width="1.51"/><path d="M-19,430L97,564L115,337Z" fill="#f3a175" stroke="#f3a175" stroke-width="1.51"/><path d="M98,1140L25,1324L123,1345Z" fill="#aa647f" stroke="#aa647f" stroke-width="1.51"/><path d="M-71,89L30,251L171,49Z" fill="#ea6e50" stroke="#ea6e50" stroke-width="1.51"/><path d="M171,49L30,251L187,212Z" fill="#f17d51" stroke="#f17d51" stroke-width="1.51"/><path d="M30,251L115,337L187,212Z" fill="#f28d5c" stroke="#f28d5c" stroke-width="1.51"/><path d="M138,-83L-18,-108L171,49Z" fill="#e3534b" stroke="#e3534b" stroke-width="1.51"/><path d="M-18,-108L-71,89L171,49Z" fill="#e3554a" stroke="#e3554a" stroke-width="1.51"/><path d="M-18,1165L25,1324L98,1140Z" fill="#a56c83" stroke="#a56c83" stroke-width="1.51"/><path d="M-42,1010L98,1140L137,982Z" fill="#b58e77" stroke="#b58e77" stroke-width="1.51"/><path d="M99,-172L-18,-108L138,-83Z" fill="#da464e" stroke="#da464e" stroke-width="1.51"/><path d="M79,717L-46,800L139,865Z" fill="#db9f74" stroke="#db9f74" stroke-width="1.51"/><path d="M-42,1010L137,982L139,865Z" fill="#c49677" stroke="#c49677" stroke-width="1.51"/><path d="M-46,800L-42,1010L139,865Z" fill="#ca9677" stroke="#ca9677" stroke-width="1.51"/><path d="M-13,581L79,717L97,564Z" fill="#eea77a" stroke="#eea77a" stroke-width="1.51"/><path d="M-19,430L-13,581L97,564Z" fill="#f2a582" stroke="#f2a582" stroke-width="1.51"/><path d="M-42,1010L-18,1165L98,1140Z" fill="#ad7f7e" stroke="#ad7f7e" stroke-width="1.51"/><path d="M30,251L-19,430L115,337Z" fill="#ef9267" stroke="#ef9267" stroke-width="1.51"/><path d="M-13,581L-67,653L79,717Z" fill="#e9a178" stroke="#e9a178" stroke-width="1.51"/><path d="M-19,-185L-18,-108L99,-172Z" fill="#d03b4d" stroke="#d03b4d" stroke-width="1.51"/><path d="M-67,653L-46,800L79,717Z" fill="#e19e72" stroke="#e19e72" stroke-width="1.51"/><path d="M-46,800L-184,874L-42,1010Z" fill="#be8d75" stroke="#be8d75" stroke-width="1.51"/><path d="M-18,1165L-139,1193L25,1324Z" fill="#9e6282" stroke="#9e6282" stroke-width="1.51"/><path d="M-139,1193L-129,1342L25,1324Z" fill="#9a547c" stroke="#9a547c" stroke-width="1.51"/><path d="M-71,89L-178,192L30,251Z" fill="#e16d54" stroke="#e16d54" stroke-width="1.51"/><path d="M-178,192L-116,360L30,251Z" fill="#e17c5d" stroke="#e17c5d" stroke-width="1.51"/><path d="M-116,360L-19,430L30,251Z" fill="#e98d68" stroke="#e98d68" stroke-width="1.51"/><path d="M-184,874L-165,1007L-42,1010Z" fill="#af8574" stroke="#af8574" stroke-width="1.51"/><path d="M-165,1007L-139,1193L-42,1010Z" fill="#a27a78" stroke="#a27a78" stroke-width="1.51"/><path d="M-116,360L-212,531L-19,430Z" fill="#e19173" stroke="#e19173" stroke-width="1.51"/><path d="M-198,-58L-71,89L-18,-108Z" fill="#d3444a" stroke="#d3444a" stroke-width="1.51"/><path d="M-19,-185L-197,-202L-18,-108Z" fill="#c4304b" stroke="#c4304b" stroke-width="1.51"/><path d="M-42,1010L-139,1193L-18,1165Z" fill="#a3757d" stroke="#a3757d" stroke-width="1.51"/><path d="M-170,646L-67,653L-13,581Z" fill="#e19b79" stroke="#e19b79" stroke-width="1.51"/><path d="M-212,531L-170,646L-13,581Z" fill="#de987c" stroke="#de987c" stroke-width="1.51"/><path d="M-19,430L-212,531L-13,581Z" fill="#e79b7f" stroke="#e79b7f" stroke-width="1.51"/><path d="M-197,-202L-198,-58L-18,-108Z" fill="#c4304c" stroke="#c4304c" stroke-width="1.51"/><path d="M-67,653L-170,646L-46,800Z" fill="#da9870" stroke="#da9870" stroke-width="1.51"/><path d="M-170,646L-184,874L-46,800Z" fill="#cb9171" stroke="#cb9171" stroke-width="1.51"/><path d="M-204,137L-178,192L-71,89Z" fill="#d65e4f" stroke="#d65e4f" stroke-width="1.51"/><path d="M-198,-58L-204,137L-71,89Z" fill="#d34b47" stroke="#d34b47" stroke-width="1.51"/><path d="M-165,1007L-184,874L-129,1342Z" fill="#9d7676" stroke="#9d7676" stroke-width="1.51"/><path d="M-178,192L-212,531L-116,360Z" fill="#d98466" stroke="#d98466" stroke-width="1.51"/><path d="M-139,1193L-165,1007L-129,1342Z" fill="#94647e" stroke="#94647e" stroke-width="1.51"/><path d="M-204,137L-212,531L-178,192Z" fill="#d4755c" stroke="#d4755c" stroke-width="1.51"/><path d="M-212,531L-184,874L-170,646Z" fill="#d19070" stroke="#d19070" stroke-width="1.51"/><path d="M-204,137L-198,-58L-197,-202Z" fill="#c53848" stroke="#c53848" stroke-width="1.51"/></svg>