<svg xmlns="http://www.w3.org/2000/svg" width="1920" height="1080"><path d="M-197,-202L-19,-185L448,-194Z" fill="#f3f3f3" stroke="#f3f3f3" stroke-width="1.51"/><path d="M-197,-202L448,-194L837,-244Z" fill="#e9e9e9" stroke="#e9e9e9" stroke-width="1.51"/><path d="M897,1322L123,1345L1016,1332Z" fill="#5c5c5c" stroke="#5c5c5c" stroke-width="1.51"/><path d="M837,-244L1155,-230L1369,-265Z" fill="#bebebe" stroke="#bebebe" stroke-width="1.51"/><path d="M1016,1332L123,1345L1668,1345Z" fill="#4c4c4c" stroke="#4c4c4c" stroke-width="1.51"/><path d="M1451,1329L1016,1332L1668,1345Z" fill="#363636" stroke="#363636" stroke-width="1.51"/><path d="M1654,-192L1821,-173L1911,-185Z" fill="#8c8c8c" stroke="#8c8c8c" stroke-width="1.51"/><path d="M1654,-192L1911,-185L2060,-232Z" fill="#868686" stroke="#868686" stroke-width="1.51"/><path d="M1516,-223L1654,-192L2060,-232Z" fill="#929292" stroke="#929292" stroke-width="1.51"/><path d="M1369,-265L1516,-223L2060,-232Z" fill="#9b9b9b" stroke="#9b9b9b" stroke-width="1.51"/><path d="M1966,836L2063,873L2076,642Z" fill="#3e3e3e" stroke="#3e3e3e" stroke-width="1.51"/><path d="M1952,652L1966,836L2076,642Z" fill="#454545" stroke="#454545" stroke-width="1.51"/><path d="M2070,987L1968,1181L2098,1144Z" fill="#212121" stroke="#212121" stroke-width="1.51"/><path d="M2076,642L2063,873L2098,1144Z" fill="#343434" stroke="#343434" stroke-width="1.51"/><path d="M2063,873L2070,987L2098,1144Z" fill="#2a2a2a" stroke="#2a2a2a" stroke-width="1.51"/><path d="M2047,56L1886,188L2100,282Z" fill="#6c6c6c" stroke="#6c6c6c" stroke-width="1.51"/><path d="M2079,-104L2047,56L2100,282Z" fill="#6e6e6e" stroke="#6e6e6e" stroke-width="1.51"/><path d="M2100,282L1956,361L2118,381Z" fill="#606060" stroke="#606060" stroke-width="1.51"/><path d="M1956,361L2053,487L2118,381Z" fill="#5b5b5b" stroke="#5b5b5b" stroke-width="1.51"/><path d="M2053,487L2076,642L2118,381Z" fill="#515151" stroke="#515151" stroke-width="1.51"/><path d="M2076,642L2098,1144L2118,381Z" fill="#3f3f3f" stroke="#3f3f3f" stroke-width="1.51"/><path d="M2079,-104L2100,282L2118,381Z" fill="#676767" stroke="#676767" stroke-width="1.51"/><path d="M2098,1144L1968,1181L2118,1295Z" fill="#171717" stroke="#171717" stroke-width="1.51"/><path d="M1968,1181L1940,1323L2118,1295Z" fill="#161616" stroke="#161616" stroke-width="1.51"/><path d="M2118,381L2098,1144L2118,1295Z" fill="#2e2e2e" stroke="#2e2e2e" stroke-width="1.51"/><path d="M1907,1007L1968,1181L2070,987Z" fill="#292929" stroke="#292929" stroke-width="1.51"/><path d="M2053,487L1915,557L2076,642Z" fill="#505050" stroke="#505050" stroke-width="1.51"/><path d="M1915,557L1952,652L2076,642Z" fill="#4d4d4d" stroke="#4d4d4d" stroke-width="1.51"/><path d="M1909,-80L2047,56L2079,-104Z" fill="#787878" stroke="#787878" stroke-width="1.51"/><path d="M1886,188L1956,361L2100,282Z" fill="#686868" stroke="#686868" stroke-width="1.51"/><path d="M1909,-80L1935,50L2047,56Z" fill="#787878" stroke="#787878" stroke-width="1.51"/><path d="M1935,50L1886,188L2047,56Z" fill="#747474" stroke="#747474" stroke-width="1.51"/><path d="M2063,873L1966,836L2070,987Z" fill="#353535" stroke="#353535" stroke-width="1.51"/><path d="M1966,836L1907,1007L2070,987Z" fill="#353535" stroke="#353535" stroke-width="1.51"/><path d="M2060,-232L1911,-185L2079,-104Z" fill="#7d7d7d" stroke="#7d7d7d" stroke-width="1.51"/><path d="M1911,-185L1909,-80L2079,-104Z" fill="#7d7d7d" stroke="#7d7d7d" stroke-width="1.51"/><path d="M1956,361L1915,557L2053,487Z" fill="#5a5a5a" stroke="#5a5a5a" stroke-width="1.51"/><path d="M695,1288L123,1345L897,1322Z" fill="#626262" stroke="#626262" stroke-width="1.51"/><path d="M1830,1272L1668,1345L1940,1323Z" fill="#1d1d1d" stroke="#1d1d1d" stroke-width="1.51"/><path d="M1752,659L1839,888L1952,652Z" fill="#4c4c4c" stroke="#4c4c4c" stroke-width="1.51"/><path d="M1886,188L1729,274L1956,361Z" fill="#707070" stroke="#707070" stroke-width="1.51"/><path d="M1794,422L1915,557L1956,361Z" fill="#606060" stroke="#606060" stroke-width="1.51"/><path d="M1952,652L1839,888L1966,836Z" fill="#444444" stroke="#444444" stroke-width="1.51"/><path d="M1839,888L1907,1007L1966,836Z" fill="#3c3c3c" stroke="#3c3c3c" stroke-width="1.51"/><path d="M1907,1007L1835,1137L1968,1181Z" fill="#282828" stroke="#282828" stroke-width="1.51"/><path d="M1830,1272L1940,1323L1968,1181Z" fill="#1b1b1b" stroke="#1b1b1b" stroke-width="1.51"/><path d="M1835,1137L1830,1272L1968,1181Z" fill="#212121" stroke="#212121" stroke-width="1.51"/><path d="M1729,274L1794,422L1956,361Z" fill="#6d6d6d" stroke="#6d6d6d" stroke-width="1.51"/><path d="M1915,557L1752,659L1952,652Z" fill="#535353" stroke="#535353" stroke-width="1.51"/><path d="M1794,422L1776,529L1915,557Z" fill="#606060" stroke="#606060" stroke-width="1.51"/><path d="M1746,43L1886,188L1935,50Z" fill="#7b7b7b" stroke="#7b7b7b" stroke-width="1.51"/><path d="M1909,-80L1772,-42L1935,50Z" fill="#808080" stroke="#808080" stroke-width="1.51"/><path d="M1821,-173L1909,-80L1911,-185Z" fill="#848484" stroke="#848484" stroke-width="1.51"/><path d="M1772,-42L1746,43L1935,50Z" fill="#828282" stroke="#828282" stroke-width="1.51"/><path d="M1839,888L1762,989L1907,1007Z" fill="#3b3b3b" stroke="#3b3b3b" stroke-width="1.51"/><path d="M1762,989L1835,1137L1907,1007Z" fill="#333333" stroke="#333333" stroke-width="1.51"/><path d="M1776,529L1752,659L1915,557Z" fill="#5b5b5b" stroke="#5b5b5b" stroke-width="1.51"/><path d="M1821,-173L1772,-42L1909,-80Z" fill="#868686" stroke="#868686" stroke-width="1.51"/><path d="M407,1286L123,1345L695,1288Z" fill="#696969" stroke="#696969" stroke-width="1.51"/><path d="M1746,43L1729,274L1886,188Z" fill="#7c7c7c" stroke="#7c7c7c" stroke-width="1.51"/><path d="M1664,231L1729,274L1746,43Z" fill="#818181" stroke="#818181" stroke-width="1.51"/><path d="M1582,1190L1668,1345L1830,1272Z" fill="#282828" stroke="#282828" stroke-width="1.51"/><path d="M1582,1190L1830,1272L1835,1137Z" fill="#2a2a2a" stroke="#2a2a2a" stroke-width="1.51"/><path d="M1591,892L1762,989L1839,888Z" fill="#474747" stroke="#474747" stroke-width="1.51"/><path d="M1752,659L1591,892L1839,888Z" fill="#4f4f4f" stroke="#4f4f4f" stroke-width="1.51"/><path d="M1762,989L1582,1190L1835,1137Z" fill="#343434" stroke="#343434" stroke-width="1.51"/><path d="M1654,-192L1772,-42L1821,-173Z" fill="#8e8e8e" stroke="#8e8e8e" stroke-width="1.51"/><path d="M1729,274L1687,411L1794,422Z" fill="#737373" stroke="#737373" stroke-width="1.51"/><path d="M1601,655L1591,892L1752,659Z" fill="#5c5c5c" stroke="#5c5c5c" stroke-width="1.51"/><path d="M1591,892L1601,952L1762,989Z" fill="#4b4b4b" stroke="#4b4b4b" stroke-width="1.51"/><path d="M1654,-192L1633,-69L1772,-42Z" fill="#939393" stroke="#939393" stroke-width="1.51"/><path d="M1687,411L1776,529L1794,422Z" fill="#6a6a6a" stroke="#6a6a6a" stroke-width="1.51"/><path d="M1593,44L1664,231L1746,43Z" fill="#8a8a8a" stroke="#8a8a8a" stroke-width="1.51"/><path d="M1601,952L1582,1190L1762,989Z" fill="#404040" stroke="#404040" stroke-width="1.51"/><path d="M1613,535L1752,659L1776,529Z" fill="#636363" stroke="#636363" stroke-width="1.51"/><path d="M1687,411L1613,535L1776,529Z" fill="#6d6d6d" stroke="#6d6d6d" stroke-width="1.51"/><path d="M1633,-69L1746,43L1772,-42Z" fill="#8d8d8d" stroke="#8d8d8d" stroke-width="1.51"/><path d="M1613,535L1601,655L1752,659Z" fill="#656565" stroke="#656565" stroke-width="1.51"/><path d="M1633,-69L1593,44L1746,43Z" fill="#909090" stroke="#909090" stroke-width="1.51"/><path d="M1506,788L1591,892L1601,655Z" fill="#5f5f5f" stroke="#5f5f5f" stroke-width="1.51"/><path d="M1664,231L1687,411L1729,274Z" fill="#7c7c7c" stroke="#7c7c7c" stroke-width="1.51"/><path d="M1226,1277L1016,1332L1451,1329Z" fill="#3f3f3f" stroke="#3f3f3f" stroke-width="1.51"/><path d="M1482,1158L1582,1190L1601,952Z" fill="#424242" stroke="#424242" stroke-width="1.51"/><path d="M1593,44L1494,184L1664,231Z" fill="#8f8f8f" stroke="#8f8f8f" stroke-width="1.51"/><path d="M1664,231L1528,399L1687,411Z" fill="#7f7f7f" stroke="#7f7f7f" stroke-width="1.51"/><path d="M1528,399L1613,535L1687,411Z" fill="#777777" stroke="#777777" stroke-width="1.51"/><path d="M1494,184L1528,399L1664,231Z" fill="#898989" stroke="#898989" stroke-width="1.51"/><path d="M1582,1190L1451,1329L1668,1345Z" fill="#303030" stroke="#303030" stroke-width="1.51"/><path d="M1516,-223L1633,-69L1654,-192Z" fill="#9d9d9d" stroke="#9d9d9d" stroke-width="1.51"/><path d="M1468,951L1482,1158L1601,952Z" fill="#4d4d4d" stroke="#4d4d4d" stroke-width="1.51"/><path d="M1500,636L1601,655L1613,535Z" fill="#6c6c6c" stroke="#6c6c6c" stroke-width="1.51"/><path d="M1458,-12L1593,44L1633,-69Z" fill="#9a9a9a" stroke="#9a9a9a" stroke-width="1.51"/><path d="M1516,-223L1458,-12L1633,-69Z" fill="#a0a0a0" stroke="#a0a0a0" stroke-width="1.51"/><path d="M1458,-12L1482,42L1593,44Z" fill="#9a9a9a" stroke="#9a9a9a" stroke-width="1.51"/><path d="M1482,42L1494,184L1593,44Z" fill="#979797" stroke="#979797" stroke-width="1.51"/><path d="M1500,636L1506,788L1601,655Z" fill="#686868" stroke="#686868" stroke-width="1.51"/><path d="M1528,399L1464,551L1613,535Z" fill="#797979" stroke="#797979" stroke-width="1.51"/><path d="M1464,551L1500,636L1613,535Z" fill="#727272" stroke="#727272" stroke-width="1.51"/><path d="M1482,1158L1451,1329L1582,1190Z" fill="#383838" stroke="#383838" stroke-width="1.51"/><path d="M1591,892L1468,951L1601,952Z" fill="#545454" stroke="#545454" stroke-width="1.51"/><path d="M1494,184L1381,271L1528,399Z" fill="#8e8e8e" stroke="#8e8e8e" stroke-width="1.51"/><path d="M1506,788L1468,951L1591,892Z" fill="#5a5a5a" stroke="#5a5a5a" stroke-width="1.51"/><path d="M-19,-185L99,-172L448,-194Z" fill="#efefef" stroke="#efefef" stroke-width="1.51"/><path d="M1468,951L1318,994L1482,1158Z" fill="#505050" stroke="#505050" stroke-width="1.51"/><path d="M1500,636L1348,716L1506,788Z" fill="#6b6b6b" stroke="#6b6b6b" stroke-width="1.51"/><path d="M1350,786L1468,951L1506,788Z" fill="#616161" stroke="#616161" stroke-width="1.51"/><path d="M1352,-26L1458,-12L1516,-223Z" fill="#a5a5a5" stroke="#a5a5a5" stroke-width="1.51"/><path d="M1369,-265L1352,-26L1516,-223Z" fill="#a9a9a9" stroke="#a9a9a9" stroke-width="1.51"/><path d="M1349,444L1464,551L1528,399Z" fill="#808080" stroke="#808080" stroke-width="1.51"/><path d="M1381,271L1349,444L1528,399Z" fill="#8a8a8a" stroke="#8a8a8a" stroke-width="1.51"/><path d="M1345,1166L1451,1329L1482,1158Z" fill="#3c3c3c" stroke="#3c3c3c" stroke-width="1.51"/><path d="M1318,994L1345,1166L1482,1158Z" fill="#4a4a4a" stroke="#4a4a4a" stroke-width="1.51"/><path d="M1482,42L1353,63L1494,184Z" fill="#9b9b9b" stroke="#9b9b9b" stroke-width="1.51"/><path d="M1348,716L1350,786L1506,788Z" fill="#696969" stroke="#696969" stroke-width="1.51"/><path d="M1280,1263L1226,1277L1451,1329Z" fill="#3d3d3d" stroke="#3d3d3d" stroke-width="1.51"/><path d="M1464,551L1318,591L1500,636Z" fill="#767676" stroke="#767676" stroke-width="1.51"/><path d="M1318,591L1348,716L1500,636Z" fill="#747474" stroke="#747474" stroke-width="1.51"/><path d="M1353,63L1381,271L1494,184Z" fill="#999999" stroke="#999999" stroke-width="1.51"/><path d="M1350,786L1318,994L1468,951Z" fill="#5f5f5f" stroke="#5f5f5f" stroke-width="1.51"/><path d="M1458,-12L1353,63L1482,42Z" fill="#9f9f9f" stroke="#9f9f9f" stroke-width="1.51"/><path d="M1345,1166L1280,1263L1451,1329Z" fill="#3e3e3e" stroke="#3e3e3e" stroke-width="1.51"/><path d="M1352,-26L1353,63L1458,-12Z" fill="#a3a3a3" stroke="#a3a3a3" stroke-width="1.51"/><path d="M1349,444L1318,591L1464,551Z" fill="#7f7f7f" stroke="#7f7f7f" stroke-width="1.51"/><path d="M1225,484L1318,591L1349,444Z" fill="#858585" stroke="#858585" stroke-width="1.51"/><path d="M1195,855L1318,994L1350,786Z" fill="#676767" stroke="#676767" stroke-width="1.51"/><path d="M1232,55L1181,203L1353,63Z" fill="#a6a6a6" stroke="#a6a6a6" stroke-width="1.51"/><path d="M1218,-68L1352,-26L1369,-265Z" fill="#aeaeae" stroke="#aeaeae" stroke-width="1.51"/><path d="M1155,-230L1218,-68L1369,-265Z" fill="#b4b4b4" stroke="#b4b4b4" stroke-width="1.51"/><path d="M1198,387L1349,444L1381,271Z" fill="#919191" stroke="#919191" stroke-width="1.51"/><path d="M1181,203L1198,387L1381,271Z" fill="#9b9b9b" stroke="#9b9b9b" stroke-width="1.51"/><path d="M1353,63L1181,203L1381,271Z" fill="#9f9f9f" stroke="#9f9f9f" stroke-width="1.51"/><path d="M448,-194L636,-194L837,-244Z" fill="#dcdcdc" stroke="#dcdcdc" stroke-width="1.51"/><path d="M1318,994L1164,1195L1345,1166Z" fill="#4e4e4e" stroke="#4e4e4e" stroke-width="1.51"/><path d="M1318,591L1131,648L1348,716Z" fill="#7a7a7a" stroke="#7a7a7a" stroke-width="1.51"/><path d="M1198,387L1225,484L1349,444Z" fill="#8e8e8e" stroke="#8e8e8e" stroke-width="1.51"/><path d="M1348,716L1195,855L1350,786Z" fill="#6e6e6e" stroke="#6e6e6e" stroke-width="1.51"/><path d="M1218,-68L1232,55L1352,-26Z" fill="#acacac" stroke="#acacac" stroke-width="1.51"/><path d="M1352,-26L1232,55L1353,63Z" fill="#a7a7a7" stroke="#a7a7a7" stroke-width="1.51"/><path d="M1131,648L1195,855L1348,716Z" fill="#757575" stroke="#757575" stroke-width="1.51"/><path d="M1164,1195L1280,1263L1345,1166Z" fill="#464646" stroke="#464646" stroke-width="1.51"/><path d="M1091,1026L1164,1195L1318,994Z" fill="#585858" stroke="#585858" stroke-width="1.51"/><path d="M1129,971L1091,1026L1318,994Z" fill="#616161" stroke="#616161" stroke-width="1.51"/><path d="M1195,855L1129,971L1318,994Z" fill="#666666" stroke="#666666" stroke-width="1.51"/><path d="M1225,484L1131,648L1318,591Z" fill="#838383" stroke="#838383" stroke-width="1.51"/><path d="M1164,1195L1226,1277L1280,1263Z" fill="#454545" stroke="#454545" stroke-width="1.51"/><path d="M1131,648L1037,723L1195,855Z" fill="#7b7b7b" stroke="#7b7b7b" stroke-width="1.51"/><path d="M1181,203L1051,256L1198,387Z" fill="#a1a1a1" stroke="#a1a1a1" stroke-width="1.51"/><path d="M1155,-230L1035,-58L1218,-68Z" fill="#b8b8b8" stroke="#b8b8b8" stroke-width="1.51"/><path d="M1026,484L1131,648L1225,484Z" fill="#8c8c8c" stroke="#8c8c8c" stroke-width="1.51"/><path d="M1001,54L1181,203L1232,55Z" fill="#adadad" stroke="#adadad" stroke-width="1.51"/><path d="M1218,-68L1035,-58L1232,55Z" fill="#b2b2b2" stroke="#b2b2b2" stroke-width="1.51"/><path d="M1035,-58L1001,54L1232,55Z" fill="#b5b5b5" stroke="#b5b5b5" stroke-width="1.51"/><path d="M1017,-159L1035,-58L1155,-230Z" fill="#bebebe" stroke="#bebebe" stroke-width="1.51"/><path d="M1198,387L1053,411L1225,484Z" fill="#959595" stroke="#959595" stroke-width="1.51"/><path d="M1164,1195L1016,1332L1226,1277Z" fill="#474747" stroke="#474747" stroke-width="1.51"/><path d="M1053,411L1026,484L1225,484Z" fill="#959595" stroke="#959595" stroke-width="1.51"/><path d="M837,-244L1017,-159L1155,-230Z" fill="#c4c4c4" stroke="#c4c4c4" stroke-width="1.51"/><path d="M1091,1026L1048,1187L1164,1195Z" fill="#555555" stroke="#555555" stroke-width="1.51"/><path d="M1048,1187L1016,1332L1164,1195Z" fill="#4e4e4e" stroke="#4e4e4e" stroke-width="1.51"/><path d="M1001,54L1051,256L1181,203Z" fill="#adadad" stroke="#adadad" stroke-width="1.51"/><path d="M1037,723L1013,808L1195,855Z" fill="#797979" stroke="#797979" stroke-width="1.51"/><path d="M1051,256L1053,411L1198,387Z" fill="#9f9f9f" stroke="#9f9f9f" stroke-width="1.51"/><path d="M1013,808L1129,971L1195,855Z" fill="#717171" stroke="#717171" stroke-width="1.51"/><path d="M1026,484L897,570L1037,723Z" fill="#909090" stroke="#909090" stroke-width="1.51"/><path d="M1013,808L1091,1026L1129,971Z" fill="#6e6e6e" stroke="#6e6e6e" stroke-width="1.51"/><path d="M1026,484L1037,723L1131,648Z" fill="#898989" stroke="#898989" stroke-width="1.51"/><path d="M894,1013L871,1116L1048,1187Z" fill="#626262" stroke="#626262" stroke-width="1.51"/><path d="M1051,256L930,278L1053,411Z" fill="#a8a8a8" stroke="#a8a8a8" stroke-width="1.51"/><path d="M894,1013L1048,1187L1091,1026Z" fill="#626262" stroke="#626262" stroke-width="1.51"/><path d="M1013,808L894,1013L1091,1026Z" fill="#717171" stroke="#717171" stroke-width="1.51"/><path d="M840,92L930,278L1001,54Z" fill="#b9b9b9" stroke="#b9b9b9" stroke-width="1.51"/><path d="M897,570L842,656L1037,723Z" fill="#8e8e8e" stroke="#8e8e8e" stroke-width="1.51"/><path d="M897,1322L1016,1332L1048,1187Z" fill="#4f4f4f" stroke="#4f4f4f" stroke-width="1.51"/><path d="M1001,54L930,278L1051,256Z" fill="#b0b0b0" stroke="#b0b0b0" stroke-width="1.51"/><path d="M868,423L1026,484L1053,411Z" fill="#9e9e9e" stroke="#9e9e9e" stroke-width="1.51"/><path d="M930,278L868,423L1053,411Z" fill="#a6a6a6" stroke="#a6a6a6" stroke-width="1.51"/><path d="M830,821L894,1013L1013,808Z" fill="#7c7c7c" stroke="#7c7c7c" stroke-width="1.51"/><path d="M871,1116L897,1322L1048,1187Z" fill="#585858" stroke="#585858" stroke-width="1.51"/><path d="M1017,-159L864,-7L1035,-58Z" fill="#c1c1c1" stroke="#c1c1c1" stroke-width="1.51"/><path d="M864,-7L1001,54L1035,-58Z" fill="#bebebe" stroke="#bebebe" stroke-width="1.51"/><path d="M842,656L1013,808L1037,723Z" fill="#868686" stroke="#868686" stroke-width="1.51"/><path d="M842,656L830,821L1013,808Z" fill="#878787" stroke="#878787" stroke-width="1.51"/><path d="M868,423L897,570L1026,484Z" fill="#9c9c9c" stroke="#9c9c9c" stroke-width="1.51"/><path d="M785,-194L864,-7L1017,-159Z" fill="#c8c8c8" stroke="#c8c8c8" stroke-width="1.51"/><path d="M837,-244L785,-194L1017,-159Z" fill="#cccccc" stroke="#cccccc" stroke-width="1.51"/><path d="M864,-7L840,92L1001,54Z" fill="#bfbfbf" stroke="#bfbfbf" stroke-width="1.51"/><path d="M561,1261L407,1286L695,1288Z" fill="#666666" stroke="#666666" stroke-width="1.51"/><path d="M830,821L749,990L894,1013Z" fill="#7c7c7c" stroke="#7c7c7c" stroke-width="1.51"/><path d="M871,1116L768,1152L897,1322Z" fill="#5e5e5e" stroke="#5e5e5e" stroke-width="1.51"/><path d="M840,92L735,235L930,278Z" fill="#bababa" stroke="#bababa" stroke-width="1.51"/><path d="M735,235L785,349L930,278Z" fill="#b5b5b5" stroke="#b5b5b5" stroke-width="1.51"/><path d="M785,349L868,423L930,278Z" fill="#aeaeae" stroke="#aeaeae" stroke-width="1.51"/><path d="M749,990L871,1116L894,1013Z" fill="#707070" stroke="#707070" stroke-width="1.51"/><path d="M768,1152L695,1288L897,1322Z" fill="#5c5c5c" stroke="#5c5c5c" stroke-width="1.51"/><path d="M868,423L717,544L897,570Z" fill="#a1a1a1" stroke="#a1a1a1" stroke-width="1.51"/><path d="M717,544L842,656L897,570Z" fill="#9a9a9a" stroke="#9a9a9a" stroke-width="1.51"/><path d="M785,-194L679,-55L864,-7Z" fill="#cfcfcf" stroke="#cfcfcf" stroke-width="1.51"/><path d="M714,714L830,821L842,656Z" fill="#909090" stroke="#909090" stroke-width="1.51"/><path d="M743,59L840,92L864,-7Z" fill="#c5c5c5" stroke="#c5c5c5" stroke-width="1.51"/><path d="M785,349L717,544L868,423Z" fill="#aaaaaa" stroke="#aaaaaa" stroke-width="1.51"/><path d="M749,990L768,1152L871,1116Z" fill="#6d6d6d" stroke="#6d6d6d" stroke-width="1.51"/><path d="M679,-55L743,59L864,-7Z" fill="#cbcbcb" stroke="#cbcbcb" stroke-width="1.51"/><path d="M99,-172L312,-161L448,-194Z" fill="#ebebeb" stroke="#ebebeb" stroke-width="1.51"/><path d="M699,821L749,990L830,821Z" fill="#868686" stroke="#868686" stroke-width="1.51"/><path d="M714,714L699,821L830,821Z" fill="#8e8e8e" stroke="#8e8e8e" stroke-width="1.51"/><path d="M636,-194L785,-194L837,-244Z" fill="#d5d5d5" stroke="#d5d5d5" stroke-width="1.51"/><path d="M743,59L735,235L840,92Z" fill="#c3c3c3" stroke="#c3c3c3" stroke-width="1.51"/><path d="M717,544L714,714L842,656Z" fill="#9a9a9a" stroke="#9a9a9a" stroke-width="1.51"/><path d="M636,-194L630,-93L679,-55Z" fill="#d8d8d8" stroke="#d8d8d8" stroke-width="1.51"/><path d="M634,240L735,235L743,59Z" fill="#c4c4c4" stroke="#c4c4c4" stroke-width="1.51"/><path d="M749,990L627,1137L768,1152Z" fill="#717171" stroke="#717171" stroke-width="1.51"/><path d="M584,392L717,544L785,349Z" fill="#b1b1b1" stroke="#b1b1b1" stroke-width="1.51"/><path d="M735,235L634,240L785,349Z" fill="#bdbdbd" stroke="#bdbdbd" stroke-width="1.51"/><path d="M634,240L584,392L785,349Z" fill="#bdbdbd" stroke="#bdbdbd" stroke-width="1.51"/><path d="M636,-194L679,-55L785,-194Z" fill="#d6d6d6" stroke="#d6d6d6" stroke-width="1.51"/><path d="M562,129L634,240L743,59Z" fill="#cacaca" stroke="#cacaca" stroke-width="1.51"/><path d="M627,1137L695,1288L768,1152Z" fill="#676767" stroke="#676767" stroke-width="1.51"/><path d="M576,560L714,714L717,544Z" fill="#a3a3a3" stroke="#a3a3a3" stroke-width="1.51"/><path d="M699,821L551,994L749,990Z" fill="#878787" stroke="#878787" stroke-width="1.51"/><path d="M551,994L627,1137L749,990Z" fill="#7b7b7b" stroke="#7b7b7b" stroke-width="1.51"/><path d="M679,-55L562,129L743,59Z" fill="#cfcfcf" stroke="#cfcfcf" stroke-width="1.51"/><path d="M576,560L575,730L714,714Z" fill="#a0a0a0" stroke="#a0a0a0" stroke-width="1.51"/><path d="M584,392L576,560L717,544Z" fill="#afafaf" stroke="#afafaf" stroke-width="1.51"/><path d="M627,1137L561,1261L695,1288Z" fill="#676767" stroke="#676767" stroke-width="1.51"/><path d="M585,791L551,994L699,821Z" fill="#8e8e8e" stroke="#8e8e8e" stroke-width="1.51"/><path d="M585,791L699,821L714,714Z" fill="#949494" stroke="#949494" stroke-width="1.51"/><path d="M575,730L585,791L714,714Z" fill="#999999" stroke="#999999" stroke-width="1.51"/><path d="M630,-93L477,-20L679,-55Z" fill="#d8d8d8" stroke="#d8d8d8" stroke-width="1.51"/><path d="M477,-20L562,129L679,-55Z" fill="#d5d5d5" stroke="#d5d5d5" stroke-width="1.51"/><path d="M441,248L584,392L634,240Z" fill="#c4c4c4" stroke="#c4c4c4" stroke-width="1.51"/><path d="M448,-194L630,-93L636,-194Z" fill="#dddddd" stroke="#dddddd" stroke-width="1.51"/><path d="M551,994L481,1006L627,1137Z" fill="#7f7f7f" stroke="#7f7f7f" stroke-width="1.51"/><path d="M562,129L441,248L634,240Z" fill="#cbcbcb" stroke="#cbcbcb" stroke-width="1.51"/><path d="M448,-194L477,-20L630,-93Z" fill="#dedede" stroke="#dedede" stroke-width="1.51"/><path d="M388,1174L561,1261L627,1137Z" fill="#6e6e6e" stroke="#6e6e6e" stroke-width="1.51"/><path d="M481,1006L388,1174L627,1137Z" fill="#797979" stroke="#797979" stroke-width="1.51"/><path d="M414,578L380,741L575,730Z" fill="#a6a6a6" stroke="#a6a6a6" stroke-width="1.51"/><path d="M380,741L383,820L575,730Z" fill="#9f9f9f" stroke="#9f9f9f" stroke-width="1.51"/><path d="M414,578L575,730L576,560Z" fill="#a8a8a8" stroke="#a8a8a8" stroke-width="1.51"/><path d="M441,248L382,362L584,392Z" fill="#c6c6c6" stroke="#c6c6c6" stroke-width="1.51"/><path d="M414,578L576,560L584,392Z" fill="#b3b3b3" stroke="#b3b3b3" stroke-width="1.51"/><path d="M382,362L414,578L584,392Z" fill="#bcbcbc" stroke="#bcbcbc" stroke-width="1.51"/><path d="M481,1006L551,994L585,791Z" fill="#8c8c8c" stroke="#8c8c8c" stroke-width="1.51"/><path d="M383,820L481,1006L585,791Z" fill="#949494" stroke="#949494" stroke-width="1.51"/><path d="M575,730L383,820L585,791Z" fill="#9b9b9b" stroke="#9b9b9b" stroke-width="1.51"/><path d="M477,-20L398,119L562,129Z" fill="#d6d6d6" stroke="#d6d6d6" stroke-width="1.51"/><path d="M388,1174L407,1286L561,1261Z" fill="#6d6d6d" stroke="#6d6d6d" stroke-width="1.51"/><path d="M398,119L441,248L562,129Z" fill="#d1d1d1" stroke="#d1d1d1" stroke-width="1.51"/><path d="M302,1256L123,1345L407,1286Z" fill="#6f6f6f" stroke="#6f6f6f" stroke-width="1.51"/><path d="M298,-33L398,119L477,-20Z" fill="#dddddd" stroke="#dddddd" stroke-width="1.51"/><path d="M448,-194L312,-161L477,-20Z" fill="#e3e3e3" stroke="#e3e3e3" stroke-width="1.51"/><path d="M312,-161L298,-33L477,-20Z" fill="#e4e4e4" stroke="#e4e4e4" stroke-width="1.51"/><path d="M383,820L293,829L481,1006Z" fill="#989898" stroke="#989898" stroke-width="1.51"/><path d="M293,829L239,1039L481,1006Z" fill="#939393" stroke="#939393" stroke-width="1.51"/><path d="M239,1039L388,1174L481,1006Z" fill="#838383" stroke="#838383" stroke-width="1.51"/><path d="M250,391L228,518L382,362Z" fill="#c5c5c5" stroke="#c5c5c5" stroke-width="1.51"/><path d="M298,-33L303,99L398,119Z" fill="#dddddd" stroke="#dddddd" stroke-width="1.51"/><path d="M382,362L228,518L414,578Z" fill="#bdbdbd" stroke="#bdbdbd" stroke-width="1.51"/><path d="M398,119L329,232L441,248Z" fill="#d2d2d2" stroke="#d2d2d2" stroke-width="1.51"/><path d="M329,232L382,362L441,248Z" fill="#cdcdcd" stroke="#cdcdcd" stroke-width="1.51"/><path d="M239,1039L238,1120L388,1174Z" fill="#818181" stroke="#818181" stroke-width="1.51"/><path d="M313,739L380,741L414,578Z" fill="#a9a9a9" stroke="#a9a9a9" stroke-width="1.51"/><path d="M388,1174L302,1256L407,1286Z" fill="#717171" stroke="#717171" stroke-width="1.51"/><path d="M228,518L313,739L414,578Z" fill="#b2b2b2" stroke="#b2b2b2" stroke-width="1.51"/><path d="M303,99L329,232L398,119Z" fill="#d8d8d8" stroke="#d8d8d8" stroke-width="1.51"/><path d="M380,741L313,739L383,820Z" fill="#a3a3a3" stroke="#a3a3a3" stroke-width="1.51"/><path d="M329,232L250,391L382,362Z" fill="#cdcdcd" stroke="#cdcdcd" stroke-width="1.51"/><path d="M313,739L293,829L383,820Z" fill="#a1a1a1" stroke="#a1a1a1" stroke-width="1.51"/><path d="M238,1120L302,1256L388,1174Z" fill="#787878" stroke="#787878" stroke-width="1.51"/><path d="M25,1324L-129,1342L123,1345Z" fill="#747474" stroke="#747474" stroke-width="1.51"/><path d="M97,564L79,717L228,518Z" fill="#bababa" stroke="#bababa" stroke-width="1.51"/><path d="M137,982L239,1039L293,829Z" fill="#979797" stroke="#979797" stroke-width="1.51"/><path d="M139,865L137,982L293,829Z" fill="#9e9e9e" stroke="#9e9e9e" stroke-width="1.51"/><path d="M298,-33L171,49L303,99Z" fill="#e2e2e2" stroke="#e2e2e2" stroke-width="1.51"/><path d="M138,-83L298,-33L312,-161Z" fill="#e9e9e9" stroke="#e9e9e9" stroke-width="1.51"/><path d="M228,518L79,717L313,739Z" fill="#b2b2b2" stroke="#b2b2b2" stroke-width="1.51"/><path d="M303,99L187,212L329,232Z" fill="#d9d9d9" stroke="#d9d9d9" stroke-width="1.51"/><path d="M187,212L250,391L329,232Z" fill="#d2d2d2" stroke="#d2d2d2" stroke-width="1.51"/><path d="M139,865L293,829L313,739Z" fill="#a3a3a3" stroke="#a3a3a3" stroke-width="1.51"/><path d="M79,717L139,865L313,739Z" fill="#a9a9a9" stroke="#a9a9a9" stroke-width="1.51"/><path d="M99,-172L138,-83L312,-161Z" fill="#ededed" stroke="#ededed" stroke-width="1.51"/><path d="M238,1120L98,1140L302,1256Z" fill="#7c7c7c" stroke="#7c7c7c" stroke-width="1.51"/><path d="M98,1140L123,1345L302,1256Z" fill="#777777" stroke="#777777" stroke-width="1.51"/><path d="M171,49L187,212L303,99Z" fill="#dfdfdf" stroke="#dfdfdf" stroke-width="1.51"/><path d="M187,212L115,337L250,391Z" fill="#d3d3d3" stroke="#d3d3d3" stroke-width="1.51"/><path d="M138,-83L171,49L298,-33Z" fill="#e7e7e7" stroke="#e7e7e7" stroke-width="1.51"/><path d="M115,337L228,518L250,391Z" fill="#c9c9c9" stroke="#c9c9c9" stroke-width="1.51"/><path d="M115,337L97,564L228,518Z" fill="#c5c5c5" stroke="#c5c5c5" stroke-width="1.51"/><path d="M98,1140L238,1120L239,1039Z" fill="#868686" stroke="#868686" stroke-width="1.51"/><path d="M137,982L98,1140L239,1039Z" fill="#8c8c8c" stroke="#8c8c8c" stroke-width="1.51"/><path d="M-19,430L97,564L115,337Z" fill="#cbcbcb" stroke="#cbcbcb" stroke-width="1.51"/><path d="M98,1140L25,1324L123,1345Z" fill="#787878" stroke="#787878" stroke-width="1.51"/><path d="M-71,89L30,251L171,49Z" fill="#e5e5e5" stroke="#e5e5e5" stroke-width="1.51"/><path d="M171,49L30,251L187,212Z" fill="#dfdfdf" stroke="#dfdfdf" stroke-width="1.51"/><path d="M30,251L115,337L187,212Z" fill="#d9d9d9" stroke="#d9d9d9" stroke-width="1.51"/><path d="M138,-83L-18,-108L171,49Z" fill="#ececec" stroke="#ececec" stroke-width="1.51"/><path d="M-18,-108L-71,89L171,49Z" fill="#ececec" stroke="#ececec" stroke-width="1.51"/><path d="M-18,1165L25,1324L98,1140Z" fill="#7f7f7f" stroke="#7f7f7f" stroke-width="1.51"/><path d="M-42,1010L98,1140L137,982Z" fill="#919191" stroke="#919191" stroke-width="1.51"/><path d="M99,-172L-18,-108L138,-83Z" fill="#f1f1f1" stroke="#f1f1f1" stroke-width="1.51"/><path d="M79,717L-46,800L139,865Z" fill="#ababab" stroke="#ababab" stroke-width="1.51"/><path d="M-42,1010L137,982L139,865Z" fill="#9d9d9d" stroke="#9d9d9d" stroke-width="1.51"/><path d="M-46,800L-42,1010L139,865Z" fill="#a4a4a4" stroke="#a4a4a4" stroke-width="1.51"/><path d="M-13,581L79,717L97,564Z" fill="#bbbbbb" stroke="#bbbbbb" stroke-width="1.51"/><path d="M-19,430L-13,581L97,564Z" fill="#c5c5c5" stroke="#c5c5c5" stroke-width="1.51"/><path d="M-42,1010L-18,1165L98,1140Z" fill="#8b8b8b" stroke="#8b8b8b" stroke-width="1.51"/><path d="M30,251L-19,430L115,337Z" fill="#d6d6d6" stroke="#d6d6d6" stroke-width="1.51"/><path d="M-13,581L-67,653L79,717Z" fill="#b9b9b9" stroke="#b9b9b9" stroke-width="1.51"/><path d="M-19,-185L-18,-108L99,-172Z" fill="#f4f4f4" stroke="#f4f4f4" stroke-width="1.51"/><path d="M-67,653L-46,800L79,717Z" fill="#b3b3b3" stroke="#b3b3b3" stroke-width="1.51"/><path d="M-46,800L-184,874L-42,1010Z" fill="#a6a6a6" stroke="#a6a6a6" stroke-width="1.51"/><path d="M-18,1165L-139,1193L25,1324Z" fill="#7f7f7f" stroke="#7f7f7f" stroke-width="1.51"/><path d="M-139,1193L-129,1342L25,1324Z" fill="#7a7a7a" stroke="#7a7a7a" stroke-width="1.51"/><path d="M-71,89L-178,192L30,251Z" fill="#e4e4e4" stroke="#e4e4e4" stroke-width="1.51"/><path d="M-178,192L-116,360L30,251Z" fill="#dedede" stroke="#dedede" stroke-width="1.51"/><path d="M-116,360L-19,430L30,251Z" fill="#d7d7d7" stroke="#d7d7d7" stroke-width="1.51"/><path d="M-184,874L-165,1007L-42,1010Z" fill="#a0a0a0" stroke="#a0a0a0" stroke-width="1.51"/><path d="M-165,1007L-139,1193L-42,1010Z" fill="#929292" stroke="#929292" stroke-width="1.51"/><path d="M-116,360L-212,531L-19,430Z" fill="#d0d0d0" stroke="#d0d0d0" stroke-width="1.51"/><path d="M-198,-58L-71,89L-18,-108Z" fill="#f1f1f1" stroke="#f1f1f1" stroke-width="1.51"/><path d="M-19,-185L-197,-202L-18,-108Z" fill="#f6f6f6" stroke="#f6f6f6" stroke-width="1.51"/><path d="M-42,1010L-139,1193L-18,1165Z" fill="#8a8a8a" stroke="#8a8a8a" stroke-width="1.51"/><path d="M-170,646L-67,653L-13,581Z" fill="#bdbdbd" stroke="#bdbdbd" stroke-width="1.51"/><path d="M-212,531L-170,646L-13,581Z" fill="#c3c3c3" stroke="#c3c3c3" stroke-width="1.51"/><path d="M-19,430L-212,531L-13,581Z" fill="#c8c8c8" stroke="#c8c8c8" stroke-width="1.51"/><path d="M-197,-202L-198,-58L-18,-108Z" fill="#f6f6f6" stroke="#f6f6f6" stroke-width="1.51"/><path d="M-67,653L-170,646L-46,800Z" fill="#b7b8b8" stroke="#b7b8b8" stroke-width="1.51"/><path d="M-170,646L-184,874L-46,800Z" fill="#b2b2b2" stroke="#b2b2b2" stroke-width="1.51"/><path d="M-204,137L-178,192L-71,89Z" fill="#e9e9e9" stroke="#e9e9e9" stroke-width="1.51"/><path d="M-198,-58L-204,137L-71,89Z" fill="#eeeeee" stroke="#eeeeee" stroke-width="1.51"/><path d="M-165,1007L-184,874L-129,1342Z" fill="#939393" stroke="#939393" stroke-width="1.51"/><path d="M-178,192L-212,531L-116,360Z" fill="#d9d9d9" stroke="#d9d9d9" stroke-width="1.51"/><path d="M-139,1193L-165,1007L-129,1342Z" fill="#868686" stroke="#868686" stroke-width="1.51"/><path d="M-204,137L-212,531L-178,192Z" fill="#e0e0e0" stroke="#e0e0e0" stroke-width="1.51"/><path d="M-212,531L-184,874L-170,646Z" fill="#bababa" stroke="#bababa" stroke-width="1.51"/><path d="M-204,137L-198,-58L-197,-202Z" fill="#f4f4f4" stroke="#f4f4f4" stroke-width="1.51"/></svg>