<svg xmlns="http://www.w3.org/2000/svg" width="1920" height="1080"><path d="M-197,-202L-19,-185L448,-194Z" fill="#e5eff9" stroke="#e5eff9" stroke-width="1.51"/><path d="M-197,-202L448,-194L837,-244Z" fill="#dae8f6" stroke="#dae8f6" stroke-width="1.51"/><path d="M897,1322L123,1345L1016,1332Z" fill="#5a7aa8" stroke="#5a7aa8" stroke-width="1.51"/><path d="M837,-244L1155,-230L1369,-265Z" fill="#a9cbe6" stroke="#a9cbe6" stroke-width="1.51"/><path d="M1016,1332L123,1345L1668,1345Z" fill="#426fa3" stroke="#426fa3" stroke-width="1.51"/><path d="M1451,1329L1016,1332L1668,1345Z" fill="#235c98" stroke="#235c98" stroke-width="1.51"/><path d="M1654,-192L1821,-173L1911,-185Z" fill="#8da1ce" stroke="#8da1ce" stroke-width="1.51"/><path d="M1654,-192L1911,-185L2060,-232Z" fill="#8c9dca" stroke="#8c9dca" stroke-width="1.51"/><path d="M1516,-223L1654,-192L2060,-232Z" fill="#91a6d1" stroke="#91a6d1" stroke-width="1.51"/><path d="M1369,-265L1516,-223L2060,-232Z" fill="#95acd6" stroke="#95acd6" stroke-width="1.51"/><path d="M1966,836L2063,873L2076,642Z" fill="#2763a0" stroke="#2763a0" stroke-width="1.51"/><path d="M1952,652L1966,836L2076,642Z" fill="#2f6ba7" stroke="#2f6ba7" stroke-width="1.51"/><path d="M2070,987L1968,1181L2098,1144Z" fill="#0d4a90" stroke="#0d4a90" stroke-width="1.51"/><path d="M2076,642L2063,873L2098,1144Z" fill="#1d5998" stroke="#1d5998" stroke-width="1.51"/><path d="M2063,873L2070,987L2098,1144Z" fill="#145093" stroke="#145093" stroke-width="1.51"/><path d="M2047,56L1886,188L2100,282Z" fill="#6e87b7" stroke="#6e87b7" stroke-width="1.51"/><path d="M2079,-104L2047,56L2100,282Z" fill="#7487b3" stroke="#7487b3" stroke-width="1.51"/><path d="M2100,282L1956,361L2118,381Z" fill="#5c7ead" stroke="#5c7ead" stroke-width="1.51"/><path d="M1956,361L2053,487L2118,381Z" fill="#547bad" stroke="#547bad" stroke-width="1.51"/><path d="M2053,487L2076,642L2118,381Z" fill="#4673a7" stroke="#4673a7" stroke-width="1.51"/><path d="M2076,642L2098,1144L2118,381Z" fill="#2c649e" stroke="#2c649e" stroke-width="1.51"/><path d="M2079,-104L2100,282L2118,381Z" fill="#6b81af" stroke="#6b81af" stroke-width="1.51"/><path d="M2098,1144L1968,1181L2118,1295Z" fill="#094285" stroke="#094285" stroke-width="1.51"/><path d="M1968,1181L1940,1323L2118,1295Z" fill="#093f82" stroke="#093f82" stroke-width="1.51"/><path d="M2118,381L2098,1144L2118,1295Z" fill="#185394" stroke="#185394" stroke-width="1.51"/><path d="M1907,1007L1968,1181L2070,987Z" fill="#115198" stroke="#115198" stroke-width="1.51"/><path d="M2053,487L1915,557L2076,642Z" fill="#4073aa" stroke="#4073aa" stroke-width="1.51"/><path d="M1915,557L1952,652L2076,642Z" fill="#3b71ac" stroke="#3b71ac" stroke-width="1.51"/><path d="M1909,-80L2047,56L2079,-104Z" fill="#7d8fbc" stroke="#7d8fbc" stroke-width="1.51"/><path d="M1886,188L1956,361L2100,282Z" fill="#6585b6" stroke="#6585b6" stroke-width="1.51"/><path d="M1909,-80L1935,50L2047,56Z" fill="#7c90bf" stroke="#7c90bf" stroke-width="1.51"/><path d="M1935,50L1886,188L2047,56Z" fill="#768dbd" stroke="#768dbd" stroke-width="1.51"/><path d="M2063,873L1966,836L2070,987Z" fill="#1c5b9c" stroke="#1c5b9c" stroke-width="1.51"/><path d="M1966,836L1907,1007L2070,987Z" fill="#185a9f" stroke="#185a9f" stroke-width="1.51"/><path d="M2060,-232L1911,-185L2079,-104Z" fill="#8593be" stroke="#8593be" stroke-width="1.51"/><path d="M1911,-185L1909,-80L2079,-104Z" fill="#8394c1" stroke="#8394c1" stroke-width="1.51"/><path d="M1956,361L1915,557L2053,487Z" fill="#4d7bb1" stroke="#4d7bb1" stroke-width="1.51"/><path d="M695,1288L123,1345L897,1322Z" fill="#627fac" stroke="#627fac" stroke-width="1.51"/><path d="M1830,1272L1668,1345L1940,1323Z" fill="#0c478b" stroke="#0c478b" stroke-width="1.51"/><path d="M1752,659L1839,888L1952,652Z" fill="#2e72b2" stroke="#2e72b2" stroke-width="1.51"/><path d="M1886,188L1729,274L1956,361Z" fill="#698dc0" stroke="#698dc0" stroke-width="1.51"/><path d="M1794,422L1915,557L1956,361Z" fill="#5282b9" stroke="#5282b9" stroke-width="1.51"/><path d="M1952,652L1839,888L1966,836Z" fill="#286aaa" stroke="#286aaa" stroke-width="1.51"/><path d="M1839,888L1907,1007L1966,836Z" fill="#1c62a6" stroke="#1c62a6" stroke-width="1.51"/><path d="M1907,1007L1835,1137L1968,1181Z" fill="#0c529b" stroke="#0c529b" stroke-width="1.51"/><path d="M1830,1272L1940,1323L1968,1181Z" fill="#09468b" stroke="#09468b" stroke-width="1.51"/><path d="M1835,1137L1830,1272L1968,1181Z" fill="#084d96" stroke="#084d96" stroke-width="1.51"/><path d="M1729,274L1794,422L1956,361Z" fill="#618cbf" stroke="#618cbf" stroke-width="1.51"/><path d="M1915,557L1752,659L1952,652Z" fill="#3c78b5" stroke="#3c78b5" stroke-width="1.51"/><path d="M1794,422L1776,529L1915,557Z" fill="#4b82bb" stroke="#4b82bb" stroke-width="1.51"/><path d="M1746,43L1886,188L1935,50Z" fill="#7a94c6" stroke="#7a94c6" stroke-width="1.51"/><path d="M1909,-80L1772,-42L1935,50Z" fill="#8197c7" stroke="#8197c7" stroke-width="1.51"/><path d="M1821,-173L1909,-80L1911,-185Z" fill="#889bc9" stroke="#889bc9" stroke-width="1.51"/><path d="M1772,-42L1746,43L1935,50Z" fill="#8099c9" stroke="#8099c9" stroke-width="1.51"/><path d="M1839,888L1762,989L1907,1007Z" fill="#1762a9" stroke="#1762a9" stroke-width="1.51"/><path d="M1762,989L1835,1137L1907,1007Z" fill="#125ba4" stroke="#125ba4" stroke-width="1.51"/><path d="M1776,529L1752,659L1915,557Z" fill="#417eb9" stroke="#417eb9" stroke-width="1.51"/><path d="M1821,-173L1772,-42L1909,-80Z" fill="#869ccb" stroke="#869ccb" stroke-width="1.51"/><path d="M407,1286L123,1345L695,1288Z" fill="#6e84b2" stroke="#6e84b2" stroke-width="1.51"/><path d="M1746,43L1729,274L1886,188Z" fill="#7596c7" stroke="#7596c7" stroke-width="1.51"/><path d="M1664,231L1729,274L1746,43Z" fill="#7699ca" stroke="#7699ca" stroke-width="1.51"/><path d="M1582,1190L1668,1345L1830,1272Z" fill="#115195" stroke="#115195" stroke-width="1.51"/><path d="M1582,1190L1830,1272L1835,1137Z" fill="#0f539b" stroke="#0f539b" stroke-width="1.51"/><path d="M1591,892L1762,989L1839,888Z" fill="#1f6aaf" stroke="#1f6aaf" stroke-width="1.51"/><path d="M1752,659L1591,892L1839,888Z" fill="#2a73b4" stroke="#2a73b4" stroke-width="1.51"/><path d="M1762,989L1582,1190L1835,1137Z" fill="#145ca4" stroke="#145ca4" stroke-width="1.51"/><path d="M1654,-192L1772,-42L1821,-173Z" fill="#8ba2cf" stroke="#8ba2cf" stroke-width="1.51"/><path d="M1729,274L1687,411L1794,422Z" fill="#6190c3" stroke="#6190c3" stroke-width="1.51"/><path d="M1601,655L1591,892L1752,659Z" fill="#327dba" stroke="#327dba" stroke-width="1.51"/><path d="M1591,892L1601,952L1762,989Z" fill="#1f6cb1" stroke="#1f6cb1" stroke-width="1.51"/><path d="M1654,-192L1633,-69L1772,-42Z" fill="#8ba5d1" stroke="#8ba5d1" stroke-width="1.51"/><path d="M1687,411L1776,529L1794,422Z" fill="#5489c0" stroke="#5489c0" stroke-width="1.51"/><path d="M1593,44L1664,231L1746,43Z" fill="#7e9fce" stroke="#7e9fce" stroke-width="1.51"/><path d="M1601,952L1582,1190L1762,989Z" fill="#1a65ac" stroke="#1a65ac" stroke-width="1.51"/><path d="M1613,535L1752,659L1776,529Z" fill="#4584bd" stroke="#4584bd" stroke-width="1.51"/><path d="M1687,411L1613,535L1776,529Z" fill="#508ac1" stroke="#508ac1" stroke-width="1.51"/><path d="M1633,-69L1746,43L1772,-42Z" fill="#85a0ce" stroke="#85a0ce" stroke-width="1.51"/><path d="M1613,535L1601,655L1752,659Z" fill="#4185be" stroke="#4185be" stroke-width="1.51"/><path d="M1633,-69L1593,44L1746,43Z" fill="#85a2d1" stroke="#85a2d1" stroke-width="1.51"/><path d="M1506,788L1591,892L1601,655Z" fill="#317ebc" stroke="#317ebc" stroke-width="1.51"/><path d="M1664,231L1687,411L1729,274Z" fill="#6a96c7" stroke="#6a96c7" stroke-width="1.51"/><path d="M1226,1277L1016,1332L1451,1329Z" fill="#2d659f" stroke="#2d659f" stroke-width="1.51"/><path d="M1482,1158L1582,1190L1601,952Z" fill="#1b66ac" stroke="#1b66ac" stroke-width="1.51"/><path d="M1593,44L1494,184L1664,231Z" fill="#7ca2d0" stroke="#7ca2d0" stroke-width="1.51"/><path d="M1664,231L1528,399L1687,411Z" fill="#6697c8" stroke="#6697c8" stroke-width="1.51"/><path d="M1528,399L1613,535L1687,411Z" fill="#5992c6" stroke="#5992c6" stroke-width="1.51"/><path d="M1494,184L1528,399L1664,231Z" fill="#709ecd" stroke="#709ecd" stroke-width="1.51"/><path d="M1582,1190L1451,1329L1668,1345Z" fill="#165598" stroke="#165598" stroke-width="1.51"/><path d="M1516,-223L1633,-69L1654,-192Z" fill="#91acd6" stroke="#91acd6" stroke-width="1.51"/><path d="M1468,951L1482,1158L1601,952Z" fill="#216eb2" stroke="#216eb2" stroke-width="1.51"/><path d="M1500,636L1601,655L1613,535Z" fill="#448ac3" stroke="#448ac3" stroke-width="1.51"/><path d="M1458,-12L1593,44L1633,-69Z" fill="#88a9d5" stroke="#88a9d5" stroke-width="1.51"/><path d="M1516,-223L1458,-12L1633,-69Z" fill="#8faed7" stroke="#8faed7" stroke-width="1.51"/><path d="M1458,-12L1482,42L1593,44Z" fill="#88abd6" stroke="#88abd6" stroke-width="1.51"/><path d="M1482,42L1494,184L1593,44Z" fill="#83a8d4" stroke="#83a8d4" stroke-width="1.51"/><path d="M1500,636L1506,788L1601,655Z" fill="#3b86c0" stroke="#3b86c0" stroke-width="1.51"/><path d="M1528,399L1464,551L1613,535Z" fill="#5493c7" stroke="#5493c7" stroke-width="1.51"/><path d="M1464,551L1500,636L1613,535Z" fill="#4a8fc5" stroke="#4a8fc5" stroke-width="1.51"/><path d="M1482,1158L1451,1329L1582,1190Z" fill="#1c5ea2" stroke="#1c5ea2" stroke-width="1.51"/><path d="M1591,892L1468,951L1601,952Z" fill="#2473b6" stroke="#2473b6" stroke-width="1.51"/><path d="M1494,184L1381,271L1528,399Z" fill="#72a3cf" stroke="#72a3cf" stroke-width="1.51"/><path d="M1506,788L1468,951L1591,892Z" fill="#2b79b9" stroke="#2b79b9" stroke-width="1.51"/><path d="M-19,-185L99,-172L448,-194Z" fill="#e0ecf8" stroke="#e0ecf8" stroke-width="1.51"/><path d="M1468,951L1318,994L1482,1158Z" fill="#2772b4" stroke="#2772b4" stroke-width="1.51"/><path d="M1500,636L1348,716L1506,788Z" fill="#3d89c2" stroke="#3d89c2" stroke-width="1.51"/><path d="M1350,786L1468,951L1506,788Z" fill="#3380bd" stroke="#3380bd" stroke-width="1.51"/><path d="M1352,-26L1458,-12L1516,-223Z" fill="#91b3da" stroke="#91b3da" stroke-width="1.51"/><path d="M1369,-265L1352,-26L1516,-223Z" fill="#97b8dc" stroke="#97b8dc" stroke-width="1.51"/><path d="M1349,444L1464,551L1528,399Z" fill="#5c9acb" stroke="#5c9acb" stroke-width="1.51"/><path d="M1381,271L1349,444L1528,399Z" fill="#69a2ce" stroke="#69a2ce" stroke-width="1.51"/><path d="M1345,1166L1451,1329L1482,1158Z" fill="#2163a5" stroke="#2163a5" stroke-width="1.51"/><path d="M1318,994L1345,1166L1482,1158Z" fill="#276eb0" stroke="#276eb0" stroke-width="1.51"/><path d="M1482,42L1353,63L1494,184Z" fill="#86acd6" stroke="#86acd6" stroke-width="1.51"/><path d="M1348,716L1350,786L1506,788Z" fill="#3a88c2" stroke="#3a88c2" stroke-width="1.51"/><path d="M1280,1263L1226,1277L1451,1329Z" fill="#27629f" stroke="#27629f" stroke-width="1.51"/><path d="M1464,551L1318,591L1500,636Z" fill="#4c93c8" stroke="#4c93c8" stroke-width="1.51"/><path d="M1318,591L1348,716L1500,636Z" fill="#4891c7" stroke="#4891c7" stroke-width="1.51"/><path d="M1353,63L1381,271L1494,184Z" fill="#80abd5" stroke="#80abd5" stroke-width="1.51"/><path d="M1350,786L1318,994L1468,951Z" fill="#307ebc" stroke="#307ebc" stroke-width="1.51"/><path d="M1458,-12L1353,63L1482,42Z" fill="#8aafd8" stroke="#8aafd8" stroke-width="1.51"/><path d="M1345,1166L1280,1263L1451,1329Z" fill="#2564a2" stroke="#2564a2" stroke-width="1.51"/><path d="M1352,-26L1353,63L1458,-12Z" fill="#8db3da" stroke="#8db3da" stroke-width="1.51"/><path d="M1349,444L1318,591L1464,551Z" fill="#559acb" stroke="#559acb" stroke-width="1.51"/><path d="M1225,484L1318,591L1349,444Z" fill="#5ba0ce" stroke="#5ba0ce" stroke-width="1.51"/><path d="M1195,855L1318,994L1350,786Z" fill="#3786c0" stroke="#3786c0" stroke-width="1.51"/><path d="M1232,55L1181,203L1353,63Z" fill="#8cb7db" stroke="#8cb7db" stroke-width="1.51"/><path d="M1218,-68L1352,-26L1369,-265Z" fill="#98bcde" stroke="#98bcde" stroke-width="1.51"/><path d="M1155,-230L1218,-68L1369,-265Z" fill="#9fc2e1" stroke="#9fc2e1" stroke-width="1.51"/><path d="M1198,387L1349,444L1381,271Z" fill="#6ea8d1" stroke="#6ea8d1" stroke-width="1.51"/><path d="M1181,203L1198,387L1381,271Z" fill="#7ab0d5" stroke="#7ab0d5" stroke-width="1.51"/><path d="M1353,63L1181,203L1381,271Z" fill="#83b1d7" stroke="#83b1d7" stroke-width="1.51"/><path d="M448,-194L636,-194L837,-244Z" fill="#c8e0ef" stroke="#c8e0ef" stroke-width="1.51"/><path d="M1318,994L1164,1195L1345,1166Z" fill="#2d73b3" stroke="#2d73b3" stroke-width="1.51"/><path d="M1318,591L1131,648L1348,716Z" fill="#4c98ca" stroke="#4c98ca" stroke-width="1.51"/><path d="M1198,387L1225,484L1349,444Z" fill="#66a7d1" stroke="#66a7d1" stroke-width="1.51"/><path d="M1348,716L1195,855L1350,786Z" fill="#3e8dc4" stroke="#3e8dc4" stroke-width="1.51"/><path d="M1218,-68L1232,55L1352,-26Z" fill="#93bbdd" stroke="#93bbdd" stroke-width="1.51"/><path d="M1352,-26L1232,55L1353,63Z" fill="#8eb6db" stroke="#8eb6db" stroke-width="1.51"/><path d="M1131,648L1195,855L1348,716Z" fill="#4694c8" stroke="#4694c8" stroke-width="1.51"/><path d="M1164,1195L1280,1263L1345,1166Z" fill="#2b6cab" stroke="#2b6cab" stroke-width="1.51"/><path d="M1091,1026L1164,1195L1318,994Z" fill="#357ab8" stroke="#357ab8" stroke-width="1.51"/><path d="M1129,971L1091,1026L1318,994Z" fill="#3981bd" stroke="#3981bd" stroke-width="1.51"/><path d="M1195,855L1129,971L1318,994Z" fill="#3984bf" stroke="#3984bf" stroke-width="1.51"/><path d="M1225,484L1131,648L1318,591Z" fill="#579fce" stroke="#579fce" stroke-width="1.51"/><path d="M1164,1195L1226,1277L1280,1263Z" fill="#2e6ba7" stroke="#2e6ba7" stroke-width="1.51"/><path d="M1131,648L1037,723L1195,855Z" fill="#4d99c9" stroke="#4d99c9" stroke-width="1.51"/><path d="M1181,203L1051,256L1198,387Z" fill="#80b5d9" stroke="#80b5d9" stroke-width="1.51"/><path d="M1155,-230L1035,-58L1218,-68Z" fill="#a1c5e3" stroke="#a1c5e3" stroke-width="1.51"/><path d="M1026,484L1131,648L1225,484Z" fill="#60a6d1" stroke="#60a6d1" stroke-width="1.51"/><path d="M1001,54L1181,203L1232,55Z" fill="#93bcdf" stroke="#93bcdf" stroke-width="1.51"/><path d="M1218,-68L1035,-58L1232,55Z" fill="#99c0e0" stroke="#99c0e0" stroke-width="1.51"/><path d="M1035,-58L1001,54L1232,55Z" fill="#9bc2e1" stroke="#9bc2e1" stroke-width="1.51"/><path d="M1017,-159L1035,-58L1155,-230Z" fill="#a6c9e5" stroke="#a6c9e5" stroke-width="1.51"/><path d="M1198,387L1053,411L1225,484Z" fill="#6eacd4" stroke="#6eacd4" stroke-width="1.51"/><path d="M1164,1195L1016,1332L1226,1277Z" fill="#356da7" stroke="#356da7" stroke-width="1.51"/><path d="M1053,411L1026,484L1225,484Z" fill="#6dadd4" stroke="#6dadd4" stroke-width="1.51"/><path d="M837,-244L1017,-159L1155,-230Z" fill="#aecfe8" stroke="#aecfe8" stroke-width="1.51"/><path d="M1091,1026L1048,1187L1164,1195Z" fill="#3b79b6" stroke="#3b79b6" stroke-width="1.51"/><path d="M1048,1187L1016,1332L1164,1195Z" fill="#3a72ac" stroke="#3a72ac" stroke-width="1.51"/><path d="M1001,54L1051,256L1181,203Z" fill="#90bdde" stroke="#90bdde" stroke-width="1.51"/><path d="M1037,723L1013,808L1195,855Z" fill="#4c96c9" stroke="#4c96c9" stroke-width="1.51"/><path d="M1051,256L1053,411L1198,387Z" fill="#7bb4d7" stroke="#7bb4d7" stroke-width="1.51"/><path d="M1013,808L1129,971L1195,855Z" fill="#458ec5" stroke="#458ec5" stroke-width="1.51"/><path d="M1026,484L897,570L1037,723Z" fill="#65a9d3" stroke="#65a9d3" stroke-width="1.51"/><path d="M1013,808L1091,1026L1129,971Z" fill="#448bc3" stroke="#448bc3" stroke-width="1.51"/><path d="M1026,484L1037,723L1131,648Z" fill="#5ea3d0" stroke="#5ea3d0" stroke-width="1.51"/><path d="M894,1013L871,1116L1048,1187Z" fill="#4983bc" stroke="#4983bc" stroke-width="1.51"/><path d="M1051,256L930,278L1053,411Z" fill="#85badb" stroke="#85badb" stroke-width="1.51"/><path d="M894,1013L1048,1187L1091,1026Z" fill="#4482bc" stroke="#4482bc" stroke-width="1.51"/><path d="M1013,808L894,1013L1091,1026Z" fill="#498dc5" stroke="#498dc5" stroke-width="1.51"/><path d="M840,92L930,278L1001,54Z" fill="#9cc5e3" stroke="#9cc5e3" stroke-width="1.51"/><path d="M897,570L842,656L1037,723Z" fill="#64a8d2" stroke="#64a8d2" stroke-width="1.51"/><path d="M897,1322L1016,1332L1048,1187Z" fill="#4072a9" stroke="#4072a9" stroke-width="1.51"/><path d="M1001,54L930,278L1051,256Z" fill="#92c0df" stroke="#92c0df" stroke-width="1.51"/><path d="M868,423L1026,484L1053,411Z" fill="#77b4d8" stroke="#77b4d8" stroke-width="1.51"/><path d="M930,278L868,423L1053,411Z" fill="#82badb" stroke="#82badb" stroke-width="1.51"/><path d="M830,821L894,1013L1013,808Z" fill="#5596ca" stroke="#5596ca" stroke-width="1.51"/><path d="M871,1116L897,1322L1048,1187Z" fill="#467bb3" stroke="#467bb3" stroke-width="1.51"/><path d="M1017,-159L864,-7L1035,-58Z" fill="#a7cce6" stroke="#a7cce6" stroke-width="1.51"/><path d="M864,-7L1001,54L1035,-58Z" fill="#a2c9e5" stroke="#a2c9e5" stroke-width="1.51"/><path d="M842,656L1013,808L1037,723Z" fill="#59a1ce" stroke="#59a1ce" stroke-width="1.51"/><path d="M842,656L830,821L1013,808Z" fill="#5ea1cf" stroke="#5ea1cf" stroke-width="1.51"/><path d="M868,423L897,570L1026,484Z" fill="#75b2d8" stroke="#75b2d8" stroke-width="1.51"/><path d="M785,-194L864,-7L1017,-159Z" fill="#b0d1e9" stroke="#b0d1e9" stroke-width="1.51"/><path d="M837,-244L785,-194L1017,-159Z" fill="#b6d4eb" stroke="#b6d4eb" stroke-width="1.51"/><path d="M864,-7L840,92L1001,54Z" fill="#a4cae5" stroke="#a4cae5" stroke-width="1.51"/><path d="M561,1261L407,1286L695,1288Z" fill="#6583b2" stroke="#6583b2" stroke-width="1.51"/><path d="M830,821L749,990L894,1013Z" fill="#5a96c9" stroke="#5a96c9" stroke-width="1.51"/><path d="M871,1116L768,1152L897,1322Z" fill="#5080b6" stroke="#5080b6" stroke-width="1.51"/><path d="M840,92L735,235L930,278Z" fill="#9dc7e3" stroke="#9dc7e3" stroke-width="1.51"/><path d="M735,235L785,349L930,278Z" fill="#96c4e0" stroke="#96c4e0" stroke-width="1.51"/><path d="M785,349L868,423L930,278Z" fill="#8cbfdd" stroke="#8cbfdd" stroke-width="1.51"/><path d="M749,990L871,1116L894,1013Z" fill="#568dc2" stroke="#568dc2" stroke-width="1.51"/><path d="M768,1152L695,1288L897,1322Z" fill="#547db0" stroke="#547db0" stroke-width="1.51"/><path d="M868,423L717,544L897,570Z" fill="#7bb6d9" stroke="#7bb6d9" stroke-width="1.51"/><path d="M717,544L842,656L897,570Z" fill="#74b1d7" stroke="#74b1d7" stroke-width="1.51"/><path d="M785,-194L679,-55L864,-7Z" fill="#b6d5ea" stroke="#b6d5ea" stroke-width="1.51"/><path d="M714,714L830,821L842,656Z" fill="#6aa8d2" stroke="#6aa8d2" stroke-width="1.51"/><path d="M743,59L840,92L864,-7Z" fill="#abcee6" stroke="#abcee6" stroke-width="1.51"/><path d="M785,349L717,544L868,423Z" fill="#87bddc" stroke="#87bddc" stroke-width="1.51"/><path d="M749,990L768,1152L871,1116Z" fill="#588bc0" stroke="#588bc0" stroke-width="1.51"/><path d="M679,-55L743,59L864,-7Z" fill="#b2d2e8" stroke="#b2d2e8" stroke-width="1.51"/><path d="M99,-172L312,-161L448,-194Z" fill="#dbe8f6" stroke="#dbe8f6" stroke-width="1.51"/><path d="M699,821L749,990L830,821Z" fill="#649ecc" stroke="#649ecc" stroke-width="1.51"/><path d="M714,714L699,821L830,821Z" fill="#6ba7d1" stroke="#6ba7d1" stroke-width="1.51"/><path d="M636,-194L785,-194L837,-244Z" fill="#c0dbed" stroke="#c0dbed" stroke-width="1.51"/><path d="M743,59L735,235L840,92Z" fill="#aacde6" stroke="#aacde6" stroke-width="1.51"/><path d="M717,544L714,714L842,656Z" fill="#75b1d6" stroke="#75b1d6" stroke-width="1.51"/><path d="M636,-194L630,-93L679,-55Z" fill="#c2dced" stroke="#c2dced" stroke-width="1.51"/><path d="M634,240L735,235L743,59Z" fill="#aacee5" stroke="#aacee5" stroke-width="1.51"/><path d="M749,990L627,1137L768,1152Z" fill="#5f8ec2" stroke="#5f8ec2" stroke-width="1.51"/><path d="M584,392L717,544L785,349Z" fill="#90c2de" stroke="#90c2de" stroke-width="1.51"/><path d="M735,235L634,240L785,349Z" fill="#a0cae2" stroke="#a0cae2" stroke-width="1.51"/><path d="M634,240L584,392L785,349Z" fill="#9ecae1" stroke="#9ecae1" stroke-width="1.51"/><path d="M636,-194L679,-55L785,-194Z" fill="#c0dbed" stroke="#c0dbed" stroke-width="1.51"/><path d="M562,129L634,240L743,59Z" fill="#b2d2e8" stroke="#b2d2e8" stroke-width="1.51"/><path d="M627,1137L695,1288L768,1152Z" fill="#5e86ba" stroke="#5e86ba" stroke-width="1.51"/><path d="M576,560L714,714L717,544Z" fill="#80b7d9" stroke="#80b7d9" stroke-width="1.51"/><path d="M699,821L551,994L749,990Z" fill="#6a9dcc" stroke="#6a9dcc" stroke-width="1.51"/><path d="M551,994L627,1137L749,990Z" fill="#6795c6" stroke="#6795c6" stroke-width="1.51"/><path d="M679,-55L562,129L743,59Z" fill="#b7d5e9" stroke="#b7d5e9" stroke-width="1.51"/><path d="M576,560L575,730L714,714Z" fill="#7eb4d8" stroke="#7eb4d8" stroke-width="1.51"/><path d="M584,392L576,560L717,544Z" fill="#8dc0de" stroke="#8dc0de" stroke-width="1.51"/><path d="M627,1137L561,1261L695,1288Z" fill="#6286b7" stroke="#6286b7" stroke-width="1.51"/><path d="M585,791L551,994L699,821Z" fill="#72a4d0" stroke="#72a4d0" stroke-width="1.51"/><path d="M585,791L699,821L714,714Z" fill="#72aad3" stroke="#72aad3" stroke-width="1.51"/><path d="M575,730L585,791L714,714Z" fill="#77aed5" stroke="#77aed5" stroke-width="1.51"/><path d="M630,-93L477,-20L679,-55Z" fill="#c1dbed" stroke="#c1dbed" stroke-width="1.51"/><path d="M477,-20L562,129L679,-55Z" fill="#bfd9ec" stroke="#bfd9ec" stroke-width="1.51"/><path d="M441,248L584,392L634,240Z" fill="#aacee5" stroke="#aacee5" stroke-width="1.51"/><path d="M448,-194L630,-93L636,-194Z" fill="#c9e0ef" stroke="#c9e0ef" stroke-width="1.51"/><path d="M551,994L481,1006L627,1137Z" fill="#6f97c8" stroke="#6f97c8" stroke-width="1.51"/><path d="M562,129L441,248L634,240Z" fill="#b3d2e8" stroke="#b3d2e8" stroke-width="1.51"/><path d="M448,-194L477,-20L630,-93Z" fill="#c9dff0" stroke="#c9dff0" stroke-width="1.51"/><path d="M388,1174L561,1261L627,1137Z" fill="#6b8cbd" stroke="#6b8cbd" stroke-width="1.51"/><path d="M481,1006L388,1174L627,1137Z" fill="#7093c5" stroke="#7093c5" stroke-width="1.51"/><path d="M414,578L380,741L575,730Z" fill="#89b7db" stroke="#89b7db" stroke-width="1.51"/><path d="M380,741L383,820L575,730Z" fill="#84b2d8" stroke="#84b2d8" stroke-width="1.51"/><path d="M414,578L575,730L576,560Z" fill="#89badc" stroke="#89badc" stroke-width="1.51"/><path d="M441,248L382,362L584,392Z" fill="#abcfe5" stroke="#abcfe5" stroke-width="1.51"/><path d="M414,578L576,560L584,392Z" fill="#93c2e0" stroke="#93c2e0" stroke-width="1.51"/><path d="M382,362L414,578L584,392Z" fill="#9fc8e3" stroke="#9fc8e3" stroke-width="1.51"/><path d="M481,1006L551,994L585,791Z" fill="#74a1cf" stroke="#74a1cf" stroke-width="1.51"/><path d="M383,820L481,1006L585,791Z" fill="#7ba8d3" stroke="#7ba8d3" stroke-width="1.51"/><path d="M575,730L383,820L585,791Z" fill="#7daed6" stroke="#7daed6" stroke-width="1.51"/><path d="M477,-20L398,119L562,129Z" fill="#c1d9ed" stroke="#c1d9ed" stroke-width="1.51"/><path d="M388,1174L407,1286L561,1261Z" fill="#6e89b9" stroke="#6e89b9" stroke-width="1.51"/><path d="M398,119L441,248L562,129Z" fill="#bcd6eb" stroke="#bcd6eb" stroke-width="1.51"/><path d="M302,1256L123,1345L407,1286Z" fill="#7588b5" stroke="#7588b5" stroke-width="1.51"/><path d="M298,-33L398,119L477,-20Z" fill="#cadef1" stroke="#cadef1" stroke-width="1.51"/><path d="M448,-194L312,-161L477,-20Z" fill="#d2e3f3" stroke="#d2e3f3" stroke-width="1.51"/><path d="M312,-161L298,-33L477,-20Z" fill="#d2e2f3" stroke="#d2e2f3" stroke-width="1.51"/><path d="M383,820L293,829L481,1006Z" fill="#82aad5" stroke="#82aad5" stroke-width="1.51"/><path d="M293,829L239,1039L481,1006Z" fill="#80a4d2" stroke="#80a4d2" stroke-width="1.51"/><path d="M239,1039L388,1174L481,1006Z" fill="#7a99ca" stroke="#7a99ca" stroke-width="1.51"/><path d="M250,391L228,518L382,362Z" fill="#abcee6" stroke="#abcee6" stroke-width="1.51"/><path d="M298,-33L303,99L398,119Z" fill="#cbdef1" stroke="#cbdef1" stroke-width="1.51"/><path d="M382,362L228,518L414,578Z" fill="#a2c8e4" stroke="#a2c8e4" stroke-width="1.51"/><path d="M398,119L329,232L441,248Z" fill="#bdd7ec" stroke="#bdd7ec" stroke-width="1.51"/><path d="M329,232L382,362L441,248Z" fill="#b6d4e9" stroke="#b6d4e9" stroke-width="1.51"/><path d="M239,1039L238,1120L388,1174Z" fill="#7d98c9" stroke="#7d98c9" stroke-width="1.51"/><path d="M313,739L380,741L414,578Z" fill="#8fb9dd" stroke="#8fb9dd" stroke-width="1.51"/><path d="M388,1174L302,1256L407,1286Z" fill="#748bbb" stroke="#748bbb" stroke-width="1.51"/><path d="M228,518L313,739L414,578Z" fill="#97c0e0" stroke="#97c0e0" stroke-width="1.51"/><path d="M303,99L329,232L398,119Z" fill="#c5daee" stroke="#c5daee" stroke-width="1.51"/><path d="M380,741L313,739L383,820Z" fill="#89b4da" stroke="#89b4da" stroke-width="1.51"/><path d="M329,232L250,391L382,362Z" fill="#b4d3e8" stroke="#b4d3e8" stroke-width="1.51"/><path d="M313,739L293,829L383,820Z" fill="#89b2d9" stroke="#89b2d9" stroke-width="1.51"/><path d="M238,1120L302,1256L388,1174Z" fill="#7992c3" stroke="#7992c3" stroke-width="1.51"/><path d="M25,1324L-129,1342L123,1345Z" fill="#7e8bb3" stroke="#7e8bb3" stroke-width="1.51"/><path d="M97,564L79,717L228,518Z" fill="#a0c6e3" stroke="#a0c6e3" stroke-width="1.51"/><path d="M137,982L239,1039L293,829Z" fill="#86a7d4" stroke="#86a7d4" stroke-width="1.51"/><path d="M139,865L137,982L293,829Z" fill="#8aaed7" stroke="#8aaed7" stroke-width="1.51"/><path d="M298,-33L171,49L303,99Z" fill="#cfe1f2" stroke="#cfe1f2" stroke-width="1.51"/><path d="M138,-83L298,-33L312,-161Z" fill="#d8e6f5" stroke="#d8e6f5" stroke-width="1.51"/><path d="M228,518L79,717L313,739Z" fill="#98c0e0" stroke="#98c0e0" stroke-width="1.51"/><path d="M303,99L187,212L329,232Z" fill="#c5dbee" stroke="#c5dbee" stroke-width="1.51"/><path d="M187,212L250,391L329,232Z" fill="#bcd8eb" stroke="#bcd8eb" stroke-width="1.51"/><path d="M139,865L293,829L313,739Z" fill="#8cb3da" stroke="#8cb3da" stroke-width="1.51"/><path d="M79,717L139,865L313,739Z" fill="#91b8dc" stroke="#91b8dc" stroke-width="1.51"/><path d="M99,-172L138,-83L312,-161Z" fill="#ddeaf7" stroke="#ddeaf7" stroke-width="1.51"/><path d="M238,1120L98,1140L302,1256Z" fill="#7e95c6" stroke="#7e95c6" stroke-width="1.51"/><path d="M98,1140L123,1345L302,1256Z" fill="#7c8fbd" stroke="#7c8fbd" stroke-width="1.51"/><path d="M171,49L187,212L303,99Z" fill="#ccdff1" stroke="#ccdff1" stroke-width="1.51"/><path d="M187,212L115,337L250,391Z" fill="#bbd8eb" stroke="#bbd8eb" stroke-width="1.51"/><path d="M138,-83L171,49L298,-33Z" fill="#d5e5f4" stroke="#d5e5f4" stroke-width="1.51"/><path d="M115,337L228,518L250,391Z" fill="#b0d1e8" stroke="#b0d1e8" stroke-width="1.51"/><path d="M115,337L97,564L228,518Z" fill="#accee8" stroke="#accee8" stroke-width="1.51"/><path d="M98,1140L238,1120L239,1039Z" fill="#829ccb" stroke="#829ccb" stroke-width="1.51"/><path d="M137,982L98,1140L239,1039Z" fill="#84a1cf" stroke="#84a1cf" stroke-width="1.51"/><path d="M-19,430L97,564L115,337Z" fill="#b2d3e9" stroke="#b2d3e9" stroke-width="1.51"/><path d="M98,1140L25,1324L123,1345Z" fill="#7e8fbb" stroke="#7e8fbb" stroke-width="1.51"/><path d="M-71,89L30,251L171,49Z" fill="#d3e3f3" stroke="#d3e3f3" stroke-width="1.51"/><path d="M171,49L30,251L187,212Z" fill="#cbdff0" stroke="#cbdff0" stroke-width="1.51"/><path d="M30,251L115,337L187,212Z" fill="#c3dcee" stroke="#c3dcee" stroke-width="1.51"/><path d="M138,-83L-18,-108L171,49Z" fill="#dbe9f6" stroke="#dbe9f6" stroke-width="1.51"/><path d="M-18,-108L-71,89L171,49Z" fill="#dbe8f6" stroke="#dbe8f6" stroke-width="1.51"/><path d="M-18,1165L25,1324L98,1140Z" fill="#8396c4" stroke="#8396c4" stroke-width="1.51"/><path d="M-42,1010L98,1140L137,982Z" fill="#89a4d1" stroke="#89a4d1" stroke-width="1.51"/><path d="M99,-172L-18,-108L138,-83Z" fill="#e0ecf8" stroke="#e0ecf8" stroke-width="1.51"/><path d="M79,717L-46,800L139,865Z" fill="#95b9dd" stroke="#95b9dd" stroke-width="1.51"/><path d="M-42,1010L137,982L139,865Z" fill="#8cabd6" stroke="#8cabd6" stroke-width="1.51"/><path d="M-46,800L-42,1010L139,865Z" fill="#92b2d9" stroke="#92b2d9" stroke-width="1.51"/><path d="M-13,581L79,717L97,564Z" fill="#a1c6e4" stroke="#a1c6e4" stroke-width="1.51"/><path d="M-19,430L-13,581L97,564Z" fill="#abcee8" stroke="#abcee8" stroke-width="1.51"/><path d="M-42,1010L-18,1165L98,1140Z" fill="#89a0cd" stroke="#89a0cd" stroke-width="1.51"/><path d="M30,251L-19,430L115,337Z" fill="#bfdaec" stroke="#bfdaec" stroke-width="1.51"/><path d="M-13,581L-67,653L79,717Z" fill="#a1c6e3" stroke="#a1c6e3" stroke-width="1.51"/><path d="M-19,-185L-18,-108L99,-172Z" fill="#e4eff9" stroke="#e4eff9" stroke-width="1.51"/><path d="M-67,653L-46,800L79,717Z" fill="#9cc1e1" stroke="#9cc1e1" stroke-width="1.51"/><path d="M-46,800L-184,874L-42,1010Z" fill="#96b4db" stroke="#96b4db" stroke-width="1.51"/><path d="M-18,1165L-139,1193L25,1324Z" fill="#8696c2" stroke="#8696c2" stroke-width="1.51"/><path d="M-139,1193L-129,1342L25,1324Z" fill="#8491bb" stroke="#8491bb" stroke-width="1.51"/><path d="M-71,89L-178,192L30,251Z" fill="#d3e4f3" stroke="#d3e4f3" stroke-width="1.51"/><path d="M-178,192L-116,360L30,251Z" fill="#cbe1f0" stroke="#cbe1f0" stroke-width="1.51"/><path d="M-116,360L-19,430L30,251Z" fill="#c1dced" stroke="#c1dced" stroke-width="1.51"/><path d="M-184,874L-165,1007L-42,1010Z" fill="#95afd8" stroke="#95afd8" stroke-width="1.51"/><path d="M-165,1007L-139,1193L-42,1010Z" fill="#90a6d1" stroke="#90a6d1" stroke-width="1.51"/><path d="M-116,360L-212,531L-19,430Z" fill="#bbd7eb" stroke="#bbd7eb" stroke-width="1.51"/><path d="M-198,-58L-71,89L-18,-108Z" fill="#e2edf8" stroke="#e2edf8" stroke-width="1.51"/><path d="M-19,-185L-197,-202L-18,-108Z" fill="#e9f2fa" stroke="#e9f2fa" stroke-width="1.51"/><path d="M-42,1010L-139,1193L-18,1165Z" fill="#8ca0cd" stroke="#8ca0cd" stroke-width="1.51"/><path d="M-170,646L-67,653L-13,581Z" fill="#a7cae5" stroke="#a7cae5" stroke-width="1.51"/><path d="M-212,531L-170,646L-13,581Z" fill="#accee7" stroke="#accee7" stroke-width="1.51"/><path d="M-19,430L-212,531L-13,581Z" fill="#b1d2e9" stroke="#b1d2e9" stroke-width="1.51"/><path d="M-197,-202L-198,-58L-18,-108Z" fill="#e9f2fb" stroke="#e9f2fb" stroke-width="1.51"/><path d="M-67,653L-170,646L-46,800Z" fill="#a2c4e3" stroke="#a2c4e3" stroke-width="1.51"/><path d="M-170,646L-184,874L-46,800Z" fill="#9ec0e0" stroke="#9ec0e0" stroke-width="1.51"/><path d="M-204,137L-178,192L-71,89Z" fill="#dae8f6" stroke="#dae8f6" stroke-width="1.51"/><path d="M-198,-58L-204,137L-71,89Z" fill="#dfecf8" stroke="#dfecf8" stroke-width="1.51"/><path d="M-165,1007L-184,874L-129,1342Z" fill="#91a7d1" stroke="#91a7d1" stroke-width="1.51"/><path d="M-178,192L-212,531L-116,360Z" fill="#c5deee" stroke="#c5deee" stroke-width="1.51"/><path d="M-139,1193L-165,1007L-129,1342Z" fill="#8c9dc9" stroke="#8c9dc9" stroke-width="1.51"/><path d="M-204,137L-212,531L-178,192Z" fill="#cee3f1" stroke="#cee3f1" stroke-width="1.51"/><path d="M-212,531L-184,874L-170,646Z" fill="#a7c8e5" stroke="#a7c8e5" stroke-width="1.51"/><path d="M-204,137L-198,-58L-197,-202Z" fill="#e7f0fa" stroke="#e7f0fa" stroke-width="1.51"/></svg>