<svg xmlns="http://www.w3.org/2000/svg" width="1920" height="1080"><path d="M-197,-202L-19,-185L448,-194Z" fill="#f1fabc" stroke="#f1fabc" stroke-width="1.51"/><path d="M-197,-202L448,-194L837,-244Z" fill="#e0f3bf" stroke="#e0f3bf" stroke-width="1.51"/><path d="M897,1322L123,1345L1016,1332Z" fill="#4d718e" stroke="#4d718e" stroke-width="1.51"/><path d="M837,-244L1155,-230L1369,-265Z" fill="#a7cfcb" stroke="#a7cfcb" stroke-width="1.51"/><path d="M1016,1332L123,1345L1668,1345Z" fill="#336890" stroke="#336890" stroke-width="1.51"/><path d="M1451,1329L1016,1332L1668,1345Z" fill="#1c4d8a" stroke="#1c4d8a" stroke-width="1.51"/><path d="M1654,-192L1821,-173L1911,-185Z" fill="#9a96b1" stroke="#9a96b1" stroke-width="1.51"/><path d="M1654,-192L1911,-185L2060,-232Z" fill="#9a91af" stroke="#9a91af" stroke-width="1.51"/><path d="M1516,-223L1654,-192L2060,-232Z" fill="#9c9bb6" stroke="#9c9bb6" stroke-width="1.51"/><path d="M1369,-265L1516,-223L2060,-232Z" fill="#9da3bb" stroke="#9da3bb" stroke-width="1.51"/><path d="M1966,836L2063,873L2076,642Z" fill="#215695" stroke="#215695" stroke-width="1.51"/><path d="M1952,652L1966,836L2076,642Z" fill="#285f9c" stroke="#285f9c" stroke-width="1.51"/><path d="M2070,987L1968,1181L2098,1144Z" fill="#1d3283" stroke="#1d3283" stroke-width="1.51"/><path d="M2076,642L2063,873L2098,1144Z" fill="#1d478b" stroke="#1d478b" stroke-width="1.51"/><path d="M2063,873L2070,987L2098,1144Z" fill="#1b3b85" stroke="#1b3b85" stroke-width="1.51"/><path d="M2047,56L1886,188L2100,282Z" fill="#727f97" stroke="#727f97" stroke-width="1.51"/><path d="M2079,-104L2047,56L2100,282Z" fill="#7a818f" stroke="#7a818f" stroke-width="1.51"/><path d="M2100,282L1956,361L2118,381Z" fill="#517494" stroke="#517494" stroke-width="1.51"/><path d="M1956,361L2053,487L2118,381Z" fill="#497197" stroke="#497197" stroke-width="1.51"/><path d="M2053,487L2076,642L2118,381Z" fill="#386b94" stroke="#386b94" stroke-width="1.51"/><path d="M2076,642L2098,1144L2118,381Z" fill="#205991" stroke="#205991" stroke-width="1.51"/><path d="M2079,-104L2100,282L2118,381Z" fill="#6a7b8e" stroke="#6a7b8e" stroke-width="1.51"/><path d="M2098,1144L1968,1181L2118,1295Z" fill="#182978" stroke="#182978" stroke-width="1.51"/><path d="M1968,1181L1940,1323L2118,1295Z" fill="#172875" stroke="#172875" stroke-width="1.51"/><path d="M2118,381L2098,1144L2118,1295Z" fill="#194084" stroke="#194084" stroke-width="1.51"/><path d="M1907,1007L1968,1181L2070,987Z" fill="#20398c" stroke="#20398c" stroke-width="1.51"/><path d="M2053,487L1915,557L2076,642Z" fill="#346a9c" stroke="#346a9c" stroke-width="1.51"/><path d="M1915,557L1952,652L2076,642Z" fill="#31689f" stroke="#31689f" stroke-width="1.51"/><path d="M1909,-80L2047,56L2079,-104Z" fill="#898796" stroke="#898796" stroke-width="1.51"/><path d="M1886,188L1956,361L2100,282Z" fill="#627b9b" stroke="#627b9b" stroke-width="1.51"/><path d="M1909,-80L1935,50L2047,56Z" fill="#88889b" stroke="#88889b" stroke-width="1.51"/><path d="M1935,50L1886,188L2047,56Z" fill="#80869c" stroke="#80869c" stroke-width="1.51"/><path d="M2063,873L1966,836L2070,987Z" fill="#1e488f" stroke="#1e488f" stroke-width="1.51"/><path d="M1966,836L1907,1007L2070,987Z" fill="#204592" stroke="#204592" stroke-width="1.51"/><path d="M2060,-232L1911,-185L2079,-104Z" fill="#8f8a9d" stroke="#8f8a9d" stroke-width="1.51"/><path d="M1911,-185L1909,-80L2079,-104Z" fill="#918c9f" stroke="#918c9f" stroke-width="1.51"/><path d="M1956,361L1915,557L2053,487Z" fill="#44729f" stroke="#44729f" stroke-width="1.51"/><path d="M695,1288L123,1345L897,1322Z" fill="#5c768f" stroke="#5c768f" stroke-width="1.51"/><path d="M1830,1272L1668,1345L1940,1323Z" fill="#1b2f7f" stroke="#1b2f7f" stroke-width="1.51"/><path d="M1752,659L1839,888L1952,652Z" fill="#2d64ab" stroke="#2d64ab" stroke-width="1.51"/><path d="M1886,188L1729,274L1956,361Z" fill="#6981a8" stroke="#6981a8" stroke-width="1.51"/><path d="M1794,422L1915,557L1956,361Z" fill="#4c77a8" stroke="#4c77a8" stroke-width="1.51"/><path d="M1952,652L1839,888L1966,836Z" fill="#285aa1" stroke="#285aa1" stroke-width="1.51"/><path d="M1839,888L1907,1007L1966,836Z" fill="#254c9c" stroke="#254c9c" stroke-width="1.51"/><path d="M1907,1007L1835,1137L1968,1181Z" fill="#243792" stroke="#243792" stroke-width="1.51"/><path d="M1830,1272L1940,1323L1968,1181Z" fill="#1c2c7f" stroke="#1c2c7f" stroke-width="1.51"/><path d="M1835,1137L1830,1272L1968,1181Z" fill="#21318c" stroke="#21318c" stroke-width="1.51"/><path d="M1729,274L1794,422L1956,361Z" fill="#5b7faa" stroke="#5b7faa" stroke-width="1.51"/><path d="M1915,557L1752,659L1952,652Z" fill="#376caa" stroke="#376caa" stroke-width="1.51"/><path d="M1794,422L1776,529L1915,557Z" fill="#4578ad" stroke="#4578ad" stroke-width="1.51"/><path d="M1746,43L1886,188L1935,50Z" fill="#868ba7" stroke="#868ba7" stroke-width="1.51"/><path d="M1909,-80L1772,-42L1935,50Z" fill="#918ea5" stroke="#918ea5" stroke-width="1.51"/><path d="M1821,-173L1909,-80L1911,-185Z" fill="#9890aa" stroke="#9890aa" stroke-width="1.51"/><path d="M1772,-42L1746,43L1935,50Z" fill="#8f90a8" stroke="#8f90a8" stroke-width="1.51"/><path d="M1839,888L1762,989L1907,1007Z" fill="#264a9f" stroke="#264a9f" stroke-width="1.51"/><path d="M1762,989L1835,1137L1907,1007Z" fill="#26429b" stroke="#26429b" stroke-width="1.51"/><path d="M1776,529L1752,659L1915,557Z" fill="#3b73ad" stroke="#3b73ad" stroke-width="1.51"/><path d="M1821,-173L1772,-42L1909,-80Z" fill="#9892a9" stroke="#9892a9" stroke-width="1.51"/><path d="M407,1286L123,1345L695,1288Z" fill="#707d90" stroke="#707d90" stroke-width="1.51"/><path d="M1746,43L1729,274L1886,188Z" fill="#7d8caa" stroke="#7d8caa" stroke-width="1.51"/><path d="M1664,231L1729,274L1746,43Z" fill="#7a91ac" stroke="#7a91ac" stroke-width="1.51"/><path d="M1582,1190L1668,1345L1830,1272Z" fill="#1e3989" stroke="#1e3989" stroke-width="1.51"/><path d="M1582,1190L1830,1272L1835,1137Z" fill="#233991" stroke="#233991" stroke-width="1.51"/><path d="M1591,892L1762,989L1839,888Z" fill="#2656a4" stroke="#2656a4" stroke-width="1.51"/><path d="M1752,659L1591,892L1839,888Z" fill="#2863ab" stroke="#2863ab" stroke-width="1.51"/><path d="M1762,989L1582,1190L1835,1137Z" fill="#26439b" stroke="#26439b" stroke-width="1.51"/><path d="M1654,-192L1772,-42L1821,-173Z" fill="#9999ae" stroke="#9999ae" stroke-width="1.51"/><path d="M1729,274L1687,411L1794,422Z" fill="#5885ae" stroke="#5885ae" stroke-width="1.51"/><path d="M1601,655L1591,892L1752,659Z" fill="#2872b1" stroke="#2872b1" stroke-width="1.51"/><path d="M1591,892L1601,952L1762,989Z" fill="#2458a6" stroke="#2458a6" stroke-width="1.51"/><path d="M1654,-192L1633,-69L1772,-42Z" fill="#999dae" stroke="#999dae" stroke-width="1.51"/><path d="M1687,411L1776,529L1794,422Z" fill="#4b7fae" stroke="#4b7fae" stroke-width="1.51"/><path d="M1593,44L1664,231L1746,43Z" fill="#8699ad" stroke="#8699ad" stroke-width="1.51"/><path d="M1601,952L1582,1190L1762,989Z" fill="#264fa1" stroke="#264fa1" stroke-width="1.51"/><path d="M1613,535L1752,659L1776,529Z" fill="#397bb1" stroke="#397bb1" stroke-width="1.51"/><path d="M1687,411L1613,535L1776,529Z" fill="#4482b1" stroke="#4482b1" stroke-width="1.51"/><path d="M1633,-69L1746,43L1772,-42Z" fill="#9399ab" stroke="#9399ab" stroke-width="1.51"/><path d="M1613,535L1601,655L1752,659Z" fill="#347cb3" stroke="#347cb3" stroke-width="1.51"/><path d="M1633,-69L1593,44L1746,43Z" fill="#909dad" stroke="#909dad" stroke-width="1.51"/><path d="M1506,788L1591,892L1601,655Z" fill="#2473b2" stroke="#2473b2" stroke-width="1.51"/><path d="M1664,231L1687,411L1729,274Z" fill="#628cae" stroke="#628cae" stroke-width="1.51"/><path d="M1226,1277L1016,1332L1451,1329Z" fill="#215a93" stroke="#215a93" stroke-width="1.51"/><path d="M1482,1158L1582,1190L1601,952Z" fill="#2550a1" stroke="#2550a1" stroke-width="1.51"/><path d="M1593,44L1494,184L1664,231Z" fill="#7f9daf" stroke="#7f9daf" stroke-width="1.51"/><path d="M1664,231L1528,399L1687,411Z" fill="#5a8eb1" stroke="#5a8eb1" stroke-width="1.51"/><path d="M1528,399L1613,535L1687,411Z" fill="#4a8ab3" stroke="#4a8ab3" stroke-width="1.51"/><path d="M1494,184L1528,399L1664,231Z" fill="#6897b2" stroke="#6897b2" stroke-width="1.51"/><path d="M1582,1190L1451,1329L1668,1345Z" fill="#1c408b" stroke="#1c408b" stroke-width="1.51"/><path d="M1516,-223L1633,-69L1654,-192Z" fill="#9ba5b5" stroke="#9ba5b5" stroke-width="1.51"/><path d="M1468,951L1482,1158L1601,952Z" fill="#255aa6" stroke="#255aa6" stroke-width="1.51"/><path d="M1500,636L1601,655L1613,535Z" fill="#3282b5" stroke="#3282b5" stroke-width="1.51"/><path d="M1458,-12L1593,44L1633,-69Z" fill="#92a5b0" stroke="#92a5b0" stroke-width="1.51"/><path d="M1516,-223L1458,-12L1633,-69Z" fill="#9aaab2" stroke="#9aaab2" stroke-width="1.51"/><path d="M1458,-12L1482,42L1593,44Z" fill="#8fa8b2" stroke="#8fa8b2" stroke-width="1.51"/><path d="M1482,42L1494,184L1593,44Z" fill="#88a5b1" stroke="#88a5b1" stroke-width="1.51"/><path d="M1500,636L1506,788L1601,655Z" fill="#2a7eb6" stroke="#2a7eb6" stroke-width="1.51"/><path d="M1528,399L1464,551L1613,535Z" fill="#418db6" stroke="#418db6" stroke-width="1.51"/><path d="M1464,551L1500,636L1613,535Z" fill="#3589b7" stroke="#3589b7" stroke-width="1.51"/><path d="M1482,1158L1451,1329L1582,1190Z" fill="#224996" stroke="#224996" stroke-width="1.51"/><path d="M1591,892L1468,951L1601,952Z" fill="#2361aa" stroke="#2361aa" stroke-width="1.51"/><path d="M1494,184L1381,271L1528,399Z" fill="#669fb5" stroke="#669fb5" stroke-width="1.51"/><path d="M1506,788L1468,951L1591,892Z" fill="#236aae" stroke="#236aae" stroke-width="1.51"/><path d="M-19,-185L99,-172L448,-194Z" fill="#ebf7bb" stroke="#ebf7bb" stroke-width="1.51"/><path d="M1468,951L1318,994L1482,1158Z" fill="#2661aa" stroke="#2661aa" stroke-width="1.51"/><path d="M1500,636L1348,716L1506,788Z" fill="#2683b9" stroke="#2683b9" stroke-width="1.51"/><path d="M1350,786L1468,951L1506,788Z" fill="#2375b4" stroke="#2375b4" stroke-width="1.51"/><path d="M1352,-26L1458,-12L1516,-223Z" fill="#9ab2b4" stroke="#9ab2b4" stroke-width="1.51"/><path d="M1369,-265L1352,-26L1516,-223Z" fill="#9eb6bd" stroke="#9eb6bd" stroke-width="1.51"/><path d="M1349,444L1464,551L1528,399Z" fill="#4697b9" stroke="#4697b9" stroke-width="1.51"/><path d="M1381,271L1349,444L1528,399Z" fill="#559eb9" stroke="#559eb9" stroke-width="1.51"/><path d="M1345,1166L1451,1329L1482,1158Z" fill="#25519a" stroke="#25519a" stroke-width="1.51"/><path d="M1318,994L1345,1166L1482,1158Z" fill="#295da8" stroke="#295da8" stroke-width="1.51"/><path d="M1482,42L1353,63L1494,184Z" fill="#88acb4" stroke="#88acb4" stroke-width="1.51"/><path d="M1348,716L1350,786L1506,788Z" fill="#2283ba" stroke="#2283ba" stroke-width="1.51"/><path d="M1280,1263L1226,1277L1451,1329Z" fill="#215593" stroke="#215593" stroke-width="1.51"/><path d="M1464,551L1318,591L1500,636Z" fill="#3290bb" stroke="#3290bb" stroke-width="1.51"/><path d="M1318,591L1348,716L1500,636Z" fill="#2c8ebc" stroke="#2c8ebc" stroke-width="1.51"/><path d="M1353,63L1381,271L1494,184Z" fill="#7dabb6" stroke="#7dabb6" stroke-width="1.51"/><path d="M1350,786L1318,994L1468,951Z" fill="#2472b2" stroke="#2472b2" stroke-width="1.51"/><path d="M1458,-12L1353,63L1482,42Z" fill="#8fafb5" stroke="#8fafb5" stroke-width="1.51"/><path d="M1345,1166L1280,1263L1451,1329Z" fill="#235498" stroke="#235498" stroke-width="1.51"/><path d="M1352,-26L1353,63L1458,-12Z" fill="#92b4b6" stroke="#92b4b6" stroke-width="1.51"/><path d="M1349,444L1318,591L1464,551Z" fill="#389abe" stroke="#389abe" stroke-width="1.51"/><path d="M1225,484L1318,591L1349,444Z" fill="#3ba2c0" stroke="#3ba2c0" stroke-width="1.51"/><path d="M1195,855L1318,994L1350,786Z" fill="#227eb8" stroke="#227eb8" stroke-width="1.51"/><path d="M1232,55L1181,203L1353,63Z" fill="#89bdbb" stroke="#89bdbb" stroke-width="1.51"/><path d="M1218,-68L1352,-26L1369,-265Z" fill="#9ebebc" stroke="#9ebebc" stroke-width="1.51"/><path d="M1155,-230L1218,-68L1369,-265Z" fill="#a1c6c4" stroke="#a1c6c4" stroke-width="1.51"/><path d="M1198,387L1349,444L1381,271Z" fill="#56a8bd" stroke="#56a8bd" stroke-width="1.51"/><path d="M1181,203L1198,387L1381,271Z" fill="#66b2be" stroke="#66b2be" stroke-width="1.51"/><path d="M1353,63L1181,203L1381,271Z" fill="#7cb4ba" stroke="#7cb4ba" stroke-width="1.51"/><path d="M448,-194L636,-194L837,-244Z" fill="#c1e6c3" stroke="#c1e6c3" stroke-width="1.51"/><path d="M1318,994L1164,1195L1345,1166Z" fill="#2b65ac" stroke="#2b65ac" stroke-width="1.51"/><path d="M1318,591L1131,648L1348,716Z" fill="#2899c1" stroke="#2899c1" stroke-width="1.51"/><path d="M1198,387L1225,484L1349,444Z" fill="#49a9c0" stroke="#49a9c0" stroke-width="1.51"/><path d="M1348,716L1195,855L1350,786Z" fill="#2088bc" stroke="#2088bc" stroke-width="1.51"/><path d="M1218,-68L1232,55L1352,-26Z" fill="#96c0ba" stroke="#96c0ba" stroke-width="1.51"/><path d="M1352,-26L1232,55L1353,63Z" fill="#91bab9" stroke="#91bab9" stroke-width="1.51"/><path d="M1131,648L1195,855L1348,716Z" fill="#2193c1" stroke="#2193c1" stroke-width="1.51"/><path d="M1164,1195L1280,1263L1345,1166Z" fill="#285ea2" stroke="#285ea2" stroke-width="1.51"/><path d="M1091,1026L1164,1195L1318,994Z" fill="#2e6faf" stroke="#2e6faf" stroke-width="1.51"/><path d="M1129,971L1091,1026L1318,994Z" fill="#2c77b3" stroke="#2c77b3" stroke-width="1.51"/><path d="M1195,855L1129,971L1318,994Z" fill="#277cb5" stroke="#277cb5" stroke-width="1.51"/><path d="M1225,484L1131,648L1318,591Z" fill="#32a2c2" stroke="#32a2c2" stroke-width="1.51"/><path d="M1164,1195L1226,1277L1280,1263Z" fill="#275e9d" stroke="#275e9d" stroke-width="1.51"/><path d="M1131,648L1037,723L1195,855Z" fill="#299ac1" stroke="#299ac1" stroke-width="1.51"/><path d="M1181,203L1051,256L1198,387Z" fill="#6bb9be" stroke="#6bb9be" stroke-width="1.51"/><path d="M1155,-230L1035,-58L1218,-68Z" fill="#a2cbbf" stroke="#a2cbbf" stroke-width="1.51"/><path d="M1026,484L1131,648L1225,484Z" fill="#3aabc3" stroke="#3aabc3" stroke-width="1.51"/><path d="M1001,54L1181,203L1232,55Z" fill="#8dc5bc" stroke="#8dc5bc" stroke-width="1.51"/><path d="M1218,-68L1035,-58L1232,55Z" fill="#9ac7bb" stroke="#9ac7bb" stroke-width="1.51"/><path d="M1035,-58L1001,54L1232,55Z" fill="#98cbbb" stroke="#98cbbb" stroke-width="1.51"/><path d="M1017,-159L1035,-58L1155,-230Z" fill="#a5d0c2" stroke="#a5d0c2" stroke-width="1.51"/><path d="M1198,387L1053,411L1225,484Z" fill="#4fafc0" stroke="#4fafc0" stroke-width="1.51"/><path d="M1164,1195L1016,1332L1226,1277Z" fill="#2c629b" stroke="#2c629b" stroke-width="1.51"/><path d="M1053,411L1026,484L1225,484Z" fill="#4cb1c2" stroke="#4cb1c2" stroke-width="1.51"/><path d="M837,-244L1017,-159L1155,-230Z" fill="#a9d7c8" stroke="#a9d7c8" stroke-width="1.51"/><path d="M1091,1026L1048,1187L1164,1195Z" fill="#366eac" stroke="#366eac" stroke-width="1.51"/><path d="M1048,1187L1016,1332L1164,1195Z" fill="#32689f" stroke="#32689f" stroke-width="1.51"/><path d="M1001,54L1051,256L1181,203Z" fill="#84c4bd" stroke="#84c4bd" stroke-width="1.51"/><path d="M1037,723L1013,808L1195,855Z" fill="#2d96be" stroke="#2d96be" stroke-width="1.51"/><path d="M1051,256L1053,411L1198,387Z" fill="#5eb7bf" stroke="#5eb7bf" stroke-width="1.51"/><path d="M1013,808L1129,971L1195,855Z" fill="#2d89ba" stroke="#2d89ba" stroke-width="1.51"/><path d="M1026,484L897,570L1037,723Z" fill="#3dafc4" stroke="#3dafc4" stroke-width="1.51"/><path d="M1013,808L1091,1026L1129,971Z" fill="#3084b7" stroke="#3084b7" stroke-width="1.51"/><path d="M1026,484L1037,723L1131,648Z" fill="#37a8c3" stroke="#37a8c3" stroke-width="1.51"/><path d="M894,1013L871,1116L1048,1187Z" fill="#407aaf" stroke="#407aaf" stroke-width="1.51"/><path d="M1051,256L930,278L1053,411Z" fill="#67c0bf" stroke="#67c0bf" stroke-width="1.51"/><path d="M894,1013L1048,1187L1091,1026Z" fill="#3a79b0" stroke="#3a79b0" stroke-width="1.51"/><path d="M1013,808L894,1013L1091,1026Z" fill="#3587b6" stroke="#3587b6" stroke-width="1.51"/><path d="M840,92L930,278L1001,54Z" fill="#90d0bd" stroke="#90d0bd" stroke-width="1.51"/><path d="M897,570L842,656L1037,723Z" fill="#40adc3" stroke="#40adc3" stroke-width="1.51"/><path d="M897,1322L1016,1332L1048,1187Z" fill="#336a9a" stroke="#336a9a" stroke-width="1.51"/><path d="M1001,54L930,278L1051,256Z" fill="#82c9be" stroke="#82c9be" stroke-width="1.51"/><path d="M868,423L1026,484L1053,411Z" fill="#53bac2" stroke="#53bac2" stroke-width="1.51"/><path d="M930,278L868,423L1053,411Z" fill="#60c0c1" stroke="#60c0c1" stroke-width="1.51"/><path d="M830,821L894,1013L1013,808Z" fill="#3d94ba" stroke="#3d94ba" stroke-width="1.51"/><path d="M871,1116L897,1322L1048,1187Z" fill="#3d71a4" stroke="#3d71a4" stroke-width="1.51"/><path d="M1017,-159L864,-7L1035,-58Z" fill="#a5d5bc" stroke="#a5d5bc" stroke-width="1.51"/><path d="M864,-7L1001,54L1035,-58Z" fill="#9dd4bc" stroke="#9dd4bc" stroke-width="1.51"/><path d="M842,656L1013,808L1037,723Z" fill="#34a4c2" stroke="#34a4c2" stroke-width="1.51"/><path d="M842,656L830,821L1013,808Z" fill="#3ea4c0" stroke="#3ea4c0" stroke-width="1.51"/><path d="M868,423L897,570L1026,484Z" fill="#4eb9c3" stroke="#4eb9c3" stroke-width="1.51"/><path d="M785,-194L864,-7L1017,-159Z" fill="#acdabe" stroke="#acdabe" stroke-width="1.51"/><path d="M837,-244L785,-194L1017,-159Z" fill="#b0dcc6" stroke="#b0dcc6" stroke-width="1.51"/><path d="M864,-7L840,92L1001,54Z" fill="#9dd4bb" stroke="#9dd4bb" stroke-width="1.51"/><path d="M561,1261L407,1286L695,1288Z" fill="#617996" stroke="#617996" stroke-width="1.51"/><path d="M830,821L749,990L894,1013Z" fill="#498fb5" stroke="#498fb5" stroke-width="1.51"/><path d="M871,1116L768,1152L897,1322Z" fill="#4975a6" stroke="#4975a6" stroke-width="1.51"/><path d="M840,92L735,235L930,278Z" fill="#8bcfbc" stroke="#8bcfbc" stroke-width="1.51"/><path d="M735,235L785,349L930,278Z" fill="#7ccabd" stroke="#7ccabd" stroke-width="1.51"/><path d="M785,349L868,423L930,278Z" fill="#6cc4bf" stroke="#6cc4bf" stroke-width="1.51"/><path d="M749,990L871,1116L894,1013Z" fill="#4b84b1" stroke="#4b84b1" stroke-width="1.51"/><path d="M768,1152L695,1288L897,1322Z" fill="#4a739c" stroke="#4a739c" stroke-width="1.51"/><path d="M868,423L717,544L897,570Z" fill="#57bcc2" stroke="#57bcc2" stroke-width="1.51"/><path d="M717,544L842,656L897,570Z" fill="#51b7c2" stroke="#51b7c2" stroke-width="1.51"/><path d="M785,-194L679,-55L864,-7Z" fill="#b3deb9" stroke="#b3deb9" stroke-width="1.51"/><path d="M714,714L830,821L842,656Z" fill="#4cabc0" stroke="#4cabc0" stroke-width="1.51"/><path d="M743,59L840,92L864,-7Z" fill="#a2d8ba" stroke="#a2d8ba" stroke-width="1.51"/><path d="M785,349L717,544L868,423Z" fill="#66c2c0" stroke="#66c2c0" stroke-width="1.51"/><path d="M749,990L768,1152L871,1116Z" fill="#5081ae" stroke="#5081ae" stroke-width="1.51"/><path d="M679,-55L743,59L864,-7Z" fill="#abdbb9" stroke="#abdbb9" stroke-width="1.51"/><path d="M99,-172L312,-161L448,-194Z" fill="#e4f4bb" stroke="#e4f4bb" stroke-width="1.51"/><path d="M699,821L749,990L830,821Z" fill="#5199b8" stroke="#5199b8" stroke-width="1.51"/><path d="M714,714L699,821L830,821Z" fill="#51a6bd" stroke="#51a6bd" stroke-width="1.51"/><path d="M636,-194L785,-194L837,-244Z" fill="#b9e1c5" stroke="#b9e1c5" stroke-width="1.51"/><path d="M743,59L735,235L840,92Z" fill="#9dd6b9" stroke="#9dd6b9" stroke-width="1.51"/><path d="M717,544L714,714L842,656Z" fill="#55b4c0" stroke="#55b4c0" stroke-width="1.51"/><path d="M636,-194L630,-93L679,-55Z" fill="#bce3ba" stroke="#bce3ba" stroke-width="1.51"/><path d="M634,240L735,235L743,59Z" fill="#99d6b9" stroke="#99d6b9" stroke-width="1.51"/><path d="M749,990L627,1137L768,1152Z" fill="#5883ad" stroke="#5883ad" stroke-width="1.51"/><path d="M584,392L717,544L785,349Z" fill="#70c6be" stroke="#70c6be" stroke-width="1.51"/><path d="M735,235L634,240L785,349Z" fill="#86cebb" stroke="#86cebb" stroke-width="1.51"/><path d="M634,240L584,392L785,349Z" fill="#80cdbb" stroke="#80cdbb" stroke-width="1.51"/><path d="M636,-194L679,-55L785,-194Z" fill="#bae2bd" stroke="#bae2bd" stroke-width="1.51"/><path d="M562,129L634,240L743,59Z" fill="#a4dab8" stroke="#a4dab8" stroke-width="1.51"/><path d="M627,1137L695,1288L768,1152Z" fill="#577aa4" stroke="#577aa4" stroke-width="1.51"/><path d="M576,560L714,714L717,544Z" fill="#61bbbf" stroke="#61bbbf" stroke-width="1.51"/><path d="M699,821L551,994L749,990Z" fill="#5a96b3" stroke="#5a96b3" stroke-width="1.51"/><path d="M551,994L627,1137L749,990Z" fill="#5f8bae" stroke="#5f8bae" stroke-width="1.51"/><path d="M679,-55L562,129L743,59Z" fill="#aedeb7" stroke="#aedeb7" stroke-width="1.51"/><path d="M576,560L575,730L714,714Z" fill="#65b8be" stroke="#65b8be" stroke-width="1.51"/><path d="M584,392L576,560L717,544Z" fill="#6fc5be" stroke="#6fc5be" stroke-width="1.51"/><path d="M627,1137L561,1261L695,1288Z" fill="#5c7a9e" stroke="#5c7a9e" stroke-width="1.51"/><path d="M585,791L551,994L699,821Z" fill="#63a0b7" stroke="#63a0b7" stroke-width="1.51"/><path d="M585,791L699,821L714,714Z" fill="#5aabbd" stroke="#5aabbd" stroke-width="1.51"/><path d="M575,730L585,791L714,714Z" fill="#61b0be" stroke="#61b0be" stroke-width="1.51"/><path d="M630,-93L477,-20L679,-55Z" fill="#bfe4b6" stroke="#bfe4b6" stroke-width="1.51"/><path d="M477,-20L562,129L679,-55Z" fill="#bae3b6" stroke="#bae3b6" stroke-width="1.51"/><path d="M441,248L584,392L634,240Z" fill="#95d4ba" stroke="#95d4ba" stroke-width="1.51"/><path d="M448,-194L630,-93L636,-194Z" fill="#c7e8bd" stroke="#c7e8bd" stroke-width="1.51"/><path d="M551,994L481,1006L627,1137Z" fill="#6c8eae" stroke="#6c8eae" stroke-width="1.51"/><path d="M562,129L441,248L634,240Z" fill="#a6dbb8" stroke="#a6dbb8" stroke-width="1.51"/><path d="M448,-194L477,-20L630,-93Z" fill="#cae9b7" stroke="#cae9b7" stroke-width="1.51"/><path d="M388,1174L561,1261L627,1137Z" fill="#6d81a3" stroke="#6d81a3" stroke-width="1.51"/><path d="M481,1006L388,1174L627,1137Z" fill="#738aaa" stroke="#738aaa" stroke-width="1.51"/><path d="M414,578L380,741L575,730Z" fill="#7dbdbc" stroke="#7dbdbc" stroke-width="1.51"/><path d="M380,741L383,820L575,730Z" fill="#7bb6bb" stroke="#7bb6bb" stroke-width="1.51"/><path d="M414,578L575,730L576,560Z" fill="#76c0be" stroke="#76c0be" stroke-width="1.51"/><path d="M441,248L382,362L584,392Z" fill="#98d6b9" stroke="#98d6b9" stroke-width="1.51"/><path d="M414,578L576,560L584,392Z" fill="#7dc9be" stroke="#7dc9be" stroke-width="1.51"/><path d="M382,362L414,578L584,392Z" fill="#8dd0bc" stroke="#8dd0bc" stroke-width="1.51"/><path d="M481,1006L551,994L585,791Z" fill="#6d9bb3" stroke="#6d9bb3" stroke-width="1.51"/><path d="M383,820L481,1006L585,791Z" fill="#75a6b5" stroke="#75a6b5" stroke-width="1.51"/><path d="M575,730L383,820L585,791Z" fill="#71b0bb" stroke="#71b0bb" stroke-width="1.51"/><path d="M477,-20L398,119L562,129Z" fill="#bfe5b5" stroke="#bfe5b5" stroke-width="1.51"/><path d="M388,1174L407,1286L561,1261Z" fill="#71809b" stroke="#71809b" stroke-width="1.51"/><path d="M398,119L441,248L562,129Z" fill="#b5e1b6" stroke="#b5e1b6" stroke-width="1.51"/><path d="M302,1256L123,1345L407,1286Z" fill="#7c8291" stroke="#7c8291" stroke-width="1.51"/><path d="M298,-33L398,119L477,-20Z" fill="#ceebb4" stroke="#ceebb4" stroke-width="1.51"/><path d="M448,-194L312,-161L477,-20Z" fill="#d6efb8" stroke="#d6efb8" stroke-width="1.51"/><path d="M312,-161L298,-33L477,-20Z" fill="#d9f0b3" stroke="#d9f0b3" stroke-width="1.51"/><path d="M383,820L293,829L481,1006Z" fill="#81a8b4" stroke="#81a8b4" stroke-width="1.51"/><path d="M293,829L239,1039L481,1006Z" fill="#85a0b0" stroke="#85a0b0" stroke-width="1.51"/><path d="M239,1039L388,1174L481,1006Z" fill="#8293aa" stroke="#8293aa" stroke-width="1.51"/><path d="M250,391L228,518L382,362Z" fill="#a1d8b9" stroke="#a1d8b9" stroke-width="1.51"/><path d="M298,-33L303,99L398,119Z" fill="#cfecb4" stroke="#cfecb4" stroke-width="1.51"/><path d="M382,362L228,518L414,578Z" fill="#96d3bc" stroke="#96d3bc" stroke-width="1.51"/><path d="M398,119L329,232L441,248Z" fill="#b9e2b6" stroke="#b9e2b6" stroke-width="1.51"/><path d="M329,232L382,362L441,248Z" fill="#abddb7" stroke="#abddb7" stroke-width="1.51"/><path d="M239,1039L238,1120L388,1174Z" fill="#8891a9" stroke="#8891a9" stroke-width="1.51"/><path d="M313,739L380,741L414,578Z" fill="#88c1bc" stroke="#88c1bc" stroke-width="1.51"/><path d="M388,1174L302,1256L407,1286Z" fill="#7b849a" stroke="#7b849a" stroke-width="1.51"/><path d="M228,518L313,739L414,578Z" fill="#8fc9bc" stroke="#8fc9bc" stroke-width="1.51"/><path d="M303,99L329,232L398,119Z" fill="#c5e8b5" stroke="#c5e8b5" stroke-width="1.51"/><path d="M380,741L313,739L383,820Z" fill="#87b9ba" stroke="#87b9ba" stroke-width="1.51"/><path d="M329,232L250,391L382,362Z" fill="#a9dcb8" stroke="#a9dcb8" stroke-width="1.51"/><path d="M313,739L293,829L383,820Z" fill="#88b6b9" stroke="#88b6b9" stroke-width="1.51"/><path d="M238,1120L302,1256L388,1174Z" fill="#8589a3" stroke="#8589a3" stroke-width="1.51"/><path d="M25,1324L-129,1342L123,1345Z" fill="#87848e" stroke="#87848e" stroke-width="1.51"/><path d="M97,564L79,717L228,518Z" fill="#9ecfbc" stroke="#9ecfbc" stroke-width="1.51"/><path d="M137,982L239,1039L293,829Z" fill="#8da4b0" stroke="#8da4b0" stroke-width="1.51"/><path d="M139,865L137,982L293,829Z" fill="#91acb3" stroke="#91acb3" stroke-width="1.51"/><path d="M298,-33L171,49L303,99Z" fill="#d6efb3" stroke="#d6efb3" stroke-width="1.51"/><path d="M138,-83L298,-33L312,-161Z" fill="#e2f4b4" stroke="#e2f4b4" stroke-width="1.51"/><path d="M228,518L79,717L313,739Z" fill="#96c8bc" stroke="#96c8bc" stroke-width="1.51"/><path d="M303,99L187,212L329,232Z" fill="#c4e7b5" stroke="#c4e7b5" stroke-width="1.51"/><path d="M187,212L250,391L329,232Z" fill="#b5e1b6" stroke="#b5e1b6" stroke-width="1.51"/><path d="M139,865L293,829L313,739Z" fill="#8eb6b7" stroke="#8eb6b7" stroke-width="1.51"/><path d="M79,717L139,865L313,739Z" fill="#94bcb9" stroke="#94bcb9" stroke-width="1.51"/><path d="M99,-172L138,-83L312,-161Z" fill="#e8f6b7" stroke="#e8f6b7" stroke-width="1.51"/><path d="M238,1120L98,1140L302,1256Z" fill="#8c8ba5" stroke="#8c8ba5" stroke-width="1.51"/><path d="M98,1140L123,1345L302,1256Z" fill="#878799" stroke="#878799" stroke-width="1.51"/><path d="M171,49L187,212L303,99Z" fill="#d1edb4" stroke="#d1edb4" stroke-width="1.51"/><path d="M187,212L115,337L250,391Z" fill="#b5e1b6" stroke="#b5e1b6" stroke-width="1.51"/><path d="M138,-83L171,49L298,-33Z" fill="#dff3b2" stroke="#dff3b2" stroke-width="1.51"/><path d="M115,337L228,518L250,391Z" fill="#a8dab9" stroke="#a8dab9" stroke-width="1.51"/><path d="M115,337L97,564L228,518Z" fill="#a6d8ba" stroke="#a6d8ba" stroke-width="1.51"/><path d="M98,1140L238,1120L239,1039Z" fill="#8f93a9" stroke="#8f93a9" stroke-width="1.51"/><path d="M137,982L98,1140L239,1039Z" fill="#919aab" stroke="#919aab" stroke-width="1.51"/><path d="M-19,430L97,564L115,337Z" fill="#aedcb9" stroke="#aedcb9" stroke-width="1.51"/><path d="M98,1140L25,1324L123,1345Z" fill="#8b8795" stroke="#8b8795" stroke-width="1.51"/><path d="M-71,89L30,251L171,49Z" fill="#daf1b4" stroke="#daf1b4" stroke-width="1.51"/><path d="M171,49L30,251L187,212Z" fill="#cfecb4" stroke="#cfecb4" stroke-width="1.51"/><path d="M30,251L115,337L187,212Z" fill="#c1e5b6" stroke="#c1e5b6" stroke-width="1.51"/><path d="M138,-83L-18,-108L171,49Z" fill="#e8f6b1" stroke="#e8f6b1" stroke-width="1.51"/><path d="M-18,-108L-71,89L171,49Z" fill="#e6f6b4" stroke="#e6f6b4" stroke-width="1.51"/><path d="M-18,1165L25,1324L98,1140Z" fill="#938da0" stroke="#938da0" stroke-width="1.51"/><path d="M-42,1010L98,1140L137,982Z" fill="#979dab" stroke="#979dab" stroke-width="1.51"/><path d="M99,-172L-18,-108L138,-83Z" fill="#eef8b5" stroke="#eef8b5" stroke-width="1.51"/><path d="M79,717L-46,800L139,865Z" fill="#9cbcb8" stroke="#9cbcb8" stroke-width="1.51"/><path d="M-42,1010L137,982L139,865Z" fill="#97a6af" stroke="#97a6af" stroke-width="1.51"/><path d="M-46,800L-42,1010L139,865Z" fill="#9bb0b5" stroke="#9bb0b5" stroke-width="1.51"/><path d="M-13,581L79,717L97,564Z" fill="#a2cfbc" stroke="#a2cfbc" stroke-width="1.51"/><path d="M-19,430L-13,581L97,564Z" fill="#a8d8bd" stroke="#a8d8bd" stroke-width="1.51"/><path d="M-42,1010L-18,1165L98,1140Z" fill="#9896ab" stroke="#9896ab" stroke-width="1.51"/><path d="M30,251L-19,430L115,337Z" fill="#bae2b7" stroke="#bae2b7" stroke-width="1.51"/><path d="M-13,581L-67,653L79,717Z" fill="#a2ccbf" stroke="#a2ccbf" stroke-width="1.51"/><path d="M-19,-185L-18,-108L99,-172Z" fill="#f2fabb" stroke="#f2fabb" stroke-width="1.51"/><path d="M-67,653L-46,800L79,717Z" fill="#9fc6bf" stroke="#9fc6bf" stroke-width="1.51"/><path d="M-46,800L-184,874L-42,1010Z" fill="#9db1bc" stroke="#9db1bc" stroke-width="1.51"/><path d="M-18,1165L-139,1193L25,1324Z" fill="#928ca1" stroke="#928ca1" stroke-width="1.51"/><path d="M-139,1193L-129,1342L25,1324Z" fill="#8d889b" stroke="#8d889b" stroke-width="1.51"/><path d="M-71,89L-178,192L30,251Z" fill="#d6efbc" stroke="#d6efbc" stroke-width="1.51"/><path d="M-178,192L-116,360L30,251Z" fill="#c8e9bf" stroke="#c8e9bf" stroke-width="1.51"/><path d="M-116,360L-19,430L30,251Z" fill="#bbe2bd" stroke="#bbe2bd" stroke-width="1.51"/><path d="M-184,874L-165,1007L-42,1010Z" fill="#9da8ba" stroke="#9da8ba" stroke-width="1.51"/><path d="M-165,1007L-139,1193L-42,1010Z" fill="#9c9bb5" stroke="#9c9bb5" stroke-width="1.51"/><path d="M-116,360L-212,531L-19,430Z" fill="#b4dec4" stroke="#b4dec4" stroke-width="1.51"/><path d="M-198,-58L-71,89L-18,-108Z" fill="#edf8bc" stroke="#edf8bc" stroke-width="1.51"/><path d="M-19,-185L-197,-202L-18,-108Z" fill="#f5fbc3" stroke="#f5fbc3" stroke-width="1.51"/><path d="M-42,1010L-139,1193L-18,1165Z" fill="#9a95b0" stroke="#9a95b0" stroke-width="1.51"/><path d="M-170,646L-67,653L-13,581Z" fill="#a5d0c4" stroke="#a5d0c4" stroke-width="1.51"/><path d="M-212,531L-170,646L-13,581Z" fill="#a8d4c8" stroke="#a8d4c8" stroke-width="1.51"/><path d="M-19,430L-212,531L-13,581Z" fill="#acdac4" stroke="#acdac4" stroke-width="1.51"/><path d="M-197,-202L-198,-58L-18,-108Z" fill="#f5fbc2" stroke="#f5fbc2" stroke-width="1.51"/><path d="M-67,653L-170,646L-46,800Z" fill="#a2c9c5" stroke="#a2c9c5" stroke-width="1.51"/><path d="M-170,646L-184,874L-46,800Z" fill="#a1c2c5" stroke="#a1c2c5" stroke-width="1.51"/><path d="M-204,137L-178,192L-71,89Z" fill="#dff2c0" stroke="#dff2c0" stroke-width="1.51"/><path d="M-198,-58L-204,137L-71,89Z" fill="#e7f6c0" stroke="#e7f6c0" stroke-width="1.51"/><path d="M-165,1007L-184,874L-129,1342Z" fill="#9c9bb7" stroke="#9c9bb7" stroke-width="1.51"/><path d="M-178,192L-212,531L-116,360Z" fill="#bde4c6" stroke="#bde4c6" stroke-width="1.51"/><path d="M-139,1193L-165,1007L-129,1342Z" fill="#9990af" stroke="#9990af" stroke-width="1.51"/><path d="M-204,137L-212,531L-178,192Z" fill="#c9e9c6" stroke="#c9e9c6" stroke-width="1.51"/><path d="M-212,531L-184,874L-170,646Z" fill="#a5ccca" stroke="#a5ccca" stroke-width="1.51"/><path d="M-204,137L-198,-58L-197,-202Z" fill="#f2fac3" stroke="#f2fac3" stroke-width="1.51"/></svg>