<svg xmlns="http://www.w3.org/2000/svg" width="1920" height="1080"><path d="M-197,-202L-19,-185L448,-194Z" fill="#d0342b" stroke="#d0342b" stroke-width="1.51"/><path d="M-197,-202L448,-194L837,-244Z" fill="#da5c3c" stroke="#da5c3c" stroke-width="1.51"/><path d="M897,1322L123,1345L1016,1332Z" fill="#91a45f" stroke="#91a45f" stroke-width="1.51"/><path d="M837,-244L1155,-230L1369,-265Z" fill="#d48f5e" stroke="#d48f5e" stroke-width="1.51"/><path d="M1016,1332L123,1345L1668,1345Z" fill="#8db478" stroke="#8db478" stroke-width="1.51"/><path d="M1451,1329L1016,1332L1668,1345Z" fill="#67a656" stroke="#67a656" stroke-width="1.51"/><path d="M1654,-192L1821,-173L1911,-185Z" fill="#9c783f" stroke="#9c783f" stroke-width="1.51"/><path d="M1654,-192L1911,-185L2060,-232Z" fill="#91713c" stroke="#91713c" stroke-width="1.51"/><path d="M1516,-223L1654,-192L2060,-232Z" fill="#9c7840" stroke="#9c7840" stroke-width="1.51"/><path d="M1369,-265L1516,-223L2060,-232Z" fill="#a27c43" stroke="#a27c43" stroke-width="1.51"/><path d="M1966,836L2063,873L2076,642Z" fill="#73b25f" stroke="#73b25f" stroke-width="1.51"/><path d="M1952,652L1966,836L2076,642Z" fill="#80ba68" stroke="#80ba68" stroke-width="1.51"/><path d="M2070,987L1968,1181L2098,1144Z" fill="#31964f" stroke="#31964f" stroke-width="1.51"/><path d="M2076,642L2063,873L2098,1144Z" fill="#5fa654" stroke="#5fa654" stroke-width="1.51"/><path d="M2063,873L2070,987L2098,1144Z" fill="#479d51" stroke="#479d51" stroke-width="1.51"/><path d="M2047,56L1886,188L2100,282Z" fill="#9b9750" stroke="#9b9750" stroke-width="1.51"/><path d="M2079,-104L2047,56L2100,282Z" fill="#978144" stroke="#978144" stroke-width="1.51"/><path d="M2100,282L1956,361L2118,381Z" fill="#94aa60" stroke="#94aa60" stroke-width="1.51"/><path d="M1956,361L2053,487L2118,381Z" fill="#94b36b" stroke="#94b36b" stroke-width="1.51"/><path d="M2053,487L2076,642L2118,381Z" fill="#90b776" stroke="#90b776" stroke-width="1.51"/><path d="M2076,642L2098,1144L2118,381Z" fill="#79af61" stroke="#79af61" stroke-width="1.51"/><path d="M2079,-104L2100,282L2118,381Z" fill="#95904c" stroke="#95904c" stroke-width="1.51"/><path d="M2098,1144L1968,1181L2118,1295Z" fill="#128848" stroke="#128848" stroke-width="1.51"/><path d="M1968,1181L1940,1323L2118,1295Z" fill="#118546" stroke="#118546" stroke-width="1.51"/><path d="M2118,381L2098,1144L2118,1295Z" fill="#539e51" stroke="#539e51" stroke-width="1.51"/><path d="M1907,1007L1968,1181L2070,987Z" fill="#3ea154" stroke="#3ea154" stroke-width="1.51"/><path d="M2053,487L1915,557L2076,642Z" fill="#91c07d" stroke="#91c07d" stroke-width="1.51"/><path d="M1915,557L1952,652L2076,642Z" fill="#8cc177" stroke="#8cc177" stroke-width="1.51"/><path d="M1909,-80L2047,56L2079,-104Z" fill="#97763c" stroke="#97763c" stroke-width="1.51"/><path d="M1886,188L1956,361L2100,282Z" fill="#9ba95d" stroke="#9ba95d" stroke-width="1.51"/><path d="M1909,-80L1935,50L2047,56Z" fill="#9d8243" stroke="#9d8243" stroke-width="1.51"/><path d="M1935,50L1886,188L2047,56Z" fill="#a0914c" stroke="#a0914c" stroke-width="1.51"/><path d="M2063,873L1966,836L2070,987Z" fill="#5faa56" stroke="#5faa56" stroke-width="1.51"/><path d="M1966,836L1907,1007L2070,987Z" fill="#59ac58" stroke="#59ac58" stroke-width="1.51"/><path d="M2060,-232L1911,-185L2079,-104Z" fill="#8a6635" stroke="#8a6635" stroke-width="1.51"/><path d="M1911,-185L1909,-80L2079,-104Z" fill="#957038" stroke="#957038" stroke-width="1.51"/><path d="M1956,361L1915,557L2053,487Z" fill="#97bf77" stroke="#97bf77" stroke-width="1.51"/><path d="M695,1288L123,1345L897,1322Z" fill="#949d57" stroke="#949d57" stroke-width="1.51"/><path d="M1830,1272L1668,1345L1940,1323Z" fill="#298f4b" stroke="#298f4b" stroke-width="1.51"/><path d="M1752,659L1839,888L1952,652Z" fill="#89c76d" stroke="#89c76d" stroke-width="1.51"/><path d="M1886,188L1729,274L1956,361Z" fill="#a6b463" stroke="#a6b463" stroke-width="1.51"/><path d="M1794,422L1915,557L1956,361Z" fill="#9ec679" stroke="#9ec679" stroke-width="1.51"/><path d="M1952,652L1839,888L1966,836Z" fill="#78bd65" stroke="#78bd65" stroke-width="1.51"/><path d="M1839,888L1907,1007L1966,836Z" fill="#64b65c" stroke="#64b65c" stroke-width="1.51"/><path d="M1907,1007L1835,1137L1968,1181Z" fill="#38a355" stroke="#38a355" stroke-width="1.51"/><path d="M1830,1272L1940,1323L1968,1181Z" fill="#18904c" stroke="#18904c" stroke-width="1.51"/><path d="M1835,1137L1830,1272L1968,1181Z" fill="#269b51" stroke="#269b51" stroke-width="1.51"/><path d="M1729,274L1794,422L1956,361Z" fill="#a7c16d" stroke="#a7c16d" stroke-width="1.51"/><path d="M1915,557L1752,659L1952,652Z" fill="#95cb7b" stroke="#95cb7b" stroke-width="1.51"/><path d="M1794,422L1776,529L1915,557Z" fill="#a4d084" stroke="#a4d084" stroke-width="1.51"/><path d="M1746,43L1886,188L1935,50Z" fill="#a99850" stroke="#a99850" stroke-width="1.51"/><path d="M1909,-80L1772,-42L1935,50Z" fill="#a38545" stroke="#a38545" stroke-width="1.51"/><path d="M1821,-173L1909,-80L1911,-185Z" fill="#99753b" stroke="#99753b" stroke-width="1.51"/><path d="M1772,-42L1746,43L1935,50Z" fill="#ab8f4a" stroke="#ab8f4a" stroke-width="1.51"/><path d="M1839,888L1762,989L1907,1007Z" fill="#62b75e" stroke="#62b75e" stroke-width="1.51"/><path d="M1762,989L1835,1137L1907,1007Z" fill="#50b05c" stroke="#50b05c" stroke-width="1.51"/><path d="M1776,529L1752,659L1915,557Z" fill="#a1d284" stroke="#a1d284" stroke-width="1.51"/><path d="M1821,-173L1772,-42L1909,-80Z" fill="#a37e40" stroke="#a37e40" stroke-width="1.51"/><path d="M407,1286L123,1345L695,1288Z" fill="#978e4c" stroke="#978e4c" stroke-width="1.51"/><path d="M1746,43L1729,274L1886,188Z" fill="#afa959" stroke="#afa959" stroke-width="1.51"/><path d="M1664,231L1729,274L1746,43Z" fill="#b7b15e" stroke="#b7b15e" stroke-width="1.51"/><path d="M1582,1190L1668,1345L1830,1272Z" fill="#409f53" stroke="#409f53" stroke-width="1.51"/><path d="M1582,1190L1830,1272L1835,1137Z" fill="#3ca556" stroke="#3ca556" stroke-width="1.51"/><path d="M1591,892L1762,989L1839,888Z" fill="#77c264" stroke="#77c264" stroke-width="1.51"/><path d="M1752,659L1591,892L1839,888Z" fill="#8bcc6a" stroke="#8bcc6a" stroke-width="1.51"/><path d="M1762,989L1582,1190L1835,1137Z" fill="#53b15d" stroke="#53b15d" stroke-width="1.51"/><path d="M1654,-192L1772,-42L1821,-173Z" fill="#a77f40" stroke="#a77f40" stroke-width="1.51"/><path d="M1729,274L1687,411L1794,422Z" fill="#b0ca73" stroke="#b0ca73" stroke-width="1.51"/><path d="M1601,655L1591,892L1752,659Z" fill="#a1d674" stroke="#a1d674" stroke-width="1.51"/><path d="M1591,892L1601,952L1762,989Z" fill="#7cc666" stroke="#7cc666" stroke-width="1.51"/><path d="M1654,-192L1633,-69L1772,-42Z" fill="#b18844" stroke="#b18844" stroke-width="1.51"/><path d="M1687,411L1776,529L1794,422Z" fill="#aed180" stroke="#aed180" stroke-width="1.51"/><path d="M1593,44L1664,231L1746,43Z" fill="#bda758" stroke="#bda758" stroke-width="1.51"/><path d="M1601,952L1582,1190L1762,989Z" fill="#69be63" stroke="#69be63" stroke-width="1.51"/><path d="M1613,535L1752,659L1776,529Z" fill="#adda89" stroke="#adda89" stroke-width="1.51"/><path d="M1687,411L1613,535L1776,529Z" fill="#b4d988" stroke="#b4d988" stroke-width="1.51"/><path d="M1633,-69L1746,43L1772,-42Z" fill="#b3904a" stroke="#b3904a" stroke-width="1.51"/><path d="M1613,535L1601,655L1752,659Z" fill="#afdc85" stroke="#afdc85" stroke-width="1.51"/><path d="M1633,-69L1593,44L1746,43Z" fill="#bc984f" stroke="#bc984f" stroke-width="1.51"/><path d="M1506,788L1591,892L1601,655Z" fill="#a4d871" stroke="#a4d871" stroke-width="1.51"/><path d="M1664,231L1687,411L1729,274Z" fill="#b7c56d" stroke="#b7c56d" stroke-width="1.51"/><path d="M1226,1277L1016,1332L1451,1329Z" fill="#79b062" stroke="#79b062" stroke-width="1.51"/><path d="M1482,1158L1582,1190L1601,952Z" fill="#6cbd61" stroke="#6cbd61" stroke-width="1.51"/><path d="M1593,44L1494,184L1664,231Z" fill="#c6b45e" stroke="#c6b45e" stroke-width="1.51"/><path d="M1664,231L1528,399L1687,411Z" fill="#bdcf74" stroke="#bdcf74" stroke-width="1.51"/><path d="M1528,399L1613,535L1687,411Z" fill="#bfda83" stroke="#bfda83" stroke-width="1.51"/><path d="M1494,184L1528,399L1664,231Z" fill="#c7c86b" stroke="#c7c86b" stroke-width="1.51"/><path d="M1582,1190L1451,1329L1668,1345Z" fill="#52a354" stroke="#52a354" stroke-width="1.51"/><path d="M1516,-223L1633,-69L1654,-192Z" fill="#b38544" stroke="#b38544" stroke-width="1.51"/><path d="M1468,951L1482,1158L1601,952Z" fill="#7fc866" stroke="#7fc866" stroke-width="1.51"/><path d="M1500,636L1601,655L1613,535Z" fill="#bae187" stroke="#bae187" stroke-width="1.51"/><path d="M1458,-12L1593,44L1633,-69Z" fill="#c59a4f" stroke="#c59a4f" stroke-width="1.51"/><path d="M1516,-223L1458,-12L1633,-69Z" fill="#c28f46" stroke="#c28f46" stroke-width="1.51"/><path d="M1458,-12L1482,42L1593,44Z" fill="#cda252" stroke="#cda252" stroke-width="1.51"/><path d="M1482,42L1494,184L1593,44Z" fill="#cdac59" stroke="#cdac59" stroke-width="1.51"/><path d="M1500,636L1506,788L1601,655Z" fill="#b5df7b" stroke="#b5df7b" stroke-width="1.51"/><path d="M1528,399L1464,551L1613,535Z" fill="#c7e28c" stroke="#c7e28c" stroke-width="1.51"/><path d="M1464,551L1500,636L1613,535Z" fill="#c4e68e" stroke="#c4e68e" stroke-width="1.51"/><path d="M1482,1158L1451,1329L1582,1190Z" fill="#60b05a" stroke="#60b05a" stroke-width="1.51"/><path d="M1591,892L1468,951L1601,952Z" fill="#8ccd67" stroke="#8ccd67" stroke-width="1.51"/><path d="M1494,184L1381,271L1528,399Z" fill="#d2cf6e" stroke="#d2cf6e" stroke-width="1.51"/><path d="M1506,788L1468,951L1591,892Z" fill="#9ad369" stroke="#9ad369" stroke-width="1.51"/><path d="M-19,-185L99,-172L448,-194Z" fill="#d84331" stroke="#d84331" stroke-width="1.51"/><path d="M1468,951L1318,994L1482,1158Z" fill="#89cc68" stroke="#89cc68" stroke-width="1.51"/><path d="M1500,636L1348,716L1506,788Z" fill="#bde379" stroke="#bde379" stroke-width="1.51"/><path d="M1350,786L1468,951L1506,788Z" fill="#abdb6d" stroke="#abdb6d" stroke-width="1.51"/><path d="M1352,-26L1458,-12L1516,-223Z" fill="#cd9649" stroke="#cd9649" stroke-width="1.51"/><path d="M1369,-265L1352,-26L1516,-223Z" fill="#c68d48" stroke="#c68d48" stroke-width="1.51"/><path d="M1349,444L1464,551L1528,399Z" fill="#d2e589" stroke="#d2e589" stroke-width="1.51"/><path d="M1381,271L1349,444L1528,399Z" fill="#d5de7b" stroke="#d5de7b" stroke-width="1.51"/><path d="M1345,1166L1451,1329L1482,1158Z" fill="#6bb65c" stroke="#6bb65c" stroke-width="1.51"/><path d="M1318,994L1345,1166L1482,1158Z" fill="#82c566" stroke="#82c566" stroke-width="1.51"/><path d="M1482,42L1353,63L1494,184Z" fill="#d6b15a" stroke="#d6b15a" stroke-width="1.51"/><path d="M1348,716L1350,786L1506,788Z" fill="#bbe277" stroke="#bbe277" stroke-width="1.51"/><path d="M1280,1263L1226,1277L1451,1329Z" fill="#72b05e" stroke="#72b05e" stroke-width="1.51"/><path d="M1464,551L1318,591L1500,636Z" fill="#ceea8d" stroke="#ceea8d" stroke-width="1.51"/><path d="M1318,591L1348,716L1500,636Z" fill="#ccea87" stroke="#ccea87" stroke-width="1.51"/><path d="M1353,63L1381,271L1494,184Z" fill="#dac064" stroke="#dac064" stroke-width="1.51"/><path d="M1350,786L1318,994L1468,951Z" fill="#a5d96d" stroke="#a5d96d" stroke-width="1.51"/><path d="M1458,-12L1353,63L1482,42Z" fill="#d6a755" stroke="#d6a755" stroke-width="1.51"/><path d="M1345,1166L1280,1263L1451,1329Z" fill="#70b45e" stroke="#70b45e" stroke-width="1.51"/><path d="M1352,-26L1353,63L1458,-12Z" fill="#d9a556" stroke="#d9a556" stroke-width="1.51"/><path d="M1349,444L1318,591L1464,551Z" fill="#daee97" stroke="#daee97" stroke-width="1.51"/><path d="M1225,484L1318,591L1349,444Z" fill="#e2f099" stroke="#e2f099" stroke-width="1.51"/><path d="M1195,855L1318,994L1350,786Z" fill="#b5e074" stroke="#b5e074" stroke-width="1.51"/><path d="M1232,55L1181,203L1353,63Z" fill="#e8bb68" stroke="#e8bb68" stroke-width="1.51"/><path d="M1218,-68L1352,-26L1369,-265Z" fill="#d7964e" stroke="#d7964e" stroke-width="1.51"/><path d="M1155,-230L1218,-68L1369,-265Z" fill="#d39252" stroke="#d39252" stroke-width="1.51"/><path d="M1198,387L1349,444L1381,271Z" fill="#e1e282" stroke="#e1e282" stroke-width="1.51"/><path d="M1181,203L1198,387L1381,271Z" fill="#e8d87c" stroke="#e8d87c" stroke-width="1.51"/><path d="M1353,63L1181,203L1381,271Z" fill="#e4c56c" stroke="#e4c56c" stroke-width="1.51"/><path d="M448,-194L636,-194L837,-244Z" fill="#e07f4f" stroke="#e07f4f" stroke-width="1.51"/><path d="M1318,994L1164,1195L1345,1166Z" fill="#8bc96d" stroke="#8bc96d" stroke-width="1.51"/><path d="M1318,591L1131,648L1348,716Z" fill="#d8ef8f" stroke="#d8ef8f" stroke-width="1.51"/><path d="M1198,387L1225,484L1349,444Z" fill="#e6eb91" stroke="#e6eb91" stroke-width="1.51"/><path d="M1348,716L1195,855L1350,786Z" fill="#c2e57c" stroke="#c2e57c" stroke-width="1.51"/><path d="M1218,-68L1232,55L1352,-26Z" fill="#e3a75c" stroke="#e3a75c" stroke-width="1.51"/><path d="M1352,-26L1232,55L1353,63Z" fill="#e2ab5d" stroke="#e2ab5d" stroke-width="1.51"/><path d="M1131,648L1195,855L1348,716Z" fill="#d1ec86" stroke="#d1ec86" stroke-width="1.51"/><path d="M1164,1195L1280,1263L1345,1166Z" fill="#7fbf68" stroke="#7fbf68" stroke-width="1.51"/><path d="M1091,1026L1164,1195L1318,994Z" fill="#9cd376" stroke="#9cd376" stroke-width="1.51"/><path d="M1129,971L1091,1026L1318,994Z" fill="#aada7a" stroke="#aada7a" stroke-width="1.51"/><path d="M1195,855L1129,971L1318,994Z" fill="#b1de78" stroke="#b1de78" stroke-width="1.51"/><path d="M1225,484L1131,648L1318,591Z" fill="#e6f59e" stroke="#e6f59e" stroke-width="1.51"/><path d="M1164,1195L1226,1277L1280,1263Z" fill="#80bc68" stroke="#80bc68" stroke-width="1.51"/><path d="M1131,648L1037,723L1195,855Z" fill="#daef90" stroke="#daef90" stroke-width="1.51"/><path d="M1181,203L1051,256L1198,387Z" fill="#f2dc85" stroke="#f2dc85" stroke-width="1.51"/><path d="M1155,-230L1035,-58L1218,-68Z" fill="#e79c5d" stroke="#e79c5d" stroke-width="1.51"/><path d="M1026,484L1131,648L1225,484Z" fill="#f2faad" stroke="#f2faad" stroke-width="1.51"/><path d="M1001,54L1181,203L1232,55Z" fill="#f3be71" stroke="#f3be71" stroke-width="1.51"/><path d="M1218,-68L1035,-58L1232,55Z" fill="#eca963" stroke="#eca963" stroke-width="1.51"/><path d="M1035,-58L1001,54L1232,55Z" fill="#f4b06f" stroke="#f4b06f" stroke-width="1.51"/><path d="M1017,-159L1035,-58L1155,-230Z" fill="#e89b63" stroke="#e89b63" stroke-width="1.51"/><path d="M1198,387L1053,411L1225,484Z" fill="#f0ee98" stroke="#f0ee98" stroke-width="1.51"/><path d="M1164,1195L1016,1332L1226,1277Z" fill="#85bb6e" stroke="#85bb6e" stroke-width="1.51"/><path d="M1053,411L1026,484L1225,484Z" fill="#f4f3a3" stroke="#f4f3a3" stroke-width="1.51"/><path d="M837,-244L1017,-159L1155,-230Z" fill="#e2966a" stroke="#e2966a" stroke-width="1.51"/><path d="M1091,1026L1048,1187L1164,1195Z" fill="#99ce7b" stroke="#99ce7b" stroke-width="1.51"/><path d="M1048,1187L1016,1332L1164,1195Z" fill="#8dc276" stroke="#8dc276" stroke-width="1.51"/><path d="M1001,54L1051,256L1181,203Z" fill="#f8cc7f" stroke="#f8cc7f" stroke-width="1.51"/><path d="M1037,723L1013,808L1195,855Z" fill="#d5ed8f" stroke="#d5ed8f" stroke-width="1.51"/><path d="M1051,256L1053,411L1198,387Z" fill="#f4e893" stroke="#f4e893" stroke-width="1.51"/><path d="M1013,808L1129,971L1195,855Z" fill="#c5e784" stroke="#c5e784" stroke-width="1.51"/><path d="M1026,484L897,570L1037,723Z" fill="#f7fcb4" stroke="#f7fcb4" stroke-width="1.51"/><path d="M1013,808L1091,1026L1129,971Z" fill="#bee386" stroke="#bee386" stroke-width="1.51"/><path d="M1026,484L1037,723L1131,648Z" fill="#eef8a7" stroke="#eef8a7" stroke-width="1.51"/><path d="M894,1013L871,1116L1048,1187Z" fill="#a9d589" stroke="#a9d589" stroke-width="1.51"/><path d="M1051,256L930,278L1053,411Z" fill="#fce598" stroke="#fce598" stroke-width="1.51"/><path d="M894,1013L1048,1187L1091,1026Z" fill="#aad888" stroke="#aad888" stroke-width="1.51"/><path d="M1013,808L894,1013L1091,1026Z" fill="#c2e48e" stroke="#c2e48e" stroke-width="1.51"/><path d="M840,92L930,278L1001,54Z" fill="#ffc785" stroke="#ffc785" stroke-width="1.51"/><path d="M897,570L842,656L1037,723Z" fill="#f3f7aa" stroke="#f3f7aa" stroke-width="1.51"/><path d="M897,1322L1016,1332L1048,1187Z" fill="#90be7c" stroke="#90be7c" stroke-width="1.51"/><path d="M1001,54L930,278L1051,256Z" fill="#ffd38a" stroke="#ffd38a" stroke-width="1.51"/><path d="M868,423L1026,484L1053,411Z" fill="#fef5ac" stroke="#fef5ac" stroke-width="1.51"/><path d="M930,278L868,423L1053,411Z" fill="#ffeea3" stroke="#ffeea3" stroke-width="1.51"/><path d="M830,821L894,1013L1013,808Z" fill="#d1e88f" stroke="#d1e88f" stroke-width="1.51"/><path d="M871,1116L897,1322L1048,1187Z" fill="#98c983" stroke="#98c983" stroke-width="1.51"/><path d="M1017,-159L864,-7L1035,-58Z" fill="#f7a672" stroke="#f7a672" stroke-width="1.51"/><path d="M864,-7L1001,54L1035,-58Z" fill="#fdb179" stroke="#fdb179" stroke-width="1.51"/><path d="M842,656L1013,808L1037,723Z" fill="#e8f6a2" stroke="#e8f6a2" stroke-width="1.51"/><path d="M842,656L830,821L1013,808Z" fill="#e4ef99" stroke="#e4ef99" stroke-width="1.51"/><path d="M868,423L897,570L1026,484Z" fill="#fff8b4" stroke="#fff8b4" stroke-width="1.51"/><path d="M785,-194L864,-7L1017,-159Z" fill="#f39b67" stroke="#f39b67" stroke-width="1.51"/><path d="M837,-244L785,-194L1017,-159Z" fill="#e79366" stroke="#e79366" stroke-width="1.51"/><path d="M864,-7L840,92L1001,54Z" fill="#ffb579" stroke="#ffb579" stroke-width="1.51"/><path d="M561,1261L407,1286L695,1288Z" fill="#98a258" stroke="#98a258" stroke-width="1.51"/><path d="M830,821L749,990L894,1013Z" fill="#c6de84" stroke="#c6de84" stroke-width="1.51"/><path d="M871,1116L768,1152L897,1322Z" fill="#9bc57a" stroke="#9bc57a" stroke-width="1.51"/><path d="M840,92L735,235L930,278Z" fill="#ffcd81" stroke="#ffcd81" stroke-width="1.51"/><path d="M735,235L785,349L930,278Z" fill="#ffd98a" stroke="#ffd98a" stroke-width="1.51"/><path d="M785,349L868,423L930,278Z" fill="#ffe597" stroke="#ffe597" stroke-width="1.51"/><path d="M749,990L871,1116L894,1013Z" fill="#b5d683" stroke="#b5d683" stroke-width="1.51"/><path d="M768,1152L695,1288L897,1322Z" fill="#97b96f" stroke="#97b96f" stroke-width="1.51"/><path d="M868,423L717,544L897,570Z" fill="#fff4ac" stroke="#fff4ac" stroke-width="1.51"/><path d="M717,544L842,656L897,570Z" fill="#faf4a7" stroke="#faf4a7" stroke-width="1.51"/><path d="M785,-194L679,-55L864,-7Z" fill="#f4995f" stroke="#f4995f" stroke-width="1.51"/><path d="M714,714L830,821L842,656Z" fill="#e8eb91" stroke="#e8eb91" stroke-width="1.51"/><path d="M743,59L840,92L864,-7Z" fill="#feaf71" stroke="#feaf71" stroke-width="1.51"/><path d="M785,349L717,544L868,423Z" fill="#ffea9c" stroke="#ffea9c" stroke-width="1.51"/><path d="M749,990L768,1152L871,1116Z" fill="#aece7b" stroke="#aece7b" stroke-width="1.51"/><path d="M679,-55L743,59L864,-7Z" fill="#faa466" stroke="#faa466" stroke-width="1.51"/><path d="M99,-172L312,-161L448,-194Z" fill="#de5337" stroke="#de5337" stroke-width="1.51"/><path d="M699,821L749,990L830,821Z" fill="#d2df7e" stroke="#d2df7e" stroke-width="1.51"/><path d="M714,714L699,821L830,821Z" fill="#e0e486" stroke="#e0e486" stroke-width="1.51"/><path d="M636,-194L785,-194L837,-244Z" fill="#e28959" stroke="#e28959" stroke-width="1.51"/><path d="M743,59L735,235L840,92Z" fill="#febc73" stroke="#febc73" stroke-width="1.51"/><path d="M717,544L714,714L842,656Z" fill="#f4ee99" stroke="#f4ee99" stroke-width="1.51"/><path d="M636,-194L630,-93L679,-55Z" fill="#ef8951" stroke="#ef8951" stroke-width="1.51"/><path d="M634,240L735,235L743,59Z" fill="#fec071" stroke="#fec071" stroke-width="1.51"/><path d="M749,990L627,1137L768,1152Z" fill="#adc972" stroke="#adc972" stroke-width="1.51"/><path d="M584,392L717,544L785,349Z" fill="#ffe291" stroke="#ffe291" stroke-width="1.51"/><path d="M735,235L634,240L785,349Z" fill="#fed17e" stroke="#fed17e" stroke-width="1.51"/><path d="M634,240L584,392L785,349Z" fill="#fed480" stroke="#fed480" stroke-width="1.51"/><path d="M636,-194L679,-55L785,-194Z" fill="#eb8c54" stroke="#eb8c54" stroke-width="1.51"/><path d="M562,129L634,240L743,59Z" fill="#fdb369" stroke="#fdb369" stroke-width="1.51"/><path d="M627,1137L695,1288L768,1152Z" fill="#9ebc6b" stroke="#9ebc6b" stroke-width="1.51"/><path d="M576,560L714,714L717,544Z" fill="#f8e796" stroke="#f8e796" stroke-width="1.51"/><path d="M699,821L551,994L749,990Z" fill="#c9d374" stroke="#c9d374" stroke-width="1.51"/><path d="M551,994L627,1137L749,990Z" fill="#b7c86f" stroke="#b7c86f" stroke-width="1.51"/><path d="M679,-55L562,129L743,59Z" fill="#fca261" stroke="#fca261" stroke-width="1.51"/><path d="M576,560L575,730L714,714Z" fill="#f1e088" stroke="#f1e088" stroke-width="1.51"/><path d="M584,392L576,560L717,544Z" fill="#ffe196" stroke="#ffe196" stroke-width="1.51"/><path d="M627,1137L561,1261L695,1288Z" fill="#9bb063" stroke="#9bb063" stroke-width="1.51"/><path d="M585,791L551,994L699,821Z" fill="#d5d371" stroke="#d5d371" stroke-width="1.51"/><path d="M585,791L699,821L714,714Z" fill="#e2de7f" stroke="#e2de7f" stroke-width="1.51"/><path d="M575,730L585,791L714,714Z" fill="#e7dc7e" stroke="#e7dc7e" stroke-width="1.51"/><path d="M630,-93L477,-20L679,-55Z" fill="#f38c52" stroke="#f38c52" stroke-width="1.51"/><path d="M477,-20L562,129L679,-55Z" fill="#f89457" stroke="#f89457" stroke-width="1.51"/><path d="M441,248L584,392L634,240Z" fill="#fec272" stroke="#fec272" stroke-width="1.51"/><path d="M448,-194L630,-93L636,-194Z" fill="#e87c4a" stroke="#e87c4a" stroke-width="1.51"/><path d="M551,994L481,1006L627,1137Z" fill="#b8be68" stroke="#b8be68" stroke-width="1.51"/><path d="M562,129L441,248L634,240Z" fill="#feb466" stroke="#feb466" stroke-width="1.51"/><path d="M448,-194L477,-20L630,-93Z" fill="#ee7d48" stroke="#ee7d48" stroke-width="1.51"/><path d="M388,1174L561,1261L627,1137Z" fill="#a2ac5d" stroke="#a2ac5d" stroke-width="1.51"/><path d="M481,1006L388,1174L627,1137Z" fill="#afb25f" stroke="#afb25f" stroke-width="1.51"/><path d="M414,578L380,741L575,730Z" fill="#f0cd78" stroke="#f0cd78" stroke-width="1.51"/><path d="M380,741L383,820L575,730Z" fill="#e5c76e" stroke="#e5c76e" stroke-width="1.51"/><path d="M414,578L575,730L576,560Z" fill="#f7d786" stroke="#f7d786" stroke-width="1.51"/><path d="M441,248L382,362L584,392Z" fill="#fec070" stroke="#fec070" stroke-width="1.51"/><path d="M414,578L576,560L584,392Z" fill="#ffd88f" stroke="#ffd88f" stroke-width="1.51"/><path d="M382,362L414,578L584,392Z" fill="#ffcb7f" stroke="#ffcb7f" stroke-width="1.51"/><path d="M481,1006L551,994L585,791Z" fill="#ccc669" stroke="#ccc669" stroke-width="1.51"/><path d="M383,820L481,1006L585,791Z" fill="#d5c666" stroke="#d5c666" stroke-width="1.51"/><path d="M575,730L383,820L585,791Z" fill="#e3ce71" stroke="#e3ce71" stroke-width="1.51"/><path d="M477,-20L398,119L562,129Z" fill="#fa9554" stroke="#fa9554" stroke-width="1.51"/><path d="M388,1174L407,1286L561,1261Z" fill="#9d9d53" stroke="#9d9d53" stroke-width="1.51"/><path d="M398,119L441,248L562,129Z" fill="#fca45c" stroke="#fca45c" stroke-width="1.51"/><path d="M302,1256L123,1345L407,1286Z" fill="#998144" stroke="#998144" stroke-width="1.51"/><path d="M298,-33L398,119L477,-20Z" fill="#f57f4a" stroke="#f57f4a" stroke-width="1.51"/><path d="M448,-194L312,-161L477,-20Z" fill="#e96c3e" stroke="#e96c3e" stroke-width="1.51"/><path d="M312,-161L298,-33L477,-20Z" fill="#ed6c40" stroke="#ed6c40" stroke-width="1.51"/><path d="M383,820L293,829L481,1006Z" fill="#d4b95f" stroke="#d4b95f" stroke-width="1.51"/><path d="M293,829L239,1039L481,1006Z" fill="#c8ae5a" stroke="#c8ae5a" stroke-width="1.51"/><path d="M239,1039L388,1174L481,1006Z" fill="#b6a759" stroke="#b6a759" stroke-width="1.51"/><path d="M250,391L228,518L382,362Z" fill="#feb370" stroke="#feb370" stroke-width="1.51"/><path d="M298,-33L303,99L398,119Z" fill="#f77e4a" stroke="#f77e4a" stroke-width="1.51"/><path d="M382,362L228,518L414,578Z" fill="#ffc07d" stroke="#ffc07d" stroke-width="1.51"/><path d="M398,119L329,232L441,248Z" fill="#fca05a" stroke="#fca05a" stroke-width="1.51"/><path d="M329,232L382,362L441,248Z" fill="#fdad64" stroke="#fdad64" stroke-width="1.51"/><path d="M239,1039L238,1120L388,1174Z" fill="#b09a51" stroke="#b09a51" stroke-width="1.51"/><path d="M313,739L380,741L414,578Z" fill="#f0c371" stroke="#f0c371" stroke-width="1.51"/><path d="M388,1174L302,1256L407,1286Z" fill="#9e934e" stroke="#9e934e" stroke-width="1.51"/><path d="M228,518L313,739L414,578Z" fill="#f9bf79" stroke="#f9bf79" stroke-width="1.51"/><path d="M303,99L329,232L398,119Z" fill="#fa9153" stroke="#fa9153" stroke-width="1.51"/><path d="M380,741L313,739L383,820Z" fill="#e5bd67" stroke="#e5bd67" stroke-width="1.51"/><path d="M329,232L250,391L382,362Z" fill="#fdac65" stroke="#fdac65" stroke-width="1.51"/><path d="M313,739L293,829L383,820Z" fill="#e1b763" stroke="#e1b763" stroke-width="1.51"/><path d="M238,1120L302,1256L388,1174Z" fill="#a5954e" stroke="#a5954e" stroke-width="1.51"/><path d="M25,1324L-129,1342L123,1345Z" fill="#8b6231" stroke="#8b6231" stroke-width="1.51"/><path d="M97,564L79,717L228,518Z" fill="#f5ab6f" stroke="#f5ab6f" stroke-width="1.51"/><path d="M137,982L239,1039L293,829Z" fill="#c8a153" stroke="#c8a153" stroke-width="1.51"/><path d="M139,865L137,982L293,829Z" fill="#d0a252" stroke="#d0a252" stroke-width="1.51"/><path d="M298,-33L171,49L303,99Z" fill="#f46f43" stroke="#f46f43" stroke-width="1.51"/><path d="M138,-83L298,-33L312,-161Z" fill="#e85837" stroke="#e85837" stroke-width="1.51"/><path d="M228,518L79,717L313,739Z" fill="#f1b16b" stroke="#f1b16b" stroke-width="1.51"/><path d="M303,99L187,212L329,232Z" fill="#f98e51" stroke="#f98e51" stroke-width="1.51"/><path d="M187,212L250,391L329,232Z" fill="#fb9c5b" stroke="#fb9c5b" stroke-width="1.51"/><path d="M139,865L293,829L313,739Z" fill="#dead5c" stroke="#dead5c" stroke-width="1.51"/><path d="M79,717L139,865L313,739Z" fill="#e1a85a" stroke="#e1a85a" stroke-width="1.51"/><path d="M99,-172L138,-83L312,-161Z" fill="#df4831" stroke="#df4831" stroke-width="1.51"/><path d="M238,1120L98,1140L302,1256Z" fill="#a58c49" stroke="#a58c49" stroke-width="1.51"/><path d="M98,1140L123,1345L302,1256Z" fill="#9b7e41" stroke="#9b7e41" stroke-width="1.51"/><path d="M171,49L187,212L303,99Z" fill="#f67b48" stroke="#f67b48" stroke-width="1.51"/><path d="M187,212L115,337L250,391Z" fill="#f8995a" stroke="#f8995a" stroke-width="1.51"/><path d="M138,-83L171,49L298,-33Z" fill="#ec5e3a" stroke="#ec5e3a" stroke-width="1.51"/><path d="M115,337L228,518L250,391Z" fill="#fba869" stroke="#fba869" stroke-width="1.51"/><path d="M115,337L97,564L228,518Z" fill="#faa86f" stroke="#faa86f" stroke-width="1.51"/><path d="M98,1140L238,1120L239,1039Z" fill="#af914b" stroke="#af914b" stroke-width="1.51"/><path d="M137,982L98,1140L239,1039Z" fill="#b5934c" stroke="#b5934c" stroke-width="1.51"/><path d="M-19,430L97,564L115,337Z" fill="#f59d65" stroke="#f59d65" stroke-width="1.51"/><path d="M98,1140L25,1324L123,1345Z" fill="#94723a" stroke="#94723a" stroke-width="1.51"/><path d="M-71,89L30,251L171,49Z" fill="#eb6a3e" stroke="#eb6a3e" stroke-width="1.51"/><path d="M171,49L30,251L187,212Z" fill="#f27b48" stroke="#f27b48" stroke-width="1.51"/><path d="M30,251L115,337L187,212Z" fill="#f48a50" stroke="#f48a50" stroke-width="1.51"/><path d="M138,-83L-18,-108L171,49Z" fill="#e44d32" stroke="#e44d32" stroke-width="1.51"/><path d="M-18,-108L-71,89L171,49Z" fill="#e44f33" stroke="#e44f33" stroke-width="1.51"/><path d="M-18,1165L25,1324L98,1140Z" fill="#99773b" stroke="#99773b" stroke-width="1.51"/><path d="M-42,1010L98,1140L137,982Z" fill="#b38b46" stroke="#b38b46" stroke-width="1.51"/><path d="M99,-172L-18,-108L138,-83Z" fill="#dc3b2b" stroke="#dc3b2b" stroke-width="1.51"/><path d="M79,717L-46,800L139,865Z" fill="#d89b51" stroke="#d89b51" stroke-width="1.51"/><path d="M-42,1010L137,982L139,865Z" fill="#c2934a" stroke="#c2934a" stroke-width="1.51"/><path d="M-46,800L-42,1010L139,865Z" fill="#c89147" stroke="#c89147" stroke-width="1.51"/><path d="M-13,581L79,717L97,564Z" fill="#eea266" stroke="#eea266" stroke-width="1.51"/><path d="M-19,430L-13,581L97,564Z" fill="#f5a16e" stroke="#f5a16e" stroke-width="1.51"/><path d="M-42,1010L-18,1165L98,1140Z" fill="#a78040" stroke="#a78040" stroke-width="1.51"/><path d="M30,251L-19,430L115,337Z" fill="#f18f55" stroke="#f18f55" stroke-width="1.51"/><path d="M-13,581L-67,653L79,717Z" fill="#e89c5e" stroke="#e89c5e" stroke-width="1.51"/><path d="M-19,-185L-18,-108L99,-172Z" fill="#d33028" stroke="#d33028" stroke-width="1.51"/><path d="M-67,653L-46,800L79,717Z" fill="#de9854" stroke="#de9854" stroke-width="1.51"/><path d="M-46,800L-184,874L-42,1010Z" fill="#bd8a46" stroke="#bd8a46" stroke-width="1.51"/><path d="M-18,1165L-139,1193L25,1324Z" fill="#916e38" stroke="#916e38" stroke-width="1.51"/><path d="M-139,1193L-129,1342L25,1324Z" fill="#876334" stroke="#876334" stroke-width="1.51"/><path d="M-71,89L-178,192L30,251Z" fill="#e36a40" stroke="#e36a40" stroke-width="1.51"/><path d="M-178,192L-116,360L30,251Z" fill="#e47a49" stroke="#e47a49" stroke-width="1.51"/><path d="M-116,360L-19,430L30,251Z" fill="#ec8a53" stroke="#ec8a53" stroke-width="1.51"/><path d="M-184,874L-165,1007L-42,1010Z" fill="#af8244" stroke="#af8244" stroke-width="1.51"/><path d="M-165,1007L-139,1193L-42,1010Z" fill="#a07b41" stroke="#a07b41" stroke-width="1.51"/><path d="M-116,360L-212,531L-19,430Z" fill="#e68f60" stroke="#e68f60" stroke-width="1.51"/><path d="M-198,-58L-71,89L-18,-108Z" fill="#d53d2f" stroke="#d53d2f" stroke-width="1.51"/><path d="M-19,-185L-197,-202L-18,-108Z" fill="#c82527" stroke="#c82527" stroke-width="1.51"/><path d="M-42,1010L-139,1193L-18,1165Z" fill="#9d793e" stroke="#9d793e" stroke-width="1.51"/><path d="M-170,646L-67,653L-13,581Z" fill="#e19762" stroke="#e19762" stroke-width="1.51"/><path d="M-212,531L-170,646L-13,581Z" fill="#e19567" stroke="#e19567" stroke-width="1.51"/><path d="M-19,430L-212,531L-13,581Z" fill="#eb986b" stroke="#eb986b" stroke-width="1.51"/><path d="M-197,-202L-198,-58L-18,-108Z" fill="#c82527" stroke="#c82527" stroke-width="1.51"/><path d="M-67,653L-170,646L-46,800Z" fill="#d89457" stroke="#d89457" stroke-width="1.51"/><path d="M-170,646L-184,874L-46,800Z" fill="#ca8e4f" stroke="#ca8e4f" stroke-width="1.51"/><path d="M-204,137L-178,192L-71,89Z" fill="#d95d3d" stroke="#d95d3d" stroke-width="1.51"/><path d="M-198,-58L-204,137L-71,89Z" fill="#d64a36" stroke="#d64a36" stroke-width="1.51"/><path d="M-165,1007L-184,874L-129,1342Z" fill="#9b7740" stroke="#9b7740" stroke-width="1.51"/><path d="M-178,192L-212,531L-116,360Z" fill="#de8354" stroke="#de8354" stroke-width="1.51"/><path d="M-139,1193L-165,1007L-129,1342Z" fill="#8d6e3b" stroke="#8d6e3b" stroke-width="1.51"/><path d="M-204,137L-212,531L-178,192Z" fill="#d9754b" stroke="#d9754b" stroke-width="1.51"/><path d="M-212,531L-184,874L-170,646Z" fill="#d08e58" stroke="#d08e58" stroke-width="1.51"/><path d="M-204,137L-198,-58L-197,-202Z" fill="#c9332d" stroke="#c9332d" stroke-width="1.51"/></svg>