<svg xmlns="http://www.w3.org/2000/svg" width="1920" height="1080"><path d="M-197,-202L-19,-185L448,-194Z" fill="#f2f0f6" stroke="#f2f0f6" stroke-width="1.51"/><path d="M-197,-202L448,-194L837,-244Z" fill="#e8e8f2" stroke="#e8e8f2" stroke-width="1.51"/><path d="M897,1322L123,1345L1016,1332Z" fill="#8164ad" stroke="#8164ad" stroke-width="1.51"/><path d="M837,-244L1155,-230L1369,-265Z" fill="#c4c0de" stroke="#c4c0de" stroke-width="1.51"/><path d="M1016,1332L123,1345L1668,1345Z" fill="#7456a4" stroke="#7456a4" stroke-width="1.51"/><path d="M1451,1329L1016,1332L1668,1345Z" fill="#5f3f98" stroke="#5f3f98" stroke-width="1.51"/><path d="M1654,-192L1821,-173L1911,-185Z" fill="#a98fc6" stroke="#a98fc6" stroke-width="1.51"/><path d="M1654,-192L1911,-185L2060,-232Z" fill="#a78ac4" stroke="#a78ac4" stroke-width="1.51"/><path d="M1516,-223L1654,-192L2060,-232Z" fill="#ac93c9" stroke="#ac93c9" stroke-width="1.51"/><path d="M1369,-265L1516,-223L2060,-232Z" fill="#af9bcc" stroke="#af9bcc" stroke-width="1.51"/><path d="M1966,836L2063,873L2076,642Z" fill="#64479d" stroke="#64479d" stroke-width="1.51"/><path d="M1952,652L1966,836L2076,642Z" fill="#6a4fa1" stroke="#6a4fa1" stroke-width="1.51"/><path d="M2070,987L1968,1181L2098,1144Z" fill="#51248c" stroke="#51248c" stroke-width="1.51"/><path d="M2076,642L2063,873L2098,1144Z" fill="#5c3a96" stroke="#5c3a96" stroke-width="1.51"/><path d="M2063,873L2070,987L2098,1144Z" fill="#562d90" stroke="#562d90" stroke-width="1.51"/><path d="M2047,56L1886,188L2100,282Z" fill="#9174b7" stroke="#9174b7" stroke-width="1.51"/><path d="M2079,-104L2047,56L2100,282Z" fill="#9576b7" stroke="#9576b7" stroke-width="1.51"/><path d="M2100,282L1956,361L2118,381Z" fill="#8467af" stroke="#8467af" stroke-width="1.51"/><path d="M1956,361L2053,487L2118,381Z" fill="#7f62ac" stroke="#7f62ac" stroke-width="1.51"/><path d="M2053,487L2076,642L2118,381Z" fill="#7759a7" stroke="#7759a7" stroke-width="1.51"/><path d="M2076,642L2098,1144L2118,381Z" fill="#66499e" stroke="#66499e" stroke-width="1.51"/><path d="M2079,-104L2100,282L2118,381Z" fill="#8d6fb4" stroke="#8d6fb4" stroke-width="1.51"/><path d="M2098,1144L1968,1181L2118,1295Z" fill="#4b1987" stroke="#4b1987" stroke-width="1.51"/><path d="M1968,1181L1940,1323L2118,1295Z" fill="#4a1786" stroke="#4a1786" stroke-width="1.51"/><path d="M2118,381L2098,1144L2118,1295Z" fill="#583392" stroke="#583392" stroke-width="1.51"/><path d="M1907,1007L1968,1181L2070,987Z" fill="#562c90" stroke="#562c90" stroke-width="1.51"/><path d="M2053,487L1915,557L2076,642Z" fill="#7458a6" stroke="#7458a6" stroke-width="1.51"/><path d="M1915,557L1952,652L2076,642Z" fill="#7256a5" stroke="#7256a5" stroke-width="1.51"/><path d="M1909,-80L2047,56L2079,-104Z" fill="#9d7ebc" stroke="#9d7ebc" stroke-width="1.51"/><path d="M1886,188L1956,361L2100,282Z" fill="#8b6fb4" stroke="#8b6fb4" stroke-width="1.51"/><path d="M1909,-80L1935,50L2047,56Z" fill="#9c7ebd" stroke="#9c7ebd" stroke-width="1.51"/><path d="M1935,50L1886,188L2047,56Z" fill="#987bba" stroke="#987bba" stroke-width="1.51"/><path d="M2063,873L1966,836L2070,987Z" fill="#5d3a97" stroke="#5d3a97" stroke-width="1.51"/><path d="M1966,836L1907,1007L2070,987Z" fill="#5c3896" stroke="#5c3896" stroke-width="1.51"/><path d="M2060,-232L1911,-185L2079,-104Z" fill="#a282bf" stroke="#a282bf" stroke-width="1.51"/><path d="M1911,-185L1909,-80L2079,-104Z" fill="#a283c0" stroke="#a283c0" stroke-width="1.51"/><path d="M1956,361L1915,557L2053,487Z" fill="#7c61ab" stroke="#7c61ab" stroke-width="1.51"/><path d="M695,1288L123,1345L897,1322Z" fill="#886ab0" stroke="#886ab0" stroke-width="1.51"/><path d="M1830,1272L1668,1345L1940,1323Z" fill="#4e1f89" stroke="#4e1f89" stroke-width="1.51"/><path d="M1752,659L1839,888L1952,652Z" fill="#6d55a6" stroke="#6d55a6" stroke-width="1.51"/><path d="M1886,188L1729,274L1956,361Z" fill="#8f75b8" stroke="#8f75b8" stroke-width="1.51"/><path d="M1794,422L1915,557L1956,361Z" fill="#8167af" stroke="#8167af" stroke-width="1.51"/><path d="M1952,652L1839,888L1966,836Z" fill="#674ba0" stroke="#674ba0" stroke-width="1.51"/><path d="M1839,888L1907,1007L1966,836Z" fill="#613f9a" stroke="#613f9a" stroke-width="1.51"/><path d="M1907,1007L1835,1137L1968,1181Z" fill="#562b90" stroke="#562b90" stroke-width="1.51"/><path d="M1830,1272L1940,1323L1968,1181Z" fill="#4d1d89" stroke="#4d1d89" stroke-width="1.51"/><path d="M1835,1137L1830,1272L1968,1181Z" fill="#52238d" stroke="#52238d" stroke-width="1.51"/><path d="M1729,274L1794,422L1956,361Z" fill="#8a72b6" stroke="#8a72b6" stroke-width="1.51"/><path d="M1915,557L1752,659L1952,652Z" fill="#745aa8" stroke="#745aa8" stroke-width="1.51"/><path d="M1794,422L1776,529L1915,557Z" fill="#7e66af" stroke="#7e66af" stroke-width="1.51"/><path d="M1746,43L1886,188L1935,50Z" fill="#9b80be" stroke="#9b80be" stroke-width="1.51"/><path d="M1909,-80L1772,-42L1935,50Z" fill="#a084c0" stroke="#a084c0" stroke-width="1.51"/><path d="M1821,-173L1909,-80L1911,-185Z" fill="#a588c3" stroke="#a588c3" stroke-width="1.51"/><path d="M1772,-42L1746,43L1935,50Z" fill="#a086c1" stroke="#a086c1" stroke-width="1.51"/><path d="M1839,888L1762,989L1907,1007Z" fill="#603d9a" stroke="#603d9a" stroke-width="1.51"/><path d="M1762,989L1835,1137L1907,1007Z" fill="#5c3596" stroke="#5c3596" stroke-width="1.51"/><path d="M1776,529L1752,659L1915,557Z" fill="#7a61ac" stroke="#7a61ac" stroke-width="1.51"/><path d="M1821,-173L1772,-42L1909,-80Z" fill="#a589c4" stroke="#a589c4" stroke-width="1.51"/><path d="M407,1286L123,1345L695,1288Z" fill="#9072b5" stroke="#9072b5" stroke-width="1.51"/><path d="M1746,43L1729,274L1886,188Z" fill="#9981be" stroke="#9981be" stroke-width="1.51"/><path d="M1664,231L1729,274L1746,43Z" fill="#9a85c0" stroke="#9a85c0" stroke-width="1.51"/><path d="M1582,1190L1668,1345L1830,1272Z" fill="#552b8f" stroke="#552b8f" stroke-width="1.51"/><path d="M1582,1190L1830,1272L1835,1137Z" fill="#572c90" stroke="#572c90" stroke-width="1.51"/><path d="M1591,892L1762,989L1839,888Z" fill="#66499f" stroke="#66499f" stroke-width="1.51"/><path d="M1752,659L1591,892L1839,888Z" fill="#6c55a5" stroke="#6c55a5" stroke-width="1.51"/><path d="M1762,989L1582,1190L1835,1137Z" fill="#5c3696" stroke="#5c3696" stroke-width="1.51"/><path d="M1654,-192L1772,-42L1821,-173Z" fill="#a991c7" stroke="#a991c7" stroke-width="1.51"/><path d="M1729,274L1687,411L1794,422Z" fill="#8b77b8" stroke="#8b77b8" stroke-width="1.51"/><path d="M1601,655L1591,892L1752,659Z" fill="#7462ac" stroke="#7462ac" stroke-width="1.51"/><path d="M1591,892L1601,952L1762,989Z" fill="#684ca1" stroke="#684ca1" stroke-width="1.51"/><path d="M1654,-192L1633,-69L1772,-42Z" fill="#aa94c9" stroke="#aa94c9" stroke-width="1.51"/><path d="M1687,411L1776,529L1794,422Z" fill="#856fb3" stroke="#856fb3" stroke-width="1.51"/><path d="M1593,44L1664,231L1746,43Z" fill="#a08cc4" stroke="#a08cc4" stroke-width="1.51"/><path d="M1601,952L1582,1190L1762,989Z" fill="#63429b" stroke="#63429b" stroke-width="1.51"/><path d="M1613,535L1752,659L1776,529Z" fill="#7d68b0" stroke="#7d68b0" stroke-width="1.51"/><path d="M1687,411L1613,535L1776,529Z" fill="#8470b4" stroke="#8470b4" stroke-width="1.51"/><path d="M1633,-69L1746,43L1772,-42Z" fill="#a58fc6" stroke="#a58fc6" stroke-width="1.51"/><path d="M1613,535L1601,655L1752,659Z" fill="#7c69b0" stroke="#7c69b0" stroke-width="1.51"/><path d="M1633,-69L1593,44L1746,43Z" fill="#a692c7" stroke="#a692c7" stroke-width="1.51"/><path d="M1506,788L1591,892L1601,655Z" fill="#7463ad" stroke="#7463ad" stroke-width="1.51"/><path d="M1664,231L1687,411L1729,274Z" fill="#927ebc" stroke="#927ebc" stroke-width="1.51"/><path d="M1226,1277L1016,1332L1451,1329Z" fill="#664a9e" stroke="#664a9e" stroke-width="1.51"/><path d="M1482,1158L1582,1190L1601,952Z" fill="#63439c" stroke="#63439c" stroke-width="1.51"/><path d="M1593,44L1494,184L1664,231Z" fill="#a090c5" stroke="#a090c5" stroke-width="1.51"/><path d="M1664,231L1528,399L1687,411Z" fill="#9180bd" stroke="#9180bd" stroke-width="1.51"/><path d="M1528,399L1613,535L1687,411Z" fill="#8a79b9" stroke="#8a79b9" stroke-width="1.51"/><path d="M1494,184L1528,399L1664,231Z" fill="#988ac2" stroke="#988ac2" stroke-width="1.51"/><path d="M1582,1190L1451,1329L1668,1345Z" fill="#593393" stroke="#593393" stroke-width="1.51"/><path d="M1516,-223L1633,-69L1654,-192Z" fill="#ae9ccc" stroke="#ae9ccc" stroke-width="1.51"/><path d="M1468,951L1482,1158L1601,952Z" fill="#684ea1" stroke="#684ea1" stroke-width="1.51"/><path d="M1500,636L1601,655L1613,535Z" fill="#7f6fb3" stroke="#7f6fb3" stroke-width="1.51"/><path d="M1458,-12L1593,44L1633,-69Z" fill="#aa99cb" stroke="#aa99cb" stroke-width="1.51"/><path d="M1516,-223L1458,-12L1633,-69Z" fill="#af9fce" stroke="#af9fce" stroke-width="1.51"/><path d="M1458,-12L1482,42L1593,44Z" fill="#aa9bcc" stroke="#aa9bcc" stroke-width="1.51"/><path d="M1482,42L1494,184L1593,44Z" fill="#a697ca" stroke="#a697ca" stroke-width="1.51"/><path d="M1500,636L1506,788L1601,655Z" fill="#7a6cb1" stroke="#7a6cb1" stroke-width="1.51"/><path d="M1528,399L1464,551L1613,535Z" fill="#897bb9" stroke="#897bb9" stroke-width="1.51"/><path d="M1464,551L1500,636L1613,535Z" fill="#8375b6" stroke="#8375b6" stroke-width="1.51"/><path d="M1482,1158L1451,1329L1582,1190Z" fill="#5e3c98" stroke="#5e3c98" stroke-width="1.51"/><path d="M1591,892L1468,951L1601,952Z" fill="#6c54a5" stroke="#6c54a5" stroke-width="1.51"/><path d="M1494,184L1381,271L1528,399Z" fill="#9a90c5" stroke="#9a90c5" stroke-width="1.51"/><path d="M1506,788L1468,951L1591,892Z" fill="#705ca9" stroke="#705ca9" stroke-width="1.51"/><path d="M-19,-185L99,-172L448,-194Z" fill="#eeedf5" stroke="#eeedf5" stroke-width="1.51"/><path d="M1468,951L1318,994L1482,1158Z" fill="#6b53a4" stroke="#6b53a4" stroke-width="1.51"/><path d="M1500,636L1348,716L1506,788Z" fill="#7c71b4" stroke="#7c71b4" stroke-width="1.51"/><path d="M1350,786L1468,951L1506,788Z" fill="#7566ae" stroke="#7566ae" stroke-width="1.51"/><path d="M1352,-26L1458,-12L1516,-223Z" fill="#b2a6d1" stroke="#b2a6d1" stroke-width="1.51"/><path d="M1369,-265L1352,-26L1516,-223Z" fill="#b5abd3" stroke="#b5abd3" stroke-width="1.51"/><path d="M1349,444L1464,551L1528,399Z" fill="#8e84be" stroke="#8e84be" stroke-width="1.51"/><path d="M1381,271L1349,444L1528,399Z" fill="#968ec3" stroke="#968ec3" stroke-width="1.51"/><path d="M1345,1166L1451,1329L1482,1158Z" fill="#62439b" stroke="#62439b" stroke-width="1.51"/><path d="M1318,994L1345,1166L1482,1158Z" fill="#694fa2" stroke="#694fa2" stroke-width="1.51"/><path d="M1482,42L1353,63L1494,184Z" fill="#a89ecd" stroke="#a89ecd" stroke-width="1.51"/><path d="M1348,716L1350,786L1506,788Z" fill="#7a70b3" stroke="#7a70b3" stroke-width="1.51"/><path d="M1280,1263L1226,1277L1451,1329Z" fill="#63469c" stroke="#63469c" stroke-width="1.51"/><path d="M1464,551L1318,591L1500,636Z" fill="#857bb9" stroke="#857bb9" stroke-width="1.51"/><path d="M1318,591L1348,716L1500,636Z" fill="#837ab9" stroke="#837ab9" stroke-width="1.51"/><path d="M1353,63L1381,271L1494,184Z" fill="#a49ccc" stroke="#a49ccc" stroke-width="1.51"/><path d="M1350,786L1318,994L1468,951Z" fill="#7463ad" stroke="#7463ad" stroke-width="1.51"/><path d="M1458,-12L1353,63L1482,42Z" fill="#aca1cf" stroke="#aca1cf" stroke-width="1.51"/><path d="M1345,1166L1280,1263L1451,1329Z" fill="#63459c" stroke="#63459c" stroke-width="1.51"/><path d="M1352,-26L1353,63L1458,-12Z" fill="#afa6d1" stroke="#afa6d1" stroke-width="1.51"/><path d="M1349,444L1318,591L1464,551Z" fill="#8c84bd" stroke="#8c84bd" stroke-width="1.51"/><path d="M1225,484L1318,591L1349,444Z" fill="#908bc1" stroke="#908bc1" stroke-width="1.51"/><path d="M1195,855L1318,994L1350,786Z" fill="#786db1" stroke="#786db1" stroke-width="1.51"/><path d="M1232,55L1181,203L1353,63Z" fill="#aeabd3" stroke="#aeabd3" stroke-width="1.51"/><path d="M1218,-68L1352,-26L1369,-265Z" fill="#b7b1d7" stroke="#b7b1d7" stroke-width="1.51"/><path d="M1155,-230L1218,-68L1369,-265Z" fill="#bcb7da" stroke="#bcb7da" stroke-width="1.51"/><path d="M1198,387L1349,444L1381,271Z" fill="#9a96c7" stroke="#9a96c7" stroke-width="1.51"/><path d="M1181,203L1198,387L1381,271Z" fill="#a2a0cd" stroke="#a2a0cd" stroke-width="1.51"/><path d="M1353,63L1181,203L1381,271Z" fill="#a8a3cf" stroke="#a8a3cf" stroke-width="1.51"/><path d="M448,-194L636,-194L837,-244Z" fill="#dadaeb" stroke="#dadaeb" stroke-width="1.51"/><path d="M1318,994L1164,1195L1345,1166Z" fill="#6d56a6" stroke="#6d56a6" stroke-width="1.51"/><path d="M1318,591L1131,648L1348,716Z" fill="#8783bd" stroke="#8783bd" stroke-width="1.51"/><path d="M1198,387L1225,484L1349,444Z" fill="#9794c6" stroke="#9794c6" stroke-width="1.51"/><path d="M1348,716L1195,855L1350,786Z" fill="#7d76b7" stroke="#7d76b7" stroke-width="1.51"/><path d="M1218,-68L1232,55L1352,-26Z" fill="#b4b0d5" stroke="#b4b0d5" stroke-width="1.51"/><path d="M1352,-26L1232,55L1353,63Z" fill="#b0aad3" stroke="#b0aad3" stroke-width="1.51"/><path d="M1131,648L1195,855L1348,716Z" fill="#837fbb" stroke="#837fbb" stroke-width="1.51"/><path d="M1164,1195L1280,1263L1345,1166Z" fill="#694fa2" stroke="#694fa2" stroke-width="1.51"/><path d="M1091,1026L1164,1195L1318,994Z" fill="#735faa" stroke="#735faa" stroke-width="1.51"/><path d="M1129,971L1091,1026L1318,994Z" fill="#7866af" stroke="#7866af" stroke-width="1.51"/><path d="M1195,855L1129,971L1318,994Z" fill="#786ab0" stroke="#786ab0" stroke-width="1.51"/><path d="M1225,484L1131,648L1318,591Z" fill="#8f8ac1" stroke="#8f8ac1" stroke-width="1.51"/><path d="M1164,1195L1226,1277L1280,1263Z" fill="#694ea1" stroke="#694ea1" stroke-width="1.51"/><path d="M1131,648L1037,723L1195,855Z" fill="#8884bd" stroke="#8884bd" stroke-width="1.51"/><path d="M1181,203L1051,256L1198,387Z" fill="#a8a6cf" stroke="#a8a6cf" stroke-width="1.51"/><path d="M1155,-230L1035,-58L1218,-68Z" fill="#bfbbdb" stroke="#bfbbdb" stroke-width="1.51"/><path d="M1026,484L1131,648L1225,484Z" fill="#9692c4" stroke="#9692c4" stroke-width="1.51"/><path d="M1001,54L1181,203L1232,55Z" fill="#b4b2d6" stroke="#b4b2d6" stroke-width="1.51"/><path d="M1218,-68L1035,-58L1232,55Z" fill="#bab6d9" stroke="#bab6d9" stroke-width="1.51"/><path d="M1035,-58L1001,54L1232,55Z" fill="#bbb8d9" stroke="#bbb8d9" stroke-width="1.51"/><path d="M1017,-159L1035,-58L1155,-230Z" fill="#c3bfdd" stroke="#c3bfdd" stroke-width="1.51"/><path d="M1198,387L1053,411L1225,484Z" fill="#9c9ac9" stroke="#9c9ac9" stroke-width="1.51"/><path d="M1164,1195L1016,1332L1226,1277Z" fill="#6d51a2" stroke="#6d51a2" stroke-width="1.51"/><path d="M1053,411L1026,484L1225,484Z" fill="#9d99c8" stroke="#9d99c8" stroke-width="1.51"/><path d="M837,-244L1017,-159L1155,-230Z" fill="#c8c5e0" stroke="#c8c5e0" stroke-width="1.51"/><path d="M1091,1026L1048,1187L1164,1195Z" fill="#755ca9" stroke="#755ca9" stroke-width="1.51"/><path d="M1048,1187L1016,1332L1164,1195Z" fill="#7156a5" stroke="#7156a5" stroke-width="1.51"/><path d="M1001,54L1051,256L1181,203Z" fill="#b3b0d5" stroke="#b3b0d5" stroke-width="1.51"/><path d="M1037,723L1013,808L1195,855Z" fill="#8780bc" stroke="#8780bc" stroke-width="1.51"/><path d="M1051,256L1053,411L1198,387Z" fill="#a5a3cd" stroke="#a5a3cd" stroke-width="1.51"/><path d="M1013,808L1129,971L1195,855Z" fill="#8176b6" stroke="#8176b6" stroke-width="1.51"/><path d="M1026,484L897,570L1037,723Z" fill="#9895c5" stroke="#9895c5" stroke-width="1.51"/><path d="M1013,808L1091,1026L1129,971Z" fill="#7f71b4" stroke="#7f71b4" stroke-width="1.51"/><path d="M1026,484L1037,723L1131,648Z" fill="#948fc3" stroke="#948fc3" stroke-width="1.51"/><path d="M894,1013L871,1116L1048,1187Z" fill="#7f67af" stroke="#7f67af" stroke-width="1.51"/><path d="M1051,256L930,278L1053,411Z" fill="#acaad1" stroke="#acaad1" stroke-width="1.51"/><path d="M894,1013L1048,1187L1091,1026Z" fill="#7c67af" stroke="#7c67af" stroke-width="1.51"/><path d="M1013,808L894,1013L1091,1026Z" fill="#8274b5" stroke="#8274b5" stroke-width="1.51"/><path d="M840,92L930,278L1001,54Z" fill="#bdbbda" stroke="#bdbbda" stroke-width="1.51"/><path d="M897,570L842,656L1037,723Z" fill="#9894c6" stroke="#9894c6" stroke-width="1.51"/><path d="M897,1322L1016,1332L1048,1187Z" fill="#7457a5" stroke="#7457a5" stroke-width="1.51"/><path d="M1001,54L930,278L1051,256Z" fill="#b5b3d6" stroke="#b5b3d6" stroke-width="1.51"/><path d="M868,423L1026,484L1053,411Z" fill="#a5a1cc" stroke="#a5a1cc" stroke-width="1.51"/><path d="M930,278L868,423L1053,411Z" fill="#aba9d0" stroke="#aba9d0" stroke-width="1.51"/><path d="M830,821L894,1013L1013,808Z" fill="#8b7fbb" stroke="#8b7fbb" stroke-width="1.51"/><path d="M871,1116L897,1322L1048,1187Z" fill="#7a5eaa" stroke="#7a5eaa" stroke-width="1.51"/><path d="M1017,-159L864,-7L1035,-58Z" fill="#c6c2de" stroke="#c6c2de" stroke-width="1.51"/><path d="M864,-7L1001,54L1035,-58Z" fill="#c2bfdc" stroke="#c2bfdc" stroke-width="1.51"/><path d="M842,656L1013,808L1037,723Z" fill="#918cc2" stroke="#918cc2" stroke-width="1.51"/><path d="M842,656L830,821L1013,808Z" fill="#918dc2" stroke="#918dc2" stroke-width="1.51"/><path d="M868,423L897,570L1026,484Z" fill="#a39fcb" stroke="#a39fcb" stroke-width="1.51"/><path d="M785,-194L864,-7L1017,-159Z" fill="#cbc8e2" stroke="#cbc8e2" stroke-width="1.51"/><path d="M837,-244L785,-194L1017,-159Z" fill="#cecbe3" stroke="#cecbe3" stroke-width="1.51"/><path d="M864,-7L840,92L1001,54Z" fill="#c3c1dd" stroke="#c3c1dd" stroke-width="1.51"/><path d="M561,1261L407,1286L695,1288Z" fill="#8b6db3" stroke="#8b6db3" stroke-width="1.51"/><path d="M830,821L749,990L894,1013Z" fill="#8c7ebb" stroke="#8c7ebb" stroke-width="1.51"/><path d="M871,1116L768,1152L897,1322Z" fill="#7f64ae" stroke="#7f64ae" stroke-width="1.51"/><path d="M840,92L735,235L930,278Z" fill="#bcbbdb" stroke="#bcbbdb" stroke-width="1.51"/><path d="M735,235L785,349L930,278Z" fill="#b7b7d8" stroke="#b7b7d8" stroke-width="1.51"/><path d="M785,349L868,423L930,278Z" fill="#b1afd4" stroke="#b1afd4" stroke-width="1.51"/><path d="M749,990L871,1116L894,1013Z" fill="#8773b6" stroke="#8773b6" stroke-width="1.51"/><path d="M768,1152L695,1288L897,1322Z" fill="#8064ad" stroke="#8064ad" stroke-width="1.51"/><path d="M868,423L717,544L897,570Z" fill="#a6a4ce" stroke="#a6a4ce" stroke-width="1.51"/><path d="M717,544L842,656L897,570Z" fill="#a29ecb" stroke="#a29ecb" stroke-width="1.51"/><path d="M785,-194L679,-55L864,-7Z" fill="#cfcee4" stroke="#cfcee4" stroke-width="1.51"/><path d="M714,714L830,821L842,656Z" fill="#9896c7" stroke="#9896c7" stroke-width="1.51"/><path d="M743,59L840,92L864,-7Z" fill="#c7c6e0" stroke="#c7c6e0" stroke-width="1.51"/><path d="M785,349L717,544L868,423Z" fill="#aeacd3" stroke="#aeacd3" stroke-width="1.51"/><path d="M749,990L768,1152L871,1116Z" fill="#8771b5" stroke="#8771b5" stroke-width="1.51"/><path d="M679,-55L743,59L864,-7Z" fill="#cccbe3" stroke="#cccbe3" stroke-width="1.51"/><path d="M99,-172L312,-161L448,-194Z" fill="#eae9f3" stroke="#eae9f3" stroke-width="1.51"/><path d="M699,821L749,990L830,821Z" fill="#9288c0" stroke="#9288c0" stroke-width="1.51"/><path d="M714,714L699,821L830,821Z" fill="#9893c6" stroke="#9893c6" stroke-width="1.51"/><path d="M636,-194L785,-194L837,-244Z" fill="#d5d3e8" stroke="#d5d3e8" stroke-width="1.51"/><path d="M743,59L735,235L840,92Z" fill="#c5c5df" stroke="#c5c5df" stroke-width="1.51"/><path d="M717,544L714,714L842,656Z" fill="#a19ecb" stroke="#a19ecb" stroke-width="1.51"/><path d="M636,-194L630,-93L679,-55Z" fill="#d7d6ea" stroke="#d7d6ea" stroke-width="1.51"/><path d="M634,240L735,235L743,59Z" fill="#c5c5e0" stroke="#c5c5e0" stroke-width="1.51"/><path d="M749,990L627,1137L768,1152Z" fill="#8b75b7" stroke="#8b75b7" stroke-width="1.51"/><path d="M584,392L717,544L785,349Z" fill="#b3b3d6" stroke="#b3b3d6" stroke-width="1.51"/><path d="M735,235L634,240L785,349Z" fill="#bdbddc" stroke="#bdbddc" stroke-width="1.51"/><path d="M634,240L584,392L785,349Z" fill="#bcbddc" stroke="#bcbddc" stroke-width="1.51"/><path d="M636,-194L679,-55L785,-194Z" fill="#d5d5e8" stroke="#d5d5e8" stroke-width="1.51"/><path d="M562,129L634,240L743,59Z" fill="#cacbe4" stroke="#cacbe4" stroke-width="1.51"/><path d="M627,1137L695,1288L768,1152Z" fill="#876db3" stroke="#876db3" stroke-width="1.51"/><path d="M576,560L714,714L717,544Z" fill="#a8a6cf" stroke="#a8a6cf" stroke-width="1.51"/><path d="M699,821L551,994L749,990Z" fill="#9487c0" stroke="#9487c0" stroke-width="1.51"/><path d="M551,994L627,1137L749,990Z" fill="#917ebb" stroke="#917ebb" stroke-width="1.51"/><path d="M679,-55L562,129L743,59Z" fill="#cfcfe6" stroke="#cfcfe6" stroke-width="1.51"/><path d="M576,560L575,730L714,714Z" fill="#a6a4ce" stroke="#a6a4ce" stroke-width="1.51"/><path d="M584,392L576,560L717,544Z" fill="#b1b0d5" stroke="#b1b0d5" stroke-width="1.51"/><path d="M627,1137L561,1261L695,1288Z" fill="#896eb3" stroke="#896eb3" stroke-width="1.51"/><path d="M585,791L551,994L699,821Z" fill="#9a91c5" stroke="#9a91c5" stroke-width="1.51"/><path d="M585,791L699,821L714,714Z" fill="#9c99ca" stroke="#9c99ca" stroke-width="1.51"/><path d="M575,730L585,791L714,714Z" fill="#a09ecc" stroke="#a09ecc" stroke-width="1.51"/><path d="M630,-93L477,-20L679,-55Z" fill="#d7d7e9" stroke="#d7d7e9" stroke-width="1.51"/><path d="M477,-20L562,129L679,-55Z" fill="#d5d4e8" stroke="#d5d4e8" stroke-width="1.51"/><path d="M441,248L584,392L634,240Z" fill="#c5c5e0" stroke="#c5c5e0" stroke-width="1.51"/><path d="M448,-194L630,-93L636,-194Z" fill="#dcdcec" stroke="#dcdcec" stroke-width="1.51"/><path d="M551,994L481,1006L627,1137Z" fill="#9581be" stroke="#9581be" stroke-width="1.51"/><path d="M562,129L441,248L634,240Z" fill="#cbcbe4" stroke="#cbcbe4" stroke-width="1.51"/><path d="M448,-194L477,-20L630,-93Z" fill="#ddddec" stroke="#ddddec" stroke-width="1.51"/><path d="M388,1174L561,1261L627,1137Z" fill="#8f75b7" stroke="#8f75b7" stroke-width="1.51"/><path d="M481,1006L388,1174L627,1137Z" fill="#957dbc" stroke="#957dbc" stroke-width="1.51"/><path d="M414,578L380,741L575,730Z" fill="#adabd2" stroke="#adabd2" stroke-width="1.51"/><path d="M380,741L383,820L575,730Z" fill="#a8a4d0" stroke="#a8a4d0" stroke-width="1.51"/><path d="M414,578L575,730L576,560Z" fill="#aeacd2" stroke="#aeacd2" stroke-width="1.51"/><path d="M441,248L382,362L584,392Z" fill="#c5c6e1" stroke="#c5c6e1" stroke-width="1.51"/><path d="M414,578L576,560L584,392Z" fill="#b6b4d7" stroke="#b6b4d7" stroke-width="1.51"/><path d="M382,362L414,578L584,392Z" fill="#bebddb" stroke="#bebddb" stroke-width="1.51"/><path d="M481,1006L551,994L585,791Z" fill="#9b8ec3" stroke="#9b8ec3" stroke-width="1.51"/><path d="M383,820L481,1006L585,791Z" fill="#a197c9" stroke="#a197c9" stroke-width="1.51"/><path d="M575,730L383,820L585,791Z" fill="#a4a0cd" stroke="#a4a0cd" stroke-width="1.51"/><path d="M477,-20L398,119L562,129Z" fill="#d6d6e9" stroke="#d6d6e9" stroke-width="1.51"/><path d="M388,1174L407,1286L561,1261Z" fill="#9175b7" stroke="#9175b7" stroke-width="1.51"/><path d="M398,119L441,248L562,129Z" fill="#d2d2e7" stroke="#d2d2e7" stroke-width="1.51"/><path d="M302,1256L123,1345L407,1286Z" fill="#9677b8" stroke="#9677b8" stroke-width="1.51"/><path d="M298,-33L398,119L477,-20Z" fill="#deddec" stroke="#deddec" stroke-width="1.51"/><path d="M448,-194L312,-161L477,-20Z" fill="#e3e2ef" stroke="#e3e2ef" stroke-width="1.51"/><path d="M312,-161L298,-33L477,-20Z" fill="#e4e3f0" stroke="#e4e3f0" stroke-width="1.51"/><path d="M383,820L293,829L481,1006Z" fill="#a599cb" stroke="#a599cb" stroke-width="1.51"/><path d="M293,829L239,1039L481,1006Z" fill="#a393c7" stroke="#a393c7" stroke-width="1.51"/><path d="M239,1039L388,1174L481,1006Z" fill="#9d87c1" stroke="#9d87c1" stroke-width="1.51"/><path d="M250,391L228,518L382,362Z" fill="#c7c6e0" stroke="#c7c6e0" stroke-width="1.51"/><path d="M298,-33L303,99L398,119Z" fill="#dfdeed" stroke="#dfdeed" stroke-width="1.51"/><path d="M382,362L228,518L414,578Z" fill="#c0bfdc" stroke="#c0bfdc" stroke-width="1.51"/><path d="M398,119L329,232L441,248Z" fill="#d3d3e8" stroke="#d3d3e8" stroke-width="1.51"/><path d="M329,232L382,362L441,248Z" fill="#cecee5" stroke="#cecee5" stroke-width="1.51"/><path d="M239,1039L238,1120L388,1174Z" fill="#9e85c1" stroke="#9e85c1" stroke-width="1.51"/><path d="M313,739L380,741L414,578Z" fill="#b1aed4" stroke="#b1aed4" stroke-width="1.51"/><path d="M388,1174L302,1256L407,1286Z" fill="#9578b9" stroke="#9578b9" stroke-width="1.51"/><path d="M228,518L313,739L414,578Z" fill="#b8b6d7" stroke="#b8b6d7" stroke-width="1.51"/><path d="M303,99L329,232L398,119Z" fill="#d9d9ea" stroke="#d9d9ea" stroke-width="1.51"/><path d="M380,741L313,739L383,820Z" fill="#aca8d2" stroke="#aca8d2" stroke-width="1.51"/><path d="M329,232L250,391L382,362Z" fill="#cdcde4" stroke="#cdcde4" stroke-width="1.51"/><path d="M313,739L293,829L383,820Z" fill="#aca6d0" stroke="#aca6d0" stroke-width="1.51"/><path d="M238,1120L302,1256L388,1174Z" fill="#9a7ebd" stroke="#9a7ebd" stroke-width="1.51"/><path d="M25,1324L-129,1342L123,1345Z" fill="#9d7bba" stroke="#9d7bba" stroke-width="1.51"/><path d="M97,564L79,717L228,518Z" fill="#bfbcdb" stroke="#bfbcdb" stroke-width="1.51"/><path d="M137,982L239,1039L293,829Z" fill="#a898c9" stroke="#a898c9" stroke-width="1.51"/><path d="M139,865L137,982L293,829Z" fill="#ac9fce" stroke="#ac9fce" stroke-width="1.51"/><path d="M298,-33L171,49L303,99Z" fill="#e2e1ef" stroke="#e2e1ef" stroke-width="1.51"/><path d="M138,-83L298,-33L312,-161Z" fill="#e9e7f2" stroke="#e9e7f2" stroke-width="1.51"/><path d="M228,518L79,717L313,739Z" fill="#b9b5d8" stroke="#b9b5d8" stroke-width="1.51"/><path d="M303,99L187,212L329,232Z" fill="#d9d8ea" stroke="#d9d8ea" stroke-width="1.51"/><path d="M187,212L250,391L329,232Z" fill="#d2d3e7" stroke="#d2d3e7" stroke-width="1.51"/><path d="M139,865L293,829L313,739Z" fill="#aea6d1" stroke="#aea6d1" stroke-width="1.51"/><path d="M79,717L139,865L313,739Z" fill="#b2add4" stroke="#b2add4" stroke-width="1.51"/><path d="M99,-172L138,-83L312,-161Z" fill="#ecebf4" stroke="#ecebf4" stroke-width="1.51"/><path d="M238,1120L98,1140L302,1256Z" fill="#9e82bf" stroke="#9e82bf" stroke-width="1.51"/><path d="M98,1140L123,1345L302,1256Z" fill="#9c7ebc" stroke="#9c7ebc" stroke-width="1.51"/><path d="M171,49L187,212L303,99Z" fill="#dfdfed" stroke="#dfdfed" stroke-width="1.51"/><path d="M187,212L115,337L250,391Z" fill="#d2d2e7" stroke="#d2d2e7" stroke-width="1.51"/><path d="M138,-83L171,49L298,-33Z" fill="#e7e6f1" stroke="#e7e6f1" stroke-width="1.51"/><path d="M115,337L228,518L250,391Z" fill="#cac9e2" stroke="#cac9e2" stroke-width="1.51"/><path d="M115,337L97,564L228,518Z" fill="#c8c5e0" stroke="#c8c5e0" stroke-width="1.51"/><path d="M98,1140L238,1120L239,1039Z" fill="#a28ac3" stroke="#a28ac3" stroke-width="1.51"/><path d="M137,982L98,1140L239,1039Z" fill="#a58fc6" stroke="#a58fc6" stroke-width="1.51"/><path d="M-19,430L97,564L115,337Z" fill="#cdcbe3" stroke="#cdcbe3" stroke-width="1.51"/><path d="M98,1140L25,1324L123,1345Z" fill="#9e7fbc" stroke="#9e7fbc" stroke-width="1.51"/><path d="M-71,89L30,251L171,49Z" fill="#e5e4f0" stroke="#e5e4f0" stroke-width="1.51"/><path d="M171,49L30,251L187,212Z" fill="#dfdeed" stroke="#dfdeed" stroke-width="1.51"/><path d="M30,251L115,337L187,212Z" fill="#d8d8ea" stroke="#d8d8ea" stroke-width="1.51"/><path d="M138,-83L-18,-108L171,49Z" fill="#eceaf3" stroke="#eceaf3" stroke-width="1.51"/><path d="M-18,-108L-71,89L171,49Z" fill="#ebeaf4" stroke="#ebeaf4" stroke-width="1.51"/><path d="M-18,1165L25,1324L98,1140Z" fill="#a284c0" stroke="#a284c0" stroke-width="1.51"/><path d="M-42,1010L98,1140L137,982Z" fill="#a993c8" stroke="#a993c8" stroke-width="1.51"/><path d="M99,-172L-18,-108L138,-83Z" fill="#f0eef6" stroke="#f0eef6" stroke-width="1.51"/><path d="M79,717L-46,800L139,865Z" fill="#b5aed5" stroke="#b5aed5" stroke-width="1.51"/><path d="M-42,1010L137,982L139,865Z" fill="#ad9ccc" stroke="#ad9ccc" stroke-width="1.51"/><path d="M-46,800L-42,1010L139,865Z" fill="#b1a4d0" stroke="#b1a4d0" stroke-width="1.51"/><path d="M-13,581L79,717L97,564Z" fill="#c0bddc" stroke="#c0bddc" stroke-width="1.51"/><path d="M-19,430L-13,581L97,564Z" fill="#c8c5df" stroke="#c8c5df" stroke-width="1.51"/><path d="M-42,1010L-18,1165L98,1140Z" fill="#a78ec5" stroke="#a78ec5" stroke-width="1.51"/><path d="M30,251L-19,430L115,337Z" fill="#d5d5e8" stroke="#d5d5e8" stroke-width="1.51"/><path d="M-13,581L-67,653L79,717Z" fill="#c0bcdc" stroke="#c0bcdc" stroke-width="1.51"/><path d="M-19,-185L-18,-108L99,-172Z" fill="#f2f0f7" stroke="#f2f0f7" stroke-width="1.51"/><path d="M-67,653L-46,800L79,717Z" fill="#bbb6da" stroke="#bbb6da" stroke-width="1.51"/><path d="M-46,800L-184,874L-42,1010Z" fill="#b3a6d1" stroke="#b3a6d1" stroke-width="1.51"/><path d="M-18,1165L-139,1193L25,1324Z" fill="#a384c0" stroke="#a384c0" stroke-width="1.51"/><path d="M-139,1193L-129,1342L25,1324Z" fill="#a181be" stroke="#a181be" stroke-width="1.51"/><path d="M-71,89L-178,192L30,251Z" fill="#e4e3f0" stroke="#e4e3f0" stroke-width="1.51"/><path d="M-178,192L-116,360L30,251Z" fill="#dddded" stroke="#dddded" stroke-width="1.51"/><path d="M-116,360L-19,430L30,251Z" fill="#d6d6e9" stroke="#d6d6e9" stroke-width="1.51"/><path d="M-184,874L-165,1007L-42,1010Z" fill="#b19fce" stroke="#b19fce" stroke-width="1.51"/><path d="M-165,1007L-139,1193L-42,1010Z" fill="#ac94c9" stroke="#ac94c9" stroke-width="1.51"/><path d="M-116,360L-212,531L-19,430Z" fill="#d1cfe6" stroke="#d1cfe6" stroke-width="1.51"/><path d="M-198,-58L-71,89L-18,-108Z" fill="#f0eef5" stroke="#f0eef5" stroke-width="1.51"/><path d="M-19,-185L-197,-202L-18,-108Z" fill="#f5f3f8" stroke="#f5f3f8" stroke-width="1.51"/><path d="M-42,1010L-139,1193L-18,1165Z" fill="#a88ec6" stroke="#a88ec6" stroke-width="1.51"/><path d="M-170,646L-67,653L-13,581Z" fill="#c3c0dd" stroke="#c3c0dd" stroke-width="1.51"/><path d="M-212,531L-170,646L-13,581Z" fill="#c7c3df" stroke="#c7c3df" stroke-width="1.51"/><path d="M-19,430L-212,531L-13,581Z" fill="#cbc8e2" stroke="#cbc8e2" stroke-width="1.51"/><path d="M-197,-202L-198,-58L-18,-108Z" fill="#f5f3f9" stroke="#f5f3f9" stroke-width="1.51"/><path d="M-67,653L-170,646L-46,800Z" fill="#bebadb" stroke="#bebadb" stroke-width="1.51"/><path d="M-170,646L-184,874L-46,800Z" fill="#bab4d9" stroke="#bab4d9" stroke-width="1.51"/><path d="M-204,137L-178,192L-71,89Z" fill="#e8e7f2" stroke="#e8e7f2" stroke-width="1.51"/><path d="M-198,-58L-204,137L-71,89Z" fill="#ececf4" stroke="#ececf4" stroke-width="1.51"/><path d="M-165,1007L-184,874L-129,1342Z" fill="#ac94c9" stroke="#ac94c9" stroke-width="1.51"/><path d="M-178,192L-212,531L-116,360Z" fill="#d8d8ea" stroke="#d8d8ea" stroke-width="1.51"/><path d="M-139,1193L-165,1007L-129,1342Z" fill="#a78ac4" stroke="#a78ac4" stroke-width="1.51"/><path d="M-204,137L-212,531L-178,192Z" fill="#dedeed" stroke="#dedeed" stroke-width="1.51"/><path d="M-212,531L-184,874L-170,646Z" fill="#c1bedd" stroke="#c1bedd" stroke-width="1.51"/><path d="M-204,137L-198,-58L-197,-202Z" fill="#f2f1f7" stroke="#f2f1f7" stroke-width="1.51"/></svg>