<svg xmlns="http://www.w3.org/2000/svg" width="1920" height="1080"><path d="M-197,-202L-19,-185L448,-194Z" fill="#ae5808" stroke="#ae5808" stroke-width="1.51"/><path d="M-197,-202L448,-194L837,-244Z" fill="#c27124" stroke="#c27124" stroke-width="1.51"/><path d="M897,1322L123,1345L1016,1332Z" fill="#9a6c80" stroke="#9a6c80" stroke-width="1.51"/><path d="M837,-244L1155,-230L1369,-265Z" fill="#bf9079" stroke="#bf9079" stroke-width="1.51"/><path d="M1016,1332L123,1345L1668,1345Z" fill="#9478a0" stroke="#9478a0" stroke-width="1.51"/><path d="M1451,1329L1016,1332L1668,1345Z" fill="#785d94" stroke="#785d94" stroke-width="1.51"/><path d="M1654,-192L1821,-173L1911,-185Z" fill="#904d58" stroke="#904d58" stroke-width="1.51"/><path d="M1654,-192L1911,-185L2060,-232Z" fill="#853e52" stroke="#853e52" stroke-width="1.51"/><path d="M1516,-223L1654,-192L2060,-232Z" fill="#8f525a" stroke="#8f525a" stroke-width="1.51"/><path d="M1369,-265L1516,-223L2060,-232Z" fill="#945e5f" stroke="#945e5f" stroke-width="1.51"/><path d="M1966,836L2063,873L2076,642Z" fill="#846aa3" stroke="#846aa3" stroke-width="1.51"/><path d="M1952,652L1966,836L2076,642Z" fill="#9077ae" stroke="#9077ae" stroke-width="1.51"/><path d="M2070,987L1968,1181L2098,1144Z" fill="#573482" stroke="#573482" stroke-width="1.51"/><path d="M2076,642L2063,873L2098,1144Z" fill="#745895" stroke="#745895" stroke-width="1.51"/><path d="M2063,873L2070,987L2098,1144Z" fill="#634689" stroke="#634689" stroke-width="1.51"/><path d="M2047,56L1886,188L2100,282Z" fill="#a35f69" stroke="#a35f69" stroke-width="1.51"/><path d="M2079,-104L2047,56L2100,282Z" fill="#964a4f" stroke="#964a4f" stroke-width="1.51"/><path d="M2100,282L1956,361L2118,381Z" fill="#9f7087" stroke="#9f7087" stroke-width="1.51"/><path d="M1956,361L2053,487L2118,381Z" fill="#9f7897" stroke="#9f7897" stroke-width="1.51"/><path d="M2053,487L2076,642L2118,381Z" fill="#997ba2" stroke="#997ba2" stroke-width="1.51"/><path d="M2076,642L2098,1144L2118,381Z" fill="#856c9f" stroke="#856c9f" stroke-width="1.51"/><path d="M2079,-104L2100,282L2118,381Z" fill="#9b5960" stroke="#9b5960" stroke-width="1.51"/><path d="M2098,1144L1968,1181L2118,1295Z" fill="#471b74" stroke="#471b74" stroke-width="1.51"/><path d="M1968,1181L1940,1323L2118,1295Z" fill="#441870" stroke="#441870" stroke-width="1.51"/><path d="M2118,381L2098,1144L2118,1295Z" fill="#694d8b" stroke="#694d8b" stroke-width="1.51"/><path d="M1907,1007L1968,1181L2070,987Z" fill="#63438f" stroke="#63438f" stroke-width="1.51"/><path d="M2053,487L1915,557L2076,642Z" fill="#9c81b1" stroke="#9c81b1" stroke-width="1.51"/><path d="M1915,557L1952,652L2076,642Z" fill="#9a80b4" stroke="#9a80b4" stroke-width="1.51"/><path d="M1909,-80L2047,56L2079,-104Z" fill="#8f3f4b" stroke="#8f3f4b" stroke-width="1.51"/><path d="M1886,188L1956,361L2100,282Z" fill="#a86f82" stroke="#a86f82" stroke-width="1.51"/><path d="M1909,-80L1935,50L2047,56Z" fill="#9b4a54" stroke="#9b4a54" stroke-width="1.51"/><path d="M1935,50L1886,188L2047,56Z" fill="#a45761" stroke="#a45761" stroke-width="1.51"/><path d="M2063,873L1966,836L2070,987Z" fill="#765a9a" stroke="#765a9a" stroke-width="1.51"/><path d="M1966,836L1907,1007L2070,987Z" fill="#74579c" stroke="#74579c" stroke-width="1.51"/><path d="M2060,-232L1911,-185L2079,-104Z" fill="#7c3045" stroke="#7c3045" stroke-width="1.51"/><path d="M1911,-185L1909,-80L2079,-104Z" fill="#89384c" stroke="#89384c" stroke-width="1.51"/><path d="M1956,361L1915,557L2053,487Z" fill="#a482ab" stroke="#a482ab" stroke-width="1.51"/><path d="M695,1288L123,1345L897,1322Z" fill="#9d6573" stroke="#9d6573" stroke-width="1.51"/><path d="M1830,1272L1668,1345L1940,1323Z" fill="#512c7a" stroke="#512c7a" stroke-width="1.51"/><path d="M1752,659L1839,888L1952,652Z" fill="#9b86bd" stroke="#9b86bd" stroke-width="1.51"/><path d="M1886,188L1729,274L1956,361Z" fill="#b47e8e" stroke="#b47e8e" stroke-width="1.51"/><path d="M1794,422L1915,557L1956,361Z" fill="#ad8ab1" stroke="#ad8ab1" stroke-width="1.51"/><path d="M1952,652L1839,888L1966,836Z" fill="#8e73b3" stroke="#8e73b3" stroke-width="1.51"/><path d="M1839,888L1907,1007L1966,836Z" fill="#8064a9" stroke="#8064a9" stroke-width="1.51"/><path d="M1907,1007L1835,1137L1968,1181Z" fill="#624094" stroke="#624094" stroke-width="1.51"/><path d="M1830,1272L1940,1323L1968,1181Z" fill="#4d227d" stroke="#4d227d" stroke-width="1.51"/><path d="M1835,1137L1830,1272L1968,1181Z" fill="#592f8c" stroke="#592f8c" stroke-width="1.51"/><path d="M1729,274L1794,422L1956,361Z" fill="#b58ca3" stroke="#b58ca3" stroke-width="1.51"/><path d="M1915,557L1752,659L1952,652Z" fill="#a38cc0" stroke="#a38cc0" stroke-width="1.51"/><path d="M1794,422L1776,529L1915,557Z" fill="#b098bf" stroke="#b098bf" stroke-width="1.51"/><path d="M1746,43L1886,188L1935,50Z" fill="#ae6469" stroke="#ae6469" stroke-width="1.51"/><path d="M1909,-80L1772,-42L1935,50Z" fill="#a0515b" stroke="#a0515b" stroke-width="1.51"/><path d="M1821,-173L1909,-80L1911,-185Z" fill="#8e4154" stroke="#8e4154" stroke-width="1.51"/><path d="M1772,-42L1746,43L1935,50Z" fill="#aa5f60" stroke="#aa5f60" stroke-width="1.51"/><path d="M1839,888L1762,989L1907,1007Z" fill="#7e67a9" stroke="#7e67a9" stroke-width="1.51"/><path d="M1762,989L1835,1137L1907,1007Z" fill="#7259a0" stroke="#7259a0" stroke-width="1.51"/><path d="M1776,529L1752,659L1915,557Z" fill="#ac99c6" stroke="#ac99c6" stroke-width="1.51"/><path d="M1821,-173L1772,-42L1909,-80Z" fill="#9a4e59" stroke="#9a4e59" stroke-width="1.51"/><path d="M407,1286L123,1345L695,1288Z" fill="#9c575e" stroke="#9c575e" stroke-width="1.51"/><path d="M1746,43L1729,274L1886,188Z" fill="#b97c7c" stroke="#b97c7c" stroke-width="1.51"/><path d="M1664,231L1729,274L1746,43Z" fill="#c08a83" stroke="#c08a83" stroke-width="1.51"/><path d="M1582,1190L1668,1345L1830,1272Z" fill="#61448c" stroke="#61448c" stroke-width="1.51"/><path d="M1582,1190L1830,1272L1835,1137Z" fill="#654395" stroke="#654395" stroke-width="1.51"/><path d="M1591,892L1762,989L1839,888Z" fill="#8d7eb5" stroke="#8d7eb5" stroke-width="1.51"/><path d="M1752,659L1591,892L1839,888Z" fill="#9c8fc0" stroke="#9c8fc0" stroke-width="1.51"/><path d="M1762,989L1582,1190L1835,1137Z" fill="#735ca1" stroke="#735ca1" stroke-width="1.51"/><path d="M1654,-192L1772,-42L1821,-173Z" fill="#9c585c" stroke="#9c585c" stroke-width="1.51"/><path d="M1729,274L1687,411L1794,422Z" fill="#bc9ead" stroke="#bc9ead" stroke-width="1.51"/><path d="M1601,655L1591,892L1752,659Z" fill="#aca5cb" stroke="#aca5cb" stroke-width="1.51"/><path d="M1591,892L1601,952L1762,989Z" fill="#9085b8" stroke="#9085b8" stroke-width="1.51"/><path d="M1654,-192L1633,-69L1772,-42Z" fill="#a76661" stroke="#a76661" stroke-width="1.51"/><path d="M1687,411L1776,529L1794,422Z" fill="#b9a1bc" stroke="#b9a1bc" stroke-width="1.51"/><path d="M1593,44L1664,231L1746,43Z" fill="#c08577" stroke="#c08577" stroke-width="1.51"/><path d="M1601,952L1582,1190L1762,989Z" fill="#8374ad" stroke="#8374ad" stroke-width="1.51"/><path d="M1613,535L1752,659L1776,529Z" fill="#b5aace" stroke="#b5aace" stroke-width="1.51"/><path d="M1687,411L1613,535L1776,529Z" fill="#bcadc7" stroke="#bcadc7" stroke-width="1.51"/><path d="M1633,-69L1746,43L1772,-42Z" fill="#ae6b64" stroke="#ae6b64" stroke-width="1.51"/><path d="M1613,535L1601,655L1752,659Z" fill="#b7afd0" stroke="#b7afd0" stroke-width="1.51"/><path d="M1633,-69L1593,44L1746,43Z" fill="#b8776a" stroke="#b8776a" stroke-width="1.51"/><path d="M1506,788L1591,892L1601,655Z" fill="#afa9cf" stroke="#afa9cf" stroke-width="1.51"/><path d="M1664,231L1687,411L1729,274Z" fill="#c29da1" stroke="#c29da1" stroke-width="1.51"/><path d="M1226,1277L1016,1332L1451,1329Z" fill="#866da1" stroke="#866da1" stroke-width="1.51"/><path d="M1482,1158L1582,1190L1601,952Z" fill="#8573af" stroke="#8573af" stroke-width="1.51"/><path d="M1593,44L1494,184L1664,231Z" fill="#cc9687" stroke="#cc9687" stroke-width="1.51"/><path d="M1664,231L1528,399L1687,411Z" fill="#c7abaf" stroke="#c7abaf" stroke-width="1.51"/><path d="M1528,399L1613,535L1687,411Z" fill="#c6b5c6" stroke="#c6b5c6" stroke-width="1.51"/><path d="M1494,184L1528,399L1664,231Z" fill="#d0aaa2" stroke="#d0aaa2" stroke-width="1.51"/><path d="M1582,1190L1451,1329L1668,1345Z" fill="#6c5092" stroke="#6c5092" stroke-width="1.51"/><path d="M1516,-223L1633,-69L1654,-192Z" fill="#a66a64" stroke="#a66a64" stroke-width="1.51"/><path d="M1468,951L1482,1158L1601,952Z" fill="#9388ba" stroke="#9388ba" stroke-width="1.51"/><path d="M1500,636L1601,655L1613,535Z" fill="#c0bad7" stroke="#c0bad7" stroke-width="1.51"/><path d="M1458,-12L1593,44L1633,-69Z" fill="#c0806f" stroke="#c0806f" stroke-width="1.51"/><path d="M1516,-223L1458,-12L1633,-69Z" fill="#b6786c" stroke="#b6786c" stroke-width="1.51"/><path d="M1458,-12L1482,42L1593,44Z" fill="#c98b75" stroke="#c98b75" stroke-width="1.51"/><path d="M1482,42L1494,184L1593,44Z" fill="#ce937e" stroke="#ce937e" stroke-width="1.51"/><path d="M1500,636L1506,788L1601,655Z" fill="#bcb7d7" stroke="#bcb7d7" stroke-width="1.51"/><path d="M1528,399L1464,551L1613,535Z" fill="#ccc1d4" stroke="#ccc1d4" stroke-width="1.51"/><path d="M1464,551L1500,636L1613,535Z" fill="#c8c3dc" stroke="#c8c3dc" stroke-width="1.51"/><path d="M1482,1158L1451,1329L1582,1190Z" fill="#7a5ea3" stroke="#7a5ea3" stroke-width="1.51"/><path d="M1591,892L1468,951L1601,952Z" fill="#9c93c2" stroke="#9c93c2" stroke-width="1.51"/><path d="M1494,184L1381,271L1528,399Z" fill="#dab6ad" stroke="#dab6ad" stroke-width="1.51"/><path d="M1506,788L1468,951L1591,892Z" fill="#a8a0ca" stroke="#a8a0ca" stroke-width="1.51"/><path d="M-19,-185L99,-172L448,-194Z" fill="#b9620b" stroke="#b9620b" stroke-width="1.51"/><path d="M1468,951L1318,994L1482,1158Z" fill="#9a90c0" stroke="#9a90c0" stroke-width="1.51"/><path d="M1500,636L1348,716L1506,788Z" fill="#c3c0dd" stroke="#c3c0dd" stroke-width="1.51"/><path d="M1350,786L1468,951L1506,788Z" fill="#b6afd4" stroke="#b6afd4" stroke-width="1.51"/><path d="M1352,-26L1458,-12L1516,-223Z" fill="#c28573" stroke="#c28573" stroke-width="1.51"/><path d="M1369,-265L1352,-26L1516,-223Z" fill="#b77f70" stroke="#b77f70" stroke-width="1.51"/><path d="M1349,444L1464,551L1528,399Z" fill="#d7cad5" stroke="#d7cad5" stroke-width="1.51"/><path d="M1381,271L1349,444L1528,399Z" fill="#dbc7c5" stroke="#dbc7c5" stroke-width="1.51"/><path d="M1345,1166L1451,1329L1482,1158Z" fill="#8368aa" stroke="#8368aa" stroke-width="1.51"/><path d="M1318,994L1345,1166L1482,1158Z" fill="#9583ba" stroke="#9583ba" stroke-width="1.51"/><path d="M1482,42L1353,63L1494,184Z" fill="#d79e85" stroke="#d79e85" stroke-width="1.51"/><path d="M1348,716L1350,786L1506,788Z" fill="#c1bddc" stroke="#c1bddc" stroke-width="1.51"/><path d="M1280,1263L1226,1277L1451,1329Z" fill="#8268a1" stroke="#8268a1" stroke-width="1.51"/><path d="M1464,551L1318,591L1500,636Z" fill="#d0cde3" stroke="#d0cde3" stroke-width="1.51"/><path d="M1318,591L1348,716L1500,636Z" fill="#cecce3" stroke="#cecce3" stroke-width="1.51"/><path d="M1353,63L1381,271L1494,184Z" fill="#deae96" stroke="#deae96" stroke-width="1.51"/><path d="M1350,786L1318,994L1468,951Z" fill="#b1aad0" stroke="#b1aad0" stroke-width="1.51"/><path d="M1458,-12L1353,63L1482,42Z" fill="#d3957a" stroke="#d3957a" stroke-width="1.51"/><path d="M1345,1166L1280,1263L1451,1329Z" fill="#8469a6" stroke="#8469a6" stroke-width="1.51"/><path d="M1352,-26L1353,63L1458,-12Z" fill="#d3977b" stroke="#d3977b" stroke-width="1.51"/><path d="M1349,444L1318,591L1464,551Z" fill="#dad6e6" stroke="#dad6e6" stroke-width="1.51"/><path d="M1225,484L1318,591L1349,444Z" fill="#e1dce6" stroke="#e1dce6" stroke-width="1.51"/><path d="M1195,855L1318,994L1350,786Z" fill="#bcb8d9" stroke="#bcb8d9" stroke-width="1.51"/><path d="M1232,55L1181,203L1353,63Z" fill="#e7b290" stroke="#e7b290" stroke-width="1.51"/><path d="M1218,-68L1352,-26L1369,-265Z" fill="#c88d76" stroke="#c88d76" stroke-width="1.51"/><path d="M1155,-230L1218,-68L1369,-265Z" fill="#c18d77" stroke="#c18d77" stroke-width="1.51"/><path d="M1198,387L1349,444L1381,271Z" fill="#e4d1c9" stroke="#e4d1c9" stroke-width="1.51"/><path d="M1181,203L1198,387L1381,271Z" fill="#ebcdb8" stroke="#ebcdb8" stroke-width="1.51"/><path d="M1353,63L1181,203L1381,271Z" fill="#e7b99c" stroke="#e7b99c" stroke-width="1.51"/><path d="M448,-194L636,-194L837,-244Z" fill="#cc8c52" stroke="#cc8c52" stroke-width="1.51"/><path d="M1318,994L1164,1195L1345,1166Z" fill="#9c8abe" stroke="#9c8abe" stroke-width="1.51"/><path d="M1318,591L1131,648L1348,716Z" fill="#d8d8ea" stroke="#d8d8ea" stroke-width="1.51"/><path d="M1198,387L1225,484L1349,444Z" fill="#e6dcda" stroke="#e6dcda" stroke-width="1.51"/><path d="M1348,716L1195,855L1350,786Z" fill="#c7c5e0" stroke="#c7c5e0" stroke-width="1.51"/><path d="M1218,-68L1232,55L1352,-26Z" fill="#da9f7f" stroke="#da9f7f" stroke-width="1.51"/><path d="M1352,-26L1232,55L1353,63Z" fill="#dca17f" stroke="#dca17f" stroke-width="1.51"/><path d="M1131,648L1195,855L1348,716Z" fill="#d2d2e7" stroke="#d2d2e7" stroke-width="1.51"/><path d="M1164,1195L1280,1263L1345,1166Z" fill="#9277b4" stroke="#9277b4" stroke-width="1.51"/><path d="M1091,1026L1164,1195L1318,994Z" fill="#a89dc7" stroke="#a89dc7" stroke-width="1.51"/><path d="M1129,971L1091,1026L1318,994Z" fill="#b3add0" stroke="#b3add0" stroke-width="1.51"/><path d="M1195,855L1129,971L1318,994Z" fill="#b9b4d6" stroke="#b9b4d6" stroke-width="1.51"/><path d="M1225,484L1131,648L1318,591Z" fill="#e2e3ef" stroke="#e2e3ef" stroke-width="1.51"/><path d="M1164,1195L1226,1277L1280,1263Z" fill="#9076af" stroke="#9076af" stroke-width="1.51"/><path d="M1131,648L1037,723L1195,855Z" fill="#d8d9ea" stroke="#d8d9ea" stroke-width="1.51"/><path d="M1181,203L1051,256L1198,387Z" fill="#f3d5bb" stroke="#f3d5bb" stroke-width="1.51"/><path d="M1155,-230L1035,-58L1218,-68Z" fill="#d49c7d" stroke="#d49c7d" stroke-width="1.51"/><path d="M1026,484L1131,648L1225,484Z" fill="#ecedf3" stroke="#ecedf3" stroke-width="1.51"/><path d="M1001,54L1181,203L1232,55Z" fill="#eeba93" stroke="#eeba93" stroke-width="1.51"/><path d="M1218,-68L1035,-58L1232,55Z" fill="#e0a782" stroke="#e0a782" stroke-width="1.51"/><path d="M1035,-58L1001,54L1232,55Z" fill="#eab086" stroke="#eab086" stroke-width="1.51"/><path d="M1017,-159L1035,-58L1155,-230Z" fill="#d49d7d" stroke="#d49d7d" stroke-width="1.51"/><path d="M1198,387L1053,411L1225,484Z" fill="#eee3dc" stroke="#eee3dc" stroke-width="1.51"/><path d="M1164,1195L1016,1332L1226,1277Z" fill="#9379ad" stroke="#9379ad" stroke-width="1.51"/><path d="M1053,411L1026,484L1225,484Z" fill="#f1e9e4" stroke="#f1e9e4" stroke-width="1.51"/><path d="M837,-244L1017,-159L1155,-230Z" fill="#cc9a7c" stroke="#cc9a7c" stroke-width="1.51"/><path d="M1091,1026L1048,1187L1164,1195Z" fill="#a693c3" stroke="#a693c3" stroke-width="1.51"/><path d="M1048,1187L1016,1332L1164,1195Z" fill="#9a80b4" stroke="#9a80b4" stroke-width="1.51"/><path d="M1001,54L1051,256L1181,203Z" fill="#f6caa2" stroke="#f6caa2" stroke-width="1.51"/><path d="M1037,723L1013,808L1195,855Z" fill="#d5d4e7" stroke="#d5d4e7" stroke-width="1.51"/><path d="M1051,256L1053,411L1198,387Z" fill="#f4e0cd" stroke="#f4e0cd" stroke-width="1.51"/><path d="M1013,808L1129,971L1195,855Z" fill="#c9c6df" stroke="#c9c6df" stroke-width="1.51"/><path d="M1026,484L897,570L1037,723Z" fill="#f0f1f5" stroke="#f0f1f5" stroke-width="1.51"/><path d="M1013,808L1091,1026L1129,971Z" fill="#c3beda" stroke="#c3beda" stroke-width="1.51"/><path d="M1026,484L1037,723L1131,648Z" fill="#e8e9f1" stroke="#e8e9f1" stroke-width="1.51"/><path d="M894,1013L871,1116L1048,1187Z" fill="#b3a1c7" stroke="#b3a1c7" stroke-width="1.51"/><path d="M1051,256L930,278L1053,411Z" fill="#fae1c6" stroke="#fae1c6" stroke-width="1.51"/><path d="M894,1013L1048,1187L1091,1026Z" fill="#b3a7cb" stroke="#b3a7cb" stroke-width="1.51"/><path d="M1013,808L894,1013L1091,1026Z" fill="#c6c0da" stroke="#c6c0da" stroke-width="1.51"/><path d="M840,92L930,278L1001,54Z" fill="#fcc999" stroke="#fcc999" stroke-width="1.51"/><path d="M897,570L842,656L1037,723Z" fill="#eeecef" stroke="#eeecef" stroke-width="1.51"/><path d="M897,1322L1016,1332L1048,1187Z" fill="#9b80af" stroke="#9b80af" stroke-width="1.51"/><path d="M1001,54L930,278L1051,256Z" fill="#fdd3a9" stroke="#fdd3a9" stroke-width="1.51"/><path d="M868,423L1026,484L1053,411Z" fill="#f8eee2" stroke="#f8eee2" stroke-width="1.51"/><path d="M930,278L868,423L1053,411Z" fill="#fcead4" stroke="#fcead4" stroke-width="1.51"/><path d="M830,821L894,1013L1013,808Z" fill="#d4ccdd" stroke="#d4ccdd" stroke-width="1.51"/><path d="M871,1116L897,1322L1048,1187Z" fill="#a789bb" stroke="#a789bb" stroke-width="1.51"/><path d="M1017,-159L864,-7L1035,-58Z" fill="#e4ab82" stroke="#e4ab82" stroke-width="1.51"/><path d="M864,-7L1001,54L1035,-58Z" fill="#efb487" stroke="#efb487" stroke-width="1.51"/><path d="M842,656L1013,808L1037,723Z" fill="#e4e5ef" stroke="#e4e5ef" stroke-width="1.51"/><path d="M842,656L830,821L1013,808Z" fill="#e3dde4" stroke="#e3dde4" stroke-width="1.51"/><path d="M868,423L897,570L1026,484Z" fill="#f9f2e9" stroke="#f9f2e9" stroke-width="1.51"/><path d="M785,-194L864,-7L1017,-159Z" fill="#dea277" stroke="#dea277" stroke-width="1.51"/><path d="M837,-244L785,-194L1017,-159Z" fill="#d19a73" stroke="#d19a73" stroke-width="1.51"/><path d="M864,-7L840,92L1001,54Z" fill="#f5b983" stroke="#f5b983" stroke-width="1.51"/><path d="M561,1261L407,1286L695,1288Z" fill="#a36878" stroke="#a36878" stroke-width="1.51"/><path d="M830,821L749,990L894,1013Z" fill="#cdbdca" stroke="#cdbdca" stroke-width="1.51"/><path d="M871,1116L768,1152L897,1322Z" fill="#ab87b1" stroke="#ab87b1" stroke-width="1.51"/><path d="M840,92L735,235L930,278Z" fill="#ffd09a" stroke="#ffd09a" stroke-width="1.51"/><path d="M735,235L785,349L930,278Z" fill="#ffdaad" stroke="#ffdaad" stroke-width="1.51"/><path d="M785,349L868,423L930,278Z" fill="#fee3c2" stroke="#fee3c2" stroke-width="1.51"/><path d="M749,990L871,1116L894,1013Z" fill="#beacc1" stroke="#beacc1" stroke-width="1.51"/><path d="M768,1152L695,1288L897,1322Z" fill="#a37c9e" stroke="#a37c9e" stroke-width="1.51"/><path d="M868,423L717,544L897,570Z" fill="#fbeedf" stroke="#fbeedf" stroke-width="1.51"/><path d="M717,544L842,656L897,570Z" fill="#f5ebe2" stroke="#f5ebe2" stroke-width="1.51"/><path d="M785,-194L679,-55L864,-7Z" fill="#e2a26a" stroke="#e2a26a" stroke-width="1.51"/><path d="M714,714L830,821L842,656Z" fill="#e8ddd9" stroke="#e8ddd9" stroke-width="1.51"/><path d="M743,59L840,92L864,-7Z" fill="#f5b578" stroke="#f5b578" stroke-width="1.51"/><path d="M785,349L717,544L868,423Z" fill="#fde8cc" stroke="#fde8cc" stroke-width="1.51"/><path d="M749,990L768,1152L871,1116Z" fill="#b99fb7" stroke="#b99fb7" stroke-width="1.51"/><path d="M679,-55L743,59L864,-7Z" fill="#edac6d" stroke="#edac6d" stroke-width="1.51"/><path d="M99,-172L312,-161L448,-194Z" fill="#c36d17" stroke="#c36d17" stroke-width="1.51"/><path d="M699,821L749,990L830,821Z" fill="#d8c5c9" stroke="#d8c5c9" stroke-width="1.51"/><path d="M714,714L699,821L830,821Z" fill="#e3d3ce" stroke="#e3d3ce" stroke-width="1.51"/><path d="M636,-194L785,-194L837,-244Z" fill="#ce9363" stroke="#ce9363" stroke-width="1.51"/><path d="M743,59L735,235L840,92Z" fill="#fac183" stroke="#fac183" stroke-width="1.51"/><path d="M717,544L714,714L842,656Z" fill="#f2e5d8" stroke="#f2e5d8" stroke-width="1.51"/><path d="M636,-194L630,-93L679,-55Z" fill="#dd9655" stroke="#dd9655" stroke-width="1.51"/><path d="M634,240L735,235L743,59Z" fill="#fdc583" stroke="#fdc583" stroke-width="1.51"/><path d="M749,990L627,1137L768,1152Z" fill="#ba99ab" stroke="#ba99ab" stroke-width="1.51"/><path d="M584,392L717,544L785,349Z" fill="#fee1bc" stroke="#fee1bc" stroke-width="1.51"/><path d="M735,235L634,240L785,349Z" fill="#ffd49c" stroke="#ffd49c" stroke-width="1.51"/><path d="M634,240L584,392L785,349Z" fill="#ffd5a1" stroke="#ffd5a1" stroke-width="1.51"/><path d="M636,-194L679,-55L785,-194Z" fill="#d8975d" stroke="#d8975d" stroke-width="1.51"/><path d="M562,129L634,240L743,59Z" fill="#fabb72" stroke="#fabb72" stroke-width="1.51"/><path d="M627,1137L695,1288L768,1152Z" fill="#ad809e" stroke="#ad809e" stroke-width="1.51"/><path d="M576,560L714,714L717,544Z" fill="#f7e1cb" stroke="#f7e1cb" stroke-width="1.51"/><path d="M699,821L551,994L749,990Z" fill="#d1b5b4" stroke="#d1b5b4" stroke-width="1.51"/><path d="M551,994L627,1137L749,990Z" fill="#c2a0a5" stroke="#c2a0a5" stroke-width="1.51"/><path d="M679,-55L562,129L743,59Z" fill="#f3ac60" stroke="#f3ac60" stroke-width="1.51"/><path d="M576,560L575,730L714,714Z" fill="#f2d8c1" stroke="#f2d8c1" stroke-width="1.51"/><path d="M584,392L576,560L717,544Z" fill="#fee0be" stroke="#fee0be" stroke-width="1.51"/><path d="M627,1137L561,1261L695,1288Z" fill="#aa758d" stroke="#aa758d" stroke-width="1.51"/><path d="M585,791L551,994L699,821Z" fill="#dcbcb3" stroke="#dcbcb3" stroke-width="1.51"/><path d="M585,791L699,821L714,714Z" fill="#e6cec2" stroke="#e6cec2" stroke-width="1.51"/><path d="M575,730L585,791L714,714Z" fill="#eacfbd" stroke="#eacfbd" stroke-width="1.51"/><path d="M630,-93L477,-20L679,-55Z" fill="#e4994f" stroke="#e4994f" stroke-width="1.51"/><path d="M477,-20L562,129L679,-55Z" fill="#eea14f" stroke="#eea14f" stroke-width="1.51"/><path d="M441,248L584,392L634,240Z" fill="#ffc885" stroke="#ffc885" stroke-width="1.51"/><path d="M448,-194L630,-93L636,-194Z" fill="#d48b47" stroke="#d48b47" stroke-width="1.51"/><path d="M551,994L481,1006L627,1137Z" fill="#c39796" stroke="#c39796" stroke-width="1.51"/><path d="M562,129L441,248L634,240Z" fill="#fdbd6e" stroke="#fdbd6e" stroke-width="1.51"/><path d="M448,-194L477,-20L630,-93Z" fill="#dc8c3f" stroke="#dc8c3f" stroke-width="1.51"/><path d="M388,1174L561,1261L627,1137Z" fill="#b07283" stroke="#b07283" stroke-width="1.51"/><path d="M481,1006L388,1174L627,1137Z" fill="#bc8488" stroke="#bc8488" stroke-width="1.51"/><path d="M414,578L380,741L575,730Z" fill="#f2c8a5" stroke="#f2c8a5" stroke-width="1.51"/><path d="M380,741L383,820L575,730Z" fill="#e8bc9f" stroke="#e8bc9f" stroke-width="1.51"/><path d="M414,578L575,730L576,560Z" fill="#f7d3b2" stroke="#f7d3b2" stroke-width="1.51"/><path d="M441,248L382,362L584,392Z" fill="#fec681" stroke="#fec681" stroke-width="1.51"/><path d="M414,578L576,560L584,392Z" fill="#ffd9af" stroke="#ffd9af" stroke-width="1.51"/><path d="M382,362L414,578L584,392Z" fill="#ffce97" stroke="#ffce97" stroke-width="1.51"/><path d="M481,1006L551,994L585,791Z" fill="#d4aba0" stroke="#d4aba0" stroke-width="1.51"/><path d="M383,820L481,1006L585,791Z" fill="#ddb19c" stroke="#ddb19c" stroke-width="1.51"/><path d="M575,730L383,820L585,791Z" fill="#e8c1a9" stroke="#e8c1a9" stroke-width="1.51"/><path d="M477,-20L398,119L562,129Z" fill="#f2a246" stroke="#f2a246" stroke-width="1.51"/><path d="M388,1174L407,1286L561,1261Z" fill="#a86470" stroke="#a86470" stroke-width="1.51"/><path d="M398,119L441,248L562,129Z" fill="#f9af58" stroke="#f9af58" stroke-width="1.51"/><path d="M302,1256L123,1345L407,1286Z" fill="#974a4f" stroke="#974a4f" stroke-width="1.51"/><path d="M298,-33L398,119L477,-20Z" fill="#e79030" stroke="#e79030" stroke-width="1.51"/><path d="M448,-194L312,-161L477,-20Z" fill="#d3802d" stroke="#d3802d" stroke-width="1.51"/><path d="M312,-161L298,-33L477,-20Z" fill="#d88027" stroke="#d88027" stroke-width="1.51"/><path d="M383,820L293,829L481,1006Z" fill="#d8a48e" stroke="#d8a48e" stroke-width="1.51"/><path d="M293,829L239,1039L481,1006Z" fill="#ca927f" stroke="#ca927f" stroke-width="1.51"/><path d="M239,1039L388,1174L481,1006Z" fill="#bb7f78" stroke="#bb7f78" stroke-width="1.51"/><path d="M250,391L228,518L382,362Z" fill="#f7b97a" stroke="#f7b97a" stroke-width="1.51"/><path d="M298,-33L303,99L398,119Z" fill="#e88f2c" stroke="#e88f2c" stroke-width="1.51"/><path d="M382,362L228,518L414,578Z" fill="#fac38e" stroke="#fac38e" stroke-width="1.51"/><path d="M398,119L329,232L441,248Z" fill="#f7ac54" stroke="#f7ac54" stroke-width="1.51"/><path d="M329,232L382,362L441,248Z" fill="#f9b567" stroke="#f9b567" stroke-width="1.51"/><path d="M239,1039L238,1120L388,1174Z" fill="#b36d6a" stroke="#b36d6a" stroke-width="1.51"/><path d="M313,739L380,741L414,578Z" fill="#eebe98" stroke="#eebe98" stroke-width="1.51"/><path d="M388,1174L302,1256L407,1286Z" fill="#a45b65" stroke="#a45b65" stroke-width="1.51"/><path d="M228,518L313,739L414,578Z" fill="#f3be93" stroke="#f3be93" stroke-width="1.51"/><path d="M303,99L329,232L398,119Z" fill="#f09e42" stroke="#f09e42" stroke-width="1.51"/><path d="M380,741L313,739L383,820Z" fill="#e5b292" stroke="#e5b292" stroke-width="1.51"/><path d="M329,232L250,391L382,362Z" fill="#f7b46a" stroke="#f7b46a" stroke-width="1.51"/><path d="M313,739L293,829L383,820Z" fill="#e1ab8c" stroke="#e1ab8c" stroke-width="1.51"/><path d="M238,1120L302,1256L388,1174Z" fill="#aa5d67" stroke="#aa5d67" stroke-width="1.51"/><path d="M25,1324L-129,1342L123,1345Z" fill="#7a2d3a" stroke="#7a2d3a" stroke-width="1.51"/><path d="M97,564L79,717L228,518Z" fill="#e6ac84" stroke="#e6ac84" stroke-width="1.51"/><path d="M137,982L239,1039L293,829Z" fill="#c68672" stroke="#c68672" stroke-width="1.51"/><path d="M139,865L137,982L293,829Z" fill="#cc8e77" stroke="#cc8e77" stroke-width="1.51"/><path d="M298,-33L171,49L303,99Z" fill="#e08318" stroke="#e08318" stroke-width="1.51"/><path d="M138,-83L298,-33L312,-161Z" fill="#cd7110" stroke="#cd7110" stroke-width="1.51"/><path d="M228,518L79,717L313,739Z" fill="#e8ae85" stroke="#e8ae85" stroke-width="1.51"/><path d="M303,99L187,212L329,232Z" fill="#ee9b3e" stroke="#ee9b3e" stroke-width="1.51"/><path d="M187,212L250,391L329,232Z" fill="#f2a654" stroke="#f2a654" stroke-width="1.51"/><path d="M139,865L293,829L313,739Z" fill="#dba080" stroke="#dba080" stroke-width="1.51"/><path d="M79,717L139,865L313,739Z" fill="#d99e7f" stroke="#d99e7f" stroke-width="1.51"/><path d="M99,-172L138,-83L312,-161Z" fill="#c1660b" stroke="#c1660b" stroke-width="1.51"/><path d="M238,1120L98,1140L302,1256Z" fill="#a6565d" stroke="#a6565d" stroke-width="1.51"/><path d="M98,1140L123,1345L302,1256Z" fill="#974651" stroke="#974651" stroke-width="1.51"/><path d="M171,49L187,212L303,99Z" fill="#e58c2a" stroke="#e58c2a" stroke-width="1.51"/><path d="M187,212L115,337L250,391Z" fill="#eda459" stroke="#eda459" stroke-width="1.51"/><path d="M138,-83L171,49L298,-33Z" fill="#d37610" stroke="#d37610" stroke-width="1.51"/><path d="M115,337L228,518L250,391Z" fill="#f0af70" stroke="#f0af70" stroke-width="1.51"/><path d="M115,337L97,564L228,518Z" fill="#ecaf79" stroke="#ecaf79" stroke-width="1.51"/><path d="M98,1140L238,1120L239,1039Z" fill="#ae6663" stroke="#ae6663" stroke-width="1.51"/><path d="M137,982L98,1140L239,1039Z" fill="#b06e65" stroke="#b06e65" stroke-width="1.51"/><path d="M-19,430L97,564L115,337Z" fill="#e4a571" stroke="#e4a571" stroke-width="1.51"/><path d="M98,1140L25,1324L123,1345Z" fill="#8b3b49" stroke="#8b3b49" stroke-width="1.51"/><path d="M-71,89L30,251L171,49Z" fill="#d67e26" stroke="#d67e26" stroke-width="1.51"/><path d="M171,49L30,251L187,212Z" fill="#e18c33" stroke="#e18c33" stroke-width="1.51"/><path d="M30,251L115,337L187,212Z" fill="#e5984a" stroke="#e5984a" stroke-width="1.51"/><path d="M138,-83L-18,-108L171,49Z" fill="#c6690c" stroke="#c6690c" stroke-width="1.51"/><path d="M-18,-108L-71,89L171,49Z" fill="#c76b0c" stroke="#c76b0c" stroke-width="1.51"/><path d="M-18,1165L25,1324L98,1140Z" fill="#903f52" stroke="#903f52" stroke-width="1.51"/><path d="M-42,1010L98,1140L137,982Z" fill="#aa6862" stroke="#aa6862" stroke-width="1.51"/><path d="M99,-172L-18,-108L138,-83Z" fill="#ba5e08" stroke="#ba5e08" stroke-width="1.51"/><path d="M79,717L-46,800L139,865Z" fill="#cc9078" stroke="#cc9078" stroke-width="1.51"/><path d="M-42,1010L137,982L139,865Z" fill="#b87a6c" stroke="#b87a6c" stroke-width="1.51"/><path d="M-46,800L-42,1010L139,865Z" fill="#bc7f70" stroke="#bc7f70" stroke-width="1.51"/><path d="M-13,581L79,717L97,564Z" fill="#dda480" stroke="#dda480" stroke-width="1.51"/><path d="M-19,430L-13,581L97,564Z" fill="#e1a77e" stroke="#e1a77e" stroke-width="1.51"/><path d="M-42,1010L-18,1165L98,1140Z" fill="#9c555b" stroke="#9c555b" stroke-width="1.51"/><path d="M30,251L-19,430L115,337Z" fill="#e09a5a" stroke="#e09a5a" stroke-width="1.51"/><path d="M-13,581L-67,653L79,717Z" fill="#d59d7d" stroke="#d59d7d" stroke-width="1.51"/><path d="M-19,-185L-18,-108L99,-172Z" fill="#af5707" stroke="#af5707" stroke-width="1.51"/><path d="M-67,653L-46,800L79,717Z" fill="#cd957a" stroke="#cd957a" stroke-width="1.51"/><path d="M-46,800L-184,874L-42,1010Z" fill="#af776c" stroke="#af776c" stroke-width="1.51"/><path d="M-18,1165L-139,1193L25,1324Z" fill="#85384c" stroke="#85384c" stroke-width="1.51"/><path d="M-139,1193L-129,1342L25,1324Z" fill="#782e41" stroke="#782e41" stroke-width="1.51"/><path d="M-71,89L-178,192L30,251Z" fill="#cd7d30" stroke="#cd7d30" stroke-width="1.51"/><path d="M-178,192L-116,360L30,251Z" fill="#d18845" stroke="#d18845" stroke-width="1.51"/><path d="M-116,360L-19,430L30,251Z" fill="#d8955a" stroke="#d8955a" stroke-width="1.51"/><path d="M-184,874L-165,1007L-42,1010Z" fill="#a16964" stroke="#a16964" stroke-width="1.51"/><path d="M-165,1007L-139,1193L-42,1010Z" fill="#93565b" stroke="#93565b" stroke-width="1.51"/><path d="M-116,360L-212,531L-19,430Z" fill="#d0976b" stroke="#d0976b" stroke-width="1.51"/><path d="M-198,-58L-71,89L-18,-108Z" fill="#b55e0a" stroke="#b55e0a" stroke-width="1.51"/><path d="M-19,-185L-197,-202L-18,-108Z" fill="#a34f07" stroke="#a34f07" stroke-width="1.51"/><path d="M-42,1010L-139,1193L-18,1165Z" fill="#924c57" stroke="#924c57" stroke-width="1.51"/><path d="M-170,646L-67,653L-13,581Z" fill="#ce997c" stroke="#ce997c" stroke-width="1.51"/><path d="M-212,531L-170,646L-13,581Z" fill="#cb997c" stroke="#cb997c" stroke-width="1.51"/><path d="M-19,430L-212,531L-13,581Z" fill="#d59e7a" stroke="#d59e7a" stroke-width="1.51"/><path d="M-197,-202L-198,-58L-18,-108Z" fill="#a34f07" stroke="#a34f07" stroke-width="1.51"/><path d="M-67,653L-170,646L-46,800Z" fill="#c69279" stroke="#c69279" stroke-width="1.51"/><path d="M-170,646L-184,874L-46,800Z" fill="#b98574" stroke="#b98574" stroke-width="1.51"/><path d="M-204,137L-178,192L-71,89Z" fill="#c17227" stroke="#c17227" stroke-width="1.51"/><path d="M-198,-58L-204,137L-71,89Z" fill="#b86511" stroke="#b86511" stroke-width="1.51"/><path d="M-165,1007L-184,874L-129,1342Z" fill="#8d5259" stroke="#8d5259" stroke-width="1.51"/><path d="M-178,192L-212,531L-116,360Z" fill="#c98e5b" stroke="#c98e5b" stroke-width="1.51"/><path d="M-139,1193L-165,1007L-129,1342Z" fill="#813950" stroke="#813950" stroke-width="1.51"/><path d="M-204,137L-212,531L-178,192Z" fill="#c48348" stroke="#c48348" stroke-width="1.51"/><path d="M-212,531L-184,874L-170,646Z" fill="#bc8d78" stroke="#bc8d78" stroke-width="1.51"/><path d="M-204,137L-198,-58L-197,-202Z" fill="#a7560a" stroke="#a7560a" stroke-width="1.51"/></svg>