<svg xmlns="http://www.w3.org/2000/svg" width="1920" height="1080"><path d="M-197,-202L-19,-185L448,-194Z" fill="#ebe5f1" stroke="#ebe5f1" stroke-width="1.51"/><path d="M-197,-202L448,-194L837,-244Z" fill="#e3d3e8" stroke="#e3d3e8" stroke-width="1.51"/><path d="M897,1322L123,1345L1016,1332Z" fill="#a04f70" stroke="#a04f70" stroke-width="1.51"/><path d="M837,-244L1155,-230L1369,-265Z" fill="#f2a3c8" stroke="#f2a3c8" stroke-width="1.51"/><path d="M1016,1332L123,1345L1668,1345Z" fill="#a63866" stroke="#a63866" stroke-width="1.51"/><path d="M1451,1329L1016,1332L1668,1345Z" fill="#a40f4b" stroke="#a40f4b" stroke-width="1.51"/><path d="M1654,-192L1821,-173L1911,-185Z" fill="#d18699" stroke="#d18699" stroke-width="1.51"/><path d="M1654,-192L1911,-185L2060,-232Z" fill="#ca8496" stroke="#ca8496" stroke-width="1.51"/><path d="M1516,-223L1654,-192L2060,-232Z" fill="#d88a9b" stroke="#d88a9b" stroke-width="1.51"/><path d="M1369,-265L1516,-223L2060,-232Z" fill="#e28e9f" stroke="#e28e9f" stroke-width="1.51"/><path d="M1966,836L2063,873L2076,642Z" fill="#ae1255" stroke="#ae1255" stroke-width="1.51"/><path d="M1952,652L1966,836L2076,642Z" fill="#b31e60" stroke="#b31e60" stroke-width="1.51"/><path d="M2070,987L1968,1181L2098,1144Z" fill="#8f023a" stroke="#8f023a" stroke-width="1.51"/><path d="M2076,642L2063,873L2098,1144Z" fill="#a40b46" stroke="#a40b46" stroke-width="1.51"/><path d="M2063,873L2070,987L2098,1144Z" fill="#9a053c" stroke="#9a053c" stroke-width="1.51"/><path d="M2047,56L1886,188L2100,282Z" fill="#ae627e" stroke="#ae627e" stroke-width="1.51"/><path d="M2079,-104L2047,56L2100,282Z" fill="#ad697e" stroke="#ad697e" stroke-width="1.51"/><path d="M2100,282L1956,361L2118,381Z" fill="#a45174" stroke="#a45174" stroke-width="1.51"/><path d="M1956,361L2053,487L2118,381Z" fill="#a84a71" stroke="#a84a71" stroke-width="1.51"/><path d="M2053,487L2076,642L2118,381Z" fill="#a83c6a" stroke="#a83c6a" stroke-width="1.51"/><path d="M2076,642L2098,1144L2118,381Z" fill="#aa1957" stroke="#aa1957" stroke-width="1.51"/><path d="M2079,-104L2100,282L2118,381Z" fill="#a65e77" stroke="#a65e77" stroke-width="1.51"/><path d="M2098,1144L1968,1181L2118,1295Z" fill="#810032" stroke="#810032" stroke-width="1.51"/><path d="M1968,1181L1940,1323L2118,1295Z" fill="#7e0030" stroke="#7e0030" stroke-width="1.51"/><path d="M2118,381L2098,1144L2118,1295Z" fill="#9e083e" stroke="#9e083e" stroke-width="1.51"/><path d="M1907,1007L1968,1181L2070,987Z" fill="#9b0340" stroke="#9b0340" stroke-width="1.51"/><path d="M2053,487L1915,557L2076,642Z" fill="#af356b" stroke="#af356b" stroke-width="1.51"/><path d="M1915,557L1952,652L2076,642Z" fill="#b32e68" stroke="#b32e68" stroke-width="1.51"/><path d="M1909,-80L2047,56L2079,-104Z" fill="#b87787" stroke="#b87787" stroke-width="1.51"/><path d="M1886,188L1956,361L2100,282Z" fill="#ad597c" stroke="#ad597c" stroke-width="1.51"/><path d="M1909,-80L1935,50L2047,56Z" fill="#ba7388" stroke="#ba7388" stroke-width="1.51"/><path d="M1935,50L1886,188L2047,56Z" fill="#b66b85" stroke="#b66b85" stroke-width="1.51"/><path d="M2063,873L1966,836L2070,987Z" fill="#a70b48" stroke="#a70b48" stroke-width="1.51"/><path d="M1966,836L1907,1007L2070,987Z" fill="#a90846" stroke="#a90846" stroke-width="1.51"/><path d="M2060,-232L1911,-185L2079,-104Z" fill="#bd7e8b" stroke="#bd7e8b" stroke-width="1.51"/><path d="M1911,-185L1909,-80L2079,-104Z" fill="#bf7d8d" stroke="#bf7d8d" stroke-width="1.51"/><path d="M1956,361L1915,557L2053,487Z" fill="#b04473" stroke="#b04473" stroke-width="1.51"/><path d="M695,1288L123,1345L897,1322Z" fill="#a35774" stroke="#a35774" stroke-width="1.51"/><path d="M1830,1272L1668,1345L1940,1323Z" fill="#890137" stroke="#890137" stroke-width="1.51"/><path d="M1752,659L1839,888L1952,652Z" fill="#c01a67" stroke="#c01a67" stroke-width="1.51"/><path d="M1886,188L1729,274L1956,361Z" fill="#b85e84" stroke="#b85e84" stroke-width="1.51"/><path d="M1794,422L1915,557L1956,361Z" fill="#b7497a" stroke="#b7497a" stroke-width="1.51"/><path d="M1952,652L1839,888L1966,836Z" fill="#b7125c" stroke="#b7125c" stroke-width="1.51"/><path d="M1839,888L1907,1007L1966,836Z" fill="#b10b4f" stroke="#b10b4f" stroke-width="1.51"/><path d="M1907,1007L1835,1137L1968,1181Z" fill="#9b0143" stroke="#9b0143" stroke-width="1.51"/><path d="M1830,1272L1940,1323L1968,1181Z" fill="#870036" stroke="#870036" stroke-width="1.51"/><path d="M1835,1137L1830,1272L1968,1181Z" fill="#92003e" stroke="#92003e" stroke-width="1.51"/><path d="M1729,274L1794,422L1956,361Z" fill="#b95682" stroke="#b95682" stroke-width="1.51"/><path d="M1915,557L1752,659L1952,652Z" fill="#bd2f6f" stroke="#bd2f6f" stroke-width="1.51"/><path d="M1794,422L1776,529L1915,557Z" fill="#bf427a" stroke="#bf427a" stroke-width="1.51"/><path d="M1746,43L1886,188L1935,50Z" fill="#be6f8c" stroke="#be6f8c" stroke-width="1.51"/><path d="M1909,-80L1772,-42L1935,50Z" fill="#c37990" stroke="#c37990" stroke-width="1.51"/><path d="M1821,-173L1909,-80L1911,-185Z" fill="#c88194" stroke="#c88194" stroke-width="1.51"/><path d="M1772,-42L1746,43L1935,50Z" fill="#c67791" stroke="#c67791" stroke-width="1.51"/><path d="M1839,888L1762,989L1907,1007Z" fill="#b4084c" stroke="#b4084c" stroke-width="1.51"/><path d="M1762,989L1835,1137L1907,1007Z" fill="#a90549" stroke="#a90549" stroke-width="1.51"/><path d="M1776,529L1752,659L1915,557Z" fill="#c13775" stroke="#c13775" stroke-width="1.51"/><path d="M1821,-173L1772,-42L1909,-80Z" fill="#cb8196" stroke="#cb8196" stroke-width="1.51"/><path d="M407,1286L123,1345L695,1288Z" fill="#a9617a" stroke="#a9617a" stroke-width="1.51"/><path d="M1746,43L1729,274L1886,188Z" fill="#c26a8b" stroke="#c26a8b" stroke-width="1.51"/><path d="M1664,231L1729,274L1746,43Z" fill="#c86b8d" stroke="#c86b8d" stroke-width="1.51"/><path d="M1582,1190L1668,1345L1830,1272Z" fill="#99033e" stroke="#99033e" stroke-width="1.51"/><path d="M1582,1190L1830,1272L1835,1137Z" fill="#9d0343" stroke="#9d0343" stroke-width="1.51"/><path d="M1591,892L1762,989L1839,888Z" fill="#c00f54" stroke="#c00f54" stroke-width="1.51"/><path d="M1752,659L1591,892L1839,888Z" fill="#c71662" stroke="#c71662" stroke-width="1.51"/><path d="M1762,989L1582,1190L1835,1137Z" fill="#ab0549" stroke="#ab0549" stroke-width="1.51"/><path d="M1654,-192L1772,-42L1821,-173Z" fill="#d48699" stroke="#d48699" stroke-width="1.51"/><path d="M1729,274L1687,411L1794,422Z" fill="#c25784" stroke="#c25784" stroke-width="1.51"/><path d="M1601,655L1591,892L1752,659Z" fill="#d31f6d" stroke="#d31f6d" stroke-width="1.51"/><path d="M1591,892L1601,952L1762,989Z" fill="#c61054" stroke="#c61054" stroke-width="1.51"/><path d="M1654,-192L1633,-69L1772,-42Z" fill="#d9869b" stroke="#d9869b" stroke-width="1.51"/><path d="M1687,411L1776,529L1794,422Z" fill="#c44b80" stroke="#c44b80" stroke-width="1.51"/><path d="M1593,44L1664,231L1746,43Z" fill="#d07492" stroke="#d07492" stroke-width="1.51"/><path d="M1601,952L1582,1190L1762,989Z" fill="#ba0b4f" stroke="#ba0b4f" stroke-width="1.51"/><path d="M1613,535L1752,659L1776,529Z" fill="#cb3b79" stroke="#cb3b79" stroke-width="1.51"/><path d="M1687,411L1613,535L1776,529Z" fill="#cb4880" stroke="#cb4880" stroke-width="1.51"/><path d="M1633,-69L1746,43L1772,-42Z" fill="#d27f96" stroke="#d27f96" stroke-width="1.51"/><path d="M1613,535L1601,655L1752,659Z" fill="#d13678" stroke="#d13678" stroke-width="1.51"/><path d="M1633,-69L1593,44L1746,43Z" fill="#d67e97" stroke="#d67e97" stroke-width="1.51"/><path d="M1506,788L1591,892L1601,655Z" fill="#d81d6c" stroke="#d81d6c" stroke-width="1.51"/><path d="M1664,231L1687,411L1729,274Z" fill="#c66089" stroke="#c66089" stroke-width="1.51"/><path d="M1226,1277L1016,1332L1451,1329Z" fill="#ab1959" stroke="#ab1959" stroke-width="1.51"/><path d="M1482,1158L1582,1190L1601,952Z" fill="#ba0b4f" stroke="#ba0b4f" stroke-width="1.51"/><path d="M1593,44L1494,184L1664,231Z" fill="#d67293" stroke="#d67293" stroke-width="1.51"/><path d="M1664,231L1528,399L1687,411Z" fill="#cc5d8a" stroke="#cc5d8a" stroke-width="1.51"/><path d="M1528,399L1613,535L1687,411Z" fill="#d15085" stroke="#d15085" stroke-width="1.51"/><path d="M1494,184L1528,399L1664,231Z" fill="#d4678f" stroke="#d4678f" stroke-width="1.51"/><path d="M1582,1190L1451,1329L1668,1345Z" fill="#a20740" stroke="#a20740" stroke-width="1.51"/><path d="M1516,-223L1633,-69L1654,-192Z" fill="#e38c9f" stroke="#e38c9f" stroke-width="1.51"/><path d="M1468,951L1482,1158L1601,952Z" fill="#c71156" stroke="#c71156" stroke-width="1.51"/><path d="M1500,636L1601,655L1613,535Z" fill="#d8397b" stroke="#d8397b" stroke-width="1.51"/><path d="M1458,-12L1593,44L1633,-69Z" fill="#e1839b" stroke="#e1839b" stroke-width="1.51"/><path d="M1516,-223L1458,-12L1633,-69Z" fill="#e68ca1" stroke="#e68ca1" stroke-width="1.51"/><path d="M1458,-12L1482,42L1593,44Z" fill="#e0819e" stroke="#e0819e" stroke-width="1.51"/><path d="M1482,42L1494,184L1593,44Z" fill="#dc7a9a" stroke="#dc7a9a" stroke-width="1.51"/><path d="M1500,636L1506,788L1601,655Z" fill="#dc2b76" stroke="#dc2b76" stroke-width="1.51"/><path d="M1528,399L1464,551L1613,535Z" fill="#d84b86" stroke="#d84b86" stroke-width="1.51"/><path d="M1464,551L1500,636L1613,535Z" fill="#da4082" stroke="#da4082" stroke-width="1.51"/><path d="M1482,1158L1451,1329L1582,1190Z" fill="#ad0a4b" stroke="#ad0a4b" stroke-width="1.51"/><path d="M1591,892L1468,951L1601,952Z" fill="#d01459" stroke="#d01459" stroke-width="1.51"/><path d="M1494,184L1381,271L1528,399Z" fill="#d76997" stroke="#d76997" stroke-width="1.51"/><path d="M1506,788L1468,951L1591,892Z" fill="#d41862" stroke="#d41862" stroke-width="1.51"/><path d="M-19,-185L99,-172L448,-194Z" fill="#e8deed" stroke="#e8deed" stroke-width="1.51"/><path d="M1468,951L1318,994L1482,1158Z" fill="#c9145d" stroke="#c9145d" stroke-width="1.51"/><path d="M1500,636L1348,716L1506,788Z" fill="#df2a7c" stroke="#df2a7c" stroke-width="1.51"/><path d="M1350,786L1468,951L1506,788Z" fill="#da1e6e" stroke="#da1e6e" stroke-width="1.51"/><path d="M1352,-26L1458,-12L1516,-223Z" fill="#e98eaa" stroke="#e98eaa" stroke-width="1.51"/><path d="M1369,-265L1352,-26L1516,-223Z" fill="#ed92ae" stroke="#ed92ae" stroke-width="1.51"/><path d="M1349,444L1464,551L1528,399Z" fill="#da538f" stroke="#da538f" stroke-width="1.51"/><path d="M1381,271L1349,444L1528,399Z" fill="#d86097" stroke="#d86097" stroke-width="1.51"/><path d="M1345,1166L1451,1329L1482,1158Z" fill="#b10e52" stroke="#b10e52" stroke-width="1.51"/><path d="M1318,994L1345,1166L1482,1158Z" fill="#c1135e" stroke="#c1135e" stroke-width="1.51"/><path d="M1482,42L1353,63L1494,184Z" fill="#df7ca1" stroke="#df7ca1" stroke-width="1.51"/><path d="M1348,716L1350,786L1506,788Z" fill="#e1237b" stroke="#e1237b" stroke-width="1.51"/><path d="M1280,1263L1226,1277L1451,1329Z" fill="#ac1254" stroke="#ac1254" stroke-width="1.51"/><path d="M1464,551L1318,591L1500,636Z" fill="#de4089" stroke="#de4089" stroke-width="1.51"/><path d="M1318,591L1348,716L1500,636Z" fill="#e13887" stroke="#e13887" stroke-width="1.51"/><path d="M1353,63L1381,271L1494,184Z" fill="#dd75a1" stroke="#dd75a1" stroke-width="1.51"/><path d="M1350,786L1318,994L1468,951Z" fill="#d81c6a" stroke="#d81c6a" stroke-width="1.51"/><path d="M1458,-12L1353,63L1482,42Z" fill="#e383a6" stroke="#e383a6" stroke-width="1.51"/><path d="M1345,1166L1280,1263L1451,1329Z" fill="#af1054" stroke="#af1054" stroke-width="1.51"/><path d="M1352,-26L1353,63L1458,-12Z" fill="#e686aa" stroke="#e686aa" stroke-width="1.51"/><path d="M1349,444L1318,591L1464,551Z" fill="#df4b92" stroke="#df4b92" stroke-width="1.51"/><path d="M1225,484L1318,591L1349,444Z" fill="#e1519b" stroke="#e1519b" stroke-width="1.51"/><path d="M1195,855L1318,994L1350,786Z" fill="#de2176" stroke="#de2176" stroke-width="1.51"/><path d="M1232,55L1181,203L1353,63Z" fill="#e480b2" stroke="#e480b2" stroke-width="1.51"/><path d="M1218,-68L1352,-26L1369,-265Z" fill="#ee93b7" stroke="#ee93b7" stroke-width="1.51"/><path d="M1155,-230L1218,-68L1369,-265Z" fill="#f299bf" stroke="#f299bf" stroke-width="1.51"/><path d="M1198,387L1349,444L1381,271Z" fill="#db64a1" stroke="#db64a1" stroke-width="1.51"/><path d="M1181,203L1198,387L1381,271Z" fill="#dd6eaa" stroke="#dd6eaa" stroke-width="1.51"/><path d="M1353,63L1181,203L1381,271Z" fill="#df78aa" stroke="#df78aa" stroke-width="1.51"/><path d="M448,-194L636,-194L837,-244Z" fill="#dec1de" stroke="#dec1de" stroke-width="1.51"/><path d="M1318,994L1164,1195L1345,1166Z" fill="#c41766" stroke="#c41766" stroke-width="1.51"/><path d="M1318,591L1131,648L1348,716Z" fill="#e63c92" stroke="#e63c92" stroke-width="1.51"/><path d="M1198,387L1225,484L1349,444Z" fill="#e05ca2" stroke="#e05ca2" stroke-width="1.51"/><path d="M1348,716L1195,855L1350,786Z" fill="#e32681" stroke="#e32681" stroke-width="1.51"/><path d="M1218,-68L1232,55L1352,-26Z" fill="#ea8cb7" stroke="#ea8cb7" stroke-width="1.51"/><path d="M1352,-26L1232,55L1353,63Z" fill="#e786b1" stroke="#e786b1" stroke-width="1.51"/><path d="M1131,648L1195,855L1348,716Z" fill="#e7308c" stroke="#e7308c" stroke-width="1.51"/><path d="M1164,1195L1280,1263L1345,1166Z" fill="#b91560" stroke="#b91560" stroke-width="1.51"/><path d="M1091,1026L1164,1195L1318,994Z" fill="#ca256e" stroke="#ca256e" stroke-width="1.51"/><path d="M1129,971L1091,1026L1318,994Z" fill="#d42a72" stroke="#d42a72" stroke-width="1.51"/><path d="M1195,855L1129,971L1318,994Z" fill="#db2774" stroke="#db2774" stroke-width="1.51"/><path d="M1225,484L1131,648L1318,591Z" fill="#e44a9c" stroke="#e44a9c" stroke-width="1.51"/><path d="M1164,1195L1226,1277L1280,1263Z" fill="#b41b60" stroke="#b41b60" stroke-width="1.51"/><path d="M1131,648L1037,723L1195,855Z" fill="#e63c93" stroke="#e63c93" stroke-width="1.51"/><path d="M1181,203L1051,256L1198,387Z" fill="#db77b2" stroke="#db77b2" stroke-width="1.51"/><path d="M1155,-230L1035,-58L1218,-68Z" fill="#ed9dc4" stroke="#ed9dc4" stroke-width="1.51"/><path d="M1026,484L1131,648L1225,484Z" fill="#e258a5" stroke="#e258a5" stroke-width="1.51"/><path d="M1001,54L1181,203L1232,55Z" fill="#e289ba" stroke="#e289ba" stroke-width="1.51"/><path d="M1218,-68L1035,-58L1232,55Z" fill="#e993bf" stroke="#e993bf" stroke-width="1.51"/><path d="M1035,-58L1001,54L1232,55Z" fill="#e594c1" stroke="#e594c1" stroke-width="1.51"/><path d="M1017,-159L1035,-58L1155,-230Z" fill="#eca2c9" stroke="#eca2c9" stroke-width="1.51"/><path d="M1198,387L1053,411L1225,484Z" fill="#de65a9" stroke="#de65a9" stroke-width="1.51"/><path d="M1164,1195L1016,1332L1226,1277Z" fill="#b02762" stroke="#b02762" stroke-width="1.51"/><path d="M1053,411L1026,484L1225,484Z" fill="#de65ab" stroke="#de65ab" stroke-width="1.51"/><path d="M837,-244L1017,-159L1155,-230Z" fill="#eda9cf" stroke="#eda9cf" stroke-width="1.51"/><path d="M1091,1026L1048,1187L1164,1195Z" fill="#c12e70" stroke="#c12e70" stroke-width="1.51"/><path d="M1048,1187L1016,1332L1164,1195Z" fill="#b42e69" stroke="#b42e69" stroke-width="1.51"/><path d="M1001,54L1051,256L1181,203Z" fill="#de86bb" stroke="#de86bb" stroke-width="1.51"/><path d="M1037,723L1013,808L1195,855Z" fill="#e23e8e" stroke="#e23e8e" stroke-width="1.51"/><path d="M1051,256L1053,411L1198,387Z" fill="#d972b1" stroke="#d972b1" stroke-width="1.51"/><path d="M1013,808L1129,971L1195,855Z" fill="#de3782" stroke="#de3782" stroke-width="1.51"/><path d="M1026,484L897,570L1037,723Z" fill="#e15da9" stroke="#e15da9" stroke-width="1.51"/><path d="M1013,808L1091,1026L1129,971Z" fill="#db387d" stroke="#db387d" stroke-width="1.51"/><path d="M1026,484L1037,723L1131,648Z" fill="#e354a2" stroke="#e354a2" stroke-width="1.51"/><path d="M894,1013L871,1116L1048,1187Z" fill="#c4407b" stroke="#c4407b" stroke-width="1.51"/><path d="M1051,256L930,278L1053,411Z" fill="#d77cb9" stroke="#d77cb9" stroke-width="1.51"/><path d="M894,1013L1048,1187L1091,1026Z" fill="#c83a78" stroke="#c83a78" stroke-width="1.51"/><path d="M1013,808L894,1013L1091,1026Z" fill="#d94080" stroke="#d94080" stroke-width="1.51"/><path d="M840,92L930,278L1001,54Z" fill="#da93c6" stroke="#da93c6" stroke-width="1.51"/><path d="M897,570L842,656L1037,723Z" fill="#e15ca7" stroke="#e15ca7" stroke-width="1.51"/><path d="M897,1322L1016,1332L1048,1187Z" fill="#ae356a" stroke="#ae356a" stroke-width="1.51"/><path d="M1001,54L930,278L1051,256Z" fill="#db89c0" stroke="#db89c0" stroke-width="1.51"/><path d="M868,423L1026,484L1053,411Z" fill="#db70b4" stroke="#db70b4" stroke-width="1.51"/><path d="M930,278L868,423L1053,411Z" fill="#d77aba" stroke="#d77aba" stroke-width="1.51"/><path d="M830,821L894,1013L1013,808Z" fill="#db4c8d" stroke="#db4c8d" stroke-width="1.51"/><path d="M871,1116L897,1322L1048,1187Z" fill="#b63c73" stroke="#b63c73" stroke-width="1.51"/><path d="M1017,-159L864,-7L1035,-58Z" fill="#e7a4ce" stroke="#e7a4ce" stroke-width="1.51"/><path d="M864,-7L1001,54L1035,-58Z" fill="#e39ecb" stroke="#e39ecb" stroke-width="1.51"/><path d="M842,656L1013,808L1037,723Z" fill="#e44e9e" stroke="#e44e9e" stroke-width="1.51"/><path d="M842,656L830,821L1013,808Z" fill="#e1529d" stroke="#e1529d" stroke-width="1.51"/><path d="M868,423L897,570L1026,484Z" fill="#dc6eb3" stroke="#dc6eb3" stroke-width="1.51"/><path d="M785,-194L864,-7L1017,-159Z" fill="#e5acd3" stroke="#e5acd3" stroke-width="1.51"/><path d="M837,-244L785,-194L1017,-159Z" fill="#e8b1d5" stroke="#e8b1d5" stroke-width="1.51"/><path d="M864,-7L840,92L1001,54Z" fill="#de9ecb" stroke="#de9ecb" stroke-width="1.51"/><path d="M561,1261L407,1286L695,1288Z" fill="#a95979" stroke="#a95979" stroke-width="1.51"/><path d="M830,821L749,990L894,1013Z" fill="#d65388" stroke="#d65388" stroke-width="1.51"/><path d="M871,1116L768,1152L897,1322Z" fill="#b54677" stroke="#b54677" stroke-width="1.51"/><path d="M840,92L735,235L930,278Z" fill="#d494c6" stroke="#d494c6" stroke-width="1.51"/><path d="M735,235L785,349L930,278Z" fill="#d18dc3" stroke="#d18dc3" stroke-width="1.51"/><path d="M785,349L868,423L930,278Z" fill="#d284be" stroke="#d284be" stroke-width="1.51"/><path d="M749,990L871,1116L894,1013Z" fill="#ca4d81" stroke="#ca4d81" stroke-width="1.51"/><path d="M768,1152L695,1288L897,1322Z" fill="#ac4a74" stroke="#ac4a74" stroke-width="1.51"/><path d="M868,423L717,544L897,570Z" fill="#da74b6" stroke="#da74b6" stroke-width="1.51"/><path d="M717,544L842,656L897,570Z" fill="#dc6db1" stroke="#dc6db1" stroke-width="1.51"/><path d="M785,-194L679,-55L864,-7Z" fill="#dfb3d6" stroke="#dfb3d6" stroke-width="1.51"/><path d="M714,714L830,821L842,656Z" fill="#df5fa5" stroke="#df5fa5" stroke-width="1.51"/><path d="M743,59L840,92L864,-7Z" fill="#daa3ce" stroke="#daa3ce" stroke-width="1.51"/><path d="M785,349L717,544L868,423Z" fill="#d580bc" stroke="#d580bc" stroke-width="1.51"/><path d="M749,990L768,1152L871,1116Z" fill="#c34f81" stroke="#c34f81" stroke-width="1.51"/><path d="M679,-55L743,59L864,-7Z" fill="#daacd3" stroke="#daacd3" stroke-width="1.51"/><path d="M99,-172L312,-161L448,-194Z" fill="#e4d6e9" stroke="#e4d6e9" stroke-width="1.51"/><path d="M699,821L749,990L830,821Z" fill="#d75c93" stroke="#d75c93" stroke-width="1.51"/><path d="M714,714L699,821L830,821Z" fill="#dc609f" stroke="#dc609f" stroke-width="1.51"/><path d="M636,-194L785,-194L837,-244Z" fill="#e2bada" stroke="#e2bada" stroke-width="1.51"/><path d="M743,59L735,235L840,92Z" fill="#d49fcc" stroke="#d49fcc" stroke-width="1.51"/><path d="M717,544L714,714L842,656Z" fill="#dc6cae" stroke="#dc6cae" stroke-width="1.51"/><path d="M636,-194L630,-93L679,-55Z" fill="#dabcdc" stroke="#dabcdc" stroke-width="1.51"/><path d="M634,240L735,235L743,59Z" fill="#cf9fcc" stroke="#cf9fcc" stroke-width="1.51"/><path d="M749,990L627,1137L768,1152Z" fill="#c05683" stroke="#c05683" stroke-width="1.51"/><path d="M584,392L717,544L785,349Z" fill="#d088c0" stroke="#d088c0" stroke-width="1.51"/><path d="M735,235L634,240L785,349Z" fill="#cd96c7" stroke="#cd96c7" stroke-width="1.51"/><path d="M634,240L584,392L785,349Z" fill="#ca94c7" stroke="#ca94c7" stroke-width="1.51"/><path d="M636,-194L679,-55L785,-194Z" fill="#ddbadb" stroke="#ddbadb" stroke-width="1.51"/><path d="M562,129L634,240L743,59Z" fill="#cfa6d0" stroke="#cfa6d0" stroke-width="1.51"/><path d="M627,1137L695,1288L768,1152Z" fill="#b2537d" stroke="#b2537d" stroke-width="1.51"/><path d="M576,560L714,714L717,544Z" fill="#d877b5" stroke="#d877b5" stroke-width="1.51"/><path d="M699,821L551,994L749,990Z" fill="#d3618f" stroke="#d3618f" stroke-width="1.51"/><path d="M551,994L627,1137L749,990Z" fill="#c65e88" stroke="#c65e88" stroke-width="1.51"/><path d="M679,-55L562,129L743,59Z" fill="#d3aed4" stroke="#d3aed4" stroke-width="1.51"/><path d="M576,560L575,730L714,714Z" fill="#da74b0" stroke="#da74b0" stroke-width="1.51"/><path d="M584,392L576,560L717,544Z" fill="#d385bf" stroke="#d385bf" stroke-width="1.51"/><path d="M627,1137L561,1261L695,1288Z" fill="#ad577b" stroke="#ad577b" stroke-width="1.51"/><path d="M585,791L551,994L699,821Z" fill="#d76899" stroke="#d76899" stroke-width="1.51"/><path d="M585,791L699,821L714,714Z" fill="#db68a4" stroke="#db68a4" stroke-width="1.51"/><path d="M575,730L585,791L714,714Z" fill="#dc6ca9" stroke="#dc6ca9" stroke-width="1.51"/><path d="M630,-93L477,-20L679,-55Z" fill="#d9bcdc" stroke="#d9bcdc" stroke-width="1.51"/><path d="M477,-20L562,129L679,-55Z" fill="#d5b6d9" stroke="#d5b6d9" stroke-width="1.51"/><path d="M441,248L584,392L634,240Z" fill="#cc9ecc" stroke="#cc9ecc" stroke-width="1.51"/><path d="M448,-194L630,-93L636,-194Z" fill="#ddc3e0" stroke="#ddc3e0" stroke-width="1.51"/><path d="M551,994L481,1006L627,1137Z" fill="#c7648b" stroke="#c7648b" stroke-width="1.51"/><path d="M562,129L441,248L634,240Z" fill="#cfa7d0" stroke="#cfa7d0" stroke-width="1.51"/><path d="M448,-194L477,-20L630,-93Z" fill="#dcc4e0" stroke="#dcc4e0" stroke-width="1.51"/><path d="M388,1174L561,1261L627,1137Z" fill="#b45f83" stroke="#b45f83" stroke-width="1.51"/><path d="M481,1006L388,1174L627,1137Z" fill="#c06589" stroke="#c06589" stroke-width="1.51"/><path d="M414,578L380,741L575,730Z" fill="#df7eb4" stroke="#df7eb4" stroke-width="1.51"/><path d="M380,741L383,820L575,730Z" fill="#e077ac" stroke="#e077ac" stroke-width="1.51"/><path d="M414,578L575,730L576,560Z" fill="#db7fb8" stroke="#db7fb8" stroke-width="1.51"/><path d="M441,248L382,362L584,392Z" fill="#cda0cd" stroke="#cda0cd" stroke-width="1.51"/><path d="M414,578L576,560L584,392Z" fill="#d68ac1" stroke="#d68ac1" stroke-width="1.51"/><path d="M382,362L414,578L584,392Z" fill="#d495c7" stroke="#d495c7" stroke-width="1.51"/><path d="M481,1006L551,994L585,791Z" fill="#d66a93" stroke="#d66a93" stroke-width="1.51"/><path d="M383,820L481,1006L585,791Z" fill="#da719c" stroke="#da719c" stroke-width="1.51"/><path d="M575,730L383,820L585,791Z" fill="#de72a7" stroke="#de72a7" stroke-width="1.51"/><path d="M477,-20L398,119L562,129Z" fill="#d5b6d8" stroke="#d5b6d8" stroke-width="1.51"/><path d="M388,1174L407,1286L561,1261Z" fill="#b0627f" stroke="#b0627f" stroke-width="1.51"/><path d="M398,119L441,248L562,129Z" fill="#d1afd5" stroke="#d1afd5" stroke-width="1.51"/><path d="M302,1256L123,1345L407,1286Z" fill="#ae6a7f" stroke="#ae6a7f" stroke-width="1.51"/><path d="M298,-33L398,119L477,-20Z" fill="#d9c1de" stroke="#d9c1de" stroke-width="1.51"/><path d="M448,-194L312,-161L477,-20Z" fill="#dfcce4" stroke="#dfcce4" stroke-width="1.51"/><path d="M312,-161L298,-33L477,-20Z" fill="#ddcce4" stroke="#ddcce4" stroke-width="1.51"/><path d="M383,820L293,829L481,1006Z" fill="#db779d" stroke="#db779d" stroke-width="1.51"/><path d="M293,829L239,1039L481,1006Z" fill="#d97795" stroke="#d97795" stroke-width="1.51"/><path d="M239,1039L388,1174L481,1006Z" fill="#c86f8e" stroke="#c86f8e" stroke-width="1.51"/><path d="M250,391L228,518L382,362Z" fill="#d8a3ce" stroke="#d8a3ce" stroke-width="1.51"/><path d="M298,-33L303,99L398,119Z" fill="#d8c1de" stroke="#d8c1de" stroke-width="1.51"/><path d="M382,362L228,518L414,578Z" fill="#d998c8" stroke="#d998c8" stroke-width="1.51"/><path d="M398,119L329,232L441,248Z" fill="#d2b0d5" stroke="#d2b0d5" stroke-width="1.51"/><path d="M329,232L382,362L441,248Z" fill="#d0aad2" stroke="#d0aad2" stroke-width="1.51"/><path d="M239,1039L238,1120L388,1174Z" fill="#c5728f" stroke="#c5728f" stroke-width="1.51"/><path d="M313,739L380,741L414,578Z" fill="#e183b6" stroke="#e183b6" stroke-width="1.51"/><path d="M388,1174L302,1256L407,1286Z" fill="#b26782" stroke="#b26782" stroke-width="1.51"/><path d="M228,518L313,739L414,578Z" fill="#e18ec0" stroke="#e18ec0" stroke-width="1.51"/><path d="M303,99L329,232L398,119Z" fill="#d4b8d9" stroke="#d4b8d9" stroke-width="1.51"/><path d="M380,741L313,739L383,820Z" fill="#e27dae" stroke="#e27dae" stroke-width="1.51"/><path d="M329,232L250,391L382,362Z" fill="#d0aad2" stroke="#d0aad2" stroke-width="1.51"/><path d="M313,739L293,829L383,820Z" fill="#e27eab" stroke="#e27eab" stroke-width="1.51"/><path d="M238,1120L302,1256L388,1174Z" fill="#bb6d8a" stroke="#bb6d8a" stroke-width="1.51"/><path d="M25,1324L-129,1342L123,1345Z" fill="#b17883" stroke="#b17883" stroke-width="1.51"/><path d="M97,564L79,717L228,518Z" fill="#e69bc7" stroke="#e69bc7" stroke-width="1.51"/><path d="M137,982L239,1039L293,829Z" fill="#de7f9a" stroke="#de7f9a" stroke-width="1.51"/><path d="M139,865L137,982L293,829Z" fill="#e384a3" stroke="#e384a3" stroke-width="1.51"/><path d="M298,-33L171,49L303,99Z" fill="#dcc8e2" stroke="#dcc8e2" stroke-width="1.51"/><path d="M138,-83L298,-33L312,-161Z" fill="#e2d5e9" stroke="#e2d5e9" stroke-width="1.51"/><path d="M228,518L79,717L313,739Z" fill="#e691bf" stroke="#e691bf" stroke-width="1.51"/><path d="M303,99L187,212L329,232Z" fill="#d6bada" stroke="#d6bada" stroke-width="1.51"/><path d="M187,212L250,391L329,232Z" fill="#d4b2d6" stroke="#d4b2d6" stroke-width="1.51"/><path d="M139,865L293,829L313,739Z" fill="#e483ac" stroke="#e483ac" stroke-width="1.51"/><path d="M79,717L139,865L313,739Z" fill="#e989b4" stroke="#e989b4" stroke-width="1.51"/><path d="M99,-172L138,-83L312,-161Z" fill="#e6dbec" stroke="#e6dbec" stroke-width="1.51"/><path d="M238,1120L98,1140L302,1256Z" fill="#c0758e" stroke="#c0758e" stroke-width="1.51"/><path d="M98,1140L123,1345L302,1256Z" fill="#b87387" stroke="#b87387" stroke-width="1.51"/><path d="M171,49L187,212L303,99Z" fill="#d9c3df" stroke="#d9c3df" stroke-width="1.51"/><path d="M187,212L115,337L250,391Z" fill="#d5b4d7" stroke="#d5b4d7" stroke-width="1.51"/><path d="M138,-83L171,49L298,-33Z" fill="#e0d2e7" stroke="#e0d2e7" stroke-width="1.51"/><path d="M115,337L228,518L250,391Z" fill="#daa9d1" stroke="#daa9d1" stroke-width="1.51"/><path d="M115,337L97,564L228,518Z" fill="#e0a7d0" stroke="#e0a7d0" stroke-width="1.51"/><path d="M98,1140L238,1120L239,1039Z" fill="#cb7993" stroke="#cb7993" stroke-width="1.51"/><path d="M137,982L98,1140L239,1039Z" fill="#d27e96" stroke="#d27e96" stroke-width="1.51"/><path d="M-19,430L97,564L115,337Z" fill="#e0afd5" stroke="#e0afd5" stroke-width="1.51"/><path d="M98,1140L25,1324L123,1345Z" fill="#b87887" stroke="#b87887" stroke-width="1.51"/><path d="M-71,89L30,251L171,49Z" fill="#decde5" stroke="#decde5" stroke-width="1.51"/><path d="M171,49L30,251L187,212Z" fill="#dbc4e0" stroke="#dbc4e0" stroke-width="1.51"/><path d="M30,251L115,337L187,212Z" fill="#d9bddc" stroke="#d9bddc" stroke-width="1.51"/><path d="M138,-83L-18,-108L171,49Z" fill="#e5dbec" stroke="#e5dbec" stroke-width="1.51"/><path d="M-18,-108L-71,89L171,49Z" fill="#e4d9eb" stroke="#e4d9eb" stroke-width="1.51"/><path d="M-18,1165L25,1324L98,1140Z" fill="#c17e8f" stroke="#c17e8f" stroke-width="1.51"/><path d="M-42,1010L98,1140L137,982Z" fill="#d7859a" stroke="#d7859a" stroke-width="1.51"/><path d="M99,-172L-18,-108L138,-83Z" fill="#e8e2ef" stroke="#e8e2ef" stroke-width="1.51"/><path d="M79,717L-46,800L139,865Z" fill="#ec91b5" stroke="#ec91b5" stroke-width="1.51"/><path d="M-42,1010L137,982L139,865Z" fill="#e4899e" stroke="#e4899e" stroke-width="1.51"/><path d="M-46,800L-42,1010L139,865Z" fill="#e98ea7" stroke="#e98ea7" stroke-width="1.51"/><path d="M-13,581L79,717L97,564Z" fill="#ea9ec7" stroke="#ea9ec7" stroke-width="1.51"/><path d="M-19,430L-13,581L97,564Z" fill="#e7a8d1" stroke="#e7a8d1" stroke-width="1.51"/><path d="M-42,1010L-18,1165L98,1140Z" fill="#d08398" stroke="#d08398" stroke-width="1.51"/><path d="M30,251L-19,430L115,337Z" fill="#dabadb" stroke="#dabadb" stroke-width="1.51"/><path d="M-13,581L-67,653L79,717Z" fill="#ed9ec5" stroke="#ed9ec5" stroke-width="1.51"/><path d="M-19,-185L-18,-108L99,-172Z" fill="#ebe5f1" stroke="#ebe5f1" stroke-width="1.51"/><path d="M-67,653L-46,800L79,717Z" fill="#f097be" stroke="#f097be" stroke-width="1.51"/><path d="M-46,800L-184,874L-42,1010Z" fill="#eb91a9" stroke="#eb91a9" stroke-width="1.51"/><path d="M-18,1165L-139,1193L25,1324Z" fill="#c17f8e" stroke="#c17f8e" stroke-width="1.51"/><path d="M-139,1193L-129,1342L25,1324Z" fill="#ba7d89" stroke="#ba7d89" stroke-width="1.51"/><path d="M-71,89L-178,192L30,251Z" fill="#e0cce4" stroke="#e0cce4" stroke-width="1.51"/><path d="M-178,192L-116,360L30,251Z" fill="#dec5e0" stroke="#dec5e0" stroke-width="1.51"/><path d="M-116,360L-19,430L30,251Z" fill="#dcbcdc" stroke="#dcbcdc" stroke-width="1.51"/><path d="M-184,874L-165,1007L-42,1010Z" fill="#e88fa1" stroke="#e88fa1" stroke-width="1.51"/><path d="M-165,1007L-139,1193L-42,1010Z" fill="#d8899b" stroke="#d8899b" stroke-width="1.51"/><path d="M-116,360L-212,531L-19,430Z" fill="#e5b5d8" stroke="#e5b5d8" stroke-width="1.51"/><path d="M-198,-58L-71,89L-18,-108Z" fill="#e9e1ef" stroke="#e9e1ef" stroke-width="1.51"/><path d="M-19,-185L-197,-202L-18,-108Z" fill="#eee9f3" stroke="#eee9f3" stroke-width="1.51"/><path d="M-42,1010L-139,1193L-18,1165Z" fill="#cf8598" stroke="#cf8598" stroke-width="1.51"/><path d="M-170,646L-67,653L-13,581Z" fill="#eea2c9" stroke="#eea2c9" stroke-width="1.51"/><path d="M-212,531L-170,646L-13,581Z" fill="#eea7cd" stroke="#eea7cd" stroke-width="1.51"/><path d="M-19,430L-212,531L-13,581Z" fill="#e9add3" stroke="#e9add3" stroke-width="1.51"/><path d="M-197,-202L-198,-58L-18,-108Z" fill="#eee9f3" stroke="#eee9f3" stroke-width="1.51"/><path d="M-67,653L-170,646L-46,800Z" fill="#f19cc2" stroke="#f19cc2" stroke-width="1.51"/><path d="M-170,646L-184,874L-46,800Z" fill="#f298ba" stroke="#f298ba" stroke-width="1.51"/><path d="M-204,137L-178,192L-71,89Z" fill="#e3d2e7" stroke="#e3d2e7" stroke-width="1.51"/><path d="M-198,-58L-204,137L-71,89Z" fill="#e7dbeb" stroke="#e7dbeb" stroke-width="1.51"/><path d="M-165,1007L-184,874L-129,1342Z" fill="#d98a9c" stroke="#d98a9c" stroke-width="1.51"/><path d="M-178,192L-212,531L-116,360Z" fill="#e0bedd" stroke="#e0bedd" stroke-width="1.51"/><path d="M-139,1193L-165,1007L-129,1342Z" fill="#ca8495" stroke="#ca8495" stroke-width="1.51"/><path d="M-204,137L-212,531L-178,192Z" fill="#e1c6e1" stroke="#e1c6e1" stroke-width="1.51"/><path d="M-212,531L-184,874L-170,646Z" fill="#f3a0c5" stroke="#f3a0c5" stroke-width="1.51"/><path d="M-204,137L-198,-58L-197,-202Z" fill="#ece5f1" stroke="#ece5f1" stroke-width="1.51"/></svg>