<svg xmlns="http://www.w3.org/2000/svg" width="1920" height="1080"><path d="M-197,-202L-19,-185L448,-194Z" fill="#ffe5d9" stroke="#ffe5d9" stroke-width="1.51"/><path d="M-197,-202L448,-194L837,-244Z" fill="#ffd4c3" stroke="#ffd4c3" stroke-width="1.51"/><path d="M897,1322L123,1345L1016,1332Z" fill="#b54e3c" stroke="#b54e3c" stroke-width="1.51"/><path d="M837,-244L1155,-230L1369,-265Z" fill="#ffa68f" stroke="#ffa68f" stroke-width="1.51"/><path d="M1016,1332L123,1345L1668,1345Z" fill="#b23a2c" stroke="#b23a2c" stroke-width="1.51"/><path d="M1451,1329L1016,1332L1668,1345Z" fill="#a7181a" stroke="#a7181a" stroke-width="1.51"/><path d="M1654,-192L1821,-173L1911,-185Z" fill="#e08876" stroke="#e08876" stroke-width="1.51"/><path d="M1654,-192L1911,-185L2060,-232Z" fill="#da8776" stroke="#da8776" stroke-width="1.51"/><path d="M1516,-223L1654,-192L2060,-232Z" fill="#e48b79" stroke="#e48b79" stroke-width="1.51"/><path d="M1369,-265L1516,-223L2060,-232Z" fill="#eb8e7c" stroke="#eb8e7c" stroke-width="1.51"/><path d="M1966,836L2063,873L2076,642Z" fill="#b31e1d" stroke="#b31e1d" stroke-width="1.51"/><path d="M1952,652L1966,836L2076,642Z" fill="#bb2821" stroke="#bb2821" stroke-width="1.51"/><path d="M2070,987L1968,1181L2098,1144Z" fill="#960a14" stroke="#960a14" stroke-width="1.51"/><path d="M2076,642L2063,873L2098,1144Z" fill="#a51419" stroke="#a51419" stroke-width="1.51"/><path d="M2063,873L2070,987L2098,1144Z" fill="#9c0c16" stroke="#9c0c16" stroke-width="1.51"/><path d="M2047,56L1886,188L2100,282Z" fill="#c36350" stroke="#c36350" stroke-width="1.51"/><path d="M2079,-104L2047,56L2100,282Z" fill="#bd6a59" stroke="#bd6a59" stroke-width="1.51"/><path d="M2100,282L1956,361L2118,381Z" fill="#bb503e" stroke="#bb503e" stroke-width="1.51"/><path d="M1956,361L2053,487L2118,381Z" fill="#bd4a38" stroke="#bd4a38" stroke-width="1.51"/><path d="M2053,487L2076,642L2118,381Z" fill="#b73f2f" stroke="#b73f2f" stroke-width="1.51"/><path d="M2076,642L2098,1144L2118,381Z" fill="#b0231f" stroke="#b0231f" stroke-width="1.51"/><path d="M2079,-104L2100,282L2118,381Z" fill="#b95e4c" stroke="#b95e4c" stroke-width="1.51"/><path d="M2098,1144L1968,1181L2118,1295Z" fill="#880612" stroke="#880612" stroke-width="1.51"/><path d="M1968,1181L1940,1323L2118,1295Z" fill="#850511" stroke="#850511" stroke-width="1.51"/><path d="M2118,381L2098,1144L2118,1295Z" fill="#9e0d17" stroke="#9e0d17" stroke-width="1.51"/><path d="M1907,1007L1968,1181L2070,987Z" fill="#a10d15" stroke="#a10d15" stroke-width="1.51"/><path d="M2053,487L1915,557L2076,642Z" fill="#be3a2b" stroke="#be3a2b" stroke-width="1.51"/><path d="M1915,557L1952,652L2076,642Z" fill="#c03528" stroke="#c03528" stroke-width="1.51"/><path d="M1909,-80L2047,56L2079,-104Z" fill="#c77767" stroke="#c77767" stroke-width="1.51"/><path d="M1886,188L1956,361L2100,282Z" fill="#c55945" stroke="#c55945" stroke-width="1.51"/><path d="M1909,-80L1935,50L2047,56Z" fill="#cb7462" stroke="#cb7462" stroke-width="1.51"/><path d="M1935,50L1886,188L2047,56Z" fill="#cb6d59" stroke="#cb6d59" stroke-width="1.51"/><path d="M2063,873L1966,836L2070,987Z" fill="#aa1419" stroke="#aa1419" stroke-width="1.51"/><path d="M1966,836L1907,1007L2070,987Z" fill="#ab1118" stroke="#ab1118" stroke-width="1.51"/><path d="M2060,-232L1911,-185L2079,-104Z" fill="#c97f70" stroke="#c97f70" stroke-width="1.51"/><path d="M1911,-185L1909,-80L2079,-104Z" fill="#cd7e6e" stroke="#cd7e6e" stroke-width="1.51"/><path d="M1956,361L1915,557L2053,487Z" fill="#c44633" stroke="#c44633" stroke-width="1.51"/><path d="M695,1288L123,1345L897,1322Z" fill="#b95644" stroke="#b95644" stroke-width="1.51"/><path d="M1830,1272L1668,1345L1940,1323Z" fill="#900813" stroke="#900813" stroke-width="1.51"/><path d="M1752,659L1839,888L1952,652Z" fill="#cb2921" stroke="#cb2921" stroke-width="1.51"/><path d="M1886,188L1729,274L1956,361Z" fill="#d35f48" stroke="#d35f48" stroke-width="1.51"/><path d="M1794,422L1915,557L1956,361Z" fill="#cd4b37" stroke="#cd4b37" stroke-width="1.51"/><path d="M1952,652L1839,888L1966,836Z" fill="#bf211e" stroke="#bf211e" stroke-width="1.51"/><path d="M1839,888L1907,1007L1966,836Z" fill="#b7171a" stroke="#b7171a" stroke-width="1.51"/><path d="M1907,1007L1835,1137L1968,1181Z" fill="#a50f15" stroke="#a50f15" stroke-width="1.51"/><path d="M1830,1272L1940,1323L1968,1181Z" fill="#900913" stroke="#900913" stroke-width="1.51"/><path d="M1835,1137L1830,1272L1968,1181Z" fill="#9d0d15" stroke="#9d0d15" stroke-width="1.51"/><path d="M1729,274L1794,422L1956,361Z" fill="#d35740" stroke="#d35740" stroke-width="1.51"/><path d="M1915,557L1752,659L1952,652Z" fill="#cb3729" stroke="#cb3729" stroke-width="1.51"/><path d="M1794,422L1776,529L1915,557Z" fill="#d24732" stroke="#d24732" stroke-width="1.51"/><path d="M1746,43L1886,188L1935,50Z" fill="#d6715b" stroke="#d6715b" stroke-width="1.51"/><path d="M1909,-80L1772,-42L1935,50Z" fill="#d77b68" stroke="#d77b68" stroke-width="1.51"/><path d="M1821,-173L1909,-80L1911,-185Z" fill="#d98472" stroke="#d98472" stroke-width="1.51"/><path d="M1772,-42L1746,43L1935,50Z" fill="#da7964" stroke="#da7964" stroke-width="1.51"/><path d="M1839,888L1762,989L1907,1007Z" fill="#b81419" stroke="#b81419" stroke-width="1.51"/><path d="M1762,989L1835,1137L1907,1007Z" fill="#b11217" stroke="#b11217" stroke-width="1.51"/><path d="M1776,529L1752,659L1915,557Z" fill="#d23e2c" stroke="#d23e2c" stroke-width="1.51"/><path d="M1821,-173L1772,-42L1909,-80Z" fill="#db8370" stroke="#db8370" stroke-width="1.51"/><path d="M407,1286L123,1345L695,1288Z" fill="#bb6250" stroke="#bb6250" stroke-width="1.51"/><path d="M1746,43L1729,274L1886,188Z" fill="#d96c54" stroke="#d96c54" stroke-width="1.51"/><path d="M1664,231L1729,274L1746,43Z" fill="#dd6c54" stroke="#dd6c54" stroke-width="1.51"/><path d="M1582,1190L1668,1345L1830,1272Z" fill="#9e0c15" stroke="#9e0c15" stroke-width="1.51"/><path d="M1582,1190L1830,1272L1835,1137Z" fill="#a50f16" stroke="#a50f16" stroke-width="1.51"/><path d="M1591,892L1762,989L1839,888Z" fill="#c2191b" stroke="#c2191b" stroke-width="1.51"/><path d="M1752,659L1591,892L1839,888Z" fill="#cc231f" stroke="#cc231f" stroke-width="1.51"/><path d="M1762,989L1582,1190L1835,1137Z" fill="#b21218" stroke="#b21218" stroke-width="1.51"/><path d="M1654,-192L1772,-42L1821,-173Z" fill="#e28773" stroke="#e28773" stroke-width="1.51"/><path d="M1729,274L1687,411L1794,422Z" fill="#d95740" stroke="#d95740" stroke-width="1.51"/><path d="M1601,655L1591,892L1752,659Z" fill="#d82b24" stroke="#d82b24" stroke-width="1.51"/><path d="M1591,892L1601,952L1762,989Z" fill="#c5181c" stroke="#c5181c" stroke-width="1.51"/><path d="M1654,-192L1633,-69L1772,-42Z" fill="#e68672" stroke="#e68672" stroke-width="1.51"/><path d="M1687,411L1776,529L1794,422Z" fill="#d74d38" stroke="#d74d38" stroke-width="1.51"/><path d="M1593,44L1664,231L1746,43Z" fill="#e2755d" stroke="#e2755d" stroke-width="1.51"/><path d="M1601,952L1582,1190L1762,989Z" fill="#bd141a" stroke="#bd141a" stroke-width="1.51"/><path d="M1613,535L1752,659L1776,529Z" fill="#d8402e" stroke="#d8402e" stroke-width="1.51"/><path d="M1687,411L1613,535L1776,529Z" fill="#db4b35" stroke="#db4b35" stroke-width="1.51"/><path d="M1633,-69L1746,43L1772,-42Z" fill="#e27f6a" stroke="#e27f6a" stroke-width="1.51"/><path d="M1613,535L1601,655L1752,659Z" fill="#db3c2c" stroke="#db3c2c" stroke-width="1.51"/><path d="M1633,-69L1593,44L1746,43Z" fill="#e67e68" stroke="#e67e68" stroke-width="1.51"/><path d="M1506,788L1591,892L1601,655Z" fill="#d92823" stroke="#d92823" stroke-width="1.51"/><path d="M1664,231L1687,411L1729,274Z" fill="#dd5f47" stroke="#dd5f47" stroke-width="1.51"/><path d="M1226,1277L1016,1332L1451,1329Z" fill="#b1221f" stroke="#b1221f" stroke-width="1.51"/><path d="M1482,1158L1582,1190L1601,952Z" fill="#be151a" stroke="#be151a" stroke-width="1.51"/><path d="M1593,44L1494,184L1664,231Z" fill="#e67259" stroke="#e67259" stroke-width="1.51"/><path d="M1664,231L1528,399L1687,411Z" fill="#e15c44" stroke="#e15c44" stroke-width="1.51"/><path d="M1528,399L1613,535L1687,411Z" fill="#e1513b" stroke="#e1513b" stroke-width="1.51"/><path d="M1494,184L1528,399L1664,231Z" fill="#e7664d" stroke="#e7664d" stroke-width="1.51"/><path d="M1582,1190L1451,1329L1668,1345Z" fill="#a30d17" stroke="#a30d17" stroke-width="1.51"/><path d="M1516,-223L1633,-69L1654,-192Z" fill="#ed8b78" stroke="#ed8b78" stroke-width="1.51"/><path d="M1468,951L1482,1158L1601,952Z" fill="#c71a1c" stroke="#c71a1c" stroke-width="1.51"/><path d="M1500,636L1601,655L1613,535Z" fill="#e13f2e" stroke="#e13f2e" stroke-width="1.51"/><path d="M1458,-12L1593,44L1633,-69Z" fill="#ec826c" stroke="#ec826c" stroke-width="1.51"/><path d="M1516,-223L1458,-12L1633,-69Z" fill="#f08a75" stroke="#f08a75" stroke-width="1.51"/><path d="M1458,-12L1482,42L1593,44Z" fill="#ee8169" stroke="#ee8169" stroke-width="1.51"/><path d="M1482,42L1494,184L1593,44Z" fill="#ec7a62" stroke="#ec7a62" stroke-width="1.51"/><path d="M1500,636L1506,788L1601,655Z" fill="#e03529" stroke="#e03529" stroke-width="1.51"/><path d="M1528,399L1464,551L1613,535Z" fill="#e64e38" stroke="#e64e38" stroke-width="1.51"/><path d="M1464,551L1500,636L1613,535Z" fill="#e44532" stroke="#e44532" stroke-width="1.51"/><path d="M1482,1158L1451,1329L1582,1190Z" fill="#b01519" stroke="#b01519" stroke-width="1.51"/><path d="M1591,892L1468,951L1601,952Z" fill="#cd1b1d" stroke="#cd1b1d" stroke-width="1.51"/><path d="M1494,184L1381,271L1528,399Z" fill="#ec684e" stroke="#ec684e" stroke-width="1.51"/><path d="M1506,788L1468,951L1591,892Z" fill="#d42220" stroke="#d42220" stroke-width="1.51"/><path d="M-19,-185L99,-172L448,-194Z" fill="#ffded0" stroke="#ffded0" stroke-width="1.51"/><path d="M1468,951L1318,994L1482,1158Z" fill="#cb201f" stroke="#cb201f" stroke-width="1.51"/><path d="M1500,636L1348,716L1506,788Z" fill="#e43629" stroke="#e43629" stroke-width="1.51"/><path d="M1350,786L1468,951L1506,788Z" fill="#db2a24" stroke="#db2a24" stroke-width="1.51"/><path d="M1352,-26L1458,-12L1516,-223Z" fill="#f58e77" stroke="#f58e77" stroke-width="1.51"/><path d="M1369,-265L1352,-26L1516,-223Z" fill="#f8937d" stroke="#f8937d" stroke-width="1.51"/><path d="M1349,444L1464,551L1528,399Z" fill="#eb553d" stroke="#eb553d" stroke-width="1.51"/><path d="M1381,271L1349,444L1528,399Z" fill="#ed6047" stroke="#ed6047" stroke-width="1.51"/><path d="M1345,1166L1451,1329L1482,1158Z" fill="#b61a1b" stroke="#b61a1b" stroke-width="1.51"/><path d="M1318,994L1345,1166L1482,1158Z" fill="#c7201e" stroke="#c7201e" stroke-width="1.51"/><path d="M1482,42L1353,63L1494,184Z" fill="#f07d63" stroke="#f07d63" stroke-width="1.51"/><path d="M1348,716L1350,786L1506,788Z" fill="#e53228" stroke="#e53228" stroke-width="1.51"/><path d="M1280,1263L1226,1277L1451,1329Z" fill="#b11e1d" stroke="#b11e1d" stroke-width="1.51"/><path d="M1464,551L1318,591L1500,636Z" fill="#ea4733" stroke="#ea4733" stroke-width="1.51"/><path d="M1318,591L1348,716L1500,636Z" fill="#ea422f" stroke="#ea422f" stroke-width="1.51"/><path d="M1353,63L1381,271L1494,184Z" fill="#f1765c" stroke="#f1765c" stroke-width="1.51"/><path d="M1350,786L1318,994L1468,951Z" fill="#d92823" stroke="#d92823" stroke-width="1.51"/><path d="M1458,-12L1353,63L1482,42Z" fill="#f3836b" stroke="#f3836b" stroke-width="1.51"/><path d="M1345,1166L1280,1263L1451,1329Z" fill="#b41d1c" stroke="#b41d1c" stroke-width="1.51"/><path d="M1352,-26L1353,63L1458,-12Z" fill="#f6876f" stroke="#f6876f" stroke-width="1.51"/><path d="M1349,444L1318,591L1464,551Z" fill="#ee5039" stroke="#ee5039" stroke-width="1.51"/><path d="M1225,484L1318,591L1349,444Z" fill="#f3573d" stroke="#f3573d" stroke-width="1.51"/><path d="M1195,855L1318,994L1350,786Z" fill="#e22f26" stroke="#e22f26" stroke-width="1.51"/><path d="M1232,55L1181,203L1353,63Z" fill="#fb8467" stroke="#fb8467" stroke-width="1.51"/><path d="M1218,-68L1352,-26L1369,-265Z" fill="#fd957d" stroke="#fd957d" stroke-width="1.51"/><path d="M1155,-230L1218,-68L1369,-265Z" fill="#ff9b84" stroke="#ff9b84" stroke-width="1.51"/><path d="M1198,387L1349,444L1381,271Z" fill="#f46649" stroke="#f46649" stroke-width="1.51"/><path d="M1181,203L1198,387L1381,271Z" fill="#f87054" stroke="#f87054" stroke-width="1.51"/><path d="M1353,63L1181,203L1381,271Z" fill="#f77a5e" stroke="#f77a5e" stroke-width="1.51"/><path d="M448,-194L636,-194L837,-244Z" fill="#ffc1ac" stroke="#ffc1ac" stroke-width="1.51"/><path d="M1318,994L1164,1195L1345,1166Z" fill="#cc2621" stroke="#cc2621" stroke-width="1.51"/><path d="M1318,591L1131,648L1348,716Z" fill="#f24733" stroke="#f24733" stroke-width="1.51"/><path d="M1198,387L1225,484L1349,444Z" fill="#f66045" stroke="#f66045" stroke-width="1.51"/><path d="M1348,716L1195,855L1350,786Z" fill="#e93629" stroke="#e93629" stroke-width="1.51"/><path d="M1218,-68L1232,55L1352,-26Z" fill="#fd8e74" stroke="#fd8e74" stroke-width="1.51"/><path d="M1352,-26L1232,55L1353,63Z" fill="#fa896e" stroke="#fa896e" stroke-width="1.51"/><path d="M1131,648L1195,855L1348,716Z" fill="#f0402e" stroke="#f0402e" stroke-width="1.51"/><path d="M1164,1195L1280,1263L1345,1166Z" fill="#c2241f" stroke="#c2241f" stroke-width="1.51"/><path d="M1091,1026L1164,1195L1318,994Z" fill="#d33025" stroke="#d33025" stroke-width="1.51"/><path d="M1129,971L1091,1026L1318,994Z" fill="#da3227" stroke="#da3227" stroke-width="1.51"/><path d="M1195,855L1129,971L1318,994Z" fill="#df3127" stroke="#df3127" stroke-width="1.51"/><path d="M1225,484L1131,648L1318,591Z" fill="#f5533a" stroke="#f5533a" stroke-width="1.51"/><path d="M1164,1195L1226,1277L1280,1263Z" fill="#bc2720" stroke="#bc2720" stroke-width="1.51"/><path d="M1131,648L1037,723L1195,855Z" fill="#f24833" stroke="#f24833" stroke-width="1.51"/><path d="M1181,203L1051,256L1198,387Z" fill="#fa785a" stroke="#fa785a" stroke-width="1.51"/><path d="M1155,-230L1035,-58L1218,-68Z" fill="#ff9e85" stroke="#ff9e85" stroke-width="1.51"/><path d="M1026,484L1131,648L1225,484Z" fill="#f85e41" stroke="#f85e41" stroke-width="1.51"/><path d="M1001,54L1181,203L1232,55Z" fill="#fd8b6e" stroke="#fd8b6e" stroke-width="1.51"/><path d="M1218,-68L1035,-58L1232,55Z" fill="#ff967b" stroke="#ff967b" stroke-width="1.51"/><path d="M1035,-58L1001,54L1232,55Z" fill="#ff977a" stroke="#ff977a" stroke-width="1.51"/><path d="M1017,-159L1035,-58L1155,-230Z" fill="#ffa48b" stroke="#ffa48b" stroke-width="1.51"/><path d="M1198,387L1053,411L1225,484Z" fill="#f8694b" stroke="#f8694b" stroke-width="1.51"/><path d="M1164,1195L1016,1332L1226,1277Z" fill="#ba2e24" stroke="#ba2e24" stroke-width="1.51"/><path d="M1053,411L1026,484L1225,484Z" fill="#f9694a" stroke="#f9694a" stroke-width="1.51"/><path d="M837,-244L1017,-159L1155,-230Z" fill="#ffab93" stroke="#ffab93" stroke-width="1.51"/><path d="M1091,1026L1048,1187L1164,1195Z" fill="#cf3728" stroke="#cf3728" stroke-width="1.51"/><path d="M1048,1187L1016,1332L1164,1195Z" fill="#c13527" stroke="#c13527" stroke-width="1.51"/><path d="M1001,54L1051,256L1181,203Z" fill="#fd886a" stroke="#fd886a" stroke-width="1.51"/><path d="M1037,723L1013,808L1195,855Z" fill="#ee4833" stroke="#ee4833" stroke-width="1.51"/><path d="M1051,256L1053,411L1198,387Z" fill="#fa7455" stroke="#fa7455" stroke-width="1.51"/><path d="M1013,808L1129,971L1195,855Z" fill="#e73f2e" stroke="#e73f2e" stroke-width="1.51"/><path d="M1026,484L897,570L1037,723Z" fill="#f96344" stroke="#f96344" stroke-width="1.51"/><path d="M1013,808L1091,1026L1129,971Z" fill="#e33e2e" stroke="#e33e2e" stroke-width="1.51"/><path d="M1026,484L1037,723L1131,648Z" fill="#f75b3f" stroke="#f75b3f" stroke-width="1.51"/><path d="M894,1013L871,1116L1048,1187Z" fill="#d54531" stroke="#d54531" stroke-width="1.51"/><path d="M1051,256L930,278L1053,411Z" fill="#fb7e5d" stroke="#fb7e5d" stroke-width="1.51"/><path d="M894,1013L1048,1187L1091,1026Z" fill="#d6402e" stroke="#d6402e" stroke-width="1.51"/><path d="M1013,808L894,1013L1091,1026Z" fill="#e34431" stroke="#e34431" stroke-width="1.51"/><path d="M840,92L930,278L1001,54Z" fill="#fe9576" stroke="#fe9576" stroke-width="1.51"/><path d="M897,570L842,656L1037,723Z" fill="#f86244" stroke="#f86244" stroke-width="1.51"/><path d="M897,1322L1016,1332L1048,1187Z" fill="#bb392b" stroke="#bb392b" stroke-width="1.51"/><path d="M1001,54L930,278L1051,256Z" fill="#fd8b6b" stroke="#fd8b6b" stroke-width="1.51"/><path d="M868,423L1026,484L1053,411Z" fill="#fb7352" stroke="#fb7352" stroke-width="1.51"/><path d="M930,278L868,423L1053,411Z" fill="#fc7b5b" stroke="#fc7b5b" stroke-width="1.51"/><path d="M830,821L894,1013L1013,808Z" fill="#e95039" stroke="#e95039" stroke-width="1.51"/><path d="M871,1116L897,1322L1048,1187Z" fill="#c8412f" stroke="#c8412f" stroke-width="1.51"/><path d="M1017,-159L864,-7L1035,-58Z" fill="#ffa68b" stroke="#ffa68b" stroke-width="1.51"/><path d="M864,-7L1001,54L1035,-58Z" fill="#ffa083" stroke="#ffa083" stroke-width="1.51"/><path d="M842,656L1013,808L1037,723Z" fill="#f6563c" stroke="#f6563c" stroke-width="1.51"/><path d="M842,656L830,821L1013,808Z" fill="#f4593f" stroke="#f4593f" stroke-width="1.51"/><path d="M868,423L897,570L1026,484Z" fill="#fc7150" stroke="#fc7150" stroke-width="1.51"/><path d="M785,-194L864,-7L1017,-159Z" fill="#ffae94" stroke="#ffae94" stroke-width="1.51"/><path d="M837,-244L785,-194L1017,-159Z" fill="#ffb29a" stroke="#ffb29a" stroke-width="1.51"/><path d="M864,-7L840,92L1001,54Z" fill="#ff9f82" stroke="#ff9f82" stroke-width="1.51"/><path d="M561,1261L407,1286L695,1288Z" fill="#bf5a46" stroke="#bf5a46" stroke-width="1.51"/><path d="M830,821L749,990L894,1013Z" fill="#e5533c" stroke="#e5533c" stroke-width="1.51"/><path d="M871,1116L768,1152L897,1322Z" fill="#ca4935" stroke="#ca4935" stroke-width="1.51"/><path d="M840,92L735,235L930,278Z" fill="#fd9475" stroke="#fd9475" stroke-width="1.51"/><path d="M735,235L785,349L930,278Z" fill="#fd8d6c" stroke="#fd8d6c" stroke-width="1.51"/><path d="M785,349L868,423L930,278Z" fill="#fc8463" stroke="#fc8463" stroke-width="1.51"/><path d="M749,990L871,1116L894,1013Z" fill="#dc4f39" stroke="#dc4f39" stroke-width="1.51"/><path d="M768,1152L695,1288L897,1322Z" fill="#c14a37" stroke="#c14a37" stroke-width="1.51"/><path d="M868,423L717,544L897,570Z" fill="#fc7655" stroke="#fc7655" stroke-width="1.51"/><path d="M717,544L842,656L897,570Z" fill="#fa6f50" stroke="#fa6f50" stroke-width="1.51"/><path d="M785,-194L679,-55L864,-7Z" fill="#ffb399" stroke="#ffb399" stroke-width="1.51"/><path d="M714,714L830,821L842,656Z" fill="#f76347" stroke="#f76347" stroke-width="1.51"/><path d="M743,59L840,92L864,-7Z" fill="#ffa488" stroke="#ffa488" stroke-width="1.51"/><path d="M785,349L717,544L868,423Z" fill="#fc805f" stroke="#fc805f" stroke-width="1.51"/><path d="M749,990L768,1152L871,1116Z" fill="#d8513b" stroke="#d8513b" stroke-width="1.51"/><path d="M679,-55L743,59L864,-7Z" fill="#ffac91" stroke="#ffac91" stroke-width="1.51"/><path d="M99,-172L312,-161L448,-194Z" fill="#ffd7c6" stroke="#ffd7c6" stroke-width="1.51"/><path d="M699,821L749,990L830,821Z" fill="#eb5c43" stroke="#eb5c43" stroke-width="1.51"/><path d="M714,714L699,821L830,821Z" fill="#f36247" stroke="#f36247" stroke-width="1.51"/><path d="M636,-194L785,-194L837,-244Z" fill="#ffbaa4" stroke="#ffbaa4" stroke-width="1.51"/><path d="M743,59L735,235L840,92Z" fill="#fda082" stroke="#fda082" stroke-width="1.51"/><path d="M717,544L714,714L842,656Z" fill="#fa6f50" stroke="#fa6f50" stroke-width="1.51"/><path d="M636,-194L630,-93L679,-55Z" fill="#ffbca5" stroke="#ffbca5" stroke-width="1.51"/><path d="M634,240L735,235L743,59Z" fill="#fd9f80" stroke="#fd9f80" stroke-width="1.51"/><path d="M749,990L627,1137L768,1152Z" fill="#d75640" stroke="#d75640" stroke-width="1.51"/><path d="M584,392L717,544L785,349Z" fill="#fc8766" stroke="#fc8766" stroke-width="1.51"/><path d="M735,235L634,240L785,349Z" fill="#fd9574" stroke="#fd9574" stroke-width="1.51"/><path d="M634,240L584,392L785,349Z" fill="#fc9272" stroke="#fc9272" stroke-width="1.51"/><path d="M636,-194L679,-55L785,-194Z" fill="#ffbaa3" stroke="#ffbaa3" stroke-width="1.51"/><path d="M562,129L634,240L743,59Z" fill="#fda688" stroke="#fda688" stroke-width="1.51"/><path d="M627,1137L695,1288L768,1152Z" fill="#cc543e" stroke="#cc543e" stroke-width="1.51"/><path d="M576,560L714,714L717,544Z" fill="#fa7858" stroke="#fa7858" stroke-width="1.51"/><path d="M699,821L551,994L749,990Z" fill="#e75f46" stroke="#e75f46" stroke-width="1.51"/><path d="M551,994L627,1137L749,990Z" fill="#dd5d46" stroke="#dd5d46" stroke-width="1.51"/><path d="M679,-55L562,129L743,59Z" fill="#feae93" stroke="#feae93" stroke-width="1.51"/><path d="M576,560L575,730L714,714Z" fill="#f97657" stroke="#f97657" stroke-width="1.51"/><path d="M584,392L576,560L717,544Z" fill="#fc8564" stroke="#fc8564" stroke-width="1.51"/><path d="M627,1137L561,1261L695,1288Z" fill="#c65742" stroke="#c65742" stroke-width="1.51"/><path d="M585,791L551,994L699,821Z" fill="#ed684d" stroke="#ed684d" stroke-width="1.51"/><path d="M585,791L699,821L714,714Z" fill="#f5694d" stroke="#f5694d" stroke-width="1.51"/><path d="M575,730L585,791L714,714Z" fill="#f76e51" stroke="#f76e51" stroke-width="1.51"/><path d="M630,-93L477,-20L679,-55Z" fill="#ffbca4" stroke="#ffbca4" stroke-width="1.51"/><path d="M477,-20L562,129L679,-55Z" fill="#ffb79d" stroke="#ffb79d" stroke-width="1.51"/><path d="M441,248L584,392L634,240Z" fill="#fd9e7f" stroke="#fd9e7f" stroke-width="1.51"/><path d="M448,-194L630,-93L636,-194Z" fill="#ffc3ae" stroke="#ffc3ae" stroke-width="1.51"/><path d="M551,994L481,1006L627,1137Z" fill="#de644c" stroke="#de644c" stroke-width="1.51"/><path d="M562,129L441,248L634,240Z" fill="#fda789" stroke="#fda789" stroke-width="1.51"/><path d="M448,-194L477,-20L630,-93Z" fill="#ffc4ae" stroke="#ffc4ae" stroke-width="1.51"/><path d="M388,1174L561,1261L627,1137Z" fill="#ce614a" stroke="#ce614a" stroke-width="1.51"/><path d="M481,1006L388,1174L627,1137Z" fill="#d9664e" stroke="#d9664e" stroke-width="1.51"/><path d="M414,578L380,741L575,730Z" fill="#fb8063" stroke="#fb8063" stroke-width="1.51"/><path d="M380,741L383,820L575,730Z" fill="#f87a5e" stroke="#f87a5e" stroke-width="1.51"/><path d="M414,578L575,730L576,560Z" fill="#fb8162" stroke="#fb8162" stroke-width="1.51"/><path d="M441,248L382,362L584,392Z" fill="#fd9f81" stroke="#fd9f81" stroke-width="1.51"/><path d="M414,578L576,560L584,392Z" fill="#fd8b6b" stroke="#fd8b6b" stroke-width="1.51"/><path d="M382,362L414,578L584,392Z" fill="#fe9676" stroke="#fe9676" stroke-width="1.51"/><path d="M481,1006L551,994L585,791Z" fill="#e96950" stroke="#e96950" stroke-width="1.51"/><path d="M383,820L481,1006L585,791Z" fill="#ee7156" stroke="#ee7156" stroke-width="1.51"/><path d="M575,730L383,820L585,791Z" fill="#f67458" stroke="#f67458" stroke-width="1.51"/><path d="M477,-20L398,119L562,129Z" fill="#fdb89d" stroke="#fdb89d" stroke-width="1.51"/><path d="M388,1174L407,1286L561,1261Z" fill="#c6634e" stroke="#c6634e" stroke-width="1.51"/><path d="M398,119L441,248L562,129Z" fill="#fdb194" stroke="#fdb194" stroke-width="1.51"/><path d="M302,1256L123,1345L407,1286Z" fill="#bf6b59" stroke="#bf6b59" stroke-width="1.51"/><path d="M298,-33L398,119L477,-20Z" fill="#fdc3ab" stroke="#fdc3ab" stroke-width="1.51"/><path d="M448,-194L312,-161L477,-20Z" fill="#feccb9" stroke="#feccb9" stroke-width="1.51"/><path d="M312,-161L298,-33L477,-20Z" fill="#fecdb8" stroke="#fecdb8" stroke-width="1.51"/><path d="M383,820L293,829L481,1006Z" fill="#ee785d" stroke="#ee785d" stroke-width="1.51"/><path d="M293,829L239,1039L481,1006Z" fill="#e8775e" stroke="#e8775e" stroke-width="1.51"/><path d="M239,1039L388,1174L481,1006Z" fill="#dd7159" stroke="#dd7159" stroke-width="1.51"/><path d="M250,391L228,518L382,362Z" fill="#ffa386" stroke="#ffa386" stroke-width="1.51"/><path d="M298,-33L303,99L398,119Z" fill="#fdc3aa" stroke="#fdc3aa" stroke-width="1.51"/><path d="M382,362L228,518L414,578Z" fill="#fe9a7b" stroke="#fe9a7b" stroke-width="1.51"/><path d="M398,119L329,232L441,248Z" fill="#fdb296" stroke="#fdb296" stroke-width="1.51"/><path d="M329,232L382,362L441,248Z" fill="#fdab8d" stroke="#fdab8d" stroke-width="1.51"/><path d="M239,1039L238,1120L388,1174Z" fill="#db745e" stroke="#db745e" stroke-width="1.51"/><path d="M313,739L380,741L414,578Z" fill="#fb8769" stroke="#fb8769" stroke-width="1.51"/><path d="M388,1174L302,1256L407,1286Z" fill="#c76954" stroke="#c76954" stroke-width="1.51"/><path d="M228,518L313,739L414,578Z" fill="#fe9072" stroke="#fe9072" stroke-width="1.51"/><path d="M303,99L329,232L398,119Z" fill="#fcbaa0" stroke="#fcbaa0" stroke-width="1.51"/><path d="M380,741L313,739L383,820Z" fill="#f88064" stroke="#f88064" stroke-width="1.51"/><path d="M329,232L250,391L382,362Z" fill="#fdaa8d" stroke="#fdaa8d" stroke-width="1.51"/><path d="M313,739L293,829L383,820Z" fill="#f68165" stroke="#f68165" stroke-width="1.51"/><path d="M238,1120L302,1256L388,1174Z" fill="#d1705a" stroke="#d1705a" stroke-width="1.51"/><path d="M25,1324L-129,1342L123,1345Z" fill="#bb776b" stroke="#bb776b" stroke-width="1.51"/><path d="M97,564L79,717L228,518Z" fill="#ff9d82" stroke="#ff9d82" stroke-width="1.51"/><path d="M137,982L239,1039L293,829Z" fill="#eb7e66" stroke="#eb7e66" stroke-width="1.51"/><path d="M139,865L137,982L293,829Z" fill="#f1846c" stroke="#f1846c" stroke-width="1.51"/><path d="M298,-33L171,49L303,99Z" fill="#fec9b4" stroke="#fec9b4" stroke-width="1.51"/><path d="M138,-83L298,-33L312,-161Z" fill="#fed5c3" stroke="#fed5c3" stroke-width="1.51"/><path d="M228,518L79,717L313,739Z" fill="#ff9478" stroke="#ff9478" stroke-width="1.51"/><path d="M303,99L187,212L329,232Z" fill="#fdbca2" stroke="#fdbca2" stroke-width="1.51"/><path d="M187,212L250,391L329,232Z" fill="#feb398" stroke="#feb398" stroke-width="1.51"/><path d="M139,865L293,829L313,739Z" fill="#f7856b" stroke="#f7856b" stroke-width="1.51"/><path d="M79,717L139,865L313,739Z" fill="#fb8c72" stroke="#fb8c72" stroke-width="1.51"/><path d="M99,-172L138,-83L312,-161Z" fill="#fedbcc" stroke="#fedbcc" stroke-width="1.51"/><path d="M238,1120L98,1140L302,1256Z" fill="#d57762" stroke="#d57762" stroke-width="1.51"/><path d="M98,1140L123,1345L302,1256Z" fill="#c97462" stroke="#c97462" stroke-width="1.51"/><path d="M171,49L187,212L303,99Z" fill="#fdc4ad" stroke="#fdc4ad" stroke-width="1.51"/><path d="M187,212L115,337L250,391Z" fill="#ffb49a" stroke="#ffb49a" stroke-width="1.51"/><path d="M138,-83L171,49L298,-33Z" fill="#fed2bf" stroke="#fed2bf" stroke-width="1.51"/><path d="M115,337L228,518L250,391Z" fill="#ffaa8e" stroke="#ffaa8e" stroke-width="1.51"/><path d="M115,337L97,564L228,518Z" fill="#ffa88c" stroke="#ffa88c" stroke-width="1.51"/><path d="M98,1140L238,1120L239,1039Z" fill="#dd7b65" stroke="#dd7b65" stroke-width="1.51"/><path d="M137,982L98,1140L239,1039Z" fill="#e27f69" stroke="#e27f69" stroke-width="1.51"/><path d="M-19,430L97,564L115,337Z" fill="#ffaf96" stroke="#ffaf96" stroke-width="1.51"/><path d="M98,1140L25,1324L123,1345Z" fill="#c67868" stroke="#c67868" stroke-width="1.51"/><path d="M-71,89L30,251L171,49Z" fill="#feceba" stroke="#feceba" stroke-width="1.51"/><path d="M171,49L30,251L187,212Z" fill="#fec5af" stroke="#fec5af" stroke-width="1.51"/><path d="M30,251L115,337L187,212Z" fill="#ffbda5" stroke="#ffbda5" stroke-width="1.51"/><path d="M138,-83L-18,-108L171,49Z" fill="#fedacb" stroke="#fedacb" stroke-width="1.51"/><path d="M-18,-108L-71,89L171,49Z" fill="#fed9c9" stroke="#fed9c9" stroke-width="1.51"/><path d="M-18,1165L25,1324L98,1140Z" fill="#d17f6d" stroke="#d17f6d" stroke-width="1.51"/><path d="M-42,1010L98,1140L137,982Z" fill="#e58570" stroke="#e58570" stroke-width="1.51"/><path d="M99,-172L-18,-108L138,-83Z" fill="#fee1d4" stroke="#fee1d4" stroke-width="1.51"/><path d="M79,717L-46,800L139,865Z" fill="#fc927a" stroke="#fc927a" stroke-width="1.51"/><path d="M-42,1010L137,982L139,865Z" fill="#ee8772" stroke="#ee8772" stroke-width="1.51"/><path d="M-46,800L-42,1010L139,865Z" fill="#f48e77" stroke="#f48e77" stroke-width="1.51"/><path d="M-13,581L79,717L97,564Z" fill="#ffa086" stroke="#ffa086" stroke-width="1.51"/><path d="M-19,430L-13,581L97,564Z" fill="#ffaa90" stroke="#ffaa90" stroke-width="1.51"/><path d="M-42,1010L-18,1165L98,1140Z" fill="#df8471" stroke="#df8471" stroke-width="1.51"/><path d="M30,251L-19,430L115,337Z" fill="#ffb9a2" stroke="#ffb9a2" stroke-width="1.51"/><path d="M-13,581L-67,653L79,717Z" fill="#ffa086" stroke="#ffa086" stroke-width="1.51"/><path d="M-19,-185L-18,-108L99,-172Z" fill="#ffe5d9" stroke="#ffe5d9" stroke-width="1.51"/><path d="M-67,653L-46,800L79,717Z" fill="#ff9a81" stroke="#ff9a81" stroke-width="1.51"/><path d="M-46,800L-184,874L-42,1010Z" fill="#f5917c" stroke="#f5917c" stroke-width="1.51"/><path d="M-18,1165L-139,1193L25,1324Z" fill="#cf8070" stroke="#cf8070" stroke-width="1.51"/><path d="M-139,1193L-129,1342L25,1324Z" fill="#c57e70" stroke="#c57e70" stroke-width="1.51"/><path d="M-71,89L-178,192L30,251Z" fill="#ffcdb9" stroke="#ffcdb9" stroke-width="1.51"/><path d="M-178,192L-116,360L30,251Z" fill="#ffc5b0" stroke="#ffc5b0" stroke-width="1.51"/><path d="M-116,360L-19,430L30,251Z" fill="#ffbca4" stroke="#ffbca4" stroke-width="1.51"/><path d="M-184,874L-165,1007L-42,1010Z" fill="#ef8f7c" stroke="#ef8f7c" stroke-width="1.51"/><path d="M-165,1007L-139,1193L-42,1010Z" fill="#e48a77" stroke="#e48a77" stroke-width="1.51"/><path d="M-116,360L-212,531L-19,430Z" fill="#ffb69e" stroke="#ffb69e" stroke-width="1.51"/><path d="M-198,-58L-71,89L-18,-108Z" fill="#ffe0d3" stroke="#ffe0d3" stroke-width="1.51"/><path d="M-19,-185L-197,-202L-18,-108Z" fill="#ffe9df" stroke="#ffe9df" stroke-width="1.51"/><path d="M-42,1010L-139,1193L-18,1165Z" fill="#df8774" stroke="#df8774" stroke-width="1.51"/><path d="M-170,646L-67,653L-13,581Z" fill="#ffa58c" stroke="#ffa58c" stroke-width="1.51"/><path d="M-212,531L-170,646L-13,581Z" fill="#ffaa91" stroke="#ffaa91" stroke-width="1.51"/><path d="M-19,430L-212,531L-13,581Z" fill="#ffae95" stroke="#ffae95" stroke-width="1.51"/><path d="M-197,-202L-198,-58L-18,-108Z" fill="#ffe9df" stroke="#ffe9df" stroke-width="1.51"/><path d="M-67,653L-170,646L-46,800Z" fill="#ff9f87" stroke="#ff9f87" stroke-width="1.51"/><path d="M-170,646L-184,874L-46,800Z" fill="#ff9a84" stroke="#ff9a84" stroke-width="1.51"/><path d="M-204,137L-178,192L-71,89Z" fill="#ffd4c2" stroke="#ffd4c2" stroke-width="1.51"/><path d="M-198,-58L-204,137L-71,89Z" fill="#ffdbcd" stroke="#ffdbcd" stroke-width="1.51"/><path d="M-165,1007L-184,874L-129,1342Z" fill="#e48b7a" stroke="#e48b7a" stroke-width="1.51"/><path d="M-178,192L-212,531L-116,360Z" fill="#ffbfa9" stroke="#ffbfa9" stroke-width="1.51"/><path d="M-139,1193L-165,1007L-129,1342Z" fill="#d88676" stroke="#d88676" stroke-width="1.51"/><path d="M-204,137L-212,531L-178,192Z" fill="#ffc7b3" stroke="#ffc7b3" stroke-width="1.51"/><path d="M-212,531L-184,874L-170,646Z" fill="#ffa38c" stroke="#ffa38c" stroke-width="1.51"/><path d="M-204,137L-198,-58L-197,-202Z" fill="#ffe5da" stroke="#ffe5da" stroke-width="1.51"/></svg>