<svg xmlns="http://www.w3.org/2000/svg" width="1920" height="1080"><path d="M-197,-202L-19,-185L448,-194Z" fill="#87510f" stroke="#87510f" stroke-width="1.51"/><path d="M-197,-202L448,-194L837,-244Z" fill="#9d6e2f" stroke="#9d6e2f" stroke-width="1.51"/><path d="M897,1322L123,1345L1016,1332Z" fill="#7e8f75" stroke="#7e8f75" stroke-width="1.51"/><path d="M837,-244L1155,-230L1369,-265Z" fill="#a28d73" stroke="#a28d73" stroke-width="1.51"/><path d="M1016,1332L123,1345L1668,1345Z" fill="#7c978d" stroke="#7c978d" stroke-width="1.51"/><path d="M1451,1329L1016,1332L1668,1345Z" fill="#4c887d" stroke="#4c887d" stroke-width="1.51"/><path d="M1654,-192L1821,-173L1911,-185Z" fill="#636342" stroke="#636342" stroke-width="1.51"/><path d="M1654,-192L1911,-185L2060,-232Z" fill="#58593a" stroke="#58593a" stroke-width="1.51"/><path d="M1516,-223L1654,-192L2060,-232Z" fill="#616446" stroke="#616446" stroke-width="1.51"/><path d="M1369,-265L1516,-223L2060,-232Z" fill="#666b4d" stroke="#666b4d" stroke-width="1.51"/><path d="M1966,836L2063,873L2076,642Z" fill="#59948a" stroke="#59948a" stroke-width="1.51"/><path d="M1952,652L1966,836L2076,642Z" fill="#6a9e96" stroke="#6a9e96" stroke-width="1.51"/><path d="M2070,987L1968,1181L2098,1144Z" fill="#13685f" stroke="#13685f" stroke-width="1.51"/><path d="M2076,642L2063,873L2098,1144Z" fill="#40867b" stroke="#40867b" stroke-width="1.51"/><path d="M2063,873L2070,987L2098,1144Z" fill="#25756a" stroke="#25756a" stroke-width="1.51"/><path d="M2047,56L1886,188L2100,282Z" fill="#7c845d" stroke="#7c845d" stroke-width="1.51"/><path d="M2079,-104L2047,56L2100,282Z" fill="#726c41" stroke="#726c41" stroke-width="1.51"/><path d="M2100,282L1956,361L2118,381Z" fill="#81947a" stroke="#81947a" stroke-width="1.51"/><path d="M1956,361L2053,487L2118,381Z" fill="#839b86" stroke="#839b86" stroke-width="1.51"/><path d="M2053,487L2076,642L2118,381Z" fill="#7f9a8f" stroke="#7f9a8f" stroke-width="1.51"/><path d="M2076,642L2098,1144L2118,381Z" fill="#63938a" stroke="#63938a" stroke-width="1.51"/><path d="M2079,-104L2100,282L2118,381Z" fill="#777e56" stroke="#777e56" stroke-width="1.51"/><path d="M2098,1144L1968,1181L2118,1295Z" fill="#01584f" stroke="#01584f" stroke-width="1.51"/><path d="M1968,1181L1940,1323L2118,1295Z" fill="#01554b" stroke="#01554b" stroke-width="1.51"/><path d="M2118,381L2098,1144L2118,1295Z" fill="#337b6f" stroke="#337b6f" stroke-width="1.51"/><path d="M1907,1007L1968,1181L2070,987Z" fill="#1a756c" stroke="#1a756c" stroke-width="1.51"/><path d="M2053,487L1915,557L2076,642Z" fill="#7fa29b" stroke="#7fa29b" stroke-width="1.51"/><path d="M1915,557L1952,652L2076,642Z" fill="#79a39c" stroke="#79a39c" stroke-width="1.51"/><path d="M1909,-80L2047,56L2079,-104Z" fill="#686037" stroke="#686037" stroke-width="1.51"/><path d="M1886,188L1956,361L2100,282Z" fill="#829575" stroke="#829575" stroke-width="1.51"/><path d="M1909,-80L1935,50L2047,56Z" fill="#726c41" stroke="#726c41" stroke-width="1.51"/><path d="M1935,50L1886,188L2047,56Z" fill="#7b7b51" stroke="#7b7b51" stroke-width="1.51"/><path d="M2063,873L1966,836L2070,987Z" fill="#3f887e" stroke="#3f887e" stroke-width="1.51"/><path d="M1966,836L1907,1007L2070,987Z" fill="#37877d" stroke="#37877d" stroke-width="1.51"/><path d="M2060,-232L1911,-185L2079,-104Z" fill="#544f2e" stroke="#544f2e" stroke-width="1.51"/><path d="M1911,-185L1909,-80L2079,-104Z" fill="#605934" stroke="#605934" stroke-width="1.51"/><path d="M1956,361L1915,557L2053,487Z" fill="#86a396" stroke="#86a396" stroke-width="1.51"/><path d="M695,1288L123,1345L897,1322Z" fill="#7b8969" stroke="#7b8969" stroke-width="1.51"/><path d="M1830,1272L1668,1345L1940,1323Z" fill="#0d6258" stroke="#0d6258" stroke-width="1.51"/><path d="M1752,659L1839,888L1952,652Z" fill="#6eaba4" stroke="#6eaba4" stroke-width="1.51"/><path d="M1886,188L1729,274L1956,361Z" fill="#8ca282" stroke="#8ca282" stroke-width="1.51"/><path d="M1794,422L1915,557L1956,361Z" fill="#8bac9c" stroke="#8bac9c" stroke-width="1.51"/><path d="M1952,652L1839,888L1966,836Z" fill="#5b9f96" stroke="#5b9f96" stroke-width="1.51"/><path d="M1839,888L1907,1007L1966,836Z" fill="#41938a" stroke="#41938a" stroke-width="1.51"/><path d="M1907,1007L1835,1137L1968,1181Z" fill="#16756d" stroke="#16756d" stroke-width="1.51"/><path d="M1830,1272L1940,1323L1968,1181Z" fill="#025f56" stroke="#025f56" stroke-width="1.51"/><path d="M1835,1137L1830,1272L1968,1181Z" fill="#076a62" stroke="#076a62" stroke-width="1.51"/><path d="M1729,274L1794,422L1956,361Z" fill="#91ad94" stroke="#91ad94" stroke-width="1.51"/><path d="M1915,557L1752,659L1952,652Z" fill="#7faea7" stroke="#7faea7" stroke-width="1.51"/><path d="M1794,422L1776,529L1915,557Z" fill="#90b4ab" stroke="#90b4ab" stroke-width="1.51"/><path d="M1746,43L1886,188L1935,50Z" fill="#82855a" stroke="#82855a" stroke-width="1.51"/><path d="M1909,-80L1772,-42L1935,50Z" fill="#747047" stroke="#747047" stroke-width="1.51"/><path d="M1821,-173L1909,-80L1911,-185Z" fill="#625f3c" stroke="#625f3c" stroke-width="1.51"/><path d="M1772,-42L1746,43L1935,50Z" fill="#7f7b50" stroke="#7f7b50" stroke-width="1.51"/><path d="M1839,888L1762,989L1907,1007Z" fill="#3b938a" stroke="#3b938a" stroke-width="1.51"/><path d="M1762,989L1835,1137L1907,1007Z" fill="#26857d" stroke="#26857d" stroke-width="1.51"/><path d="M1776,529L1752,659L1915,557Z" fill="#8ab5b0" stroke="#8ab5b0" stroke-width="1.51"/><path d="M1821,-173L1772,-42L1909,-80Z" fill="#6e6943" stroke="#6e6943" stroke-width="1.51"/><path d="M407,1286L123,1345L695,1288Z" fill="#777b53" stroke="#777b53" stroke-width="1.51"/><path d="M1746,43L1729,274L1886,188Z" fill="#8d9a72" stroke="#8d9a72" stroke-width="1.51"/><path d="M1664,231L1729,274L1746,43Z" fill="#93a47d" stroke="#93a47d" stroke-width="1.51"/><path d="M1582,1190L1668,1345L1830,1272Z" fill="#1c736a" stroke="#1c736a" stroke-width="1.51"/><path d="M1582,1190L1830,1272L1835,1137Z" fill="#18776f" stroke="#18776f" stroke-width="1.51"/><path d="M1591,892L1762,989L1839,888Z" fill="#4ca39a" stroke="#4ca39a" stroke-width="1.51"/><path d="M1752,659L1591,892L1839,888Z" fill="#66b1a8" stroke="#66b1a8" stroke-width="1.51"/><path d="M1762,989L1582,1190L1835,1137Z" fill="#28877f" stroke="#28877f" stroke-width="1.51"/><path d="M1654,-192L1772,-42L1821,-173Z" fill="#6f6d49" stroke="#6f6d49" stroke-width="1.51"/><path d="M1729,274L1687,411L1794,422Z" fill="#99b9a1" stroke="#99b9a1" stroke-width="1.51"/><path d="M1601,655L1591,892L1752,659Z" fill="#80c1b9" stroke="#80c1b9" stroke-width="1.51"/><path d="M1591,892L1601,952L1762,989Z" fill="#50a89f" stroke="#50a89f" stroke-width="1.51"/><path d="M1654,-192L1633,-69L1772,-42Z" fill="#7b7751" stroke="#7b7751" stroke-width="1.51"/><path d="M1687,411L1776,529L1794,422Z" fill="#97baac" stroke="#97baac" stroke-width="1.51"/><path d="M1593,44L1664,231L1746,43Z" fill="#959b70" stroke="#959b70" stroke-width="1.51"/><path d="M1601,952L1582,1190L1762,989Z" fill="#3a9990" stroke="#3a9990" stroke-width="1.51"/><path d="M1613,535L1752,659L1776,529Z" fill="#94c1bc" stroke="#94c1bc" stroke-width="1.51"/><path d="M1687,411L1613,535L1776,529Z" fill="#9cc2b8" stroke="#9cc2b8" stroke-width="1.51"/><path d="M1633,-69L1746,43L1772,-42Z" fill="#828056" stroke="#828056" stroke-width="1.51"/><path d="M1613,535L1601,655L1752,659Z" fill="#94c6c0" stroke="#94c6c0" stroke-width="1.51"/><path d="M1633,-69L1593,44L1746,43Z" fill="#8d8a5f" stroke="#8d8a5f" stroke-width="1.51"/><path d="M1506,788L1591,892L1601,655Z" fill="#83c6bd" stroke="#83c6bd" stroke-width="1.51"/><path d="M1664,231L1687,411L1729,274Z" fill="#9bb699" stroke="#9bb699" stroke-width="1.51"/><path d="M1226,1277L1016,1332L1451,1329Z" fill="#63948b" stroke="#63948b" stroke-width="1.51"/><path d="M1482,1158L1582,1190L1601,952Z" fill="#439b92" stroke="#439b92" stroke-width="1.51"/><path d="M1593,44L1494,184L1664,231Z" fill="#a2ac83" stroke="#a2ac83" stroke-width="1.51"/><path d="M1664,231L1528,399L1687,411Z" fill="#a5c2a9" stroke="#a5c2a9" stroke-width="1.51"/><path d="M1528,399L1613,535L1687,411Z" fill="#a7cbbb" stroke="#a7cbbb" stroke-width="1.51"/><path d="M1494,184L1528,399L1664,231Z" fill="#aac19f" stroke="#aac19f" stroke-width="1.51"/><path d="M1582,1190L1451,1329L1668,1345Z" fill="#317e74" stroke="#317e74" stroke-width="1.51"/><path d="M1516,-223L1633,-69L1654,-192Z" fill="#7a7855" stroke="#7a7855" stroke-width="1.51"/><path d="M1468,951L1482,1158L1601,952Z" fill="#54aba2" stroke="#54aba2" stroke-width="1.51"/><path d="M1500,636L1601,655L1613,535Z" fill="#a0d0c9" stroke="#a0d0c9" stroke-width="1.51"/><path d="M1458,-12L1593,44L1633,-69Z" fill="#969166" stroke="#969166" stroke-width="1.51"/><path d="M1516,-223L1458,-12L1633,-69Z" fill="#8d875f" stroke="#8d875f" stroke-width="1.51"/><path d="M1458,-12L1482,42L1593,44Z" fill="#a29d6f" stroke="#a29d6f" stroke-width="1.51"/><path d="M1482,42L1494,184L1593,44Z" fill="#a7a77a" stroke="#a7a77a" stroke-width="1.51"/><path d="M1500,636L1506,788L1601,655Z" fill="#99d1c9" stroke="#99d1c9" stroke-width="1.51"/><path d="M1528,399L1464,551L1613,535Z" fill="#b0d4ca" stroke="#b0d4ca" stroke-width="1.51"/><path d="M1464,551L1500,636L1613,535Z" fill="#acd6d0" stroke="#acd6d0" stroke-width="1.51"/><path d="M1482,1158L1451,1329L1582,1190Z" fill="#3e8d84" stroke="#3e8d84" stroke-width="1.51"/><path d="M1591,892L1468,951L1601,952Z" fill="#62b6ab" stroke="#62b6ab" stroke-width="1.51"/><path d="M1494,184L1381,271L1528,399Z" fill="#b8cdac" stroke="#b8cdac" stroke-width="1.51"/><path d="M1506,788L1468,951L1591,892Z" fill="#73c2b7" stroke="#73c2b7" stroke-width="1.51"/><path d="M-19,-185L99,-172L448,-194Z" fill="#935c16" stroke="#935c16" stroke-width="1.51"/><path d="M1468,951L1318,994L1482,1158Z" fill="#5fb3a9" stroke="#5fb3a9" stroke-width="1.51"/><path d="M1500,636L1348,716L1506,788Z" fill="#a1dad1" stroke="#a1dad1" stroke-width="1.51"/><path d="M1350,786L1468,951L1506,788Z" fill="#87d0c4" stroke="#87d0c4" stroke-width="1.51"/><path d="M1352,-26L1458,-12L1516,-223Z" fill="#9b936a" stroke="#9b936a" stroke-width="1.51"/><path d="M1369,-265L1352,-26L1516,-223Z" fill="#908966" stroke="#908966" stroke-width="1.51"/><path d="M1349,444L1464,551L1528,399Z" fill="#bdddcf" stroke="#bdddcf" stroke-width="1.51"/><path d="M1381,271L1349,444L1528,399Z" fill="#c2dcc3" stroke="#c2dcc3" stroke-width="1.51"/><path d="M1345,1166L1451,1329L1482,1158Z" fill="#4a968c" stroke="#4a968c" stroke-width="1.51"/><path d="M1318,994L1345,1166L1482,1158Z" fill="#5eaaa1" stroke="#5eaaa1" stroke-width="1.51"/><path d="M1482,42L1353,63L1494,184Z" fill="#b1b183" stroke="#b1b183" stroke-width="1.51"/><path d="M1348,716L1350,786L1506,788Z" fill="#9ed9cf" stroke="#9ed9cf" stroke-width="1.51"/><path d="M1280,1263L1226,1277L1451,1329Z" fill="#589388" stroke="#589388" stroke-width="1.51"/><path d="M1464,551L1318,591L1500,636Z" fill="#b7e1d9" stroke="#b7e1d9" stroke-width="1.51"/><path d="M1318,591L1348,716L1500,636Z" fill="#b4e1da" stroke="#b4e1da" stroke-width="1.51"/><path d="M1353,63L1381,271L1494,184Z" fill="#bac299" stroke="#bac299" stroke-width="1.51"/><path d="M1350,786L1318,994L1468,951Z" fill="#81cabf" stroke="#81cabf" stroke-width="1.51"/><path d="M1458,-12L1353,63L1482,42Z" fill="#aea677" stroke="#aea677" stroke-width="1.51"/><path d="M1345,1166L1280,1263L1451,1329Z" fill="#54958b" stroke="#54958b" stroke-width="1.51"/><path d="M1352,-26L1353,63L1458,-12Z" fill="#b0a478" stroke="#b0a478" stroke-width="1.51"/><path d="M1349,444L1318,591L1464,551Z" fill="#c5e5de" stroke="#c5e5de" stroke-width="1.51"/><path d="M1225,484L1318,591L1349,444Z" fill="#d1e8e0" stroke="#d1e8e0" stroke-width="1.51"/><path d="M1195,855L1318,994L1350,786Z" fill="#96d5cb" stroke="#96d5cb" stroke-width="1.51"/><path d="M1232,55L1181,203L1353,63Z" fill="#cabe94" stroke="#cabe94" stroke-width="1.51"/><path d="M1218,-68L1352,-26L1369,-265Z" fill="#a6956f" stroke="#a6956f" stroke-width="1.51"/><path d="M1155,-230L1218,-68L1369,-265Z" fill="#a09070" stroke="#a09070" stroke-width="1.51"/><path d="M1198,387L1349,444L1381,271Z" fill="#d1e2ca" stroke="#d1e2ca" stroke-width="1.51"/><path d="M1181,203L1198,387L1381,271Z" fill="#d4dcbd" stroke="#d4dcbd" stroke-width="1.51"/><path d="M1353,63L1181,203L1381,271Z" fill="#c8c9a1" stroke="#c8c9a1" stroke-width="1.51"/><path d="M448,-194L636,-194L837,-244Z" fill="#af8958" stroke="#af8958" stroke-width="1.51"/><path d="M1318,994L1164,1195L1345,1166Z" fill="#6daea7" stroke="#6daea7" stroke-width="1.51"/><path d="M1318,591L1131,648L1348,716Z" fill="#c5e8e2" stroke="#c5e8e2" stroke-width="1.51"/><path d="M1198,387L1225,484L1349,444Z" fill="#d8e8d9" stroke="#d8e8d9" stroke-width="1.51"/><path d="M1348,716L1195,855L1350,786Z" fill="#a8ddd4" stroke="#a8ddd4" stroke-width="1.51"/><path d="M1218,-68L1232,55L1352,-26Z" fill="#bca87e" stroke="#bca87e" stroke-width="1.51"/><path d="M1352,-26L1232,55L1353,63Z" fill="#bcac7f" stroke="#bcac7f" stroke-width="1.51"/><path d="M1131,648L1195,855L1348,716Z" fill="#bde6df" stroke="#bde6df" stroke-width="1.51"/><path d="M1164,1195L1280,1263L1345,1166Z" fill="#65a199" stroke="#65a199" stroke-width="1.51"/><path d="M1091,1026L1164,1195L1318,994Z" fill="#7fbab4" stroke="#7fbab4" stroke-width="1.51"/><path d="M1129,971L1091,1026L1318,994Z" fill="#8cc7bf" stroke="#8cc7bf" stroke-width="1.51"/><path d="M1195,855L1129,971L1318,994Z" fill="#94cfc7" stroke="#94cfc7" stroke-width="1.51"/><path d="M1225,484L1131,648L1318,591Z" fill="#d6ede9" stroke="#d6ede9" stroke-width="1.51"/><path d="M1164,1195L1226,1277L1280,1263Z" fill="#689e96" stroke="#689e96" stroke-width="1.51"/><path d="M1131,648L1037,723L1195,855Z" fill="#c7e9e3" stroke="#c7e9e3" stroke-width="1.51"/><path d="M1181,203L1051,256L1198,387Z" fill="#e1dfc2" stroke="#e1dfc2" stroke-width="1.51"/><path d="M1155,-230L1035,-58L1218,-68Z" fill="#b99c78" stroke="#b99c78" stroke-width="1.51"/><path d="M1026,484L1131,648L1225,484Z" fill="#e5f1ef" stroke="#e5f1ef" stroke-width="1.51"/><path d="M1001,54L1181,203L1232,55Z" fill="#d6c299" stroke="#d6c299" stroke-width="1.51"/><path d="M1218,-68L1035,-58L1232,55Z" fill="#c6ab82" stroke="#c6ab82" stroke-width="1.51"/><path d="M1035,-58L1001,54L1232,55Z" fill="#d1b289" stroke="#d1b289" stroke-width="1.51"/><path d="M1017,-159L1035,-58L1155,-230Z" fill="#b99a79" stroke="#b99a79" stroke-width="1.51"/><path d="M1198,387L1053,411L1225,484Z" fill="#e3ecde" stroke="#e3ecde" stroke-width="1.51"/><path d="M1164,1195L1016,1332L1226,1277Z" fill="#719e96" stroke="#719e96" stroke-width="1.51"/><path d="M1053,411L1026,484L1225,484Z" fill="#e8efe5" stroke="#e8efe5" stroke-width="1.51"/><path d="M837,-244L1017,-159L1155,-230Z" fill="#b19478" stroke="#b19478" stroke-width="1.51"/><path d="M1091,1026L1048,1187L1164,1195Z" fill="#81b3ac" stroke="#81b3ac" stroke-width="1.51"/><path d="M1048,1187L1016,1332L1164,1195Z" fill="#79a49c" stroke="#79a49c" stroke-width="1.51"/><path d="M1001,54L1051,256L1181,203Z" fill="#e0d0ab" stroke="#e0d0ab" stroke-width="1.51"/><path d="M1037,723L1013,808L1195,855Z" fill="#c0e5df" stroke="#c0e5df" stroke-width="1.51"/><path d="M1051,256L1053,411L1198,387Z" fill="#e8e8d2" stroke="#e8e8d2" stroke-width="1.51"/><path d="M1013,808L1129,971L1195,855Z" fill="#acdcd5" stroke="#acdcd5" stroke-width="1.51"/><path d="M1026,484L897,570L1037,723Z" fill="#ecf3f1" stroke="#ecf3f1" stroke-width="1.51"/><path d="M1013,808L1091,1026L1129,971Z" fill="#a4d4cd" stroke="#a4d4cd" stroke-width="1.51"/><path d="M1026,484L1037,723L1131,648Z" fill="#e0f0ed" stroke="#e0f0ed" stroke-width="1.51"/><path d="M894,1013L871,1116L1048,1187Z" fill="#93bab3" stroke="#93bab3" stroke-width="1.51"/><path d="M1051,256L930,278L1053,411Z" fill="#eee6cd" stroke="#eee6cd" stroke-width="1.51"/><path d="M894,1013L1048,1187L1091,1026Z" fill="#91beb9" stroke="#91beb9" stroke-width="1.51"/><path d="M1013,808L894,1013L1091,1026Z" fill="#a9d3cd" stroke="#a9d3cd" stroke-width="1.51"/><path d="M840,92L930,278L1001,54Z" fill="#e7cca4" stroke="#e7cca4" stroke-width="1.51"/><path d="M897,570L842,656L1037,723Z" fill="#e6f1ec" stroke="#e6f1ec" stroke-width="1.51"/><path d="M897,1322L1016,1332L1048,1187Z" fill="#7e9f98" stroke="#7e9f98" stroke-width="1.51"/><path d="M1001,54L930,278L1051,256Z" fill="#e9d7b4" stroke="#e9d7b4" stroke-width="1.51"/><path d="M868,423L1026,484L1053,411Z" fill="#f4f0e5" stroke="#f4f0e5" stroke-width="1.51"/><path d="M930,278L868,423L1053,411Z" fill="#f6edda" stroke="#f6edda" stroke-width="1.51"/><path d="M830,821L894,1013L1013,808Z" fill="#bbded4" stroke="#bbded4" stroke-width="1.51"/><path d="M871,1116L897,1322L1048,1187Z" fill="#87aaa3" stroke="#87aaa3" stroke-width="1.51"/><path d="M1017,-159L864,-7L1035,-58Z" fill="#cda682" stroke="#cda682" stroke-width="1.51"/><path d="M864,-7L1001,54L1035,-58Z" fill="#d9b28a" stroke="#d9b28a" stroke-width="1.51"/><path d="M842,656L1013,808L1037,723Z" fill="#d9eeea" stroke="#d9eeea" stroke-width="1.51"/><path d="M842,656L830,821L1013,808Z" fill="#d3e9e0" stroke="#d3e9e0" stroke-width="1.51"/><path d="M868,423L897,570L1026,484Z" fill="#f6f2ea" stroke="#f6f2ea" stroke-width="1.51"/><path d="M785,-194L864,-7L1017,-159Z" fill="#c69e77" stroke="#c69e77" stroke-width="1.51"/><path d="M837,-244L785,-194L1017,-159Z" fill="#b79572" stroke="#b79572" stroke-width="1.51"/><path d="M864,-7L840,92L1001,54Z" fill="#e0b88b" stroke="#e0b88b" stroke-width="1.51"/><path d="M561,1261L407,1286L695,1288Z" fill="#7f8e6d" stroke="#7f8e6d" stroke-width="1.51"/><path d="M830,821L749,990L894,1013Z" fill="#b0d2c2" stroke="#b0d2c2" stroke-width="1.51"/><path d="M871,1116L768,1152L897,1322Z" fill="#89a99c" stroke="#89a99c" stroke-width="1.51"/><path d="M840,92L735,235L930,278Z" fill="#ebd6aa" stroke="#ebd6aa" stroke-width="1.51"/><path d="M735,235L785,349L930,278Z" fill="#f0e0ba" stroke="#f0e0ba" stroke-width="1.51"/><path d="M785,349L868,423L930,278Z" fill="#f5e9cc" stroke="#f5e9cc" stroke-width="1.51"/><path d="M749,990L871,1116L894,1013Z" fill="#9dc2b4" stroke="#9dc2b4" stroke-width="1.51"/><path d="M768,1152L695,1288L897,1322Z" fill="#85a08d" stroke="#85a08d" stroke-width="1.51"/><path d="M868,423L717,544L897,570Z" fill="#f6f0e3" stroke="#f6f0e3" stroke-width="1.51"/><path d="M717,544L842,656L897,570Z" fill="#efefe3" stroke="#efefe3" stroke-width="1.51"/><path d="M785,-194L679,-55L864,-7Z" fill="#cba06f" stroke="#cba06f" stroke-width="1.51"/><path d="M714,714L830,821L842,656Z" fill="#dae9d9" stroke="#dae9d9" stroke-width="1.51"/><path d="M743,59L840,92L864,-7Z" fill="#dfb682" stroke="#dfb682" stroke-width="1.51"/><path d="M785,349L717,544L868,423Z" fill="#f6ecd4" stroke="#f6ecd4" stroke-width="1.51"/><path d="M749,990L768,1152L871,1116Z" fill="#97baa8" stroke="#97baa8" stroke-width="1.51"/><path d="M679,-55L743,59L864,-7Z" fill="#d7ad77" stroke="#d7ad77" stroke-width="1.51"/><path d="M99,-172L312,-161L448,-194Z" fill="#9f6923" stroke="#9f6923" stroke-width="1.51"/><path d="M699,821L749,990L830,821Z" fill="#bedbc5" stroke="#bedbc5" stroke-width="1.51"/><path d="M714,714L699,821L830,821Z" fill="#d0e3ce" stroke="#d0e3ce" stroke-width="1.51"/><path d="M636,-194L785,-194L837,-244Z" fill="#b39066" stroke="#b39066" stroke-width="1.51"/><path d="M743,59L735,235L840,92Z" fill="#e5c691" stroke="#e5c691" stroke-width="1.51"/><path d="M717,544L714,714L842,656Z" fill="#e9eddb" stroke="#e9eddb" stroke-width="1.51"/><path d="M636,-194L630,-93L679,-55Z" fill="#c1955d" stroke="#c1955d" stroke-width="1.51"/><path d="M634,240L735,235L743,59Z" fill="#e8cd96" stroke="#e8cd96" stroke-width="1.51"/><path d="M749,990L627,1137L768,1152Z" fill="#97b69e" stroke="#97b69e" stroke-width="1.51"/><path d="M584,392L717,544L785,349Z" fill="#f5e8c7" stroke="#f5e8c7" stroke-width="1.51"/><path d="M735,235L634,240L785,349Z" fill="#f0dcad" stroke="#f0dcad" stroke-width="1.51"/><path d="M634,240L584,392L785,349Z" fill="#f1deb1" stroke="#f1deb1" stroke-width="1.51"/><path d="M636,-194L679,-55L785,-194Z" fill="#be9562" stroke="#be9562" stroke-width="1.51"/><path d="M562,129L634,240L743,59Z" fill="#e2c185" stroke="#e2c185" stroke-width="1.51"/><path d="M627,1137L695,1288L768,1152Z" fill="#8aa58d" stroke="#8aa58d" stroke-width="1.51"/><path d="M576,560L714,714L717,544Z" fill="#ece8d1" stroke="#ece8d1" stroke-width="1.51"/><path d="M699,821L551,994L749,990Z" fill="#b1cbb0" stroke="#b1cbb0" stroke-width="1.51"/><path d="M551,994L627,1137L749,990Z" fill="#9cb99d" stroke="#9cb99d" stroke-width="1.51"/><path d="M679,-55L562,129L743,59Z" fill="#dbaf6f" stroke="#dbaf6f" stroke-width="1.51"/><path d="M576,560L575,730L714,714Z" fill="#e2e2c7" stroke="#e2e2c7" stroke-width="1.51"/><path d="M584,392L576,560L717,544Z" fill="#f3e5c7" stroke="#f3e5c7" stroke-width="1.51"/><path d="M627,1137L561,1261L695,1288Z" fill="#859a7e" stroke="#859a7e" stroke-width="1.51"/><path d="M585,791L551,994L699,821Z" fill="#bcd2b2" stroke="#bcd2b2" stroke-width="1.51"/><path d="M585,791L699,821L714,714Z" fill="#d0dfc5" stroke="#d0dfc5" stroke-width="1.51"/><path d="M575,730L585,791L714,714Z" fill="#d5dec2" stroke="#d5dec2" stroke-width="1.51"/><path d="M630,-93L477,-20L679,-55Z" fill="#c89a5b" stroke="#c89a5b" stroke-width="1.51"/><path d="M477,-20L562,129L679,-55Z" fill="#d1a460" stroke="#d1a460" stroke-width="1.51"/><path d="M441,248L584,392L634,240Z" fill="#e9d199" stroke="#e9d199" stroke-width="1.51"/><path d="M448,-194L630,-93L636,-194Z" fill="#b48a50" stroke="#b48a50" stroke-width="1.51"/><path d="M551,994L481,1006L627,1137Z" fill="#99b190" stroke="#99b190" stroke-width="1.51"/><path d="M562,129L441,248L634,240Z" fill="#e2c685" stroke="#e2c685" stroke-width="1.51"/><path d="M448,-194L477,-20L630,-93Z" fill="#bb8d4c" stroke="#bb8d4c" stroke-width="1.51"/><path d="M388,1174L561,1261L627,1137Z" fill="#869876" stroke="#869876" stroke-width="1.51"/><path d="M481,1006L388,1174L627,1137Z" fill="#8fa47f" stroke="#8fa47f" stroke-width="1.51"/><path d="M414,578L380,741L575,730Z" fill="#d9d3ae" stroke="#d9d3ae" stroke-width="1.51"/><path d="M380,741L383,820L575,730Z" fill="#cbcca5" stroke="#cbcca5" stroke-width="1.51"/><path d="M414,578L575,730L576,560Z" fill="#e3dcbb" stroke="#e3dcbb" stroke-width="1.51"/><path d="M441,248L382,362L584,392Z" fill="#e8ce95" stroke="#e8ce95" stroke-width="1.51"/><path d="M414,578L576,560L584,392Z" fill="#efdebb" stroke="#efdebb" stroke-width="1.51"/><path d="M382,362L414,578L584,392Z" fill="#ebd4a7" stroke="#ebd4a7" stroke-width="1.51"/><path d="M481,1006L551,994L585,791Z" fill="#aec29f" stroke="#aec29f" stroke-width="1.51"/><path d="M383,820L481,1006L585,791Z" fill="#b7c79f" stroke="#b7c79f" stroke-width="1.51"/><path d="M575,730L383,820L585,791Z" fill="#cad2ae" stroke="#cad2ae" stroke-width="1.51"/><path d="M477,-20L398,119L562,129Z" fill="#d3a75d" stroke="#d3a75d" stroke-width="1.51"/><path d="M388,1174L407,1286L561,1261Z" fill="#7e8a64" stroke="#7e8a64" stroke-width="1.51"/><path d="M398,119L441,248L562,129Z" fill="#dbb770" stroke="#dbb770" stroke-width="1.51"/><path d="M302,1256L123,1345L407,1286Z" fill="#736d41" stroke="#736d41" stroke-width="1.51"/><path d="M298,-33L398,119L477,-20Z" fill="#c69244" stroke="#c69244" stroke-width="1.51"/><path d="M448,-194L312,-161L477,-20Z" fill="#b17e3a" stroke="#b17e3a" stroke-width="1.51"/><path d="M312,-161L298,-33L477,-20Z" fill="#b68036" stroke="#b68036" stroke-width="1.51"/><path d="M383,820L293,829L481,1006Z" fill="#b2b98d" stroke="#b2b98d" stroke-width="1.51"/><path d="M293,829L239,1039L481,1006Z" fill="#a2a67b" stroke="#a2a67b" stroke-width="1.51"/><path d="M239,1039L388,1174L481,1006Z" fill="#8f986f" stroke="#8f986f" stroke-width="1.51"/><path d="M250,391L228,518L382,362Z" fill="#e1bb87" stroke="#e1bb87" stroke-width="1.51"/><path d="M298,-33L303,99L398,119Z" fill="#c89041" stroke="#c89041" stroke-width="1.51"/><path d="M382,362L228,518L414,578Z" fill="#e6c699" stroke="#e6c699" stroke-width="1.51"/><path d="M398,119L329,232L441,248Z" fill="#d9b36b" stroke="#d9b36b" stroke-width="1.51"/><path d="M329,232L382,362L441,248Z" fill="#dfbd7c" stroke="#dfbd7c" stroke-width="1.51"/><path d="M239,1039L238,1120L388,1174Z" fill="#87885d" stroke="#87885d" stroke-width="1.51"/><path d="M313,739L380,741L414,578Z" fill="#d5c79f" stroke="#d5c79f" stroke-width="1.51"/><path d="M388,1174L302,1256L407,1286Z" fill="#7c8056" stroke="#7c8056" stroke-width="1.51"/><path d="M228,518L313,739L414,578Z" fill="#dbc29a" stroke="#dbc29a" stroke-width="1.51"/><path d="M303,99L329,232L398,119Z" fill="#d1a358" stroke="#d1a358" stroke-width="1.51"/><path d="M380,741L313,739L383,820Z" fill="#c7c096" stroke="#c7c096" stroke-width="1.51"/><path d="M329,232L250,391L382,362Z" fill="#dfb97b" stroke="#dfb97b" stroke-width="1.51"/><path d="M313,739L293,829L383,820Z" fill="#c0b98e" stroke="#c0b98e" stroke-width="1.51"/><path d="M238,1120L302,1256L388,1174Z" fill="#7f8056" stroke="#7f8056" stroke-width="1.51"/><path d="M25,1324L-129,1342L123,1345Z" fill="#574c26" stroke="#574c26" stroke-width="1.51"/><path d="M97,564L79,717L228,518Z" fill="#ceac85" stroke="#ceac85" stroke-width="1.51"/><path d="M137,982L239,1039L293,829Z" fill="#9d986b" stroke="#9d986b" stroke-width="1.51"/><path d="M139,865L137,982L293,829Z" fill="#a59f71" stroke="#a59f71" stroke-width="1.51"/><path d="M298,-33L171,49L303,99Z" fill="#c08230" stroke="#c08230" stroke-width="1.51"/><path d="M138,-83L298,-33L312,-161Z" fill="#aa6e20" stroke="#aa6e20" stroke-width="1.51"/><path d="M228,518L79,717L313,739Z" fill="#cfb288" stroke="#cfb288" stroke-width="1.51"/><path d="M303,99L187,212L329,232Z" fill="#d0a054" stroke="#d0a054" stroke-width="1.51"/><path d="M187,212L250,391L329,232Z" fill="#d7ab66" stroke="#d7ab66" stroke-width="1.51"/><path d="M139,865L293,829L313,739Z" fill="#b9ad7f" stroke="#b9ad7f" stroke-width="1.51"/><path d="M79,717L139,865L313,739Z" fill="#b9a87d" stroke="#b9a87d" stroke-width="1.51"/><path d="M99,-172L138,-83L312,-161Z" fill="#9c6118" stroke="#9c6118" stroke-width="1.51"/><path d="M238,1120L98,1140L302,1256Z" fill="#7b764b" stroke="#7b764b" stroke-width="1.51"/><path d="M98,1140L123,1345L302,1256Z" fill="#6f693e" stroke="#6f693e" stroke-width="1.51"/><path d="M171,49L187,212L303,99Z" fill="#c58d3e" stroke="#c58d3e" stroke-width="1.51"/><path d="M187,212L115,337L250,391Z" fill="#d3a767" stroke="#d3a767" stroke-width="1.51"/><path d="M138,-83L171,49L298,-33Z" fill="#b07324" stroke="#b07324" stroke-width="1.51"/><path d="M115,337L228,518L250,391Z" fill="#dab07a" stroke="#dab07a" stroke-width="1.51"/><path d="M115,337L97,564L228,518Z" fill="#d6ad7f" stroke="#d6ad7f" stroke-width="1.51"/><path d="M98,1140L238,1120L239,1039Z" fill="#827f54" stroke="#827f54" stroke-width="1.51"/><path d="M137,982L98,1140L239,1039Z" fill="#858258" stroke="#858258" stroke-width="1.51"/><path d="M-19,430L97,564L115,337Z" fill="#cca375" stroke="#cca375" stroke-width="1.51"/><path d="M98,1140L25,1324L123,1345Z" fill="#645c35" stroke="#645c35" stroke-width="1.51"/><path d="M-71,89L30,251L171,49Z" fill="#b37d34" stroke="#b37d34" stroke-width="1.51"/><path d="M171,49L30,251L187,212Z" fill="#c08d44" stroke="#c08d44" stroke-width="1.51"/><path d="M30,251L115,337L187,212Z" fill="#c79a58" stroke="#c79a58" stroke-width="1.51"/><path d="M138,-83L-18,-108L171,49Z" fill="#a16519" stroke="#a16519" stroke-width="1.51"/><path d="M-18,-108L-71,89L171,49Z" fill="#a3661a" stroke="#a3661a" stroke-width="1.51"/><path d="M-18,1165L25,1324L98,1140Z" fill="#655f3a" stroke="#655f3a" stroke-width="1.51"/><path d="M-42,1010L98,1140L137,982Z" fill="#7d7a53" stroke="#7d7a53" stroke-width="1.51"/><path d="M99,-172L-18,-108L138,-83Z" fill="#935810" stroke="#935810" stroke-width="1.51"/><path d="M79,717L-46,800L139,865Z" fill="#aa9a72" stroke="#aa9a72" stroke-width="1.51"/><path d="M-42,1010L137,982L139,865Z" fill="#8f8960" stroke="#8f8960" stroke-width="1.51"/><path d="M-46,800L-42,1010L139,865Z" fill="#948d64" stroke="#948d64" stroke-width="1.51"/><path d="M-13,581L79,717L97,564Z" fill="#c3a37e" stroke="#c3a37e" stroke-width="1.51"/><path d="M-19,430L-13,581L97,564Z" fill="#c9a17d" stroke="#c9a17d" stroke-width="1.51"/><path d="M-42,1010L-18,1165L98,1140Z" fill="#716c47" stroke="#716c47" stroke-width="1.51"/><path d="M30,251L-19,430L115,337Z" fill="#c69a62" stroke="#c69a62" stroke-width="1.51"/><path d="M-13,581L-67,653L79,717Z" fill="#ba9d79" stroke="#ba9d79" stroke-width="1.51"/><path d="M-19,-185L-18,-108L99,-172Z" fill="#884f0b" stroke="#884f0b" stroke-width="1.51"/><path d="M-67,653L-46,800L79,717Z" fill="#af9874" stroke="#af9874" stroke-width="1.51"/><path d="M-46,800L-184,874L-42,1010Z" fill="#868360" stroke="#868360" stroke-width="1.51"/><path d="M-18,1165L-139,1193L25,1324Z" fill="#5b5734" stroke="#5b5734" stroke-width="1.51"/><path d="M-139,1193L-129,1342L25,1324Z" fill="#524d2b" stroke="#524d2b" stroke-width="1.51"/><path d="M-71,89L-178,192L30,251Z" fill="#aa7c3b" stroke="#aa7c3b" stroke-width="1.51"/><path d="M-178,192L-116,360L30,251Z" fill="#b0874e" stroke="#b0874e" stroke-width="1.51"/><path d="M-116,360L-19,430L30,251Z" fill="#bd945f" stroke="#bd945f" stroke-width="1.51"/><path d="M-184,874L-165,1007L-42,1010Z" fill="#747655" stroke="#747655" stroke-width="1.51"/><path d="M-165,1007L-139,1193L-42,1010Z" fill="#656747" stroke="#656747" stroke-width="1.51"/><path d="M-116,360L-212,531L-19,430Z" fill="#b6936c" stroke="#b6936c" stroke-width="1.51"/><path d="M-198,-58L-71,89L-18,-108Z" fill="#8f5814" stroke="#8f5814" stroke-width="1.51"/><path d="M-19,-185L-197,-202L-18,-108Z" fill="#7a4709" stroke="#7a4709" stroke-width="1.51"/><path d="M-42,1010L-139,1193L-18,1165Z" fill="#656442" stroke="#656442" stroke-width="1.51"/><path d="M-170,646L-67,653L-13,581Z" fill="#b29677" stroke="#b29677" stroke-width="1.51"/><path d="M-212,531L-170,646L-13,581Z" fill="#b09478" stroke="#b09478" stroke-width="1.51"/><path d="M-19,430L-212,531L-13,581Z" fill="#bb9877" stroke="#bb9877" stroke-width="1.51"/><path d="M-197,-202L-198,-58L-18,-108Z" fill="#7b4709" stroke="#7b4709" stroke-width="1.51"/><path d="M-67,653L-170,646L-46,800Z" fill="#a89374" stroke="#a89374" stroke-width="1.51"/><path d="M-170,646L-184,874L-46,800Z" fill="#958b6b" stroke="#958b6b" stroke-width="1.51"/><path d="M-204,137L-178,192L-71,89Z" fill="#9c6f30" stroke="#9c6f30" stroke-width="1.51"/><path d="M-198,-58L-204,137L-71,89Z" fill="#935f1d" stroke="#935f1d" stroke-width="1.51"/><path d="M-165,1007L-184,874L-129,1342Z" fill="#5f6345" stroke="#5f6345" stroke-width="1.51"/><path d="M-178,192L-212,531L-116,360Z" fill="#ad8b5e" stroke="#ad8b5e" stroke-width="1.51"/><path d="M-139,1193L-165,1007L-129,1342Z" fill="#545638" stroke="#545638" stroke-width="1.51"/><path d="M-204,137L-212,531L-178,192Z" fill="#a3804f" stroke="#a3804f" stroke-width="1.51"/><path d="M-212,531L-184,874L-170,646Z" fill="#9c8c71" stroke="#9c8c71" stroke-width="1.51"/><path d="M-204,137L-198,-58L-197,-202Z" fill="#804e10" stroke="#804e10" stroke-width="1.51"/></svg>