<svg xmlns="http://www.w3.org/2000/svg" width="1920" height="1080"><path d="M-197,-202L-19,-185L448,-194Z" fill="#e6f0f6" stroke="#e6f0f6" stroke-width="1.51"/><path d="M-197,-202L448,-194L837,-244Z" fill="#d7e4f0" stroke="#d7e4f0" stroke-width="1.51"/><path d="M897,1322L123,1345L1016,1332Z" fill="#7e6393" stroke="#7e6393" stroke-width="1.51"/><path d="M837,-244L1155,-230L1369,-265Z" fill="#c0badb" stroke="#c0badb" stroke-width="1.51"/><path d="M1016,1332L123,1345L1668,1345Z" fill="#74538a" stroke="#74538a" stroke-width="1.51"/><path d="M1451,1329L1016,1332L1668,1345Z" fill="#70337c" stroke="#70337c" stroke-width="1.51"/><path d="M1654,-192L1821,-173L1911,-185Z" fill="#bb8cbd" stroke="#bb8cbd" stroke-width="1.51"/><path d="M1654,-192L1911,-185L2060,-232Z" fill="#ba89b8" stroke="#ba89b8" stroke-width="1.51"/><path d="M1516,-223L1654,-192L2060,-232Z" fill="#bc91c1" stroke="#bc91c1" stroke-width="1.51"/><path d="M1369,-265L1516,-223L2060,-232Z" fill="#be96c7" stroke="#be96c7" stroke-width="1.51"/><path d="M1966,836L2063,873L2076,642Z" fill="#783b85" stroke="#783b85" stroke-width="1.51"/><path d="M1952,652L1966,836L2076,642Z" fill="#7d448c" stroke="#7d448c" stroke-width="1.51"/><path d="M2070,987L1968,1181L2098,1144Z" fill="#711471" stroke="#711471" stroke-width="1.51"/><path d="M2076,642L2063,873L2098,1144Z" fill="#732e7c" stroke="#732e7c" stroke-width="1.51"/><path d="M2063,873L2070,987L2098,1144Z" fill="#712076" stroke="#712076" stroke-width="1.51"/><path d="M2047,56L1886,188L2100,282Z" fill="#9371a1" stroke="#9371a1" stroke-width="1.51"/><path d="M2079,-104L2047,56L2100,282Z" fill="#94739e" stroke="#94739e" stroke-width="1.51"/><path d="M2100,282L1956,361L2118,381Z" fill="#836698" stroke="#836698" stroke-width="1.51"/><path d="M1956,361L2053,487L2118,381Z" fill="#816197" stroke="#816197" stroke-width="1.51"/><path d="M2053,487L2076,642L2118,381Z" fill="#79578f" stroke="#79578f" stroke-width="1.51"/><path d="M2076,642L2098,1144L2118,381Z" fill="#733f83" stroke="#733f83" stroke-width="1.51"/><path d="M2079,-104L2100,282L2118,381Z" fill="#8a6c99" stroke="#8a6c99" stroke-width="1.51"/><path d="M2098,1144L1968,1181L2118,1295Z" fill="#690665" stroke="#690665" stroke-width="1.51"/><path d="M1968,1181L1940,1323L2118,1295Z" fill="#660562" stroke="#660562" stroke-width="1.51"/><path d="M2118,381L2098,1144L2118,1295Z" fill="#6e2677" stroke="#6e2677" stroke-width="1.51"/><path d="M1907,1007L1968,1181L2070,987Z" fill="#781c7a" stroke="#781c7a" stroke-width="1.51"/><path d="M2053,487L1915,557L2076,642Z" fill="#7d5392" stroke="#7d5392" stroke-width="1.51"/><path d="M1915,557L1952,652L2076,642Z" fill="#7f4f92" stroke="#7f4f92" stroke-width="1.51"/><path d="M1909,-80L2047,56L2079,-104Z" fill="#a37ca8" stroke="#a37ca8" stroke-width="1.51"/><path d="M1886,188L1956,361L2100,282Z" fill="#8f6da1" stroke="#8f6da1" stroke-width="1.51"/><path d="M1909,-80L1935,50L2047,56Z" fill="#a47bab" stroke="#a47bab" stroke-width="1.51"/><path d="M1935,50L1886,188L2047,56Z" fill="#9e77a8" stroke="#9e77a8" stroke-width="1.51"/><path d="M2063,873L1966,836L2070,987Z" fill="#762e80" stroke="#762e80" stroke-width="1.51"/><path d="M1966,836L1907,1007L2070,987Z" fill="#7a2a82" stroke="#7a2a82" stroke-width="1.51"/><path d="M2060,-232L1911,-185L2079,-104Z" fill="#aa81ab" stroke="#aa81ab" stroke-width="1.51"/><path d="M1911,-185L1909,-80L2079,-104Z" fill="#ad81ae" stroke="#ad81ae" stroke-width="1.51"/><path d="M1956,361L1915,557L2053,487Z" fill="#855e9a" stroke="#855e9a" stroke-width="1.51"/><path d="M695,1288L123,1345L897,1322Z" fill="#846897" stroke="#846897" stroke-width="1.51"/><path d="M1830,1272L1668,1345L1940,1323Z" fill="#6e0f6c" stroke="#6e0f6c" stroke-width="1.51"/><path d="M1752,659L1839,888L1952,652Z" fill="#884797" stroke="#884797" stroke-width="1.51"/><path d="M1886,188L1729,274L1956,361Z" fill="#9b73ac" stroke="#9b73ac" stroke-width="1.51"/><path d="M1794,422L1915,557L1956,361Z" fill="#8e64a2" stroke="#8e64a2" stroke-width="1.51"/><path d="M1952,652L1839,888L1966,836Z" fill="#823e8f" stroke="#823e8f" stroke-width="1.51"/><path d="M1839,888L1907,1007L1966,836Z" fill="#82308b" stroke="#82308b" stroke-width="1.51"/><path d="M1907,1007L1835,1137L1968,1181Z" fill="#7e177c" stroke="#7e177c" stroke-width="1.51"/><path d="M1830,1272L1940,1323L1968,1181Z" fill="#6f096b" stroke="#6f096b" stroke-width="1.51"/><path d="M1835,1137L1830,1272L1968,1181Z" fill="#7a0d76" stroke="#7a0d76" stroke-width="1.51"/><path d="M1729,274L1794,422L1956,361Z" fill="#9570ab" stroke="#9570ab" stroke-width="1.51"/><path d="M1915,557L1752,659L1952,652Z" fill="#89539b" stroke="#89539b" stroke-width="1.51"/><path d="M1794,422L1776,529L1915,557Z" fill="#8e62a4" stroke="#8e62a4" stroke-width="1.51"/><path d="M1746,43L1886,188L1935,50Z" fill="#a87cb1" stroke="#a87cb1" stroke-width="1.51"/><path d="M1909,-80L1772,-42L1935,50Z" fill="#af81b4" stroke="#af81b4" stroke-width="1.51"/><path d="M1821,-173L1909,-80L1911,-185Z" fill="#b686b7" stroke="#b686b7" stroke-width="1.51"/><path d="M1772,-42L1746,43L1935,50Z" fill="#ae82b6" stroke="#ae82b6" stroke-width="1.51"/><path d="M1839,888L1762,989L1907,1007Z" fill="#852d8d" stroke="#852d8d" stroke-width="1.51"/><path d="M1762,989L1835,1137L1907,1007Z" fill="#842486" stroke="#842486" stroke-width="1.51"/><path d="M1776,529L1752,659L1915,557Z" fill="#8b5aa1" stroke="#8b5aa1" stroke-width="1.51"/><path d="M1821,-173L1772,-42L1909,-80Z" fill="#b688b9" stroke="#b688b9" stroke-width="1.51"/><path d="M407,1286L123,1345L695,1288Z" fill="#8e6e9b" stroke="#8e6e9b" stroke-width="1.51"/><path d="M1746,43L1729,274L1886,188Z" fill="#a37cb3" stroke="#a37cb3" stroke-width="1.51"/><path d="M1664,231L1729,274L1746,43Z" fill="#a27fb7" stroke="#a27fb7" stroke-width="1.51"/><path d="M1582,1190L1668,1345L1830,1272Z" fill="#751d77" stroke="#751d77" stroke-width="1.51"/><path d="M1582,1190L1830,1272L1835,1137Z" fill="#7d1a7d" stroke="#7d1a7d" stroke-width="1.51"/><path d="M1591,892L1762,989L1839,888Z" fill="#873995" stroke="#873995" stroke-width="1.51"/><path d="M1752,659L1591,892L1839,888Z" fill="#89469a" stroke="#89469a" stroke-width="1.51"/><path d="M1762,989L1582,1190L1835,1137Z" fill="#842587" stroke="#842587" stroke-width="1.51"/><path d="M1654,-192L1772,-42L1821,-173Z" fill="#b88dbe" stroke="#b88dbe" stroke-width="1.51"/><path d="M1729,274L1687,411L1794,422Z" fill="#9573af" stroke="#9573af" stroke-width="1.51"/><path d="M1601,655L1591,892L1752,659Z" fill="#8a53a2" stroke="#8a53a2" stroke-width="1.51"/><path d="M1591,892L1601,952L1762,989Z" fill="#873c98" stroke="#873c98" stroke-width="1.51"/><path d="M1654,-192L1633,-69L1772,-42Z" fill="#b790c1" stroke="#b790c1" stroke-width="1.51"/><path d="M1687,411L1776,529L1794,422Z" fill="#916bab" stroke="#916bab" stroke-width="1.51"/><path d="M1593,44L1664,231L1746,43Z" fill="#a886bc" stroke="#a886bc" stroke-width="1.51"/><path d="M1601,952L1582,1190L1762,989Z" fill="#863290" stroke="#863290" stroke-width="1.51"/><path d="M1613,535L1752,659L1776,529Z" fill="#8c61a7" stroke="#8c61a7" stroke-width="1.51"/><path d="M1687,411L1613,535L1776,529Z" fill="#8e6aac" stroke="#8e6aac" stroke-width="1.51"/><path d="M1633,-69L1746,43L1772,-42Z" fill="#b18abd" stroke="#b18abd" stroke-width="1.51"/><path d="M1613,535L1601,655L1752,659Z" fill="#8c5fa8" stroke="#8c5fa8" stroke-width="1.51"/><path d="M1633,-69L1593,44L1746,43Z" fill="#af8cc0" stroke="#af8cc0" stroke-width="1.51"/><path d="M1506,788L1591,892L1601,655Z" fill="#8a53a5" stroke="#8a53a5" stroke-width="1.51"/><path d="M1664,231L1687,411L1729,274Z" fill="#997ab5" stroke="#997ab5" stroke-width="1.51"/><path d="M1226,1277L1016,1332L1451,1329Z" fill="#743f84" stroke="#743f84" stroke-width="1.51"/><path d="M1482,1158L1582,1190L1601,952Z" fill="#863391" stroke="#863391" stroke-width="1.51"/><path d="M1593,44L1494,184L1664,231Z" fill="#a588bf" stroke="#a588bf" stroke-width="1.51"/><path d="M1664,231L1528,399L1687,411Z" fill="#967bb7" stroke="#967bb7" stroke-width="1.51"/><path d="M1528,399L1613,535L1687,411Z" fill="#9173b3" stroke="#9173b3" stroke-width="1.51"/><path d="M1494,184L1528,399L1664,231Z" fill="#9c83bd" stroke="#9c83bd" stroke-width="1.51"/><path d="M1582,1190L1451,1329L1668,1345Z" fill="#74267c" stroke="#74267c" stroke-width="1.51"/><path d="M1516,-223L1633,-69L1654,-192Z" fill="#ba97c8" stroke="#ba97c8" stroke-width="1.51"/><path d="M1468,951L1482,1158L1601,952Z" fill="#883e99" stroke="#883e99" stroke-width="1.51"/><path d="M1500,636L1601,655L1613,535Z" fill="#8c66ad" stroke="#8c66ad" stroke-width="1.51"/><path d="M1458,-12L1593,44L1633,-69Z" fill="#b192c6" stroke="#b192c6" stroke-width="1.51"/><path d="M1516,-223L1458,-12L1633,-69Z" fill="#b899ca" stroke="#b899ca" stroke-width="1.51"/><path d="M1458,-12L1482,42L1593,44Z" fill="#ae93c6" stroke="#ae93c6" stroke-width="1.51"/><path d="M1482,42L1494,184L1593,44Z" fill="#aa90c4" stroke="#aa90c4" stroke-width="1.51"/><path d="M1500,636L1506,788L1601,655Z" fill="#8b5eaa" stroke="#8b5eaa" stroke-width="1.51"/><path d="M1528,399L1464,551L1613,535Z" fill="#8f73b4" stroke="#8f73b4" stroke-width="1.51"/><path d="M1464,551L1500,636L1613,535Z" fill="#8c6cb1" stroke="#8c6cb1" stroke-width="1.51"/><path d="M1482,1158L1451,1329L1582,1190Z" fill="#7d2e86" stroke="#7d2e86" stroke-width="1.51"/><path d="M1591,892L1468,951L1601,952Z" fill="#89449e" stroke="#89449e" stroke-width="1.51"/><path d="M1494,184L1381,271L1528,399Z" fill="#9b89c0" stroke="#9b89c0" stroke-width="1.51"/><path d="M1506,788L1468,951L1591,892Z" fill="#8a4ca2" stroke="#8a4ca2" stroke-width="1.51"/><path d="M-19,-185L99,-172L448,-194Z" fill="#e0ebf4" stroke="#e0ebf4" stroke-width="1.51"/><path d="M1468,951L1318,994L1482,1158Z" fill="#88449b" stroke="#88449b" stroke-width="1.51"/><path d="M1500,636L1348,716L1506,788Z" fill="#8b62ac" stroke="#8b62ac" stroke-width="1.51"/><path d="M1350,786L1468,951L1506,788Z" fill="#8b55a6" stroke="#8b55a6" stroke-width="1.51"/><path d="M1352,-26L1458,-12L1516,-223Z" fill="#b79ecc" stroke="#b79ecc" stroke-width="1.51"/><path d="M1369,-265L1352,-26L1516,-223Z" fill="#bba3cf" stroke="#bba3cf" stroke-width="1.51"/><path d="M1349,444L1464,551L1528,399Z" fill="#917cb9" stroke="#917cb9" stroke-width="1.51"/><path d="M1381,271L1349,444L1528,399Z" fill="#9585be" stroke="#9585be" stroke-width="1.51"/><path d="M1345,1166L1451,1329L1482,1158Z" fill="#7f3589" stroke="#7f3589" stroke-width="1.51"/><path d="M1318,994L1345,1166L1482,1158Z" fill="#884196" stroke="#884196" stroke-width="1.51"/><path d="M1482,42L1353,63L1494,184Z" fill="#a994c6" stroke="#a994c6" stroke-width="1.51"/><path d="M1348,716L1350,786L1506,788Z" fill="#8c60ab" stroke="#8c60ab" stroke-width="1.51"/><path d="M1280,1263L1226,1277L1451,1329Z" fill="#763a83" stroke="#763a83" stroke-width="1.51"/><path d="M1464,551L1318,591L1500,636Z" fill="#8d70b3" stroke="#8d70b3" stroke-width="1.51"/><path d="M1318,591L1348,716L1500,636Z" fill="#8d6db1" stroke="#8d6db1" stroke-width="1.51"/><path d="M1353,63L1381,271L1494,184Z" fill="#a492c5" stroke="#a492c5" stroke-width="1.51"/><path d="M1350,786L1318,994L1468,951Z" fill="#8a53a5" stroke="#8a53a5" stroke-width="1.51"/><path d="M1458,-12L1353,63L1482,42Z" fill="#ae99c9" stroke="#ae99c9" stroke-width="1.51"/><path d="M1345,1166L1280,1263L1451,1329Z" fill="#7b3987" stroke="#7b3987" stroke-width="1.51"/><path d="M1352,-26L1353,63L1458,-12Z" fill="#b09dcb" stroke="#b09dcb" stroke-width="1.51"/><path d="M1349,444L1318,591L1464,551Z" fill="#8d7ab8" stroke="#8d7ab8" stroke-width="1.51"/><path d="M1225,484L1318,591L1349,444Z" fill="#8f81bc" stroke="#8f81bc" stroke-width="1.51"/><path d="M1195,855L1318,994L1350,786Z" fill="#8b5ca9" stroke="#8b5ca9" stroke-width="1.51"/><path d="M1232,55L1181,203L1353,63Z" fill="#a8a0cc" stroke="#a8a0cc" stroke-width="1.51"/><path d="M1218,-68L1352,-26L1369,-265Z" fill="#b9a8d1" stroke="#b9a8d1" stroke-width="1.51"/><path d="M1155,-230L1218,-68L1369,-265Z" fill="#bcafd5" stroke="#bcafd5" stroke-width="1.51"/><path d="M1198,387L1349,444L1381,271Z" fill="#958dc2" stroke="#958dc2" stroke-width="1.51"/><path d="M1181,203L1198,387L1381,271Z" fill="#9a96c7" stroke="#9a96c7" stroke-width="1.51"/><path d="M1353,63L1181,203L1381,271Z" fill="#a399c8" stroke="#a399c8" stroke-width="1.51"/><path d="M448,-194L636,-194L837,-244Z" fill="#c8d9ea" stroke="#c8d9ea" stroke-width="1.51"/><path d="M1318,994L1164,1195L1345,1166Z" fill="#894799" stroke="#894799" stroke-width="1.51"/><path d="M1318,591L1131,648L1348,716Z" fill="#8d75b6" stroke="#8d75b6" stroke-width="1.51"/><path d="M1198,387L1225,484L1349,444Z" fill="#928ac0" stroke="#928ac0" stroke-width="1.51"/><path d="M1348,716L1195,855L1350,786Z" fill="#8c65ae" stroke="#8c65ae" stroke-width="1.51"/><path d="M1218,-68L1232,55L1352,-26Z" fill="#b1a6d0" stroke="#b1a6d0" stroke-width="1.51"/><path d="M1352,-26L1232,55L1353,63Z" fill="#afa0cd" stroke="#afa0cd" stroke-width="1.51"/><path d="M1131,648L1195,855L1348,716Z" fill="#8c6eb3" stroke="#8c6eb3" stroke-width="1.51"/><path d="M1164,1195L1280,1263L1345,1166Z" fill="#824290" stroke="#824290" stroke-width="1.51"/><path d="M1091,1026L1164,1195L1318,994Z" fill="#8a52a0" stroke="#8a52a0" stroke-width="1.51"/><path d="M1129,971L1091,1026L1318,994Z" fill="#8b5aa6" stroke="#8b5aa6" stroke-width="1.51"/><path d="M1195,855L1129,971L1318,994Z" fill="#8b5ca9" stroke="#8b5ca9" stroke-width="1.51"/><path d="M1225,484L1131,648L1318,591Z" fill="#8c80ba" stroke="#8c80ba" stroke-width="1.51"/><path d="M1164,1195L1226,1277L1280,1263Z" fill="#7d438d" stroke="#7d438d" stroke-width="1.51"/><path d="M1131,648L1037,723L1195,855Z" fill="#8d76b6" stroke="#8d76b6" stroke-width="1.51"/><path d="M1181,203L1051,256L1198,387Z" fill="#9a9fcb" stroke="#9a9fcb" stroke-width="1.51"/><path d="M1155,-230L1035,-58L1218,-68Z" fill="#b9b5d8" stroke="#b9b5d8" stroke-width="1.51"/><path d="M1026,484L1131,648L1225,484Z" fill="#8d8ac0" stroke="#8d8ac0" stroke-width="1.51"/><path d="M1001,54L1181,203L1232,55Z" fill="#a8a9d1" stroke="#a8a9d1" stroke-width="1.51"/><path d="M1218,-68L1035,-58L1232,55Z" fill="#b2aed4" stroke="#b2aed4" stroke-width="1.51"/><path d="M1035,-58L1001,54L1232,55Z" fill="#afb1d5" stroke="#afb1d5" stroke-width="1.51"/><path d="M1017,-159L1035,-58L1155,-230Z" fill="#babbda" stroke="#babbda" stroke-width="1.51"/><path d="M1198,387L1053,411L1225,484Z" fill="#9292c4" stroke="#9292c4" stroke-width="1.51"/><path d="M1164,1195L1016,1332L1226,1277Z" fill="#7b498d" stroke="#7b498d" stroke-width="1.51"/><path d="M1053,411L1026,484L1225,484Z" fill="#9093c5" stroke="#9093c5" stroke-width="1.51"/><path d="M837,-244L1017,-159L1155,-230Z" fill="#bdc2de" stroke="#bdc2de" stroke-width="1.51"/><path d="M1091,1026L1048,1187L1164,1195Z" fill="#8b549e" stroke="#8b549e" stroke-width="1.51"/><path d="M1048,1187L1016,1332L1164,1195Z" fill="#804f92" stroke="#804f92" stroke-width="1.51"/><path d="M1001,54L1051,256L1181,203Z" fill="#a3a9d0" stroke="#a3a9d0" stroke-width="1.51"/><path d="M1037,723L1013,808L1195,855Z" fill="#8c74b4" stroke="#8c74b4" stroke-width="1.51"/><path d="M1051,256L1053,411L1198,387Z" fill="#969dca" stroke="#969dca" stroke-width="1.51"/><path d="M1013,808L1129,971L1195,855Z" fill="#8c69af" stroke="#8c69af" stroke-width="1.51"/><path d="M1026,484L897,570L1037,723Z" fill="#8d8fc3" stroke="#8d8fc3" stroke-width="1.51"/><path d="M1013,808L1091,1026L1129,971Z" fill="#8c66ae" stroke="#8c66ae" stroke-width="1.51"/><path d="M1026,484L1037,723L1131,648Z" fill="#8d86be" stroke="#8d86be" stroke-width="1.51"/><path d="M894,1013L871,1116L1048,1187Z" fill="#8c62a5" stroke="#8c62a5" stroke-width="1.51"/><path d="M1051,256L930,278L1053,411Z" fill="#97a6ce" stroke="#97a6ce" stroke-width="1.51"/><path d="M894,1013L1048,1187L1091,1026Z" fill="#8b60a5" stroke="#8b60a5" stroke-width="1.51"/><path d="M1013,808L894,1013L1091,1026Z" fill="#8c6bb0" stroke="#8c6bb0" stroke-width="1.51"/><path d="M840,92L930,278L1001,54Z" fill="#a6b6d6" stroke="#a6b6d6" stroke-width="1.51"/><path d="M897,570L842,656L1037,723Z" fill="#8e8dc1" stroke="#8e8dc1" stroke-width="1.51"/><path d="M897,1322L1016,1332L1048,1187Z" fill="#7b5390" stroke="#7b5390" stroke-width="1.51"/><path d="M1001,54L930,278L1051,256Z" fill="#a0aed3" stroke="#a0aed3" stroke-width="1.51"/><path d="M868,423L1026,484L1053,411Z" fill="#919dca" stroke="#919dca" stroke-width="1.51"/><path d="M930,278L868,423L1053,411Z" fill="#94a6ce" stroke="#94a6ce" stroke-width="1.51"/><path d="M830,821L894,1013L1013,808Z" fill="#8e77b6" stroke="#8e77b6" stroke-width="1.51"/><path d="M871,1116L897,1322L1048,1187Z" fill="#855b9b" stroke="#855b9b" stroke-width="1.51"/><path d="M1017,-159L864,-7L1035,-58Z" fill="#b6bfdc" stroke="#b6bfdc" stroke-width="1.51"/><path d="M864,-7L1001,54L1035,-58Z" fill="#b0bbda" stroke="#b0bbda" stroke-width="1.51"/><path d="M842,656L1013,808L1037,723Z" fill="#8d82bc" stroke="#8d82bc" stroke-width="1.51"/><path d="M842,656L830,821L1013,808Z" fill="#8f83bc" stroke="#8f83bc" stroke-width="1.51"/><path d="M868,423L897,570L1026,484Z" fill="#8f9cc9" stroke="#8f9cc9" stroke-width="1.51"/><path d="M785,-194L864,-7L1017,-159Z" fill="#bbc6e0" stroke="#bbc6e0" stroke-width="1.51"/><path d="M837,-244L785,-194L1017,-159Z" fill="#bfcae2" stroke="#bfcae2" stroke-width="1.51"/><path d="M864,-7L840,92L1001,54Z" fill="#aebcdb" stroke="#aebcdb" stroke-width="1.51"/><path d="M561,1261L407,1286L695,1288Z" fill="#8b6b9c" stroke="#8b6b9c" stroke-width="1.51"/><path d="M830,821L749,990L894,1013Z" fill="#9177b6" stroke="#9177b6" stroke-width="1.51"/><path d="M871,1116L768,1152L897,1322Z" fill="#8a619f" stroke="#8a619f" stroke-width="1.51"/><path d="M840,92L735,235L930,278Z" fill="#a4b8d8" stroke="#a4b8d8" stroke-width="1.51"/><path d="M735,235L785,349L930,278Z" fill="#9eb4d6" stroke="#9eb4d6" stroke-width="1.51"/><path d="M785,349L868,423L930,278Z" fill="#98add3" stroke="#98add3" stroke-width="1.51"/><path d="M749,990L871,1116L894,1013Z" fill="#916eae" stroke="#916eae" stroke-width="1.51"/><path d="M768,1152L695,1288L897,1322Z" fill="#85619a" stroke="#85619a" stroke-width="1.51"/><path d="M868,423L717,544L897,570Z" fill="#91a1cc" stroke="#91a1cc" stroke-width="1.51"/><path d="M717,544L842,656L897,570Z" fill="#919ac8" stroke="#919ac8" stroke-width="1.51"/><path d="M785,-194L679,-55L864,-7Z" fill="#bccce3" stroke="#bccce3" stroke-width="1.51"/><path d="M714,714L830,821L842,656Z" fill="#928dc2" stroke="#928dc2" stroke-width="1.51"/><path d="M743,59L840,92L864,-7Z" fill="#b1c2de" stroke="#b1c2de" stroke-width="1.51"/><path d="M785,349L717,544L868,423Z" fill="#96aad0" stroke="#96aad0" stroke-width="1.51"/><path d="M749,990L768,1152L871,1116Z" fill="#926dab" stroke="#926dab" stroke-width="1.51"/><path d="M679,-55L743,59L864,-7Z" fill="#b6c9e1" stroke="#b6c9e1" stroke-width="1.51"/><path d="M99,-172L312,-161L448,-194Z" fill="#d9e6f0" stroke="#d9e6f0" stroke-width="1.51"/><path d="M699,821L749,990L830,821Z" fill="#9381bb" stroke="#9381bb" stroke-width="1.51"/><path d="M714,714L699,821L830,821Z" fill="#948ac0" stroke="#948ac0" stroke-width="1.51"/><path d="M636,-194L785,-194L837,-244Z" fill="#c4d2e7" stroke="#c4d2e7" stroke-width="1.51"/><path d="M743,59L735,235L840,92Z" fill="#abc0dc" stroke="#abc0dc" stroke-width="1.51"/><path d="M717,544L714,714L842,656Z" fill="#9399c7" stroke="#9399c7" stroke-width="1.51"/><path d="M636,-194L630,-93L679,-55Z" fill="#c2d6e8" stroke="#c2d6e8" stroke-width="1.51"/><path d="M634,240L735,235L743,59Z" fill="#a9c1dd" stroke="#a9c1dd" stroke-width="1.51"/><path d="M749,990L627,1137L768,1152Z" fill="#9571ad" stroke="#9571ad" stroke-width="1.51"/><path d="M584,392L717,544L785,349Z" fill="#99b0d4" stroke="#99b0d4" stroke-width="1.51"/><path d="M735,235L634,240L785,349Z" fill="#a2bcda" stroke="#a2bcda" stroke-width="1.51"/><path d="M634,240L584,392L785,349Z" fill="#9fbcd9" stroke="#9fbcd9" stroke-width="1.51"/><path d="M636,-194L679,-55L785,-194Z" fill="#c2d4e7" stroke="#c2d4e7" stroke-width="1.51"/><path d="M562,129L634,240L743,59Z" fill="#afc7e0" stroke="#afc7e0" stroke-width="1.51"/><path d="M627,1137L695,1288L768,1152Z" fill="#906ba5" stroke="#906ba5" stroke-width="1.51"/><path d="M576,560L714,714L717,544Z" fill="#95a1cc" stroke="#95a1cc" stroke-width="1.51"/><path d="M699,821L551,994L749,990Z" fill="#9681bc" stroke="#9681bc" stroke-width="1.51"/><path d="M551,994L627,1137L749,990Z" fill="#987ab5" stroke="#987ab5" stroke-width="1.51"/><path d="M679,-55L562,129L743,59Z" fill="#b5cce3" stroke="#b5cce3" stroke-width="1.51"/><path d="M576,560L575,730L714,714Z" fill="#989dca" stroke="#989dca" stroke-width="1.51"/><path d="M584,392L576,560L717,544Z" fill="#99aed2" stroke="#99aed2" stroke-width="1.51"/><path d="M627,1137L561,1261L695,1288Z" fill="#8e6ca2" stroke="#8e6ca2" stroke-width="1.51"/><path d="M585,791L551,994L699,821Z" fill="#998ac0" stroke="#998ac0" stroke-width="1.51"/><path d="M585,791L699,821L714,714Z" fill="#9790c4" stroke="#9790c4" stroke-width="1.51"/><path d="M575,730L585,791L714,714Z" fill="#9895c6" stroke="#9895c6" stroke-width="1.51"/><path d="M630,-93L477,-20L679,-55Z" fill="#c1d5e8" stroke="#c1d5e8" stroke-width="1.51"/><path d="M477,-20L562,129L679,-55Z" fill="#bdd1e5" stroke="#bdd1e5" stroke-width="1.51"/><path d="M441,248L584,392L634,240Z" fill="#a8c2dd" stroke="#a8c2dd" stroke-width="1.51"/><path d="M448,-194L630,-93L636,-194Z" fill="#c9daeb" stroke="#c9daeb" stroke-width="1.51"/><path d="M551,994L481,1006L627,1137Z" fill="#9c7cb6" stroke="#9c7cb6" stroke-width="1.51"/><path d="M562,129L441,248L634,240Z" fill="#afc7e0" stroke="#afc7e0" stroke-width="1.51"/><path d="M448,-194L477,-20L630,-93Z" fill="#c9daeb" stroke="#c9daeb" stroke-width="1.51"/><path d="M388,1174L561,1261L627,1137Z" fill="#9972a8" stroke="#9972a8" stroke-width="1.51"/><path d="M481,1006L388,1174L627,1137Z" fill="#9f79b1" stroke="#9f79b1" stroke-width="1.51"/><path d="M414,578L380,741L575,730Z" fill="#a1a2cc" stroke="#a1a2cc" stroke-width="1.51"/><path d="M380,741L383,820L575,730Z" fill="#a29ac9" stroke="#a29ac9" stroke-width="1.51"/><path d="M414,578L575,730L576,560Z" fill="#9da6cf" stroke="#9da6cf" stroke-width="1.51"/><path d="M441,248L382,362L584,392Z" fill="#a9c3de" stroke="#a9c3de" stroke-width="1.51"/><path d="M414,578L576,560L584,392Z" fill="#9eb0d4" stroke="#9eb0d4" stroke-width="1.51"/><path d="M382,362L414,578L584,392Z" fill="#a5b9d8" stroke="#a5b9d8" stroke-width="1.51"/><path d="M481,1006L551,994L585,791Z" fill="#9d86bf" stroke="#9d86bf" stroke-width="1.51"/><path d="M383,820L481,1006L585,791Z" fill="#a08ec3" stroke="#a08ec3" stroke-width="1.51"/><path d="M575,730L383,820L585,791Z" fill="#9f95c7" stroke="#9f95c7" stroke-width="1.51"/><path d="M477,-20L398,119L562,129Z" fill="#bdd1e5" stroke="#bdd1e5" stroke-width="1.51"/><path d="M388,1174L407,1286L561,1261Z" fill="#9571a3" stroke="#9571a3" stroke-width="1.51"/><path d="M398,119L441,248L562,129Z" fill="#b6cde3" stroke="#b6cde3" stroke-width="1.51"/><path d="M302,1256L123,1345L407,1286Z" fill="#9674a0" stroke="#9674a0" stroke-width="1.51"/><path d="M298,-33L398,119L477,-20Z" fill="#c6d8e9" stroke="#c6d8e9" stroke-width="1.51"/><path d="M448,-194L312,-161L477,-20Z" fill="#cfdfed" stroke="#cfdfed" stroke-width="1.51"/><path d="M312,-161L298,-33L477,-20Z" fill="#cfdfec" stroke="#cfdfec" stroke-width="1.51"/><path d="M383,820L293,829L481,1006Z" fill="#a590c4" stroke="#a590c4" stroke-width="1.51"/><path d="M293,829L239,1039L481,1006Z" fill="#a88bc1" stroke="#a88bc1" stroke-width="1.51"/><path d="M239,1039L388,1174L481,1006Z" fill="#a580b7" stroke="#a580b7" stroke-width="1.51"/><path d="M250,391L228,518L382,362Z" fill="#afc2dd" stroke="#afc2dd" stroke-width="1.51"/><path d="M298,-33L303,99L398,119Z" fill="#c6d8e9" stroke="#c6d8e9" stroke-width="1.51"/><path d="M382,362L228,518L414,578Z" fill="#a9bad9" stroke="#a9bad9" stroke-width="1.51"/><path d="M398,119L329,232L441,248Z" fill="#b8cee4" stroke="#b8cee4" stroke-width="1.51"/><path d="M329,232L382,362L441,248Z" fill="#b2c9e1" stroke="#b2c9e1" stroke-width="1.51"/><path d="M239,1039L238,1120L388,1174Z" fill="#a980b6" stroke="#a980b6" stroke-width="1.51"/><path d="M313,739L380,741L414,578Z" fill="#a6a4ce" stroke="#a6a4ce" stroke-width="1.51"/><path d="M388,1174L302,1256L407,1286Z" fill="#9974a6" stroke="#9974a6" stroke-width="1.51"/><path d="M228,518L313,739L414,578Z" fill="#a9aed3" stroke="#a9aed3" stroke-width="1.51"/><path d="M303,99L329,232L398,119Z" fill="#bed2e6" stroke="#bed2e6" stroke-width="1.51"/><path d="M380,741L313,739L383,820Z" fill="#a79cca" stroke="#a79cca" stroke-width="1.51"/><path d="M329,232L250,391L382,362Z" fill="#b1c9e1" stroke="#b1c9e1" stroke-width="1.51"/><path d="M313,739L293,829L383,820Z" fill="#a89bc9" stroke="#a89bc9" stroke-width="1.51"/><path d="M238,1120L302,1256L388,1174Z" fill="#a57aae" stroke="#a57aae" stroke-width="1.51"/><path d="M25,1324L-129,1342L123,1345Z" fill="#9d7aa0" stroke="#9d7aa0" stroke-width="1.51"/><path d="M97,564L79,717L228,518Z" fill="#b3b7d8" stroke="#b3b7d8" stroke-width="1.51"/><path d="M137,982L239,1039L293,829Z" fill="#ae90c4" stroke="#ae90c4" stroke-width="1.51"/><path d="M139,865L137,982L293,829Z" fill="#b097c8" stroke="#b097c8" stroke-width="1.51"/><path d="M298,-33L171,49L303,99Z" fill="#ccdcec" stroke="#ccdcec" stroke-width="1.51"/><path d="M138,-83L298,-33L312,-161Z" fill="#d7e4f0" stroke="#d7e4f0" stroke-width="1.51"/><path d="M228,518L79,717L313,739Z" fill="#afaed3" stroke="#afaed3" stroke-width="1.51"/><path d="M303,99L187,212L329,232Z" fill="#c0d3e7" stroke="#c0d3e7" stroke-width="1.51"/><path d="M187,212L250,391L329,232Z" fill="#b9cfe4" stroke="#b9cfe4" stroke-width="1.51"/><path d="M139,865L293,829L313,739Z" fill="#ac9ccb" stroke="#ac9ccb" stroke-width="1.51"/><path d="M79,717L139,865L313,739Z" fill="#b0a3ce" stroke="#b0a3ce" stroke-width="1.51"/><path d="M99,-172L138,-83L312,-161Z" fill="#dde9f2" stroke="#dde9f2" stroke-width="1.51"/><path d="M238,1120L98,1140L302,1256Z" fill="#ab7eb2" stroke="#ab7eb2" stroke-width="1.51"/><path d="M98,1140L123,1345L302,1256Z" fill="#a27ba9" stroke="#a27ba9" stroke-width="1.51"/><path d="M171,49L187,212L303,99Z" fill="#c7d9ea" stroke="#c7d9ea" stroke-width="1.51"/><path d="M187,212L115,337L250,391Z" fill="#bad0e5" stroke="#bad0e5" stroke-width="1.51"/><path d="M138,-83L171,49L298,-33Z" fill="#d4e2ee" stroke="#d4e2ee" stroke-width="1.51"/><path d="M115,337L228,518L250,391Z" fill="#b4c6e0" stroke="#b4c6e0" stroke-width="1.51"/><path d="M115,337L97,564L228,518Z" fill="#b4c3de" stroke="#b4c3de" stroke-width="1.51"/><path d="M98,1140L238,1120L239,1039Z" fill="#ae85b9" stroke="#ae85b9" stroke-width="1.51"/><path d="M137,982L98,1140L239,1039Z" fill="#b08abd" stroke="#b08abd" stroke-width="1.51"/><path d="M-19,430L97,564L115,337Z" fill="#bbc9e1" stroke="#bbc9e1" stroke-width="1.51"/><path d="M98,1140L25,1324L123,1345Z" fill="#a47da8" stroke="#a47da8" stroke-width="1.51"/><path d="M-71,89L30,251L171,49Z" fill="#d0e0ed" stroke="#d0e0ed" stroke-width="1.51"/><path d="M171,49L30,251L187,212Z" fill="#c8daea" stroke="#c8daea" stroke-width="1.51"/><path d="M30,251L115,337L187,212Z" fill="#c2d5e8" stroke="#c2d5e8" stroke-width="1.51"/><path d="M138,-83L-18,-108L171,49Z" fill="#dce8f2" stroke="#dce8f2" stroke-width="1.51"/><path d="M-18,-108L-71,89L171,49Z" fill="#dbe7f1" stroke="#dbe7f1" stroke-width="1.51"/><path d="M-18,1165L25,1324L98,1140Z" fill="#ae82b1" stroke="#ae82b1" stroke-width="1.51"/><path d="M-42,1010L98,1140L137,982Z" fill="#b68fc0" stroke="#b68fc0" stroke-width="1.51"/><path d="M99,-172L-18,-108L138,-83Z" fill="#e2edf4" stroke="#e2edf4" stroke-width="1.51"/><path d="M79,717L-46,800L139,865Z" fill="#b6a6d0" stroke="#b6a6d0" stroke-width="1.51"/><path d="M-42,1010L137,982L139,865Z" fill="#b595c8" stroke="#b595c8" stroke-width="1.51"/><path d="M-46,800L-42,1010L139,865Z" fill="#b89dcc" stroke="#b89dcc" stroke-width="1.51"/><path d="M-13,581L79,717L97,564Z" fill="#b7b7d9" stroke="#b7b7d9" stroke-width="1.51"/><path d="M-19,430L-13,581L97,564Z" fill="#b8c3de" stroke="#b8c3de" stroke-width="1.51"/><path d="M-42,1010L-18,1165L98,1140Z" fill="#b78bbc" stroke="#b78bbc" stroke-width="1.51"/><path d="M30,251L-19,430L115,337Z" fill="#c0d4e7" stroke="#c0d4e7" stroke-width="1.51"/><path d="M-13,581L-67,653L79,717Z" fill="#b9b6d8" stroke="#b9b6d8" stroke-width="1.51"/><path d="M-19,-185L-18,-108L99,-172Z" fill="#e6f0f6" stroke="#e6f0f6" stroke-width="1.51"/><path d="M-67,653L-46,800L79,717Z" fill="#b9aed4" stroke="#b9aed4" stroke-width="1.51"/><path d="M-46,800L-184,874L-42,1010Z" fill="#bca0ce" stroke="#bca0ce" stroke-width="1.51"/><path d="M-18,1165L-139,1193L25,1324Z" fill="#af83af" stroke="#af83af" stroke-width="1.51"/><path d="M-139,1193L-129,1342L25,1324Z" fill="#a780a8" stroke="#a780a8" stroke-width="1.51"/><path d="M-71,89L-178,192L30,251Z" fill="#d1e0ed" stroke="#d1e0ed" stroke-width="1.51"/><path d="M-178,192L-116,360L30,251Z" fill="#cadbeb" stroke="#cadbeb" stroke-width="1.51"/><path d="M-116,360L-19,430L30,251Z" fill="#c2d5e8" stroke="#c2d5e8" stroke-width="1.51"/><path d="M-184,874L-165,1007L-42,1010Z" fill="#be9aca" stroke="#be9aca" stroke-width="1.51"/><path d="M-165,1007L-139,1193L-42,1010Z" fill="#bb90c1" stroke="#bb90c1" stroke-width="1.51"/><path d="M-116,360L-212,531L-19,430Z" fill="#c1cee4" stroke="#c1cee4" stroke-width="1.51"/><path d="M-198,-58L-71,89L-18,-108Z" fill="#e2edf4" stroke="#e2edf4" stroke-width="1.51"/><path d="M-19,-185L-197,-202L-18,-108Z" fill="#ebf3f8" stroke="#ebf3f8" stroke-width="1.51"/><path d="M-42,1010L-139,1193L-18,1165Z" fill="#ba8bbc" stroke="#ba8bbc" stroke-width="1.51"/><path d="M-170,646L-67,653L-13,581Z" fill="#bcbbda" stroke="#bcbbda" stroke-width="1.51"/><path d="M-212,531L-170,646L-13,581Z" fill="#bec0dd" stroke="#bec0dd" stroke-width="1.51"/><path d="M-19,430L-212,531L-13,581Z" fill="#bdc7e0" stroke="#bdc7e0" stroke-width="1.51"/><path d="M-197,-202L-198,-58L-18,-108Z" fill="#eaf3f8" stroke="#eaf3f8" stroke-width="1.51"/><path d="M-67,653L-170,646L-46,800Z" fill="#bdb3d7" stroke="#bdb3d7" stroke-width="1.51"/><path d="M-170,646L-184,874L-46,800Z" fill="#beacd4" stroke="#beacd4" stroke-width="1.51"/><path d="M-204,137L-178,192L-71,89Z" fill="#d7e4ef" stroke="#d7e4ef" stroke-width="1.51"/><path d="M-198,-58L-204,137L-71,89Z" fill="#deeaf3" stroke="#deeaf3" stroke-width="1.51"/><path d="M-165,1007L-184,874L-129,1342Z" fill="#bd91c1" stroke="#bd91c1" stroke-width="1.51"/><path d="M-178,192L-212,531L-116,360Z" fill="#c7d7e9" stroke="#c7d7e9" stroke-width="1.51"/><path d="M-139,1193L-165,1007L-129,1342Z" fill="#b988b7" stroke="#b988b7" stroke-width="1.51"/><path d="M-204,137L-212,531L-178,192Z" fill="#cdddec" stroke="#cdddec" stroke-width="1.51"/><path d="M-212,531L-184,874L-170,646Z" fill="#c0b7d9" stroke="#c0b7d9" stroke-width="1.51"/><path d="M-204,137L-198,-58L-197,-202Z" fill="#e7f0f6" stroke="#e7f0f6" stroke-width="1.51"/></svg>