<svg xmlns="http://www.w3.org/2000/svg" width="1920" height="1080"><path d="M-197,-202L-19,-185L448,-194Z" fill="#f0e7f2" stroke="#f0e7f2" stroke-width="1.51"/><path d="M-197,-202L448,-194L837,-244Z" fill="#e4e0ee" stroke="#e4e0ee" stroke-width="1.51"/><path d="M897,1322L123,1345L1016,1332Z" fill="#578386" stroke="#578386" stroke-width="1.51"/><path d="M837,-244L1155,-230L1369,-265Z" fill="#acc7e0" stroke="#acc7e0" stroke-width="1.51"/><path d="M1016,1332L123,1345L1668,1345Z" fill="#3b7981" stroke="#3b7981" stroke-width="1.51"/><path d="M1451,1329L1016,1332L1668,1345Z" fill="#186a70" stroke="#186a70" stroke-width="1.51"/><path d="M1654,-192L1821,-173L1911,-185Z" fill="#8aaea9" stroke="#8aaea9" stroke-width="1.51"/><path d="M1654,-192L1911,-185L2060,-232Z" fill="#89aba3" stroke="#89aba3" stroke-width="1.51"/><path d="M1516,-223L1654,-192L2060,-232Z" fill="#8db1af" stroke="#8db1af" stroke-width="1.51"/><path d="M1369,-265L1516,-223L2060,-232Z" fill="#91b6b8" stroke="#91b6b8" stroke-width="1.51"/><path d="M1966,836L2063,873L2076,642Z" fill="#1e717b" stroke="#1e717b" stroke-width="1.51"/><path d="M1952,652L1966,836L2076,642Z" fill="#277784" stroke="#277784" stroke-width="1.51"/><path d="M2070,987L1968,1181L2098,1144Z" fill="#036354" stroke="#036354" stroke-width="1.51"/><path d="M2076,642L2063,873L2098,1144Z" fill="#116a6b" stroke="#116a6b" stroke-width="1.51"/><path d="M2063,873L2070,987L2098,1144Z" fill="#04665e" stroke="#04665e" stroke-width="1.51"/><path d="M2047,56L1886,188L2100,282Z" fill="#6c9191" stroke="#6c9191" stroke-width="1.51"/><path d="M2079,-104L2047,56L2100,282Z" fill="#72918f" stroke="#72918f" stroke-width="1.51"/><path d="M2100,282L1956,361L2118,381Z" fill="#5a868b" stroke="#5a868b" stroke-width="1.51"/><path d="M1956,361L2053,487L2118,381Z" fill="#50848a" stroke="#50848a" stroke-width="1.51"/><path d="M2053,487L2076,642L2118,381Z" fill="#407d85" stroke="#407d85" stroke-width="1.51"/><path d="M2076,642L2098,1144L2118,381Z" fill="#24707d" stroke="#24707d" stroke-width="1.51"/><path d="M2079,-104L2100,282L2118,381Z" fill="#688a8b" stroke="#688a8b" stroke-width="1.51"/><path d="M2098,1144L1968,1181L2118,1295Z" fill="#015a49" stroke="#015a49" stroke-width="1.51"/><path d="M1968,1181L1940,1323L2118,1295Z" fill="#015846" stroke="#015846" stroke-width="1.51"/><path d="M2118,381L2098,1144L2118,1295Z" fill="#076663" stroke="#076663" stroke-width="1.51"/><path d="M1907,1007L1968,1181L2070,987Z" fill="#04695d" stroke="#04695d" stroke-width="1.51"/><path d="M2053,487L1915,557L2076,642Z" fill="#387e87" stroke="#387e87" stroke-width="1.51"/><path d="M1915,557L1952,652L2076,642Z" fill="#337d88" stroke="#337d88" stroke-width="1.51"/><path d="M1909,-80L2047,56L2079,-104Z" fill="#7c9a96" stroke="#7c9a96" stroke-width="1.51"/><path d="M1886,188L1956,361L2100,282Z" fill="#638e91" stroke="#638e91" stroke-width="1.51"/><path d="M1909,-80L1935,50L2047,56Z" fill="#7b9c99" stroke="#7b9c99" stroke-width="1.51"/><path d="M1935,50L1886,188L2047,56Z" fill="#759996" stroke="#759996" stroke-width="1.51"/><path d="M2063,873L1966,836L2070,987Z" fill="#106d6d" stroke="#106d6d" stroke-width="1.51"/><path d="M1966,836L1907,1007L2070,987Z" fill="#066f6b" stroke="#066f6b" stroke-width="1.51"/><path d="M2060,-232L1911,-185L2079,-104Z" fill="#83a099" stroke="#83a099" stroke-width="1.51"/><path d="M1911,-185L1909,-80L2079,-104Z" fill="#82a19b" stroke="#82a19b" stroke-width="1.51"/><path d="M1956,361L1915,557L2053,487Z" fill="#48868c" stroke="#48868c" stroke-width="1.51"/><path d="M695,1288L123,1345L897,1322Z" fill="#60878a" stroke="#60878a" stroke-width="1.51"/><path d="M1830,1272L1668,1345L1940,1323Z" fill="#025f4f" stroke="#025f4f" stroke-width="1.51"/><path d="M1752,659L1839,888L1952,652Z" fill="#277f8d" stroke="#277f8d" stroke-width="1.51"/><path d="M1886,188L1729,274L1956,361Z" fill="#679799" stroke="#679799" stroke-width="1.51"/><path d="M1794,422L1915,557L1956,361Z" fill="#4e8d93" stroke="#4e8d93" stroke-width="1.51"/><path d="M1952,652L1839,888L1966,836Z" fill="#1f7882" stroke="#1f7882" stroke-width="1.51"/><path d="M1839,888L1907,1007L1966,836Z" fill="#0e7574" stroke="#0e7574" stroke-width="1.51"/><path d="M1907,1007L1835,1137L1968,1181Z" fill="#036b5c" stroke="#036b5c" stroke-width="1.51"/><path d="M1830,1272L1940,1323L1968,1181Z" fill="#015f4d" stroke="#015f4d" stroke-width="1.51"/><path d="M1835,1137L1830,1272L1968,1181Z" fill="#016754" stroke="#016754" stroke-width="1.51"/><path d="M1729,274L1794,422L1956,361Z" fill="#5e949a" stroke="#5e949a" stroke-width="1.51"/><path d="M1915,557L1752,659L1952,652Z" fill="#34848e" stroke="#34848e" stroke-width="1.51"/><path d="M1794,422L1776,529L1915,557Z" fill="#468d96" stroke="#468d96" stroke-width="1.51"/><path d="M1746,43L1886,188L1935,50Z" fill="#79a09e" stroke="#79a09e" stroke-width="1.51"/><path d="M1909,-80L1772,-42L1935,50Z" fill="#80a39f" stroke="#80a39f" stroke-width="1.51"/><path d="M1821,-173L1909,-80L1911,-185Z" fill="#86a8a2" stroke="#86a8a2" stroke-width="1.51"/><path d="M1772,-42L1746,43L1935,50Z" fill="#7fa4a3" stroke="#7fa4a3" stroke-width="1.51"/><path d="M1839,888L1762,989L1907,1007Z" fill="#057772" stroke="#057772" stroke-width="1.51"/><path d="M1762,989L1835,1137L1907,1007Z" fill="#047368" stroke="#047368" stroke-width="1.51"/><path d="M1776,529L1752,659L1915,557Z" fill="#3a8994" stroke="#3a8994" stroke-width="1.51"/><path d="M1821,-173L1772,-42L1909,-80Z" fill="#86a8a4" stroke="#86a8a4" stroke-width="1.51"/><path d="M407,1286L123,1345L695,1288Z" fill="#6c8e8e" stroke="#6c8e8e" stroke-width="1.51"/><path d="M1746,43L1729,274L1886,188Z" fill="#749fa2" stroke="#749fa2" stroke-width="1.51"/><path d="M1664,231L1729,274L1746,43Z" fill="#74a1a8" stroke="#74a1a8" stroke-width="1.51"/><path d="M1582,1190L1668,1345L1830,1272Z" fill="#04675d" stroke="#04675d" stroke-width="1.51"/><path d="M1582,1190L1830,1272L1835,1137Z" fill="#036c5e" stroke="#036c5e" stroke-width="1.51"/><path d="M1591,892L1762,989L1839,888Z" fill="#0c7c80" stroke="#0c7c80" stroke-width="1.51"/><path d="M1752,659L1591,892L1839,888Z" fill="#1d808e" stroke="#1d808e" stroke-width="1.51"/><path d="M1762,989L1582,1190L1835,1137Z" fill="#05736a" stroke="#05736a" stroke-width="1.51"/><path d="M1654,-192L1772,-42L1821,-173Z" fill="#8aadac" stroke="#8aadac" stroke-width="1.51"/><path d="M1729,274L1687,411L1794,422Z" fill="#5d97a1" stroke="#5d97a1" stroke-width="1.51"/><path d="M1601,655L1591,892L1752,659Z" fill="#26869d" stroke="#26869d" stroke-width="1.51"/><path d="M1591,892L1601,952L1762,989Z" fill="#067e83" stroke="#067e83" stroke-width="1.51"/><path d="M1654,-192L1633,-69L1772,-42Z" fill="#8aaeb1" stroke="#8aaeb1" stroke-width="1.51"/><path d="M1687,411L1776,529L1794,422Z" fill="#4f929d" stroke="#4f929d" stroke-width="1.51"/><path d="M1593,44L1664,231L1746,43Z" fill="#7da6ae" stroke="#7da6ae" stroke-width="1.51"/><path d="M1601,952L1582,1190L1762,989Z" fill="#057977" stroke="#057977" stroke-width="1.51"/><path d="M1613,535L1752,659L1776,529Z" fill="#3c8d9e" stroke="#3c8d9e" stroke-width="1.51"/><path d="M1687,411L1613,535L1776,529Z" fill="#4993a2" stroke="#4993a2" stroke-width="1.51"/><path d="M1633,-69L1746,43L1772,-42Z" fill="#84a9ac" stroke="#84a9ac" stroke-width="1.51"/><path d="M1613,535L1601,655L1752,659Z" fill="#378da1" stroke="#378da1" stroke-width="1.51"/><path d="M1633,-69L1593,44L1746,43Z" fill="#84aab1" stroke="#84aab1" stroke-width="1.51"/><path d="M1506,788L1591,892L1601,655Z" fill="#2088a0" stroke="#2088a0" stroke-width="1.51"/><path d="M1664,231L1687,411L1729,274Z" fill="#679ca7" stroke="#679ca7" stroke-width="1.51"/><path d="M1226,1277L1016,1332L1451,1329Z" fill="#24707d" stroke="#24707d" stroke-width="1.51"/><path d="M1482,1158L1582,1190L1601,952Z" fill="#067979" stroke="#067979" stroke-width="1.51"/><path d="M1593,44L1494,184L1664,231Z" fill="#7aa7b4" stroke="#7aa7b4" stroke-width="1.51"/><path d="M1664,231L1528,399L1687,411Z" fill="#639cab" stroke="#639cab" stroke-width="1.51"/><path d="M1528,399L1613,535L1687,411Z" fill="#5398aa" stroke="#5398aa" stroke-width="1.51"/><path d="M1494,184L1528,399L1664,231Z" fill="#6ea2b3" stroke="#6ea2b3" stroke-width="1.51"/><path d="M1582,1190L1451,1329L1668,1345Z" fill="#046a65" stroke="#046a65" stroke-width="1.51"/><path d="M1516,-223L1633,-69L1654,-192Z" fill="#8fb3ba" stroke="#8fb3ba" stroke-width="1.51"/><path d="M1468,951L1482,1158L1601,952Z" fill="#0b7e86" stroke="#0b7e86" stroke-width="1.51"/><path d="M1500,636L1601,655L1613,535Z" fill="#3991a8" stroke="#3991a8" stroke-width="1.51"/><path d="M1458,-12L1593,44L1633,-69Z" fill="#88aeba" stroke="#88aeba" stroke-width="1.51"/><path d="M1516,-223L1458,-12L1633,-69Z" fill="#8eb3be" stroke="#8eb3be" stroke-width="1.51"/><path d="M1458,-12L1482,42L1593,44Z" fill="#87aebe" stroke="#87aebe" stroke-width="1.51"/><path d="M1482,42L1494,184L1593,44Z" fill="#82abbc" stroke="#82abbc" stroke-width="1.51"/><path d="M1500,636L1506,788L1601,655Z" fill="#2e8ca9" stroke="#2e8ca9" stroke-width="1.51"/><path d="M1528,399L1464,551L1613,535Z" fill="#4c97af" stroke="#4c97af" stroke-width="1.51"/><path d="M1464,551L1500,636L1613,535Z" fill="#3f94ae" stroke="#3f94ae" stroke-width="1.51"/><path d="M1482,1158L1451,1329L1582,1190Z" fill="#0d7170" stroke="#0d7170" stroke-width="1.51"/><path d="M1591,892L1468,951L1601,952Z" fill="#08828d" stroke="#08828d" stroke-width="1.51"/><path d="M1494,184L1381,271L1528,399Z" fill="#71a4bb" stroke="#71a4bb" stroke-width="1.51"/><path d="M1506,788L1468,951L1591,892Z" fill="#178597" stroke="#178597" stroke-width="1.51"/><path d="M-19,-185L99,-172L448,-194Z" fill="#ebe4f1" stroke="#ebe4f1" stroke-width="1.51"/><path d="M1468,951L1318,994L1482,1158Z" fill="#17818c" stroke="#17818c" stroke-width="1.51"/><path d="M1500,636L1348,716L1506,788Z" fill="#308eaf" stroke="#308eaf" stroke-width="1.51"/><path d="M1350,786L1468,951L1506,788Z" fill="#2288a3" stroke="#2288a3" stroke-width="1.51"/><path d="M1352,-26L1458,-12L1516,-223Z" fill="#93b4c7" stroke="#93b4c7" stroke-width="1.51"/><path d="M1369,-265L1352,-26L1516,-223Z" fill="#98b9cc" stroke="#98b9cc" stroke-width="1.51"/><path d="M1349,444L1464,551L1528,399Z" fill="#569bb8" stroke="#569bb8" stroke-width="1.51"/><path d="M1381,271L1349,444L1528,399Z" fill="#67a0be" stroke="#67a0be" stroke-width="1.51"/><path d="M1345,1166L1451,1329L1482,1158Z" fill="#167477" stroke="#167477" stroke-width="1.51"/><path d="M1318,994L1345,1166L1482,1158Z" fill="#1b7d87" stroke="#1b7d87" stroke-width="1.51"/><path d="M1482,42L1353,63L1494,184Z" fill="#86adc3" stroke="#86adc3" stroke-width="1.51"/><path d="M1348,716L1350,786L1506,788Z" fill="#2c8cb0" stroke="#2c8cb0" stroke-width="1.51"/><path d="M1280,1263L1226,1277L1451,1329Z" fill="#1e7079" stroke="#1e7079" stroke-width="1.51"/><path d="M1464,551L1318,591L1500,636Z" fill="#4295b6" stroke="#4295b6" stroke-width="1.51"/><path d="M1318,591L1348,716L1500,636Z" fill="#3d93b8" stroke="#3d93b8" stroke-width="1.51"/><path d="M1353,63L1381,271L1494,184Z" fill="#81abc4" stroke="#81abc4" stroke-width="1.51"/><path d="M1350,786L1318,994L1468,951Z" fill="#1f879f" stroke="#1f879f" stroke-width="1.51"/><path d="M1458,-12L1353,63L1482,42Z" fill="#8bb0c5" stroke="#8bb0c5" stroke-width="1.51"/><path d="M1345,1166L1280,1263L1451,1329Z" fill="#1b727a" stroke="#1b727a" stroke-width="1.51"/><path d="M1352,-26L1353,63L1458,-12Z" fill="#8fb2ca" stroke="#8fb2ca" stroke-width="1.51"/><path d="M1349,444L1318,591L1464,551Z" fill="#4d9abd" stroke="#4d9abd" stroke-width="1.51"/><path d="M1225,484L1318,591L1349,444Z" fill="#569dc5" stroke="#569dc5" stroke-width="1.51"/><path d="M1195,855L1318,994L1350,786Z" fill="#298bac" stroke="#298bac" stroke-width="1.51"/><path d="M1232,55L1181,203L1353,63Z" fill="#8fb1d4" stroke="#8fb1d4" stroke-width="1.51"/><path d="M1218,-68L1352,-26L1369,-265Z" fill="#9bb9d4" stroke="#9bb9d4" stroke-width="1.51"/><path d="M1155,-230L1218,-68L1369,-265Z" fill="#a2bedc" stroke="#a2bedc" stroke-width="1.51"/><path d="M1198,387L1349,444L1381,271Z" fill="#6ea4c8" stroke="#6ea4c8" stroke-width="1.51"/><path d="M1181,203L1198,387L1381,271Z" fill="#7ba9cf" stroke="#7ba9cf" stroke-width="1.51"/><path d="M1353,63L1181,203L1381,271Z" fill="#85adcd" stroke="#85adcd" stroke-width="1.51"/><path d="M448,-194L636,-194L837,-244Z" fill="#d1d6ea" stroke="#d1d6ea" stroke-width="1.51"/><path d="M1318,994L1164,1195L1345,1166Z" fill="#23808f" stroke="#23808f" stroke-width="1.51"/><path d="M1318,591L1131,648L1348,716Z" fill="#4395c3" stroke="#4395c3" stroke-width="1.51"/><path d="M1198,387L1225,484L1349,444Z" fill="#64a1ca" stroke="#64a1ca" stroke-width="1.51"/><path d="M1348,716L1195,855L1350,786Z" fill="#318eb7" stroke="#318eb7" stroke-width="1.51"/><path d="M1218,-68L1232,55L1352,-26Z" fill="#97b6d6" stroke="#97b6d6" stroke-width="1.51"/><path d="M1352,-26L1232,55L1353,63Z" fill="#91b2d0" stroke="#91b2d0" stroke-width="1.51"/><path d="M1131,648L1195,855L1348,716Z" fill="#3b92c1" stroke="#3b92c1" stroke-width="1.51"/><path d="M1164,1195L1280,1263L1345,1166Z" fill="#237986" stroke="#237986" stroke-width="1.51"/><path d="M1091,1026L1164,1195L1318,994Z" fill="#2c8697" stroke="#2c8697" stroke-width="1.51"/><path d="M1129,971L1091,1026L1318,994Z" fill="#2d8aa1" stroke="#2d8aa1" stroke-width="1.51"/><path d="M1195,855L1129,971L1318,994Z" fill="#2a8ba7" stroke="#2a8ba7" stroke-width="1.51"/><path d="M1225,484L1131,648L1318,591Z" fill="#509cc7" stroke="#509cc7" stroke-width="1.51"/><path d="M1164,1195L1226,1277L1280,1263Z" fill="#267784" stroke="#267784" stroke-width="1.51"/><path d="M1131,648L1037,723L1195,855Z" fill="#4496c3" stroke="#4496c3" stroke-width="1.51"/><path d="M1181,203L1051,256L1198,387Z" fill="#83aed2" stroke="#83aed2" stroke-width="1.51"/><path d="M1155,-230L1035,-58L1218,-68Z" fill="#a5bfdc" stroke="#a5bfdc" stroke-width="1.51"/><path d="M1026,484L1131,648L1225,484Z" fill="#5ba2cb" stroke="#5ba2cb" stroke-width="1.51"/><path d="M1001,54L1181,203L1232,55Z" fill="#96b6d7" stroke="#96b6d7" stroke-width="1.51"/><path d="M1218,-68L1035,-58L1232,55Z" fill="#9ebad9" stroke="#9ebad9" stroke-width="1.51"/><path d="M1035,-58L1001,54L1232,55Z" fill="#9fbcda" stroke="#9fbcda" stroke-width="1.51"/><path d="M1017,-159L1035,-58L1155,-230Z" fill="#aac4df" stroke="#aac4df" stroke-width="1.51"/><path d="M1198,387L1053,411L1225,484Z" fill="#6da6cd" stroke="#6da6cd" stroke-width="1.51"/><path d="M1164,1195L1016,1332L1226,1277Z" fill="#2e7884" stroke="#2e7884" stroke-width="1.51"/><path d="M1053,411L1026,484L1225,484Z" fill="#6ba7ce" stroke="#6ba7ce" stroke-width="1.51"/><path d="M837,-244L1017,-159L1155,-230Z" fill="#b1c9e2" stroke="#b1c9e2" stroke-width="1.51"/><path d="M1091,1026L1048,1187L1164,1195Z" fill="#338592" stroke="#338592" stroke-width="1.51"/><path d="M1048,1187L1016,1332L1164,1195Z" fill="#337e88" stroke="#337e88" stroke-width="1.51"/><path d="M1001,54L1051,256L1181,203Z" fill="#93b6d7" stroke="#93b6d7" stroke-width="1.51"/><path d="M1037,723L1013,808L1195,855Z" fill="#4395be" stroke="#4395be" stroke-width="1.51"/><path d="M1051,256L1053,411L1198,387Z" fill="#7dacd1" stroke="#7dacd1" stroke-width="1.51"/><path d="M1013,808L1129,971L1195,855Z" fill="#3a91b2" stroke="#3a91b2" stroke-width="1.51"/><path d="M1026,484L897,570L1037,723Z" fill="#60a5cc" stroke="#60a5cc" stroke-width="1.51"/><path d="M1013,808L1091,1026L1129,971Z" fill="#3991ab" stroke="#3991ab" stroke-width="1.51"/><path d="M1026,484L1037,723L1131,648Z" fill="#579fc9" stroke="#579fc9" stroke-width="1.51"/><path d="M894,1013L871,1116L1048,1187Z" fill="#428d99" stroke="#428d99" stroke-width="1.51"/><path d="M1051,256L930,278L1053,411Z" fill="#87b2d4" stroke="#87b2d4" stroke-width="1.51"/><path d="M894,1013L1048,1187L1091,1026Z" fill="#3b8c9b" stroke="#3b8c9b" stroke-width="1.51"/><path d="M1013,808L894,1013L1091,1026Z" fill="#3e93ab" stroke="#3e93ab" stroke-width="1.51"/><path d="M840,92L930,278L1001,54Z" fill="#a1bddb" stroke="#a1bddb" stroke-width="1.51"/><path d="M897,570L842,656L1037,723Z" fill="#60a3cb" stroke="#60a3cb" stroke-width="1.51"/><path d="M897,1322L1016,1332L1048,1187Z" fill="#387d86" stroke="#387d86" stroke-width="1.51"/><path d="M1001,54L930,278L1051,256Z" fill="#95b8d8" stroke="#95b8d8" stroke-width="1.51"/><path d="M868,423L1026,484L1053,411Z" fill="#77add2" stroke="#77add2" stroke-width="1.51"/><path d="M930,278L868,423L1053,411Z" fill="#84b2d4" stroke="#84b2d4" stroke-width="1.51"/><path d="M830,821L894,1013L1013,808Z" fill="#4d99b7" stroke="#4d99b7" stroke-width="1.51"/><path d="M871,1116L897,1322L1048,1187Z" fill="#3f868e" stroke="#3f868e" stroke-width="1.51"/><path d="M1017,-159L864,-7L1035,-58Z" fill="#acc5df" stroke="#acc5df" stroke-width="1.51"/><path d="M864,-7L1001,54L1035,-58Z" fill="#a8c2de" stroke="#a8c2de" stroke-width="1.51"/><path d="M842,656L1013,808L1037,723Z" fill="#529dc8" stroke="#529dc8" stroke-width="1.51"/><path d="M842,656L830,821L1013,808Z" fill="#599ec7" stroke="#599ec7" stroke-width="1.51"/><path d="M868,423L897,570L1026,484Z" fill="#73acd1" stroke="#73acd1" stroke-width="1.51"/><path d="M785,-194L864,-7L1017,-159Z" fill="#b7cae2" stroke="#b7cae2" stroke-width="1.51"/><path d="M837,-244L785,-194L1017,-159Z" fill="#bbcee4" stroke="#bbcee4" stroke-width="1.51"/><path d="M864,-7L840,92L1001,54Z" fill="#aac2de" stroke="#aac2de" stroke-width="1.51"/><path d="M561,1261L407,1286L695,1288Z" fill="#638c8e" stroke="#638c8e" stroke-width="1.51"/><path d="M830,821L749,990L894,1013Z" fill="#549ab0" stroke="#549ab0" stroke-width="1.51"/><path d="M871,1116L768,1152L897,1322Z" fill="#4b8b91" stroke="#4b8b91" stroke-width="1.51"/><path d="M840,92L735,235L930,278Z" fill="#a3bddb" stroke="#a3bddb" stroke-width="1.51"/><path d="M735,235L785,349L930,278Z" fill="#9cbad9" stroke="#9cbad9" stroke-width="1.51"/><path d="M785,349L868,423L930,278Z" fill="#90b6d6" stroke="#90b6d6" stroke-width="1.51"/><path d="M749,990L871,1116L894,1013Z" fill="#5094a3" stroke="#5094a3" stroke-width="1.51"/><path d="M768,1152L695,1288L897,1322Z" fill="#4f878c" stroke="#4f878c" stroke-width="1.51"/><path d="M868,423L717,544L897,570Z" fill="#7bafd3" stroke="#7bafd3" stroke-width="1.51"/><path d="M717,544L842,656L897,570Z" fill="#73aad0" stroke="#73aad0" stroke-width="1.51"/><path d="M785,-194L679,-55L864,-7Z" fill="#bfcce3" stroke="#bfcce3" stroke-width="1.51"/><path d="M714,714L830,821L842,656Z" fill="#67a3cb" stroke="#67a3cb" stroke-width="1.51"/><path d="M743,59L840,92L864,-7Z" fill="#b2c5e0" stroke="#b2c5e0" stroke-width="1.51"/><path d="M785,349L717,544L868,423Z" fill="#8ab4d5" stroke="#8ab4d5" stroke-width="1.51"/><path d="M749,990L768,1152L871,1116Z" fill="#54939e" stroke="#54939e" stroke-width="1.51"/><path d="M679,-55L743,59L864,-7Z" fill="#bac9e2" stroke="#bac9e2" stroke-width="1.51"/><path d="M99,-172L312,-161L448,-194Z" fill="#e6e0ee" stroke="#e6e0ee" stroke-width="1.51"/><path d="M699,821L749,990L830,821Z" fill="#619eba" stroke="#619eba" stroke-width="1.51"/><path d="M714,714L699,821L830,821Z" fill="#69a2c6" stroke="#69a2c6" stroke-width="1.51"/><path d="M636,-194L785,-194L837,-244Z" fill="#c7d3e7" stroke="#c7d3e7" stroke-width="1.51"/><path d="M743,59L735,235L840,92Z" fill="#b1c3de" stroke="#b1c3de" stroke-width="1.51"/><path d="M717,544L714,714L842,656Z" fill="#75a9d0" stroke="#75a9d0" stroke-width="1.51"/><path d="M636,-194L630,-93L679,-55Z" fill="#ccd2e6" stroke="#ccd2e6" stroke-width="1.51"/><path d="M634,240L735,235L743,59Z" fill="#b2c3de" stroke="#b2c3de" stroke-width="1.51"/><path d="M749,990L627,1137L768,1152Z" fill="#5c969f" stroke="#5c969f" stroke-width="1.51"/><path d="M584,392L717,544L785,349Z" fill="#95b7d8" stroke="#95b7d8" stroke-width="1.51"/><path d="M735,235L634,240L785,349Z" fill="#a7bedc" stroke="#a7bedc" stroke-width="1.51"/><path d="M634,240L584,392L785,349Z" fill="#a6bddb" stroke="#a6bddb" stroke-width="1.51"/><path d="M636,-194L679,-55L785,-194Z" fill="#c9d1e6" stroke="#c9d1e6" stroke-width="1.51"/><path d="M562,129L634,240L743,59Z" fill="#bbc7e1" stroke="#bbc7e1" stroke-width="1.51"/><path d="M627,1137L695,1288L768,1152Z" fill="#5b9094" stroke="#5b9094" stroke-width="1.51"/><path d="M576,560L714,714L717,544Z" fill="#81aed2" stroke="#81aed2" stroke-width="1.51"/><path d="M699,821L551,994L749,990Z" fill="#679fb4" stroke="#679fb4" stroke-width="1.51"/><path d="M551,994L627,1137L749,990Z" fill="#669ba7" stroke="#669ba7" stroke-width="1.51"/><path d="M679,-55L562,129L743,59Z" fill="#c1cae3" stroke="#c1cae3" stroke-width="1.51"/><path d="M576,560L575,730L714,714Z" fill="#80acd1" stroke="#80acd1" stroke-width="1.51"/><path d="M584,392L576,560L717,544Z" fill="#91b6d7" stroke="#91b6d7" stroke-width="1.51"/><path d="M627,1137L561,1261L695,1288Z" fill="#608e91" stroke="#608e91" stroke-width="1.51"/><path d="M585,791L551,994L699,821Z" fill="#71a3be" stroke="#71a3be" stroke-width="1.51"/><path d="M585,791L699,821L714,714Z" fill="#73a5c9" stroke="#73a5c9" stroke-width="1.51"/><path d="M575,730L585,791L714,714Z" fill="#78a7ce" stroke="#78a7ce" stroke-width="1.51"/><path d="M630,-93L477,-20L679,-55Z" fill="#ccd0e6" stroke="#ccd0e6" stroke-width="1.51"/><path d="M477,-20L562,129L679,-55Z" fill="#c9cee5" stroke="#c9cee5" stroke-width="1.51"/><path d="M441,248L584,392L634,240Z" fill="#b2c2de" stroke="#b2c2de" stroke-width="1.51"/><path d="M448,-194L630,-93L636,-194Z" fill="#d4d6e9" stroke="#d4d6e9" stroke-width="1.51"/><path d="M551,994L481,1006L627,1137Z" fill="#6c9da8" stroke="#6c9da8" stroke-width="1.51"/><path d="M562,129L441,248L634,240Z" fill="#bbc7e0" stroke="#bbc7e0" stroke-width="1.51"/><path d="M448,-194L477,-20L630,-93Z" fill="#d4d5e9" stroke="#d4d5e9" stroke-width="1.51"/><path d="M388,1174L561,1261L627,1137Z" fill="#699697" stroke="#699697" stroke-width="1.51"/><path d="M481,1006L388,1174L627,1137Z" fill="#6e9ca1" stroke="#6e9ca1" stroke-width="1.51"/><path d="M414,578L380,741L575,730Z" fill="#8bb1d4" stroke="#8bb1d4" stroke-width="1.51"/><path d="M380,741L383,820L575,730Z" fill="#85adcf" stroke="#85adcf" stroke-width="1.51"/><path d="M414,578L575,730L576,560Z" fill="#8cb2d5" stroke="#8cb2d5" stroke-width="1.51"/><path d="M441,248L382,362L584,392Z" fill="#b4c3df" stroke="#b4c3df" stroke-width="1.51"/><path d="M414,578L576,560L584,392Z" fill="#97b9d9" stroke="#97b9d9" stroke-width="1.51"/><path d="M382,362L414,578L584,392Z" fill="#a5bedc" stroke="#a5bedc" stroke-width="1.51"/><path d="M481,1006L551,994L585,791Z" fill="#72a4b7" stroke="#72a4b7" stroke-width="1.51"/><path d="M383,820L481,1006L585,791Z" fill="#7aa8bf" stroke="#7aa8bf" stroke-width="1.51"/><path d="M575,730L383,820L585,791Z" fill="#7faacb" stroke="#7faacb" stroke-width="1.51"/><path d="M477,-20L398,119L562,129Z" fill="#cccfe5" stroke="#cccfe5" stroke-width="1.51"/><path d="M388,1174L407,1286L561,1261Z" fill="#6c9393" stroke="#6c9393" stroke-width="1.51"/><path d="M398,119L441,248L562,129Z" fill="#c5cbe3" stroke="#c5cbe3" stroke-width="1.51"/><path d="M302,1256L123,1345L407,1286Z" fill="#739290" stroke="#739290" stroke-width="1.51"/><path d="M298,-33L398,119L477,-20Z" fill="#d5d4e8" stroke="#d5d4e8" stroke-width="1.51"/><path d="M448,-194L312,-161L477,-20Z" fill="#dddaeb" stroke="#dddaeb" stroke-width="1.51"/><path d="M312,-161L298,-33L477,-20Z" fill="#ded9eb" stroke="#ded9eb" stroke-width="1.51"/><path d="M383,820L293,829L481,1006Z" fill="#80aabf" stroke="#80aabf" stroke-width="1.51"/><path d="M293,829L239,1039L481,1006Z" fill="#7ea9b7" stroke="#7ea9b7" stroke-width="1.51"/><path d="M239,1039L388,1174L481,1006Z" fill="#79a2a7" stroke="#79a2a7" stroke-width="1.51"/><path d="M250,391L228,518L382,362Z" fill="#b3c4df" stroke="#b3c4df" stroke-width="1.51"/><path d="M298,-33L303,99L398,119Z" fill="#d6d4e8" stroke="#d6d4e8" stroke-width="1.51"/><path d="M382,362L228,518L414,578Z" fill="#a7c0dd" stroke="#a7c0dd" stroke-width="1.51"/><path d="M398,119L329,232L441,248Z" fill="#c7cce3" stroke="#c7cce3" stroke-width="1.51"/><path d="M329,232L382,362L441,248Z" fill="#bfc8e2" stroke="#bfc8e2" stroke-width="1.51"/><path d="M239,1039L238,1120L388,1174Z" fill="#7ca3a4" stroke="#7ca3a4" stroke-width="1.51"/><path d="M313,739L380,741L414,578Z" fill="#92b3d5" stroke="#92b3d5" stroke-width="1.51"/><path d="M388,1174L302,1256L407,1286Z" fill="#729695" stroke="#729695" stroke-width="1.51"/><path d="M228,518L313,739L414,578Z" fill="#9bb9d9" stroke="#9bb9d9" stroke-width="1.51"/><path d="M303,99L329,232L398,119Z" fill="#cfd0e6" stroke="#cfd0e6" stroke-width="1.51"/><path d="M380,741L313,739L383,820Z" fill="#8cb0d0" stroke="#8cb0d0" stroke-width="1.51"/><path d="M329,232L250,391L382,362Z" fill="#bec8e1" stroke="#bec8e1" stroke-width="1.51"/><path d="M313,739L293,829L383,820Z" fill="#8bafcd" stroke="#8bafcd" stroke-width="1.51"/><path d="M238,1120L302,1256L388,1174Z" fill="#779d9b" stroke="#779d9b" stroke-width="1.51"/><path d="M25,1324L-129,1342L123,1345Z" fill="#7c9691" stroke="#7c9691" stroke-width="1.51"/><path d="M97,564L79,717L228,518Z" fill="#a5c0dd" stroke="#a5c0dd" stroke-width="1.51"/><path d="M137,982L239,1039L293,829Z" fill="#85adba" stroke="#85adba" stroke-width="1.51"/><path d="M139,865L137,982L293,829Z" fill="#8bb0c2" stroke="#8bb0c2" stroke-width="1.51"/><path d="M298,-33L171,49L303,99Z" fill="#dbd7e9" stroke="#dbd7e9" stroke-width="1.51"/><path d="M138,-83L298,-33L312,-161Z" fill="#e4dded" stroke="#e4dded" stroke-width="1.51"/><path d="M228,518L79,717L313,739Z" fill="#9cbad9" stroke="#9cbad9" stroke-width="1.51"/><path d="M303,99L187,212L329,232Z" fill="#cfd1e6" stroke="#cfd1e6" stroke-width="1.51"/><path d="M187,212L250,391L329,232Z" fill="#c6cce4" stroke="#c6cce4" stroke-width="1.51"/><path d="M139,865L293,829L313,739Z" fill="#8eb1cc" stroke="#8eb1cc" stroke-width="1.51"/><path d="M79,717L139,865L313,739Z" fill="#94b4d2" stroke="#94b4d2" stroke-width="1.51"/><path d="M99,-172L138,-83L312,-161Z" fill="#e9e1ef" stroke="#e9e1ef" stroke-width="1.51"/><path d="M238,1120L98,1140L302,1256Z" fill="#7ca09e" stroke="#7ca09e" stroke-width="1.51"/><path d="M98,1140L123,1345L302,1256Z" fill="#7a9a97" stroke="#7a9a97" stroke-width="1.51"/><path d="M171,49L187,212L303,99Z" fill="#d7d5e8" stroke="#d7d5e8" stroke-width="1.51"/><path d="M187,212L115,337L250,391Z" fill="#c5cde4" stroke="#c5cde4" stroke-width="1.51"/><path d="M138,-83L171,49L298,-33Z" fill="#e2dbec" stroke="#e2dbec" stroke-width="1.51"/><path d="M115,337L228,518L250,391Z" fill="#b8c7e1" stroke="#b8c7e1" stroke-width="1.51"/><path d="M115,337L97,564L228,518Z" fill="#b3c6e0" stroke="#b3c6e0" stroke-width="1.51"/><path d="M98,1140L238,1120L239,1039Z" fill="#80a6a7" stroke="#80a6a7" stroke-width="1.51"/><path d="M137,982L98,1140L239,1039Z" fill="#84a9ad" stroke="#84a9ad" stroke-width="1.51"/><path d="M-19,430L97,564L115,337Z" fill="#bbcae3" stroke="#bbcae3" stroke-width="1.51"/><path d="M98,1140L25,1324L123,1345Z" fill="#7e9a96" stroke="#7e9a96" stroke-width="1.51"/><path d="M-71,89L30,251L171,49Z" fill="#dfdaeb" stroke="#dfdaeb" stroke-width="1.51"/><path d="M171,49L30,251L187,212Z" fill="#d7d5e9" stroke="#d7d5e9" stroke-width="1.51"/><path d="M30,251L115,337L187,212Z" fill="#ced1e7" stroke="#ced1e7" stroke-width="1.51"/><path d="M138,-83L-18,-108L171,49Z" fill="#e8dfee" stroke="#e8dfee" stroke-width="1.51"/><path d="M-18,-108L-71,89L171,49Z" fill="#e7dfee" stroke="#e7dfee" stroke-width="1.51"/><path d="M-18,1165L25,1324L98,1140Z" fill="#82a29d" stroke="#82a29d" stroke-width="1.51"/><path d="M-42,1010L98,1140L137,982Z" fill="#89adb0" stroke="#89adb0" stroke-width="1.51"/><path d="M99,-172L-18,-108L138,-83Z" fill="#ede3f1" stroke="#ede3f1" stroke-width="1.51"/><path d="M79,717L-46,800L139,865Z" fill="#98b7d1" stroke="#98b7d1" stroke-width="1.51"/><path d="M-42,1010L137,982L139,865Z" fill="#8bb1bb" stroke="#8bb1bb" stroke-width="1.51"/><path d="M-46,800L-42,1010L139,865Z" fill="#92b4c5" stroke="#92b4c5" stroke-width="1.51"/><path d="M-13,581L79,717L97,564Z" fill="#a7c0dd" stroke="#a7c0dd" stroke-width="1.51"/><path d="M-19,430L-13,581L97,564Z" fill="#b1c7e1" stroke="#b1c7e1" stroke-width="1.51"/><path d="M-42,1010L-18,1165L98,1140Z" fill="#88aaa9" stroke="#88aaa9" stroke-width="1.51"/><path d="M30,251L-19,430L115,337Z" fill="#c9cfe6" stroke="#c9cfe6" stroke-width="1.51"/><path d="M-13,581L-67,653L79,717Z" fill="#a6c0dd" stroke="#a6c0dd" stroke-width="1.51"/><path d="M-19,-185L-18,-108L99,-172Z" fill="#f0e7f2" stroke="#f0e7f2" stroke-width="1.51"/><path d="M-67,653L-46,800L79,717Z" fill="#a1bcdb" stroke="#a1bcdb" stroke-width="1.51"/><path d="M-46,800L-184,874L-42,1010Z" fill="#96b8c7" stroke="#96b8c7" stroke-width="1.51"/><path d="M-18,1165L-139,1193L25,1324Z" fill="#84a39c" stroke="#84a39c" stroke-width="1.51"/><path d="M-139,1193L-129,1342L25,1324Z" fill="#829e97" stroke="#829e97" stroke-width="1.51"/><path d="M-71,89L-178,192L30,251Z" fill="#dddbec" stroke="#dddbec" stroke-width="1.51"/><path d="M-178,192L-116,360L30,251Z" fill="#d5d7ea" stroke="#d5d7ea" stroke-width="1.51"/><path d="M-116,360L-19,430L30,251Z" fill="#cbd2e7" stroke="#cbd2e7" stroke-width="1.51"/><path d="M-184,874L-165,1007L-42,1010Z" fill="#92b7bd" stroke="#92b7bd" stroke-width="1.51"/><path d="M-165,1007L-139,1193L-42,1010Z" fill="#8db1af" stroke="#8db1af" stroke-width="1.51"/><path d="M-116,360L-212,531L-19,430Z" fill="#c1d0e6" stroke="#c1d0e6" stroke-width="1.51"/><path d="M-198,-58L-71,89L-18,-108Z" fill="#ede5f1" stroke="#ede5f1" stroke-width="1.51"/><path d="M-19,-185L-197,-202L-18,-108Z" fill="#f5ebf5" stroke="#f5ebf5" stroke-width="1.51"/><path d="M-42,1010L-139,1193L-18,1165Z" fill="#89ada8" stroke="#89ada8" stroke-width="1.51"/><path d="M-170,646L-67,653L-13,581Z" fill="#abc4df" stroke="#abc4df" stroke-width="1.51"/><path d="M-212,531L-170,646L-13,581Z" fill="#b0c8e2" stroke="#b0c8e2" stroke-width="1.51"/><path d="M-19,430L-212,531L-13,581Z" fill="#b6cce3" stroke="#b6cce3" stroke-width="1.51"/><path d="M-197,-202L-198,-58L-18,-108Z" fill="#f4ebf4" stroke="#f4ebf4" stroke-width="1.51"/><path d="M-67,653L-170,646L-46,800Z" fill="#a5c1dc" stroke="#a5c1dc" stroke-width="1.51"/><path d="M-170,646L-184,874L-46,800Z" fill="#a0bdd8" stroke="#a0bdd8" stroke-width="1.51"/><path d="M-204,137L-178,192L-71,89Z" fill="#e3e0ee" stroke="#e3e0ee" stroke-width="1.51"/><path d="M-198,-58L-204,137L-71,89Z" fill="#eae4f0" stroke="#eae4f0" stroke-width="1.51"/><path d="M-165,1007L-184,874L-129,1342Z" fill="#8eb2b0" stroke="#8eb2b0" stroke-width="1.51"/><path d="M-178,192L-212,531L-116,360Z" fill="#cdd6e9" stroke="#cdd6e9" stroke-width="1.51"/><path d="M-139,1193L-165,1007L-129,1342Z" fill="#89aba2" stroke="#89aba2" stroke-width="1.51"/><path d="M-204,137L-212,531L-178,192Z" fill="#d6dbec" stroke="#d6dbec" stroke-width="1.51"/><path d="M-212,531L-184,874L-170,646Z" fill="#a9c4df" stroke="#a9c4df" stroke-width="1.51"/><path d="M-204,137L-198,-58L-197,-202Z" fill="#f1e9f4" stroke="#f1e9f4" stroke-width="1.51"/></svg>