<svg xmlns="http://www.w3.org/2000/svg" width="1920" height="1080"><path d="M-197,-202L-19,-185L448,-194Z" fill="#6f2e7c" stroke="#6f2e7c" stroke-width="1.51"/><path d="M-197,-202L448,-194L837,-244Z" fill="#83508f" stroke="#83508f" stroke-width="1.51"/><path d="M897,1322L123,1345L1016,1332Z" fill="#788c7c" stroke="#788c7c" stroke-width="1.51"/><path d="M837,-244L1155,-230L1369,-265Z" fill="#997d9a" stroke="#997d9a" stroke-width="1.51"/><path d="M1016,1332L123,1345L1668,1345Z" fill="#7f9c83" stroke="#7f9c83" stroke-width="1.51"/><path d="M1451,1329L1016,1332L1668,1345Z" fill="#5f9463" stroke="#5f9463" stroke-width="1.51"/><path d="M1654,-192L1821,-173L1911,-185Z" fill="#5e5e60" stroke="#5e5e60" stroke-width="1.51"/><path d="M1654,-192L1911,-185L2060,-232Z" fill="#525355" stroke="#525355" stroke-width="1.51"/><path d="M1516,-223L1654,-192L2060,-232Z" fill="#5e5e5f" stroke="#5e5e5f" stroke-width="1.51"/><path d="M1369,-265L1516,-223L2060,-232Z" fill="#656464" stroke="#656464" stroke-width="1.51"/><path d="M1966,836L2063,873L2076,642Z" fill="#6ba06e" stroke="#6ba06e" stroke-width="1.51"/><path d="M1952,652L1966,836L2076,642Z" fill="#79a97c" stroke="#79a97c" stroke-width="1.51"/><path d="M2070,987L1968,1181L2098,1144Z" fill="#28793b" stroke="#28793b" stroke-width="1.51"/><path d="M2076,642L2063,873L2098,1144Z" fill="#57945c" stroke="#57945c" stroke-width="1.51"/><path d="M2063,873L2070,987L2098,1144Z" fill="#3c8448" stroke="#3c8448" stroke-width="1.51"/><path d="M2047,56L1886,188L2100,282Z" fill="#6e8177" stroke="#6e8177" stroke-width="1.51"/><path d="M2079,-104L2047,56L2100,282Z" fill="#606b69" stroke="#606b69" stroke-width="1.51"/><path d="M2100,282L1956,361L2118,381Z" fill="#7b9180" stroke="#7b9180" stroke-width="1.51"/><path d="M1956,361L2053,487L2118,381Z" fill="#819b84" stroke="#819b84" stroke-width="1.51"/><path d="M2053,487L2076,642L2118,381Z" fill="#829f86" stroke="#829f86" stroke-width="1.51"/><path d="M2076,642L2098,1144L2118,381Z" fill="#709d73" stroke="#709d73" stroke-width="1.51"/><path d="M2079,-104L2100,282L2118,381Z" fill="#697872" stroke="#697872" stroke-width="1.51"/><path d="M2098,1144L1968,1181L2118,1295Z" fill="#12672e" stroke="#12672e" stroke-width="1.51"/><path d="M1968,1181L1940,1323L2118,1295Z" fill="#10632b" stroke="#10632b" stroke-width="1.51"/><path d="M2118,381L2098,1144L2118,1295Z" fill="#498950" stroke="#498950" stroke-width="1.51"/><path d="M1907,1007L1968,1181L2070,987Z" fill="#358745" stroke="#358745" stroke-width="1.51"/><path d="M2053,487L1915,557L2076,642Z" fill="#86ab8a" stroke="#86ab8a" stroke-width="1.51"/><path d="M1915,557L1952,652L2076,642Z" fill="#83ae87" stroke="#83ae87" stroke-width="1.51"/><path d="M1909,-80L2047,56L2079,-104Z" fill="#5b5d61" stroke="#5b5d61" stroke-width="1.51"/><path d="M1886,188L1956,361L2100,282Z" fill="#7b9281" stroke="#7b9281" stroke-width="1.51"/><path d="M1909,-80L1935,50L2047,56Z" fill="#626b6a" stroke="#626b6a" stroke-width="1.51"/><path d="M1935,50L1886,188L2047,56Z" fill="#6a7b74" stroke="#6a7b74" stroke-width="1.51"/><path d="M2063,873L1966,836L2070,987Z" fill="#57975d" stroke="#57975d" stroke-width="1.51"/><path d="M1966,836L1907,1007L2070,987Z" fill="#509759" stroke="#509759" stroke-width="1.51"/><path d="M2060,-232L1911,-185L2079,-104Z" fill="#4b484f" stroke="#4b484f" stroke-width="1.51"/><path d="M1911,-185L1909,-80L2079,-104Z" fill="#57535b" stroke="#57535b" stroke-width="1.51"/><path d="M1956,361L1915,557L2053,487Z" fill="#88a98c" stroke="#88a98c" stroke-width="1.51"/><path d="M695,1288L123,1345L897,1322Z" fill="#728579" stroke="#728579" stroke-width="1.51"/><path d="M1830,1272L1668,1345L1940,1323Z" fill="#227135" stroke="#227135" stroke-width="1.51"/><path d="M1752,659L1839,888L1952,652Z" fill="#83b984" stroke="#83b984" stroke-width="1.51"/><path d="M1886,188L1729,274L1956,361Z" fill="#86a08c" stroke="#86a08c" stroke-width="1.51"/><path d="M1794,422L1915,557L1956,361Z" fill="#8fb192" stroke="#8fb192" stroke-width="1.51"/><path d="M1952,652L1839,888L1966,836Z" fill="#71ae75" stroke="#71ae75" stroke-width="1.51"/><path d="M1839,888L1907,1007L1966,836Z" fill="#5da564" stroke="#5da564" stroke-width="1.51"/><path d="M1907,1007L1835,1137L1968,1181Z" fill="#318944" stroke="#318944" stroke-width="1.51"/><path d="M1830,1272L1940,1323L1968,1181Z" fill="#176f32" stroke="#176f32" stroke-width="1.51"/><path d="M1835,1137L1830,1272L1968,1181Z" fill="#237d3b" stroke="#237d3b" stroke-width="1.51"/><path d="M1729,274L1794,422L1956,361Z" fill="#91ae94" stroke="#91ae94" stroke-width="1.51"/><path d="M1915,557L1752,659L1952,652Z" fill="#8cba8f" stroke="#8cba8f" stroke-width="1.51"/><path d="M1794,422L1776,529L1915,557Z" fill="#98be9b" stroke="#98be9b" stroke-width="1.51"/><path d="M1746,43L1886,188L1935,50Z" fill="#74857c" stroke="#74857c" stroke-width="1.51"/><path d="M1909,-80L1772,-42L1935,50Z" fill="#68706e" stroke="#68706e" stroke-width="1.51"/><path d="M1821,-173L1909,-80L1911,-185Z" fill="#5b5a5f" stroke="#5b5a5f" stroke-width="1.51"/><path d="M1772,-42L1746,43L1935,50Z" fill="#707d78" stroke="#707d78" stroke-width="1.51"/><path d="M1839,888L1762,989L1907,1007Z" fill="#59a661" stroke="#59a661" stroke-width="1.51"/><path d="M1762,989L1835,1137L1907,1007Z" fill="#469b52" stroke="#469b52" stroke-width="1.51"/><path d="M1776,529L1752,659L1915,557Z" fill="#97c299" stroke="#97c299" stroke-width="1.51"/><path d="M1821,-173L1772,-42L1909,-80Z" fill="#666569" stroke="#666569" stroke-width="1.51"/><path d="M407,1286L123,1345L695,1288Z" fill="#697771" stroke="#697771" stroke-width="1.51"/><path d="M1746,43L1729,274L1886,188Z" fill="#84998a" stroke="#84998a" stroke-width="1.51"/><path d="M1664,231L1729,274L1746,43Z" fill="#8da392" stroke="#8da392" stroke-width="1.51"/><path d="M1582,1190L1668,1345L1830,1272Z" fill="#358644" stroke="#358644" stroke-width="1.51"/><path d="M1582,1190L1830,1272L1835,1137Z" fill="#348b46" stroke="#348b46" stroke-width="1.51"/><path d="M1591,892L1762,989L1839,888Z" fill="#6fb771" stroke="#6fb771" stroke-width="1.51"/><path d="M1752,659L1591,892L1839,888Z" fill="#85c284" stroke="#85c284" stroke-width="1.51"/><path d="M1762,989L1582,1190L1835,1137Z" fill="#489d54" stroke="#489d54" stroke-width="1.51"/><path d="M1654,-192L1772,-42L1821,-173Z" fill="#6b686c" stroke="#6b686c" stroke-width="1.51"/><path d="M1729,274L1687,411L1794,422Z" fill="#9dbb9e" stroke="#9dbb9e" stroke-width="1.51"/><path d="M1601,655L1591,892L1752,659Z" fill="#9cd099" stroke="#9cd099" stroke-width="1.51"/><path d="M1591,892L1601,952L1762,989Z" fill="#75bd75" stroke="#75bd75" stroke-width="1.51"/><path d="M1654,-192L1633,-69L1772,-42Z" fill="#767577" stroke="#767577" stroke-width="1.51"/><path d="M1687,411L1776,529L1794,422Z" fill="#9fc2a0" stroke="#9fc2a0" stroke-width="1.51"/><path d="M1593,44L1664,231L1746,43Z" fill="#8a9c8f" stroke="#8a9c8f" stroke-width="1.51"/><path d="M1601,952L1582,1190L1762,989Z" fill="#5eaf64" stroke="#5eaf64" stroke-width="1.51"/><path d="M1613,535L1752,659L1776,529Z" fill="#a4cea3" stroke="#a4cea3" stroke-width="1.51"/><path d="M1687,411L1613,535L1776,529Z" fill="#a7cda7" stroke="#a7cda7" stroke-width="1.51"/><path d="M1633,-69L1746,43L1772,-42Z" fill="#79807c" stroke="#79807c" stroke-width="1.51"/><path d="M1613,535L1601,655L1752,659Z" fill="#a7d4a5" stroke="#a7d4a5" stroke-width="1.51"/><path d="M1633,-69L1593,44L1746,43Z" fill="#828b86" stroke="#828b86" stroke-width="1.51"/><path d="M1506,788L1591,892L1601,655Z" fill="#a1d59d" stroke="#a1d59d" stroke-width="1.51"/><path d="M1664,231L1687,411L1729,274Z" fill="#9cb79d" stroke="#9cb79d" stroke-width="1.51"/><path d="M1226,1277L1016,1332L1451,1329Z" fill="#709e73" stroke="#709e73" stroke-width="1.51"/><path d="M1482,1158L1582,1190L1601,952Z" fill="#63ae68" stroke="#63ae68" stroke-width="1.51"/><path d="M1593,44L1494,184L1664,231Z" fill="#9cab9f" stroke="#9cab9f" stroke-width="1.51"/><path d="M1664,231L1528,399L1687,411Z" fill="#aac3a9" stroke="#aac3a9" stroke-width="1.51"/><path d="M1528,399L1613,535L1687,411Z" fill="#b2d0b0" stroke="#b2d0b0" stroke-width="1.51"/><path d="M1494,184L1528,399L1664,231Z" fill="#abbeac" stroke="#abbeac" stroke-width="1.51"/><path d="M1582,1190L1451,1329L1668,1345Z" fill="#498e51" stroke="#498e51" stroke-width="1.51"/><path d="M1516,-223L1633,-69L1654,-192Z" fill="#797377" stroke="#797377" stroke-width="1.51"/><path d="M1468,951L1482,1158L1601,952Z" fill="#78bf78" stroke="#78bf78" stroke-width="1.51"/><path d="M1500,636L1601,655L1613,535Z" fill="#b5dbb2" stroke="#b5dbb2" stroke-width="1.51"/><path d="M1458,-12L1593,44L1633,-69Z" fill="#8e9090" stroke="#8e9090" stroke-width="1.51"/><path d="M1516,-223L1458,-12L1633,-69Z" fill="#8a8189" stroke="#8a8189" stroke-width="1.51"/><path d="M1458,-12L1482,42L1593,44Z" fill="#989c9b" stroke="#989c9b" stroke-width="1.51"/><path d="M1482,42L1494,184L1593,44Z" fill="#9da6a1" stroke="#9da6a1" stroke-width="1.51"/><path d="M1500,636L1506,788L1601,655Z" fill="#b2ddae" stroke="#b2ddae" stroke-width="1.51"/><path d="M1528,399L1464,551L1613,535Z" fill="#bfdcbc" stroke="#bfdcbc" stroke-width="1.51"/><path d="M1464,551L1500,636L1613,535Z" fill="#bfe1bc" stroke="#bfe1bc" stroke-width="1.51"/><path d="M1482,1158L1451,1329L1582,1190Z" fill="#589e5f" stroke="#589e5f" stroke-width="1.51"/><path d="M1591,892L1468,951L1601,952Z" fill="#87c885" stroke="#87c885" stroke-width="1.51"/><path d="M1494,184L1381,271L1528,399Z" fill="#bbc9ba" stroke="#bbc9ba" stroke-width="1.51"/><path d="M1506,788L1468,951L1591,892Z" fill="#98d293" stroke="#98d293" stroke-width="1.51"/><path d="M-19,-185L99,-172L448,-194Z" fill="#793d86" stroke="#793d86" stroke-width="1.51"/><path d="M1468,951L1318,994L1482,1158Z" fill="#83c582" stroke="#83c582" stroke-width="1.51"/><path d="M1500,636L1348,716L1506,788Z" fill="#bde4b6" stroke="#bde4b6" stroke-width="1.51"/><path d="M1350,786L1468,951L1506,788Z" fill="#abdda4" stroke="#abdda4" stroke-width="1.51"/><path d="M1352,-26L1458,-12L1516,-223Z" fill="#988b97" stroke="#988b97" stroke-width="1.51"/><path d="M1369,-265L1352,-26L1516,-223Z" fill="#8f7f8d" stroke="#8f7f8d" stroke-width="1.51"/><path d="M1349,444L1464,551L1528,399Z" fill="#cbe1c7" stroke="#cbe1c7" stroke-width="1.51"/><path d="M1381,271L1349,444L1528,399Z" fill="#cad9c6" stroke="#cad9c6" stroke-width="1.51"/><path d="M1345,1166L1451,1329L1482,1158Z" fill="#65a66a" stroke="#65a66a" stroke-width="1.51"/><path d="M1318,994L1345,1166L1482,1158Z" fill="#7cbb7c" stroke="#7cbb7c" stroke-width="1.51"/><path d="M1482,42L1353,63L1494,184Z" fill="#a9aeac" stroke="#a9aeac" stroke-width="1.51"/><path d="M1348,716L1350,786L1506,788Z" fill="#bbe4b4" stroke="#bbe4b4" stroke-width="1.51"/><path d="M1280,1263L1226,1277L1451,1329Z" fill="#6a9e6d" stroke="#6a9e6d" stroke-width="1.51"/><path d="M1464,551L1318,591L1500,636Z" fill="#cce9c7" stroke="#cce9c7" stroke-width="1.51"/><path d="M1318,591L1348,716L1500,636Z" fill="#cbe9c5" stroke="#cbe9c5" stroke-width="1.51"/><path d="M1353,63L1381,271L1494,184Z" fill="#b6bcb7" stroke="#b6bcb7" stroke-width="1.51"/><path d="M1350,786L1318,994L1468,951Z" fill="#a4d89e" stroke="#a4d89e" stroke-width="1.51"/><path d="M1458,-12L1353,63L1482,42Z" fill="#a3a3a6" stroke="#a3a3a6" stroke-width="1.51"/><path d="M1345,1166L1280,1263L1451,1329Z" fill="#69a36d" stroke="#69a36d" stroke-width="1.51"/><path d="M1352,-26L1353,63L1458,-12Z" fill="#a6a1a8" stroke="#a6a1a8" stroke-width="1.51"/><path d="M1349,444L1318,591L1464,551Z" fill="#d5ebd1" stroke="#d5ebd1" stroke-width="1.51"/><path d="M1225,484L1318,591L1349,444Z" fill="#ddecd9" stroke="#ddecd9" stroke-width="1.51"/><path d="M1195,855L1318,994L1350,786Z" fill="#b5e1ae" stroke="#b5e1ae" stroke-width="1.51"/><path d="M1232,55L1181,203L1353,63Z" fill="#bcb7c0" stroke="#bcb7c0" stroke-width="1.51"/><path d="M1218,-68L1352,-26L1369,-265Z" fill="#a189a0" stroke="#a189a0" stroke-width="1.51"/><path d="M1155,-230L1218,-68L1369,-265Z" fill="#9b829a" stroke="#9b829a" stroke-width="1.51"/><path d="M1198,387L1349,444L1381,271Z" fill="#d5ddd2" stroke="#d5ddd2" stroke-width="1.51"/><path d="M1181,203L1198,387L1381,271Z" fill="#d2d3d2" stroke="#d2d3d2" stroke-width="1.51"/><path d="M1353,63L1181,203L1381,271Z" fill="#c0c1c3" stroke="#c0c1c3" stroke-width="1.51"/><path d="M448,-194L636,-194L837,-244Z" fill="#996ba0" stroke="#996ba0" stroke-width="1.51"/><path d="M1318,994L1164,1195L1345,1166Z" fill="#85bd85" stroke="#85bd85" stroke-width="1.51"/><path d="M1318,591L1131,648L1348,716Z" fill="#d7eed2" stroke="#d7eed2" stroke-width="1.51"/><path d="M1198,387L1225,484L1349,444Z" fill="#dee6db" stroke="#dee6db" stroke-width="1.51"/><path d="M1348,716L1195,855L1350,786Z" fill="#c2e7bc" stroke="#c2e7bc" stroke-width="1.51"/><path d="M1218,-68L1232,55L1352,-26Z" fill="#afa0b2" stroke="#afa0b2" stroke-width="1.51"/><path d="M1352,-26L1232,55L1353,63Z" fill="#aea8b2" stroke="#aea8b2" stroke-width="1.51"/><path d="M1131,648L1195,855L1348,716Z" fill="#d1edcb" stroke="#d1edcb" stroke-width="1.51"/><path d="M1164,1195L1280,1263L1345,1166Z" fill="#78af7b" stroke="#78af7b" stroke-width="1.51"/><path d="M1091,1026L1164,1195L1318,994Z" fill="#95c994" stroke="#95c994" stroke-width="1.51"/><path d="M1129,971L1091,1026L1318,994Z" fill="#a5d5a2" stroke="#a5d5a2" stroke-width="1.51"/><path d="M1195,855L1129,971L1318,994Z" fill="#afdcaa" stroke="#afdcaa" stroke-width="1.51"/><path d="M1225,484L1131,648L1318,591Z" fill="#e3f2de" stroke="#e3f2de" stroke-width="1.51"/><path d="M1164,1195L1226,1277L1280,1263Z" fill="#78aa7b" stroke="#78aa7b" stroke-width="1.51"/><path d="M1131,648L1037,723L1195,855Z" fill="#d9efd3" stroke="#d9efd3" stroke-width="1.51"/><path d="M1181,203L1051,256L1198,387Z" fill="#dad5db" stroke="#dad5db" stroke-width="1.51"/><path d="M1155,-230L1035,-58L1218,-68Z" fill="#ae8eb0" stroke="#ae8eb0" stroke-width="1.51"/><path d="M1026,484L1131,648L1225,484Z" fill="#edf5ea" stroke="#edf5ea" stroke-width="1.51"/><path d="M1001,54L1181,203L1232,55Z" fill="#c6baca" stroke="#c6baca" stroke-width="1.51"/><path d="M1218,-68L1035,-58L1232,55Z" fill="#b6a1ba" stroke="#b6a1ba" stroke-width="1.51"/><path d="M1035,-58L1001,54L1232,55Z" fill="#beabc4" stroke="#beabc4" stroke-width="1.51"/><path d="M1017,-159L1035,-58L1155,-230Z" fill="#ad8baf" stroke="#ad8baf" stroke-width="1.51"/><path d="M1198,387L1053,411L1225,484Z" fill="#e5e8e3" stroke="#e5e8e3" stroke-width="1.51"/><path d="M1164,1195L1016,1332L1226,1277Z" fill="#7ca87f" stroke="#7ca87f" stroke-width="1.51"/><path d="M1053,411L1026,484L1225,484Z" fill="#eaede9" stroke="#eaede9" stroke-width="1.51"/><path d="M837,-244L1017,-159L1155,-230Z" fill="#a683a8" stroke="#a683a8" stroke-width="1.51"/><path d="M1091,1026L1048,1187L1164,1195Z" fill="#90c092" stroke="#90c092" stroke-width="1.51"/><path d="M1048,1187L1016,1332L1164,1195Z" fill="#83af87" stroke="#83af87" stroke-width="1.51"/><path d="M1001,54L1051,256L1181,203Z" fill="#d1c5d6" stroke="#d1c5d6" stroke-width="1.51"/><path d="M1037,723L1013,808L1195,855Z" fill="#d3edce" stroke="#d3edce" stroke-width="1.51"/><path d="M1051,256L1053,411L1198,387Z" fill="#e4e0e3" stroke="#e4e0e3" stroke-width="1.51"/><path d="M1013,808L1129,971L1195,855Z" fill="#c3e6be" stroke="#c3e6be" stroke-width="1.51"/><path d="M1026,484L897,570L1037,723Z" fill="#f1f6ef" stroke="#f1f6ef" stroke-width="1.51"/><path d="M1013,808L1091,1026L1129,971Z" fill="#b9dfb5" stroke="#b9dfb5" stroke-width="1.51"/><path d="M1026,484L1037,723L1131,648Z" fill="#eaf4e6" stroke="#eaf4e6" stroke-width="1.51"/><path d="M894,1013L871,1116L1048,1187Z" fill="#9fc6a0" stroke="#9fc6a0" stroke-width="1.51"/><path d="M1051,256L930,278L1053,411Z" fill="#e6dce7" stroke="#e6dce7" stroke-width="1.51"/><path d="M894,1013L1048,1187L1091,1026Z" fill="#a1cca0" stroke="#a1cca0" stroke-width="1.51"/><path d="M1013,808L894,1013L1091,1026Z" fill="#bbdeb8" stroke="#bbdeb8" stroke-width="1.51"/><path d="M840,92L930,278L1001,54Z" fill="#d3c0da" stroke="#d3c0da" stroke-width="1.51"/><path d="M897,570L842,656L1037,723Z" fill="#ecf2ea" stroke="#ecf2ea" stroke-width="1.51"/><path d="M897,1322L1016,1332L1048,1187Z" fill="#85a888" stroke="#85a888" stroke-width="1.51"/><path d="M1001,54L930,278L1051,256Z" fill="#d9cadf" stroke="#d9cadf" stroke-width="1.51"/><path d="M868,423L1026,484L1053,411Z" fill="#f1ecf1" stroke="#f1ecf1" stroke-width="1.51"/><path d="M930,278L868,423L1053,411Z" fill="#eee4ef" stroke="#eee4ef" stroke-width="1.51"/><path d="M830,821L894,1013L1013,808Z" fill="#cbe4c8" stroke="#cbe4c8" stroke-width="1.51"/><path d="M871,1116L897,1322L1048,1187Z" fill="#8db492" stroke="#8db492" stroke-width="1.51"/><path d="M1017,-159L864,-7L1035,-58Z" fill="#bc99c1" stroke="#bc99c1" stroke-width="1.51"/><path d="M864,-7L1001,54L1035,-58Z" fill="#c3a8ca" stroke="#c3a8ca" stroke-width="1.51"/><path d="M842,656L1013,808L1037,723Z" fill="#e5f2e0" stroke="#e5f2e0" stroke-width="1.51"/><path d="M842,656L830,821L1013,808Z" fill="#deebda" stroke="#deebda" stroke-width="1.51"/><path d="M868,423L897,570L1026,484Z" fill="#f4f0f4" stroke="#f4f0f4" stroke-width="1.51"/><path d="M785,-194L864,-7L1017,-159Z" fill="#b58bba" stroke="#b58bba" stroke-width="1.51"/><path d="M837,-244L785,-194L1017,-159Z" fill="#a77fab" stroke="#a77fab" stroke-width="1.51"/><path d="M864,-7L840,92L1001,54Z" fill="#c6aecf" stroke="#c6aecf" stroke-width="1.51"/><path d="M561,1261L407,1286L695,1288Z" fill="#758a7c" stroke="#758a7c" stroke-width="1.51"/><path d="M830,821L749,990L894,1013Z" fill="#bcd6b9" stroke="#bcd6b9" stroke-width="1.51"/><path d="M871,1116L768,1152L897,1322Z" fill="#8cb090" stroke="#8cb090" stroke-width="1.51"/><path d="M840,92L735,235L930,278Z" fill="#d8c3de" stroke="#d8c3de" stroke-width="1.51"/><path d="M735,235L785,349L930,278Z" fill="#e1cee4" stroke="#e1cee4" stroke-width="1.51"/><path d="M785,349L868,423L930,278Z" fill="#e9daea" stroke="#e9daea" stroke-width="1.51"/><path d="M749,990L871,1116L894,1013Z" fill="#a7c9a6" stroke="#a7c9a6" stroke-width="1.51"/><path d="M768,1152L695,1288L897,1322Z" fill="#85a288" stroke="#85a288" stroke-width="1.51"/><path d="M868,423L717,544L897,570Z" fill="#f1eaf2" stroke="#f1eaf2" stroke-width="1.51"/><path d="M717,544L842,656L897,570Z" fill="#eeeced" stroke="#eeeced" stroke-width="1.51"/><path d="M785,-194L679,-55L864,-7Z" fill="#b58abb" stroke="#b58abb" stroke-width="1.51"/><path d="M714,714L830,821L842,656Z" fill="#dfe6dc" stroke="#dfe6dc" stroke-width="1.51"/><path d="M743,59L840,92L864,-7Z" fill="#c3a8cd" stroke="#c3a8cd" stroke-width="1.51"/><path d="M785,349L717,544L868,423Z" fill="#eddfed" stroke="#eddfed" stroke-width="1.51"/><path d="M749,990L768,1152L871,1116Z" fill="#9ebf9f" stroke="#9ebf9f" stroke-width="1.51"/><path d="M679,-55L743,59L864,-7Z" fill="#bd9ac5" stroke="#bd9ac5" stroke-width="1.51"/><path d="M99,-172L312,-161L448,-194Z" fill="#824c90" stroke="#824c90" stroke-width="1.51"/><path d="M699,821L749,990L830,821Z" fill="#c8dac3" stroke="#c8dac3" stroke-width="1.51"/><path d="M714,714L699,821L830,821Z" fill="#d5dfd2" stroke="#d5dfd2" stroke-width="1.51"/><path d="M636,-194L785,-194L837,-244Z" fill="#a075a5" stroke="#a075a5" stroke-width="1.51"/><path d="M743,59L735,235L840,92Z" fill="#ccb3d4" stroke="#ccb3d4" stroke-width="1.51"/><path d="M717,544L714,714L842,656Z" fill="#e8e6e6" stroke="#e8e6e6" stroke-width="1.51"/><path d="M636,-194L630,-93L679,-55Z" fill="#aa79b2" stroke="#aa79b2" stroke-width="1.51"/><path d="M634,240L735,235L743,59Z" fill="#cfb6d7" stroke="#cfb6d7" stroke-width="1.51"/><path d="M749,990L627,1137L768,1152Z" fill="#9ab89b" stroke="#9ab89b" stroke-width="1.51"/><path d="M584,392L717,544L785,349Z" fill="#e8d7e9" stroke="#e8d7e9" stroke-width="1.51"/><path d="M735,235L634,240L785,349Z" fill="#dbc5e0" stroke="#dbc5e0" stroke-width="1.51"/><path d="M634,240L584,392L785,349Z" fill="#dec8e2" stroke="#dec8e2" stroke-width="1.51"/><path d="M636,-194L679,-55L785,-194Z" fill="#a979af" stroke="#a979af" stroke-width="1.51"/><path d="M562,129L634,240L743,59Z" fill="#c6aad0" stroke="#c6aad0" stroke-width="1.51"/><path d="M627,1137L695,1288L768,1152Z" fill="#88a58d" stroke="#88a58d" stroke-width="1.51"/><path d="M576,560L714,714L717,544Z" fill="#e5dfe6" stroke="#e5dfe6" stroke-width="1.51"/><path d="M699,821L551,994L749,990Z" fill="#b7cab4" stroke="#b7cab4" stroke-width="1.51"/><path d="M551,994L627,1137L749,990Z" fill="#9eba9f" stroke="#9eba9f" stroke-width="1.51"/><path d="M679,-55L562,129L743,59Z" fill="#bb9bc6" stroke="#bb9bc6" stroke-width="1.51"/><path d="M576,560L575,730L714,714Z" fill="#dddadd" stroke="#dddadd" stroke-width="1.51"/><path d="M584,392L576,560L717,544Z" fill="#e6d7e9" stroke="#e6d7e9" stroke-width="1.51"/><path d="M627,1137L561,1261L695,1288Z" fill="#809a85" stroke="#809a85" stroke-width="1.51"/><path d="M585,791L551,994L699,821Z" fill="#c0cebf" stroke="#c0cebf" stroke-width="1.51"/><path d="M585,791L699,821L714,714Z" fill="#d2d8d0" stroke="#d2d8d0" stroke-width="1.51"/><path d="M575,730L585,791L714,714Z" fill="#d4d6d3" stroke="#d4d6d3" stroke-width="1.51"/><path d="M630,-93L477,-20L679,-55Z" fill="#ac80b6" stroke="#ac80b6" stroke-width="1.51"/><path d="M477,-20L562,129L679,-55Z" fill="#b28dbe" stroke="#b28dbe" stroke-width="1.51"/><path d="M441,248L584,392L634,240Z" fill="#d1b8da" stroke="#d1b8da" stroke-width="1.51"/><path d="M448,-194L630,-93L636,-194Z" fill="#9c6ca6" stroke="#9c6ca6" stroke-width="1.51"/><path d="M551,994L481,1006L627,1137Z" fill="#97b09a" stroke="#97b09a" stroke-width="1.51"/><path d="M562,129L441,248L634,240Z" fill="#c6abd2" stroke="#c6abd2" stroke-width="1.51"/><path d="M448,-194L477,-20L630,-93Z" fill="#a26fad" stroke="#a26fad" stroke-width="1.51"/><path d="M388,1174L561,1261L627,1137Z" fill="#7d9685" stroke="#7d9685" stroke-width="1.51"/><path d="M481,1006L388,1174L627,1137Z" fill="#8aa28f" stroke="#8aa28f" stroke-width="1.51"/><path d="M414,578L380,741L575,730Z" fill="#cec8d2" stroke="#cec8d2" stroke-width="1.51"/><path d="M380,741L383,820L575,730Z" fill="#c3c3c6" stroke="#c3c3c6" stroke-width="1.51"/><path d="M414,578L575,730L576,560Z" fill="#d9d0dc" stroke="#d9d0dc" stroke-width="1.51"/><path d="M441,248L382,362L584,392Z" fill="#cfb5d7" stroke="#cfb5d7" stroke-width="1.51"/><path d="M414,578L576,560L584,392Z" fill="#dfcfe4" stroke="#dfcfe4" stroke-width="1.51"/><path d="M382,362L414,578L584,392Z" fill="#d7c1dd" stroke="#d7c1dd" stroke-width="1.51"/><path d="M481,1006L551,994L585,791Z" fill="#aebeaf" stroke="#aebeaf" stroke-width="1.51"/><path d="M383,820L481,1006L585,791Z" fill="#b6c1b8" stroke="#b6c1b8" stroke-width="1.51"/><path d="M575,730L383,820L585,791Z" fill="#c6c9c8" stroke="#c6c9c8" stroke-width="1.51"/><path d="M477,-20L398,119L562,129Z" fill="#b18fc0" stroke="#b18fc0" stroke-width="1.51"/><path d="M388,1174L407,1286L561,1261Z" fill="#72877b" stroke="#72877b" stroke-width="1.51"/><path d="M398,119L441,248L562,129Z" fill="#bb9cc9" stroke="#bb9cc9" stroke-width="1.51"/><path d="M302,1256L123,1345L407,1286Z" fill="#606b6a" stroke="#606b6a" stroke-width="1.51"/><path d="M298,-33L398,119L477,-20Z" fill="#a47cb3" stroke="#a47cb3" stroke-width="1.51"/><path d="M448,-194L312,-161L477,-20Z" fill="#9661a3" stroke="#9661a3" stroke-width="1.51"/><path d="M312,-161L298,-33L477,-20Z" fill="#9866a6" stroke="#9866a6" stroke-width="1.51"/><path d="M383,820L293,829L481,1006Z" fill="#acb4af" stroke="#acb4af" stroke-width="1.51"/><path d="M293,829L239,1039L481,1006Z" fill="#99a59d" stroke="#99a59d" stroke-width="1.51"/><path d="M239,1039L388,1174L481,1006Z" fill="#86998b" stroke="#86998b" stroke-width="1.51"/><path d="M250,391L228,518L382,362Z" fill="#c6abcf" stroke="#c6abcf" stroke-width="1.51"/><path d="M298,-33L303,99L398,119Z" fill="#a37cb4" stroke="#a37cb4" stroke-width="1.51"/><path d="M382,362L228,518L414,578Z" fill="#ceb8d6" stroke="#ceb8d6" stroke-width="1.51"/><path d="M398,119L329,232L441,248Z" fill="#b899c7" stroke="#b899c7" stroke-width="1.51"/><path d="M329,232L382,362L441,248Z" fill="#c2a4cd" stroke="#c2a4cd" stroke-width="1.51"/><path d="M239,1039L238,1120L388,1174Z" fill="#798a80" stroke="#798a80" stroke-width="1.51"/><path d="M313,739L380,741L414,578Z" fill="#c7becb" stroke="#c7becb" stroke-width="1.51"/><path d="M388,1174L302,1256L407,1286Z" fill="#6c7d76" stroke="#6c7d76" stroke-width="1.51"/><path d="M228,518L313,739L414,578Z" fill="#c9bacf" stroke="#c9bacf" stroke-width="1.51"/><path d="M303,99L329,232L398,119Z" fill="#af8cbe" stroke="#af8cbe" stroke-width="1.51"/><path d="M380,741L313,739L383,820Z" fill="#bcb9bf" stroke="#bcb9bf" stroke-width="1.51"/><path d="M329,232L250,391L382,362Z" fill="#c2a4cc" stroke="#c2a4cc" stroke-width="1.51"/><path d="M313,739L293,829L383,820Z" fill="#b5b4b8" stroke="#b5b4b8" stroke-width="1.51"/><path d="M238,1120L302,1256L388,1174Z" fill="#6f8178" stroke="#6f8178" stroke-width="1.51"/><path d="M25,1324L-129,1342L123,1345Z" fill="#4d4452" stroke="#4d4452" stroke-width="1.51"/><path d="M97,564L79,717L228,518Z" fill="#bca2c1" stroke="#bca2c1" stroke-width="1.51"/><path d="M137,982L239,1039L293,829Z" fill="#939996" stroke="#939996" stroke-width="1.51"/><path d="M139,865L137,982L293,829Z" fill="#9c9c9f" stroke="#9c9c9f" stroke-width="1.51"/><path d="M298,-33L171,49L303,99Z" fill="#9a70ab" stroke="#9a70ab" stroke-width="1.51"/><path d="M138,-83L298,-33L312,-161Z" fill="#8c559b" stroke="#8c559b" stroke-width="1.51"/><path d="M228,518L79,717L313,739Z" fill="#bcabc1" stroke="#bcabc1" stroke-width="1.51"/><path d="M303,99L187,212L329,232Z" fill="#ad89bc" stroke="#ad89bc" stroke-width="1.51"/><path d="M187,212L250,391L329,232Z" fill="#b695c3" stroke="#b695c3" stroke-width="1.51"/><path d="M139,865L293,829L313,739Z" fill="#acaab0" stroke="#acaab0" stroke-width="1.51"/><path d="M79,717L139,865L313,739Z" fill="#ada2b0" stroke="#ada2b0" stroke-width="1.51"/><path d="M99,-172L138,-83L312,-161Z" fill="#81448e" stroke="#81448e" stroke-width="1.51"/><path d="M238,1120L98,1140L302,1256Z" fill="#6a7873" stroke="#6a7873" stroke-width="1.51"/><path d="M98,1140L123,1345L302,1256Z" fill="#5f6767" stroke="#5f6767" stroke-width="1.51"/><path d="M171,49L187,212L303,99Z" fill="#a179b1" stroke="#a179b1" stroke-width="1.51"/><path d="M187,212L115,337L250,391Z" fill="#b590c0" stroke="#b590c0" stroke-width="1.51"/><path d="M138,-83L171,49L298,-33Z" fill="#905ea0" stroke="#905ea0" stroke-width="1.51"/><path d="M115,337L228,518L250,391Z" fill="#bf9fc8" stroke="#bf9fc8" stroke-width="1.51"/><path d="M115,337L97,564L228,518Z" fill="#bf9ec6" stroke="#bf9ec6" stroke-width="1.51"/><path d="M98,1140L238,1120L239,1039Z" fill="#75817b" stroke="#75817b" stroke-width="1.51"/><path d="M137,982L98,1140L239,1039Z" fill="#7a837f" stroke="#7a837f" stroke-width="1.51"/><path d="M-19,430L97,564L115,337Z" fill="#b88fbd" stroke="#b88fbd" stroke-width="1.51"/><path d="M98,1140L25,1324L123,1345Z" fill="#58575e" stroke="#58575e" stroke-width="1.51"/><path d="M-71,89L30,251L171,49Z" fill="#9662a3" stroke="#9662a3" stroke-width="1.51"/><path d="M171,49L30,251L187,212Z" fill="#a174af" stroke="#a174af" stroke-width="1.51"/><path d="M30,251L115,337L187,212Z" fill="#ab80b6" stroke="#ab80b6" stroke-width="1.51"/><path d="M138,-83L-18,-108L171,49Z" fill="#864993" stroke="#864993" stroke-width="1.51"/><path d="M-18,-108L-71,89L171,49Z" fill="#864b95" stroke="#864b95" stroke-width="1.51"/><path d="M-18,1165L25,1324L98,1140Z" fill="#5c5c61" stroke="#5c5c61" stroke-width="1.51"/><path d="M-42,1010L98,1140L137,982Z" fill="#777979" stroke="#777979" stroke-width="1.51"/><path d="M99,-172L-18,-108L138,-83Z" fill="#7c3689" stroke="#7c3689" stroke-width="1.51"/><path d="M79,717L-46,800L139,865Z" fill="#a391a3" stroke="#a391a3" stroke-width="1.51"/><path d="M-42,1010L137,982L139,865Z" fill="#8a858a" stroke="#8a858a" stroke-width="1.51"/><path d="M-46,800L-42,1010L139,865Z" fill="#928591" stroke="#928591" stroke-width="1.51"/><path d="M-13,581L79,717L97,564Z" fill="#b596b8" stroke="#b596b8" stroke-width="1.51"/><path d="M-19,430L-13,581L97,564Z" fill="#b991be" stroke="#b991be" stroke-width="1.51"/><path d="M-42,1010L-18,1165L98,1140Z" fill="#6b696d" stroke="#6b696d" stroke-width="1.51"/><path d="M30,251L-19,430L115,337Z" fill="#ae80b6" stroke="#ae80b6" stroke-width="1.51"/><path d="M-13,581L-67,653L79,717Z" fill="#af8eb1" stroke="#af8eb1" stroke-width="1.51"/><path d="M-19,-185L-18,-108L99,-172Z" fill="#71297e" stroke="#71297e" stroke-width="1.51"/><path d="M-67,653L-46,800L79,717Z" fill="#a78ba7" stroke="#a78ba7" stroke-width="1.51"/><path d="M-46,800L-184,874L-42,1010Z" fill="#857983" stroke="#857983" stroke-width="1.51"/><path d="M-18,1165L-139,1193L25,1324Z" fill="#535157" stroke="#535157" stroke-width="1.51"/><path d="M-139,1193L-129,1342L25,1324Z" fill="#49444e" stroke="#49444e" stroke-width="1.51"/><path d="M-71,89L-178,192L30,251Z" fill="#905d9c" stroke="#905d9c" stroke-width="1.51"/><path d="M-178,192L-116,360L30,251Z" fill="#9968a2" stroke="#9968a2" stroke-width="1.51"/><path d="M-116,360L-19,430L30,251Z" fill="#a878af" stroke="#a878af" stroke-width="1.51"/><path d="M-184,874L-165,1007L-42,1010Z" fill="#746e72" stroke="#746e72" stroke-width="1.51"/><path d="M-165,1007L-139,1193L-42,1010Z" fill="#626263" stroke="#626263" stroke-width="1.51"/><path d="M-116,360L-212,531L-19,430Z" fill="#a47ba9" stroke="#a47ba9" stroke-width="1.51"/><path d="M-198,-58L-71,89L-18,-108Z" fill="#753883" stroke="#753883" stroke-width="1.51"/><path d="M-19,-185L-197,-202L-18,-108Z" fill="#651e71" stroke="#651e71" stroke-width="1.51"/><path d="M-42,1010L-139,1193L-18,1165Z" fill="#605f61" stroke="#605f61" stroke-width="1.51"/><path d="M-170,646L-67,653L-13,581Z" fill="#a787a9" stroke="#a787a9" stroke-width="1.51"/><path d="M-212,531L-170,646L-13,581Z" fill="#a483a7" stroke="#a483a7" stroke-width="1.51"/><path d="M-19,430L-212,531L-13,581Z" fill="#ad85b0" stroke="#ad85b0" stroke-width="1.51"/><path d="M-197,-202L-198,-58L-18,-108Z" fill="#651e72" stroke="#651e72" stroke-width="1.51"/><path d="M-67,653L-170,646L-46,800Z" fill="#a084a0" stroke="#a084a0" stroke-width="1.51"/><path d="M-170,646L-184,874L-46,800Z" fill="#917d91" stroke="#917d91" stroke-width="1.51"/><path d="M-204,137L-178,192L-71,89Z" fill="#81508e" stroke="#81508e" stroke-width="1.51"/><path d="M-198,-58L-204,137L-71,89Z" fill="#774385" stroke="#774385" stroke-width="1.51"/><path d="M-165,1007L-184,874L-129,1342Z" fill="#5d5e5d" stroke="#5d5e5d" stroke-width="1.51"/><path d="M-178,192L-212,531L-116,360Z" fill="#996e9e" stroke="#996e9e" stroke-width="1.51"/><path d="M-139,1193L-165,1007L-129,1342Z" fill="#4e4f51" stroke="#4e4f51" stroke-width="1.51"/><path d="M-204,137L-212,531L-178,192Z" fill="#8d6195" stroke="#8d6195" stroke-width="1.51"/><path d="M-212,531L-184,874L-170,646Z" fill="#967c96" stroke="#967c96" stroke-width="1.51"/><path d="M-204,137L-198,-58L-197,-202Z" fill="#682c74" stroke="#682c74" stroke-width="1.51"/></svg>