<svg xmlns="http://www.w3.org/2000/svg" width="1920" height="1080"><path d="M-197,-202L-19,-185L448,-194Z" fill="#f9fcc5" stroke="#f9fcc5" stroke-width="1.51"/><path d="M-197,-202L448,-194L837,-244Z" fill="#ebf7bc" stroke="#ebf7bc" stroke-width="1.51"/><path d="M897,1322L123,1345L1016,1332Z" fill="#59905a" stroke="#59905a" stroke-width="1.51"/><path d="M837,-244L1155,-230L1369,-265Z" fill="#b0dba2" stroke="#b0dba2" stroke-width="1.51"/><path d="M1016,1332L123,1345L1668,1345Z" fill="#428651" stroke="#428651" stroke-width="1.51"/><path d="M1451,1329L1016,1332L1668,1345Z" fill="#1c713f" stroke="#1c713f" stroke-width="1.51"/><path d="M1654,-192L1821,-173L1911,-185Z" fill="#8bb581" stroke="#8bb581" stroke-width="1.51"/><path d="M1654,-192L1911,-185L2060,-232Z" fill="#88b081" stroke="#88b081" stroke-width="1.51"/><path d="M1516,-223L1654,-192L2060,-232Z" fill="#8eb785" stroke="#8eb785" stroke-width="1.51"/><path d="M1369,-265L1516,-223L2060,-232Z" fill="#92bc8a" stroke="#92bc8a" stroke-width="1.51"/><path d="M1966,836L2063,873L2076,642Z" fill="#207a43" stroke="#207a43" stroke-width="1.51"/><path d="M1952,652L1966,836L2076,642Z" fill="#2a8349" stroke="#2a8349" stroke-width="1.51"/><path d="M2070,987L1968,1181L2098,1144Z" fill="#056034" stroke="#056034" stroke-width="1.51"/><path d="M2076,642L2063,873L2098,1144Z" fill="#186e3c" stroke="#186e3c" stroke-width="1.51"/><path d="M2063,873L2070,987L2098,1144Z" fill="#0e6536" stroke="#0e6536" stroke-width="1.51"/><path d="M2047,56L1886,188L2100,282Z" fill="#6e9e64" stroke="#6e9e64" stroke-width="1.51"/><path d="M2079,-104L2047,56L2100,282Z" fill="#759e67" stroke="#759e67" stroke-width="1.51"/><path d="M2100,282L1956,361L2118,381Z" fill="#5b945b" stroke="#5b945b" stroke-width="1.51"/><path d="M1956,361L2053,487L2118,381Z" fill="#539158" stroke="#539158" stroke-width="1.51"/><path d="M2053,487L2076,642L2118,381Z" fill="#468a53" stroke="#468a53" stroke-width="1.51"/><path d="M2076,642L2098,1144L2118,381Z" fill="#267b45" stroke="#267b45" stroke-width="1.51"/><path d="M2079,-104L2100,282L2118,381Z" fill="#6b9862" stroke="#6b9862" stroke-width="1.51"/><path d="M2098,1144L1968,1181L2118,1295Z" fill="#005831" stroke="#005831" stroke-width="1.51"/><path d="M1968,1181L1940,1323L2118,1295Z" fill="#005530" stroke="#005530" stroke-width="1.51"/><path d="M2118,381L2098,1144L2118,1295Z" fill="#136838" stroke="#136838" stroke-width="1.51"/><path d="M1907,1007L1968,1181L2070,987Z" fill="#0a6737" stroke="#0a6737" stroke-width="1.51"/><path d="M2053,487L1915,557L2076,642Z" fill="#3f8b52" stroke="#3f8b52" stroke-width="1.51"/><path d="M1915,557L1952,652L2076,642Z" fill="#38894e" stroke="#38894e" stroke-width="1.51"/><path d="M1909,-80L2047,56L2079,-104Z" fill="#80a56f" stroke="#80a56f" stroke-width="1.51"/><path d="M1886,188L1956,361L2100,282Z" fill="#649c60" stroke="#649c60" stroke-width="1.51"/><path d="M1909,-80L1935,50L2047,56Z" fill="#7da76e" stroke="#7da76e" stroke-width="1.51"/><path d="M1935,50L1886,188L2047,56Z" fill="#77a569" stroke="#77a569" stroke-width="1.51"/><path d="M2063,873L1966,836L2070,987Z" fill="#17703c" stroke="#17703c" stroke-width="1.51"/><path d="M1966,836L1907,1007L2070,987Z" fill="#14703a" stroke="#14703a" stroke-width="1.51"/><path d="M2060,-232L1911,-185L2079,-104Z" fill="#84a67a" stroke="#84a67a" stroke-width="1.51"/><path d="M1911,-185L1909,-80L2079,-104Z" fill="#84a976" stroke="#84a976" stroke-width="1.51"/><path d="M1956,361L1915,557L2053,487Z" fill="#4d9257" stroke="#4d9257" stroke-width="1.51"/><path d="M695,1288L123,1345L897,1322Z" fill="#62955d" stroke="#62955d" stroke-width="1.51"/><path d="M1830,1272L1668,1345L1940,1323Z" fill="#035d32" stroke="#035d32" stroke-width="1.51"/><path d="M1752,659L1839,888L1952,652Z" fill="#288a4b" stroke="#288a4b" stroke-width="1.51"/><path d="M1886,188L1729,274L1956,361Z" fill="#68a364" stroke="#68a364" stroke-width="1.51"/><path d="M1794,422L1915,557L1956,361Z" fill="#52995b" stroke="#52995b" stroke-width="1.51"/><path d="M1952,652L1839,888L1966,836Z" fill="#218145" stroke="#218145" stroke-width="1.51"/><path d="M1839,888L1907,1007L1966,836Z" fill="#17773e" stroke="#17773e" stroke-width="1.51"/><path d="M1907,1007L1835,1137L1968,1181Z" fill="#056937" stroke="#056937" stroke-width="1.51"/><path d="M1830,1272L1940,1323L1968,1181Z" fill="#005c32" stroke="#005c32" stroke-width="1.51"/><path d="M1835,1137L1830,1272L1968,1181Z" fill="#006335" stroke="#006335" stroke-width="1.51"/><path d="M1729,274L1794,422L1956,361Z" fill="#60a260" stroke="#60a260" stroke-width="1.51"/><path d="M1915,557L1752,659L1952,652Z" fill="#398f51" stroke="#398f51" stroke-width="1.51"/><path d="M1794,422L1776,529L1915,557Z" fill="#4b9959" stroke="#4b9959" stroke-width="1.51"/><path d="M1746,43L1886,188L1935,50Z" fill="#7aab6c" stroke="#7aab6c" stroke-width="1.51"/><path d="M1909,-80L1772,-42L1935,50Z" fill="#82ae71" stroke="#82ae71" stroke-width="1.51"/><path d="M1821,-173L1909,-80L1911,-185Z" fill="#87b07b" stroke="#87b07b" stroke-width="1.51"/><path d="M1772,-42L1746,43L1935,50Z" fill="#81af71" stroke="#81af71" stroke-width="1.51"/><path d="M1839,888L1762,989L1907,1007Z" fill="#15763d" stroke="#15763d" stroke-width="1.51"/><path d="M1762,989L1835,1137L1907,1007Z" fill="#0d703b" stroke="#0d703b" stroke-width="1.51"/><path d="M1776,529L1752,659L1915,557Z" fill="#419655" stroke="#419655" stroke-width="1.51"/><path d="M1821,-173L1772,-42L1909,-80Z" fill="#88b177" stroke="#88b177" stroke-width="1.51"/><path d="M407,1286L123,1345L695,1288Z" fill="#6e9b63" stroke="#6e9b63" stroke-width="1.51"/><path d="M1746,43L1729,274L1886,188Z" fill="#76ac6a" stroke="#76ac6a" stroke-width="1.51"/><path d="M1664,231L1729,274L1746,43Z" fill="#77af6b" stroke="#77af6b" stroke-width="1.51"/><path d="M1582,1190L1668,1345L1830,1272Z" fill="#0b6636" stroke="#0b6636" stroke-width="1.51"/><path d="M1582,1190L1830,1272L1835,1137Z" fill="#086937" stroke="#086937" stroke-width="1.51"/><path d="M1591,892L1762,989L1839,888Z" fill="#1d7e41" stroke="#1d7e41" stroke-width="1.51"/><path d="M1752,659L1591,892L1839,888Z" fill="#268948" stroke="#268948" stroke-width="1.51"/><path d="M1762,989L1582,1190L1835,1137Z" fill="#0f713b" stroke="#0f713b" stroke-width="1.51"/><path d="M1654,-192L1772,-42L1821,-173Z" fill="#8cb67d" stroke="#8cb67d" stroke-width="1.51"/><path d="M1729,274L1687,411L1794,422Z" fill="#61a562" stroke="#61a562" stroke-width="1.51"/><path d="M1601,655L1591,892L1752,659Z" fill="#30944e" stroke="#30944e" stroke-width="1.51"/><path d="M1591,892L1601,952L1762,989Z" fill="#1f8041" stroke="#1f8041" stroke-width="1.51"/><path d="M1654,-192L1633,-69L1772,-42Z" fill="#8eb97b" stroke="#8eb97b" stroke-width="1.51"/><path d="M1687,411L1776,529L1794,422Z" fill="#55a05d" stroke="#55a05d" stroke-width="1.51"/><path d="M1593,44L1664,231L1746,43Z" fill="#81b470" stroke="#81b470" stroke-width="1.51"/><path d="M1601,952L1582,1190L1762,989Z" fill="#19793f" stroke="#19793f" stroke-width="1.51"/><path d="M1613,535L1752,659L1776,529Z" fill="#469b58" stroke="#469b58" stroke-width="1.51"/><path d="M1687,411L1613,535L1776,529Z" fill="#52a15d" stroke="#52a15d" stroke-width="1.51"/><path d="M1633,-69L1746,43L1772,-42Z" fill="#88b675" stroke="#88b675" stroke-width="1.51"/><path d="M1613,535L1601,655L1752,659Z" fill="#429b56" stroke="#429b56" stroke-width="1.51"/><path d="M1633,-69L1593,44L1746,43Z" fill="#89b875" stroke="#89b875" stroke-width="1.51"/><path d="M1506,788L1591,892L1601,655Z" fill="#2f944e" stroke="#2f944e" stroke-width="1.51"/><path d="M1664,231L1687,411L1729,274Z" fill="#6aaa66" stroke="#6aaa66" stroke-width="1.51"/><path d="M1226,1277L1016,1332L1451,1329Z" fill="#267c46" stroke="#267c46" stroke-width="1.51"/><path d="M1482,1158L1582,1190L1601,952Z" fill="#197a3e" stroke="#197a3e" stroke-width="1.51"/><path d="M1593,44L1494,184L1664,231Z" fill="#80b76f" stroke="#80b76f" stroke-width="1.51"/><path d="M1664,231L1528,399L1687,411Z" fill="#68ac65" stroke="#68ac65" stroke-width="1.51"/><path d="M1528,399L1613,535L1687,411Z" fill="#5ba761" stroke="#5ba761" stroke-width="1.51"/><path d="M1494,184L1528,399L1664,231Z" fill="#73b36a" stroke="#73b36a" stroke-width="1.51"/><path d="M1582,1190L1451,1329L1668,1345Z" fill="#126a38" stroke="#126a38" stroke-width="1.51"/><path d="M1516,-223L1633,-69L1654,-192Z" fill="#93be83" stroke="#93be83" stroke-width="1.51"/><path d="M1468,951L1482,1158L1601,952Z" fill="#218243" stroke="#218243" stroke-width="1.51"/><path d="M1500,636L1601,655L1613,535Z" fill="#46a059" stroke="#46a059" stroke-width="1.51"/><path d="M1458,-12L1593,44L1633,-69Z" fill="#8dbd78" stroke="#8dbd78" stroke-width="1.51"/><path d="M1516,-223L1458,-12L1633,-69Z" fill="#94c17f" stroke="#94c17f" stroke-width="1.51"/><path d="M1458,-12L1482,42L1593,44Z" fill="#8dbf79" stroke="#8dbf79" stroke-width="1.51"/><path d="M1482,42L1494,184L1593,44Z" fill="#88bd75" stroke="#88bd75" stroke-width="1.51"/><path d="M1500,636L1506,788L1601,655Z" fill="#3c9c54" stroke="#3c9c54" stroke-width="1.51"/><path d="M1528,399L1464,551L1613,535Z" fill="#58a961" stroke="#58a961" stroke-width="1.51"/><path d="M1464,551L1500,636L1613,535Z" fill="#4da55d" stroke="#4da55d" stroke-width="1.51"/><path d="M1482,1158L1451,1329L1582,1190Z" fill="#17733d" stroke="#17733d" stroke-width="1.51"/><path d="M1591,892L1468,951L1601,952Z" fill="#258645" stroke="#258645" stroke-width="1.51"/><path d="M1494,184L1381,271L1528,399Z" fill="#76b96e" stroke="#76b96e" stroke-width="1.51"/><path d="M1506,788L1468,951L1591,892Z" fill="#2b8d49" stroke="#2b8d49" stroke-width="1.51"/><path d="M-19,-185L99,-172L448,-194Z" fill="#f3fbc0" stroke="#f3fbc0" stroke-width="1.51"/><path d="M1468,951L1318,994L1482,1158Z" fill="#258746" stroke="#258746" stroke-width="1.51"/><path d="M1500,636L1348,716L1506,788Z" fill="#3da056" stroke="#3da056" stroke-width="1.51"/><path d="M1350,786L1468,951L1506,788Z" fill="#31964f" stroke="#31964f" stroke-width="1.51"/><path d="M1352,-26L1458,-12L1516,-223Z" fill="#98c782" stroke="#98c782" stroke-width="1.51"/><path d="M1369,-265L1352,-26L1516,-223Z" fill="#9cca8c" stroke="#9cca8c" stroke-width="1.51"/><path d="M1349,444L1464,551L1528,399Z" fill="#60b066" stroke="#60b066" stroke-width="1.51"/><path d="M1381,271L1349,444L1528,399Z" fill="#6eb76c" stroke="#6eb76c" stroke-width="1.51"/><path d="M1345,1166L1451,1329L1482,1158Z" fill="#1b7940" stroke="#1b7940" stroke-width="1.51"/><path d="M1318,994L1345,1166L1482,1158Z" fill="#228546" stroke="#228546" stroke-width="1.51"/><path d="M1482,42L1353,63L1494,184Z" fill="#8bc278" stroke="#8bc278" stroke-width="1.51"/><path d="M1348,716L1350,786L1506,788Z" fill="#39a056" stroke="#39a056" stroke-width="1.51"/><path d="M1280,1263L1226,1277L1451,1329Z" fill="#1f7942" stroke="#1f7942" stroke-width="1.51"/><path d="M1464,551L1318,591L1500,636Z" fill="#4faa60" stroke="#4faa60" stroke-width="1.51"/><path d="M1318,591L1348,716L1500,636Z" fill="#49a95e" stroke="#49a95e" stroke-width="1.51"/><path d="M1353,63L1381,271L1494,184Z" fill="#85c176" stroke="#85c176" stroke-width="1.51"/><path d="M1350,786L1318,994L1468,951Z" fill="#2f934d" stroke="#2f934d" stroke-width="1.51"/><path d="M1458,-12L1353,63L1482,42Z" fill="#91c57c" stroke="#91c57c" stroke-width="1.51"/><path d="M1345,1166L1280,1263L1451,1329Z" fill="#1e7a42" stroke="#1e7a42" stroke-width="1.51"/><path d="M1352,-26L1353,63L1458,-12Z" fill="#94c880" stroke="#94c880" stroke-width="1.51"/><path d="M1349,444L1318,591L1464,551Z" fill="#5ab166" stroke="#5ab166" stroke-width="1.51"/><path d="M1225,484L1318,591L1349,444Z" fill="#61b86b" stroke="#61b86b" stroke-width="1.51"/><path d="M1195,855L1318,994L1350,786Z" fill="#369c53" stroke="#369c53" stroke-width="1.51"/><path d="M1232,55L1181,203L1353,63Z" fill="#94ce80" stroke="#94ce80" stroke-width="1.51"/><path d="M1218,-68L1352,-26L1369,-265Z" fill="#a0d18c" stroke="#a0d18c" stroke-width="1.51"/><path d="M1155,-230L1218,-68L1369,-265Z" fill="#a5d596" stroke="#a5d596" stroke-width="1.51"/><path d="M1198,387L1349,444L1381,271Z" fill="#74be72" stroke="#74be72" stroke-width="1.51"/><path d="M1181,203L1198,387L1381,271Z" fill="#80c778" stroke="#80c778" stroke-width="1.51"/><path d="M1353,63L1181,203L1381,271Z" fill="#8ac87b" stroke="#8ac87b" stroke-width="1.51"/><path d="M448,-194L636,-194L837,-244Z" fill="#d6eeb2" stroke="#d6eeb2" stroke-width="1.51"/><path d="M1318,994L1164,1195L1345,1166Z" fill="#278a4a" stroke="#278a4a" stroke-width="1.51"/><path d="M1318,591L1131,648L1348,716Z" fill="#4fb063" stroke="#4fb063" stroke-width="1.51"/><path d="M1198,387L1225,484L1349,444Z" fill="#6dbe70" stroke="#6dbe70" stroke-width="1.51"/><path d="M1348,716L1195,855L1350,786Z" fill="#3ca459" stroke="#3ca459" stroke-width="1.51"/><path d="M1218,-68L1232,55L1352,-26Z" fill="#9cd186" stroke="#9cd186" stroke-width="1.51"/><path d="M1352,-26L1232,55L1353,63Z" fill="#97cd81" stroke="#97cd81" stroke-width="1.51"/><path d="M1131,648L1195,855L1348,716Z" fill="#46ad5f" stroke="#46ad5f" stroke-width="1.51"/><path d="M1164,1195L1280,1263L1345,1166Z" fill="#248448" stroke="#248448" stroke-width="1.51"/><path d="M1091,1026L1164,1195L1318,994Z" fill="#33924f" stroke="#33924f" stroke-width="1.51"/><path d="M1129,971L1091,1026L1318,994Z" fill="#389852" stroke="#389852" stroke-width="1.51"/><path d="M1195,855L1129,971L1318,994Z" fill="#389a53" stroke="#389a53" stroke-width="1.51"/><path d="M1225,484L1131,648L1318,591Z" fill="#5db76a" stroke="#5db76a" stroke-width="1.51"/><path d="M1164,1195L1226,1277L1280,1263Z" fill="#288248" stroke="#288248" stroke-width="1.51"/><path d="M1131,648L1037,723L1195,855Z" fill="#50b264" stroke="#50b264" stroke-width="1.51"/><path d="M1181,203L1051,256L1198,387Z" fill="#8acc7d" stroke="#8acc7d" stroke-width="1.51"/><path d="M1155,-230L1035,-58L1218,-68Z" fill="#acda94" stroke="#acda94" stroke-width="1.51"/><path d="M1026,484L1131,648L1225,484Z" fill="#6abe71" stroke="#6abe71" stroke-width="1.51"/><path d="M1001,54L1181,203L1232,55Z" fill="#9dd486" stroke="#9dd486" stroke-width="1.51"/><path d="M1218,-68L1035,-58L1232,55Z" fill="#a5d78c" stroke="#a5d78c" stroke-width="1.51"/><path d="M1035,-58L1001,54L1232,55Z" fill="#a8d88d" stroke="#a8d88d" stroke-width="1.51"/><path d="M1017,-159L1035,-58L1155,-230Z" fill="#b2dd9b" stroke="#b2dd9b" stroke-width="1.51"/><path d="M1198,387L1053,411L1225,484Z" fill="#76c475" stroke="#76c475" stroke-width="1.51"/><path d="M1164,1195L1016,1332L1226,1277Z" fill="#31844c" stroke="#31844c" stroke-width="1.51"/><path d="M1053,411L1026,484L1225,484Z" fill="#77c476" stroke="#77c476" stroke-width="1.51"/><path d="M837,-244L1017,-159L1155,-230Z" fill="#b8e0a4" stroke="#b8e0a4" stroke-width="1.51"/><path d="M1091,1026L1048,1187L1164,1195Z" fill="#399151" stroke="#399151" stroke-width="1.51"/><path d="M1048,1187L1016,1332L1164,1195Z" fill="#37894f" stroke="#37894f" stroke-width="1.51"/><path d="M1001,54L1051,256L1181,203Z" fill="#9cd486" stroke="#9cd486" stroke-width="1.51"/><path d="M1037,723L1013,808L1195,855Z" fill="#4fae62" stroke="#4fae62" stroke-width="1.51"/><path d="M1051,256L1053,411L1198,387Z" fill="#86ca7c" stroke="#86ca7c" stroke-width="1.51"/><path d="M1013,808L1129,971L1195,855Z" fill="#47a55b" stroke="#47a55b" stroke-width="1.51"/><path d="M1026,484L897,570L1037,723Z" fill="#70c174" stroke="#70c174" stroke-width="1.51"/><path d="M1013,808L1091,1026L1129,971Z" fill="#47a159" stroke="#47a159" stroke-width="1.51"/><path d="M1026,484L1037,723L1131,648Z" fill="#65bc6e" stroke="#65bc6e" stroke-width="1.51"/><path d="M894,1013L871,1116L1048,1187Z" fill="#4a9a59" stroke="#4a9a59" stroke-width="1.51"/><path d="M1051,256L930,278L1053,411Z" fill="#91d082" stroke="#91d082" stroke-width="1.51"/><path d="M894,1013L1048,1187L1091,1026Z" fill="#449957" stroke="#449957" stroke-width="1.51"/><path d="M1013,808L894,1013L1091,1026Z" fill="#4da35b" stroke="#4da35b" stroke-width="1.51"/><path d="M840,92L930,278L1001,54Z" fill="#abdc8f" stroke="#abdc8f" stroke-width="1.51"/><path d="M897,570L842,656L1037,723Z" fill="#6dc072" stroke="#6dc072" stroke-width="1.51"/><path d="M897,1322L1016,1332L1048,1187Z" fill="#3e8951" stroke="#3e8951" stroke-width="1.51"/><path d="M1001,54L930,278L1051,256Z" fill="#9fd789" stroke="#9fd789" stroke-width="1.51"/><path d="M868,423L1026,484L1053,411Z" fill="#83cb7d" stroke="#83cb7d" stroke-width="1.51"/><path d="M930,278L868,423L1053,411Z" fill="#8fd082" stroke="#8fd082" stroke-width="1.51"/><path d="M830,821L894,1013L1013,808Z" fill="#5aad64" stroke="#5aad64" stroke-width="1.51"/><path d="M871,1116L897,1322L1048,1187Z" fill="#459256" stroke="#459256" stroke-width="1.51"/><path d="M1017,-159L864,-7L1035,-58Z" fill="#b7e198" stroke="#b7e198" stroke-width="1.51"/><path d="M864,-7L1001,54L1035,-58Z" fill="#b3df94" stroke="#b3df94" stroke-width="1.51"/><path d="M842,656L1013,808L1037,723Z" fill="#60b96c" stroke="#60b96c" stroke-width="1.51"/><path d="M842,656L830,821L1013,808Z" fill="#64b96c" stroke="#64b96c" stroke-width="1.51"/><path d="M868,423L897,570L1026,484Z" fill="#81ca7c" stroke="#81ca7c" stroke-width="1.51"/><path d="M785,-194L864,-7L1017,-159Z" fill="#c0e49f" stroke="#c0e49f" stroke-width="1.51"/><path d="M837,-244L785,-194L1017,-159Z" fill="#c2e5a8" stroke="#c2e5a8" stroke-width="1.51"/><path d="M864,-7L840,92L1001,54Z" fill="#b5e094" stroke="#b5e094" stroke-width="1.51"/><path d="M561,1261L407,1286L695,1288Z" fill="#659960" stroke="#659960" stroke-width="1.51"/><path d="M830,821L749,990L894,1013Z" fill="#5eaa62" stroke="#5eaa62" stroke-width="1.51"/><path d="M871,1116L768,1152L897,1322Z" fill="#4f9659" stroke="#4f9659" stroke-width="1.51"/><path d="M840,92L735,235L930,278Z" fill="#acdd8e" stroke="#acdd8e" stroke-width="1.51"/><path d="M735,235L785,349L930,278Z" fill="#a5d98b" stroke="#a5d98b" stroke-width="1.51"/><path d="M785,349L868,423L930,278Z" fill="#9ad586" stroke="#9ad586" stroke-width="1.51"/><path d="M749,990L871,1116L894,1013Z" fill="#57a35f" stroke="#57a35f" stroke-width="1.51"/><path d="M768,1152L695,1288L897,1322Z" fill="#529359" stroke="#529359" stroke-width="1.51"/><path d="M868,423L717,544L897,570Z" fill="#88cd7f" stroke="#88cd7f" stroke-width="1.51"/><path d="M717,544L842,656L897,570Z" fill="#7fc87a" stroke="#7fc87a" stroke-width="1.51"/><path d="M785,-194L679,-55L864,-7Z" fill="#c8e8a0" stroke="#c8e8a0" stroke-width="1.51"/><path d="M714,714L830,821L842,656Z" fill="#70c071" stroke="#70c071" stroke-width="1.51"/><path d="M743,59L840,92L864,-7Z" fill="#bce397" stroke="#bce397" stroke-width="1.51"/><path d="M785,349L717,544L868,423Z" fill="#95d284" stroke="#95d284" stroke-width="1.51"/><path d="M749,990L768,1152L871,1116Z" fill="#59a15e" stroke="#59a15e" stroke-width="1.51"/><path d="M679,-55L743,59L864,-7Z" fill="#c4e69c" stroke="#c4e69c" stroke-width="1.51"/><path d="M99,-172L312,-161L448,-194Z" fill="#eef8bb" stroke="#eef8bb" stroke-width="1.51"/><path d="M699,821L749,990L830,821Z" fill="#69b369" stroke="#69b369" stroke-width="1.51"/><path d="M714,714L699,821L830,821Z" fill="#70bc70" stroke="#70bc70" stroke-width="1.51"/><path d="M636,-194L785,-194L837,-244Z" fill="#cdeaae" stroke="#cdeaae" stroke-width="1.51"/><path d="M743,59L735,235L840,92Z" fill="#bae294" stroke="#bae294" stroke-width="1.51"/><path d="M717,544L714,714L842,656Z" fill="#7ec879" stroke="#7ec879" stroke-width="1.51"/><path d="M636,-194L630,-93L679,-55Z" fill="#d4eea8" stroke="#d4eea8" stroke-width="1.51"/><path d="M634,240L735,235L743,59Z" fill="#bae394" stroke="#bae394" stroke-width="1.51"/><path d="M749,990L627,1137L768,1152Z" fill="#60a461" stroke="#60a461" stroke-width="1.51"/><path d="M584,392L717,544L785,349Z" fill="#9ed687" stroke="#9ed687" stroke-width="1.51"/><path d="M735,235L634,240L785,349Z" fill="#afde8f" stroke="#afde8f" stroke-width="1.51"/><path d="M634,240L584,392L785,349Z" fill="#addd8e" stroke="#addd8e" stroke-width="1.51"/><path d="M636,-194L679,-55L785,-194Z" fill="#d0eca9" stroke="#d0eca9" stroke-width="1.51"/><path d="M562,129L634,240L743,59Z" fill="#c3e798" stroke="#c3e798" stroke-width="1.51"/><path d="M627,1137L695,1288L768,1152Z" fill="#5d9c5e" stroke="#5d9c5e" stroke-width="1.51"/><path d="M576,560L714,714L717,544Z" fill="#8acd7e" stroke="#8acd7e" stroke-width="1.51"/><path d="M699,821L551,994L749,990Z" fill="#6db168" stroke="#6db168" stroke-width="1.51"/><path d="M551,994L627,1137L749,990Z" fill="#69aa65" stroke="#69aa65" stroke-width="1.51"/><path d="M679,-55L562,129L743,59Z" fill="#c9e99d" stroke="#c9e99d" stroke-width="1.51"/><path d="M576,560L575,730L714,714Z" fill="#87ca7c" stroke="#87ca7c" stroke-width="1.51"/><path d="M584,392L576,560L717,544Z" fill="#9bd586" stroke="#9bd586" stroke-width="1.51"/><path d="M627,1137L561,1261L695,1288Z" fill="#619b5f" stroke="#619b5f" stroke-width="1.51"/><path d="M585,791L551,994L699,821Z" fill="#76ba6e" stroke="#76ba6e" stroke-width="1.51"/><path d="M585,791L699,821L714,714Z" fill="#78c173" stroke="#78c173" stroke-width="1.51"/><path d="M575,730L585,791L714,714Z" fill="#7dc576" stroke="#7dc576" stroke-width="1.51"/><path d="M630,-93L477,-20L679,-55Z" fill="#d6eea4" stroke="#d6eea4" stroke-width="1.51"/><path d="M477,-20L562,129L679,-55Z" fill="#d2eda1" stroke="#d2eda1" stroke-width="1.51"/><path d="M441,248L584,392L634,240Z" fill="#bae393" stroke="#bae393" stroke-width="1.51"/><path d="M448,-194L630,-93L636,-194Z" fill="#daf0af" stroke="#daf0af" stroke-width="1.51"/><path d="M551,994L481,1006L627,1137Z" fill="#70ac68" stroke="#70ac68" stroke-width="1.51"/><path d="M562,129L441,248L634,240Z" fill="#c3e798" stroke="#c3e798" stroke-width="1.51"/><path d="M448,-194L477,-20L630,-93Z" fill="#ddf1ab" stroke="#ddf1ab" stroke-width="1.51"/><path d="M388,1174L561,1261L627,1137Z" fill="#6aa264" stroke="#6aa264" stroke-width="1.51"/><path d="M481,1006L388,1174L627,1137Z" fill="#70aa68" stroke="#70aa68" stroke-width="1.51"/><path d="M414,578L380,741L575,730Z" fill="#92cf80" stroke="#92cf80" stroke-width="1.51"/><path d="M380,741L383,820L575,730Z" fill="#8aca7b" stroke="#8aca7b" stroke-width="1.51"/><path d="M414,578L575,730L576,560Z" fill="#94d183" stroke="#94d183" stroke-width="1.51"/><path d="M441,248L382,362L584,392Z" fill="#bbe394" stroke="#bbe394" stroke-width="1.51"/><path d="M414,578L576,560L584,392Z" fill="#a1d889" stroke="#a1d889" stroke-width="1.51"/><path d="M382,362L414,578L584,392Z" fill="#aede8f" stroke="#aede8f" stroke-width="1.51"/><path d="M481,1006L551,994L585,791Z" fill="#77b66d" stroke="#77b66d" stroke-width="1.51"/><path d="M383,820L481,1006L585,791Z" fill="#80bd72" stroke="#80bd72" stroke-width="1.51"/><path d="M575,730L383,820L585,791Z" fill="#83c578" stroke="#83c578" stroke-width="1.51"/><path d="M477,-20L398,119L562,129Z" fill="#d5eea1" stroke="#d5eea1" stroke-width="1.51"/><path d="M388,1174L407,1286L561,1261Z" fill="#6ea064" stroke="#6ea064" stroke-width="1.51"/><path d="M398,119L441,248L562,129Z" fill="#cdeb9d" stroke="#cdeb9d" stroke-width="1.51"/><path d="M302,1256L123,1345L407,1286Z" fill="#769e68" stroke="#769e68" stroke-width="1.51"/><path d="M298,-33L398,119L477,-20Z" fill="#def2a7" stroke="#def2a7" stroke-width="1.51"/><path d="M448,-194L312,-161L477,-20Z" fill="#e5f5b1" stroke="#e5f5b1" stroke-width="1.51"/><path d="M312,-161L298,-33L477,-20Z" fill="#e8f6ad" stroke="#e8f6ad" stroke-width="1.51"/><path d="M383,820L293,829L481,1006Z" fill="#86bf75" stroke="#86bf75" stroke-width="1.51"/><path d="M293,829L239,1039L481,1006Z" fill="#84b972" stroke="#84b972" stroke-width="1.51"/><path d="M239,1039L388,1174L481,1006Z" fill="#7cb06d" stroke="#7cb06d" stroke-width="1.51"/><path d="M250,391L228,518L382,362Z" fill="#bbe396" stroke="#bbe396" stroke-width="1.51"/><path d="M298,-33L303,99L398,119Z" fill="#e0f3a7" stroke="#e0f3a7" stroke-width="1.51"/><path d="M382,362L228,518L414,578Z" fill="#b1df91" stroke="#b1df91" stroke-width="1.51"/><path d="M398,119L329,232L441,248Z" fill="#d0ec9e" stroke="#d0ec9e" stroke-width="1.51"/><path d="M329,232L382,362L441,248Z" fill="#c7e89a" stroke="#c7e89a" stroke-width="1.51"/><path d="M239,1039L238,1120L388,1174Z" fill="#7eaf6f" stroke="#7eaf6f" stroke-width="1.51"/><path d="M313,739L380,741L414,578Z" fill="#99d183" stroke="#99d183" stroke-width="1.51"/><path d="M388,1174L302,1256L407,1286Z" fill="#74a268" stroke="#74a268" stroke-width="1.51"/><path d="M228,518L313,739L414,578Z" fill="#a3d88a" stroke="#a3d88a" stroke-width="1.51"/><path d="M303,99L329,232L398,119Z" fill="#d8f0a2" stroke="#d8f0a2" stroke-width="1.51"/><path d="M380,741L313,739L383,820Z" fill="#90cc7e" stroke="#90cc7e" stroke-width="1.51"/><path d="M329,232L250,391L382,362Z" fill="#c6e89a" stroke="#c6e89a" stroke-width="1.51"/><path d="M313,739L293,829L383,820Z" fill="#90c97d" stroke="#90c97d" stroke-width="1.51"/><path d="M238,1120L302,1256L388,1174Z" fill="#79a96b" stroke="#79a96b" stroke-width="1.51"/><path d="M25,1324L-129,1342L123,1345Z" fill="#80a071" stroke="#80a071" stroke-width="1.51"/><path d="M97,564L79,717L228,518Z" fill="#aedc91" stroke="#aedc91" stroke-width="1.51"/><path d="M137,982L239,1039L293,829Z" fill="#8abc76" stroke="#8abc76" stroke-width="1.51"/><path d="M139,865L137,982L293,829Z" fill="#90c37b" stroke="#90c37b" stroke-width="1.51"/><path d="M298,-33L171,49L303,99Z" fill="#e5f5ab" stroke="#e5f5ab" stroke-width="1.51"/><path d="M138,-83L298,-33L312,-161Z" fill="#eef8b3" stroke="#eef8b3" stroke-width="1.51"/><path d="M228,518L79,717L313,739Z" fill="#a4d78b" stroke="#a4d78b" stroke-width="1.51"/><path d="M303,99L187,212L329,232Z" fill="#d8efa3" stroke="#d8efa3" stroke-width="1.51"/><path d="M187,212L250,391L329,232Z" fill="#ceeb9f" stroke="#ceeb9f" stroke-width="1.51"/><path d="M139,865L293,829L313,739Z" fill="#93c97f" stroke="#93c97f" stroke-width="1.51"/><path d="M79,717L139,865L313,739Z" fill="#99cf83" stroke="#99cf83" stroke-width="1.51"/><path d="M99,-172L138,-83L312,-161Z" fill="#f3fabb" stroke="#f3fabb" stroke-width="1.51"/><path d="M238,1120L98,1140L302,1256Z" fill="#7fac6f" stroke="#7fac6f" stroke-width="1.51"/><path d="M98,1140L123,1345L302,1256Z" fill="#7ea56e" stroke="#7ea56e" stroke-width="1.51"/><path d="M171,49L187,212L303,99Z" fill="#e1f3a8" stroke="#e1f3a8" stroke-width="1.51"/><path d="M187,212L115,337L250,391Z" fill="#ceeba0" stroke="#ceeba0" stroke-width="1.51"/><path d="M138,-83L171,49L298,-33Z" fill="#ecf8b1" stroke="#ecf8b1" stroke-width="1.51"/><path d="M115,337L228,518L250,391Z" fill="#c1e69a" stroke="#c1e69a" stroke-width="1.51"/><path d="M115,337L97,564L228,518Z" fill="#bde399" stroke="#bde399" stroke-width="1.51"/><path d="M98,1140L238,1120L239,1039Z" fill="#83b272" stroke="#83b272" stroke-width="1.51"/><path d="M137,982L98,1140L239,1039Z" fill="#88b675" stroke="#88b675" stroke-width="1.51"/><path d="M-19,430L97,564L115,337Z" fill="#c5e79e" stroke="#c5e79e" stroke-width="1.51"/><path d="M98,1140L25,1324L123,1345Z" fill="#81a56f" stroke="#81a56f" stroke-width="1.51"/><path d="M-71,89L30,251L171,49Z" fill="#e9f6af" stroke="#e9f6af" stroke-width="1.51"/><path d="M171,49L30,251L187,212Z" fill="#e0f3a9" stroke="#e0f3a9" stroke-width="1.51"/><path d="M30,251L115,337L187,212Z" fill="#d7efa5" stroke="#d7efa5" stroke-width="1.51"/><path d="M138,-83L-18,-108L171,49Z" fill="#f3fab6" stroke="#f3fab6" stroke-width="1.51"/><path d="M-18,-108L-71,89L171,49Z" fill="#f1fab7" stroke="#f1fab7" stroke-width="1.51"/><path d="M-18,1165L25,1324L98,1140Z" fill="#85ab75" stroke="#85ab75" stroke-width="1.51"/><path d="M-42,1010L98,1140L137,982Z" fill="#8db879" stroke="#8db879" stroke-width="1.51"/><path d="M99,-172L-18,-108L138,-83Z" fill="#f8fcbd" stroke="#f8fcbd" stroke-width="1.51"/><path d="M79,717L-46,800L139,865Z" fill="#9ecf87" stroke="#9ecf87" stroke-width="1.51"/><path d="M-42,1010L137,982L139,865Z" fill="#91bf7b" stroke="#91bf7b" stroke-width="1.51"/><path d="M-46,800L-42,1010L139,865Z" fill="#97c583" stroke="#97c583" stroke-width="1.51"/><path d="M-13,581L79,717L97,564Z" fill="#b0dc93" stroke="#b0dc93" stroke-width="1.51"/><path d="M-19,430L-13,581L97,564Z" fill="#bbe29c" stroke="#bbe29c" stroke-width="1.51"/><path d="M-42,1010L-18,1165L98,1140Z" fill="#8ab47a" stroke="#8ab47a" stroke-width="1.51"/><path d="M30,251L-19,430L115,337Z" fill="#d2eca4" stroke="#d2eca4" stroke-width="1.51"/><path d="M-13,581L-67,653L79,717Z" fill="#addb95" stroke="#addb95" stroke-width="1.51"/><path d="M-19,-185L-18,-108L99,-172Z" fill="#f9fcc4" stroke="#f9fcc4" stroke-width="1.51"/><path d="M-67,653L-46,800L79,717Z" fill="#a5d691" stroke="#a5d691" stroke-width="1.51"/><path d="M-46,800L-184,874L-42,1010Z" fill="#99c68a" stroke="#99c68a" stroke-width="1.51"/><path d="M-18,1165L-139,1193L25,1324Z" fill="#85aa79" stroke="#85aa79" stroke-width="1.51"/><path d="M-139,1193L-129,1342L25,1324Z" fill="#83a479" stroke="#83a479" stroke-width="1.51"/><path d="M-71,89L-178,192L30,251Z" fill="#e5f4b5" stroke="#e5f4b5" stroke-width="1.51"/><path d="M-178,192L-116,360L30,251Z" fill="#dbf0b2" stroke="#dbf0b2" stroke-width="1.51"/><path d="M-116,360L-19,430L30,251Z" fill="#d2edaa" stroke="#d2edaa" stroke-width="1.51"/><path d="M-184,874L-165,1007L-42,1010Z" fill="#94bf89" stroke="#94bf89" stroke-width="1.51"/><path d="M-165,1007L-139,1193L-42,1010Z" fill="#8eb884" stroke="#8eb884" stroke-width="1.51"/><path d="M-116,360L-212,531L-19,430Z" fill="#c8e8aa" stroke="#c8e8aa" stroke-width="1.51"/><path d="M-198,-58L-71,89L-18,-108Z" fill="#f5fcc2" stroke="#f5fcc2" stroke-width="1.51"/><path d="M-19,-185L-197,-202L-18,-108Z" fill="#fbfdcc" stroke="#fbfdcc" stroke-width="1.51"/><path d="M-42,1010L-139,1193L-18,1165Z" fill="#8bb47f" stroke="#8bb47f" stroke-width="1.51"/><path d="M-170,646L-67,653L-13,581Z" fill="#b1dc9d" stroke="#b1dc9d" stroke-width="1.51"/><path d="M-212,531L-170,646L-13,581Z" fill="#b6dfa3" stroke="#b6dfa3" stroke-width="1.51"/><path d="M-19,430L-212,531L-13,581Z" fill="#bee3a4" stroke="#bee3a4" stroke-width="1.51"/><path d="M-197,-202L-198,-58L-18,-108Z" fill="#fbfdcc" stroke="#fbfdcc" stroke-width="1.51"/><path d="M-67,653L-170,646L-46,800Z" fill="#a9d898" stroke="#a9d898" stroke-width="1.51"/><path d="M-170,646L-184,874L-46,800Z" fill="#a2d296" stroke="#a2d296" stroke-width="1.51"/><path d="M-204,137L-178,192L-71,89Z" fill="#eaf7bd" stroke="#eaf7bd" stroke-width="1.51"/><path d="M-198,-58L-204,137L-71,89Z" fill="#f0f9c2" stroke="#f0f9c2" stroke-width="1.51"/><path d="M-165,1007L-184,874L-129,1342Z" fill="#8eb787" stroke="#8eb787" stroke-width="1.51"/><path d="M-178,192L-212,531L-116,360Z" fill="#d2ecb3" stroke="#d2ecb3" stroke-width="1.51"/><path d="M-139,1193L-165,1007L-129,1342Z" fill="#88af82" stroke="#88af82" stroke-width="1.51"/><path d="M-204,137L-212,531L-178,192Z" fill="#dbf0b9" stroke="#dbf0b9" stroke-width="1.51"/><path d="M-212,531L-184,874L-170,646Z" fill="#acd9a0" stroke="#acd9a0" stroke-width="1.51"/><path d="M-204,137L-198,-58L-197,-202Z" fill="#f8fdca" stroke="#f8fdca" stroke-width="1.51"/></svg>