<svg xmlns="http://www.w3.org/2000/svg" width="1920" height="1080"><path d="M-197,-202L-19,-185L448,-194Z" fill="#fff1ac" stroke="#fff1ac" stroke-width="1.51"/><path d="M-197,-202L448,-194L837,-244Z" fill="#ffe99a" stroke="#ffe99a" stroke-width="1.51"/><path d="M897,1322L123,1345L1016,1332Z" fill="#c46339" stroke="#c46339" stroke-width="1.51"/><path d="M837,-244L1155,-230L1369,-265Z" fill="#ffb77a" stroke="#ffb77a" stroke-width="1.51"/><path d="M1016,1332L123,1345L1668,1345Z" fill="#c15133" stroke="#c15133" stroke-width="1.51"/><path d="M1451,1329L1016,1332L1668,1345Z" fill="#bc2127" stroke="#bc2127" stroke-width="1.51"/><path d="M1654,-192L1821,-173L1911,-185Z" fill="#eb9268" stroke="#eb9268" stroke-width="1.51"/><path d="M1654,-192L1911,-185L2060,-232Z" fill="#e5906b" stroke="#e5906b" stroke-width="1.51"/><path d="M1516,-223L1654,-192L2060,-232Z" fill="#ef956b" stroke="#ef956b" stroke-width="1.51"/><path d="M1369,-265L1516,-223L2060,-232Z" fill="#f6986c" stroke="#f6986c" stroke-width="1.51"/><path d="M1966,836L2063,873L2076,642Z" fill="#c72828" stroke="#c72828" stroke-width="1.51"/><path d="M1952,652L1966,836L2076,642Z" fill="#ce362b" stroke="#ce362b" stroke-width="1.51"/><path d="M2070,987L1968,1181L2098,1144Z" fill="#af0325" stroke="#af0325" stroke-width="1.51"/><path d="M2076,642L2063,873L2098,1144Z" fill="#bd1925" stroke="#bd1925" stroke-width="1.51"/><path d="M2063,873L2070,987L2098,1144Z" fill="#b50924" stroke="#b50924" stroke-width="1.51"/><path d="M2047,56L1886,188L2100,282Z" fill="#d17747" stroke="#d17747" stroke-width="1.51"/><path d="M2079,-104L2047,56L2100,282Z" fill="#cb7c50" stroke="#cb7c50" stroke-width="1.51"/><path d="M2100,282L1956,361L2118,381Z" fill="#ca6539" stroke="#ca6539" stroke-width="1.51"/><path d="M1956,361L2053,487L2118,381Z" fill="#cb5f36" stroke="#cb5f36" stroke-width="1.51"/><path d="M2053,487L2076,642L2118,381Z" fill="#c65533" stroke="#c65533" stroke-width="1.51"/><path d="M2076,642L2098,1144L2118,381Z" fill="#c3312b" stroke="#c3312b" stroke-width="1.51"/><path d="M2079,-104L2100,282L2118,381Z" fill="#c77347" stroke="#c77347" stroke-width="1.51"/><path d="M2098,1144L1968,1181L2118,1295Z" fill="#a10026" stroke="#a10026" stroke-width="1.51"/><path d="M1968,1181L1940,1323L2118,1295Z" fill="#9d0026" stroke="#9d0026" stroke-width="1.51"/><path d="M2118,381L2098,1144L2118,1295Z" fill="#b70f23" stroke="#b70f23" stroke-width="1.51"/><path d="M1907,1007L1968,1181L2070,987Z" fill="#b90624" stroke="#b90624" stroke-width="1.51"/><path d="M2053,487L1915,557L2076,642Z" fill="#cd4f31" stroke="#cd4f31" stroke-width="1.51"/><path d="M1915,557L1952,652L2076,642Z" fill="#d0472e" stroke="#d0472e" stroke-width="1.51"/><path d="M1909,-80L2047,56L2079,-104Z" fill="#d4845c" stroke="#d4845c" stroke-width="1.51"/><path d="M1886,188L1956,361L2100,282Z" fill="#d36e3e" stroke="#d36e3e" stroke-width="1.51"/><path d="M1909,-80L1935,50L2047,56Z" fill="#d98357" stroke="#d98357" stroke-width="1.51"/><path d="M1935,50L1886,188L2047,56Z" fill="#d87f4e" stroke="#d87f4e" stroke-width="1.51"/><path d="M2063,873L1966,836L2070,987Z" fill="#c11824" stroke="#c11824" stroke-width="1.51"/><path d="M1966,836L1907,1007L2070,987Z" fill="#c41023" stroke="#c41023" stroke-width="1.51"/><path d="M2060,-232L1911,-185L2079,-104Z" fill="#d58968" stroke="#d58968" stroke-width="1.51"/><path d="M1911,-185L1909,-80L2079,-104Z" fill="#da8963" stroke="#da8963" stroke-width="1.51"/><path d="M1956,361L1915,557L2053,487Z" fill="#d25b34" stroke="#d25b34" stroke-width="1.51"/><path d="M695,1288L123,1345L897,1322Z" fill="#c76b3f" stroke="#c76b3f" stroke-width="1.51"/><path d="M1830,1272L1668,1345L1940,1323Z" fill="#a90226" stroke="#a90226" stroke-width="1.51"/><path d="M1752,659L1839,888L1952,652Z" fill="#dd3429" stroke="#dd3429" stroke-width="1.51"/><path d="M1886,188L1729,274L1956,361Z" fill="#e1723e" stroke="#e1723e" stroke-width="1.51"/><path d="M1794,422L1915,557L1956,361Z" fill="#dc6034" stroke="#dc6034" stroke-width="1.51"/><path d="M1952,652L1839,888L1966,836Z" fill="#d32a27" stroke="#d32a27" stroke-width="1.51"/><path d="M1839,888L1907,1007L1966,836Z" fill="#ce1723" stroke="#ce1723" stroke-width="1.51"/><path d="M1907,1007L1835,1137L1968,1181Z" fill="#bd0325" stroke="#bd0325" stroke-width="1.51"/><path d="M1830,1272L1940,1323L1968,1181Z" fill="#a80026" stroke="#a80026" stroke-width="1.51"/><path d="M1835,1137L1830,1272L1968,1181Z" fill="#b50026" stroke="#b50026" stroke-width="1.51"/><path d="M1729,274L1794,422L1956,361Z" fill="#e16b37" stroke="#e16b37" stroke-width="1.51"/><path d="M1915,557L1752,659L1952,652Z" fill="#dc492d" stroke="#dc492d" stroke-width="1.51"/><path d="M1794,422L1776,529L1915,557Z" fill="#e05c32" stroke="#e05c32" stroke-width="1.51"/><path d="M1746,43L1886,188L1935,50Z" fill="#e3834f" stroke="#e3834f" stroke-width="1.51"/><path d="M1909,-80L1772,-42L1935,50Z" fill="#e3885a" stroke="#e3885a" stroke-width="1.51"/><path d="M1821,-173L1909,-80L1911,-185Z" fill="#e48e65" stroke="#e48e65" stroke-width="1.51"/><path d="M1772,-42L1746,43L1935,50Z" fill="#e78856" stroke="#e78856" stroke-width="1.51"/><path d="M1839,888L1762,989L1907,1007Z" fill="#d00f21" stroke="#d00f21" stroke-width="1.51"/><path d="M1762,989L1835,1137L1907,1007Z" fill="#c90923" stroke="#c90923" stroke-width="1.51"/><path d="M1776,529L1752,659L1915,557Z" fill="#e0522e" stroke="#e0522e" stroke-width="1.51"/><path d="M1821,-173L1772,-42L1909,-80Z" fill="#e78d60" stroke="#e78d60" stroke-width="1.51"/><path d="M407,1286L123,1345L695,1288Z" fill="#ca7649" stroke="#ca7649" stroke-width="1.51"/><path d="M1746,43L1729,274L1886,188Z" fill="#e67f47" stroke="#e67f47" stroke-width="1.51"/><path d="M1664,231L1729,274L1746,43Z" fill="#eb8044" stroke="#eb8044" stroke-width="1.51"/><path d="M1582,1190L1668,1345L1830,1272Z" fill="#b70724" stroke="#b70724" stroke-width="1.51"/><path d="M1582,1190L1830,1272L1835,1137Z" fill="#be0425" stroke="#be0425" stroke-width="1.51"/><path d="M1591,892L1762,989L1839,888Z" fill="#da1a20" stroke="#da1a20" stroke-width="1.51"/><path d="M1752,659L1591,892L1839,888Z" fill="#e12b24" stroke="#e12b24" stroke-width="1.51"/><path d="M1762,989L1582,1190L1835,1137Z" fill="#ca0a23" stroke="#ca0a23" stroke-width="1.51"/><path d="M1654,-192L1772,-42L1821,-173Z" fill="#ee9163" stroke="#ee9163" stroke-width="1.51"/><path d="M1729,274L1687,411L1794,422Z" fill="#e86c35" stroke="#e86c35" stroke-width="1.51"/><path d="M1601,655L1591,892L1752,659Z" fill="#ea3825" stroke="#ea3825" stroke-width="1.51"/><path d="M1591,892L1601,952L1762,989Z" fill="#dd181f" stroke="#dd181f" stroke-width="1.51"/><path d="M1654,-192L1633,-69L1772,-42Z" fill="#f1915f" stroke="#f1915f" stroke-width="1.51"/><path d="M1687,411L1776,529L1794,422Z" fill="#e66332" stroke="#e66332" stroke-width="1.51"/><path d="M1593,44L1664,231L1746,43Z" fill="#ef884a" stroke="#ef884a" stroke-width="1.51"/><path d="M1601,952L1582,1190L1762,989Z" fill="#d51221" stroke="#d51221" stroke-width="1.51"/><path d="M1613,535L1752,659L1776,529Z" fill="#e7562d" stroke="#e7562d" stroke-width="1.51"/><path d="M1687,411L1613,535L1776,529Z" fill="#e96130" stroke="#e96130" stroke-width="1.51"/><path d="M1633,-69L1746,43L1772,-42Z" fill="#ee8d58" stroke="#ee8d58" stroke-width="1.51"/><path d="M1613,535L1601,655L1752,659Z" fill="#ea502a" stroke="#ea502a" stroke-width="1.51"/><path d="M1633,-69L1593,44L1746,43Z" fill="#f28d54" stroke="#f28d54" stroke-width="1.51"/><path d="M1506,788L1591,892L1601,655Z" fill="#ed3522" stroke="#ed3522" stroke-width="1.51"/><path d="M1664,231L1687,411L1729,274Z" fill="#eb7438" stroke="#eb7438" stroke-width="1.51"/><path d="M1226,1277L1016,1332L1451,1329Z" fill="#c4302a" stroke="#c4302a" stroke-width="1.51"/><path d="M1482,1158L1582,1190L1601,952Z" fill="#d51320" stroke="#d51320" stroke-width="1.51"/><path d="M1593,44L1494,184L1664,231Z" fill="#f48745" stroke="#f48745" stroke-width="1.51"/><path d="M1664,231L1528,399L1687,411Z" fill="#ef7233" stroke="#ef7233" stroke-width="1.51"/><path d="M1528,399L1613,535L1687,411Z" fill="#ef682f" stroke="#ef682f" stroke-width="1.51"/><path d="M1494,184L1528,399L1664,231Z" fill="#f47b39" stroke="#f47b39" stroke-width="1.51"/><path d="M1582,1190L1451,1329L1668,1345Z" fill="#bb0c22" stroke="#bb0c22" stroke-width="1.51"/><path d="M1516,-223L1633,-69L1654,-192Z" fill="#f89664" stroke="#f89664" stroke-width="1.51"/><path d="M1468,951L1482,1158L1601,952Z" fill="#de1d1f" stroke="#de1d1f" stroke-width="1.51"/><path d="M1500,636L1601,655L1613,535Z" fill="#f05328" stroke="#f05328" stroke-width="1.51"/><path d="M1458,-12L1593,44L1633,-69Z" fill="#f99155" stroke="#f99155" stroke-width="1.51"/><path d="M1516,-223L1458,-12L1633,-69Z" fill="#fb965e" stroke="#fb965e" stroke-width="1.51"/><path d="M1458,-12L1482,42L1593,44Z" fill="#fa9252" stroke="#fa9252" stroke-width="1.51"/><path d="M1482,42L1494,184L1593,44Z" fill="#f88e4c" stroke="#f88e4c" stroke-width="1.51"/><path d="M1500,636L1506,788L1601,655Z" fill="#f14625" stroke="#f14625" stroke-width="1.51"/><path d="M1528,399L1464,551L1613,535Z" fill="#f2652d" stroke="#f2652d" stroke-width="1.51"/><path d="M1464,551L1500,636L1613,535Z" fill="#f25c2b" stroke="#f25c2b" stroke-width="1.51"/><path d="M1482,1158L1451,1329L1582,1190Z" fill="#c81623" stroke="#c81623" stroke-width="1.51"/><path d="M1591,892L1468,951L1601,952Z" fill="#e51f1c" stroke="#e51f1c" stroke-width="1.51"/><path d="M1494,184L1381,271L1528,399Z" fill="#f87f39" stroke="#f87f39" stroke-width="1.51"/><path d="M1506,788L1468,951L1591,892Z" fill="#e92a1f" stroke="#e92a1f" stroke-width="1.51"/><path d="M-19,-185L99,-172L448,-194Z" fill="#ffeda3" stroke="#ffeda3" stroke-width="1.51"/><path d="M1468,951L1318,994L1482,1158Z" fill="#e12622" stroke="#e12622" stroke-width="1.51"/><path d="M1500,636L1348,716L1506,788Z" fill="#f44727" stroke="#f44727" stroke-width="1.51"/><path d="M1350,786L1468,951L1506,788Z" fill="#ef3722" stroke="#ef3722" stroke-width="1.51"/><path d="M1352,-26L1458,-12L1516,-223Z" fill="#fe9b5f" stroke="#fe9b5f" stroke-width="1.51"/><path d="M1369,-265L1352,-26L1516,-223Z" fill="#ffa069" stroke="#ffa069" stroke-width="1.51"/><path d="M1349,444L1464,551L1528,399Z" fill="#f66e31" stroke="#f66e31" stroke-width="1.51"/><path d="M1381,271L1349,444L1528,399Z" fill="#f87834" stroke="#f87834" stroke-width="1.51"/><path d="M1345,1166L1451,1329L1482,1158Z" fill="#cc2025" stroke="#cc2025" stroke-width="1.51"/><path d="M1318,994L1345,1166L1482,1158Z" fill="#dc2824" stroke="#dc2824" stroke-width="1.51"/><path d="M1482,42L1353,63L1494,184Z" fill="#fb924c" stroke="#fb924c" stroke-width="1.51"/><path d="M1348,716L1350,786L1506,788Z" fill="#f54326" stroke="#f54326" stroke-width="1.51"/><path d="M1280,1263L1226,1277L1451,1329Z" fill="#c62828" stroke="#c62828" stroke-width="1.51"/><path d="M1464,551L1318,591L1500,636Z" fill="#f65e2c" stroke="#f65e2c" stroke-width="1.51"/><path d="M1318,591L1348,716L1500,636Z" fill="#f7582b" stroke="#f7582b" stroke-width="1.51"/><path d="M1353,63L1381,271L1494,184Z" fill="#fb8e46" stroke="#fb8e46" stroke-width="1.51"/><path d="M1350,786L1318,994L1468,951Z" fill="#ed3321" stroke="#ed3321" stroke-width="1.51"/><path d="M1458,-12L1353,63L1482,42Z" fill="#fd9654" stroke="#fd9654" stroke-width="1.51"/><path d="M1345,1166L1280,1263L1451,1329Z" fill="#ca2527" stroke="#ca2527" stroke-width="1.51"/><path d="M1352,-26L1353,63L1458,-12Z" fill="#fe9957" stroke="#fe9957" stroke-width="1.51"/><path d="M1349,444L1318,591L1464,551Z" fill="#f86b30" stroke="#f86b30" stroke-width="1.51"/><path d="M1225,484L1318,591L1349,444Z" fill="#fc7233" stroke="#fc7233" stroke-width="1.51"/><path d="M1195,855L1318,994L1350,786Z" fill="#f33e25" stroke="#f33e25" stroke-width="1.51"/><path d="M1232,55L1181,203L1353,63Z" fill="#ff9b51" stroke="#ff9b51" stroke-width="1.51"/><path d="M1218,-68L1352,-26L1369,-265Z" fill="#ffa366" stroke="#ffa366" stroke-width="1.51"/><path d="M1155,-230L1218,-68L1369,-265Z" fill="#ffaa6f" stroke="#ffaa6f" stroke-width="1.51"/><path d="M1198,387L1349,444L1381,271Z" fill="#fd7f38" stroke="#fd7f38" stroke-width="1.51"/><path d="M1181,203L1198,387L1381,271Z" fill="#ff8b3f" stroke="#ff8b3f" stroke-width="1.51"/><path d="M1353,63L1181,203L1381,271Z" fill="#ff9249" stroke="#ff9249" stroke-width="1.51"/><path d="M448,-194L636,-194L837,-244Z" fill="#ffd686" stroke="#ffd686" stroke-width="1.51"/><path d="M1318,994L1164,1195L1345,1166Z" fill="#df3027" stroke="#df3027" stroke-width="1.51"/><path d="M1318,591L1131,648L1348,716Z" fill="#fd5f2e" stroke="#fd5f2e" stroke-width="1.51"/><path d="M1198,387L1225,484L1349,444Z" fill="#fe7b36" stroke="#fe7b36" stroke-width="1.51"/><path d="M1348,716L1195,855L1350,786Z" fill="#f84827" stroke="#f84827" stroke-width="1.51"/><path d="M1218,-68L1232,55L1352,-26Z" fill="#ffa15d" stroke="#ffa15d" stroke-width="1.51"/><path d="M1352,-26L1232,55L1353,63Z" fill="#ff9c57" stroke="#ff9c57" stroke-width="1.51"/><path d="M1131,648L1195,855L1348,716Z" fill="#fc542b" stroke="#fc542b" stroke-width="1.51"/><path d="M1164,1195L1280,1263L1345,1166Z" fill="#d42f29" stroke="#d42f29" stroke-width="1.51"/><path d="M1091,1026L1164,1195L1318,994Z" fill="#e53e28" stroke="#e53e28" stroke-width="1.51"/><path d="M1129,971L1091,1026L1318,994Z" fill="#ec4227" stroke="#ec4227" stroke-width="1.51"/><path d="M1195,855L1129,971L1318,994Z" fill="#f14125" stroke="#f14125" stroke-width="1.51"/><path d="M1225,484L1131,648L1318,591Z" fill="#fd6f32" stroke="#fd6f32" stroke-width="1.51"/><path d="M1164,1195L1226,1277L1280,1263Z" fill="#cf332a" stroke="#cf332a" stroke-width="1.51"/><path d="M1131,648L1037,723L1195,855Z" fill="#fd602e" stroke="#fd602e" stroke-width="1.51"/><path d="M1181,203L1051,256L1198,387Z" fill="#ff9543" stroke="#ff9543" stroke-width="1.51"/><path d="M1155,-230L1035,-58L1218,-68Z" fill="#ffb06c" stroke="#ffb06c" stroke-width="1.51"/><path d="M1026,484L1131,648L1225,484Z" fill="#fd7e37" stroke="#fd7e37" stroke-width="1.51"/><path d="M1001,54L1181,203L1232,55Z" fill="#ffa555" stroke="#ffa555" stroke-width="1.51"/><path d="M1218,-68L1035,-58L1232,55Z" fill="#ffaa61" stroke="#ffaa61" stroke-width="1.51"/><path d="M1035,-58L1001,54L1232,55Z" fill="#ffae60" stroke="#ffae60" stroke-width="1.51"/><path d="M1017,-159L1035,-58L1155,-230Z" fill="#ffb771" stroke="#ffb771" stroke-width="1.51"/><path d="M1198,387L1053,411L1225,484Z" fill="#fe863a" stroke="#fe863a" stroke-width="1.51"/><path d="M1164,1195L1016,1332L1226,1277Z" fill="#cc3f2d" stroke="#cc3f2d" stroke-width="1.51"/><path d="M1053,411L1026,484L1225,484Z" fill="#fe883a" stroke="#fe883a" stroke-width="1.51"/><path d="M837,-244L1017,-159L1155,-230Z" fill="#ffc07a" stroke="#ffc07a" stroke-width="1.51"/><path d="M1091,1026L1048,1187L1164,1195Z" fill="#df482c" stroke="#df482c" stroke-width="1.51"/><path d="M1048,1187L1016,1332L1164,1195Z" fill="#d1472e" stroke="#d1472e" stroke-width="1.51"/><path d="M1001,54L1051,256L1181,203Z" fill="#ffa650" stroke="#ffa650" stroke-width="1.51"/><path d="M1037,723L1013,808L1195,855Z" fill="#fa5f2d" stroke="#fa5f2d" stroke-width="1.51"/><path d="M1051,256L1053,411L1198,387Z" fill="#fe923f" stroke="#fe923f" stroke-width="1.51"/><path d="M1013,808L1129,971L1195,855Z" fill="#f5542a" stroke="#f5542a" stroke-width="1.51"/><path d="M1026,484L897,570L1037,723Z" fill="#fd8438" stroke="#fd8438" stroke-width="1.51"/><path d="M1013,808L1091,1026L1129,971Z" fill="#f25328" stroke="#f25328" stroke-width="1.51"/><path d="M1026,484L1037,723L1131,648Z" fill="#fd7935" stroke="#fd7935" stroke-width="1.51"/><path d="M894,1013L871,1116L1048,1187Z" fill="#e35b30" stroke="#e35b30" stroke-width="1.51"/><path d="M1051,256L930,278L1053,411Z" fill="#fe9e44" stroke="#fe9e44" stroke-width="1.51"/><path d="M894,1013L1048,1187L1091,1026Z" fill="#e5552e" stroke="#e5552e" stroke-width="1.51"/><path d="M1013,808L894,1013L1091,1026Z" fill="#f15b2a" stroke="#f15b2a" stroke-width="1.51"/><path d="M840,92L930,278L1001,54Z" fill="#ffb558" stroke="#ffb558" stroke-width="1.51"/><path d="M897,570L842,656L1037,723Z" fill="#fd8038" stroke="#fd8038" stroke-width="1.51"/><path d="M897,1322L1016,1332L1048,1187Z" fill="#cb4f31" stroke="#cb4f31" stroke-width="1.51"/><path d="M1001,54L930,278L1051,256Z" fill="#ffaa51" stroke="#ffaa51" stroke-width="1.51"/><path d="M868,423L1026,484L1053,411Z" fill="#fe943f" stroke="#fe943f" stroke-width="1.51"/><path d="M930,278L868,423L1053,411Z" fill="#fe9d43" stroke="#fe9d43" stroke-width="1.51"/><path d="M830,821L894,1013L1013,808Z" fill="#f6682f" stroke="#f6682f" stroke-width="1.51"/><path d="M871,1116L897,1322L1048,1187Z" fill="#d65732" stroke="#d65732" stroke-width="1.51"/><path d="M1017,-159L864,-7L1035,-58Z" fill="#ffbd6d" stroke="#ffbd6d" stroke-width="1.51"/><path d="M864,-7L1001,54L1035,-58Z" fill="#ffba66" stroke="#ffba66" stroke-width="1.51"/><path d="M842,656L1013,808L1037,723Z" fill="#fd7233" stroke="#fd7233" stroke-width="1.51"/><path d="M842,656L830,821L1013,808Z" fill="#fc7434" stroke="#fc7434" stroke-width="1.51"/><path d="M868,423L897,570L1026,484Z" fill="#fd943f" stroke="#fd943f" stroke-width="1.51"/><path d="M785,-194L864,-7L1017,-159Z" fill="#ffc474" stroke="#ffc474" stroke-width="1.51"/><path d="M837,-244L785,-194L1017,-159Z" fill="#ffc77d" stroke="#ffc77d" stroke-width="1.51"/><path d="M864,-7L840,92L1001,54Z" fill="#ffbb63" stroke="#ffbb63" stroke-width="1.51"/><path d="M561,1261L407,1286L695,1288Z" fill="#ce6e40" stroke="#ce6e40" stroke-width="1.51"/><path d="M830,821L749,990L894,1013Z" fill="#f36a2f" stroke="#f36a2f" stroke-width="1.51"/><path d="M871,1116L768,1152L897,1322Z" fill="#d95e34" stroke="#d95e34" stroke-width="1.51"/><path d="M840,92L735,235L930,278Z" fill="#ffb455" stroke="#ffb455" stroke-width="1.51"/><path d="M735,235L785,349L930,278Z" fill="#fead4d" stroke="#fead4d" stroke-width="1.51"/><path d="M785,349L868,423L930,278Z" fill="#fea546" stroke="#fea546" stroke-width="1.51"/><path d="M749,990L871,1116L894,1013Z" fill="#ea6431" stroke="#ea6431" stroke-width="1.51"/><path d="M768,1152L695,1288L897,1322Z" fill="#d05f36" stroke="#d05f36" stroke-width="1.51"/><path d="M868,423L717,544L897,570Z" fill="#fe9840" stroke="#fe9840" stroke-width="1.51"/><path d="M717,544L842,656L897,570Z" fill="#fe8f3d" stroke="#fe8f3d" stroke-width="1.51"/><path d="M785,-194L679,-55L864,-7Z" fill="#ffc974" stroke="#ffc974" stroke-width="1.51"/><path d="M714,714L830,821L842,656Z" fill="#fe7e37" stroke="#fe7e37" stroke-width="1.51"/><path d="M743,59L840,92L864,-7Z" fill="#ffc065" stroke="#ffc065" stroke-width="1.51"/><path d="M785,349L717,544L868,423Z" fill="#fea144" stroke="#fea144" stroke-width="1.51"/><path d="M749,990L768,1152L871,1116Z" fill="#e66633" stroke="#e66633" stroke-width="1.51"/><path d="M679,-55L743,59L864,-7Z" fill="#ffc66b" stroke="#ffc66b" stroke-width="1.51"/><path d="M99,-172L312,-161L448,-194Z" fill="#ffe99b" stroke="#ffe99b" stroke-width="1.51"/><path d="M699,821L749,990L830,821Z" fill="#f77433" stroke="#f77433" stroke-width="1.51"/><path d="M714,714L699,821L830,821Z" fill="#fc7c36" stroke="#fc7c36" stroke-width="1.51"/><path d="M636,-194L785,-194L837,-244Z" fill="#ffd082" stroke="#ffd082" stroke-width="1.51"/><path d="M743,59L735,235L840,92Z" fill="#ffbf5e" stroke="#ffbf5e" stroke-width="1.51"/><path d="M717,544L714,714L842,656Z" fill="#fe8d3d" stroke="#fe8d3d" stroke-width="1.51"/><path d="M636,-194L630,-93L679,-55Z" fill="#ffd27b" stroke="#ffd27b" stroke-width="1.51"/><path d="M634,240L735,235L743,59Z" fill="#febf5b" stroke="#febf5b" stroke-width="1.51"/><path d="M749,990L627,1137L768,1152Z" fill="#e56b35" stroke="#e56b35" stroke-width="1.51"/><path d="M584,392L717,544L785,349Z" fill="#fea847" stroke="#fea847" stroke-width="1.51"/><path d="M735,235L634,240L785,349Z" fill="#ffb451" stroke="#ffb451" stroke-width="1.51"/><path d="M634,240L584,392L785,349Z" fill="#feb24c" stroke="#feb24c" stroke-width="1.51"/><path d="M636,-194L679,-55L785,-194Z" fill="#ffd07d" stroke="#ffd07d" stroke-width="1.51"/><path d="M562,129L634,240L743,59Z" fill="#fec561" stroke="#fec561" stroke-width="1.51"/><path d="M627,1137L695,1288L768,1152Z" fill="#da6838" stroke="#da6838" stroke-width="1.51"/><path d="M576,560L714,714L717,544Z" fill="#fe9741" stroke="#fe9741" stroke-width="1.51"/><path d="M699,821L551,994L749,990Z" fill="#f47533" stroke="#f47533" stroke-width="1.51"/><path d="M551,994L627,1137L749,990Z" fill="#eb7236" stroke="#eb7236" stroke-width="1.51"/><path d="M679,-55L562,129L743,59Z" fill="#ffca6a" stroke="#ffca6a" stroke-width="1.51"/><path d="M576,560L575,730L714,714Z" fill="#ff9241" stroke="#ff9241" stroke-width="1.51"/><path d="M584,392L576,560L717,544Z" fill="#fea648" stroke="#fea648" stroke-width="1.51"/><path d="M627,1137L561,1261L695,1288Z" fill="#d56b3b" stroke="#d56b3b" stroke-width="1.51"/><path d="M585,791L551,994L699,821Z" fill="#f87e39" stroke="#f87e39" stroke-width="1.51"/><path d="M585,791L699,821L714,714Z" fill="#fd8239" stroke="#fd8239" stroke-width="1.51"/><path d="M575,730L585,791L714,714Z" fill="#ff883d" stroke="#ff883d" stroke-width="1.51"/><path d="M630,-93L477,-20L679,-55Z" fill="#ffd278" stroke="#ffd278" stroke-width="1.51"/><path d="M477,-20L562,129L679,-55Z" fill="#ffd172" stroke="#ffd172" stroke-width="1.51"/><path d="M441,248L584,392L634,240Z" fill="#ffbd58" stroke="#ffbd58" stroke-width="1.51"/><path d="M448,-194L630,-93L636,-194Z" fill="#ffd985" stroke="#ffd985" stroke-width="1.51"/><path d="M551,994L481,1006L627,1137Z" fill="#ec793c" stroke="#ec793c" stroke-width="1.51"/><path d="M562,129L441,248L634,240Z" fill="#ffc661" stroke="#ffc661" stroke-width="1.51"/><path d="M448,-194L477,-20L630,-93Z" fill="#ffda83" stroke="#ffda83" stroke-width="1.51"/><path d="M388,1174L561,1261L627,1137Z" fill="#dc7441" stroke="#dc7441" stroke-width="1.51"/><path d="M481,1006L388,1174L627,1137Z" fill="#e77a41" stroke="#e77a41" stroke-width="1.51"/><path d="M414,578L380,741L575,730Z" fill="#ff9c4b" stroke="#ff9c4b" stroke-width="1.51"/><path d="M380,741L383,820L575,730Z" fill="#ff9348" stroke="#ff9348" stroke-width="1.51"/><path d="M414,578L575,730L576,560Z" fill="#ff9f49" stroke="#ff9f49" stroke-width="1.51"/><path d="M441,248L382,362L584,392Z" fill="#ffbf5a" stroke="#ffbf5a" stroke-width="1.51"/><path d="M414,578L576,560L584,392Z" fill="#ffac4e" stroke="#ffac4e" stroke-width="1.51"/><path d="M382,362L414,578L584,392Z" fill="#ffb655" stroke="#ffb655" stroke-width="1.51"/><path d="M481,1006L551,994L585,791Z" fill="#f67f3b" stroke="#f67f3b" stroke-width="1.51"/><path d="M383,820L481,1006L585,791Z" fill="#fa8841" stroke="#fa8841" stroke-width="1.51"/><path d="M575,730L383,820L585,791Z" fill="#ff8c43" stroke="#ff8c43" stroke-width="1.51"/><path d="M477,-20L398,119L562,129Z" fill="#ffd473" stroke="#ffd473" stroke-width="1.51"/><path d="M388,1174L407,1286L561,1261Z" fill="#d47746" stroke="#d47746" stroke-width="1.51"/><path d="M398,119L441,248L562,129Z" fill="#ffcf6a" stroke="#ffcf6a" stroke-width="1.51"/><path d="M302,1256L123,1345L407,1286Z" fill="#cd7c51" stroke="#cd7c51" stroke-width="1.51"/><path d="M298,-33L398,119L477,-20Z" fill="#ffdc7f" stroke="#ffdc7f" stroke-width="1.51"/><path d="M448,-194L312,-161L477,-20Z" fill="#ffe18d" stroke="#ffe18d" stroke-width="1.51"/><path d="M312,-161L298,-33L477,-20Z" fill="#ffe28b" stroke="#ffe28b" stroke-width="1.51"/><path d="M383,820L293,829L481,1006Z" fill="#fa8d47" stroke="#fa8d47" stroke-width="1.51"/><path d="M293,829L239,1039L481,1006Z" fill="#f68a48" stroke="#f68a48" stroke-width="1.51"/><path d="M239,1039L388,1174L481,1006Z" fill="#eb8449" stroke="#eb8449" stroke-width="1.51"/><path d="M250,391L228,518L382,362Z" fill="#ffc063" stroke="#ffc063" stroke-width="1.51"/><path d="M298,-33L303,99L398,119Z" fill="#ffdd7f" stroke="#ffdd7f" stroke-width="1.51"/><path d="M382,362L228,518L414,578Z" fill="#ffb95c" stroke="#ffb95c" stroke-width="1.51"/><path d="M398,119L329,232L441,248Z" fill="#ffd06d" stroke="#ffd06d" stroke-width="1.51"/><path d="M329,232L382,362L441,248Z" fill="#fec965" stroke="#fec965" stroke-width="1.51"/><path d="M239,1039L238,1120L388,1174Z" fill="#e8864f" stroke="#e8864f" stroke-width="1.51"/><path d="M313,739L380,741L414,578Z" fill="#ffa151" stroke="#ffa151" stroke-width="1.51"/><path d="M388,1174L302,1256L407,1286Z" fill="#d57d4b" stroke="#d57d4b" stroke-width="1.51"/><path d="M228,518L313,739L414,578Z" fill="#ffac58" stroke="#ffac58" stroke-width="1.51"/><path d="M303,99L329,232L398,119Z" fill="#fed775" stroke="#fed775" stroke-width="1.51"/><path d="M380,741L313,739L383,820Z" fill="#ff984e" stroke="#ff984e" stroke-width="1.51"/><path d="M329,232L250,391L382,362Z" fill="#ffc865" stroke="#ffc865" stroke-width="1.51"/><path d="M313,739L293,829L383,820Z" fill="#ff974f" stroke="#ff974f" stroke-width="1.51"/><path d="M238,1120L302,1256L388,1174Z" fill="#df824f" stroke="#df824f" stroke-width="1.51"/><path d="M25,1324L-129,1342L123,1345Z" fill="#c88363" stroke="#c88363" stroke-width="1.51"/><path d="M97,564L79,717L228,518Z" fill="#ffb466" stroke="#ffb466" stroke-width="1.51"/><path d="M137,982L239,1039L293,829Z" fill="#f88f50" stroke="#f88f50" stroke-width="1.51"/><path d="M139,865L137,982L293,829Z" fill="#fb9455" stroke="#fb9455" stroke-width="1.51"/><path d="M298,-33L171,49L303,99Z" fill="#ffe186" stroke="#ffe186" stroke-width="1.51"/><path d="M138,-83L298,-33L312,-161Z" fill="#ffe795" stroke="#ffe795" stroke-width="1.51"/><path d="M228,518L79,717L313,739Z" fill="#ffaa5e" stroke="#ffaa5e" stroke-width="1.51"/><path d="M303,99L187,212L329,232Z" fill="#ffd777" stroke="#ffd777" stroke-width="1.51"/><path d="M187,212L250,391L329,232Z" fill="#ffcf6e" stroke="#ffcf6e" stroke-width="1.51"/><path d="M139,865L293,829L313,739Z" fill="#ff9954" stroke="#ff9954" stroke-width="1.51"/><path d="M79,717L139,865L313,739Z" fill="#ff9e5a" stroke="#ff9e5a" stroke-width="1.51"/><path d="M99,-172L138,-83L312,-161Z" fill="#ffeb9e" stroke="#ffeb9e" stroke-width="1.51"/><path d="M238,1120L98,1140L302,1256Z" fill="#e28655" stroke="#e28655" stroke-width="1.51"/><path d="M98,1140L123,1345L302,1256Z" fill="#d58258" stroke="#d58258" stroke-width="1.51"/><path d="M171,49L187,212L303,99Z" fill="#ffde81" stroke="#ffde81" stroke-width="1.51"/><path d="M187,212L115,337L250,391Z" fill="#ffce70" stroke="#ffce70" stroke-width="1.51"/><path d="M138,-83L171,49L298,-33Z" fill="#ffe591" stroke="#ffe591" stroke-width="1.51"/><path d="M115,337L228,518L250,391Z" fill="#ffc46a" stroke="#ffc46a" stroke-width="1.51"/><path d="M115,337L97,564L228,518Z" fill="#ffc06b" stroke="#ffc06b" stroke-width="1.51"/><path d="M98,1140L238,1120L239,1039Z" fill="#ea8956" stroke="#ea8956" stroke-width="1.51"/><path d="M137,982L98,1140L239,1039Z" fill="#ee8c56" stroke="#ee8c56" stroke-width="1.51"/><path d="M-19,430L97,564L115,337Z" fill="#ffc671" stroke="#ffc671" stroke-width="1.51"/><path d="M98,1140L25,1324L123,1345Z" fill="#d3855d" stroke="#d3855d" stroke-width="1.51"/><path d="M-71,89L30,251L171,49Z" fill="#ffe38c" stroke="#ffe38c" stroke-width="1.51"/><path d="M171,49L30,251L187,212Z" fill="#ffdc82" stroke="#ffdc82" stroke-width="1.51"/><path d="M30,251L115,337L187,212Z" fill="#ffd47a" stroke="#ffd47a" stroke-width="1.51"/><path d="M138,-83L-18,-108L171,49Z" fill="#ffeb9a" stroke="#ffeb9a" stroke-width="1.51"/><path d="M-18,-108L-71,89L171,49Z" fill="#ffe99a" stroke="#ffe99a" stroke-width="1.51"/><path d="M-18,1165L25,1324L98,1140Z" fill="#dd8961" stroke="#dd8961" stroke-width="1.51"/><path d="M-42,1010L98,1140L137,982Z" fill="#f0905c" stroke="#f0905c" stroke-width="1.51"/><path d="M99,-172L-18,-108L138,-83Z" fill="#ffeea4" stroke="#ffeea4" stroke-width="1.51"/><path d="M79,717L-46,800L139,865Z" fill="#ffa061" stroke="#ffa061" stroke-width="1.51"/><path d="M-42,1010L137,982L139,865Z" fill="#f99459" stroke="#f99459" stroke-width="1.51"/><path d="M-46,800L-42,1010L139,865Z" fill="#fd9a60" stroke="#fd9a60" stroke-width="1.51"/><path d="M-13,581L79,717L97,564Z" fill="#ffb46a" stroke="#ffb46a" stroke-width="1.51"/><path d="M-19,430L-13,581L97,564Z" fill="#ffc071" stroke="#ffc071" stroke-width="1.51"/><path d="M-42,1010L-18,1165L98,1140Z" fill="#eb8f61" stroke="#eb8f61" stroke-width="1.51"/><path d="M30,251L-19,430L115,337Z" fill="#ffd078" stroke="#ffd078" stroke-width="1.51"/><path d="M-13,581L-67,653L79,717Z" fill="#ffb26c" stroke="#ffb26c" stroke-width="1.51"/><path d="M-19,-185L-18,-108L99,-172Z" fill="#fff1ab" stroke="#fff1ab" stroke-width="1.51"/><path d="M-67,653L-46,800L79,717Z" fill="#ffa969" stroke="#ffa969" stroke-width="1.51"/><path d="M-46,800L-184,874L-42,1010Z" fill="#fe9d68" stroke="#fe9d68" stroke-width="1.51"/><path d="M-18,1165L-139,1193L25,1324Z" fill="#da8a66" stroke="#da8a66" stroke-width="1.51"/><path d="M-139,1193L-129,1342L25,1324Z" fill="#d18868" stroke="#d18868" stroke-width="1.51"/><path d="M-71,89L-178,192L30,251Z" fill="#ffe290" stroke="#ffe290" stroke-width="1.51"/><path d="M-178,192L-116,360L30,251Z" fill="#ffda88" stroke="#ffda88" stroke-width="1.51"/><path d="M-116,360L-19,430L30,251Z" fill="#ffd17d" stroke="#ffd17d" stroke-width="1.51"/><path d="M-184,874L-165,1007L-42,1010Z" fill="#fb9969" stroke="#fb9969" stroke-width="1.51"/><path d="M-165,1007L-139,1193L-42,1010Z" fill="#f09469" stroke="#f09469" stroke-width="1.51"/><path d="M-116,360L-212,531L-19,430Z" fill="#ffcb7f" stroke="#ffcb7f" stroke-width="1.51"/><path d="M-198,-58L-71,89L-18,-108Z" fill="#ffefa6" stroke="#ffefa6" stroke-width="1.51"/><path d="M-19,-185L-197,-202L-18,-108Z" fill="#fff4b3" stroke="#fff4b3" stroke-width="1.51"/><path d="M-42,1010L-139,1193L-18,1165Z" fill="#ea9167" stroke="#ea9167" stroke-width="1.51"/><path d="M-170,646L-67,653L-13,581Z" fill="#ffb874" stroke="#ffb874" stroke-width="1.51"/><path d="M-212,531L-170,646L-13,581Z" fill="#ffbe79" stroke="#ffbe79" stroke-width="1.51"/><path d="M-19,430L-212,531L-13,581Z" fill="#ffc479" stroke="#ffc479" stroke-width="1.51"/><path d="M-197,-202L-198,-58L-18,-108Z" fill="#fff5b3" stroke="#fff5b3" stroke-width="1.51"/><path d="M-67,653L-170,646L-46,800Z" fill="#ffaf71" stroke="#ffaf71" stroke-width="1.51"/><path d="M-170,646L-184,874L-46,800Z" fill="#ffa870" stroke="#ffa870" stroke-width="1.51"/><path d="M-204,137L-178,192L-71,89Z" fill="#ffe89a" stroke="#ffe89a" stroke-width="1.51"/><path d="M-198,-58L-204,137L-71,89Z" fill="#ffeda3" stroke="#ffeda3" stroke-width="1.51"/><path d="M-165,1007L-184,874L-129,1342Z" fill="#ef956d" stroke="#ef956d" stroke-width="1.51"/><path d="M-178,192L-212,531L-116,360Z" fill="#ffd486" stroke="#ffd486" stroke-width="1.51"/><path d="M-139,1193L-165,1007L-129,1342Z" fill="#e3906d" stroke="#e3906d" stroke-width="1.51"/><path d="M-204,137L-212,531L-178,192Z" fill="#ffdb8e" stroke="#ffdb8e" stroke-width="1.51"/><path d="M-212,531L-184,874L-170,646Z" fill="#ffb378" stroke="#ffb378" stroke-width="1.51"/><path d="M-204,137L-198,-58L-197,-202Z" fill="#fff3af" stroke="#fff3af" stroke-width="1.51"/></svg>