<svg xmlns="http://www.w3.org/2000/svg" width="1920" height="1080"><path d="M-197,-202L-19,-185L448,-194Z" fill="#e9f7e5" stroke="#e9f7e5" stroke-width="1.51"/><path d="M-197,-202L448,-194L837,-244Z" fill="#dcf2d7" stroke="#dcf2d7" stroke-width="1.51"/><path d="M897,1322L123,1345L1016,1332Z" fill="#538e58" stroke="#538e58" stroke-width="1.51"/><path d="M837,-244L1155,-230L1369,-265Z" fill="#aadaac" stroke="#aadaac" stroke-width="1.51"/><path d="M1016,1332L123,1345L1668,1345Z" fill="#3f8549" stroke="#3f8549" stroke-width="1.51"/><path d="M1451,1329L1016,1332L1668,1345Z" fill="#1c7337" stroke="#1c7337" stroke-width="1.51"/><path d="M1654,-192L1821,-173L1911,-185Z" fill="#86b58a" stroke="#86b58a" stroke-width="1.51"/><path d="M1654,-192L1911,-185L2060,-232Z" fill="#84b187" stroke="#84b187" stroke-width="1.51"/><path d="M1516,-223L1654,-192L2060,-232Z" fill="#8ab98e" stroke="#8ab98e" stroke-width="1.51"/><path d="M1369,-265L1516,-223L2060,-232Z" fill="#8ebe93" stroke="#8ebe93" stroke-width="1.51"/><path d="M1966,836L2063,873L2076,642Z" fill="#207c3d" stroke="#207c3d" stroke-width="1.51"/><path d="M1952,652L1966,836L2076,642Z" fill="#298341" stroke="#298341" stroke-width="1.51"/><path d="M2070,987L1968,1181L2098,1144Z" fill="#04642a" stroke="#04642a" stroke-width="1.51"/><path d="M2076,642L2063,873L2098,1144Z" fill="#177135" stroke="#177135" stroke-width="1.51"/><path d="M2063,873L2070,987L2098,1144Z" fill="#0d692f" stroke="#0d692f" stroke-width="1.51"/><path d="M2047,56L1886,188L2100,282Z" fill="#669c69" stroke="#669c69" stroke-width="1.51"/><path d="M2079,-104L2047,56L2100,282Z" fill="#6c9b6f" stroke="#6c9b6f" stroke-width="1.51"/><path d="M2100,282L1956,361L2118,381Z" fill="#55935a" stroke="#55935a" stroke-width="1.51"/><path d="M1956,361L2053,487L2118,381Z" fill="#4e9055" stroke="#4e9055" stroke-width="1.51"/><path d="M2053,487L2076,642L2118,381Z" fill="#42894c" stroke="#42894c" stroke-width="1.51"/><path d="M2076,642L2098,1144L2118,381Z" fill="#267b3e" stroke="#267b3e" stroke-width="1.51"/><path d="M2079,-104L2100,282L2118,381Z" fill="#629565" stroke="#629565" stroke-width="1.51"/><path d="M2098,1144L1968,1181L2118,1295Z" fill="#005a24" stroke="#005a24" stroke-width="1.51"/><path d="M1968,1181L1940,1323L2118,1295Z" fill="#005723" stroke="#005723" stroke-width="1.51"/><path d="M2118,381L2098,1144L2118,1295Z" fill="#126b31" stroke="#126b31" stroke-width="1.51"/><path d="M1907,1007L1968,1181L2070,987Z" fill="#096b2e" stroke="#096b2e" stroke-width="1.51"/><path d="M2053,487L1915,557L2076,642Z" fill="#3d8a49" stroke="#3d8a49" stroke-width="1.51"/><path d="M1915,557L1952,652L2076,642Z" fill="#368a48" stroke="#368a48" stroke-width="1.51"/><path d="M1909,-80L2047,56L2079,-104Z" fill="#77a379" stroke="#77a379" stroke-width="1.51"/><path d="M1886,188L1956,361L2100,282Z" fill="#5e9b62" stroke="#5e9b62" stroke-width="1.51"/><path d="M1909,-80L1935,50L2047,56Z" fill="#75a578" stroke="#75a578" stroke-width="1.51"/><path d="M1935,50L1886,188L2047,56Z" fill="#6ea472" stroke="#6ea472" stroke-width="1.51"/><path d="M2063,873L1966,836L2070,987Z" fill="#177336" stroke="#177336" stroke-width="1.51"/><path d="M1966,836L1907,1007L2070,987Z" fill="#137435" stroke="#137435" stroke-width="1.51"/><path d="M2060,-232L1911,-185L2079,-104Z" fill="#7da581" stroke="#7da581" stroke-width="1.51"/><path d="M1911,-185L1909,-80L2079,-104Z" fill="#7da880" stroke="#7da880" stroke-width="1.51"/><path d="M1956,361L1915,557L2053,487Z" fill="#499252" stroke="#499252" stroke-width="1.51"/><path d="M695,1288L123,1345L897,1322Z" fill="#5a935f" stroke="#5a935f" stroke-width="1.51"/><path d="M1830,1272L1668,1345L1940,1323Z" fill="#026027" stroke="#026027" stroke-width="1.51"/><path d="M1752,659L1839,888L1952,652Z" fill="#298d45" stroke="#298d45" stroke-width="1.51"/><path d="M1886,188L1729,274L1956,361Z" fill="#61a467" stroke="#61a467" stroke-width="1.51"/><path d="M1794,422L1915,557L1956,361Z" fill="#4e9a57" stroke="#4e9a57" stroke-width="1.51"/><path d="M1952,652L1839,888L1966,836Z" fill="#218440" stroke="#218440" stroke-width="1.51"/><path d="M1839,888L1907,1007L1966,836Z" fill="#187c39" stroke="#187c39" stroke-width="1.51"/><path d="M1907,1007L1835,1137L1968,1181Z" fill="#056d2d" stroke="#056d2d" stroke-width="1.51"/><path d="M1830,1272L1940,1323L1968,1181Z" fill="#005f26" stroke="#005f26" stroke-width="1.51"/><path d="M1835,1137L1830,1272L1968,1181Z" fill="#00672a" stroke="#00672a" stroke-width="1.51"/><path d="M1729,274L1794,422L1956,361Z" fill="#5ba262" stroke="#5ba262" stroke-width="1.51"/><path d="M1915,557L1752,659L1952,652Z" fill="#38924b" stroke="#38924b" stroke-width="1.51"/><path d="M1794,422L1776,529L1915,557Z" fill="#499b55" stroke="#499b55" stroke-width="1.51"/><path d="M1746,43L1886,188L1935,50Z" fill="#72ab75" stroke="#72ab75" stroke-width="1.51"/><path d="M1909,-80L1772,-42L1935,50Z" fill="#7aad7d" stroke="#7aad7d" stroke-width="1.51"/><path d="M1821,-173L1909,-80L1911,-185Z" fill="#81af84" stroke="#81af84" stroke-width="1.51"/><path d="M1772,-42L1746,43L1935,50Z" fill="#79af7d" stroke="#79af7d" stroke-width="1.51"/><path d="M1839,888L1762,989L1907,1007Z" fill="#157c39" stroke="#157c39" stroke-width="1.51"/><path d="M1762,989L1835,1137L1907,1007Z" fill="#0d7634" stroke="#0d7634" stroke-width="1.51"/><path d="M1776,529L1752,659L1915,557Z" fill="#3f9750" stroke="#3f9750" stroke-width="1.51"/><path d="M1821,-173L1772,-42L1909,-80Z" fill="#81b284" stroke="#81b284" stroke-width="1.51"/><path d="M407,1286L123,1345L695,1288Z" fill="#659869" stroke="#659869" stroke-width="1.51"/><path d="M1746,43L1729,274L1886,188Z" fill="#6fac73" stroke="#6fac73" stroke-width="1.51"/><path d="M1664,231L1729,274L1746,43Z" fill="#70b075" stroke="#70b075" stroke-width="1.51"/><path d="M1582,1190L1668,1345L1830,1272Z" fill="#0a6a2e" stroke="#0a6a2e" stroke-width="1.51"/><path d="M1582,1190L1830,1272L1835,1137Z" fill="#076e2f" stroke="#076e2f" stroke-width="1.51"/><path d="M1591,892L1762,989L1839,888Z" fill="#1e853f" stroke="#1e853f" stroke-width="1.51"/><path d="M1752,659L1591,892L1839,888Z" fill="#278d46" stroke="#278d46" stroke-width="1.51"/><path d="M1762,989L1582,1190L1835,1137Z" fill="#0f7734" stroke="#0f7734" stroke-width="1.51"/><path d="M1654,-192L1772,-42L1821,-173Z" fill="#86b78a" stroke="#86b78a" stroke-width="1.51"/><path d="M1729,274L1687,411L1794,422Z" fill="#5da664" stroke="#5da664" stroke-width="1.51"/><path d="M1601,655L1591,892L1752,659Z" fill="#31974e" stroke="#31974e" stroke-width="1.51"/><path d="M1591,892L1601,952L1762,989Z" fill="#1f8741" stroke="#1f8741" stroke-width="1.51"/><path d="M1654,-192L1633,-69L1772,-42Z" fill="#87b98b" stroke="#87b98b" stroke-width="1.51"/><path d="M1687,411L1776,529L1794,422Z" fill="#52a25c" stroke="#52a25c" stroke-width="1.51"/><path d="M1593,44L1664,231L1746,43Z" fill="#78b47d" stroke="#78b47d" stroke-width="1.51"/><path d="M1601,952L1582,1190L1762,989Z" fill="#19803c" stroke="#19803c" stroke-width="1.51"/><path d="M1613,535L1752,659L1776,529Z" fill="#449d54" stroke="#449d54" stroke-width="1.51"/><path d="M1687,411L1613,535L1776,529Z" fill="#50a35c" stroke="#50a35c" stroke-width="1.51"/><path d="M1633,-69L1746,43L1772,-42Z" fill="#80b684" stroke="#80b684" stroke-width="1.51"/><path d="M1613,535L1601,655L1752,659Z" fill="#419e55" stroke="#419e55" stroke-width="1.51"/><path d="M1633,-69L1593,44L1746,43Z" fill="#81b885" stroke="#81b885" stroke-width="1.51"/><path d="M1506,788L1591,892L1601,655Z" fill="#30984e" stroke="#30984e" stroke-width="1.51"/><path d="M1664,231L1687,411L1729,274Z" fill="#65ac6b" stroke="#65ac6b" stroke-width="1.51"/><path d="M1226,1277L1016,1332L1451,1329Z" fill="#257c3e" stroke="#257c3e" stroke-width="1.51"/><path d="M1482,1158L1582,1190L1601,952Z" fill="#19803c" stroke="#19803c" stroke-width="1.51"/><path d="M1593,44L1494,184L1664,231Z" fill="#78b87d" stroke="#78b87d" stroke-width="1.51"/><path d="M1664,231L1528,399L1687,411Z" fill="#63ad6b" stroke="#63ad6b" stroke-width="1.51"/><path d="M1528,399L1613,535L1687,411Z" fill="#58a963" stroke="#58a963" stroke-width="1.51"/><path d="M1494,184L1528,399L1664,231Z" fill="#6db474" stroke="#6db474" stroke-width="1.51"/><path d="M1582,1190L1451,1329L1668,1345Z" fill="#116e32" stroke="#116e32" stroke-width="1.51"/><path d="M1516,-223L1633,-69L1654,-192Z" fill="#8cbf92" stroke="#8cbf92" stroke-width="1.51"/><path d="M1468,951L1482,1158L1601,952Z" fill="#218842" stroke="#218842" stroke-width="1.51"/><path d="M1500,636L1601,655L1613,535Z" fill="#45a359" stroke="#45a359" stroke-width="1.51"/><path d="M1458,-12L1593,44L1633,-69Z" fill="#85be8b" stroke="#85be8b" stroke-width="1.51"/><path d="M1516,-223L1458,-12L1633,-69Z" fill="#8dc292" stroke="#8dc292" stroke-width="1.51"/><path d="M1458,-12L1482,42L1593,44Z" fill="#85bf8a" stroke="#85bf8a" stroke-width="1.51"/><path d="M1482,42L1494,184L1593,44Z" fill="#7fbd85" stroke="#7fbd85" stroke-width="1.51"/><path d="M1500,636L1506,788L1601,655Z" fill="#3c9f55" stroke="#3c9f55" stroke-width="1.51"/><path d="M1528,399L1464,551L1613,535Z" fill="#55ab62" stroke="#55ab62" stroke-width="1.51"/><path d="M1464,551L1500,636L1613,535Z" fill="#4ca75d" stroke="#4ca75d" stroke-width="1.51"/><path d="M1482,1158L1451,1329L1582,1190Z" fill="#167837" stroke="#167837" stroke-width="1.51"/><path d="M1591,892L1468,951L1601,952Z" fill="#258d46" stroke="#258d46" stroke-width="1.51"/><path d="M1494,184L1381,271L1528,399Z" fill="#70b977" stroke="#70b977" stroke-width="1.51"/><path d="M1506,788L1468,951L1591,892Z" fill="#2b934b" stroke="#2b934b" stroke-width="1.51"/><path d="M-19,-185L99,-172L448,-194Z" fill="#e4f5df" stroke="#e4f5df" stroke-width="1.51"/><path d="M1468,951L1318,994L1482,1158Z" fill="#258c45" stroke="#258c45" stroke-width="1.51"/><path d="M1500,636L1348,716L1506,788Z" fill="#3ca257" stroke="#3ca257" stroke-width="1.51"/><path d="M1350,786L1468,951L1506,788Z" fill="#329a50" stroke="#329a50" stroke-width="1.51"/><path d="M1352,-26L1458,-12L1516,-223Z" fill="#90c695" stroke="#90c695" stroke-width="1.51"/><path d="M1369,-265L1352,-26L1516,-223Z" fill="#95ca9b" stroke="#95ca9b" stroke-width="1.51"/><path d="M1349,444L1464,551L1528,399Z" fill="#5db168" stroke="#5db168" stroke-width="1.51"/><path d="M1381,271L1349,444L1528,399Z" fill="#69b771" stroke="#69b771" stroke-width="1.51"/><path d="M1345,1166L1451,1329L1482,1158Z" fill="#1b7c3b" stroke="#1b7c3b" stroke-width="1.51"/><path d="M1318,994L1345,1166L1482,1158Z" fill="#238942" stroke="#238942" stroke-width="1.51"/><path d="M1482,42L1353,63L1494,184Z" fill="#83c188" stroke="#83c188" stroke-width="1.51"/><path d="M1348,716L1350,786L1506,788Z" fill="#39a256" stroke="#39a256" stroke-width="1.51"/><path d="M1280,1263L1226,1277L1451,1329Z" fill="#1f7b3c" stroke="#1f7b3c" stroke-width="1.51"/><path d="M1464,551L1318,591L1500,636Z" fill="#4eab5f" stroke="#4eab5f" stroke-width="1.51"/><path d="M1318,591L1348,716L1500,636Z" fill="#49aa5e" stroke="#49aa5e" stroke-width="1.51"/><path d="M1353,63L1381,271L1494,184Z" fill="#7ec083" stroke="#7ec083" stroke-width="1.51"/><path d="M1350,786L1318,994L1468,951Z" fill="#30974e" stroke="#30974e" stroke-width="1.51"/><path d="M1458,-12L1353,63L1482,42Z" fill="#88c48d" stroke="#88c48d" stroke-width="1.51"/><path d="M1345,1166L1280,1263L1451,1329Z" fill="#1f7c3c" stroke="#1f7c3c" stroke-width="1.51"/><path d="M1352,-26L1353,63L1458,-12Z" fill="#8cc791" stroke="#8cc791" stroke-width="1.51"/><path d="M1349,444L1318,591L1464,551Z" fill="#58b166" stroke="#58b166" stroke-width="1.51"/><path d="M1225,484L1318,591L1349,444Z" fill="#5eb76b" stroke="#5eb76b" stroke-width="1.51"/><path d="M1195,855L1318,994L1350,786Z" fill="#369f54" stroke="#369f54" stroke-width="1.51"/><path d="M1232,55L1181,203L1353,63Z" fill="#8acb8f" stroke="#8acb8f" stroke-width="1.51"/><path d="M1218,-68L1352,-26L1369,-265Z" fill="#98ce9d" stroke="#98ce9d" stroke-width="1.51"/><path d="M1155,-230L1218,-68L1369,-265Z" fill="#9ed3a3" stroke="#9ed3a3" stroke-width="1.51"/><path d="M1198,387L1349,444L1381,271Z" fill="#6ebe77" stroke="#6ebe77" stroke-width="1.51"/><path d="M1181,203L1198,387L1381,271Z" fill="#79c580" stroke="#79c580" stroke-width="1.51"/><path d="M1353,63L1181,203L1381,271Z" fill="#82c687" stroke="#82c687" stroke-width="1.51"/><path d="M448,-194L636,-194L837,-244Z" fill="#cbeac5" stroke="#cbeac5" stroke-width="1.51"/><path d="M1318,994L1164,1195L1345,1166Z" fill="#288e46" stroke="#288e46" stroke-width="1.51"/><path d="M1318,591L1131,648L1348,716Z" fill="#4eb062" stroke="#4eb062" stroke-width="1.51"/><path d="M1198,387L1225,484L1349,444Z" fill="#69bd72" stroke="#69bd72" stroke-width="1.51"/><path d="M1348,716L1195,855L1350,786Z" fill="#3da659" stroke="#3da659" stroke-width="1.51"/><path d="M1218,-68L1232,55L1352,-26Z" fill="#92ce98" stroke="#92ce98" stroke-width="1.51"/><path d="M1352,-26L1232,55L1353,63Z" fill="#8dca93" stroke="#8dca93" stroke-width="1.51"/><path d="M1131,648L1195,855L1348,716Z" fill="#46ad5f" stroke="#46ad5f" stroke-width="1.51"/><path d="M1164,1195L1280,1263L1345,1166Z" fill="#258642" stroke="#258642" stroke-width="1.51"/><path d="M1091,1026L1164,1195L1318,994Z" fill="#33954c" stroke="#33954c" stroke-width="1.51"/><path d="M1129,971L1091,1026L1318,994Z" fill="#389b52" stroke="#389b52" stroke-width="1.51"/><path d="M1195,855L1129,971L1318,994Z" fill="#389e53" stroke="#389e53" stroke-width="1.51"/><path d="M1225,484L1131,648L1318,591Z" fill="#5bb769" stroke="#5bb769" stroke-width="1.51"/><path d="M1164,1195L1226,1277L1280,1263Z" fill="#288342" stroke="#288342" stroke-width="1.51"/><path d="M1131,648L1037,723L1195,855Z" fill="#4eb163" stroke="#4eb163" stroke-width="1.51"/><path d="M1181,203L1051,256L1198,387Z" fill="#82c985" stroke="#82c985" stroke-width="1.51"/><path d="M1155,-230L1035,-58L1218,-68Z" fill="#a3d6a4" stroke="#a3d6a4" stroke-width="1.51"/><path d="M1026,484L1131,648L1225,484Z" fill="#67bd6f" stroke="#67bd6f" stroke-width="1.51"/><path d="M1001,54L1181,203L1232,55Z" fill="#93d095" stroke="#93d095" stroke-width="1.51"/><path d="M1218,-68L1035,-58L1232,55Z" fill="#9bd39d" stroke="#9bd39d" stroke-width="1.51"/><path d="M1035,-58L1001,54L1232,55Z" fill="#9dd49d" stroke="#9dd49d" stroke-width="1.51"/><path d="M1017,-159L1035,-58L1155,-230Z" fill="#a9d9a9" stroke="#a9d9a9" stroke-width="1.51"/><path d="M1198,387L1053,411L1225,484Z" fill="#71c277" stroke="#71c277" stroke-width="1.51"/><path d="M1164,1195L1016,1332L1226,1277Z" fill="#308544" stroke="#308544" stroke-width="1.51"/><path d="M1053,411L1026,484L1225,484Z" fill="#72c277" stroke="#72c277" stroke-width="1.51"/><path d="M837,-244L1017,-159L1155,-230Z" fill="#b1ddae" stroke="#b1ddae" stroke-width="1.51"/><path d="M1091,1026L1048,1187L1164,1195Z" fill="#37934c" stroke="#37934c" stroke-width="1.51"/><path d="M1048,1187L1016,1332L1164,1195Z" fill="#378a47" stroke="#378a47" stroke-width="1.51"/><path d="M1001,54L1051,256L1181,203Z" fill="#92d092" stroke="#92d092" stroke-width="1.51"/><path d="M1037,723L1013,808L1195,855Z" fill="#4eae61" stroke="#4eae61" stroke-width="1.51"/><path d="M1051,256L1053,411L1198,387Z" fill="#7ec881" stroke="#7ec881" stroke-width="1.51"/><path d="M1013,808L1129,971L1195,855Z" fill="#46a65b" stroke="#46a65b" stroke-width="1.51"/><path d="M1026,484L897,570L1037,723Z" fill="#6cc072" stroke="#6cc072" stroke-width="1.51"/><path d="M1013,808L1091,1026L1129,971Z" fill="#45a459" stroke="#45a459" stroke-width="1.51"/><path d="M1026,484L1037,723L1131,648Z" fill="#63ba6c" stroke="#63ba6c" stroke-width="1.51"/><path d="M894,1013L871,1116L1048,1187Z" fill="#489d55" stroke="#489d55" stroke-width="1.51"/><path d="M1051,256L930,278L1053,411Z" fill="#89cd88" stroke="#89cd88" stroke-width="1.51"/><path d="M894,1013L1048,1187L1091,1026Z" fill="#439c53" stroke="#439c53" stroke-width="1.51"/><path d="M1013,808L894,1013L1091,1026Z" fill="#4ca65c" stroke="#4ca65c" stroke-width="1.51"/><path d="M840,92L930,278L1001,54Z" fill="#a0d89b" stroke="#a0d89b" stroke-width="1.51"/><path d="M897,570L842,656L1037,723Z" fill="#6abf71" stroke="#6abf71" stroke-width="1.51"/><path d="M897,1322L1016,1332L1048,1187Z" fill="#3d8949" stroke="#3d8949" stroke-width="1.51"/><path d="M1001,54L930,278L1051,256Z" fill="#96d393" stroke="#96d393" stroke-width="1.51"/><path d="M868,423L1026,484L1053,411Z" fill="#7ec87e" stroke="#7ec87e" stroke-width="1.51"/><path d="M930,278L868,423L1053,411Z" fill="#88cd85" stroke="#88cd85" stroke-width="1.51"/><path d="M830,821L894,1013L1013,808Z" fill="#57ae64" stroke="#57ae64" stroke-width="1.51"/><path d="M871,1116L897,1322L1048,1187Z" fill="#43934f" stroke="#43934f" stroke-width="1.51"/><path d="M1017,-159L864,-7L1035,-58Z" fill="#addca9" stroke="#addca9" stroke-width="1.51"/><path d="M864,-7L1001,54L1035,-58Z" fill="#a8daa4" stroke="#a8daa4" stroke-width="1.51"/><path d="M842,656L1013,808L1037,723Z" fill="#5db86a" stroke="#5db86a" stroke-width="1.51"/><path d="M842,656L830,821L1013,808Z" fill="#60b96c" stroke="#60b96c" stroke-width="1.51"/><path d="M868,423L897,570L1026,484Z" fill="#7cc87c" stroke="#7cc87c" stroke-width="1.51"/><path d="M785,-194L864,-7L1017,-159Z" fill="#b5e0b1" stroke="#b5e0b1" stroke-width="1.51"/><path d="M837,-244L785,-194L1017,-159Z" fill="#b9e2b5" stroke="#b9e2b5" stroke-width="1.51"/><path d="M864,-7L840,92L1001,54Z" fill="#a9dba5" stroke="#a9dba5" stroke-width="1.51"/><path d="M561,1261L407,1286L695,1288Z" fill="#5e9862" stroke="#5e9862" stroke-width="1.51"/><path d="M830,821L749,990L894,1013Z" fill="#5bad66" stroke="#5bad66" stroke-width="1.51"/><path d="M871,1116L768,1152L897,1322Z" fill="#4c9755" stroke="#4c9755" stroke-width="1.51"/><path d="M840,92L735,235L930,278Z" fill="#a0d89c" stroke="#a0d89c" stroke-width="1.51"/><path d="M735,235L785,349L930,278Z" fill="#9ad695" stroke="#9ad695" stroke-width="1.51"/><path d="M785,349L868,423L930,278Z" fill="#91d18d" stroke="#91d18d" stroke-width="1.51"/><path d="M749,990L871,1116L894,1013Z" fill="#54a55f" stroke="#54a55f" stroke-width="1.51"/><path d="M768,1152L695,1288L897,1322Z" fill="#4e9355" stroke="#4e9355" stroke-width="1.51"/><path d="M868,423L717,544L897,570Z" fill="#81ca80" stroke="#81ca80" stroke-width="1.51"/><path d="M717,544L842,656L897,570Z" fill="#7ac67b" stroke="#7ac67b" stroke-width="1.51"/><path d="M785,-194L679,-55L864,-7Z" fill="#bce3b7" stroke="#bce3b7" stroke-width="1.51"/><path d="M714,714L830,821L842,656Z" fill="#6bbf74" stroke="#6bbf74" stroke-width="1.51"/><path d="M743,59L840,92L864,-7Z" fill="#afdeaa" stroke="#afdeaa" stroke-width="1.51"/><path d="M785,349L717,544L868,423Z" fill="#8dcf89" stroke="#8dcf89" stroke-width="1.51"/><path d="M749,990L768,1152L871,1116Z" fill="#55a35e" stroke="#55a35e" stroke-width="1.51"/><path d="M679,-55L743,59L864,-7Z" fill="#b6e2b1" stroke="#b6e2b1" stroke-width="1.51"/><path d="M99,-172L312,-161L448,-194Z" fill="#def2d9" stroke="#def2d9" stroke-width="1.51"/><path d="M699,821L749,990L830,821Z" fill="#64b46e" stroke="#64b46e" stroke-width="1.51"/><path d="M714,714L699,821L830,821Z" fill="#6bbc74" stroke="#6bbc74" stroke-width="1.51"/><path d="M636,-194L785,-194L837,-244Z" fill="#c3e6bd" stroke="#c3e6bd" stroke-width="1.51"/><path d="M743,59L735,235L840,92Z" fill="#acdda6" stroke="#acdda6" stroke-width="1.51"/><path d="M717,544L714,714L842,656Z" fill="#79c57c" stroke="#79c57c" stroke-width="1.51"/><path d="M636,-194L630,-93L679,-55Z" fill="#c6e8c0" stroke="#c6e8c0" stroke-width="1.51"/><path d="M634,240L735,235L743,59Z" fill="#addea6" stroke="#addea6" stroke-width="1.51"/><path d="M749,990L627,1137L768,1152Z" fill="#5ba562" stroke="#5ba562" stroke-width="1.51"/><path d="M584,392L717,544L785,349Z" fill="#95d390" stroke="#95d390" stroke-width="1.51"/><path d="M735,235L634,240L785,349Z" fill="#a3da9d" stroke="#a3da9d" stroke-width="1.51"/><path d="M634,240L584,392L785,349Z" fill="#a1d99b" stroke="#a1d99b" stroke-width="1.51"/><path d="M636,-194L679,-55L785,-194Z" fill="#c4e7be" stroke="#c4e7be" stroke-width="1.51"/><path d="M562,129L634,240L743,59Z" fill="#b4e1ad" stroke="#b4e1ad" stroke-width="1.51"/><path d="M627,1137L695,1288L768,1152Z" fill="#589d5d" stroke="#589d5d" stroke-width="1.51"/><path d="M576,560L714,714L717,544Z" fill="#83ca84" stroke="#83ca84" stroke-width="1.51"/><path d="M699,821L551,994L749,990Z" fill="#68b370" stroke="#68b370" stroke-width="1.51"/><path d="M551,994L627,1137L749,990Z" fill="#63ab6a" stroke="#63ab6a" stroke-width="1.51"/><path d="M679,-55L562,129L743,59Z" fill="#bae4b4" stroke="#bae4b4" stroke-width="1.51"/><path d="M576,560L575,730L714,714Z" fill="#80c883" stroke="#80c883" stroke-width="1.51"/><path d="M584,392L576,560L717,544Z" fill="#91d28e" stroke="#91d28e" stroke-width="1.51"/><path d="M627,1137L561,1261L695,1288Z" fill="#5b9b60" stroke="#5b9b60" stroke-width="1.51"/><path d="M585,791L551,994L699,821Z" fill="#70ba77" stroke="#70ba77" stroke-width="1.51"/><path d="M585,791L699,821L714,714Z" fill="#72bf7a" stroke="#72bf7a" stroke-width="1.51"/><path d="M575,730L585,791L714,714Z" fill="#77c37e" stroke="#77c37e" stroke-width="1.51"/><path d="M630,-93L477,-20L679,-55Z" fill="#c6e8bf" stroke="#c6e8bf" stroke-width="1.51"/><path d="M477,-20L562,129L679,-55Z" fill="#c2e7bb" stroke="#c2e7bb" stroke-width="1.51"/><path d="M441,248L584,392L634,240Z" fill="#acdea5" stroke="#acdea5" stroke-width="1.51"/><path d="M448,-194L630,-93L636,-194Z" fill="#ccebc7" stroke="#ccebc7" stroke-width="1.51"/><path d="M551,994L481,1006L627,1137Z" fill="#69ad6f" stroke="#69ad6f" stroke-width="1.51"/><path d="M562,129L441,248L634,240Z" fill="#b5e1ad" stroke="#b5e1ad" stroke-width="1.51"/><path d="M448,-194L477,-20L630,-93Z" fill="#cdecc7" stroke="#cdecc7" stroke-width="1.51"/><path d="M388,1174L561,1261L627,1137Z" fill="#63a168" stroke="#63a168" stroke-width="1.51"/><path d="M481,1006L388,1174L627,1137Z" fill="#6aab6e" stroke="#6aab6e" stroke-width="1.51"/><path d="M414,578L380,741L575,730Z" fill="#89cc8c" stroke="#89cc8c" stroke-width="1.51"/><path d="M380,741L383,820L575,730Z" fill="#81c687" stroke="#81c687" stroke-width="1.51"/><path d="M414,578L575,730L576,560Z" fill="#8bcd8c" stroke="#8bcd8c" stroke-width="1.51"/><path d="M441,248L382,362L584,392Z" fill="#addea6" stroke="#addea6" stroke-width="1.51"/><path d="M414,578L576,560L584,392Z" fill="#97d493" stroke="#97d493" stroke-width="1.51"/><path d="M382,362L414,578L584,392Z" fill="#a2d99d" stroke="#a2d99d" stroke-width="1.51"/><path d="M481,1006L551,994L585,791Z" fill="#70b678" stroke="#70b678" stroke-width="1.51"/><path d="M383,820L481,1006L585,791Z" fill="#78bc7e" stroke="#78bc7e" stroke-width="1.51"/><path d="M575,730L383,820L585,791Z" fill="#7cc482" stroke="#7cc482" stroke-width="1.51"/><path d="M477,-20L398,119L562,129Z" fill="#c4e8bc" stroke="#c4e8bc" stroke-width="1.51"/><path d="M388,1174L407,1286L561,1261Z" fill="#659e69" stroke="#659e69" stroke-width="1.51"/><path d="M398,119L441,248L562,129Z" fill="#bde5b6" stroke="#bde5b6" stroke-width="1.51"/><path d="M302,1256L123,1345L407,1286Z" fill="#6d9c70" stroke="#6d9c70" stroke-width="1.51"/><path d="M298,-33L398,119L477,-20Z" fill="#cdebc6" stroke="#cdebc6" stroke-width="1.51"/><path d="M448,-194L312,-161L477,-20Z" fill="#d5efcf" stroke="#d5efcf" stroke-width="1.51"/><path d="M312,-161L298,-33L477,-20Z" fill="#d6efcf" stroke="#d6efcf" stroke-width="1.51"/><path d="M383,820L293,829L481,1006Z" fill="#7ebe84" stroke="#7ebe84" stroke-width="1.51"/><path d="M293,829L239,1039L481,1006Z" fill="#7cba81" stroke="#7cba81" stroke-width="1.51"/><path d="M239,1039L388,1174L481,1006Z" fill="#74b078" stroke="#74b078" stroke-width="1.51"/><path d="M250,391L228,518L382,362Z" fill="#aedea9" stroke="#aedea9" stroke-width="1.51"/><path d="M298,-33L303,99L398,119Z" fill="#ceecc6" stroke="#ceecc6" stroke-width="1.51"/><path d="M382,362L228,518L414,578Z" fill="#a5daa1" stroke="#a5daa1" stroke-width="1.51"/><path d="M398,119L329,232L441,248Z" fill="#bfe5b7" stroke="#bfe5b7" stroke-width="1.51"/><path d="M329,232L382,362L441,248Z" fill="#b8e3b0" stroke="#b8e3b0" stroke-width="1.51"/><path d="M239,1039L238,1120L388,1174Z" fill="#76af7a" stroke="#76af7a" stroke-width="1.51"/><path d="M313,739L380,741L414,578Z" fill="#8ece91" stroke="#8ece91" stroke-width="1.51"/><path d="M388,1174L302,1256L407,1286Z" fill="#6ba16e" stroke="#6ba16e" stroke-width="1.51"/><path d="M228,518L313,739L414,578Z" fill="#99d398" stroke="#99d398" stroke-width="1.51"/><path d="M303,99L329,232L398,119Z" fill="#c6e9bf" stroke="#c6e9bf" stroke-width="1.51"/><path d="M380,741L313,739L383,820Z" fill="#87c98d" stroke="#87c98d" stroke-width="1.51"/><path d="M329,232L250,391L382,362Z" fill="#b7e2b0" stroke="#b7e2b0" stroke-width="1.51"/><path d="M313,739L293,829L383,820Z" fill="#87c78c" stroke="#87c78c" stroke-width="1.51"/><path d="M238,1120L302,1256L388,1174Z" fill="#71a874" stroke="#71a874" stroke-width="1.51"/><path d="M25,1324L-129,1342L123,1345Z" fill="#779c7a" stroke="#779c7a" stroke-width="1.51"/><path d="M97,564L79,717L228,518Z" fill="#a4d8a3" stroke="#a4d8a3" stroke-width="1.51"/><path d="M137,982L239,1039L293,829Z" fill="#82bd88" stroke="#82bd88" stroke-width="1.51"/><path d="M139,865L137,982L293,829Z" fill="#88c28d" stroke="#88c28d" stroke-width="1.51"/><path d="M298,-33L171,49L303,99Z" fill="#d3eecc" stroke="#d3eecc" stroke-width="1.51"/><path d="M138,-83L298,-33L312,-161Z" fill="#dcf1d6" stroke="#dcf1d6" stroke-width="1.51"/><path d="M228,518L79,717L313,739Z" fill="#9ad39b" stroke="#9ad39b" stroke-width="1.51"/><path d="M303,99L187,212L329,232Z" fill="#c7e9bf" stroke="#c7e9bf" stroke-width="1.51"/><path d="M187,212L250,391L329,232Z" fill="#bfe5b8" stroke="#bfe5b8" stroke-width="1.51"/><path d="M139,865L293,829L313,739Z" fill="#8ac78f" stroke="#8ac78f" stroke-width="1.51"/><path d="M79,717L139,865L313,739Z" fill="#90cc95" stroke="#90cc95" stroke-width="1.51"/><path d="M99,-172L138,-83L312,-161Z" fill="#e2f4dc" stroke="#e2f4dc" stroke-width="1.51"/><path d="M238,1120L98,1140L302,1256Z" fill="#76ab7a" stroke="#76ab7a" stroke-width="1.51"/><path d="M98,1140L123,1345L302,1256Z" fill="#75a378" stroke="#75a378" stroke-width="1.51"/><path d="M171,49L187,212L303,99Z" fill="#cfecc8" stroke="#cfecc8" stroke-width="1.51"/><path d="M187,212L115,337L250,391Z" fill="#bfe6b9" stroke="#bfe6b9" stroke-width="1.51"/><path d="M138,-83L171,49L298,-33Z" fill="#daf1d4" stroke="#daf1d4" stroke-width="1.51"/><path d="M115,337L228,518L250,391Z" fill="#b4e1ae" stroke="#b4e1ae" stroke-width="1.51"/><path d="M115,337L97,564L228,518Z" fill="#b0dfac" stroke="#b0dfac" stroke-width="1.51"/><path d="M98,1140L238,1120L239,1039Z" fill="#7bb27f" stroke="#7bb27f" stroke-width="1.51"/><path d="M137,982L98,1140L239,1039Z" fill="#80b684" stroke="#80b684" stroke-width="1.51"/><path d="M-19,430L97,564L115,337Z" fill="#b8e2b3" stroke="#b8e2b3" stroke-width="1.51"/><path d="M98,1140L25,1324L123,1345Z" fill="#78a37b" stroke="#78a37b" stroke-width="1.51"/><path d="M-71,89L30,251L171,49Z" fill="#d7efd0" stroke="#d7efd0" stroke-width="1.51"/><path d="M171,49L30,251L187,212Z" fill="#cfecc8" stroke="#cfecc8" stroke-width="1.51"/><path d="M30,251L115,337L187,212Z" fill="#c7e9c1" stroke="#c7e9c1" stroke-width="1.51"/><path d="M138,-83L-18,-108L171,49Z" fill="#e0f3db" stroke="#e0f3db" stroke-width="1.51"/><path d="M-18,-108L-71,89L171,49Z" fill="#e0f3da" stroke="#e0f3da" stroke-width="1.51"/><path d="M-18,1165L25,1324L98,1140Z" fill="#7dab80" stroke="#7dab80" stroke-width="1.51"/><path d="M-42,1010L98,1140L137,982Z" fill="#85b98a" stroke="#85b98a" stroke-width="1.51"/><path d="M99,-172L-18,-108L138,-83Z" fill="#e7f5e1" stroke="#e7f5e1" stroke-width="1.51"/><path d="M79,717L-46,800L139,865Z" fill="#95cc9a" stroke="#95cc9a" stroke-width="1.51"/><path d="M-42,1010L137,982L139,865Z" fill="#8abf8f" stroke="#8abf8f" stroke-width="1.51"/><path d="M-46,800L-42,1010L139,865Z" fill="#90c595" stroke="#90c595" stroke-width="1.51"/><path d="M-13,581L79,717L97,564Z" fill="#a5d8a5" stroke="#a5d8a5" stroke-width="1.51"/><path d="M-19,430L-13,581L97,564Z" fill="#b0dead" stroke="#b0dead" stroke-width="1.51"/><path d="M-42,1010L-18,1165L98,1140Z" fill="#83b587" stroke="#83b587" stroke-width="1.51"/><path d="M30,251L-19,430L115,337Z" fill="#c3e7bd" stroke="#c3e7bd" stroke-width="1.51"/><path d="M-13,581L-67,653L79,717Z" fill="#a4d7a5" stroke="#a4d7a5" stroke-width="1.51"/><path d="M-19,-185L-18,-108L99,-172Z" fill="#eaf7e5" stroke="#eaf7e5" stroke-width="1.51"/><path d="M-67,653L-46,800L79,717Z" fill="#9cd3a1" stroke="#9cd3a1" stroke-width="1.51"/><path d="M-46,800L-184,874L-42,1010Z" fill="#93c799" stroke="#93c799" stroke-width="1.51"/><path d="M-18,1165L-139,1193L25,1324Z" fill="#7ea981" stroke="#7ea981" stroke-width="1.51"/><path d="M-139,1193L-129,1342L25,1324Z" fill="#7ca37f" stroke="#7ca37f" stroke-width="1.51"/><path d="M-71,89L-178,192L30,251Z" fill="#d6efd0" stroke="#d6efd0" stroke-width="1.51"/><path d="M-178,192L-116,360L30,251Z" fill="#ceebc8" stroke="#ceebc8" stroke-width="1.51"/><path d="M-116,360L-19,430L30,251Z" fill="#c5e8c0" stroke="#c5e8c0" stroke-width="1.51"/><path d="M-184,874L-165,1007L-42,1010Z" fill="#90c195" stroke="#90c195" stroke-width="1.51"/><path d="M-165,1007L-139,1193L-42,1010Z" fill="#8ab98e" stroke="#8ab98e" stroke-width="1.51"/><path d="M-116,360L-212,531L-19,430Z" fill="#bee4b9" stroke="#bee4b9" stroke-width="1.51"/><path d="M-198,-58L-71,89L-18,-108Z" fill="#e6f6e1" stroke="#e6f6e1" stroke-width="1.51"/><path d="M-19,-185L-197,-202L-18,-108Z" fill="#edf8ea" stroke="#edf8ea" stroke-width="1.51"/><path d="M-42,1010L-139,1193L-18,1165Z" fill="#85b488" stroke="#85b488" stroke-width="1.51"/><path d="M-170,646L-67,653L-13,581Z" fill="#a9d9a9" stroke="#a9d9a9" stroke-width="1.51"/><path d="M-212,531L-170,646L-13,581Z" fill="#afdcad" stroke="#afdcad" stroke-width="1.51"/><path d="M-19,430L-212,531L-13,581Z" fill="#b5e0b2" stroke="#b5e0b2" stroke-width="1.51"/><path d="M-197,-202L-198,-58L-18,-108Z" fill="#edf8e9" stroke="#edf8e9" stroke-width="1.51"/><path d="M-67,653L-170,646L-46,800Z" fill="#a2d5a6" stroke="#a2d5a6" stroke-width="1.51"/><path d="M-170,646L-184,874L-46,800Z" fill="#9cd1a2" stroke="#9cd1a2" stroke-width="1.51"/><path d="M-204,137L-178,192L-71,89Z" fill="#dcf1d6" stroke="#dcf1d6" stroke-width="1.51"/><path d="M-198,-58L-204,137L-71,89Z" fill="#e2f4dd" stroke="#e2f4dd" stroke-width="1.51"/><path d="M-165,1007L-184,874L-129,1342Z" fill="#8ab98f" stroke="#8ab98f" stroke-width="1.51"/><path d="M-178,192L-212,531L-116,360Z" fill="#c8e8c2" stroke="#c8e8c2" stroke-width="1.51"/><path d="M-139,1193L-165,1007L-129,1342Z" fill="#84b087" stroke="#84b087" stroke-width="1.51"/><path d="M-204,137L-212,531L-178,192Z" fill="#cfecca" stroke="#cfecca" stroke-width="1.51"/><path d="M-212,531L-184,874L-170,646Z" fill="#a7d8a9" stroke="#a7d8a9" stroke-width="1.51"/><path d="M-204,137L-198,-58L-197,-202Z" fill="#ebf7e6" stroke="#ebf7e6" stroke-width="1.51"/></svg>