<svg xmlns="http://www.w3.org/2000/svg" width="1920" height="1080"><path d="M-197,-202L-19,-185L448,-194Z" fill="#a7232e" stroke="#a7232e" stroke-width="1.51"/><path d="M-197,-202L448,-194L837,-244Z" fill="#b64d44" stroke="#b64d44" stroke-width="1.51"/><path d="M897,1322L123,1345L1016,1332Z" fill="#8f8195" stroke="#8f8195" stroke-width="1.51"/><path d="M837,-244L1155,-230L1369,-265Z" fill="#b47e82" stroke="#b47e82" stroke-width="1.51"/><path d="M1016,1332L123,1345L1668,1345Z" fill="#8890ad" stroke="#8890ad" stroke-width="1.51"/><path d="M1451,1329L1016,1332L1668,1345Z" fill="#5d7fa7" stroke="#5d7fa7" stroke-width="1.51"/><path d="M1654,-192L1821,-173L1911,-185Z" fill="#83516c" stroke="#83516c" stroke-width="1.51"/><path d="M1654,-192L1911,-185L2060,-232Z" fill="#794767" stroke="#794767" stroke-width="1.51"/><path d="M1516,-223L1654,-192L2060,-232Z" fill="#7e536c" stroke="#7e536c" stroke-width="1.51"/><path d="M1369,-265L1516,-223L2060,-232Z" fill="#7f5a6f" stroke="#7f5a6f" stroke-width="1.51"/><path d="M1966,836L2063,873L2076,642Z" fill="#6c8db6" stroke="#6c8db6" stroke-width="1.51"/><path d="M1952,652L1966,836L2076,642Z" fill="#7d98c1" stroke="#7d98c1" stroke-width="1.51"/><path d="M2070,987L1968,1181L2098,1144Z" fill="#26649e" stroke="#26649e" stroke-width="1.51"/><path d="M2076,642L2063,873L2098,1144Z" fill="#537da9" stroke="#537da9" stroke-width="1.51"/><path d="M2063,873L2070,987L2098,1144Z" fill="#366ea1" stroke="#366ea1" stroke-width="1.51"/><path d="M2047,56L1886,188L2100,282Z" fill="#977385" stroke="#977385" stroke-width="1.51"/><path d="M2079,-104L2047,56L2100,282Z" fill="#8b586b" stroke="#8b586b" stroke-width="1.51"/><path d="M2100,282L1956,361L2118,381Z" fill="#94879d" stroke="#94879d" stroke-width="1.51"/><path d="M1956,361L2053,487L2118,381Z" fill="#9491ab" stroke="#9491ab" stroke-width="1.51"/><path d="M2053,487L2076,642L2118,381Z" fill="#8c94b1" stroke="#8c94b1" stroke-width="1.51"/><path d="M2076,642L2098,1144L2118,381Z" fill="#738bb0" stroke="#738bb0" stroke-width="1.51"/><path d="M2079,-104L2100,282L2118,381Z" fill="#8f6a79" stroke="#8f6a79" stroke-width="1.51"/><path d="M2098,1144L1968,1181L2118,1295Z" fill="#185494" stroke="#185494" stroke-width="1.51"/><path d="M1968,1181L1940,1323L2118,1295Z" fill="#17508e" stroke="#17508e" stroke-width="1.51"/><path d="M2118,381L2098,1144L2118,1295Z" fill="#4472a0" stroke="#4472a0" stroke-width="1.51"/><path d="M1907,1007L1968,1181L2070,987Z" fill="#2e71ac" stroke="#2e71ac" stroke-width="1.51"/><path d="M2053,487L1915,557L2076,642Z" fill="#8e9ec2" stroke="#8e9ec2" stroke-width="1.51"/><path d="M1915,557L1952,652L2076,642Z" fill="#8aa0c6" stroke="#8aa0c6" stroke-width="1.51"/><path d="M1909,-80L2047,56L2079,-104Z" fill="#884c65" stroke="#884c65" stroke-width="1.51"/><path d="M1886,188L1956,361L2100,282Z" fill="#9c879d" stroke="#9c879d" stroke-width="1.51"/><path d="M1909,-80L1935,50L2047,56Z" fill="#915a72" stroke="#915a72" stroke-width="1.51"/><path d="M1935,50L1886,188L2047,56Z" fill="#986a80" stroke="#986a80" stroke-width="1.51"/><path d="M2063,873L1966,836L2070,987Z" fill="#5382b0" stroke="#5382b0" stroke-width="1.51"/><path d="M1966,836L1907,1007L2070,987Z" fill="#4b82b5" stroke="#4b82b5" stroke-width="1.51"/><path d="M2060,-232L1911,-185L2079,-104Z" fill="#743a59" stroke="#743a59" stroke-width="1.51"/><path d="M1911,-185L1909,-80L2079,-104Z" fill="#864563" stroke="#864563" stroke-width="1.51"/><path d="M1956,361L1915,557L2053,487Z" fill="#979ebe" stroke="#979ebe" stroke-width="1.51"/><path d="M695,1288L123,1345L897,1322Z" fill="#91798a" stroke="#91798a" stroke-width="1.51"/><path d="M1830,1272L1668,1345L1940,1323Z" fill="#215c96" stroke="#215c96" stroke-width="1.51"/><path d="M1752,659L1839,888L1952,652Z" fill="#82a8d0" stroke="#82a8d0" stroke-width="1.51"/><path d="M1886,188L1729,274L1956,361Z" fill="#a595a9" stroke="#a595a9" stroke-width="1.51"/><path d="M1794,422L1915,557L1956,361Z" fill="#9fa7c6" stroke="#9fa7c6" stroke-width="1.51"/><path d="M1952,652L1839,888L1966,836Z" fill="#729bca" stroke="#729bca" stroke-width="1.51"/><path d="M1839,888L1907,1007L1966,836Z" fill="#598fc3" stroke="#598fc3" stroke-width="1.51"/><path d="M1907,1007L1835,1137L1968,1181Z" fill="#2e74b4" stroke="#2e74b4" stroke-width="1.51"/><path d="M1830,1272L1940,1323L1968,1181Z" fill="#1d5c9e" stroke="#1d5c9e" stroke-width="1.51"/><path d="M1835,1137L1830,1272L1968,1181Z" fill="#266aae" stroke="#266aae" stroke-width="1.51"/><path d="M1729,274L1794,422L1956,361Z" fill="#a5a4ba" stroke="#a5a4ba" stroke-width="1.51"/><path d="M1915,557L1752,659L1952,652Z" fill="#91acd3" stroke="#91acd3" stroke-width="1.51"/><path d="M1794,422L1776,529L1915,557Z" fill="#9fb2d1" stroke="#9fb2d1" stroke-width="1.51"/><path d="M1746,43L1886,188L1935,50Z" fill="#9f7588" stroke="#9f7588" stroke-width="1.51"/><path d="M1909,-80L1772,-42L1935,50Z" fill="#965f77" stroke="#965f77" stroke-width="1.51"/><path d="M1821,-173L1909,-80L1911,-185Z" fill="#874c6a" stroke="#874c6a" stroke-width="1.51"/><path d="M1772,-42L1746,43L1935,50Z" fill="#9d6b7e" stroke="#9d6b7e" stroke-width="1.51"/><path d="M1839,888L1762,989L1907,1007Z" fill="#4f8fc2" stroke="#4f8fc2" stroke-width="1.51"/><path d="M1762,989L1835,1137L1907,1007Z" fill="#3883bb" stroke="#3883bb" stroke-width="1.51"/><path d="M1776,529L1752,659L1915,557Z" fill="#99b3d6" stroke="#99b3d6" stroke-width="1.51"/><path d="M1821,-173L1772,-42L1909,-80Z" fill="#925770" stroke="#925770" stroke-width="1.51"/><path d="M407,1286L123,1345L695,1288Z" fill="#906879" stroke="#906879" stroke-width="1.51"/><path d="M1746,43L1729,274L1886,188Z" fill="#a78a98" stroke="#a78a98" stroke-width="1.51"/><path d="M1664,231L1729,274L1746,43Z" fill="#ac949d" stroke="#ac949d" stroke-width="1.51"/><path d="M1582,1190L1668,1345L1830,1272Z" fill="#2d6fa7" stroke="#2d6fa7" stroke-width="1.51"/><path d="M1582,1190L1830,1272L1835,1137Z" fill="#2f76b4" stroke="#2f76b4" stroke-width="1.51"/><path d="M1591,892L1762,989L1839,888Z" fill="#5f9fca" stroke="#5f9fca" stroke-width="1.51"/><path d="M1752,659L1591,892L1839,888Z" fill="#77acd1" stroke="#77acd1" stroke-width="1.51"/><path d="M1762,989L1582,1190L1835,1137Z" fill="#3b84bc" stroke="#3b84bc" stroke-width="1.51"/><path d="M1654,-192L1772,-42L1821,-173Z" fill="#925a70" stroke="#925a70" stroke-width="1.51"/><path d="M1729,274L1687,411L1794,422Z" fill="#aab0c2" stroke="#aab0c2" stroke-width="1.51"/><path d="M1601,655L1591,892L1752,659Z" fill="#8fbbda" stroke="#8fbbda" stroke-width="1.51"/><path d="M1591,892L1601,952L1762,989Z" fill="#61a3cc" stroke="#61a3cc" stroke-width="1.51"/><path d="M1654,-192L1633,-69L1772,-42Z" fill="#9a6576" stroke="#9a6576" stroke-width="1.51"/><path d="M1687,411L1776,529L1794,422Z" fill="#a5b5ce" stroke="#a5b5ce" stroke-width="1.51"/><path d="M1593,44L1664,231L1746,43Z" fill="#ac8a92" stroke="#ac8a92" stroke-width="1.51"/><path d="M1601,952L1582,1190L1762,989Z" fill="#4995c4" stroke="#4995c4" stroke-width="1.51"/><path d="M1613,535L1752,659L1776,529Z" fill="#9fbfdb" stroke="#9fbfdb" stroke-width="1.51"/><path d="M1687,411L1613,535L1776,529Z" fill="#a7bfd6" stroke="#a7bfd6" stroke-width="1.51"/><path d="M1633,-69L1746,43L1772,-42Z" fill="#9f6f7e" stroke="#9f6f7e" stroke-width="1.51"/><path d="M1613,535L1601,655L1752,659Z" fill="#9fc3dd" stroke="#9fc3dd" stroke-width="1.51"/><path d="M1633,-69L1593,44L1746,43Z" fill="#a77984" stroke="#a77984" stroke-width="1.51"/><path d="M1506,788L1591,892L1601,655Z" fill="#92c0dc" stroke="#92c0dc" stroke-width="1.51"/><path d="M1664,231L1687,411L1729,274Z" fill="#adaab6" stroke="#adaab6" stroke-width="1.51"/><path d="M1226,1277L1016,1332L1451,1329Z" fill="#738cb2" stroke="#738cb2" stroke-width="1.51"/><path d="M1482,1158L1582,1190L1601,952Z" fill="#5697c6" stroke="#5697c6" stroke-width="1.51"/><path d="M1593,44L1494,184L1664,231Z" fill="#b89c9f" stroke="#b89c9f" stroke-width="1.51"/><path d="M1664,231L1528,399L1687,411Z" fill="#b4b8c3" stroke="#b4b8c3" stroke-width="1.51"/><path d="M1528,399L1613,535L1687,411Z" fill="#b3c3d4" stroke="#b3c3d4" stroke-width="1.51"/><path d="M1494,184L1528,399L1664,231Z" fill="#beb2b6" stroke="#beb2b6" stroke-width="1.51"/><path d="M1582,1190L1451,1329L1668,1345Z" fill="#4477a9" stroke="#4477a9" stroke-width="1.51"/><path d="M1516,-223L1633,-69L1654,-192Z" fill="#996675" stroke="#996675" stroke-width="1.51"/><path d="M1468,951L1482,1158L1601,952Z" fill="#65a6cd" stroke="#65a6cd" stroke-width="1.51"/><path d="M1500,636L1601,655L1613,535Z" fill="#abcbe2" stroke="#abcbe2" stroke-width="1.51"/><path d="M1458,-12L1593,44L1633,-69Z" fill="#b08086" stroke="#b08086" stroke-width="1.51"/><path d="M1516,-223L1458,-12L1633,-69Z" fill="#ac747d" stroke="#ac747d" stroke-width="1.51"/><path d="M1458,-12L1482,42L1593,44Z" fill="#ba8b8d" stroke="#ba8b8d" stroke-width="1.51"/><path d="M1482,42L1494,184L1593,44Z" fill="#bc9597" stroke="#bc9597" stroke-width="1.51"/><path d="M1500,636L1506,788L1601,655Z" fill="#a6cbe2" stroke="#a6cbe2" stroke-width="1.51"/><path d="M1528,399L1464,551L1613,535Z" fill="#bbd0df" stroke="#bbd0df" stroke-width="1.51"/><path d="M1464,551L1500,636L1613,535Z" fill="#b6d3e5" stroke="#b6d3e5" stroke-width="1.51"/><path d="M1482,1158L1451,1329L1582,1190Z" fill="#5489bb" stroke="#5489bb" stroke-width="1.51"/><path d="M1591,892L1468,951L1601,952Z" fill="#74afd2" stroke="#74afd2" stroke-width="1.51"/><path d="M1494,184L1381,271L1528,399Z" fill="#c9bebe" stroke="#c9bebe" stroke-width="1.51"/><path d="M1506,788L1468,951L1591,892Z" fill="#85bbd9" stroke="#85bbd9" stroke-width="1.51"/><path d="M-19,-185L99,-172L448,-194Z" fill="#b03335" stroke="#b03335" stroke-width="1.51"/><path d="M1468,951L1318,994L1482,1158Z" fill="#71add1" stroke="#71add1" stroke-width="1.51"/><path d="M1500,636L1348,716L1506,788Z" fill="#afd3e6" stroke="#afd3e6" stroke-width="1.51"/><path d="M1350,786L1468,951L1506,788Z" fill="#98c7df" stroke="#98c7df" stroke-width="1.51"/><path d="M1352,-26L1458,-12L1516,-223Z" fill="#b98083" stroke="#b98083" stroke-width="1.51"/><path d="M1369,-265L1352,-26L1516,-223Z" fill="#ac777d" stroke="#ac777d" stroke-width="1.51"/><path d="M1349,444L1464,551L1528,399Z" fill="#c8d6df" stroke="#c8d6df" stroke-width="1.51"/><path d="M1381,271L1349,444L1528,399Z" fill="#cfd1d3" stroke="#cfd1d3" stroke-width="1.51"/><path d="M1345,1166L1451,1329L1482,1158Z" fill="#6292c1" stroke="#6292c1" stroke-width="1.51"/><path d="M1318,994L1345,1166L1482,1158Z" fill="#71a5ce" stroke="#71a5ce" stroke-width="1.51"/><path d="M1482,42L1353,63L1494,184Z" fill="#c79f9c" stroke="#c79f9c" stroke-width="1.51"/><path d="M1348,716L1350,786L1506,788Z" fill="#acd2e6" stroke="#acd2e6" stroke-width="1.51"/><path d="M1280,1263L1226,1277L1451,1329Z" fill="#6a8bb4" stroke="#6a8bb4" stroke-width="1.51"/><path d="M1464,551L1318,591L1500,636Z" fill="#c2dcea" stroke="#c2dcea" stroke-width="1.51"/><path d="M1318,591L1348,716L1500,636Z" fill="#c0dbea" stroke="#c0dbea" stroke-width="1.51"/><path d="M1353,63L1381,271L1494,184Z" fill="#cfb1aa" stroke="#cfb1aa" stroke-width="1.51"/><path d="M1350,786L1318,994L1468,951Z" fill="#92c2dd" stroke="#92c2dd" stroke-width="1.51"/><path d="M1458,-12L1353,63L1482,42Z" fill="#c49392" stroke="#c49392" stroke-width="1.51"/><path d="M1345,1166L1280,1263L1451,1329Z" fill="#688fbb" stroke="#688fbb" stroke-width="1.51"/><path d="M1352,-26L1353,63L1458,-12Z" fill="#c69391" stroke="#c69391" stroke-width="1.51"/><path d="M1349,444L1318,591L1464,551Z" fill="#cfe1ec" stroke="#cfe1ec" stroke-width="1.51"/><path d="M1225,484L1318,591L1349,444Z" fill="#d9e4eb" stroke="#d9e4eb" stroke-width="1.51"/><path d="M1195,855L1318,994L1350,786Z" fill="#a5cde3" stroke="#a5cde3" stroke-width="1.51"/><path d="M1232,55L1181,203L1353,63Z" fill="#dcada4" stroke="#dcada4" stroke-width="1.51"/><path d="M1218,-68L1352,-26L1369,-265Z" fill="#c48284" stroke="#c48284" stroke-width="1.51"/><path d="M1155,-230L1218,-68L1369,-265Z" fill="#b97f82" stroke="#b97f82" stroke-width="1.51"/><path d="M1198,387L1349,444L1381,271Z" fill="#dcd7d6" stroke="#dcd7d6" stroke-width="1.51"/><path d="M1181,203L1198,387L1381,271Z" fill="#e2cec7" stroke="#e2cec7" stroke-width="1.51"/><path d="M1353,63L1181,203L1381,271Z" fill="#dbb8af" stroke="#dbb8af" stroke-width="1.51"/><path d="M448,-194L636,-194L837,-244Z" fill="#c47066" stroke="#c47066" stroke-width="1.51"/><path d="M1318,994L1164,1195L1345,1166Z" fill="#80aad1" stroke="#80aad1" stroke-width="1.51"/><path d="M1318,591L1131,648L1348,716Z" fill="#cfe3ef" stroke="#cfe3ef" stroke-width="1.51"/><path d="M1198,387L1225,484L1349,444Z" fill="#e0e2e3" stroke="#e0e2e3" stroke-width="1.51"/><path d="M1348,716L1195,855L1350,786Z" fill="#b6d6e8" stroke="#b6d6e8" stroke-width="1.51"/><path d="M1218,-68L1232,55L1352,-26Z" fill="#d29692" stroke="#d29692" stroke-width="1.51"/><path d="M1352,-26L1232,55L1353,63Z" fill="#d19b96" stroke="#d19b96" stroke-width="1.51"/><path d="M1131,648L1195,855L1348,716Z" fill="#c8e0ed" stroke="#c8e0ed" stroke-width="1.51"/><path d="M1164,1195L1280,1263L1345,1166Z" fill="#7b9dca" stroke="#7b9dca" stroke-width="1.51"/><path d="M1091,1026L1164,1195L1318,994Z" fill="#8eb6d7" stroke="#8eb6d7" stroke-width="1.51"/><path d="M1129,971L1091,1026L1318,994Z" fill="#9ac2dd" stroke="#9ac2dd" stroke-width="1.51"/><path d="M1195,855L1129,971L1318,994Z" fill="#a2c9e1" stroke="#a2c9e1" stroke-width="1.51"/><path d="M1225,484L1131,648L1318,591Z" fill="#ddeaf2" stroke="#ddeaf2" stroke-width="1.51"/><path d="M1164,1195L1226,1277L1280,1263Z" fill="#7c99c2" stroke="#7c99c2" stroke-width="1.51"/><path d="M1131,648L1037,723L1195,855Z" fill="#d1e4ef" stroke="#d1e4ef" stroke-width="1.51"/><path d="M1181,203L1051,256L1198,387Z" fill="#edd3c9" stroke="#edd3c9" stroke-width="1.51"/><path d="M1155,-230L1035,-58L1218,-68Z" fill="#d48b88" stroke="#d48b88" stroke-width="1.51"/><path d="M1026,484L1131,648L1225,484Z" fill="#eaf0f5" stroke="#eaf0f5" stroke-width="1.51"/><path d="M1001,54L1181,203L1232,55Z" fill="#e6b2a6" stroke="#e6b2a6" stroke-width="1.51"/><path d="M1218,-68L1035,-58L1232,55Z" fill="#db9a93" stroke="#db9a93" stroke-width="1.51"/><path d="M1035,-58L1001,54L1232,55Z" fill="#e3a399" stroke="#e3a399" stroke-width="1.51"/><path d="M1017,-159L1035,-58L1155,-230Z" fill="#d18a87" stroke="#d18a87" stroke-width="1.51"/><path d="M1198,387L1053,411L1225,484Z" fill="#ebe6e4" stroke="#ebe6e4" stroke-width="1.51"/><path d="M1164,1195L1016,1332L1226,1277Z" fill="#8198be" stroke="#8198be" stroke-width="1.51"/><path d="M1053,411L1026,484L1225,484Z" fill="#eeebe9" stroke="#eeebe9" stroke-width="1.51"/><path d="M837,-244L1017,-159L1155,-230Z" fill="#c58686" stroke="#c58686" stroke-width="1.51"/><path d="M1091,1026L1048,1187L1164,1195Z" fill="#92afd4" stroke="#92afd4" stroke-width="1.51"/><path d="M1048,1187L1016,1332L1164,1195Z" fill="#8aa0c7" stroke="#8aa0c7" stroke-width="1.51"/><path d="M1001,54L1051,256L1181,203Z" fill="#efc2b3" stroke="#efc2b3" stroke-width="1.51"/><path d="M1037,723L1013,808L1195,855Z" fill="#cae0ed" stroke="#cae0ed" stroke-width="1.51"/><path d="M1051,256L1053,411L1198,387Z" fill="#f0e0d8" stroke="#f0e0d8" stroke-width="1.51"/><path d="M1013,808L1129,971L1195,855Z" fill="#b8d7e8" stroke="#b8d7e8" stroke-width="1.51"/><path d="M1026,484L897,570L1037,723Z" fill="#eff3f6" stroke="#eff3f6" stroke-width="1.51"/><path d="M1013,808L1091,1026L1129,971Z" fill="#b0cfe4" stroke="#b0cfe4" stroke-width="1.51"/><path d="M1026,484L1037,723L1131,648Z" fill="#e6eef4" stroke="#e6eef4" stroke-width="1.51"/><path d="M894,1013L871,1116L1048,1187Z" fill="#a1b8d6" stroke="#a1b8d6" stroke-width="1.51"/><path d="M1051,256L930,278L1053,411Z" fill="#f7ddd1" stroke="#f7ddd1" stroke-width="1.51"/><path d="M894,1013L1048,1187L1091,1026Z" fill="#9ebcda" stroke="#9ebcda" stroke-width="1.51"/><path d="M1013,808L894,1013L1091,1026Z" fill="#b3d0e4" stroke="#b3d0e4" stroke-width="1.51"/><path d="M840,92L930,278L1001,54Z" fill="#f5beac" stroke="#f5beac" stroke-width="1.51"/><path d="M897,570L842,656L1037,723Z" fill="#ebeff1" stroke="#ebeff1" stroke-width="1.51"/><path d="M897,1322L1016,1332L1048,1187Z" fill="#8d9bbe" stroke="#8d9bbe" stroke-width="1.51"/><path d="M1001,54L930,278L1051,256Z" fill="#f7c9b8" stroke="#f7c9b8" stroke-width="1.51"/><path d="M868,423L1026,484L1053,411Z" fill="#f8ede8" stroke="#f8ede8" stroke-width="1.51"/><path d="M930,278L868,423L1053,411Z" fill="#fbe8dd" stroke="#fbe8dd" stroke-width="1.51"/><path d="M830,821L894,1013L1013,808Z" fill="#c5d9e5" stroke="#c5d9e5" stroke-width="1.51"/><path d="M871,1116L897,1322L1048,1187Z" fill="#98a8ce" stroke="#98a8ce" stroke-width="1.51"/><path d="M1017,-159L864,-7L1035,-58Z" fill="#e39790" stroke="#e39790" stroke-width="1.51"/><path d="M864,-7L1001,54L1035,-58Z" fill="#eaa399" stroke="#eaa399" stroke-width="1.51"/><path d="M842,656L1013,808L1037,723Z" fill="#dfebf2" stroke="#dfebf2" stroke-width="1.51"/><path d="M842,656L830,821L1013,808Z" fill="#dbe4ea" stroke="#dbe4ea" stroke-width="1.51"/><path d="M868,423L897,570L1026,484Z" fill="#f9f1ed" stroke="#f9f1ed" stroke-width="1.51"/><path d="M785,-194L864,-7L1017,-159Z" fill="#df8c84" stroke="#df8c84" stroke-width="1.51"/><path d="M837,-244L785,-194L1017,-159Z" fill="#cb847f" stroke="#cb847f" stroke-width="1.51"/><path d="M864,-7L840,92L1001,54Z" fill="#eea999" stroke="#eea999" stroke-width="1.51"/><path d="M561,1261L407,1286L695,1288Z" fill="#977e91" stroke="#977e91" stroke-width="1.51"/><path d="M830,821L749,990L894,1013Z" fill="#bccbd7" stroke="#bccbd7" stroke-width="1.51"/><path d="M871,1116L768,1152L897,1322Z" fill="#9da6c7" stroke="#9da6c7" stroke-width="1.51"/><path d="M840,92L735,235L930,278Z" fill="#f9c5ae" stroke="#f9c5ae" stroke-width="1.51"/><path d="M735,235L785,349L930,278Z" fill="#fbd2be" stroke="#fbd2be" stroke-width="1.51"/><path d="M785,349L868,423L930,278Z" fill="#fbdfcf" stroke="#fbdfcf" stroke-width="1.51"/><path d="M749,990L871,1116L894,1013Z" fill="#a9bdd0" stroke="#a9bdd0" stroke-width="1.51"/><path d="M768,1152L695,1288L897,1322Z" fill="#9798b4" stroke="#9798b4" stroke-width="1.51"/><path d="M868,423L717,544L897,570Z" fill="#faece5" stroke="#faece5" stroke-width="1.51"/><path d="M717,544L842,656L897,570Z" fill="#f4ece8" stroke="#f4ece8" stroke-width="1.51"/><path d="M785,-194L679,-55L864,-7Z" fill="#e28c7d" stroke="#e28c7d" stroke-width="1.51"/><path d="M714,714L830,821L842,656Z" fill="#e3e2e2" stroke="#e3e2e2" stroke-width="1.51"/><path d="M743,59L840,92L864,-7Z" fill="#eea491" stroke="#eea491" stroke-width="1.51"/><path d="M785,349L717,544L868,423Z" fill="#fce5d7" stroke="#fce5d7" stroke-width="1.51"/><path d="M749,990L768,1152L871,1116Z" fill="#a7b3ca" stroke="#a7b3ca" stroke-width="1.51"/><path d="M679,-55L743,59L864,-7Z" fill="#e99986" stroke="#e99986" stroke-width="1.51"/><path d="M99,-172L312,-161L448,-194Z" fill="#ba443e" stroke="#ba443e" stroke-width="1.51"/><path d="M699,821L749,990L830,821Z" fill="#cad2d6" stroke="#cad2d6" stroke-width="1.51"/><path d="M714,714L699,821L830,821Z" fill="#dadada" stroke="#dadada" stroke-width="1.51"/><path d="M636,-194L785,-194L837,-244Z" fill="#c77b73" stroke="#c77b73" stroke-width="1.51"/><path d="M743,59L735,235L840,92Z" fill="#f4b39b" stroke="#f4b39b" stroke-width="1.51"/><path d="M717,544L714,714L842,656Z" fill="#f0e6e0" stroke="#f0e6e0" stroke-width="1.51"/><path d="M636,-194L630,-93L679,-55Z" fill="#dc7b6b" stroke="#dc7b6b" stroke-width="1.51"/><path d="M634,240L735,235L743,59Z" fill="#f7b79c" stroke="#f7b79c" stroke-width="1.51"/><path d="M749,990L627,1137L768,1152Z" fill="#a8adc1" stroke="#a8adc1" stroke-width="1.51"/><path d="M584,392L717,544L785,349Z" fill="#fddccb" stroke="#fddccb" stroke-width="1.51"/><path d="M735,235L634,240L785,349Z" fill="#fbcab1" stroke="#fbcab1" stroke-width="1.51"/><path d="M634,240L584,392L785,349Z" fill="#fccdb5" stroke="#fccdb5" stroke-width="1.51"/><path d="M636,-194L679,-55L785,-194Z" fill="#d67d70" stroke="#d67d70" stroke-width="1.51"/><path d="M562,129L634,240L743,59Z" fill="#f3aa8e" stroke="#f3aa8e" stroke-width="1.51"/><path d="M627,1137L695,1288L768,1152Z" fill="#a19db8" stroke="#a19db8" stroke-width="1.51"/><path d="M576,560L714,714L717,544Z" fill="#f4e0d6" stroke="#f4e0d6" stroke-width="1.51"/><path d="M699,821L551,994L749,990Z" fill="#c0c0c5" stroke="#c0c0c5" stroke-width="1.51"/><path d="M551,994L627,1137L749,990Z" fill="#adadba" stroke="#adadba" stroke-width="1.51"/><path d="M679,-55L562,129L743,59Z" fill="#ec9880" stroke="#ec9880" stroke-width="1.51"/><path d="M576,560L575,730L714,714Z" fill="#edd7ce" stroke="#edd7ce" stroke-width="1.51"/><path d="M584,392L576,560L717,544Z" fill="#fbdbcb" stroke="#fbdbcb" stroke-width="1.51"/><path d="M627,1137L561,1261L695,1288Z" fill="#9d8fa7" stroke="#9d8fa7" stroke-width="1.51"/><path d="M585,791L551,994L699,821Z" fill="#cdc4c3" stroke="#cdc4c3" stroke-width="1.51"/><path d="M585,791L699,821L714,714Z" fill="#ddd3d0" stroke="#ddd3d0" stroke-width="1.51"/><path d="M575,730L585,791L714,714Z" fill="#e2d2cb" stroke="#e2d2cb" stroke-width="1.51"/><path d="M630,-93L477,-20L679,-55Z" fill="#e07f6b" stroke="#e07f6b" stroke-width="1.51"/><path d="M477,-20L562,129L679,-55Z" fill="#e68970" stroke="#e68970" stroke-width="1.51"/><path d="M441,248L584,392L634,240Z" fill="#f9bb9d" stroke="#f9bb9d" stroke-width="1.51"/><path d="M448,-194L630,-93L636,-194Z" fill="#cf6e5f" stroke="#cf6e5f" stroke-width="1.51"/><path d="M551,994L481,1006L627,1137Z" fill="#aea3ad" stroke="#aea3ad" stroke-width="1.51"/><path d="M562,129L441,248L634,240Z" fill="#f5ac8b" stroke="#f5ac8b" stroke-width="1.51"/><path d="M448,-194L477,-20L630,-93Z" fill="#d86e5b" stroke="#d86e5b" stroke-width="1.51"/><path d="M388,1174L561,1261L627,1137Z" fill="#a28aa0" stroke="#a28aa0" stroke-width="1.51"/><path d="M481,1006L388,1174L627,1137Z" fill="#a994a1" stroke="#a994a1" stroke-width="1.51"/><path d="M414,578L380,741L575,730Z" fill="#e9c3b6" stroke="#e9c3b6" stroke-width="1.51"/><path d="M380,741L383,820L575,730Z" fill="#ddbbb1" stroke="#ddbbb1" stroke-width="1.51"/><path d="M414,578L575,730L576,560Z" fill="#f1cec0" stroke="#f1cec0" stroke-width="1.51"/><path d="M441,248L382,362L584,392Z" fill="#f8b89a" stroke="#f8b89a" stroke-width="1.51"/><path d="M414,578L576,560L584,392Z" fill="#fad0be" stroke="#fad0be" stroke-width="1.51"/><path d="M382,362L414,578L584,392Z" fill="#f9c3ab" stroke="#f9c3ab" stroke-width="1.51"/><path d="M481,1006L551,994L585,791Z" fill="#c2b3b4" stroke="#c2b3b4" stroke-width="1.51"/><path d="M383,820L481,1006L585,791Z" fill="#cdb6b0" stroke="#cdb6b0" stroke-width="1.51"/><path d="M575,730L383,820L585,791Z" fill="#dcc2ba" stroke="#dcc2ba" stroke-width="1.51"/><path d="M477,-20L398,119L562,129Z" fill="#e9896c" stroke="#e9896c" stroke-width="1.51"/><path d="M388,1174L407,1286L561,1261Z" fill="#9b798c" stroke="#9b798c" stroke-width="1.51"/><path d="M398,119L441,248L562,129Z" fill="#f09a79" stroke="#f09a79" stroke-width="1.51"/><path d="M302,1256L123,1345L407,1286Z" fill="#8c596c" stroke="#8c596c" stroke-width="1.51"/><path d="M298,-33L398,119L477,-20Z" fill="#de725b" stroke="#de725b" stroke-width="1.51"/><path d="M448,-194L312,-161L477,-20Z" fill="#cf5c4d" stroke="#cf5c4d" stroke-width="1.51"/><path d="M312,-161L298,-33L477,-20Z" fill="#d25e4d" stroke="#d25e4d" stroke-width="1.51"/><path d="M383,820L293,829L481,1006Z" fill="#c7a6a4" stroke="#c7a6a4" stroke-width="1.51"/><path d="M293,829L239,1039L481,1006Z" fill="#b89599" stroke="#b89599" stroke-width="1.51"/><path d="M239,1039L388,1174L481,1006Z" fill="#a88894" stroke="#a88894" stroke-width="1.51"/><path d="M250,391L228,518L382,362Z" fill="#f0a994" stroke="#f0a994" stroke-width="1.51"/><path d="M298,-33L303,99L398,119Z" fill="#de7159" stroke="#de7159" stroke-width="1.51"/><path d="M382,362L228,518L414,578Z" fill="#f3b6a3" stroke="#f3b6a3" stroke-width="1.51"/><path d="M398,119L329,232L441,248Z" fill="#ee9676" stroke="#ee9676" stroke-width="1.51"/><path d="M329,232L382,362L441,248Z" fill="#f2a385" stroke="#f2a385" stroke-width="1.51"/><path d="M239,1039L238,1120L388,1174Z" fill="#a27888" stroke="#a27888" stroke-width="1.51"/><path d="M313,739L380,741L414,578Z" fill="#e6b7ab" stroke="#e6b7ab" stroke-width="1.51"/><path d="M388,1174L302,1256L407,1286Z" fill="#986f83" stroke="#986f83" stroke-width="1.51"/><path d="M228,518L313,739L414,578Z" fill="#ebb3a7" stroke="#ebb3a7" stroke-width="1.51"/><path d="M303,99L329,232L398,119Z" fill="#e78568" stroke="#e78568" stroke-width="1.51"/><path d="M380,741L313,739L383,820Z" fill="#daafa6" stroke="#daafa6" stroke-width="1.51"/><path d="M329,232L250,391L382,362Z" fill="#f0a287" stroke="#f0a287" stroke-width="1.51"/><path d="M313,739L293,829L383,820Z" fill="#d4a8a1" stroke="#d4a8a1" stroke-width="1.51"/><path d="M238,1120L302,1256L388,1174Z" fill="#9d7086" stroke="#9d7086" stroke-width="1.51"/><path d="M25,1324L-129,1342L123,1345Z" fill="#76334d" stroke="#76334d" stroke-width="1.51"/><path d="M97,564L79,717L228,518Z" fill="#e29d94" stroke="#e29d94" stroke-width="1.51"/><path d="M137,982L239,1039L293,829Z" fill="#b5878c" stroke="#b5878c" stroke-width="1.51"/><path d="M139,865L137,982L293,829Z" fill="#bd8c8e" stroke="#bd8c8e" stroke-width="1.51"/><path d="M298,-33L171,49L303,99Z" fill="#d7624e" stroke="#d7624e" stroke-width="1.51"/><path d="M138,-83L298,-33L312,-161Z" fill="#c8483f" stroke="#c8483f" stroke-width="1.51"/><path d="M228,518L79,717L313,739Z" fill="#e1a299" stroke="#e1a299" stroke-width="1.51"/><path d="M303,99L187,212L329,232Z" fill="#e58266" stroke="#e58266" stroke-width="1.51"/><path d="M187,212L250,391L329,232Z" fill="#ea9176" stroke="#ea9176" stroke-width="1.51"/><path d="M139,865L293,829L313,739Z" fill="#cd9c97" stroke="#cd9c97" stroke-width="1.51"/><path d="M79,717L139,865L313,739Z" fill="#d09793" stroke="#d09793" stroke-width="1.51"/><path d="M99,-172L138,-83L312,-161Z" fill="#bc3837" stroke="#bc3837" stroke-width="1.51"/><path d="M238,1120L98,1140L302,1256Z" fill="#9a657d" stroke="#9a657d" stroke-width="1.51"/><path d="M98,1140L123,1345L302,1256Z" fill="#8e556d" stroke="#8e556d" stroke-width="1.51"/><path d="M171,49L187,212L303,99Z" fill="#dc6e57" stroke="#dc6e57" stroke-width="1.51"/><path d="M187,212L115,337L250,391Z" fill="#e78e77" stroke="#e78e77" stroke-width="1.51"/><path d="M138,-83L171,49L298,-33Z" fill="#cd4f43" stroke="#cd4f43" stroke-width="1.51"/><path d="M115,337L228,518L250,391Z" fill="#eb9d8a" stroke="#eb9d8a" stroke-width="1.51"/><path d="M115,337L97,564L228,518Z" fill="#e89c8d" stroke="#e89c8d" stroke-width="1.51"/><path d="M98,1140L238,1120L239,1039Z" fill="#9f6e7f" stroke="#9f6e7f" stroke-width="1.51"/><path d="M137,982L98,1140L239,1039Z" fill="#a1717f" stroke="#a1717f" stroke-width="1.51"/><path d="M-19,430L97,564L115,337Z" fill="#e39083" stroke="#e39083" stroke-width="1.51"/><path d="M98,1140L25,1324L123,1345Z" fill="#854761" stroke="#854761" stroke-width="1.51"/><path d="M-71,89L30,251L171,49Z" fill="#d05b4c" stroke="#d05b4c" stroke-width="1.51"/><path d="M171,49L30,251L187,212Z" fill="#da6e58" stroke="#da6e58" stroke-width="1.51"/><path d="M30,251L115,337L187,212Z" fill="#e07d68" stroke="#e07d68" stroke-width="1.51"/><path d="M138,-83L-18,-108L171,49Z" fill="#c23c38" stroke="#c23c38" stroke-width="1.51"/><path d="M-18,-108L-71,89L171,49Z" fill="#c33e3a" stroke="#c33e3a" stroke-width="1.51"/><path d="M-18,1165L25,1324L98,1140Z" fill="#8b4d6a" stroke="#8b4d6a" stroke-width="1.51"/><path d="M-42,1010L98,1140L137,982Z" fill="#9c6879" stroke="#9c6879" stroke-width="1.51"/><path d="M99,-172L-18,-108L138,-83Z" fill="#b82730" stroke="#b82730" stroke-width="1.51"/><path d="M79,717L-46,800L139,865Z" fill="#c68788" stroke="#c68788" stroke-width="1.51"/><path d="M-42,1010L137,982L139,865Z" fill="#ac7780" stroke="#ac7780" stroke-width="1.51"/><path d="M-46,800L-42,1010L139,865Z" fill="#b4797f" stroke="#b4797f" stroke-width="1.51"/><path d="M-13,581L79,717L97,564Z" fill="#db928d" stroke="#db928d" stroke-width="1.51"/><path d="M-19,430L-13,581L97,564Z" fill="#e1918a" stroke="#e1918a" stroke-width="1.51"/><path d="M-42,1010L-18,1165L98,1140Z" fill="#945a70" stroke="#945a70" stroke-width="1.51"/><path d="M30,251L-19,430L115,337Z" fill="#df8171" stroke="#df8171" stroke-width="1.51"/><path d="M-13,581L-67,653L79,717Z" fill="#d58b88" stroke="#d58b88" stroke-width="1.51"/><path d="M-19,-185L-18,-108L99,-172Z" fill="#ab1a2b" stroke="#ab1a2b" stroke-width="1.51"/><path d="M-67,653L-46,800L79,717Z" fill="#cb8686" stroke="#cb8686" stroke-width="1.51"/><path d="M-46,800L-184,874L-42,1010Z" fill="#a2707b" stroke="#a2707b" stroke-width="1.51"/><path d="M-18,1165L-139,1193L25,1324Z" fill="#804362" stroke="#804362" stroke-width="1.51"/><path d="M-139,1193L-129,1342L25,1324Z" fill="#713755" stroke="#713755" stroke-width="1.51"/><path d="M-71,89L-178,192L30,251Z" fill="#c55b4d" stroke="#c55b4d" stroke-width="1.51"/><path d="M-178,192L-116,360L30,251Z" fill="#c96b5d" stroke="#c96b5d" stroke-width="1.51"/><path d="M-116,360L-19,430L30,251Z" fill="#d77b6d" stroke="#d77b6d" stroke-width="1.51"/><path d="M-184,874L-165,1007L-42,1010Z" fill="#8f6475" stroke="#8f6475" stroke-width="1.51"/><path d="M-165,1007L-139,1193L-42,1010Z" fill="#83566d" stroke="#83566d" stroke-width="1.51"/><path d="M-116,360L-212,531L-19,430Z" fill="#ca8079" stroke="#ca8079" stroke-width="1.51"/><path d="M-198,-58L-71,89L-18,-108Z" fill="#ad2d32" stroke="#ad2d32" stroke-width="1.51"/><path d="M-19,-185L-197,-202L-18,-108Z" fill="#9b1027" stroke="#9b1027" stroke-width="1.51"/><path d="M-42,1010L-139,1193L-18,1165Z" fill="#87526c" stroke="#87526c" stroke-width="1.51"/><path d="M-170,646L-67,653L-13,581Z" fill="#c88786" stroke="#c88786" stroke-width="1.51"/><path d="M-212,531L-170,646L-13,581Z" fill="#c48585" stroke="#c48585" stroke-width="1.51"/><path d="M-19,430L-212,531L-13,581Z" fill="#d18984" stroke="#d18984" stroke-width="1.51"/><path d="M-197,-202L-198,-58L-18,-108Z" fill="#9b1028" stroke="#9b1028" stroke-width="1.51"/><path d="M-67,653L-170,646L-46,800Z" fill="#c08284" stroke="#c08284" stroke-width="1.51"/><path d="M-170,646L-184,874L-46,800Z" fill="#ad797f" stroke="#ad797f" stroke-width="1.51"/><path d="M-204,137L-178,192L-71,89Z" fill="#b54e46" stroke="#b54e46" stroke-width="1.51"/><path d="M-198,-58L-204,137L-71,89Z" fill="#ab3b39" stroke="#ab3b39" stroke-width="1.51"/><path d="M-165,1007L-184,874L-129,1342Z" fill="#7a536c" stroke="#7a536c" stroke-width="1.51"/><path d="M-178,192L-212,531L-116,360Z" fill="#c0746c" stroke="#c0746c" stroke-width="1.51"/><path d="M-139,1193L-165,1007L-129,1342Z" fill="#744566" stroke="#744566" stroke-width="1.51"/><path d="M-204,137L-212,531L-178,192Z" fill="#b7675d" stroke="#b7675d" stroke-width="1.51"/><path d="M-212,531L-184,874L-170,646Z" fill="#b07c81" stroke="#b07c81" stroke-width="1.51"/><path d="M-204,137L-198,-58L-197,-202Z" fill="#9b242e" stroke="#9b242e" stroke-width="1.51"/></svg>