<svg xmlns="http://www.w3.org/2000/svg" width="1920" height="1080"><path d="M-197,-202L-19,-185L448,-194Z" fill="#fee5e2" stroke="#fee5e2" stroke-width="1.51"/><path d="M-197,-202L448,-194L837,-244Z" fill="#fedad5" stroke="#fedad5" stroke-width="1.51"/><path d="M897,1322L123,1345L1016,1332Z" fill="#a55190" stroke="#a55190" stroke-width="1.51"/><path d="M837,-244L1155,-230L1369,-265Z" fill="#f9a6c5" stroke="#f9a6c5" stroke-width="1.51"/><path d="M1016,1332L123,1345L1668,1345Z" fill="#a33888" stroke="#a33888" stroke-width="1.51"/><path d="M1451,1329L1016,1332L1668,1345Z" fill="#8d0f7d" stroke="#8d0f7d" stroke-width="1.51"/><path d="M1654,-192L1821,-173L1911,-185Z" fill="#c483b0" stroke="#c483b0" stroke-width="1.51"/><path d="M1654,-192L1911,-185L2060,-232Z" fill="#bd81af" stroke="#bd81af" stroke-width="1.51"/><path d="M1516,-223L1654,-192L2060,-232Z" fill="#c986b2" stroke="#c986b2" stroke-width="1.51"/><path d="M1369,-265L1516,-223L2060,-232Z" fill="#d38ab4" stroke="#d38ab4" stroke-width="1.51"/><path d="M1966,836L2063,873L2076,642Z" fill="#991581" stroke="#991581" stroke-width="1.51"/><path d="M1952,652L1966,836L2076,642Z" fill="#a22085" stroke="#a22085" stroke-width="1.51"/><path d="M2070,987L1968,1181L2098,1144Z" fill="#720074" stroke="#720074" stroke-width="1.51"/><path d="M2076,642L2063,873L2098,1144Z" fill="#8a077a" stroke="#8a077a" stroke-width="1.51"/><path d="M2063,873L2070,987L2098,1144Z" fill="#7d0075" stroke="#7d0075" stroke-width="1.51"/><path d="M2047,56L1886,188L2100,282Z" fill="#af6497" stroke="#af6497" stroke-width="1.51"/><path d="M2079,-104L2047,56L2100,282Z" fill="#aa6a9b" stroke="#aa6a9b" stroke-width="1.51"/><path d="M2100,282L1956,361L2118,381Z" fill="#a95391" stroke="#a95391" stroke-width="1.51"/><path d="M1956,361L2053,487L2118,381Z" fill="#aa4a8f" stroke="#aa4a8f" stroke-width="1.51"/><path d="M2053,487L2076,642L2118,381Z" fill="#a63c89" stroke="#a63c89" stroke-width="1.51"/><path d="M2076,642L2098,1144L2118,381Z" fill="#9a1c83" stroke="#9a1c83" stroke-width="1.51"/><path d="M2079,-104L2100,282L2118,381Z" fill="#a86195" stroke="#a86195" stroke-width="1.51"/><path d="M2098,1144L1968,1181L2118,1295Z" fill="#650071" stroke="#650071" stroke-width="1.51"/><path d="M1968,1181L1940,1323L2118,1295Z" fill="#610070" stroke="#610070" stroke-width="1.51"/><path d="M2118,381L2098,1144L2118,1295Z" fill="#820076" stroke="#820076" stroke-width="1.51"/><path d="M1907,1007L1968,1181L2070,987Z" fill="#7d0076" stroke="#7d0076" stroke-width="1.51"/><path d="M2053,487L1915,557L2076,642Z" fill="#aa3488" stroke="#aa3488" stroke-width="1.51"/><path d="M1915,557L1952,652L2076,642Z" fill="#a92e88" stroke="#a92e88" stroke-width="1.51"/><path d="M1909,-80L2047,56L2079,-104Z" fill="#b074a4" stroke="#b074a4" stroke-width="1.51"/><path d="M1886,188L1956,361L2100,282Z" fill="#b15c95" stroke="#b15c95" stroke-width="1.51"/><path d="M1909,-80L1935,50L2047,56Z" fill="#b472a2" stroke="#b472a2" stroke-width="1.51"/><path d="M1935,50L1886,188L2047,56Z" fill="#b46d9c" stroke="#b46d9c" stroke-width="1.51"/><path d="M2063,873L1966,836L2070,987Z" fill="#8c067a" stroke="#8c067a" stroke-width="1.51"/><path d="M1966,836L1907,1007L2070,987Z" fill="#8c0079" stroke="#8c0079" stroke-width="1.51"/><path d="M2060,-232L1911,-185L2079,-104Z" fill="#b17cab" stroke="#b17cab" stroke-width="1.51"/><path d="M1911,-185L1909,-80L2079,-104Z" fill="#b57aa9" stroke="#b57aa9" stroke-width="1.51"/><path d="M1956,361L1915,557L2053,487Z" fill="#b0438d" stroke="#b0438d" stroke-width="1.51"/><path d="M695,1288L123,1345L897,1322Z" fill="#a75993" stroke="#a75993" stroke-width="1.51"/><path d="M1830,1272L1668,1345L1940,1323Z" fill="#6c0073" stroke="#6c0073" stroke-width="1.51"/><path d="M1752,659L1839,888L1952,652Z" fill="#ad1f87" stroke="#ad1f87" stroke-width="1.51"/><path d="M1886,188L1729,274L1956,361Z" fill="#bb5f98" stroke="#bb5f98" stroke-width="1.51"/><path d="M1794,422L1915,557L1956,361Z" fill="#b64990" stroke="#b64990" stroke-width="1.51"/><path d="M1952,652L1839,888L1966,836Z" fill="#a11683" stroke="#a11683" stroke-width="1.51"/><path d="M1839,888L1907,1007L1966,836Z" fill="#95077c" stroke="#95077c" stroke-width="1.51"/><path d="M1907,1007L1835,1137L1968,1181Z" fill="#7d0177" stroke="#7d0177" stroke-width="1.51"/><path d="M1830,1272L1940,1323L1968,1181Z" fill="#6b0073" stroke="#6b0073" stroke-width="1.51"/><path d="M1835,1137L1830,1272L1968,1181Z" fill="#740076" stroke="#740076" stroke-width="1.51"/><path d="M1729,274L1794,422L1956,361Z" fill="#bd5796" stroke="#bd5796" stroke-width="1.51"/><path d="M1915,557L1752,659L1952,652Z" fill="#b22f8a" stroke="#b22f8a" stroke-width="1.51"/><path d="M1794,422L1776,529L1915,557Z" fill="#bb418f" stroke="#bb418f" stroke-width="1.51"/><path d="M1746,43L1886,188L1935,50Z" fill="#bc6f9e" stroke="#bc6f9e" stroke-width="1.51"/><path d="M1909,-80L1772,-42L1935,50Z" fill="#bc77a5" stroke="#bc77a5" stroke-width="1.51"/><path d="M1821,-173L1909,-80L1911,-185Z" fill="#bc7eac" stroke="#bc7eac" stroke-width="1.51"/><path d="M1772,-42L1746,43L1935,50Z" fill="#c075a3" stroke="#c075a3" stroke-width="1.51"/><path d="M1839,888L1762,989L1907,1007Z" fill="#95017b" stroke="#95017b" stroke-width="1.51"/><path d="M1762,989L1835,1137L1907,1007Z" fill="#8b007a" stroke="#8b007a" stroke-width="1.51"/><path d="M1776,529L1752,659L1915,557Z" fill="#b9368c" stroke="#b9368c" stroke-width="1.51"/><path d="M1821,-173L1772,-42L1909,-80Z" fill="#c07dab" stroke="#c07dab" stroke-width="1.51"/><path d="M407,1286L123,1345L695,1288Z" fill="#aa6496" stroke="#aa6496" stroke-width="1.51"/><path d="M1746,43L1729,274L1886,188Z" fill="#c26c9c" stroke="#c26c9c" stroke-width="1.51"/><path d="M1664,231L1729,274L1746,43Z" fill="#c96c9c" stroke="#c96c9c" stroke-width="1.51"/><path d="M1582,1190L1668,1345L1830,1272Z" fill="#7c0076" stroke="#7c0076" stroke-width="1.51"/><path d="M1582,1190L1830,1272L1835,1137Z" fill="#7f0077" stroke="#7f0077" stroke-width="1.51"/><path d="M1591,892L1762,989L1839,888Z" fill="#a3067e" stroke="#a3067e" stroke-width="1.51"/><path d="M1752,659L1591,892L1839,888Z" fill="#af1684" stroke="#af1684" stroke-width="1.51"/><path d="M1762,989L1582,1190L1835,1137Z" fill="#8d017a" stroke="#8d017a" stroke-width="1.51"/><path d="M1654,-192L1772,-42L1821,-173Z" fill="#c881ae" stroke="#c881ae" stroke-width="1.51"/><path d="M1729,274L1687,411L1794,422Z" fill="#c55796" stroke="#c55796" stroke-width="1.51"/><path d="M1601,655L1591,892L1752,659Z" fill="#be218a" stroke="#be218a" stroke-width="1.51"/><path d="M1591,892L1601,952L1762,989Z" fill="#a7027e" stroke="#a7027e" stroke-width="1.51"/><path d="M1654,-192L1633,-69L1772,-42Z" fill="#cd81ac" stroke="#cd81ac" stroke-width="1.51"/><path d="M1687,411L1776,529L1794,422Z" fill="#c34a92" stroke="#c34a92" stroke-width="1.51"/><path d="M1593,44L1664,231L1746,43Z" fill="#cd74a0" stroke="#cd74a0" stroke-width="1.51"/><path d="M1601,952L1582,1190L1762,989Z" fill="#9b007c" stroke="#9b007c" stroke-width="1.51"/><path d="M1613,535L1752,659L1776,529Z" fill="#c3388d" stroke="#c3388d" stroke-width="1.51"/><path d="M1687,411L1613,535L1776,529Z" fill="#c74691" stroke="#c74691" stroke-width="1.51"/><path d="M1633,-69L1746,43L1772,-42Z" fill="#ca7ba7" stroke="#ca7ba7" stroke-width="1.51"/><path d="M1613,535L1601,655L1752,659Z" fill="#c5348d" stroke="#c5348d" stroke-width="1.51"/><path d="M1633,-69L1593,44L1746,43Z" fill="#cf7ba6" stroke="#cf7ba6" stroke-width="1.51"/><path d="M1506,788L1591,892L1601,655Z" fill="#c11c88" stroke="#c11c88" stroke-width="1.51"/><path d="M1664,231L1687,411L1729,274Z" fill="#c96099" stroke="#c96099" stroke-width="1.51"/><path d="M1226,1277L1016,1332L1451,1329Z" fill="#9b1c83" stroke="#9b1c83" stroke-width="1.51"/><path d="M1482,1158L1582,1190L1601,952Z" fill="#9c017c" stroke="#9c017c" stroke-width="1.51"/><path d="M1593,44L1494,184L1664,231Z" fill="#d5729e" stroke="#d5729e" stroke-width="1.51"/><path d="M1664,231L1528,399L1687,411Z" fill="#cf5d98" stroke="#cf5d98" stroke-width="1.51"/><path d="M1528,399L1613,535L1687,411Z" fill="#cf4f94" stroke="#cf4f94" stroke-width="1.51"/><path d="M1494,184L1528,399L1664,231Z" fill="#d6679b" stroke="#d6679b" stroke-width="1.51"/><path d="M1582,1190L1451,1329L1668,1345Z" fill="#850077" stroke="#850077" stroke-width="1.51"/><path d="M1516,-223L1633,-69L1654,-192Z" fill="#d687b1" stroke="#d687b1" stroke-width="1.51"/><path d="M1468,951L1482,1158L1601,952Z" fill="#a9067f" stroke="#a9067f" stroke-width="1.51"/><path d="M1500,636L1601,655L1613,535Z" fill="#cd368e" stroke="#cd368e" stroke-width="1.51"/><path d="M1458,-12L1593,44L1633,-69Z" fill="#d97fa9" stroke="#d97fa9" stroke-width="1.51"/><path d="M1516,-223L1458,-12L1633,-69Z" fill="#dc86af" stroke="#dc86af" stroke-width="1.51"/><path d="M1458,-12L1482,42L1593,44Z" fill="#dc7fa8" stroke="#dc7fa8" stroke-width="1.51"/><path d="M1482,42L1494,184L1593,44Z" fill="#db7aa3" stroke="#db7aa3" stroke-width="1.51"/><path d="M1500,636L1506,788L1601,655Z" fill="#cb2b8d" stroke="#cb2b8d" stroke-width="1.51"/><path d="M1528,399L1464,551L1613,535Z" fill="#d54993" stroke="#d54993" stroke-width="1.51"/><path d="M1464,551L1500,636L1613,535Z" fill="#d33d90" stroke="#d33d90" stroke-width="1.51"/><path d="M1482,1158L1451,1329L1582,1190Z" fill="#90057b" stroke="#90057b" stroke-width="1.51"/><path d="M1591,892L1468,951L1601,952Z" fill="#b10680" stroke="#b10680" stroke-width="1.51"/><path d="M1494,184L1381,271L1528,399Z" fill="#dd6a9f" stroke="#dd6a9f" stroke-width="1.51"/><path d="M1506,788L1468,951L1591,892Z" fill="#b91384" stroke="#b91384" stroke-width="1.51"/><path d="M-19,-185L99,-172L448,-194Z" fill="#fee1dd" stroke="#fee1dd" stroke-width="1.51"/><path d="M1468,951L1318,994L1482,1158Z" fill="#ae1182" stroke="#ae1182" stroke-width="1.51"/><path d="M1500,636L1348,716L1506,788Z" fill="#d02d90" stroke="#d02d90" stroke-width="1.51"/><path d="M1350,786L1468,951L1506,788Z" fill="#c31f89" stroke="#c31f89" stroke-width="1.51"/><path d="M1352,-26L1458,-12L1516,-223Z" fill="#e38ab2" stroke="#e38ab2" stroke-width="1.51"/><path d="M1369,-265L1352,-26L1516,-223Z" fill="#e690b8" stroke="#e690b8" stroke-width="1.51"/><path d="M1349,444L1464,551L1528,399Z" fill="#dd5298" stroke="#dd5298" stroke-width="1.51"/><path d="M1381,271L1349,444L1528,399Z" fill="#e0629e" stroke="#e0629e" stroke-width="1.51"/><path d="M1345,1166L1451,1329L1482,1158Z" fill="#970d7e" stroke="#970d7e" stroke-width="1.51"/><path d="M1318,994L1345,1166L1482,1158Z" fill="#a81483" stroke="#a81483" stroke-width="1.51"/><path d="M1482,42L1353,63L1494,184Z" fill="#e17ea6" stroke="#e17ea6" stroke-width="1.51"/><path d="M1348,716L1350,786L1506,788Z" fill="#d02990" stroke="#d02990" stroke-width="1.51"/><path d="M1280,1263L1226,1277L1451,1329Z" fill="#971581" stroke="#971581" stroke-width="1.51"/><path d="M1464,551L1318,591L1500,636Z" fill="#d94094" stroke="#d94094" stroke-width="1.51"/><path d="M1318,591L1348,716L1500,636Z" fill="#d93b94" stroke="#d93b94" stroke-width="1.51"/><path d="M1353,63L1381,271L1494,184Z" fill="#e379a4" stroke="#e379a4" stroke-width="1.51"/><path d="M1350,786L1318,994L1468,951Z" fill="#c01b88" stroke="#c01b88" stroke-width="1.51"/><path d="M1458,-12L1353,63L1482,42Z" fill="#e383ab" stroke="#e383ab" stroke-width="1.51"/><path d="M1345,1166L1280,1263L1451,1329Z" fill="#981280" stroke="#981280" stroke-width="1.51"/><path d="M1352,-26L1353,63L1458,-12Z" fill="#e687ae" stroke="#e687ae" stroke-width="1.51"/><path d="M1349,444L1318,591L1464,551Z" fill="#e14c98" stroke="#e14c98" stroke-width="1.51"/><path d="M1225,484L1318,591L1349,444Z" fill="#e8549c" stroke="#e8549c" stroke-width="1.51"/><path d="M1195,855L1318,994L1350,786Z" fill="#cc268e" stroke="#cc268e" stroke-width="1.51"/><path d="M1232,55L1181,203L1353,63Z" fill="#ef87ad" stroke="#ef87ad" stroke-width="1.51"/><path d="M1218,-68L1352,-26L1369,-265Z" fill="#ee93ba" stroke="#ee93ba" stroke-width="1.51"/><path d="M1155,-230L1218,-68L1369,-265Z" fill="#f39abf" stroke="#f39abf" stroke-width="1.51"/><path d="M1198,387L1349,444L1381,271Z" fill="#e869a3" stroke="#e869a3" stroke-width="1.51"/><path d="M1181,203L1198,387L1381,271Z" fill="#ee75a8" stroke="#ee75a8" stroke-width="1.51"/><path d="M1353,63L1181,203L1381,271Z" fill="#eb7da8" stroke="#eb7da8" stroke-width="1.51"/><path d="M448,-194L636,-194L837,-244Z" fill="#fec9d0" stroke="#fec9d0" stroke-width="1.51"/><path d="M1318,994L1164,1195L1345,1166Z" fill="#af1c87" stroke="#af1c87" stroke-width="1.51"/><path d="M1318,591L1131,648L1348,716Z" fill="#e3419a" stroke="#e3419a" stroke-width="1.51"/><path d="M1198,387L1225,484L1349,444Z" fill="#eb61a1" stroke="#eb61a1" stroke-width="1.51"/><path d="M1348,716L1195,855L1350,786Z" fill="#d52e93" stroke="#d52e93" stroke-width="1.51"/><path d="M1218,-68L1232,55L1352,-26Z" fill="#f08eb5" stroke="#f08eb5" stroke-width="1.51"/><path d="M1352,-26L1232,55L1353,63Z" fill="#ec89b0" stroke="#ec89b0" stroke-width="1.51"/><path d="M1131,648L1195,855L1348,716Z" fill="#df3998" stroke="#df3998" stroke-width="1.51"/><path d="M1164,1195L1280,1263L1345,1166Z" fill="#a61b85" stroke="#a61b85" stroke-width="1.51"/><path d="M1091,1026L1164,1195L1318,994Z" fill="#b92689" stroke="#b92689" stroke-width="1.51"/><path d="M1129,971L1091,1026L1318,994Z" fill="#c3298b" stroke="#c3298b" stroke-width="1.51"/><path d="M1195,855L1129,971L1318,994Z" fill="#c9278c" stroke="#c9278c" stroke-width="1.51"/><path d="M1225,484L1131,648L1318,591Z" fill="#ea4f9c" stroke="#ea4f9c" stroke-width="1.51"/><path d="M1164,1195L1226,1277L1280,1263Z" fill="#a31f85" stroke="#a31f85" stroke-width="1.51"/><path d="M1131,648L1037,723L1195,855Z" fill="#e4429a" stroke="#e4429a" stroke-width="1.51"/><path d="M1181,203L1051,256L1198,387Z" fill="#f27daa" stroke="#f27daa" stroke-width="1.51"/><path d="M1155,-230L1035,-58L1218,-68Z" fill="#f79ebe" stroke="#f79ebe" stroke-width="1.51"/><path d="M1026,484L1131,648L1225,484Z" fill="#f05b9e" stroke="#f05b9e" stroke-width="1.51"/><path d="M1001,54L1181,203L1232,55Z" fill="#f48faf" stroke="#f48faf" stroke-width="1.51"/><path d="M1218,-68L1035,-58L1232,55Z" fill="#f596b7" stroke="#f596b7" stroke-width="1.51"/><path d="M1035,-58L1001,54L1232,55Z" fill="#f798b6" stroke="#f798b6" stroke-width="1.51"/><path d="M1017,-159L1035,-58L1155,-230Z" fill="#faa4c0" stroke="#faa4c0" stroke-width="1.51"/><path d="M1198,387L1053,411L1225,484Z" fill="#f06aa3" stroke="#f06aa3" stroke-width="1.51"/><path d="M1164,1195L1016,1332L1226,1277Z" fill="#a42886" stroke="#a42886" stroke-width="1.51"/><path d="M1053,411L1026,484L1225,484Z" fill="#f26aa3" stroke="#f26aa3" stroke-width="1.51"/><path d="M837,-244L1017,-159L1155,-230Z" fill="#fdacc5" stroke="#fdacc5" stroke-width="1.51"/><path d="M1091,1026L1048,1187L1164,1195Z" fill="#b52f8a" stroke="#b52f8a" stroke-width="1.51"/><path d="M1048,1187L1016,1332L1164,1195Z" fill="#aa2e88" stroke="#aa2e88" stroke-width="1.51"/><path d="M1001,54L1051,256L1181,203Z" fill="#f68dae" stroke="#f68dae" stroke-width="1.51"/><path d="M1037,723L1013,808L1195,855Z" fill="#e04297" stroke="#e04297" stroke-width="1.51"/><path d="M1051,256L1053,411L1198,387Z" fill="#f379a8" stroke="#f379a8" stroke-width="1.51"/><path d="M1013,808L1129,971L1195,855Z" fill="#d43891" stroke="#d43891" stroke-width="1.51"/><path d="M1026,484L897,570L1037,723Z" fill="#f360a0" stroke="#f360a0" stroke-width="1.51"/><path d="M1013,808L1091,1026L1129,971Z" fill="#cf378e" stroke="#cf378e" stroke-width="1.51"/><path d="M1026,484L1037,723L1131,648Z" fill="#ee579d" stroke="#ee579d" stroke-width="1.51"/><path d="M894,1013L871,1116L1048,1187Z" fill="#bf3f8e" stroke="#bf3f8e" stroke-width="1.51"/><path d="M1051,256L930,278L1053,411Z" fill="#f783aa" stroke="#f783aa" stroke-width="1.51"/><path d="M894,1013L1048,1187L1091,1026Z" fill="#c0388d" stroke="#c0388d" stroke-width="1.51"/><path d="M1013,808L894,1013L1091,1026Z" fill="#d13d8f" stroke="#d13d8f" stroke-width="1.51"/><path d="M840,92L930,278L1001,54Z" fill="#fb9bb1" stroke="#fb9bb1" stroke-width="1.51"/><path d="M897,570L842,656L1037,723Z" fill="#f160a0" stroke="#f160a0" stroke-width="1.51"/><path d="M897,1322L1016,1332L1048,1187Z" fill="#a93588" stroke="#a93588" stroke-width="1.51"/><path d="M1001,54L930,278L1051,256Z" fill="#f990ae" stroke="#f990ae" stroke-width="1.51"/><path d="M868,423L1026,484L1053,411Z" fill="#f775a5" stroke="#f775a5" stroke-width="1.51"/><path d="M930,278L868,423L1053,411Z" fill="#f981a9" stroke="#f981a9" stroke-width="1.51"/><path d="M830,821L894,1013L1013,808Z" fill="#db4c96" stroke="#db4c96" stroke-width="1.51"/><path d="M871,1116L897,1322L1048,1187Z" fill="#b23b8b" stroke="#b23b8b" stroke-width="1.51"/><path d="M1017,-159L864,-7L1035,-58Z" fill="#fda6be" stroke="#fda6be" stroke-width="1.51"/><path d="M864,-7L1001,54L1035,-58Z" fill="#fca1b9" stroke="#fca1b9" stroke-width="1.51"/><path d="M842,656L1013,808L1037,723Z" fill="#eb529d" stroke="#eb529d" stroke-width="1.51"/><path d="M842,656L830,821L1013,808Z" fill="#e9569d" stroke="#e9569d" stroke-width="1.51"/><path d="M868,423L897,570L1026,484Z" fill="#f872a4" stroke="#f872a4" stroke-width="1.51"/><path d="M785,-194L864,-7L1017,-159Z" fill="#feb0c3" stroke="#feb0c3" stroke-width="1.51"/><path d="M837,-244L785,-194L1017,-159Z" fill="#feb5c7" stroke="#feb5c7" stroke-width="1.51"/><path d="M864,-7L840,92L1001,54Z" fill="#fca4b8" stroke="#fca4b8" stroke-width="1.51"/><path d="M561,1261L407,1286L695,1288Z" fill="#ac5c94" stroke="#ac5c94" stroke-width="1.51"/><path d="M830,821L749,990L894,1013Z" fill="#d55094" stroke="#d55094" stroke-width="1.51"/><path d="M871,1116L768,1152L897,1322Z" fill="#b4468f" stroke="#b4468f" stroke-width="1.51"/><path d="M840,92L735,235L930,278Z" fill="#fb9db2" stroke="#fb9db2" stroke-width="1.51"/><path d="M735,235L785,349L930,278Z" fill="#fa96b1" stroke="#fa96b1" stroke-width="1.51"/><path d="M785,349L868,423L930,278Z" fill="#f98bad" stroke="#f98bad" stroke-width="1.51"/><path d="M749,990L871,1116L894,1013Z" fill="#c84c92" stroke="#c84c92" stroke-width="1.51"/><path d="M768,1152L695,1288L897,1322Z" fill="#ae4a8f" stroke="#ae4a8f" stroke-width="1.51"/><path d="M868,423L717,544L897,570Z" fill="#f979a7" stroke="#f979a7" stroke-width="1.51"/><path d="M717,544L842,656L897,570Z" fill="#f571a5" stroke="#f571a5" stroke-width="1.51"/><path d="M785,-194L679,-55L864,-7Z" fill="#fdb7c5" stroke="#fdb7c5" stroke-width="1.51"/><path d="M714,714L830,821L842,656Z" fill="#ec64a2" stroke="#ec64a2" stroke-width="1.51"/><path d="M743,59L840,92L864,-7Z" fill="#fcabbb" stroke="#fcabbb" stroke-width="1.51"/><path d="M785,349L717,544L868,423Z" fill="#f986ac" stroke="#f986ac" stroke-width="1.51"/><path d="M749,990L768,1152L871,1116Z" fill="#c24e93" stroke="#c24e93" stroke-width="1.51"/><path d="M679,-55L743,59L864,-7Z" fill="#fcb2c0" stroke="#fcb2c0" stroke-width="1.51"/><path d="M99,-172L312,-161L448,-194Z" fill="#fddbd7" stroke="#fddbd7" stroke-width="1.51"/><path d="M699,821L749,990L830,821Z" fill="#dd5c9b" stroke="#dd5c9b" stroke-width="1.51"/><path d="M714,714L699,821L830,821Z" fill="#e864a1" stroke="#e864a1" stroke-width="1.51"/><path d="M636,-194L785,-194L837,-244Z" fill="#fec0cd" stroke="#fec0cd" stroke-width="1.51"/><path d="M743,59L735,235L840,92Z" fill="#fba9b7" stroke="#fba9b7" stroke-width="1.51"/><path d="M717,544L714,714L842,656Z" fill="#f371a5" stroke="#f371a5" stroke-width="1.51"/><path d="M636,-194L630,-93L679,-55Z" fill="#fdc3cb" stroke="#fdc3cb" stroke-width="1.51"/><path d="M634,240L735,235L743,59Z" fill="#fbaab8" stroke="#fbaab8" stroke-width="1.51"/><path d="M749,990L627,1137L768,1152Z" fill="#c25795" stroke="#c25795" stroke-width="1.51"/><path d="M584,392L717,544L785,349Z" fill="#fa90af" stroke="#fa90af" stroke-width="1.51"/><path d="M735,235L634,240L785,349Z" fill="#fba0b4" stroke="#fba0b4" stroke-width="1.51"/><path d="M634,240L584,392L785,349Z" fill="#fa9fb4" stroke="#fa9fb4" stroke-width="1.51"/><path d="M636,-194L679,-55L785,-194Z" fill="#fec1cb" stroke="#fec1cb" stroke-width="1.51"/><path d="M562,129L634,240L743,59Z" fill="#fbb2bb" stroke="#fbb2bb" stroke-width="1.51"/><path d="M627,1137L695,1288L768,1152Z" fill="#b65594" stroke="#b65594" stroke-width="1.51"/><path d="M576,560L714,714L717,544Z" fill="#f57da9" stroke="#f57da9" stroke-width="1.51"/><path d="M699,821L551,994L749,990Z" fill="#d7619a" stroke="#d7619a" stroke-width="1.51"/><path d="M551,994L627,1137L749,990Z" fill="#c95e99" stroke="#c95e99" stroke-width="1.51"/><path d="M679,-55L562,129L743,59Z" fill="#fcb8c0" stroke="#fcb8c0" stroke-width="1.51"/><path d="M576,560L575,730L714,714Z" fill="#f17ba9" stroke="#f17ba9" stroke-width="1.51"/><path d="M584,392L576,560L717,544Z" fill="#f98cad" stroke="#f98cad" stroke-width="1.51"/><path d="M627,1137L561,1261L695,1288Z" fill="#b25995" stroke="#b25995" stroke-width="1.51"/><path d="M585,791L551,994L699,821Z" fill="#df6aa0" stroke="#df6aa0" stroke-width="1.51"/><path d="M585,791L699,821L714,714Z" fill="#e96da4" stroke="#e96da4" stroke-width="1.51"/><path d="M575,730L585,791L714,714Z" fill="#ed73a7" stroke="#ed73a7" stroke-width="1.51"/><path d="M630,-93L477,-20L679,-55Z" fill="#fdc2c8" stroke="#fdc2c8" stroke-width="1.51"/><path d="M477,-20L562,129L679,-55Z" fill="#fcbfc3" stroke="#fcbfc3" stroke-width="1.51"/><path d="M441,248L584,392L634,240Z" fill="#fbaab8" stroke="#fbaab8" stroke-width="1.51"/><path d="M448,-194L630,-93L636,-194Z" fill="#fecacf" stroke="#fecacf" stroke-width="1.51"/><path d="M551,994L481,1006L627,1137Z" fill="#ca659a" stroke="#ca659a" stroke-width="1.51"/><path d="M562,129L441,248L634,240Z" fill="#fcb3bb" stroke="#fcb3bb" stroke-width="1.51"/><path d="M448,-194L477,-20L630,-93Z" fill="#fdcacc" stroke="#fdcacc" stroke-width="1.51"/><path d="M388,1174L561,1261L627,1137Z" fill="#b76198" stroke="#b76198" stroke-width="1.51"/><path d="M481,1006L388,1174L627,1137Z" fill="#c2669a" stroke="#c2669a" stroke-width="1.51"/><path d="M414,578L380,741L575,730Z" fill="#f284ab" stroke="#f284ab" stroke-width="1.51"/><path d="M380,741L383,820L575,730Z" fill="#ec7da9" stroke="#ec7da9" stroke-width="1.51"/><path d="M414,578L575,730L576,560Z" fill="#f586ac" stroke="#f586ac" stroke-width="1.51"/><path d="M441,248L382,362L584,392Z" fill="#fbabb9" stroke="#fbabb9" stroke-width="1.51"/><path d="M414,578L576,560L584,392Z" fill="#fa92af" stroke="#fa92af" stroke-width="1.51"/><path d="M382,362L414,578L584,392Z" fill="#fb9fb3" stroke="#fb9fb3" stroke-width="1.51"/><path d="M481,1006L551,994L585,791Z" fill="#d86b9d" stroke="#d86b9d" stroke-width="1.51"/><path d="M383,820L481,1006L585,791Z" fill="#df73a2" stroke="#df73a2" stroke-width="1.51"/><path d="M575,730L383,820L585,791Z" fill="#ea78a7" stroke="#ea78a7" stroke-width="1.51"/><path d="M477,-20L398,119L562,129Z" fill="#fcc1c1" stroke="#fcc1c1" stroke-width="1.51"/><path d="M388,1174L407,1286L561,1261Z" fill="#b26498" stroke="#b26498" stroke-width="1.51"/><path d="M398,119L441,248L562,129Z" fill="#fcbbbd" stroke="#fcbbbd" stroke-width="1.51"/><path d="M302,1256L123,1345L407,1286Z" fill="#ac6b9b" stroke="#ac6b9b" stroke-width="1.51"/><path d="M298,-33L398,119L477,-20Z" fill="#fdcac7" stroke="#fdcac7" stroke-width="1.51"/><path d="M448,-194L312,-161L477,-20Z" fill="#fed2d0" stroke="#fed2d0" stroke-width="1.51"/><path d="M312,-161L298,-33L477,-20Z" fill="#fdd2ce" stroke="#fdd2ce" stroke-width="1.51"/><path d="M383,820L293,829L481,1006Z" fill="#df79a3" stroke="#df79a3" stroke-width="1.51"/><path d="M293,829L239,1039L481,1006Z" fill="#d776a0" stroke="#d776a0" stroke-width="1.51"/><path d="M239,1039L388,1174L481,1006Z" fill="#c7709d" stroke="#c7709d" stroke-width="1.51"/><path d="M250,391L228,518L382,362Z" fill="#fcabb9" stroke="#fcabb9" stroke-width="1.51"/><path d="M298,-33L303,99L398,119Z" fill="#fdcbc6" stroke="#fdcbc6" stroke-width="1.51"/><path d="M382,362L228,518L414,578Z" fill="#fba1b4" stroke="#fba1b4" stroke-width="1.51"/><path d="M398,119L329,232L441,248Z" fill="#fcbdbe" stroke="#fcbdbe" stroke-width="1.51"/><path d="M329,232L382,362L441,248Z" fill="#fcb6bc" stroke="#fcb6bc" stroke-width="1.51"/><path d="M239,1039L238,1120L388,1174Z" fill="#c272a0" stroke="#c272a0" stroke-width="1.51"/><path d="M313,739L380,741L414,578Z" fill="#f38aad" stroke="#f38aad" stroke-width="1.51"/><path d="M388,1174L302,1256L407,1286Z" fill="#b26999" stroke="#b26999" stroke-width="1.51"/><path d="M228,518L313,739L414,578Z" fill="#f794b1" stroke="#f794b1" stroke-width="1.51"/><path d="M303,99L329,232L398,119Z" fill="#fcc4c0" stroke="#fcc4c0" stroke-width="1.51"/><path d="M380,741L313,739L383,820Z" fill="#ed83aa" stroke="#ed83aa" stroke-width="1.51"/><path d="M329,232L250,391L382,362Z" fill="#fbb5bc" stroke="#fbb5bc" stroke-width="1.51"/><path d="M313,739L293,829L383,820Z" fill="#ea83aa" stroke="#ea83aa" stroke-width="1.51"/><path d="M238,1120L302,1256L388,1174Z" fill="#b96f9d" stroke="#b96f9d" stroke-width="1.51"/><path d="M25,1324L-129,1342L123,1345Z" fill="#a775a6" stroke="#a775a6" stroke-width="1.51"/><path d="M97,564L79,717L228,518Z" fill="#f99eba" stroke="#f99eba" stroke-width="1.51"/><path d="M137,982L239,1039L293,829Z" fill="#d97ca5" stroke="#d97ca5" stroke-width="1.51"/><path d="M139,865L137,982L293,829Z" fill="#e082aa" stroke="#e082aa" stroke-width="1.51"/><path d="M298,-33L171,49L303,99Z" fill="#fdd0cb" stroke="#fdd0cb" stroke-width="1.51"/><path d="M138,-83L298,-33L312,-161Z" fill="#fdd9d4" stroke="#fdd9d4" stroke-width="1.51"/><path d="M228,518L79,717L313,739Z" fill="#f595b5" stroke="#f595b5" stroke-width="1.51"/><path d="M303,99L187,212L329,232Z" fill="#fdc4c2" stroke="#fdc4c2" stroke-width="1.51"/><path d="M187,212L250,391L329,232Z" fill="#fcbcc1" stroke="#fcbcc1" stroke-width="1.51"/><path d="M139,865L293,829L313,739Z" fill="#e885ad" stroke="#e885ad" stroke-width="1.51"/><path d="M79,717L139,865L313,739Z" fill="#ed8bb3" stroke="#ed8bb3" stroke-width="1.51"/><path d="M99,-172L138,-83L312,-161Z" fill="#fededa" stroke="#fededa" stroke-width="1.51"/><path d="M238,1120L98,1140L302,1256Z" fill="#bb73a2" stroke="#bb73a2" stroke-width="1.51"/><path d="M98,1140L123,1345L302,1256Z" fill="#b272a1" stroke="#b272a1" stroke-width="1.51"/><path d="M171,49L187,212L303,99Z" fill="#fdccc7" stroke="#fdccc7" stroke-width="1.51"/><path d="M187,212L115,337L250,391Z" fill="#fcbcc3" stroke="#fcbcc3" stroke-width="1.51"/><path d="M138,-83L171,49L298,-33Z" fill="#fdd6d2" stroke="#fdd6d2" stroke-width="1.51"/><path d="M115,337L228,518L250,391Z" fill="#fcb0be" stroke="#fcb0be" stroke-width="1.51"/><path d="M115,337L97,564L228,518Z" fill="#fcabbe" stroke="#fcabbe" stroke-width="1.51"/><path d="M98,1140L238,1120L239,1039Z" fill="#c577a4" stroke="#c577a4" stroke-width="1.51"/><path d="M137,982L98,1140L239,1039Z" fill="#cb7ba7" stroke="#cb7ba7" stroke-width="1.51"/><path d="M-19,430L97,564L115,337Z" fill="#fdb3c3" stroke="#fdb3c3" stroke-width="1.51"/><path d="M98,1140L25,1324L123,1345Z" fill="#af75a5" stroke="#af75a5" stroke-width="1.51"/><path d="M-71,89L30,251L171,49Z" fill="#fdd3cf" stroke="#fdd3cf" stroke-width="1.51"/><path d="M171,49L30,251L187,212Z" fill="#fdccca" stroke="#fdccca" stroke-width="1.51"/><path d="M30,251L115,337L187,212Z" fill="#fdc4c8" stroke="#fdc4c8" stroke-width="1.51"/><path d="M138,-83L-18,-108L171,49Z" fill="#fdddd9" stroke="#fdddd9" stroke-width="1.51"/><path d="M-18,-108L-71,89L171,49Z" fill="#fddcd7" stroke="#fddcd7" stroke-width="1.51"/><path d="M-18,1165L25,1324L98,1140Z" fill="#b77aa9" stroke="#b77aa9" stroke-width="1.51"/><path d="M-42,1010L98,1140L137,982Z" fill="#cd80ab" stroke="#cd80ab" stroke-width="1.51"/><path d="M99,-172L-18,-108L138,-83Z" fill="#fee2de" stroke="#fee2de" stroke-width="1.51"/><path d="M79,717L-46,800L139,865Z" fill="#ec8fb7" stroke="#ec8fb7" stroke-width="1.51"/><path d="M-42,1010L137,982L139,865Z" fill="#d982ac" stroke="#d982ac" stroke-width="1.51"/><path d="M-46,800L-42,1010L139,865Z" fill="#e18ab2" stroke="#e18ab2" stroke-width="1.51"/><path d="M-13,581L79,717L97,564Z" fill="#f99fbd" stroke="#f99fbd" stroke-width="1.51"/><path d="M-19,430L-13,581L97,564Z" fill="#fdaac1" stroke="#fdaac1" stroke-width="1.51"/><path d="M-42,1010L-18,1165L98,1140Z" fill="#c57fac" stroke="#c57fac" stroke-width="1.51"/><path d="M30,251L-19,430L115,337Z" fill="#fdc0c9" stroke="#fdc0c9" stroke-width="1.51"/><path d="M-13,581L-67,653L79,717Z" fill="#f79fbe" stroke="#f79fbe" stroke-width="1.51"/><path d="M-19,-185L-18,-108L99,-172Z" fill="#fee5e2" stroke="#fee5e2" stroke-width="1.51"/><path d="M-67,653L-46,800L79,717Z" fill="#f398bd" stroke="#f398bd" stroke-width="1.51"/><path d="M-46,800L-184,874L-42,1010Z" fill="#e18eb6" stroke="#e18eb6" stroke-width="1.51"/><path d="M-18,1165L-139,1193L25,1324Z" fill="#b57cab" stroke="#b57cab" stroke-width="1.51"/><path d="M-139,1193L-129,1342L25,1324Z" fill="#ae7baa" stroke="#ae7baa" stroke-width="1.51"/><path d="M-71,89L-178,192L30,251Z" fill="#fed3d2" stroke="#fed3d2" stroke-width="1.51"/><path d="M-178,192L-116,360L30,251Z" fill="#fecbd0" stroke="#fecbd0" stroke-width="1.51"/><path d="M-116,360L-19,430L30,251Z" fill="#fdc2cc" stroke="#fdc2cc" stroke-width="1.51"/><path d="M-184,874L-165,1007L-42,1010Z" fill="#d98bb3" stroke="#d98bb3" stroke-width="1.51"/><path d="M-165,1007L-139,1193L-42,1010Z" fill="#cb85b1" stroke="#cb85b1" stroke-width="1.51"/><path d="M-116,360L-212,531L-19,430Z" fill="#febaca" stroke="#febaca" stroke-width="1.51"/><path d="M-198,-58L-71,89L-18,-108Z" fill="#fee2de" stroke="#fee2de" stroke-width="1.51"/><path d="M-19,-185L-197,-202L-18,-108Z" fill="#feebe6" stroke="#feebe6" stroke-width="1.51"/><path d="M-42,1010L-139,1193L-18,1165Z" fill="#c381ae" stroke="#c381ae" stroke-width="1.51"/><path d="M-170,646L-67,653L-13,581Z" fill="#f9a4c1" stroke="#f9a4c1" stroke-width="1.51"/><path d="M-212,531L-170,646L-13,581Z" fill="#fcaac4" stroke="#fcaac4" stroke-width="1.51"/><path d="M-19,430L-212,531L-13,581Z" fill="#ffb0c5" stroke="#ffb0c5" stroke-width="1.51"/><path d="M-197,-202L-198,-58L-18,-108Z" fill="#feeae6" stroke="#feeae6" stroke-width="1.51"/><path d="M-67,653L-170,646L-46,800Z" fill="#f59ec0" stroke="#f59ec0" stroke-width="1.51"/><path d="M-170,646L-184,874L-46,800Z" fill="#f099bf" stroke="#f099bf" stroke-width="1.51"/><path d="M-204,137L-178,192L-71,89Z" fill="#fed9d5" stroke="#fed9d5" stroke-width="1.51"/><path d="M-198,-58L-204,137L-71,89Z" fill="#fedfdb" stroke="#fedfdb" stroke-width="1.51"/><path d="M-165,1007L-184,874L-129,1342Z" fill="#ca87b3" stroke="#ca87b3" stroke-width="1.51"/><path d="M-178,192L-212,531L-116,360Z" fill="#ffc6d0" stroke="#ffc6d0" stroke-width="1.51"/><path d="M-139,1193L-165,1007L-129,1342Z" fill="#bc82b0" stroke="#bc82b0" stroke-width="1.51"/><path d="M-204,137L-212,531L-178,192Z" fill="#ffced4" stroke="#ffced4" stroke-width="1.51"/><path d="M-212,531L-184,874L-170,646Z" fill="#f7a3c4" stroke="#f7a3c4" stroke-width="1.51"/><path d="M-204,137L-198,-58L-197,-202Z" fill="#fee7e4" stroke="#fee7e4" stroke-width="1.51"/></svg>