<?xml version="1.0" encoding="utf-8"?>
<!-- Generator: Adobe Illustrator 19.0.0, SVG Export Plug-In . SVG Version: 6.00 Build 0)  -->
<svg version="1.1" id="Calque_1" xmlns="http://www.w3.org/2000/svg" xmlns:xlink="http://www.w3.org/1999/xlink" x="0px" y="0px"
	 viewBox="0 0 2414 734" style="enable-background:new 0 0 2414 734;" xml:space="preserve" shape-rendering="geometricPrecision">
<style type="text/css">
	.st0{fill:#FFFFFF;}
</style>
<g id="XMLID_51_">
	<path id="XMLID_62_" class="st0" d="M1746.1,587c-0.3,0.3-0.6,0.6-0.9,0.8c-0.3,0.2-0.7,0.3-1.2,0.3c-0.6,0-1.5-0.4-2.6-1.3
		c-1.1-0.8-2.5-1.7-4.3-2.7c-1.8-1-4-1.9-6.7-2.7c-2.7-0.8-6-1.3-9.8-1.3c-5.3,0-10,0.9-14.2,2.8c-4.1,1.9-7.6,4.6-10.4,8.1
		s-5,7.8-6.4,12.8c-1.5,5-2.2,10.6-2.2,16.9c0,6.5,0.8,12.2,2.3,17.3c1.5,5,3.7,9.2,6.4,12.7c2.8,3.4,6.2,6,10.1,7.8
		c4,1.8,8.4,2.7,13.2,2.7c4.5,0,8.2-0.5,11.2-1.6c3-1.1,5.5-2.2,7.4-3.4c1.9-1.2,3.5-2.4,4.6-3.4c1.1-1.1,2.1-1.6,2.7-1.6
		c0.8,0,1.4,0.3,1.9,0.9l2.4,3c-1.4,1.9-3.2,3.6-5.4,5.2c-2.2,1.6-4.6,3-7.3,4.2c-2.7,1.2-5.7,2.1-8.9,2.7c-3.2,0.6-6.5,1-10,1
		c-5.9,0-11.2-1.1-16.1-3.2c-4.9-2.1-9-5.2-12.5-9.3c-3.5-4.1-6.2-9-8.2-14.9c-1.9-5.9-2.9-12.6-2.9-20c0-7.1,0.9-13.5,2.8-19.3
		c1.9-5.8,4.6-10.8,8.1-15c3.6-4.2,7.9-7.5,13.1-9.8c5.2-2.3,11.1-3.5,17.8-3.5c6,0,11.3,1,16,2.9c4.7,1.9,8.7,4.5,12.2,7.8
		L1746.1,587z"/>
	<path id="XMLID_60_" class="st0" d="M1781.2,532v135h-8.8V532H1781.2z"/>
	<path id="XMLID_57_" class="st0" d="M1849.1,573.2c6.6,0,12.5,1.1,17.8,3.4c5.2,2.3,9.6,5.5,13.2,9.6c3.6,4.1,6.3,9.1,8.2,15
		c1.9,5.8,2.8,12.4,2.8,19.6c0,7.2-0.9,13.8-2.8,19.6c-1.9,5.8-4.6,10.8-8.2,14.9c-3.6,4.1-8,7.3-13.2,9.6
		c-5.2,2.2-11.2,3.3-17.8,3.3c-6.6,0-12.5-1.1-17.8-3.3c-5.2-2.2-9.7-5.4-13.3-9.6c-3.6-4.1-6.4-9.1-8.3-14.9
		c-1.9-5.8-2.8-12.3-2.8-19.6c0-7.2,0.9-13.8,2.8-19.6c1.9-5.8,4.6-10.8,8.3-15s8-7.3,13.3-9.6
		C1836.5,574.3,1842.4,573.2,1849.1,573.2z M1849.1,661.3c5.5,0,10.3-0.9,14.4-2.8c4.1-1.9,7.5-4.6,10.3-8.1
		c2.8-3.5,4.8-7.8,6.2-12.8c1.4-5,2-10.6,2-16.8c0-6.1-0.7-11.7-2-16.7c-1.4-5-3.4-9.3-6.2-12.9c-2.8-3.6-6.2-6.3-10.3-8.2
		c-4.1-1.9-8.9-2.9-14.4-2.9s-10.3,1-14.4,2.9c-4.1,1.9-7.5,4.7-10.3,8.2c-2.8,3.6-4.8,7.8-6.2,12.9c-1.4,5-2.1,10.6-2.1,16.7
		c0,6.2,0.7,11.8,2.1,16.8c1.4,5,3.5,9.2,6.2,12.8c2.8,3.5,6.2,6.2,10.3,8.1C1838.7,660.3,1843.5,661.3,1849.1,661.3z"/>
	<path id="XMLID_55_" class="st0" d="M1920.8,574.7v59c0,8.7,2,15.5,6,20.4c4,4.9,10,7.4,18.2,7.4c6,0,11.6-1.5,16.9-4.6
		c5.2-3.1,9.9-7.3,14.1-12.8v-69.4h8.8V667h-4.9c-1.7,0-2.6-0.8-2.7-2.4l-0.8-13.7c-4.3,5.3-9.2,9.6-14.8,12.8
		c-5.6,3.2-11.8,4.8-18.7,4.8c-5.1,0-9.6-0.8-13.5-2.4c-3.8-1.6-7-3.9-9.6-7c-2.5-3-4.5-6.7-5.8-11c-1.3-4.3-2-9.1-2-14.5v-59
		H1920.8z"/>
	<path id="XMLID_52_" class="st0" d="M2080.2,667c-1.5,0-2.4-0.8-2.7-2.4l-0.9-14.6c-4.1,5.6-8.9,10-14.4,13.3
		c-5.5,3.3-11.6,4.9-18.4,4.9c-11.3,0-20.2-3.9-26.5-11.8c-6.3-7.9-9.5-19.6-9.5-35.4c0-6.7,0.9-13,2.6-18.9
		c1.8-5.8,4.4-10.9,7.8-15.2c3.4-4.3,7.7-7.7,12.6-10.2c5-2.5,10.7-3.7,17.2-3.7c6.3,0,11.7,1.2,16.3,3.5c4.6,2.3,8.5,5.7,11.9,10.2
		V532h8.8v135H2080.2z M2046.3,661.1c6.1,0,11.7-1.6,16.6-4.7c5-3.2,9.4-7.5,13.3-13.2v-48.7c-3.6-5.3-7.5-9-11.8-11.1
		c-4.3-2.2-9.2-3.2-14.6-3.2c-5.5,0-10.2,1-14.3,3c-4.1,2-7.5,4.8-10.3,8.4c-2.8,3.6-4.8,8-6.2,13c-1.4,5-2.1,10.6-2.1,16.7
		c0,13.7,2.5,23.8,7.6,30.3C2029.5,657.9,2036.8,661.1,2046.3,661.1z"/>
</g>
<g>
	<g>
		<path class="st0" d="M2319.3,204.4c-35.6,0-67.1-27.6-67.1-71.1c0-34.3,25-61,57.2-66.1c7.3-0.8,14.5-1,22.2,0
			c33.3,5.2,55.5,33.3,55.5,66.1C2387.3,177.6,2357.1,204.4,2319.3,204.4z M2329.6,81.3c-5.9-0.9-12-0.9-18.2,0
			c-25.8,4.2-43.6,25.7-43.6,52.7c0,35.1,23.3,56,51.6,56c29.6,0,52.2-21.7,52.2-56C2371.5,105.5,2355,85.2,2329.6,81.3z"/>
		<path class="st0" d="M2176.6,203.9c-16.6,0-31.6-6.5-41.9-18.8c-9.2-11.1-13.4-24.5-12.6-40.1c1.9-23.4,16.2-42.6,39-49.1
			c5.5-1.5,10.5-1.9,15.5-1.9c5.2,0,10.9,0.4,16,1.9c23.1,6.5,36.7,25.9,38.8,49.1c0.6,15.7-3.3,29-12.8,40.1
			C2208.2,197.5,2193.3,203.9,2176.6,203.9z M2165.2,109.7c-17.8,4.6-28.1,21.1-28.1,40.1c0,9,3.3,19,9.2,26.1
			c7.3,8.3,18.9,13.8,30.2,13.8c11.6,0,22.7-5,30-13.8c6.3-7.3,9.2-17.2,9.2-26.5c0-18.8-10.3-35.1-27.9-39.7
			c-3.1-0.8-7.1-1.5-11.1-1.5C2172.8,108.2,2168.6,108.8,2165.2,109.7z"/>
	</g>
	<g>
		<g>
			<path class="st0" d="M1119.1,260.2c3.6-6.2,10.9-4.3,10.9,2.9v218.9c0,8.3-11.2,8.7-11.2,0V282.7l-85,146.6
				c-2.6,5.4-8.9,5.4-11.5,0l-85-145.8v198.7c0,8.7-11.2,8.3-11.2,0V263.1c0-7.2,7.2-9,10.5-2.9l91.5,156.7L1119.1,260.2z"/>
			<path class="st0" d="M1177.9,369.1c1.6-54.3,32.2-102.2,82.2-111c11.2-1.7,23.3-1.7,34.4,0c50.3,8.8,84.7,56.7,86,111
				c1.9,67.6-45.9,119.4-101.3,119.4C1224.1,488.5,1176.3,436.6,1177.9,369.1z M1188.7,369.4c-1.6,60.2,41.1,108.2,90.5,108.2
				c49.7,0,92.4-48,90.8-108.2c-1.3-49-31.9-92.4-77.1-100.1c-10.2-1.8-21-1.8-31.2,0C1216.8,277,1190,320.4,1188.7,369.4z"/>
			<path class="st0" d="M1571.8,256.5c7.9,0,7.9,10.9,0,10.9h-85.3l0.3,214.2c0,4.7-3.3,6.9-5.9,6.9c-2.6,0-5.6-2.2-5.6-6.9V267.3
				h-84.9c-7.9,0-7.9-10.9,0-10.9C1450.6,256.5,1511.2,256.5,1571.8,256.5z"/>
			<path class="st0" d="M1609.7,263.1c0-9,11.8-9,11.8,0v219.2c0,8.3-11.8,8.3-11.8,0V263.1z"/>
			<path class="st0" d="M1669.8,369c1.6-54.4,32.3-102.5,82.4-111.3c11.2-1.7,23.3-1.7,34.5,0c50.5,8.8,85,56.9,86.2,111.3
				c1.9,67.7-46,119.7-101.5,119.7C1716.1,488.7,1668.2,436.7,1669.8,369z M1680.6,369.4c-1.6,60.4,41.2,108.4,90.7,108.4
				c49.8,0,92.6-48.1,91-108.4c-1.3-49.1-31.9-92.7-77.3-100.4c-10.2-1.7-21.1-1.7-31.3,0C1708.7,276.7,1681.9,320.2,1680.6,369.4z"
				/>
			<path class="st0" d="M2076.3,263.3c0-9.1,11.2-9.1,11.2,0v218c0,8.7-7.2,8.7-11.5,2.9l-143.4-205.4V482c0,8.7-10.9,8.7-10.9,0
				V264.3c0-9.1,6.9-10.1,11.5-3.6l143.1,205.4V263.3z"/>
		</g>
		<g>
			<path class="st0" d="M147.2,456.7c9.7,0,18.2-0.9,25.5-2.6c7.2-1.8,14.1-4.2,20.7-7.3v-42.1h-29.1c-2.8,0-5-0.8-6.6-2.3
				c-1.6-1.6-2.4-3.4-2.4-5.7v-24.3h77.3v93.7c-5.9,4.3-12,8-18.4,11.1c-6.4,3.1-13.2,5.7-20.4,7.8c-7.2,2-15,3.5-23.2,4.6
				c-8.3,1-17.1,1.5-26.7,1.5c-16.9,0-32.5-2.9-46.7-8.8c-14.2-5.9-26.6-14-37-24.5c-10.4-10.5-18.5-22.9-24.3-37.5
				c-5.8-14.5-8.8-30.4-8.8-47.6c0-17.4,2.8-33.4,8.5-47.9c5.7-14.5,13.7-27,24.2-37.5c10.4-10.5,23.1-18.6,38-24.4
				c14.9-5.8,31.6-8.6,50.1-8.6c18.9,0,35.3,2.8,49.2,8.4c13.9,5.6,25.6,12.9,35.3,21.8l-12.6,19.6c-2.4,4-5.7,5.9-9.8,5.9
				c-2.6,0-5.2-0.9-7.9-2.6c-3.4-2-6.9-4.1-10.5-6.1c-3.6-2-7.5-3.8-11.9-5.3c-4.3-1.5-9.2-2.7-14.6-3.7c-5.4-1-11.6-1.4-18.7-1.4
				c-11.5,0-21.8,1.9-31.1,5.8c-9.3,3.8-17.2,9.3-23.7,16.5c-6.5,7.2-11.6,15.8-15.1,25.8c-3.5,10-5.3,21.2-5.3,33.6
				c0,13.4,1.9,25.2,5.6,35.6c3.7,10.4,9,19.2,15.7,26.3c6.8,7.2,14.8,12.6,24.1,16.4C126,454.8,136.1,456.7,147.2,456.7z"/>
			<path class="st0" d="M419.3,256.8v34.3h-103v64.2h81.1v33.2h-81.1v65.5h103v34.4H272.8V256.8H419.3z"/>
			<path class="st0" d="M484.2,257c1.3,0.2,2.4,0.5,3.5,1c1,0.5,2,1.2,3,2.1c1,0.9,2,2.1,3.2,3.6l121.9,154.9
				c-0.4-3.7-0.7-7.4-0.9-11c-0.2-3.6-0.3-6.9-0.3-10V256.8h38.1v231.6h-22.3c-3.4,0-6.3-0.5-8.5-1.6c-2.3-1.1-4.4-3-6.6-5.7
				L493.8,326.8c0.3,3.4,0.6,6.8,0.7,10.2c0.2,3.4,0.2,6.4,0.2,9.2v142.2h-38.1V256.8h22.7C481.3,256.8,482.9,256.9,484.2,257z"/>
			<path class="st0" d="M802.9,398.4v90h-43.2v-90L675,256.8h38.1c3.7,0,6.7,0.9,8.9,2.7c2.2,1.8,4,4.1,5.5,6.9l42.6,77.4
				c2.5,4.6,4.6,8.9,6.4,13c1.8,4.1,3.5,8.2,5,12.1c1.4-4.1,3-8.2,4.7-12.3c1.8-4.1,3.9-8.4,6.3-12.9l42.3-77.4
				c1.2-2.3,2.9-4.5,5.3-6.6c2.4-2,5.4-3.1,9-3.1h38.2L802.9,398.4z"/>
		</g>
	</g>
</g>
</svg>
